<?xml version="1.0" encoding="iso-8859-1"?>
<!-- Generator: Adobe Illustrator 27.0.0, SVG Export Plug-In . SVG Version: 6.00 Build 0)  -->
<svg version="1.1" baseProfile="basic" xmlns="http://www.w3.org/2000/svg" xmlns:xlink="http://www.w3.org/1999/xlink" x="0px"
	 y="0px" viewBox="0 0 64 64" xml:space="preserve">
<g id="Layer_1">
</g>
<g id="Layer_2">
</g>
<g id="&#x421;&#x43B;&#x43E;&#x439;_1">
</g>
<g id="&#x421;&#x43B;&#x43E;&#x439;_4">
	<g>
		<path style="fill:#B6B6EF;" d="M61,32c0,3.99-0.8,7.78-2.26,11.24c-3.31,7.87-9.99,13.97-18.24,16.5C37.81,60.56,34.96,61,32,61
			C15.98,61,3,48.02,3,32S15.98,3,32,3S61,15.98,61,32z"/>
	</g>
	<g>
		<path style="fill:#8D6C9F;" d="M32,3C15.984,3,3,15.984,3,32s12.984,29,29,29s29-12.984,29-29S48.016,3,32,3z M32,59
			C17.088,59,5,46.912,5,32S17.088,5,32,5s27,12.088,27,27S46.912,59,32,59z"/>
	</g>
	<g>
		<path style="fill:#8D6C9F;" d="M31.999,52.348c-0.505,0-0.913,0.409-0.913,0.913v1.826c0,0.504,0.408,0.913,0.913,0.913
			s0.913-0.409,0.913-0.913v-1.826C32.912,52.757,32.504,52.348,31.999,52.348z M37.489,52.418
			c-0.131-0.488-0.631-0.778-1.119-0.646c-0.487,0.131-0.776,0.631-0.646,1.119l0.473,1.764c0.109,0.408,0.478,0.677,0.881,0.677
			c0.079,0,0.158-0.01,0.237-0.032c0.487-0.131,0.776-0.631,0.646-1.119L37.489,52.418z M23.553,50.084
			c-0.436-0.251-0.995-0.102-1.247,0.334L21.393,52c-0.252,0.436-0.102,0.995,0.334,1.247c0.143,0.083,0.3,0.122,0.456,0.122
			c0.316,0,0.623-0.163,0.792-0.457l0.913-1.581C24.14,50.896,23.99,50.337,23.553,50.084z M41.692,50.419
			c-0.253-0.437-0.813-0.586-1.247-0.334c-0.437,0.252-0.587,0.811-0.334,1.247l0.913,1.581c0.17,0.293,0.476,0.457,0.792,0.457
			c0.155,0,0.312-0.039,0.456-0.122c0.437-0.252,0.587-0.811,0.334-1.247L41.692,50.419z M27.627,51.773
			c-0.487-0.131-0.988,0.158-1.119,0.646l-0.473,1.764c-0.131,0.488,0.159,0.988,0.646,1.119c0.079,0.021,0.159,0.032,0.237,0.032
			c0.403,0,0.772-0.269,0.881-0.677l0.473-1.764C28.403,52.403,28.114,51.902,27.627,51.773z"/>
	</g>
	<g>
		<g>
			<path style="fill:#8D6C9F;" d="M16,24.5c-4.14,0-7.5,3.36-7.5,7.5s3.36,7.5,7.5,7.5c1.69,0,3.25-0.56,4.5-1.52V40h3v-8
				C23.5,27.86,20.14,24.5,16,24.5z M16,36.5c-2.48,0-4.5-2.02-4.5-4.5s2.02-4.5,4.5-4.5s4.5,2.02,4.5,4.5S18.48,36.5,16,36.5z"/>
		</g>
	</g>
	<g>
		<g>
			<path style="fill:#8D6C9F;" d="M32,24.5c-1.69,0-3.25,0.56-4.5,1.52V20h-3v12c0,4.14,3.36,7.5,7.5,7.5s7.5-3.36,7.5-7.5
				S36.14,24.5,32,24.5z M32,36.5c-2.48,0-4.5-2.02-4.5-4.5s2.02-4.5,4.5-4.5s4.5,2.02,4.5,4.5S34.48,36.5,32,36.5z"/>
		</g>
	</g>
	<g>
		<g>
			<path style="fill:#8D6C9F;" d="M48,36.5c-2.48,0-4.5-2.02-4.5-4.5s2.02-4.5,4.5-4.5c2.14,0,3.93,1.5,4.38,3.5h3.05
				c-0.49-3.67-3.63-6.5-7.43-6.5c-4.14,0-7.5,3.36-7.5,7.5s3.36,7.5,7.5,7.5c3.8,0,6.94-2.83,7.43-6.5h-3.05
				C51.93,35,50.14,36.5,48,36.5z"/>
		</g>
	</g>
</g>
</svg>