<svg xmlns="http://www.w3.org/2000/svg"  viewBox="0 0 24 24" width="100px" height="100px"><path fill="#fe5b5f" d="m22.473 19.176c.021-.613-.049-1.166-.293-1.788-.042-.103-.368-.897-.326-.795-.044-.102-.646-1.503-.602-1.401l-.033-.033c-1.466-3.246-3.243-6.899-5.277-10.951l.002.005c-.123-.244-.726-1.438-.671-1.328-.516-.875-.765-1.431-1.642-1.94-1.755-1.012-3.205-.034-3.306-.006-.253.237-.668.193-1.631 1.969-.051.102-.661 1.292-.609 1.191-1.212 2.463-5.298 10.692-6.28 13.302l-.003.009-.003.008c-.189.539-.279 1.084-.279 1.612 0 1.204.465 2.314 1.237 3.124.915.964 2.244 1.482 3.693 1.278v.002c.009-.001.017-.003.026-.004.007-.001.014 0 .021-.002v-.002c.534-.054 1.196-.218 2.121-.719 1.733-1.025 3.128-2.78 3.363-3.017-.2-.296-2.581-3.034-3.19-5.665-1.223-5.665 6.545-6.129 6.558-1.22.017 3.063-3.171 6.629-3.329 6.88.862.802 3.976 5.118 7.757 3.443 1.401-.614 2.442-1.889 2.67-3.442l.07-.481z"/><path d="m18.049 24c-.207 0-.416-.013-.626-.039-.132.009-.167-.014-.245-.041-.53-.064-1.532-.206-2.953-1.228-.968-.688-1.714-1.471-2.225-2.043-.511.572-1.257 1.355-2.229 2.046-1.454 1.046-2.471 1.168-2.905 1.22l-.002-.009c-.099.042-.203.062-.313.058-1.389.167-2.727-.244-3.777-1.155-1.122-.972-1.765-2.397-1.765-3.91 0-1.283 0-1.99 6.437-14.823l.153-.315c.892-1.848 1.815-3.761 4.391-3.761 2.596 0 3.52 1.913 4.412 3.762l.155.32c6.435 12.828 6.435 13.536 6.435 14.818 0 1.513-.643 2.938-1.765 3.91-.899.779-2.007 1.19-3.178 1.19zm-.489-1.533c.986.135 1.941-.146 2.685-.79.792-.687 1.247-1.699 1.247-2.776 0-.949 0-1.635-6.278-14.15-.001-.003-.002-.005-.004-.008l-.159-.328c-.924-1.915-1.479-2.915-3.041-2.915-1.582 0-2.137 1-3.062 2.915l-.158.327c-6.282 12.524-6.282 13.21-6.282 14.158 0 1.078.455 2.089 1.247 2.776.744.645 1.698.923 2.685.79.086-.021.171-.031.248-.041.319-.038 1.067-.128 2.211-.951.924-.657 1.64-1.437 2.107-1.966-1.998-2.579-3.01-4.795-3.01-6.586 0-2.74 2.014-4.174 4.004-4.174s4.004 1.434 4.004 4.174c0 1.791-1.013 4.007-3.01 6.585.467.53 1.183 1.309 2.104 1.964 1.147.825 1.895.915 2.214.953.077.012.161.021.248.043zm-5.56-12.217c-1.246 0-2.504.827-2.504 2.674 0 1.377.865 3.246 2.504 5.416 1.639-2.17 2.504-4.039 2.504-5.416 0-1.847-1.258-2.674-2.504-2.674z"/></svg>