<svg xmlns="http://www.w3.org/2000/svg"  viewBox="0 0 80 80" width="100px" height="100px"><path fill="#f2faff" d="M25.982,68.5c-5.537,0-10.015-1.959-10.203-2.043l-0.292-0.13l-0.005-0.319 c-0.004-0.23-0.06-4.86,1.209-8.415c-3.639,2.958-6.271,6.653-6.301,6.695L9.93,64.94L1.76,50.12l0.114-0.233 c0.208-0.426,4.998-10.1,12.384-13.078c-5.114-3.868-8.303-4.309-8.336-4.313l-0.644-0.081l0.24-0.602 c0.063-0.155,6.404-15.607,20.198-24.237l0.258-0.161l0.262,0.154c4.501,2.65,7.231,7.075,8.727,10.305L33.416,5.5h13.143 l-1.601,11.287c1.033-2.334,2.57-5.099,4.676-7.145l0.24-0.233l0.307,0.133c4.335,1.872,8.02,5.953,8.174,6.125l0.307,0.342 l-0.315,0.334c-0.051,0.054-3.511,3.732-5.985,7.048c3.59-3.494,7.166-5.698,7.361-5.818l0.28-0.171l0.269,0.19 c0.431,0.304,10.553,7.541,12.203,16.316l0.092,0.489l-0.488,0.094c-2.47,0.474-4.396,1.083-5.861,1.677 c1.088-0.222,2.291-0.38,3.509-0.38c1.492,0,2.822,0.243,3.953,0.721l0.222,0.094l0.064,0.232c1.136,4.056,0.036,7.202-0.011,7.334 L73.834,44.5h-6.529c3.208,1.165,8.037,3.434,10.776,7.206l0.178,0.245l-0.134,0.271c-3.203,6.461-9.629,10.065-9.9,10.215 l-0.408,0.225l-0.253-0.39c-0.026-0.04-2.188-3.342-4.446-5.036c1.29,3.21,1.362,6.591,1.365,6.755l0.004,0.21l-0.148,0.149 c-0.167,0.169-4.166,4.149-10.355,4.149H25.982z"/><path fill="#66798f" d="M45.982,6l-2.2,15.515c0,0,1.925-7.359,6.2-11.515c4.284,1.85,8,6,8,6s-7.672,8.129-8.5,11.333 c4.284-5.535,10.5-9.333,10.5-9.333s10.368,7.323,12,16c-7.375,1.417-10,4-10,4s3.834-1.712,7.743-1.712 c1.289,0,2.587,0.186,3.757,0.682c1.106,3.949,0,7.03,0,7.03h-9.5c0,0,9.491,2.211,13.694,8c-3.169,6.396-9.694,10-9.694,10 s-3.167-4.877-6-6c1.925,3.487,2,8,2,8s-3.948,4-10,4h-28c-5.495,0-10-2-10-2s-0.105-6.571,2-10c-4.554,3.124-8,8-8,8 L2.324,50.106c0,0,5.192-10.644,12.959-13.136c-5.74-4.546-9.3-4.97-9.3-4.97s6.183-15.356,20-24c7.467,4.397,10,14,10,14l-2-16 H45.982 M47.134,5h-1.152h-12H32.85l0.141,1.124l1.132,9.056c-1.646-2.834-4.108-5.966-7.632-8.042L25.967,6.83l-0.515,0.322 C11.52,15.868,5.312,30.987,5.055,31.626l-0.488,1.212l1.297,0.154c0.025,0.003,2.833,0.41,7.404,3.706 C6.162,40.092,1.628,49.25,1.425,49.668l-0.228,0.467l0.251,0.455l7.659,13.894l0.77,1.397l0.922-1.303 c0.026-0.036,2.03-2.846,4.935-5.498c-0.797,3.281-0.755,6.736-0.752,6.937l0.01,0.639l0.584,0.259 C15.768,66.999,20.34,69,25.982,69h28c6.396,0,10.538-4.122,10.712-4.297l0.295-0.299l-0.007-0.42 c-0.002-0.137-0.052-2.471-0.791-5.119c1.294,1.317,2.449,2.905,2.953,3.68l0.507,0.781l0.815-0.45 c0.278-0.153,6.836-3.831,10.107-10.431l0.269-0.542l-0.355-0.489c-2.184-3.008-5.648-5.08-8.618-6.413h3.615h0.704l0.238-0.662 c0.05-0.138,1.2-3.43,0.022-7.638l-0.13-0.464l-0.443-0.188c-0.963-0.408-2.058-0.653-3.265-0.732 c0.495-0.117,1.015-0.229,1.564-0.334l0.978-0.188l-0.184-0.979c-1.688-8.972-11.969-16.323-12.406-16.632l-0.537-0.379 l-0.561,0.343c-0.115,0.07-1.39,0.856-3.153,2.199c0.951-1.091,1.814-2.036,2.401-2.659l0.631-0.669l-0.613-0.685 c-0.158-0.176-3.913-4.336-8.349-6.251l-0.614-0.265l-0.48,0.466c-1.362,1.324-2.491,2.939-3.403,4.548l1.091-7.691L47.134,5 L47.134,5z"/><path fill="#b0c1d4" d="M49.482 27.333c0 0 7.5-4.301 14.434-6.024C61.74 19.25 59.982 18 59.982 18S53.767 21.798 49.482 27.333zM29.982 32c-1.414-4.409-9.058-12.521-12.967-16.589-1.337 1.409-2.538 2.835-3.623 4.234C17.85 22.297 28.359 28.778 29.982 32zM75.501 55.426c.804-1.032 1.555-2.173 2.175-3.426-4.2-5.78-13.694-8-13.694-8S71.531 48.996 75.501 55.426zM15.274 36.963L15.277 36.966 15.282 36.96zM15.267 36.976l-.001 0c-.631.203-1.24.481-1.84.78-.204.103-.406.208-.606.321-.334.186-.657.396-.98.607-4.551 3.025-7.807 8.298-9.006 10.458-.168.321-.309.595-.395.75-.069.125-.117.214-.117.214l2.229 4.044C5.776 50.503 8.878 42.918 15.267 36.976zM35.982 26c1.9-8.06 2-20 2-20h-4l2 16C35.982 22 35.989 25.36 35.982 26zM43.859 20.973c-1.212 3.486-1.877 6.361-1.877 6.361s5.064-9.641 11.053-15.618c-.95-.648-1.984-1.254-3.053-1.715-4.275 4.156-6.2 11.515-6.2 11.515L43.859 20.973z"/><path fill="#e8d47b" d="M26 46.5A4.5 4.5 0 1 0 26 55.5A4.5 4.5 0 1 0 26 46.5Z"/><path fill="#ba9b48" d="M26,47c2.206,0,4,1.794,4,4s-1.794,4-4,4s-4-1.794-4-4S23.794,47,26,47 M26,46 c-2.761,0-5,2.239-5,5s2.239,5,5,5s5-2.239,5-5S28.761,46,26,46L26,46z"/><path fill="#e8d47b" d="M54 46.5A4.5 4.5 0 1 0 54 55.5A4.5 4.5 0 1 0 54 46.5Z"/><path fill="#ba9b48" d="M54,47c2.206,0,4,1.794,4,4s-1.794,4-4,4s-4-1.794-4-4S51.794,47,54,47 M54,46 c-2.761,0-5,2.239-5,5s2.239,5,5,5s5-2.239,5-5S56.761,46,54,46L54,46z"/><path fill="#ffeea3" d="M39.982,73.5c-1.715,0-3.313-0.803-4.383-2.204l-0.12-0.157l-0.194-0.033 C27.747,69.84,22.482,65.685,22.482,61c0-2.658,1.582-7.254,3.936-11.435l0.064-0.114V37.397c1.214,0.728,3.366,1.103,5.5,1.103 c3.004,0,5.098-1.033,7.122-2.032c2.052-1.012,3.99-1.968,6.878-1.968c4.065,0,7.5,1.603,7.5,3.5v11.451l0.064,0.114 C55.9,53.746,57.482,58.342,57.482,61c0,4.685-5.265,8.84-12.803,10.107l-0.194,0.033l-0.12,0.157 C43.295,72.697,41.697,73.5,39.982,73.5z"/><path fill="#ba9b48" d="M45.982,35c4.006,0,7,1.584,7,3v11.32v0.262l0.129,0.228c2.674,4.75,3.871,9.042,3.871,11.189 c0,4.435-5.093,8.389-12.386,9.614l-0.389,0.065l-0.24,0.314C42.993,72.268,41.541,73,39.982,73s-3.011-0.732-3.985-2.007 l-0.24-0.314l-0.389-0.065C28.076,69.389,22.982,65.435,22.982,61c0-2.147,1.197-6.44,3.871-11.189l0.129-0.228V49.32V38.202 c1.333,0.543,3.171,0.798,5,0.798c3.12,0,5.267-1.059,7.343-2.083C41.324,35.931,43.211,35,45.982,35 M45.982,34 c-5.969,0-8.188,4-14,4c-3.32,0-6-0.9-6-2v13.32c-2.5,4.44-4,9.06-4,11.68c0,5.06,5.6,9.32,13.22,10.6c1.1,1.44,2.82,2.4,4.78,2.4 s3.68-0.96,4.78-2.4c7.62-1.28,13.22-5.54,13.22-10.6c0-2.62-1.5-7.24-4-11.68V38C53.982,35.8,50.402,34,45.982,34L45.982,34z"/><g><path fill="#e8d47b" d="M39.982,65.5c-3.241,0-5.5-1.317-5.5-2.5s2.259-2.5,5.5-2.5s5.5,1.317,5.5,2.5 S43.224,65.5,39.982,65.5z"/><path fill="#ba9b48" d="M39.982,61c3.052,0,5,1.185,5,2s-1.948,2-5,2s-5-1.185-5-2S36.93,61,39.982,61 M39.982,60 c-3.314,0-6,1.343-6,3s2.686,3,6,3s6-1.343,6-3S43.296,60,39.982,60L39.982,60z"/></g><path fill="#36404d" d="M45.5 47A2.5 2.5 0 1 0 45.5 52 2.5 2.5 0 1 0 45.5 47zM34.5 47A2.5 2.5 0 1 0 34.5 52 2.5 2.5 0 1 0 34.5 47z"/><path fill="#b0c1d4" d="M49.781,63c-0.927-4.564-4.961-8-9.798-8s-8.872,3.436-9.798,8H49.781z"/><path fill="#ffeea3" d="M39.982 51A4 4 0 1 0 39.982 59A4 4 0 1 0 39.982 51Z"/></svg>