<svg xmlns="http://www.w3.org/2000/svg"  viewBox="0 0 80 80" width="100px" height="100px"><path fill="#fff" d="M6,63.5c-3.033,0-5.5-2.467-5.5-5.5V40l2.92-18.85C3.426,18.552,5.478,16.5,8,16.5h55.346 c2.552,0,4.935,1.434,6.217,3.743L78.724,36.2C79.23,37.372,79.5,38.667,79.5,40v18c0,3.033-2.467,5.5-5.5,5.5H6z"/><path fill="#788b9c" d="M63.346,17c2.371,0,4.586,1.336,5.787,3.498L78.262,36.4C78.752,37.544,79,38.755,79,40v6v8.333V58 c0,2.757-2.243,5-5,5h-6h-6H8H6c-2.757,0-5-2.243-5-5v-1.917V48v-7.923l2.914-18.85l0.012-0.076v-0.077C3.926,18.828,5.753,17,8,17 H63.346 M63.346,16H8c-2.802,0-5.074,2.272-5.074,5.074L0,40v8v8.083V58c0,3.314,2.686,6,6,6h2h0h54h6h6c3.314,0,6-2.686,6-6 v-3.667V46v-6c0-1.393-0.287-2.771-0.843-4.049L70,20C68.658,17.583,66.111,16,63.346,16L63.346,16z"/><path fill="#f78f8f" d="M0.5 48.5H79.5V51.5H0.5z"/><path fill="#c74343" d="M79,49v2H1v-2H79 M80,48H0v4h80V48L80,48z"/><path fill="#c2e8ff" d="M56,43.5c-0.827,0-1.5-0.673-1.5-1.5V24c0-0.827,0.673-1.5,1.5-1.5h14.859l7.865,13.7 C79.23,37.372,79.5,38.667,79.5,40v3.5H56z"/><path fill="#788b9c" d="M70.569,23l7.693,13.4C78.752,37.544,79,38.755,79,40v3H56c-0.551,0-1-0.449-1-1V24 c0-0.551,0.449-1,1-1H70.569 M71.148,22H56c-1.105,0-2,0.895-2,2v18c0,1.104,0.895,2,2,2h24v-4c0-1.393-0.287-2.771-0.843-4.049 L71.148,22L71.148,22z"/><path fill="#f78f8f" d="M37.875,16.5l1.557-6.49c0.214-0.889,0.971-1.51,1.842-1.51h3.452c0.871,0,1.628,0.621,1.842,1.51 l1.557,6.49H37.875z"/><path fill="#c74343" d="M44.726,9c0.639,0,1.197,0.463,1.356,1.127L47.492,16h-8.983l1.409-5.873 C40.077,9.463,40.635,9,41.274,9H44.726 M44.726,8h-3.452c-1.101,0-2.061,0.781-2.328,1.894L37.24,17h11.52l-1.706-7.106 C46.787,8.781,45.827,8,44.726,8L44.726,8z"/><path fill="#c8d1db" d="M63 54.5A8.5 8.5 0 1 0 63 71.5A8.5 8.5 0 1 0 63 54.5Z"/><path fill="#66798f" d="M63,55c4.411,0,8,3.589,8,8s-3.589,8-8,8s-8-3.589-8-8S58.589,55,63,55 M63,54c-4.971,0-9,4.029-9,9 c0,4.971,4.029,9,9,9s9-4.029,9-9C72,58.029,67.971,54,63,54L63,54z"/><g><path fill="#66798f" d="M63 60A3 3 0 1 0 63 66A3 3 0 1 0 63 60Z"/></g><g><path fill="#c8d1db" d="M17 54.5A8.5 8.5 0 1 0 17 71.5A8.5 8.5 0 1 0 17 54.5Z"/><path fill="#66798f" d="M17,55c4.411,0,8,3.589,8,8s-3.589,8-8,8s-8-3.589-8-8S12.589,55,17,55 M17,54c-4.971,0-9,4.029-9,9 c0,4.971,4.029,9,9,9s9-4.029,9-9C26,58.029,21.971,54,17,54L17,54z"/></g><g><path fill="#66798f" d="M17 60A3 3 0 1 0 17 66A3 3 0 1 0 17 60Z"/></g><g><path fill="#f78f8f" d="M21.5 43.5L21.5 35.5 13.5 35.5 13.5 30.5 21.5 30.5 21.5 22.5 26.5 22.5 26.5 30.5 34.5 30.5 34.5 35.5 26.5 35.5 26.5 43.5z"/><path fill="#c74343" d="M26,23v7v1h1h7v4h-7h-1v1v7h-4v-7v-1h-1h-7v-4h7h1v-1v-7H26 M27,22h-6v8h-8v6h8v8h6v-8h8v-6h-8V22 L27,22z"/></g></svg>