<?xml version="1.0" encoding="utf-8"?>
<!-- Generator: Adobe Illustrator 22.1.0, SVG Export Plug-In . SVG Version: 6.00 Build 0)  -->
<svg version="1.1" id="Layer_1" xmlns="http://www.w3.org/2000/svg" xmlns:xlink="http://www.w3.org/1999/xlink" x="0px" y="0px"
	 viewBox="0 0 256 256" style="enable-background:new 0 0 256 256;" xml:space="preserve">
<style type="text/css">
	.st0{fill:#8852A8;}
	.st1{fill:#6A348A;}
	.st2{fill:#A670C6;}
	.st3{fill:#F4EFED;}
	.st4{fill:#690589;}
	.st5{fill:#FF4397;}
	.st6{fill:#F9934E;}
	.st7{fill:#FCC24C;}
	.st8{fill:#7BAC51;}
	.st9{fill:#526FAA;}
	.st10{fill:#E12579;}
	.st11{fill:#34518C;}
	.st12{fill:#5D8E33;}
	.st13{fill:#DB7530;}
	.st14{fill:#DEA42E;}
	.st15{fill:#FF61B5;}
	.st16{fill:#708DC8;}
	.st17{fill:#99CA6F;}
	.st18{fill:#F9B16C;}
	.st19{fill:#FCE06A;}
	.st20{fill:#FFFFFF;}
	.st21{fill:#D6D1CF;}
	.st22{fill:#FF9F70;}
	.st23{fill:#FFBD8E;}
	.st24{fill:#E18152;}
	.st25{fill:#576FA5;}
	.st26{fill:#395288;}
	.st27{fill:#758EC3;}
</style>
<g>
	<g>
		<path class="st8" d="M227,252H29c-13.807,0-25-11.193-25-25V29C4,15.193,15.193,4,29,4h198c13.807,0,25,11.193,25,25v198
			C252,240.807,240.807,252,227,252z"/>
	</g>
	<g>
		<path class="st12" d="M227,4h-10c13.807,0,25,11.193,25,25v198c0,13.807-11.193,25-25,25h10c13.807,0,25-11.193,25-25V29
			C252,15.193,240.807,4,227,4z"/>
	</g>
	<g>
		<path class="st17" d="M14,227V29C14,15.193,25.193,4,39,4H29C15.193,4,4,15.193,4,29v198c0,13.807,11.193,25,25,25h10
			C25.193,252,14,240.807,14,227z"/>
	</g>
	<g>
		<path class="st4" d="M227,254H29c-14.888,0-27-12.112-27-27V29C2,14.112,14.112,2,29,2h198c14.888,0,27,12.112,27,27v198
			C254,241.888,241.888,254,227,254z M29,6C16.317,6,6,16.318,6,29v198c0,12.682,10.317,23,23,23h198c12.683,0,23-10.318,23-23V29
			c0-12.682-10.317-23-23-23H29z"/>
	</g>
	<g>
		<path class="st4" d="M14,74c-1.104,0-2-0.896-2-2V60c0-1.104,0.896-2,2-2s2,0.896,2,2v12C16,73.104,15.104,74,14,74z"/>
	</g>
	<g>
		<path class="st4" d="M89.533,56.368c-0.676,0-1.334-0.342-1.711-0.961l-9.488-15.603c-0.574-0.944-0.274-2.174,0.67-2.748
			c0.944-0.574,2.174-0.273,2.748,0.67l9.488,15.603c0.574,0.944,0.274,2.174-0.67,2.748C90.246,56.273,89.887,56.368,89.533,56.368
			z"/>
	</g>
	<g>
		<path class="st4" d="M167.316,56.368c-0.354,0-0.713-0.094-1.037-0.292c-0.944-0.574-1.244-1.804-0.67-2.748l9.488-15.603
			c0.574-0.944,1.805-1.244,2.748-0.67c0.944,0.574,1.244,1.804,0.67,2.748l-9.488,15.603
			C168.65,56.025,167.992,56.368,167.316,56.368z"/>
	</g>
	<g>
		<path class="st3" d="M128.052,31.658L128.052,31.658c-29.101,0-52.692,23.591-52.692,52.692v0.863h105.384V84.35
			C180.744,55.249,157.153,31.658,128.052,31.658z"/>
	</g>
	<g>
		<path class="st3" d="M75.36,94.913v79.339c0,4.906,3.977,8.884,8.884,8.884h5.522v29.55c0,6.438,5.218,11.656,11.656,11.656
			c6.438,0,11.656-5.218,11.656-11.656v-29.55h29.994v29.55c0,6.438,5.219,11.656,11.656,11.656l0,0
			c6.437,0,11.656-5.218,11.656-11.656v-29.55h5.476c4.906,0,8.884-3.978,8.884-8.884V94.913H75.36z"/>
	</g>
	<g>
		<path class="st3" d="M201.776,170.928L201.776,170.928c-6.664,0-12.066-5.402-12.066-12.066v-50.394
			c0-6.664,5.402-12.066,12.066-12.066l0,0c6.664,0,12.066,5.402,12.066,12.066v50.394
			C213.842,165.526,208.44,170.928,201.776,170.928z"/>
	</g>
	<g>
		<path class="st3" d="M54.224,170.928L54.224,170.928c-6.664,0-12.066-5.402-12.066-12.066v-50.394
			c0-6.664,5.402-12.066,12.066-12.066l0,0c6.664,0,12.066,5.402,12.066,12.066v50.394C66.29,165.526,60.888,170.928,54.224,170.928
			z"/>
	</g>
	<g>
		<circle class="st8" cx="105.16" cy="65.177" r="6.742"/>
	</g>
	<g>
		<circle class="st8" cx="151.472" cy="65.177" r="6.742"/>
	</g>
	<g>
		<path class="st4" d="M180.744,87.213H75.36c-1.104,0-2-0.896-2-2V84.35c0-30.157,24.534-54.692,54.691-54.692h0.001
			c30.157,0,54.691,24.535,54.691,54.692v0.863C182.744,86.317,181.849,87.213,180.744,87.213z M77.373,83.213h101.358
			c-0.607-27.428-23.107-49.555-50.679-49.555S77.98,55.785,77.373,83.213z"/>
	</g>
	<g>
		<path class="st4" d="M154.729,226.342c-7.53,0-13.656-6.126-13.656-13.656v-27.55h-25.994v27.55
			c0,7.53-6.126,13.656-13.656,13.656s-13.656-6.126-13.656-13.656v-27.55h-3.521c-6.001,0-10.884-4.882-10.884-10.884V94.913
			c0-1.104,0.896-2,2-2h105.384c1.104,0,2,0.896,2,2v79.339c0,6.001-4.883,10.884-10.884,10.884h-3.477v27.55
			C168.384,220.216,162.258,226.342,154.729,226.342z M113.078,181.136h29.994c1.104,0,2,0.896,2,2v29.55
			c0,5.324,4.332,9.656,9.656,9.656s9.655-4.332,9.655-9.656v-29.55c0-1.104,0.896-2,2-2h5.477c3.796,0,6.884-3.088,6.884-6.884
			V96.913H77.36v77.339c0,3.796,3.088,6.884,6.884,6.884h5.521c1.104,0,2,0.896,2,2v29.55c0,5.324,4.332,9.656,9.656,9.656
			s9.656-4.332,9.656-9.656v-29.55C111.078,182.031,111.974,181.136,113.078,181.136z"/>
	</g>
	<g>
		<path class="st4" d="M201.775,172.928c-7.756,0-14.065-6.31-14.065-14.066v-50.394c0-7.756,6.31-14.066,14.065-14.066
			s14.066,6.31,14.066,14.066v50.394C215.842,166.618,209.531,172.928,201.775,172.928z M201.775,98.402
			c-5.55,0-10.065,4.516-10.065,10.066v50.394c0,5.55,4.516,10.066,10.065,10.066c5.551,0,10.066-4.516,10.066-10.066v-50.394
			C211.842,102.918,207.326,98.402,201.775,98.402z"/>
	</g>
	<g>
		<path class="st4" d="M54.225,172.928c-7.756,0-14.066-6.31-14.066-14.066v-50.394c0-7.756,6.311-14.066,14.066-14.066
			s14.065,6.31,14.065,14.066v50.394C68.29,166.618,61.98,172.928,54.225,172.928z M54.225,98.402
			c-5.551,0-10.066,4.516-10.066,10.066v50.394c0,5.55,4.516,10.066,10.066,10.066c5.55,0,10.065-4.516,10.065-10.066v-50.394
			C64.29,102.918,59.774,98.402,54.225,98.402z"/>
	</g>
	<g>
		<path class="st4" d="M105.16,73.919c-4.82,0-8.741-3.921-8.741-8.742s3.921-8.742,8.741-8.742s8.741,3.921,8.741,8.742
			S109.98,73.919,105.16,73.919z M105.16,60.436c-2.614,0-4.741,2.127-4.741,4.742s2.127,4.742,4.741,4.742s4.741-2.127,4.741-4.742
			S107.774,60.436,105.16,60.436z"/>
	</g>
	<g>
		<path class="st4" d="M151.472,73.919c-4.82,0-8.741-3.921-8.741-8.742s3.921-8.742,8.741-8.742s8.742,3.921,8.742,8.742
			S156.292,73.919,151.472,73.919z M151.472,60.436c-2.614,0-4.741,2.127-4.741,4.742s2.127,4.742,4.741,4.742
			c2.615,0,4.742-2.127,4.742-4.742S154.087,60.436,151.472,60.436z"/>
	</g>
</g>
</svg>