<svg xmlns="http://www.w3.org/2000/svg"  viewBox="0 0 48 48" width="100px" height="100px" baseProfile="basic"><linearGradient id="JzN6XLWOTmjF7l-HSsmMWa" x1="24" x2="24" y1="1.064" y2="77.66" gradientUnits="userSpaceOnUse"><stop offset="0" stop-color="#fed100"/><stop offset=".033" stop-color="#fcca00"/><stop offset=".221" stop-color="#f3a400"/><stop offset=".408" stop-color="#ec8601"/><stop offset=".592" stop-color="#e77101"/><stop offset=".771" stop-color="#e46401"/><stop offset=".941" stop-color="#e36001"/></linearGradient><path fill="url(#JzN6XLWOTmjF7l-HSsmMWa)" d="M44,24c0,11.047-8.954,20-20,20S4,35.047,4,24S12.954,4,24,4S44,12.953,44,24"/><linearGradient id="JzN6XLWOTmjF7l-HSsmMWb" x1="4" x2="44" y1="24" y2="24" gradientUnits="userSpaceOnUse"><stop offset="0" stop-color="#c26715"/><stop offset=".508" stop-color="#b85515"/><stop offset="1" stop-color="#ad3f16"/></linearGradient><path fill="url(#JzN6XLWOTmjF7l-HSsmMWb)" d="M25,25h6.059 c0.374,5.014,3.524,9.385,8.138,11.984c0.436-0.512,0.849-1.041,1.231-1.594c-4.139-2.23-6.987-6.025-7.368-10.39h10.89 c0.016-0.332,0.05-0.662,0.05-1s-0.034-0.668-0.051-1H33.06c0.382-4.365,3.229-8.16,7.368-10.391 c-0.383-0.553-0.796-1.082-1.231-1.594c-4.613,2.6-7.764,6.971-8.138,11.984H25V4.051C24.667,4.035,24.338,4,24,4 s-0.667,0.035-1,0.051V23h-6.059c-0.375-5.014-3.524-9.385-8.138-11.984c-0.435,0.512-0.849,1.041-1.231,1.594 c4.139,2.23,6.985,6.025,7.367,10.391H4.051C4.034,23.332,4,23.662,4,24s0.034,0.668,0.051,1H14.94 c-0.382,4.365-3.229,8.16-7.367,10.391c0.383,0.553,0.796,1.082,1.231,1.594c4.613-2.6,7.763-6.971,8.138-11.984H23V43.95 c0.333,0.015,0.662,0.05,1,0.05s0.667-0.035,1-0.051V25z"/></svg>