<?xml version="1.0" encoding="iso-8859-1"?>
<!-- Generator: Adobe Illustrator 24.1.2, SVG Export Plug-In . SVG Version: 6.00 Build 0)  -->
<svg version="1.1" id="Layer_2" xmlns="http://www.w3.org/2000/svg" xmlns:xlink="http://www.w3.org/1999/xlink" x="0px" y="0px"
	 viewBox="0 0 48 48" style="enable-background:new 0 0 48 48;" xml:space="preserve">
<linearGradient id="SVGID_1_" gradientUnits="userSpaceOnUse" x1="24.0152" y1="34.8139" x2="24.0152" y2="45.2007">
	<stop  offset="0" style="stop-color:#FFD869"/>
	<stop  offset="1" style="stop-color:#FEC52B"/>
</linearGradient>
<path style="fill:url(#SVGID_1_);" d="M44.015,39.482c0.002,2.485-8.951,4.508-19.996,4.518c-11.045,0.011-20.002-1.995-20.004-4.48
	c-0.002-2.485,8.951-4.508,19.996-4.518C35.056,34.991,44.013,36.997,44.015,39.482z"/>
<rect x="23" y="3" style="fill:#64717C;" width="2" height="36.5"/>
<linearGradient id="SVGID_2_" gradientUnits="userSpaceOnUse" x1="28.9857" y1="1.6372" x2="39.4292" y2="21.9567" gradientTransform="matrix(1 -9.619730e-04 9.620502e-04 1 0.1738 -0.0755)">
	<stop  offset="0" style="stop-color:#42A3F2"/>
	<stop  offset="1" style="stop-color:#42A4EB"/>
</linearGradient>
<path style="fill:url(#SVGID_2_);" d="M44,18.981l-5,0.038C39,19.019,30,4,23.981,4C41,4,44,18.981,44,18.981z"/>
<linearGradient id="SVGID_3_" gradientUnits="userSpaceOnUse" x1="31.7308" y1="20.9298" x2="31.7308" y2="4.8498">
	<stop  offset="0" style="stop-color:#3079D6"/>
	<stop  offset="1" style="stop-color:#297CD2"/>
</linearGradient>
<path style="fill:url(#SVGID_3_);" d="M40,19c0,0-2.239,2-5,2s-5-2-5-2S21.239,4,24,4C35,4,40,16,40,19z"/>
<linearGradient id="SVGID_4_" gradientUnits="userSpaceOnUse" x1="48.4473" y1="1.656" x2="58.8909" y2="21.9754" gradientTransform="matrix(-1 -9.619730e-04 -9.620502e-04 1 67.2879 -0.0755)">
	<stop  offset="0" style="stop-color:#42A3F2"/>
	<stop  offset="1" style="stop-color:#42A4EB"/>
</linearGradient>
<path style="fill:url(#SVGID_4_);" d="M4,18.981l5,0.038C9,19.019,18,4,24.019,4C7,4,4,18.981,4,18.981z"/>
<linearGradient id="SVGID_5_" gradientUnits="userSpaceOnUse" x1="51.1925" y1="20.9298" x2="51.1925" y2="4.8498" gradientTransform="matrix(-1 0 0 1 67.4617 0)">
	<stop  offset="0" style="stop-color:#3079D6"/>
	<stop  offset="1" style="stop-color:#297CD2"/>
</linearGradient>
<path style="fill:url(#SVGID_5_);" d="M8,19c0,0,2.239,2,5,2s5-2,5-2s8.761-15,6-15C13,4,8,16,8,19z"/>
<linearGradient id="SVGID_6_" gradientUnits="userSpaceOnUse" x1="13" y1="20.9835" x2="13" y2="17.1999">
	<stop  offset="0" style="stop-color:#3079D6"/>
	<stop  offset="1" style="stop-color:#297CD2"/>
</linearGradient>
<path style="fill:url(#SVGID_6_);" d="M18,19c0,0-2.239,2-5,2s-5-2-5-2s2.239-2,5-2S18,19,18,19z"/>
<linearGradient id="SVGID_7_" gradientUnits="userSpaceOnUse" x1="35" y1="19.9917" x2="35" y2="18.1" gradientTransform="matrix(-0.4 0 0 1 56 0)">
	<stop  offset="0" style="stop-color:#42A3F2"/>
	<stop  offset="1" style="stop-color:#42A4EB"/>
</linearGradient>
<path style="fill:url(#SVGID_7_);" d="M40,19c0,0,0.895,1,2,1s2-1,2-1s-0.895-1-2-1S40,19,40,19z"/>
<linearGradient id="SVGID_8_" gradientUnits="userSpaceOnUse" x1="125" y1="19.9917" x2="125" y2="18.1" gradientTransform="matrix(-0.4 0 0 1 56 0)">
	<stop  offset="0" style="stop-color:#42A3F2"/>
	<stop  offset="1" style="stop-color:#42A4EB"/>
</linearGradient>
<path style="fill:url(#SVGID_8_);" d="M4,19c0,0,0.895,1,2,1s2-1,2-1s-0.895-1-2-1S4,19,4,19z"/>
<linearGradient id="SVGID_9_" gradientUnits="userSpaceOnUse" x1="24" y1="20.9298" x2="24" y2="4.8498">
	<stop  offset="0" style="stop-color:#42A3F2"/>
	<stop  offset="1" style="stop-color:#42A4EB"/>
</linearGradient>
<path style="fill:url(#SVGID_9_);" d="M30,19c0,0-2.686,2-6,2s-6-2-6-2c0-14,6-15,6-15S30,5,30,19z"/>
<ellipse style="fill:#64717C;" cx="24" cy="39.5" rx="1" ry="0.5"/>
</svg>