<svg xmlns="http://www.w3.org/2000/svg"  viewBox="0 0 80 80" width="80px" height="80px"><path fill="#c2e8ff" d="M16.5,77.5V25.496l-5.13,5.13L0.707,19.963L12.85,7.821C16.281,4.39,20.844,2.5,25.695,2.5h28.609 c4.852,0,9.414,1.89,12.846,5.321l12.143,12.143L68.63,30.626l-5.13-5.13V77.5H16.5z"/><path fill="#7496c4" d="M54.305,3c4.719,0,9.155,1.838,12.492,5.174l11.789,11.789l-9.956,9.956l-3.923-3.923L63,24.289 v2.414V77H17V26.703v-2.414l-1.707,1.707l-3.923,3.923l-9.956-9.956L13.203,8.174C16.54,4.838,20.976,3,25.695,3H28h11.297h1.406 H52H54.305 M54.305,2H52H40.703h-1.406H28h-2.305c-4.951,0-9.699,1.967-13.199,5.467L0,19.963l11.37,11.37l4.63-4.63V78h48V26.703 l4.63,4.63L80,19.963L67.504,7.467C64.003,3.967,59.255,2,54.305,2L54.305,2z"/><path fill="#8bb7f0" d="M40,13.5c-4.44,0-8.059-1.938-10.753-5.761c-1.479-2.098-2.263-4.223-2.583-5.239h26.672 c-0.32,1.016-1.104,3.141-2.583,5.239C48.059,11.562,44.44,13.5,40,13.5z"/><path fill="#4e7ab5" d="M52.639,3c-0.397,1.103-1.127,2.801-2.313,4.477C47.732,11.142,44.258,13,40,13 s-7.732-1.858-10.326-5.523C28.488,5.801,27.758,4.103,27.361,3H52.639 M54,2H26c0,0,2.852,12,14,12S54,2,54,2L54,2z"/><path fill="#c6dcf7" d="M37 3H43V6H37z"/></svg>