<svg xmlns="http://www.w3.org/2000/svg"  viewBox="0 0 80 80" width="100px" height="100px"><path fill="#967a44" d="M38 7.429H40V50.858000000000004H38z"/><path fill="#ffc49c" d="M14.219,67.5c-1.043-1.154-7.463-8.59-7.712-17h64.978c-0.395,6.724-8.511,15.715-9.702,17H14.219z"/><path fill="#a16a4a" d="M70.94,51c-0.729,6.253-7.848,14.331-9.376,16H14.443c-1.33-1.506-6.951-8.3-7.413-16H70.94 M72,50 H6c0,9.632,8,18,8,18h48C62,68,72,57.541,72,50L72,50z"/><path fill="#c2e8ff" d="M46.649,47.444c4.58-19.354-1.347-35.305-3.491-40.16c5.598,3.524,26.037,17.787,26.338,38.256 L46.649,47.444z"/><path fill="#7496c4" d="M44.288,8.611c6.867,4.579,24.141,17.915,24.699,36.47l-21.695,1.808 C51.289,29.184,46.774,14.704,44.288,8.611 M42,6c0,0,9.859,18.404,4,42l24-2C70,21.559,42,6,42,6L42,6z"/><path fill="#c2e8ff" d="M8.936,41.667C21.557,26.691,35.828,8.243,39.5,3.472v43.926L8.936,41.667z"/><path fill="#7496c4" d="M39,4.94v41.855L9.87,41.333C21.494,27.501,34.355,10.958,39,4.94 M40,2c0,0-17.163,22.449-32,40 l32,6C40,18.985,40,2,40,2L40,2z"/><path fill="#8bb7f0" d="M2,78h76V63.755C75.384,63.227,72.296,62,70,62c-2.917,0-7.125,2-10,2c-2.875,0-7.083-2-10-2	s-7.125,2-10,2c-2.875,0-7.083-2-10-2s-7.125,2-10,2c-2.875,0-7.083-2-10-2c-2.296,0-5.384,1.227-8,1.755V78z"/><path fill="#4e7ab5" d="M70,62c-2.917,0-7.125,2-10,2s-7.083-2-10-2s-7.125,2-10,2s-7.083-2-10-2s-7.125,2-10,2	s-7.083-2-10-2c-2.296,0-5.384,1.227-8,1.755v1C4.616,64.227,7.704,63,10,63c2.917,0,7.125,2,10,2s7.083-2,10-2s7.125,2,10,2	s7.083-2,10-2s7.125,2,10,2s7.083-2,10-2c2.296,0,5.384,1.227,8,1.755v-1C75.384,63.227,72.296,62,70,62z"/></svg>