<svg xmlns="http://www.w3.org/2000/svg"  viewBox="0 0 64 64" width="100px" height="100px"><path fill="#736357" d="M45,26l.6.8A12,12,0,0,1,48,34h0V54H35V31"/><circle cx="28.5" cy="7.5" r="4.5" fill="#e0ada6"/><path fill="#998675" d="M45,26,35,31l-2-6-3.147-4.657a4.142,4.142,0,0,1,2-5.823l2.091-.949a4.143,4.143,0,0,1,5.7,2.326l1.814,5.436Z"/><path fill="#e0ada6" d="M34,16l-3.879,7-4.5,4.5a2.122,2.122,0,0,0,0,3h0a2.122,2.122,0,0,0,3,0l5.5-5.5L38,18"/><rect width="58" height="4" x="3" y="40" fill="#29485a"/><circle cx="10.5" cy="35.5" r="4.5" fill="#db9c94"/><path fill="#f0beb4" d="M38,33.5h0A2.5,2.5,0,0,0,35.5,31h-14A4.5,4.5,0,0,0,17,35.5h0A4.5,4.5,0,0,0,21.5,40H56a3,3,0,0,0,3-3h0a3,3,0,0,0-3-3H38.5A.5.5,0,0,1,38,33.5Z"/><path fill="#e0ada6" d="M21,36H36a2,2,0,0,1,2,2h0a2,2,0,0,1-2,2H21"/><path fill="#e0ada6" d="M39,54h4a0,0,0,0,1,0,0v5a2,2,0,0,1-2,2h0a2,2,0,0,1-2-2V54A0,0,0,0,1,39,54Z"/><rect width="3" height="17" x="4" y="44" fill="gray"/><rect width="3" height="17" x="56" y="44" fill="gray"/><path fill="#e6e6e6" d="M31,31v5h5a2,2,0,0,1,2,2h0a2,2,0,0,1-2,2h7V34H38a3,3,0,0,0-3-3Z"/></svg>