<?xml version="1.0" encoding="iso-8859-1"?>
<!-- Generator: Adobe Illustrator 22.0.1, SVG Export Plug-In . SVG Version: 6.00 Build 0)  -->
<svg xmlns="http://www.w3.org/2000/svg" xmlns:xlink="http://www.w3.org/1999/xlink" viewBox="0 0 80 80" width="100px" height="100px">
<g>
	<rect x="12.5" y="4.5" style="fill:#FFC49C;" width="43" height="48"/>
	<g>
		<path style="fill:#A16A4A;" d="M55,5v47l-42,0V5H55 M56,4H12v49l44,0V4L56,4z"/>
	</g>
</g>
<g>
	<path style="fill:#FFC49C;" d="M6.5,56.5V10c0-3.033,2.467-5.5,5.5-5.5h1.5v52H6.5z"/>
	<g>
		<path style="fill:#A16A4A;" d="M13,5v51H7V10c0-2.757,2.243-5,5-5H13 M14,4h-2c-3.314,0-6,2.686-6,6v47h8V4L14,4z"/>
	</g>
</g>
<g>
	<rect x="14" y="5" style="fill:#FFD5B8;" width="1" height="47"/>
</g>
<g>
	<path style="fill:#DB996C;" d="M14,5h-2c-2.761,0-5,2.239-5,5v45.462h7V5z"/>
</g>
<g>
	<path style="fill:#FFFFFF;" d="M11,61.5c-2.481,0-4.5-2.019-4.5-4.5s2.019-4.5,4.5-4.5h44.5v0.395c-0.203,0.468-1,2.417-1,4.105   s0.797,3.637,1,4.105V61.5H11z"/>
	<g>
		<path style="fill:#A16A4A;" d="M54.915,53C54.606,53.771,54,55.477,54,57s0.606,3.229,0.915,4H11c-2.206,0-4-1.794-4-4    s1.794-4,4-4H54.915 M56,52H11c-2.761,0-5,2.239-5,5s2.239,5,5,5h45v-1c0,0-1-2.194-1-4c0-1.806,1-4,1-4V52L56,52z"/>
	</g>
</g>
<g>
	<rect x="30.5" y="18.5" style="fill:#FFC49C;" width="43" height="48"/>
	<g>
		<path style="fill:#A16A4A;" d="M73,19v47l-42,0V19H73 M74,18H30v49l44,0V18L74,18z"/>
	</g>
</g>
<g>
	<path style="fill:#FFC49C;" d="M24.5,70.5V24c0-3.033,2.467-5.5,5.5-5.5h1.5v52H24.5z"/>
	<g>
		<path style="fill:#A16A4A;" d="M31,19v51h-6V24c0-2.757,2.243-5,5-5H31 M32,18h-2c-3.314,0-6,2.686-6,6v47h8V18L32,18z"/>
	</g>
</g>
<g>
	<rect x="32" y="19" style="fill:#FFD5B8;" width="1" height="47"/>
</g>
<g>
	<path style="fill:#DB996C;" d="M32,19h-2c-2.761,0-5,2.239-5,5v45.462h7V19z"/>
</g>
<g>
	<path style="fill:#FFFFFF;" d="M29,75.5c-2.481,0-4.5-2.019-4.5-4.5s2.019-4.5,4.5-4.5h44.5v0.395c-0.203,0.468-1,2.417-1,4.105   s0.797,3.637,1,4.105V75.5H29z"/>
	<g>
		<path style="fill:#A16A4A;" d="M72.915,67C72.606,67.771,72,69.477,72,71s0.606,3.229,0.915,4H29c-2.206,0-4-1.794-4-4    s1.794-4,4-4H72.915 M74,66H29c-2.761,0-5,2.239-5,5s2.239,5,5,5h45v-1c0,0-1-2.194-1-4s1-4,1-4V66L74,66z"/>
	</g>
</g>
</svg>