<svg xmlns="http://www.w3.org/2000/svg"  viewBox="0 0 4335 4335" width="100px" height="100px" clip-rule="evenodd" image-rendering="optimizeQuality" shape-rendering="geometricPrecision" text-rendering="geometricPrecision"><path fill="none" d="M3081 2749l-2 -1 0 0 -9 -10 -3 -3c-4,-4 -8,-8 -12,-13l-6 -6c-4,-4 -8,-8 -12,-12l-5 -4c-8,-8 -16,-16 -24,-23l-5 -5c-4,-4 -8,-7 -12,-11l-7 -6c-4,-4 -8,-7 -12,-11 -2,-2 -4,-4 -7,-6 -8,-6 -15,-13 -23,-19 -2,-2 -5,-4 -7,-6 -4,-3 -8,-6 -12,-9 -3,-2 -6,-5 -9,-7 -4,-3 -8,-6 -11,-9 -3,-3 -7,-5 -10,-7 -6,-4 -12,-8 -18,-13 -4,-3 -8,-6 -12,-8 -4,-3 -8,-5 -11,-8 -4,-2 -7,-5 -11,-7 -4,-2 -7,-5 -11,-7 -4,-3 -8,-5 -13,-8 -3,-2 -6,-4 -10,-6 -7,-4 -14,-8 -21,-12 -3,-2 -7,-4 -10,-6 -4,-2 -9,-5 -13,-7 -4,-2 -7,-4 -11,-6 -5,-2 -9,-5 -14,-7 -3,-2 -7,-3 -10,-5 -7,-4 -15,-7 -22,-11 -3,-2 -6,-3 -10,-5 -5,-2 -10,-5 -15,-7l-10 -4c-5,-2 -11,-5 -16,-7 -3,-1 -6,-2 -9,-4 -8,-3 -16,-7 -24,-10 -2,-1 -5,-2 -7,-3 -6,-2 -12,-5 -18,-7l-9 -3c-6,-2 -12,-4 -17,-6 -3,-1 -6,-2 -8,-3 -8,-3 -17,-6 -25,-8 -2,-1 -5,-1 -7,-2 -6,-2 -13,-4 -19,-6l-10 -3c-6,-2 -12,-3 -19,-5l-8 -2c-9,-2 -17,-4 -26,-6 -2,0 -4,-1 -6,-1 -7,-2 -14,-3 -21,-5l-9 -2c-7,-1 -13,-3 -20,-4l-8 -2c-9,-2 -18,-3 -27,-5l-3 0c-8,-1 -16,-2 -25,-3l-9 -1c-7,-1 -14,-2 -20,-2l-8 -1c-9,-1 -19,-2 -28,-3l-3 0c-9,-1 -17,-1 -26,-2 -3,0 -6,0 -9,0 -7,0 -14,-1 -21,-1l-9 0c-10,0 -19,0 -29,0 -10,0 -19,0 -29,0l-5 0c-9,0 -18,1 -27,1l-6 0c-9,0 -18,1 -27,2l-4 0c-9,1 -19,2 -28,2l-1 0c-9,1 -19,2 -28,3l-5 1c-9,1 -18,2 -27,4l-4 1c-9,1 -18,3 -27,4l-3 1c-9,2 -17,3 -26,5l-3 1c-9,2 -18,4 -26,6l-5 1c-9,2 -17,4 -26,6l-5 1c-9,2 -17,5 -26,7l-3 1c-8,2 -16,5 -24,7l-4 1c-8,3 -16,5 -25,8l-5 2c-8,3 -16,6 -24,9l-5 2c-8,3 -17,6 -25,9l-2 1c-8,3 -16,6 -24,10l-4 2c-8,3 -16,7 -23,10l-5 2c-8,3 -15,7 -23,11l-5 2c-7,3 -14,7 -21,10l-4 2c-7,4 -14,7 -21,11l-6 3c-7,4 -14,8 -21,12l-6 3c-7,4 -14,8 -21,13l-5 3c-6,4 -12,8 -19,12l-5 3c-7,4 -13,9 -20,13l-6 4c-6,4 -13,9 -19,13l-6 4c-6,5 -13,9 -19,14l-5 4c-5,4 -11,8 -16,12l-6 5c-6,5 -12,9 -17,14l-7 6c-6,5 -11,10 -17,14l-6 6c-5,4 -10,9 -15,13 -2,2 -5,4 -7,7 -5,4 -9,8 -14,13 -2,2 -4,4 -6,6 -5,5 -11,10 -16,16l-6 6"/><path fill="#184193" d="M4260 2151c0,-16 0,-32 -1,-49l0 -15c0,-12 -1,-23 -1,-35 0,-5 0,-10 -1,-15 -1,-15 -2,-29 -3,-44l0 -4c-1,-16 -3,-32 -4,-48l-1 -14c-1,-12 -3,-23 -4,-35l-2 -15c-2,-14 -4,-28 -6,-42l-1 -5c-2,-15 -5,-31 -8,-46l-3 -14c-2,-11 -4,-22 -6,-33l-3 -15c-3,-12 -5,-24 -8,-36 -1,-3 -2,-7 -2,-10 -3,-15 -7,-30 -11,-44l-4 -14c-3,-11 -6,-21 -9,-31l-5 -16c-3,-11 -6,-22 -10,-33 -1,-4 -2,-8 -4,-12 -4,-14 -9,-28 -14,-42 -2,-5 -3,-10 -5,-14 -3,-10 -7,-20 -10,-29l-6 -16c-4,-10 -8,-21 -12,-31 -2,-4 -3,-8 -5,-13 -5,-14 -11,-27 -17,-41 -2,-5 -4,-10 -6,-14 -4,-9 -8,-18 -12,-27l-8 -17c-4,-9 -8,-17 -12,-26 -3,-5 -5,-11 -8,-16 -6,-12 -12,-25 -18,-37 -3,-6 -6,-11 -9,-17 -4,-8 -8,-16 -12,-23 -3,-6 -7,-12 -10,-18 -4,-7 -8,-15 -12,-22 -3,-6 -7,-12 -10,-17 -7,-12 -14,-24 -21,-35 -3,-5 -7,-11 -10,-16 -4,-7 -9,-14 -13,-21 -4,-6 -8,-13 -12,-19 -4,-6 -8,-12 -12,-18 -4,-6 -9,-13 -13,-19 -5,-7 -9,-14 -14,-20 -7,-10 -14,-20 -21,-30 -4,-6 -8,-12 -13,-17 -5,-6 -10,-13 -15,-19 -4,-5 -8,-11 -12,-16 -5,-7 -10,-13 -15,-20 -3,-4 -6,-8 -10,-12 -11,-13 -21,-26 -32,-39 -3,-4 -6,-8 -10,-11 -6,-7 -12,-14 -18,-20l-11 -12c-6,-7 -12,-14 -19,-21l-8 -9c-13,-14 -26,-28 -39,-41l-8 -8c-7,-7 -14,-14 -21,-20l-10 -10c-7,-7 -14,-14 -22,-21l-6 -5c-16,-15 -33,-30 -50,-45l-2 -2c-8,-7 -16,-14 -24,-21l-8 -7c-8,-7 -17,-14 -25,-21l-3 -3c-28,-22 -56,-44 -84,-65l-6 -5c-9,-7 -18,-13 -27,-19l-4 -3c-30,-21 -60,-41 -91,-60l-3 -2c-10,-6 -21,-13 -31,-19l-2 -1c-32,-19 -65,-37 -98,-55l-1 -1c-11,-6 -22,-12 -34,-17l0 0c-34,-17 -69,-33 -104,-49l0 0c-12,-5 -23,-10 -35,-15l0 0c-157,-65 -324,-111 -498,-136l-2 0 -5 -1 -5 -1c-11,-2 -23,-3 -34,-4 -8,-1 -17,-2 -25,-3 -7,-1 -15,-2 -22,-2 -12,-1 -24,-2 -36,-3l-13 -1c-14,-1 -29,-2 -43,-3l-7 0c-16,-1 -33,-1 -50,-2l-2 0c-18,0 -35,-1 -53,-1l-10 0 0 4182 10 0c18,0 35,0 53,-1l1 0 0 0c107,-3 213,-14 316,-32 123,-22 242,-55 356,-97 11,-4 22,-8 33,-13l14 -6c11,-4 21,-9 32,-13 6,-2 12,-5 18,-7 9,-4 18,-8 28,-12 7,-3 14,-6 21,-9 8,-4 15,-7 23,-11 9,-4 17,-8 26,-13 6,-3 12,-6 18,-9 9,-4 18,-9 26,-14l5 -3 10 -5 5 -3c9,-5 19,-10 28,-15l5 -3 5 -3 5 -3c95,-54 185,-114 270,-181 9,-7 17,-14 26,-21 5,-4 10,-8 15,-12 9,-7 18,-15 27,-22 4,-4 9,-7 13,-11 7,-6 14,-13 21,-19 5,-5 11,-10 16,-15 7,-7 14,-13 21,-20 4,-4 8,-7 12,-11 9,-9 18,-17 26,-26l11 -11c9,-9 18,-18 26,-27 3,-3 7,-7 10,-10 7,-8 14,-15 22,-23 4,-4 7,-8 11,-12 8,-8 15,-17 23,-25l9 -11c8,-10 16,-19 25,-29l10 -12c8,-10 16,-20 24,-30l8 -10c7,-9 14,-18 21,-27l7 -9c8,-11 16,-21 24,-32l7 -10c8,-11 15,-22 22,-32l7 -11c7,-11 15,-22 22,-33l5 -8c7,-10 13,-21 20,-31l5 -8c7,-12 14,-24 21,-36l6 -10c7,-12 13,-24 20,-36l5 -10c6,-12 13,-24 19,-36l4 -7c6,-12 12,-24 18,-36l4 -8c6,-13 12,-26 18,-39l4 -9c6,-13 12,-26 17,-39l3 -8c6,-13 11,-27 16,-40l1 -3c5,-14 11,-28 16,-42l3 -8c5,-14 10,-27 14,-41l3 -9c5,-14 9,-28 14,-42l2 -7c4,-14 8,-27 12,-41l1 -5c4,-15 8,-29 12,-44l2 -8c4,-14 7,-29 11,-44l2 -8c3,-15 7,-30 10,-45l1 -5c3,-15 6,-29 8,-44l1 -6c3,-15 5,-31 8,-46l1 -8c2,-15 4,-30 6,-45l1 -9c2,-16 4,-31 5,-47l0 -2c2,-16 3,-31 4,-47l1 -6c1,-15 2,-31 3,-46l0 -9c1,-15 1,-31 2,-46l0 -9c0,-16 1,-32 1,-49zm-796 1642l1 -1"/><path fill="#e31e24" d="M64 2151c0,-16 0,-32 1,-49l0 -15c0,-12 1,-23 1,-35 0,-5 0,-10 1,-15 1,-15 2,-29 3,-44l0 -4c1,-16 3,-32 4,-48l1 -14c1,-12 3,-23 4,-35l2 -15c2,-14 4,-28 6,-42l1 -5c2,-15 5,-31 8,-46l3 -14c2,-11 4,-22 6,-33l3 -15c3,-12 5,-24 8,-36 1,-3 2,-7 2,-10 3,-15 7,-30 11,-44l4 -14c3,-11 6,-21 9,-31l5 -16c3,-11 6,-22 10,-33 1,-4 2,-8 4,-12 4,-14 9,-28 14,-42 2,-5 3,-10 5,-14 3,-10 7,-20 10,-29l6 -16c4,-10 8,-21 12,-31 2,-4 3,-8 5,-13 5,-14 11,-27 17,-41 2,-5 4,-10 6,-14 4,-9 8,-18 12,-27l8 -17c4,-9 8,-17 12,-26 3,-5 5,-11 8,-16 6,-12 12,-25 18,-37 3,-6 6,-11 9,-17 4,-8 8,-16 12,-23 3,-6 7,-12 10,-18 4,-7 8,-15 12,-22 3,-6 7,-12 10,-17 7,-12 14,-24 21,-35 3,-5 7,-11 10,-16 4,-7 9,-14 13,-21 4,-6 8,-13 12,-19 4,-6 8,-12 12,-18 4,-6 9,-13 13,-19 5,-7 9,-14 14,-20 7,-10 14,-20 21,-30 4,-6 8,-12 13,-17 5,-6 10,-13 15,-19 4,-5 8,-11 12,-16 5,-7 10,-13 15,-20 3,-4 6,-8 10,-12 11,-13 21,-26 32,-39 3,-4 6,-8 10,-11 6,-7 12,-14 18,-20l11 -12c6,-7 12,-14 19,-21l8 -9c13,-14 26,-28 39,-41l8 -8c7,-7 14,-14 21,-20l10 -10c7,-7 14,-14 22,-21l6 -5c16,-15 33,-30 50,-45l2 -2c8,-7 16,-14 24,-21l8 -7c8,-7 17,-14 25,-21l3 -3c28,-22 56,-44 84,-65l6 -5c9,-7 18,-13 27,-19l4 -3c30,-21 60,-41 91,-60l3 -2c10,-6 21,-13 31,-19l2 -1c32,-19 65,-37 98,-55l1 -1c11,-6 22,-12 34,-17l0 0c34,-17 69,-33 104,-49l0 0c12,-5 23,-10 35,-15l0 0c157,-65 324,-111 498,-136l2 0 5 -1 5 -1c11,-2 23,-3 34,-4 8,-1 17,-2 25,-3 7,-1 15,-2 22,-2 12,-1 24,-2 36,-3l13 -1c14,-1 29,-2 43,-3l7 0c16,-1 33,-1 50,-2l2 0c18,0 35,-1 53,-1l10 0 0 4182 -10 0c-18,0 -35,0 -53,-1l-1 0 0 0c-107,-3 -213,-14 -316,-32 -123,-22 -242,-55 -356,-97 -11,-4 -22,-8 -33,-13l-14 -6c-11,-4 -21,-9 -32,-13 -6,-2 -12,-5 -18,-7 -9,-4 -18,-8 -28,-12 -7,-3 -14,-6 -21,-9 -8,-4 -15,-7 -23,-11 -9,-4 -17,-8 -26,-13 -6,-3 -12,-6 -18,-9 -9,-4 -18,-9 -26,-14l-5 -3 -10 -5 -5 -3c-9,-5 -19,-10 -28,-15l-5 -3 -5 -3 -5 -3c-95,-54 -185,-114 -270,-181 -9,-7 -17,-14 -26,-21 -5,-4 -10,-8 -15,-12 -9,-7 -18,-15 -27,-22 -4,-4 -9,-7 -13,-11 -7,-6 -14,-13 -21,-19 -5,-5 -11,-10 -16,-15 -7,-7 -14,-13 -21,-20 -4,-4 -8,-7 -12,-11 -9,-9 -18,-17 -26,-26l-11 -11c-9,-9 -18,-18 -26,-27 -3,-3 -7,-7 -10,-10 -7,-8 -14,-15 -22,-23 -4,-4 -7,-8 -11,-12 -8,-8 -15,-17 -23,-25l-9 -11c-8,-10 -16,-19 -25,-29l-10 -12c-8,-10 -16,-20 -24,-30l-8 -10c-7,-9 -14,-18 -21,-27l-7 -9c-8,-11 -16,-21 -24,-32l-7 -10c-8,-11 -15,-22 -22,-32l-7 -11c-7,-11 -15,-22 -22,-33l-5 -8c-7,-10 -13,-21 -20,-31l-5 -8c-7,-12 -14,-24 -21,-36l-6 -10c-7,-12 -13,-24 -20,-36l-5 -10c-6,-12 -13,-24 -19,-36l-4 -7c-6,-12 -12,-24 -18,-36l-4 -8c-6,-13 -12,-26 -18,-39l-4 -9c-6,-13 -12,-26 -17,-39l-3 -8c-6,-13 -11,-27 -16,-40l-1 -3c-5,-14 -11,-28 -16,-42l-3 -8c-5,-14 -10,-27 -14,-41l-3 -9c-5,-14 -9,-28 -14,-42l-2 -7c-4,-14 -8,-27 -12,-41l-1 -5c-4,-15 -8,-29 -12,-44l-2 -8c-4,-14 -7,-29 -11,-44l-2 -8c-3,-15 -7,-30 -10,-45l-1 -5c-3,-15 -6,-29 -8,-44l-1 -6c-3,-15 -5,-31 -8,-46l-1 -8c-2,-15 -4,-30 -6,-45l-1 -9c-2,-16 -4,-31 -5,-47l0 -2c-2,-16 -3,-31 -4,-47l-1 -6c-1,-15 -2,-31 -3,-46l0 -9c-1,-15 -1,-31 -2,-46l0 -9c0,-16 -1,-32 -1,-49zm796 1642l-1 -1"/><path fill="#fefefe" d="M1312 1849l7 0 -6 9 -1 -9zm338 545c49,0 89,39 89,89 0,49 -39,89 -89,89 -49,0 -89,-39 -89,-89 0,-49 39,-89 89,-89zm1075 7c49,0 89,39 89,89 0,49 -39,89 -89,89 -49,0 -89,-39 -89,-89 0,-49 39,-89 89,-89zm-567 -96c49,0 89,39 89,89 0,49 -39,89 -89,89 -49,0 -89,-39 -89,-89 0,-49 39,-89 89,-89zm-847 -456c-63,-2 -186,-52 -242,30 -43,63 10,154 116,154 1,-2 2,-6 3,-5l12 -17c-8,-30 -45,-88 54,-101 36,-4 56,12 71,34 -5,23 -43,129 -34,144 11,21 47,-7 58,-17 21,-19 32,-27 35,-61l43 38c2,153 -30,371 -131,418 -85,39 -197,25 -271,-23 -17,-10 -28,-19 -44,-30 -30,-20 -59,-35 -68,-72 50,0 105,-4 117,-59 -49,-23 -107,-8 -162,-44 0,-67 28,-110 96,-110 10,16 14,25 30,37 25,-6 38,-14 43,-38 24,-123 -131,-206 -193,-60 -15,35 -35,90 -35,135l-15 0c-12,-52 -70,-99 -117,-119 -49,-21 -114,-50 -185,-50 33,50 92,85 135,123l90 80c76,56 156,147 209,225 41,62 83,121 113,189 23,52 37,113 43,178l21 0c228,-62 620,-103 1065,-103 445,0 837,41 1065,103l28 0c0,-55 16,-95 32,-137 39,-97 100,-183 159,-268 74,-105 126,-140 211,-223l136 -122c24,-23 34,-13 43,-46 -107,0 -287,83 -295,170l-15 0c0,-39 -18,-102 -32,-130 -77,-161 -218,-61 -196,56 6,30 22,31 50,38 9,-17 12,-22 22,-37 68,0 96,43 96,110 -50,33 -113,21 -162,44 12,45 77,71 117,51 -5,58 -57,84 -98,115 -49,36 -95,57 -155,67 -113,19 -216,-80 -239,-196 -8,-37 -22,-84 -23,-124 -2,-54 -7,-86 -7,-140 16,-23 22,-17 30,-44 35,26 30,83 103,89 0,-76 -30,-95 -30,-170 38,-21 62,-24 104,-9 58,22 24,54 21,97 110,74 246,-185 22,-184 -30,0 -50,-1 -77,4 -33,6 -44,12 -70,18 50,-74 50,-40 70,-151 14,-76 -12,-124 -18,-195 -30,3 -56,33 -56,33l-43 45c-52,63 -85,116 -85,216 -23,-27 -47,-63 -76,-86 -36,-30 -65,-48 -117,-50 -130,-3 -63,250 6,184 14,-13 1,-16 10,-34 4,-10 9,-12 15,-23 97,0 149,63 91,106 -31,23 -81,46 -91,85 51,24 86,11 125,-15 0,44 5,54 -15,82 -31,43 -73,95 -114,129 -1,1 -3,3 -4,3 -103,87 -186,113 -289,10 -17,-17 -33,-30 -47,-49 -67,-90 -111,-201 -138,-310 -4,-17 -8,-24 -12,-40 -6,-24 -12,-51 -17,-80 -3,-23 4,-53 24,-68 11,43 55,51 110,51 -2,-22 -3,-24 -13,-38l-58 -121c41,-46 97,-37 137,-10 0,36 -17,53 10,63 100,41 176,-265 -56,-183 -48,17 -86,42 -124,67 19,-82 37,-103 9,-192 -10,-31 -18,-57 -33,-85 -14,-25 -26,-53 -50,-69 -50,76 -129,220 -66,338 -23,-6 -33,-18 -51,-30 -101,-58 -274,-75 -215,90 10,30 63,92 97,57 20,-41 -27,-67 50,-83 43,-9 75,13 97,46 -8,33 -16,37 -34,62 -25,35 -81,106 8,82 30,-9 48,-19 56,-48l15 0c17,72 15,83 -4,157l-71 223c-32,67 -70,122 -121,174 -83,83 -187,58 -276,-1 -57,-37 -107,-92 -147,-147 -22,-30 -6,-42 -6,-83 38,26 74,39 125,15 -8,-30 -30,-39 -55,-56 -20,-13 -57,-31 -63,-55 -17,-60 97,-110 127,-68 16,22 1,30 28,53 23,-5 37,-11 50,-31 75,-127 -60,-270 -236,-44 -2,2 -8,9 -10,12 -1,1 -3,3 -3,4l-7 8c0,-46 4,-71 -10,-108 -23,-58 -51,-98 -95,-141 -11,-11 -18,-18 -30,-30 -18,-19 -12,-22 -43,-23 -16,65 -25,97 -23,184 3,68 36,110 59,154l3 3z"/></svg>