<?xml version="1.0" encoding="iso-8859-1"?>
<!-- Generator: Adobe Illustrator 22.1.0, SVG Export Plug-In . SVG Version: 6.00 Build 0)  -->
<svg version="1.1" id="Layer_1" xmlns="http://www.w3.org/2000/svg" xmlns:xlink="http://www.w3.org/1999/xlink" x="0px" y="0px"
	 viewBox="0 0 100 100" style="enable-background:new 0 0 100 100;" xml:space="preserve">
<path style="fill:#EDDC67;" d="M62.5,35c1.381,0,2.5-1.119,2.5-2.5S63.881,30,62.5,30s-43.619,0-45,0S15,31.119,15,32.5
	s1.119,2.5,2.5,2.5H62.5z"/>
<polygon style="fill:#F37E98;" points="61,30 55,20 41,20 41,19 30,19 30,20 25,20 19,30 "/>
<path style="fill:#1F212B;" d="M62.5,36h-45c-1.93,0-3.5-1.57-3.5-3.5s1.57-3.5,3.5-3.5h45c1.93,0,3.5,1.57,3.5,3.5
	S64.43,36,62.5,36z M17.5,31c-0.827,0-1.5,0.673-1.5,1.5s0.673,1.5,1.5,1.5h45c0.827,0,1.5-0.673,1.5-1.5S63.327,31,62.5,31H17.5z"
	/>
<rect x="20" y="35" style="fill:#FDD4B2;" width="41" height="50"/>
<polygon style="fill:#EF6388;" points="81,50 75,40 61,40 61,50 "/>
<rect x="20" y="79" style="fill:#FCBA7F;" width="41" height="6"/>
<path style="fill:#1F212B;" d="M61,86H20c-0.552,0-1-0.447-1-1V35c0-0.553,0.448-1,1-1h41c0.552,0,1,0.447,1,1v50
	C62,85.553,61.552,86,61,86z M21,84h39V36H21V84z"/>
<path style="fill:#1F212B;" d="M37,21h-3c-0.552,0-1-0.447-1-1s0.448-1,1-1h3c0.552,0,1,0.447,1,1S37.552,21,37,21z"/>
<path style="fill:#1F212B;" d="M18.999,31c-0.175,0-0.353-0.046-0.514-0.143c-0.474-0.284-0.627-0.898-0.343-1.372l6-10
	C24.323,19.185,24.649,19,25,19h5c0.552,0,1,0.447,1,1s-0.448,1-1,1h-4.434l-5.709,9.515C19.67,30.827,19.339,31,18.999,31z"/>
<path style="fill:#1F212B;" d="M61.001,31c-0.34,0-0.671-0.173-0.858-0.485L54.434,21H41c-0.552,0-1-0.447-1-1s0.448-1,1-1h14
	c0.351,0,0.677,0.185,0.857,0.485l6,10c0.284,0.474,0.131,1.088-0.343,1.372C61.354,30.954,61.176,31,61.001,31z"/>
<path style="fill:#1F212B;" d="M30,25c-0.552,0-1-0.447-1-1V9c0-0.553,0.448-1,1-1s1,0.447,1,1v15C31,24.553,30.552,25,30,25z"/>
<path style="fill:#1F212B;" d="M37,25c-0.552,0-1-0.447-1-1v-9c0-0.553,0.448-1,1-1s1,0.447,1,1v9C38,24.553,37.552,25,37,25z"/>
<rect x="50.5" y="39.5" style="fill:#FEFDEF;" width="4" height="6"/>
<rect x="42.5" y="39.5" style="fill:#FEFDEF;" width="4" height="6"/>
<rect x="50.5" y="49.5" style="fill:#FEFDEF;" width="4" height="6"/>
<rect x="42.5" y="49.5" style="fill:#FEFDEF;" width="4" height="6"/>
<rect x="50.5" y="59.5" style="fill:#FEFDEF;" width="4" height="6"/>
<rect x="42.5" y="59.5" style="fill:#FEFDEF;" width="4" height="6"/>
<rect x="26.5" y="39.5" style="fill:#FEFDEF;" width="4" height="6"/>
<rect x="26.5" y="49.5" style="fill:#FEFDEF;" width="4" height="6"/>
<rect x="26.5" y="59.5" style="fill:#FEFDEF;" width="4" height="6"/>
<rect x="34.5" y="39.5" style="fill:#FEFDEF;" width="4" height="6"/>
<rect x="34.5" y="49.5" style="fill:#FEFDEF;" width="4" height="6"/>
<rect x="34.5" y="59.5" style="fill:#FEFDEF;" width="4" height="6"/>
<rect x="50.5" y="69.5" style="fill:#FEFDEF;" width="4" height="6"/>
<rect x="42.5" y="69.5" style="fill:#FEFDEF;" width="4" height="6"/>
<path style="fill:#1F212B;" d="M54.5,46h-4c-0.276,0-0.5-0.224-0.5-0.5v-6c0-0.276,0.224-0.5,0.5-0.5h4c0.276,0,0.5,0.224,0.5,0.5v6
	C55,45.776,54.776,46,54.5,46z M51,45h3v-5h-3V45z"/>
<path style="fill:#1F212B;" d="M46.5,46h-4c-0.276,0-0.5-0.224-0.5-0.5v-6c0-0.276,0.224-0.5,0.5-0.5h4c0.276,0,0.5,0.224,0.5,0.5v6
	C47,45.776,46.776,46,46.5,46z M43,45h3v-5h-3V45z"/>
<path style="fill:#1F212B;" d="M54.5,56h-4c-0.276,0-0.5-0.224-0.5-0.5v-6c0-0.276,0.224-0.5,0.5-0.5h4c0.276,0,0.5,0.224,0.5,0.5v6
	C55,55.776,54.776,56,54.5,56z M51,55h3v-5h-3V55z"/>
<path style="fill:#1F212B;" d="M46.5,56h-4c-0.276,0-0.5-0.224-0.5-0.5v-6c0-0.276,0.224-0.5,0.5-0.5h4c0.276,0,0.5,0.224,0.5,0.5v6
	C47,55.776,46.776,56,46.5,56z M43,55h3v-5h-3V55z"/>
<path style="fill:#1F212B;" d="M54.5,66h-4c-0.276,0-0.5-0.224-0.5-0.5v-6c0-0.276,0.224-0.5,0.5-0.5h4c0.276,0,0.5,0.224,0.5,0.5v6
	C55,65.776,54.776,66,54.5,66z M51,65h3v-5h-3V65z"/>
<path style="fill:#1F212B;" d="M46.5,66h-4c-0.276,0-0.5-0.224-0.5-0.5v-6c0-0.276,0.224-0.5,0.5-0.5h4c0.276,0,0.5,0.224,0.5,0.5v6
	C47,65.776,46.776,66,46.5,66z M43,65h3v-5h-3V65z"/>
<path style="fill:#1F212B;" d="M30.5,46h-4c-0.276,0-0.5-0.224-0.5-0.5v-6c0-0.276,0.224-0.5,0.5-0.5h4c0.276,0,0.5,0.224,0.5,0.5v6
	C31,45.776,30.776,46,30.5,46z M27,45h3v-5h-3V45z"/>
<path style="fill:#1F212B;" d="M30.5,56h-4c-0.276,0-0.5-0.224-0.5-0.5v-6c0-0.276,0.224-0.5,0.5-0.5h4c0.276,0,0.5,0.224,0.5,0.5v6
	C31,55.776,30.776,56,30.5,56z M27,55h3v-5h-3V55z"/>
<path style="fill:#1F212B;" d="M30.5,66h-4c-0.276,0-0.5-0.224-0.5-0.5v-6c0-0.276,0.224-0.5,0.5-0.5h4c0.276,0,0.5,0.224,0.5,0.5v6
	C31,65.776,30.776,66,30.5,66z M27,65h3v-5h-3V65z"/>
<path style="fill:#1F212B;" d="M38.5,46h-4c-0.276,0-0.5-0.224-0.5-0.5v-6c0-0.276,0.224-0.5,0.5-0.5h4c0.276,0,0.5,0.224,0.5,0.5v6
	C39,45.776,38.776,46,38.5,46z M35,45h3v-5h-3V45z"/>
<path style="fill:#1F212B;" d="M38.5,56h-4c-0.276,0-0.5-0.224-0.5-0.5v-6c0-0.276,0.224-0.5,0.5-0.5h4c0.276,0,0.5,0.224,0.5,0.5v6
	C39,55.776,38.776,56,38.5,56z M35,55h3v-5h-3V55z"/>
<path style="fill:#1F212B;" d="M38.5,66h-4c-0.276,0-0.5-0.224-0.5-0.5v-6c0-0.276,0.224-0.5,0.5-0.5h4c0.276,0,0.5,0.224,0.5,0.5v6
	C39,65.776,38.776,66,38.5,66z M35,65h3v-5h-3V65z"/>
<path style="fill:#1F212B;" d="M54.5,76h-4c-0.276,0-0.5-0.224-0.5-0.5v-6c0-0.276,0.224-0.5,0.5-0.5h4c0.276,0,0.5,0.224,0.5,0.5v6
	C55,75.776,54.776,76,54.5,76z M51,75h3v-5h-3V75z"/>
<path style="fill:#1F212B;" d="M46.5,76h-4c-0.276,0-0.5-0.224-0.5-0.5v-6c0-0.276,0.224-0.5,0.5-0.5h4c0.276,0,0.5,0.224,0.5,0.5v6
	C47,75.776,46.776,76,46.5,76z M43,75h3v-5h-3V75z"/>
<path style="fill:#CECCBE;" d="M28,74.5c0-2.485,2.015-4.5,4.5-4.5s4.5,2.015,4.5,4.5c0,1.346,0,10.5,0,10.5h-9V74.5z"/>
<path style="fill:#1F212B;" d="M37,86h-9c-0.552,0-1-0.447-1-1V74.5c0-3.032,2.467-5.5,5.5-5.5s5.5,2.468,5.5,5.5V85
	C38,85.553,37.552,86,37,86z M29,84h7v-9.5c0-1.93-1.57-3.5-3.5-3.5S29,72.57,29,74.5V84z"/>
<path style="fill:#1F212B;" d="M28.5,80h-8c-0.276,0-0.5-0.224-0.5-0.5s0.224-0.5,0.5-0.5h8c0.276,0,0.5,0.224,0.5,0.5
	S28.776,80,28.5,80z"/>
<path style="fill:#1F212B;" d="M40.5,80h-4c-0.276,0-0.5-0.224-0.5-0.5s0.224-0.5,0.5-0.5h4c0.276,0,0.5,0.224,0.5,0.5
	S40.776,80,40.5,80z"/>
<path style="fill:#1F212B;" d="M44.5,80h-2c-0.276,0-0.5-0.224-0.5-0.5s0.224-0.5,0.5-0.5h2c0.276,0,0.5,0.224,0.5,0.5
	S44.776,80,44.5,80z"/>
<path style="fill:#1F212B;" d="M60.5,80h-13c-0.276,0-0.5-0.224-0.5-0.5s0.224-0.5,0.5-0.5h13c0.276,0,0.5,0.224,0.5,0.5
	S60.776,80,60.5,80z"/>
<rect x="61" y="55" style="fill:#9DC4E8;" width="20" height="30"/>
<rect x="61" y="79" style="fill:#78A1D1;" width="20" height="6"/>
<path style="fill:#1F212B;" d="M80.5,80h-3c-0.276,0-0.5-0.224-0.5-0.5s0.224-0.5,0.5-0.5h3c0.276,0,0.5,0.224,0.5,0.5
	S80.776,80,80.5,80z"/>
<path style="fill:#1F212B;" d="M75.5,80h-2c-0.276,0-0.5-0.224-0.5-0.5s0.224-0.5,0.5-0.5h2c0.276,0,0.5,0.224,0.5,0.5
	S75.776,80,75.5,80z"/>
<path style="fill:#1F212B;" d="M70.5,80h-7c-0.276,0-0.5-0.224-0.5-0.5s0.224-0.5,0.5-0.5h7c0.276,0,0.5,0.224,0.5,0.5
	S70.776,80,70.5,80z"/>
<path style="fill:#1F212B;" d="M81,86H61c-0.552,0-1-0.447-1-1V55c0-0.553,0.448-1,1-1h20c0.552,0,1,0.447,1,1v30
	C82,85.553,81.552,86,81,86z M62,84h18V56H62V84z"/>
<path style="fill:#1F212B;" d="M81.858,49.486l-6-10c-0.186-0.31-0.514-0.465-0.85-0.468C75.007,39.016,61,39,61,39
	c-0.552,0-1,0.447-1,1s0.448,1,1,1h13.434l5.709,9.515C80.33,50.827,80.661,51,81.001,51c0.175,0,0.353-0.046,0.514-0.142
	C81.989,50.574,82.142,49.96,81.858,49.486z"/>
<rect x="64.5" y="59.5" style="fill:#E9E3C9;" width="4" height="6"/>
<rect x="64.5" y="69.5" style="fill:#E9E3C9;" width="4" height="6"/>
<rect x="72.5" y="59.5" style="fill:#E9E3C9;" width="4" height="6"/>
<rect x="72.5" y="69.5" style="fill:#E9E3C9;" width="4" height="6"/>
<path style="fill:#1F212B;" d="M68.5,66h-4c-0.276,0-0.5-0.224-0.5-0.5v-6c0-0.276,0.224-0.5,0.5-0.5h4c0.276,0,0.5,0.224,0.5,0.5v6
	C69,65.776,68.776,66,68.5,66z M65,65h3v-5h-3V65z"/>
<path style="fill:#1F212B;" d="M68.5,76h-4c-0.276,0-0.5-0.224-0.5-0.5v-6c0-0.276,0.224-0.5,0.5-0.5h4c0.276,0,0.5,0.224,0.5,0.5v6
	C69,75.776,68.776,76,68.5,76z M65,75h3v-5h-3V75z"/>
<path style="fill:#1F212B;" d="M76.5,66h-4c-0.276,0-0.5-0.224-0.5-0.5v-6c0-0.276,0.224-0.5,0.5-0.5h4c0.276,0,0.5,0.224,0.5,0.5v6
	C77,65.776,76.776,66,76.5,66z M73,65h3v-5h-3V65z"/>
<path style="fill:#1F212B;" d="M76.5,76h-4c-0.276,0-0.5-0.224-0.5-0.5v-6c0-0.276,0.224-0.5,0.5-0.5h4c0.276,0,0.5,0.224,0.5,0.5v6
	C77,75.776,76.776,76,76.5,76z M73,75h3v-5h-3V75z"/>
<path style="fill:#EDDC67;" d="M61.5,55h21c1.381,0,2.5-1.119,2.5-2.5S83.881,50,82.5,50s-21,0-21,0"/>
<path style="fill:#1F212B;" d="M82.5,56h-21c-0.552,0-1-0.447-1-1s0.448-1,1-1h21c0.827,0,1.5-0.673,1.5-1.5S83.327,51,82.5,51h-21
	c-0.552,0-1-0.447-1-1s0.448-1,1-1h21c1.93,0,3.5,1.57,3.5,3.5S84.43,56,82.5,56z"/>
<path style="fill:#1F212B;" d="M86,86H15c-0.552,0-1-0.447-1-1s0.448-1,1-1h71c0.552,0,1,0.447,1,1S86.552,86,86,86z"/>
</svg>