<?xml version="1.0" encoding="iso-8859-1"?>
<!-- Generator: Adobe Illustrator 24.1.2, SVG Export Plug-In . SVG Version: 6.00 Build 0)  -->
<svg version="1.1" id="Layer_2" xmlns="http://www.w3.org/2000/svg" xmlns:xlink="http://www.w3.org/1999/xlink" x="0px" y="0px"
	 viewBox="0 0 48 48" style="enable-background:new 0 0 48 48;" xml:space="preserve">
<linearGradient id="SVGID_1_" gradientUnits="userSpaceOnUse" x1="8.0004" y1="39" x2="37" y2="39">
	<stop  offset="1.987454e-04" style="stop-color:#C26715"/>
	<stop  offset="0.5078" style="stop-color:#B85515"/>
	<stop  offset="1" style="stop-color:#AD3F16"/>
</linearGradient>
<path style="fill:url(#SVGID_1_);" d="M35.002,44c0.903,0,1.723-0.617,1.942-1.534c0.258-1.074-0.403-2.154-1.478-2.412l-25-6
	c-1.08-0.255-2.154,0.405-2.411,1.478c-0.258,1.074,0.403,2.154,1.478,2.412l25,6C34.69,43.982,34.848,44,35.002,44z"/>
<path style="fill:#D6742D;" d="M12.998,44c-0.903,0-1.723-0.617-1.942-1.534c-0.258-1.074,0.403-2.154,1.478-2.412l25-6
	c1.08-0.255,2.154,0.405,2.411,1.478c0.258,1.074-0.403,2.154-1.478,2.412l-25,6C13.31,43.982,13.153,44,12.998,44z"/>
<linearGradient id="SVGID_2_" gradientUnits="userSpaceOnUse" x1="19.9548" y1="3.6852" x2="26.2937" y2="38.4874">
	<stop  offset="0" style="stop-color:#F44F5A"/>
	<stop  offset="0.4429" style="stop-color:#EE3D4A"/>
	<stop  offset="1" style="stop-color:#E52030"/>
</linearGradient>
<path style="fill:url(#SVGID_2_);" d="M21.422,4.533C21.408,4.484,21.4,4.397,21.4,4.333c0-0.479,0.388-0.867,0.867-0.867
	c0.204,0,0.346,0.076,0.402,0.098c1.06,0.414,8.338,3.846,6.655,13.769c2.444-1.473,1.57-4.333,2.37-4.333
	c0.3,0,0.423,0.112,0.607,0.375C34.975,17.191,37,21.742,37,26c0,7.18-5.82,13-13,13c-7.895,0-13-6.65-13-13
	C11,15.438,23.448,13.488,21.422,4.533z"/>
<linearGradient id="SVGID_3_" gradientUnits="userSpaceOnUse" x1="21.1412" y1="14.2698" x2="26.5068" y2="43.5742">
	<stop  offset="0" style="stop-color:#FED100"/>
	<stop  offset="1" style="stop-color:#E36001"/>
</linearGradient>
<path style="fill:url(#SVGID_3_);" d="M23.666,16.188c0,0-0.221-0.188-0.541-0.188c-0.483,0-0.875,0.392-0.875,0.875
	c0.875,5.25-5.25,7-5.25,13.125c0,3.866,3.134,7,7,7s7-3.134,7-7C31,25.012,26.607,18.355,23.666,16.188z"/>
</svg>