<svg xmlns="http://www.w3.org/2000/svg"  viewBox="0 0 64 64" width="100px" height="100px"><g data-name="03-Canada"><path fill="#eef2fa" d="M13,1V63H51V1ZM42,43,32,41,22,43l2-3-8-7,3-1-2-5,5,1,1-2,4,4-1-9,3,1,3-5,3,5,3-1-1,9,4-4,1,2,5-1-2,5,3,1-8,7Z"/><polygon fill="#e21743" points="48 33 40 40 42 43 32 41 22 43 24 40 16 33 19 32 17 27 22 28 23 26 27 30 26 21 29 22 32 17 35 22 38 21 37 30 41 26 42 28 47 27 45 32 48 33"/><path fill="#e21743" d="M13,33V63H5a4,4,0,0,1-4-4V5A4,4,0,0,1,5,1h8Z"/><path fill="#e21743" d="M63,5V59a4,4,0,0,1-4,4H51V1h8A4,4,0,0,1,63,5Z"/><polygon fill="#e21743" points="31 41.2 31 49 33 49 33 41.2 32 41 31 41.2"/><path fill="#dce1eb" d="M41.147,39,40,40l2,3L32,41l1,.2V49H31V41.2l1-.2L22,43l2-3-1.147-1A21.884,21.884,0,0,1,13,36.594V63H51V36.594A21.884,21.884,0,0,1,41.147,39Z"/><path fill="#c7002b" d="M23,39c-.049,0-.1,0-.147,0L24,40l-2,3,10-2,10,2-2-3,1.147-1c-.049,0-.1,0-.147,0Z"/><path fill="#c7002b" d="M1,17V59a4,4,0,0,0,4,4h8V36.594A21.993,21.993,0,0,1,1,17Z"/><path fill="#c7002b" d="M51,36.594V63h8a4,4,0,0,0,4-4V17A21.993,21.993,0,0,1,51,36.594Z"/><polygon fill="#c7002b" points="31 49 33 49 33 41.2 32 41 31 41.2 31 49"/><rect width="38" height="54" x="13" y="5" fill="none"/><path fill="#b51135" d="M5,59a4,4,0,0,1-4-4v4a4,4,0,0,0,4,4h8V59Z"/><path fill="#b51135" d="M59,63a4,4,0,0,0,4-4V55a4,4,0,0,1-4,4H51v4Z"/><rect width="38" height="4" x="13" y="59" fill="#cdd2e1"/><rect width="38" height="4" x="13" y="1" fill="#f7faff"/><path fill="#ea5172" d="M59,5a4,4,0,0,1,4,4V5a4,4,0,0,0-4-4H51V5Z"/><path fill="#ea5172" d="M5,1A4,4,0,0,0,1,5V9A4,4,0,0,1,5,5h8V1Z"/></g></svg>