<svg xmlns="http://www.w3.org/2000/svg"  viewBox="0 0 512 512" width="100px" height="100px"><path fill="#dae1ea" d="M364,211,256,150.6,59.91,430.89S50.16,444.07,63.46,455s50.66,41.26,50.66,41.26l.2-20.12,20.06,1.43.21-20.11,20.06,1.42.21-20.11,20.06,1.41.2-20.11,20.06,1.42.2-20.11,20.07,1.42.2-20.11,20.06,1.42.2-20.11,19.45,1.38.19-19.48,20.06,1.41.2-20.11,20.07,1.42.2-20.11L316.14,310l.2-20.11,20.06,1.42.21-20.11,20.06,1.42.21-20.11,20.06,1.42.2-20.12,20.07,1.43.2-20.11,20.06,1.42-.6-20.77ZM115.69,444.49a15.51,15.51,0,1,1-2.1-21.83A15.5,15.5,0,0,1,115.69,444.49Z"/><polygon fill="#fff" points="194.25 403.56 177.18 262.84 234.83 181.71 254.96 347.99 256.65 365.58 237.41 363.98 235.76 384.65 217.42 383.3 215.5 402.94 194.25 403.56" opacity=".5"/><polygon fill="#3f456b" points="114.12 496.28 114.33 476.17 134.38 477.59 134.59 457.49 154.64 458.91 154.86 438.8 174.92 440.21 175.12 420.1 195.18 421.51 195.38 401.41 215.45 402.83 215.65 382.72 235.72 384.15 235.92 364.03 255.36 365.41 255.56 345.93 275.6 347.34 275.81 327.23 295.88 328.65 296.08 308.54 316.14 309.96 316.35 289.85 336.4 291.27 336.61 271.16 356.68 272.57 356.88 252.47 376.94 253.89 377.14 233.77 397.2 235.2 397.41 215.09 417.47 216.51 416.87 195.74 409.59 195.76 402.46 199.9 396.7 201.56 383.36 204.52 383.18 222.34 363.12 220.91 362.92 241.03 342.85 239.62 342.65 259.72 322.59 258.3 322.38 278.41 302.32 276.99 302.11 297.1 282.06 295.68 281.86 315.8 261.79 314.38 261.58 334.49 241.53 333.07 241.33 352.55 221.89 351.17 221.69 371.29 201.63 369.86 201.43 389.98 181.36 388.56 181.15 408.66 161.09 407.24 160.9 427.35 140.83 425.94 140.62 446.06 120.56 444.63 120.36 464.74 100.31 463.31 99.8 485.12 114.12 496.28" opacity=".15"/><path fill="#ffbc5a" d="M486.05,113l-11.45-7.68s-9.54-7.44-18.16,2.33c-4.05,4.57-7.66,6.48-10.88,6.85-3.65.46-6.78-1.07-9.45-2.86L364.17,63c-5-3.37-9.77-8.64-4-20.33S355.45,25,355.45,25l-4.83-3.24L344,17.26c-8.58-5.76-15.07,5.45-15.07,5.45L302,62.76l-51,75.94,7,12.81,104.85,70.73L420.26,211s12.67-1.87,19.87-12.6L486.71,129S494.63,118.71,486.05,113Zm-61.2,49.42-.74,1.13A20.07,20.07,0,0,1,396.35,169l-68.78-46.51a19.64,19.64,0,0,1-6.24-6.77,20,20,0,0,1,.78-21l.76-1.12a20,20,0,0,1,27.75-5.45l68.77,46.5a20,20,0,0,1,5.46,27.75Z"/><polygon fill="#fff" points="260.83 152.71 349.59 20.89 333.57 16.72 249.83 140.78 260.83 152.71" opacity=".3"/><path fill="#3f456b" d="M362.82,221.93l57.58-11.32s11.75-.35,22.53-16.4l45.33-67.53s5-9-7.55-17.44L432.07,181.7s-5.92,10.48-20.36,14-66.33,14.49-66.33,14.49Z" opacity=".15"/><path fill="#3f456b" d="M323.48,121.54s-23.76-11.91-9.74-32.8,34.72-4.4,34.72-4.4a23.38,23.38,0,0,0-26.41,10C311.68,109.75,323.48,121.54,323.48,121.54Z" opacity=".15"/><path fill="#fff" d="M423.47,135.16s23.76,11.92,9.74,32.8-34.71,4.4-34.71,4.4a23.38,23.38,0,0,0,26.41-10C435.27,147,423.47,135.16,423.47,135.16Z" opacity=".3"/><polygon fill="#fff" points="62.25 453.71 270.43 159.19 257.4 149.9 54.34 437.61 62.25 453.71" opacity=".5"/><polygon fill="#3f456b" points="338.91 227.08 360.81 220.03 256.78 150.77 245.91 165.4 338.91 227.08" opacity=".15"/><polygon fill="#3f456b" points="365.13 221.54 382 218 255 132 252 147 365.13 221.54" opacity=".15"/><polyline fill="#f4b78e" points="96.42 381 16 381 16 329 133.12 329"/><polygon fill="#f4b78e" points="177.42 381 496 381 496 329 214.12 329 177.42 381"/><polygon fill="#3f456b" points="107 363 17 363 17 381 95 381 107 363" opacity=".15"/><polygon fill="#fff" points="130 329 17 329 17 347 118 347 130 329" opacity=".15"/><polygon fill="#3f456b" points="496 363 191 363 180 381 496 381 496 363" opacity=".15"/><polygon fill="#fff" points="496 329 214 329 203 347 496 347 496 329" opacity=".15"/><rect width="75" height="52" x="421" y="329" fill="#3f456b" opacity=".15"/><g opacity=".5"><path fill="#3f456b" d="M177,206.92a5,5,0,0,1-5-5V175a5,5,0,0,1,10,0v26.92A5,5,0,0,1,177,206.92Z"/><path fill="#3f456b" d="M75.92,308H49a5,5,0,0,1,0-10H75.92a5,5,0,1,1,0,10Z"/><path fill="#3f456b" d="M105.52,236.52a5,5,0,0,1-3.53-1.46L83,216A5,5,0,0,1,90,209l19,19a5,5,0,0,1-3.54,8.53Z"/><path fill="#3f456b" d="M138.8,214.89a5,5,0,0,1-4.63-3.11l-5.94-14.56a5,5,0,0,1,9.27-3.77L143.43,208a5,5,0,0,1-4.63,6.89Z"/><path fill="#3f456b" d="M83.53,269.05a5.17,5.17,0,0,1-1.94-.39l-14.48-6.1A5,5,0,1,1,71,253.34l14.48,6.1a5,5,0,0,1-1.94,9.61Z"/></g><path fill="#3f456b" d="M217,268a5,5,0,0,1-4.12-7.84l42-61a5,5,0,0,1,8.24,5.68l-42,61A5,5,0,0,1,217,268Z" opacity=".3"/><path fill="#3f456b" d="M257,249a5,5,0,0,1-4.1-7.87l21-30a5,5,0,1,1,8.2,5.74l-21,30A5,5,0,0,1,257,249Z" opacity=".3"/><g><path fill="#3f456b" d="M93.42,386H16a5,5,0,0,1-5-5V329a5,5,0,0,1,5-5H130.12a5,5,0,0,1,0,10H21v42H93.42a5,5,0,1,1,0,10Z"/><path fill="#3f456b" d="M496,386H177.42a5,5,0,0,1-4.09-7.88l36.7-52a5,5,0,0,1,4.09-2.12H496a5,5,0,0,1,5,5v52A5,5,0,0,1,496,386ZM187.07,376H491V334H216.71Z"/><path fill="#3f456b" d="M407.46,177.34a24.84,24.84,0,0,1-13.9-4.24l-68.79-46.51A25.06,25.06,0,0,1,318,91.91l.76-1.13A25,25,0,0,1,353.41,84l68.79,46.52A25,25,0,0,1,429,165.16l-.76,1.12A25,25,0,0,1,407.46,177.34Zm-68-87.62A15,15,0,0,0,327,96.36l-.75,1.12a15.06,15.06,0,0,0,4.09,20.81l68.79,46.52a15.07,15.07,0,0,0,20.8-4.1l.75-1.13h0a15.06,15.06,0,0,0-4.09-20.81L347.82,92.25A14.9,14.9,0,0,0,339.5,89.72Z"/><path fill="#3f456b" d="M376.94,258.89h-.05a5,5,0,0,1-4.95-5l.2-20.11a5,5,0,0,1,5.36-4.94l14.92,1.06.58-14a5,5,0,0,1,10,.41l-.8,19.17a5,5,0,0,1-5.35,4.78l-14.76-1.05-.15,14.8A5,5,0,0,1,376.94,258.89Z"/><path fill="#3f456b" d="M356.67,277.58h-.05a5,5,0,0,1-4.95-5.05l.21-20.11a5,5,0,0,1,5.35-4.94l20.06,1.42a5,5,0,1,1-.71,10l-14.76-1.05-.15,14.8A5,5,0,0,1,356.67,277.58Z"/><path fill="#3f456b" d="M336.41,296.27h-.05a5,5,0,0,1-4.95-5l.2-20.11a5,5,0,0,1,5.35-4.94L357,267.59a5,5,0,0,1-.71,10l-14.76-1.05-.15,14.8A5,5,0,0,1,336.41,296.27Z"/><path fill="#3f456b" d="M316.14,315h-.05a5,5,0,0,1-4.95-5l.2-20.11a5,5,0,0,1,5.36-4.94l20.06,1.42a5,5,0,0,1-.71,10l-14.76-1.05-.15,14.8A5,5,0,0,1,316.14,315Z"/><path fill="#3f456b" d="M295.91,330.38h-.05a5,5,0,0,1-4.95-5.05l.17-16.84a5,5,0,0,1,5.35-4.94L316.5,305a5,5,0,0,1-.71,10L301,313.9l-.12,11.53A5,5,0,0,1,295.91,330.38Z"/><path fill="#3f456b" d="M215.45,407.83h0a5,5,0,0,1-5-5.05l.2-20.11a5,5,0,0,1,5-4.95h0a5,5,0,0,1,5,5l-.2,20.11A5,5,0,0,1,215.45,407.83Z"/><path fill="#3f456b" d="M195.18,426.52h-.05a5,5,0,0,1-4.95-5l.2-20.11a5,5,0,0,1,5.36-4.94l20.06,1.42a5,5,0,0,1-.71,10l-14.76-1.05-.15,14.8A5,5,0,0,1,195.18,426.52Z"/><path fill="#3f456b" d="M174.92,445.21h0a5,5,0,0,1-5-5l.2-20.11a5,5,0,0,1,5.35-4.94l20.06,1.43a5,5,0,1,1-.7,10l-14.77-1.05-.14,14.8A5,5,0,0,1,174.92,445.21Z"/><path fill="#3f456b" d="M154.65,463.9h-.05a5,5,0,0,1-4.95-5l.2-20.11a5,5,0,0,1,1.61-3.62,5,5,0,0,1,3.75-1.31l20.06,1.42a5,5,0,1,1-.71,10l-14.76-1-.15,14.8A5,5,0,0,1,154.65,463.9Z"/><path fill="#3f456b" d="M134.39,482.6h-.06a5,5,0,0,1-5-5.05l.21-20.12a5,5,0,0,1,5.35-4.93L155,453.92a5,5,0,1,1-.7,10l-14.77-1-.15,14.8A5,5,0,0,1,134.39,482.6Z"/><path fill="#3f456b" d="M114.12,501.29a5,5,0,0,1-3.15-1.12c-.37-.3-37.53-30.44-50.69-41.28-8.71-7.18-9.44-15.31-8.51-20.86a25,25,0,0,1,4.07-10L251.93,147.74a5,5,0,1,1,8.19,5.73L64,433.76l-.08.1c-1.11,1.56-6.33,9.86,2.71,17.31,9.34,7.7,30.83,25.16,42.58,34.71l.1-9.76a5,5,0,0,1,5.35-4.93l20.07,1.42a5,5,0,1,1-.71,10l-14.76-1-.15,14.8a5,5,0,0,1-5,5Z"/><path fill="#3f456b" d="M362.88,227.23a5,5,0,0,1-2.8-.85L255.37,155.75l-.05,0-.08-.06c-5.81-3.9-7.55-8.66-8-12-1.06-7.92,4.1-14.75,5.4-16.32L324.7,20c.79-1.31,4.86-7.57,11.44-9.09a13.35,13.35,0,0,1,10.65,2.16L358.1,20.7c5.82,3.44,12.26,12.6,6.55,24.15-4.25,8.63-1.47,11.43,2.3,14l72,48.64c3.77,2.53,7.41,4,13.78-3.16,8.53-9.66,19.45-7.17,24.83-3.08l11.31,7.59a13.35,13.35,0,0,1,6,9c1.08,6.67-3.17,12.81-4.08,14l-46.5,69.27c-8,11.91-21.5,14.47-23.15,14.74l-57.3,11.27A5.2,5.2,0,0,1,362.88,227.23Zm-102-79.83.08.06,103,69.47L419.3,206l.23,0c.08,0,10.63-1.76,16.45-10.44l46.58-69.38a3.15,3.15,0,0,1,.19-.27c.88-1.17,2.61-4.32,2.24-6.49a3.36,3.36,0,0,0-1.73-2.32l-11.45-7.68-.28-.21c-1.36-1-6.34-4-11.35,1.7-8.42,9.52-17.45,11.15-26.86,4.84L361.37,67.11c-9.39-6.31-11.31-15.29-5.68-26.68,3.35-6.79-1.28-10.27-2.77-11.18a1.4,1.4,0,0,1-.26-.16l-11.44-7.68a3.35,3.35,0,0,0-2.82-.72c-2.39.55-4.7,3.76-5.14,4.52a2.68,2.68,0,0,1-.18.28L260.8,133.17a6,6,0,0,1-.38.5c-1.05,1.24-3.74,5.27-3.26,8.74.26,1.85,1.46,3.47,3.66,5Z"/><path fill="#3f456b" d="M103.71,452.25a17.62,17.62,0,1,1,13.62-6.41A17.57,17.57,0,0,1,103.71,452.25Zm0-25.25a7.62,7.62,0,1,0,4.85,1.74A7.6,7.6,0,0,0,103.73,427Z"/><path fill="#3f456b" d="M285.31,146.86a5,5,0,0,1-2.79-.85l-.83-.55a5,5,0,0,1,5.58-8.3l.83.55a5,5,0,0,1-2.79,9.15Z"/><path fill="#3f456b" d="M368.16,202.82a4.91,4.91,0,0,1-2.78-.85l-.83-.56a5,5,0,1,1,5.57-8.3l.83.56a5,5,0,0,1-2.79,9.15Z"/><path fill="#3f456b" d="M421,386a5,5,0,0,1-5-5V329a5,5,0,0,1,10,0v52A5,5,0,0,1,421,386Z"/></g></svg>