<svg xmlns="http://www.w3.org/2000/svg"  viewBox="0 0 256 256" width="100px" height="100px"><circle cx="128" cy="109.533" r="27.132" fill="#e63950"/><path fill="#d10028" d="M141.526,86.008c2.294,3.982,3.607,8.6,3.607,13.526c0,14.985-12.148,27.132-27.132,27.132 c-4.925,0-9.544-1.313-13.526-3.607c4.685,8.132,13.466,13.607,23.526,13.607c14.985,0,27.132-12.147,27.132-27.132 C155.132,99.474,149.658,90.693,141.526,86.008z"/><circle cx="197.551" cy="109.533" r="27.132" fill="#f79219"/><path fill="#ef7816" d="M211.076,86.008c2.294,3.982,3.607,8.6,3.607,13.526c0,14.985-12.148,27.132-27.132,27.132 c-4.925,0-9.544-1.313-13.526-3.607c4.685,8.132,13.466,13.607,23.526,13.607c14.985,0,27.132-12.147,27.132-27.132 C224.683,99.474,219.208,90.693,211.076,86.008z"/><circle cx="58.449" cy="109.533" r="27.132" fill="#f79219"/><path fill="#ef7816" d="M71.975,86.008c2.294,3.982,3.607,8.6,3.607,13.526c0,14.985-12.148,27.132-27.132,27.132 c-4.925,0-9.544-1.313-13.526-3.607c4.685,8.132,13.466,13.607,23.526,13.607c14.985,0,27.132-12.147,27.132-27.132 C85.582,99.474,80.107,90.693,71.975,86.008z"/><circle cx="128" cy="44.938" r="27.132" fill="#f79219"/><g><path fill="#ef7816" d="M141.526,21.413c2.294,3.982,3.607,8.6,3.607,13.526c0,14.985-12.148,27.132-27.132,27.132 c-4.925,0-9.544-1.312-13.526-3.607c4.686,8.132,13.466,13.607,23.526,13.607c14.985,0,27.132-12.148,27.132-27.132 C155.132,34.879,149.658,26.098,141.526,21.413z"/></g><g><circle cx="197.551" cy="44.938" r="27.132" fill="#ffc91d"/><path fill="#ffa91a" d="M211.076,21.413c2.294,3.982,3.607,8.6,3.607,13.526c0,14.985-12.148,27.132-27.132,27.132 c-4.925,0-9.544-1.312-13.526-3.607c4.686,8.132,13.466,13.607,23.526,13.607c14.985,0,27.132-12.148,27.132-27.132 C224.683,34.879,219.208,26.098,211.076,21.413z"/><circle cx="58.449" cy="44.938" r="27.132" fill="#ffc91d"/><path fill="#ffa91a" d="M71.975,21.413c2.294,3.982,3.607,8.6,3.607,13.526c0,14.985-12.148,27.132-27.132,27.132 c-4.925,0-9.544-1.312-13.526-3.607c4.686,8.132,13.466,13.607,23.526,13.607c14.985,0,27.132-12.148,27.132-27.132 C85.582,34.879,80.107,26.098,71.975,21.413z"/></g><g><path fill="#fcc4ae" d="M180.572,149.25c-4.867,0-8.802,3.935-8.802,8.802v-4.372c-0.007-2.11-0.72-4.029-2.011-5.596 c0-0.015,0-0.015,0-0.015c-5.222-6.304-15.57-2.592-15.579,5.611v-4.372c-0.442-11.599-17.096-11.71-17.59,0v-38.984 c-0.535-11.77-17.21-11.648-17.59,0.311c0,0,0,61.82,0,61.82c0,0.982-0.951,1.683-1.889,1.392l-19.141-5.929 c-11.493-3.181-17.233,12.757-6.398,17.649l-0.058,0.029c0,0,34.583,15.273,34.393,23.886h58.862v-4.663 c0-2.696,0.787-5.334,2.288-7.593c1.501-2.244,2.303-4.882,2.303-7.593v-31.581C189.36,153.184,185.425,149.25,180.572,149.25z"/><path fill="#f2ad97" d="M180.572,149.25c-0.412,0-0.815,0.038-1.212,0.093v30.29c0,2.71-0.802,5.348-2.303,7.593 c-1.501,2.259-2.288,4.896-2.288,7.593v4.663h-57.674c5.081,3.532,8.875,7.135,8.812,10h58.862v-4.663 c0-2.696,0.787-5.334,2.288-7.593c1.501-2.244,2.303-4.882,2.303-7.593v-31.581C189.36,153.184,185.425,149.25,180.572,149.25z"/><path fill="#f79219" d="M86.572,180.647c-0.032-0.014-0.059-0.031-0.091-0.046c0.01,0.025,0.022,0.05,0.033,0.075L86.572,180.647z"/><path fill="#f7cb15" d="M128.807,209.475H125.9C125.811,213.544,127.257,212.114,128.807,209.475z"/><path fill="#808285" d="M192.638,215.32v23.968c0,3.228-2.617,5.846-5.846,5.846h-63.038c-3.229,0-5.846-2.617-5.846-5.846V215.32 c0-3.229,2.617-5.846,5.846-5.846h63.038C190.02,209.475,192.638,212.092,192.638,215.32z"/><path fill="#939598" d="M123.91,231.96c-1.101,0-2-0.89-2-2c0-1.1,0.899-2,2-2c1.1,0,2,0.9,2,2 C125.91,231.07,125.01,231.96,123.91,231.96z M123.91,223.96c-1.101,0-2-0.89-2-2v-6.49c0-0.52,0.21-1.04,0.59-1.41 c0.37-0.37,0.88-0.58,1.41-0.58h50.46c1.1,0,2,0.89,2,1.99c0,1.11-0.9,2-2,2h-48.46v4.49 C125.91,223.07,125.01,223.96,123.91,223.96z"/><path fill="#58595b" d="M186.792,209.475h-4.154v19.814c0,3.229-2.617,5.846-5.846,5.846h-58.883v4.154 c0,3.229,2.617,5.846,5.846,5.846h63.038c3.228,0,5.846-2.617,5.846-5.846V215.32 C192.638,212.092,190.02,209.475,186.792,209.475z"/><path fill="#414042" d="M187.579,209.534c0.035,0.258,0.059,0.519,0.059,0.787v23.968c0,3.229-2.617,5.846-5.846,5.846h-63.038 c-0.268,0-0.529-0.024-0.787-0.059c0.385,2.856,2.826,5.059,5.787,5.059h63.038c3.228,0,5.846-2.617,5.846-5.846V215.32 C192.638,212.359,190.434,209.919,187.579,209.534z"/></g></svg>