<svg xmlns="http://www.w3.org/2000/svg"  viewBox="0 0 40 40" width="100px" height="100px"><path fill="#b0c1d4" d="M15.56 35.5L16.45 27.5 23.55 27.5 24.44 35.5 15.56 35.5z"/><path fill="#66798f" d="M23.1,28l.78,7H16.12l.78-7H23.1m.9-1H16l-1,9H25l-1-9Z"/><rect width="37" height="7" x="1.5" y="23.5" fill="#c2e8ff" rx="1.5" ry="1.5"/><path fill="#66798f" d="M37,24a1,1,0,0,1,1,1v4a1,1,0,0,1-1,1H3a1,1,0,0,1-1-1V25a1,1,0,0,1,1-1H37m0-1H3a2,2,0,0,0-2,2v4a2,2,0,0,0,2,2H37a2,2,0,0,0,2-2V25a2,2,0,0,0-2-2Z"/><path fill="#66798f" d="M2 26H38V30H2zM12 35H28V37H12z"/><path fill="#36404d" d="M20 27A1 1 0 1 0 20 29A1 1 0 1 0 20 27Z"/><path fill="#c2e8ff" d="M1.5,25.5V5A.5.5,0,0,1,2,4.5H38a.5.5,0,0,1,.5.5V25.5Z"/><path fill="#36404d" d="M38,5V25H2V5H38m0-1H2A1,1,0,0,0,1,5V26H39V5a1,1,0,0,0-1-1Z"/></svg>