<svg xmlns="http://www.w3.org/2000/svg"  viewBox="0 0 80 80" width="100px" height="100px"><path fill="#ffeea3" d="M26.495,77.5v-10h-2.5c-5.238,0-9.5-4.262-9.5-9.5v-9.934l-4.697-1.741 c-0.526-0.195-0.933-0.589-1.146-1.108s-0.198-1.085,0.042-1.593l5.801-12.325v-0.111c0-7.149,1.863-12.488,5.536-15.869 l0.376-0.346l-0.354-0.369c-1.769-1.842-2.947-3.694-3.404-4.466C18.544,8.784,28.121,2.5,42.531,2.5 c15.7,0,28.964,12.963,28.964,28.307c0,11.492-5.297,17.105-9.97,22.058c-2.773,2.938-5.167,5.476-6.014,8.79l-0.016,0.062V77.5 H26.495z"/><path fill="#ba9b48" d="M42.531,3c7.474,0,14.577,2.896,20.002,8.155c5.457,5.29,8.462,12.269,8.462,19.652 c0,11.293-5.224,16.829-9.834,21.714c-2.703,2.864-5.256,5.57-6.135,9.01l-0.031,0.122v0.126V77h-28v-9v-1h-1h-2 c-4.963,0-9-4.037-9-9v-9.586v-0.696l-0.652-0.242l-4.371-1.62c-0.393-0.146-0.697-0.44-0.856-0.828s-0.148-0.811,0.031-1.191 L14.9,31.613l0.095-0.202v-0.224c0-7.004,1.808-12.219,5.375-15.501l0.751-0.692l-0.707-0.737 c-1.481-1.542-2.539-3.092-3.093-3.979C19.855,8.553,29.055,3,42.531,3 M42.531,2c-16.449,0-26.536,8-26.536,8 s1.314,2.467,3.698,4.95c-3.434,3.16-5.698,8.319-5.698,16.237L8.242,43.411c-0.619,1.315,0.02,2.877,1.382,3.382l4.371,1.62V58 c0,5.523,4.477,10,10,10h2v10h30V61.778c2.211-8.652,16-12.456,16-30.971C71.995,14.897,58.44,2,42.531,2L42.531,2z"/><g><path fill="#4e7ab5" d="M37.049,47.683c-0.146-0.406-0.561-1.844-0.561-3.512c0-5.832,8.025-8.427,8.025-13.131 c0-4.088-4.765-4.308-5.513-4.308c-2.423,0-4.732,1.082-6.927,3.244v-5.634C34.74,22.78,37.504,22,40.366,22 C48.276,22,50,27.114,50,29.976c0,7.585-8.61,9.499-8.61,14.366c0,1.524,0.626,2.951,0.805,3.341H37.049z M39.829,58 c-1.579,0-3.488-1.132-3.488-3.244c0-2.326,2.25-3.268,3.488-3.268c2.336,0,3.463,1.907,3.463,3.268 C43.293,56.848,41.262,58,39.829,58z"/></g></svg>