<svg xmlns="http://www.w3.org/2000/svg"  viewBox="0 0 50 50" width="100px" height="100px"><path d="M 26.5 2 C 24.027344 2 22 4.027344 22 6.5 C 22 8.972656 24.027344 11 26.5 11 C 28.972656 11 31 8.972656 31 6.5 C 31 4.027344 28.972656 2 26.5 2 Z M 26.5 4 C 27.890625 4 29 5.109375 29 6.5 C 29 7.890625 27.890625 9 26.5 9 C 25.109375 9 24 7.890625 24 6.5 C 24 5.109375 25.109375 4 26.5 4 Z M 18.5 9 C 16.027344 9 14 11.027344 14 13.5 C 14 15.972656 16.027344 18 18.5 18 C 20.972656 18 23 15.972656 23 13.5 C 23 11.027344 20.972656 9 18.5 9 Z M 18.5 11 C 19.890625 11 21 12.109375 21 13.5 C 21 14.890625 19.890625 16 18.5 16 C 17.109375 16 16 14.890625 16 13.5 C 16 12.109375 17.109375 11 18.5 11 Z M 33.921875 11.050781 C 33.703125 11.054688 33.484375 11.082031 33.253906 11.140625 L 25.6875 12.644531 C 25.640625 12.65625 25.597656 12.667969 25.550781 12.683594 C 24.652344 12.996094 23.953125 13.722656 23.671875 14.632813 C 23.660156 14.664063 23.652344 14.699219 23.644531 14.730469 L 23.0625 17.609375 L 19.070313 19.515625 C 19.046875 19.527344 19.027344 19.535156 19.003906 19.546875 C 18.558594 19.804688 18.183594 20.171875 17.921875 20.609375 C 17.917969 20.609375 17.917969 20.613281 17.917969 20.613281 L 14.917969 25.636719 L 11.796875 27.253906 L 11.886719 27.214844 C 10.359375 27.828125 9.601563 29.585938 10.214844 31.113281 C 10.679688 32.277344 11.804688 33 13 33 C 13.371094 33 13.75 32.929688 14.109375 32.785156 C 14.136719 32.777344 14.164063 32.765625 14.1875 32.75 L 18.1875 30.75 C 18.761719 30.515625 19.273438 30.25 19.519531 29.453125 L 19.425781 29.667969 L 21.734375 25.796875 L 22.832031 27.277344 C 22.824219 27.34375 22.839844 27.308594 22.796875 27.480469 C 22.707031 27.851563 22.507813 28.445313 22.066406 29.230469 C 21.183594 30.792969 19.324219 33.128906 15.417969 35.9375 C 10.417969 39.53125 5.894531 40.003906 5.894531 40.003906 C 5.386719 40.058594 5 40.488281 5 41 C 5 41 4.996094 42.28125 5.710938 43.640625 C 6.429688 45 7.960938 46.484375 10.640625 46.910156 C 12.804688 47.257813 14.191406 46.578125 14.90625 46.15625 C 15.589844 46.742188 17.234375 48 20 48 C 22.574219 48 24.113281 46.933594 24.917969 46.285156 C 25.128906 46.519531 25.082031 46.589844 25.445313 46.832031 C 26.367188 47.445313 27.832031 48 30 48 C 32.167969 48 33.632813 47.445313 34.554688 46.832031 C 34.96875 46.554688 34.941406 46.464844 35.15625 46.207031 C 35.335938 46.308594 35.308594 46.335938 35.558594 46.433594 C 36.316406 46.726563 37.445313 47 39 47 C 41.195313 47 42.734375 46.113281 43.652344 45.214844 C 44.570313 44.316406 44.9375 43.351563 44.9375 43.351563 C 45.082031 42.964844 44.972656 42.527344 44.664063 42.25 C 42.597656 40.414063 40.703125 38.472656 39 36.566406 L 39 33.722656 C 39 33.125 38.890625 32.53125 38.683594 31.96875 C 38.679688 31.960938 38.675781 31.953125 38.671875 31.941406 L 36.191406 25.847656 C 36.191406 25.847656 36.191406 25.84375 36.191406 25.84375 C 36.003906 25.335938 35.960938 24.792969 36.058594 24.261719 C 36.582031 24.714844 37.257813 25 38 25 L 38.375 25 C 39.132813 25 39.796875 24.832031 40.296875 24.460938 C 40.796875 24.089844 41.0625 23.613281 41.269531 23.199219 C 41.617188 22.503906 42.003906 21.398438 42.34375 20.402344 C 42.5625 19.757813 42.628906 19.539063 42.734375 19.207031 C 42.824219 19.007813 42.898438 18.804688 42.941406 18.589844 C 42.941406 18.585938 42.953125 18.550781 42.953125 18.550781 L 42.945313 18.546875 C 42.980469 18.371094 43 18.1875 43 18 C 43 16.355469 41.644531 15 40 15 C 39.949219 15 39.898438 15.003906 39.847656 15.011719 L 38.773438 15.175781 C 38.644531 14.996094 38.3125 14.527344 37.828125 13.847656 C 37.542969 13.449219 37.253906 13.042969 37.019531 12.71875 C 36.785156 12.390625 36.648438 12.199219 36.53125 12.046875 C 36.003906 11.390625 35.3125 11.226563 34.722656 11.128906 C 34.429688 11.082031 34.171875 11.050781 33.921875 11.050781 Z M 33.730469 13.082031 C 33.613281 13.117188 34.074219 13.050781 34.40625 13.105469 C 34.742188 13.160156 34.992188 13.328125 34.96875 13.296875 C 34.953125 13.277344 35.164063 13.5625 35.394531 13.886719 C 35.628906 14.207031 35.914063 14.613281 36.199219 15.011719 C 36.382813 15.269531 36.398438 15.289063 36.5625 15.515625 L 33.421875 16 L 27.5 16 C 27.476563 16 27.453125 16 27.425781 16 C 26.714844 16.054688 26.007813 16.203125 25.324219 16.515625 L 25.589844 15.21875 C 25.683594 14.917969 25.910156 14.691406 26.199219 14.582031 L 33.644531 13.105469 C 33.671875 13.097656 33.703125 13.089844 33.730469 13.082031 Z M 40.019531 17.007813 C 40.574219 17.019531 41 17.445313 41 18 C 41 18.078125 40.972656 18.148438 40.957031 18.21875 C 40.945313 18.253906 40.894531 18.40625 40.875 18.464844 C 40.710938 18.78125 40.394531 19 40 19 C 39.949219 19 39.898438 19.003906 39.847656 19.011719 L 33.421875 20 L 28.375 20 C 28.082031 20 27.804688 20.128906 27.613281 20.351563 C 27.425781 20.574219 27.339844 20.871094 27.390625 21.160156 L 27.933594 24.542969 C 27.363281 25.09375 26.472656 25.5 25.625 25.71875 C 25.117188 25.851563 24.667969 25.917969 24.34375 25.953125 L 22.441406 23.402344 C 22.242188 23.136719 21.921875 22.984375 21.589844 23.003906 C 21.253906 23.019531 20.953125 23.203125 20.78125 23.488281 L 17.707031 28.640625 C 17.667969 28.710938 17.636719 28.78125 17.613281 28.855469 C 17.71875 28.519531 17.574219 28.847656 17.371094 28.929688 C 17.34375 28.941406 17.316406 28.949219 17.292969 28.964844 L 13.351563 30.933594 C 13.230469 30.980469 13.113281 31 13 31 C 12.605469 31 12.230469 30.769531 12.070313 30.371094 C 11.863281 29.84375 12.101563 29.28125 12.625 29.074219 C 12.65625 29.058594 12.6875 29.046875 12.71875 29.03125 L 16.09375 27.28125 C 16.257813 27.195313 16.394531 27.066406 16.488281 26.90625 L 19.632813 21.640625 C 19.722656 21.492188 19.84375 21.375 19.992188 21.292969 L 25.769531 18.535156 C 25.800781 18.519531 25.832031 18.503906 25.859375 18.484375 C 26.382813 18.167969 26.867188 18.050781 27.5625 18 L 33.5 18 C 33.550781 18 33.601563 17.996094 33.652344 17.988281 Z M 40 21.011719 C 39.796875 21.5625 39.605469 22.054688 39.480469 22.300781 C 39.3125 22.636719 39.203125 22.785156 39.109375 22.851563 C 39.015625 22.917969 38.867188 23 38.375 23 L 38 23 C 37.433594 23 37 22.566406 37 22 L 37 21.472656 Z M 34.71875 21.824219 L 34.1875 23.4375 C 34.183594 23.453125 34.179688 23.472656 34.171875 23.488281 C 33.902344 24.5 33.949219 25.570313 34.316406 26.546875 C 34.320313 26.558594 34.324219 26.566406 34.328125 26.574219 L 36.820313 32.699219 L 36.808594 32.671875 C 36.933594 33.007813 37 33.367188 37 33.722656 L 37 34.222656 C 32.6875 29.027344 30.039063 24.648438 29.953125 24.5 L 29.546875 22 L 33.5 22 C 33.550781 22 33.601563 21.996094 33.652344 21.988281 Z M 28.8125 26.445313 C 30.324219 28.824219 35.363281 36.398438 42.722656 43.128906 C 42.605469 43.339844 42.609375 43.4375 42.253906 43.785156 C 41.640625 44.386719 40.679688 45 39 45 C 37.675781 45 36.808594 44.773438 36.285156 44.566406 C 35.761719 44.363281 35.667969 44.253906 35.667969 44.253906 C 35.433594 44.046875 35.117188 43.960938 34.8125 44.019531 C 34.507813 44.078125 34.246094 44.273438 34.105469 44.550781 C 34.105469 44.550781 34.023438 44.78125 33.445313 45.167969 C 32.867188 45.554688 31.832031 46 30 46 C 28.167969 46 27.132813 45.554688 26.554688 45.167969 C 25.976563 44.78125 25.894531 44.550781 25.894531 44.550781 C 25.75 44.265625 25.476563 44.0625 25.160156 44.011719 C 24.84375 43.960938 24.519531 44.066406 24.292969 44.292969 C 24.292969 44.292969 22.554688 46 20 46 C 17.445313 46 15.707031 44.292969 15.707031 44.292969 C 15.355469 43.9375 14.792969 43.902344 14.394531 44.203125 C 14.394531 44.203125 13.011719 45.261719 10.953125 44.933594 C 8.832031 44.59375 7.964844 43.617188 7.484375 42.707031 C 7.207031 42.1875 7.257813 42.050781 7.207031 41.734375 C 8.53125 41.511719 12.109375 40.78125 16.582031 37.5625 C 20.675781 34.621094 22.753906 32.082031 23.808594 30.207031 C 24.335938 29.273438 24.605469 28.507813 24.738281 27.953125 C 24.742188 27.9375 24.742188 27.929688 24.746094 27.917969 C 25.128906 27.867188 25.597656 27.792969 26.125 27.65625 C 26.972656 27.4375 27.960938 27.085938 28.8125 26.445313 Z"/></svg>