<svg xmlns="http://www.w3.org/2000/svg"  viewBox="0 0 128 128" width="100px" height="100px"><circle cx="64" cy="64" r="60" fill="#fff"/><path fill="#444b54" d="M64,127C29.26,127,1,98.74,1,64S29.26,1,64,1s63,28.26,63,63S98.74,127,64,127z M64,7C32.57,7,7,32.57,7,64 s25.57,57,57,57s57-25.57,57-57S95.43,7,64,7z"/><path fill="#71c2ff" d="M71.8,92H45c-1.66,0-3-1.34-3-3s1.34-3,3-3h26.8c3.33,0,6.21-2.37,6.86-5.63l6-30 c0.41-2.06-0.12-4.18-1.45-5.81C81.88,42.93,79.91,42,77.8,42H55c-1.66,0-3-1.34-3-3s1.34-3,3-3h22.8 c3.91,0,7.58,1.73,10.05,4.76c2.48,3.02,3.46,6.96,2.69,10.79l-6,30C83.34,87.6,77.98,92,71.8,92z"/><path fill="#71c2ff" d="M65,67H35c-1.66,0-3-1.34-3-3s1.34-3,3-3h30c1.66,0,3,1.34,3,3S66.66,67,65,67z"/></svg>