<svg xmlns="http://www.w3.org/2000/svg"  viewBox="0 0 48 48" width="144px" height="144px"><path fill="#fc8f00" d="M18,26h10v16H18V26z"/><path fill="#00acc1" d="M30.5,32.79C29.05,32.19,28,32,28,32l-5,9l-5-9c0,0-11,1.99-11,13h30.61 c0.07-1.55,0.35-3.37,0.58-4.74C36.6,35.95,32.97,33.79,30.5,32.79z"/><path fill="#b2ebf2" d="M47,35.12c0,1.51-0.63,2.65-1.24,3.74c-0.43,0.78-0.88,1.58-1.14,2.55 c-0.15,0.58-0.29,1.21-0.42,1.82C43.66,45.68,43.16,48,41.44,48c-1.2,0-1.92-0.87-1.92-2.32c0-1.34-0.22-3.25-0.64-5.67 c-0.05-0.25-0.23-0.28-0.3-0.28s-0.29,0.01-0.35,0.29c-0.01,0.08-0.03,0.16-0.04,0.24c-0.23,1.37-0.51,3.19-0.58,4.74 c-0.01,0.23-0.02,0.46-0.02,0.68c0,1.45-0.72,2.32-1.92,2.32c-1.3,0-1.9-1.31-2.35-3c-0.15-0.57-0.28-1.18-0.42-1.79 c-0.13-0.61-0.26-1.23-0.41-1.81c-0.26-0.96-0.71-1.76-1.14-2.54c-0.61-1.09-1.24-2.23-1.24-3.74c0-0.85,0.14-1.63,0.39-2.33 c0.85-2.34,3.01-3.79,5.89-3.79c0.82,0,1.55,0.1,2.18,0.31C39.2,29.1,39.94,29,40.75,29c1.91,0,3.52,0.61,4.64,1.76 C46.46,31.86,47.02,33.36,47,35.12z"/><path fill="#90caf9" d="M40.03,29.033c-0.53,0.044-1.019,0.135-1.457,0.279c-0.003-0.001-0.006-0.001-0.009-0.002 c1.016,0.413,1.926,1.206,2.635,2.324c0.09,0.142,0.241,0.219,0.395,0.219c0.087,0,0.175-0.024,0.253-0.075 c0.218-0.142,0.282-0.436,0.142-0.656C41.437,30.249,40.771,29.548,40.03,29.033z"/><path fill="#fc8f00" d="M15,18.27C14.71,18.09,14.37,18,14,18c-0.35,0-0.67,0.08-0.95,0.24h-0.01 c-0.01,0.01-0.03,0.02-0.04,0.03c-0.32,0.18-0.58,0.45-0.76,0.78C12.09,19.33,12,19.66,12,20c0,1.11,0.9,2,2,2h0.06 c0.22-0.01,0.43-0.05,0.63-0.13c0.55-0.19,0.99-0.63,1.18-1.18C15.96,20.48,16,20.24,16,20C16,19.26,15.6,18.61,15,18.27z M33.76,19.05c-0.18-0.33-0.45-0.6-0.77-0.78c-0.01-0.01-0.03-0.02-0.04-0.03C32.67,18.09,32.34,18,32,18c-0.36,0-0.71,0.1-1,0.27 c-0.6,0.35-1,0.99-1,1.73c0,0.24,0.04,0.48,0.13,0.69c0.19,0.55,0.63,0.99,1.18,1.18c0.2,0.08,0.41,0.12,0.63,0.13H32 c1.1,0,2-0.89,2-2C34,19.66,33.91,19.33,33.76,19.05z"/><path fill="#ffaa45" d="M32,14v7.08c0,0.31-0.02,0.62-0.06,0.92c-0.19,1.75-0.88,3.35-1.94,4.64C28.36,28.69,25.83,30,23,30 s-5.36-1.31-7-3.36c-1.06-1.29-1.75-2.89-1.94-4.64C14.02,21.7,14,21.39,14,21.08V14C14,9.03,32,6.36,32,14z"/><path fill="#784719" d="M27,19c-0.55,0-1,0.45-1,1s0.45,1,1,1s1-0.45,1-1S27.55,19,27,19z M19,19c-0.55,0-1,0.45-1,1 s0.45,1,1,1s1-0.45,1-1S19.55,19,19,19z"/><path fill="#795548" d="M33,16v2.26l-0.01,0.01L32,19.13L31,20v-5l-4-4l-12,4v5l-1-0.85l-1-0.86V16c0-6.07,3.92-11,10-11h3 l1,2C31.96,7.98,33,11.98,33,16z"/><path fill="#b2ebf2" d="M30,21v5.64C28.36,28.69,25.83,30,23,30s-5.36-1.31-7-3.36V21c0.11,0.03,0.22,0.06,0.33,0.09 C18,21.55,20.27,22,23,22c1.69,0,4.01-0.17,6.67-0.91C29.78,21.06,29.89,21.03,30,21z"/><path fill="#b2ebf2" d="M17.71,22.29l-1.42,1.42L16,23.38l-1.31-1.51L14,21.08l-1.76-2.03c0.18-0.33,0.44-0.6,0.76-0.78 V18.2l0.04,0.04h0.01L14,19.07l1,0.86l0.87,0.76l0.46,0.4L17.71,22.29z"/><path fill="#b2ebf2" d="M33.76,19.05L32,21.08l-0.69,0.79L30,23.38l-0.29,0.33l-1.42-1.42l1.38-1.2l0.46-0.4L31,19.93 l1-0.86l0.95-0.83L33,18.2v0.06l-0.01,0.01C33.31,18.45,33.58,18.72,33.76,19.05z"/><path fill="#00acc1" d="M32,6c0,0-1.88-2-8.75-2S14,6,14,6s-1,6-1,10c0,0,5-1,10-1s10,1,10,1C33,12,32,6,32,6z"/></svg>