<svg xmlns="http://www.w3.org/2000/svg"  viewBox="0 0 64 64" width="100px" height="100px"><g data-name="Fill Outline"><path fill="#84d2f4" d="M32,3h0A29,29,0,0,1,61,32v0A23,23,0,0,1,38,55H26A23,23,0,0,1,3,32v0A29,29,0,0,1,32,3Z"/><path fill="#57b7eb" d="M61,32A23.012,23.012,0,0,1,38,55H26A23,23,0,0,1,3,32,29.01,29.01,0,0,1,38.3,3.69a22.23,22.23,0,0,0,.69,3.01,23.167,23.167,0,0,0,2.89,6.12l1.2,1.8a13.606,13.606,0,0,0,8.03,5.66,4.723,4.723,0,0,1,3.47,3.64,4.762,4.762,0,0,0,2.25,3.15,7.854,7.854,0,0,0,3.91,1.08A28.724,28.724,0,0,1,61,32Z"/><path fill="#4891d3" d="M30.57,55H26A23,23,0,0,1,3,32,29,29,0,0,1,24.28,4.04a28.109,28.109,0,0,0-2.79,2.45A28.907,28.907,0,0,0,13,27C13,37.83,20.49,51.28,30.57,55Z"/><path fill="#f89c8d" d="M32,61h0A19,19,0,0,1,13,42V28.472a4,4,0,0,1,2.211-3.578h0A8.314,8.314,0,0,0,19.7,18.822L20,17l.924,2.771A4.721,4.721,0,0,0,25.4,23h0a6.379,6.379,0,0,0,6.051-4.361L32,17l.546,1.639A6.379,6.379,0,0,0,38.6,23H39l1-7,.64,2.239a8.317,8.317,0,0,0,6.194,5.835l1.034.23A4,4,0,0,1,51,28.209V42A19,19,0,0,1,32,61Z"/><path fill="#f8664f" d="M11,28h2a0,0,0,0,1,0,0V40a0,0,0,0,1,0,0h0a6,6,0,0,1-6-6V32a4,4,0,0,1,4-4Z"/><path fill="#f89c8d" d="M51,28h2a4,4,0,0,1,4,4v2a6,6,0,0,1-6,6h0a0,0,0,0,1,0,0V28A0,0,0,0,1,51,28Z"/><path fill="#f8664f" d="M51,28.21v5a4,4,0,0,0-3.13-3.91l-1.04-.23a8.326,8.326,0,0,1-6.19-5.83L40,21l-1,7h-.4a6.37,6.37,0,0,1-6.05-4.36L32,22l-.55,1.64A6.37,6.37,0,0,1,25.4,28a4.73,4.73,0,0,1-4.48-3.23l-.78-2.34-.24.15-.2,1.24a8.423,8.423,0,0,1-1.7,3.8V39.5a19,19,0,0,0,19,19,18.605,18.605,0,0,0,5.9-.95A18.815,18.815,0,0,1,32,61,19,19,0,0,1,13,42V28.47a4.02,4.02,0,0,1,2.21-3.58,8.31,8.31,0,0,0,4.49-6.07L20,17l.92,2.77A4.73,4.73,0,0,0,25.4,23a6.362,6.362,0,0,0,6.05-4.36L32,17l.55,1.64A6.37,6.37,0,0,0,38.6,23H39l1-7,.64,2.24a8.326,8.326,0,0,0,6.19,5.83l1.04.23A4,4,0,0,1,51,28.21Z"/><ellipse cx="44" cy="41" fill="#f8664f" rx="4" ry="3"/><ellipse cx="20" cy="41" fill="#f8664f" rx="4" ry="3"/><path fill="#f8664f" d="M56.24,36.93A6.01,6.01,0,0,1,51,40V28h2v5A4,4,0,0,0,56.24,36.93Z"/><path fill="#cc5144" d="M7.76,36.93A6.01,6.01,0,0,0,13,40V28H11v5A4,4,0,0,1,7.76,36.93Z"/><path fill="#cc5144" d="M32,53h0a7,7,0,0,1-7-7V45h0a12.043,12.043,0,0,0,14,0h0v1A7,7,0,0,1,32,53Z"/><path fill="#57b7eb" d="M44.464,30a4,4,0,0,1-6.928,4Z"/><path fill="#57b7eb" d="M26.464,34a4,4,0,1,1-6.928-4Z"/><path fill="#f89c8d" d="M45,12h0a12.649,12.649,0,0,0,8,8h0A24.921,24.921,0,0,0,59,3.78V3h0a22.446,22.446,0,0,1-13.4,8.866Z"/><path fill="#f89c8d" d="M19,12h0a12.649,12.649,0,0,1-8,8h0A24.921,24.921,0,0,1,5,3.78V3H5a22.446,22.446,0,0,0,13.4,8.866Z"/><path fill="#f8664f" d="M59,3v.78a24.839,24.839,0,0,1-1.55,8.65A24.791,24.791,0,0,1,53,20a12.64,12.64,0,0,1-8-8l.6-.13c.42-.1.84-.2,1.26-.33a12.351,12.351,0,0,0,2.01,2.14,4.4,4.4,0,0,0,3.45.99,4.307,4.307,0,0,0,3.1-2.04,24.669,24.669,0,0,0,3.32-9.29C58.83,3.23,58.92,3.12,59,3Z"/><path fill="#f8664f" d="M5,3v.78a24.839,24.839,0,0,0,1.55,8.65A24.791,24.791,0,0,0,11,20a12.64,12.64,0,0,0,8-8l-.6-.13c-.42-.1-.84-.2-1.26-.33a12.351,12.351,0,0,1-2.01,2.14,4.4,4.4,0,0,1-3.45.99,4.307,4.307,0,0,1-3.1-2.04A24.669,24.669,0,0,1,5.26,3.34C5.17,3.23,5.08,3.12,5,3Z"/><g data-name="Outline copy"><path fill="#39519d" d="M40,46V45a1,1,0,0,0-1.581-.813,11.046,11.046,0,0,1-12.838,0A1,1,0,0,0,24,45v1a8,8,0,0,0,16,0Zm-8,6a6.008,6.008,0,0,1-5.945-5.19,13.046,13.046,0,0,0,11.89,0A6.008,6.008,0,0,1,32,52Z"/><path fill="#39519d" d="M33,39a1,1,0,0,1-2,0,1,1,0,0,0-2,0,3,3,0,0,0,6,0,1,1,0,0,0-2,0Z"/><path fill="#39519d" d="M41,41a1,1,0,0,0,1,1h4a1,1,0,0,0,0-2H42A1,1,0,0,0,41,41Z"/><path fill="#39519d" d="M18,40a1,1,0,0,0,0,2h4a1,1,0,0,0,0-2Z"/><path fill="#39519d" d="M29.623,56.069a1,1,0,0,0,.916,1.779,3.2,3.2,0,0,1,2.985.031,1,1,0,1,0,.952-1.758A5.193,5.193,0,0,0,29.623,56.069Z"/><path fill="#39519d" d="M43.723,29.034a1,1,0,0,0-.759.1l-6.928,4A1,1,0,0,0,35.67,34.5a4.968,4.968,0,0,0,3.036,2.33,5.047,5.047,0,0,0,1.3.172,5,5,0,0,0,4.322-7.5A1,1,0,0,0,43.723,29.034ZM41.5,34.6a3.005,3.005,0,0,1-3.451-.317l4.9-2.829A3,3,0,0,1,41.5,34.6Z"/><path fill="#39519d" d="M25.294,36.83A4.968,4.968,0,0,0,28.33,34.5a1,1,0,0,0-.366-1.366l-6.928-4a1,1,0,0,0-1.366.366A5,5,0,0,0,23.992,37,5.047,5.047,0,0,0,25.294,36.83Zm-4.243-5.378,4.9,2.829a3,3,0,0,1-4.9-2.829Z"/><path fill="#39519d" d="M35.707,27.293a1,1,0,0,0-1.414,0L32,29.586l-2.293-2.293a1,1,0,0,0-1.414,1.414l3,3a1,1,0,0,0,1.414,0l3-3A1,1,0,0,0,35.707,27.293Z"/><path fill="#39519d" d="M62,32a29.7,29.7,0,0,0-2.86-12.75,1,1,0,0,0-1.809.853A27.715,27.715,0,0,1,60,32a22.058,22.058,0,0,1-9.833,18.313A19.85,19.85,0,0,0,52,42V40.92A7.006,7.006,0,0,0,58,34V32a5.006,5.006,0,0,0-5-5H51.837a4.951,4.951,0,0,0-3.752-3.672l-1.034-.23A7.309,7.309,0,0,1,41.6,17.964l-.64-2.239a1,1,0,0,0-1.924.55l.64,2.238a9.308,9.308,0,0,0,6.939,6.537l1.034.23A2.982,2.982,0,0,1,50,28.208V42a18,18,0,0,1-36,0V32a1,1,0,0,0-2,0v6.9A5.009,5.009,0,0,1,8,34V32a3,3,0,0,1,3-3l1.9,0a.992.992,0,0,0,.742-.2,1.008,1.008,0,0,0,.376-.671,2.989,2.989,0,0,1,1.637-2.331,9.352,9.352,0,0,0,4.564-5.082A5.713,5.713,0,0,0,25.4,24,7.368,7.368,0,0,0,32,19.927,7.366,7.366,0,0,0,38.6,24H39a1,1,0,0,0,0-2h-.4a5.371,5.371,0,0,1-5.1-3.677l-.547-1.639a1,1,0,0,0-1.9,0L30.5,18.323A5.369,5.369,0,0,1,25.4,22a3.717,3.717,0,0,1-3.531-2.545l-.924-2.771a1,1,0,0,0-1.934.151l-.3,1.822A7.341,7.341,0,0,1,14.764,24a4.978,4.978,0,0,0-2.543,3H11a5.006,5.006,0,0,0-5,5v2a7.006,7.006,0,0,0,6,6.92V42a19.84,19.84,0,0,0,1.83,8.307,22.279,22.279,0,0,1-5.121-4.726,1,1,0,0,0-1.572,1.237,24.191,24.191,0,0,0,8.7,6.917,19.931,19.931,0,0,0,32.322,0A24.061,24.061,0,0,0,62,32Zm-6,0v2a5.009,5.009,0,0,1-4,4.9V29h1A3,3,0,0,1,56,32Z"/><path fill="#39519d" d="M4,32A27.83,27.83,0,0,1,8.01,17.586a25.933,25.933,0,0,0,2.231,3.065A1,1,0,0,0,11,21a1.014,1.014,0,0,0,.316-.051,13.742,13.742,0,0,0,6.9-5.174,1,1,0,0,0-1.645-1.139,11.722,11.722,0,0,1-5.257,4.183A23.917,23.917,0,0,1,8.9,15.157c-.009-.016-.016-.032-.026-.048A23.931,23.931,0,0,1,6.1,5.922a23.4,23.4,0,0,0,12.084,6.92l.6.134a1,1,0,1,0,.434-1.952l-.6-.134a21.421,21.421,0,0,1-12.8-8.471A1,1,0,0,0,4,3v.78A25.919,25.919,0,0,0,6.888,15.618,29.822,29.822,0,0,0,2,32,24,24,0,0,0,4.848,43.321a1,1,0,1,0,1.761-.946A22.011,22.011,0,0,1,4,32Z"/><path fill="#39519d" d="M17.425,8.1A27.875,27.875,0,0,1,48.947,9.758a21.578,21.578,0,0,1-3.561,1.132l-.6.134a1,1,0,0,0-.731,1.292A13.712,13.712,0,0,0,49.4,19.341a1,1,0,0,0,1.114-1.662,11.7,11.7,0,0,1-4.168-4.961A23.393,23.393,0,0,0,57.9,5.922a23.927,23.927,0,0,1-5.662,13.427,1,1,0,1,0,1.518,1.3A25.943,25.943,0,0,0,60,3.78V3a1,1,0,0,0-1.813-.581,21.431,21.431,0,0,1-7.208,6.374,29.924,29.924,0,0,0-34.6-2.4A1,1,0,1,0,17.425,8.1Z"/></g></g></svg>