<svg xmlns="http://www.w3.org/2000/svg"  viewBox="0 0 80 80" width="100px" height="100px"><path fill="#f5ce85" d="M20.1,69.5l-6.9-3c-0.5-0.1-10.5-2.8-10.7-18h75c-0.2,15.2-10.2,17.9-10.6,18l-9,3.1L20.1,69.5z"/><path fill="#967a44" d="M77,49c-0.4,14.3-9.8,16.9-10.2,17l0,0l0,0l-8.8,3L20.2,69l-6.8-2.9l-0.1,0l-0.1,0 C13.1,66,3.4,63.4,3,49H77 M78,48H2c0,16.3,11,19,11,19l7,3l38,0.1l9-3.1C67,67,78,64.2,78,48L78,48z"/><path fill="#f5ce85" d="M57 48L47 48 46 49 56 49z"/><path fill="#ffeea3" d="M46 4.5A7.5 7.5 0 1 0 46 19.5A7.5 7.5 0 1 0 46 4.5Z"/><path fill="#ba9b48" d="M46,5c3.9,0,7,3.1,7,7s-3.1,7-7,7s-7-3.1-7-7S42.1,5,46,5 M46,4c-4.4,0-8,3.6-8,8s3.6,8,8,8 s8-3.6,8-8S50.4,4,46,4L46,4z"/><path fill="#967a44" d="M25.4 51H70.69999999999999V53H25.4z" transform="rotate(-45.001 48 52)"/><path fill="#bae0bd" d="M17.7,48.5L26.1,28c1.3-3.3,4.5-5.4,8-5.4c1.2,0,2.3,0.2,3.4,0.7l26.8,7.5c2.3,0.7,3.6,3.2,2.9,5.5 c-0.6,1.9-2.3,3.1-4.2,3.1l0,0c-0.5,0-0.9-0.1-1.3-0.2l-19-5.4l-5.9,14.6H17.7z"/><path fill="#5e9c76" d="M34.1,23.1c1.1,0,2.2,0.2,3.2,0.7l0.1,0l0.1,0l26.7,7.5c2,0.6,3.2,2.8,2.6,4.9 c-0.5,1.7-2,2.8-3.7,2.8c-0.4,0-0.8-0.1-1.2-0.2l-18.6-5.2l-0.9-0.2L42,34.1L36.3,48H18.5l8.1-19.8C27.8,25.1,30.8,23.1,34.1,23.1 M34.1,22.1c-3.6,0-7,2.1-8.5,5.7L17,49h20l5.9-14.5l18.6,5.2c0.5,0.2,1,0.2,1.5,0.2c2.1,0,4.1-1.4,4.7-3.5 c0.8-2.6-0.7-5.3-3.2-6.1l-26.7-7.5C36.6,22.4,35.4,22.1,34.1,22.1L34.1,22.1z"/><path fill="#8bb7f0" d="M2,78h76V65.8c-2.6-0.5-5.7-1.8-8-1.8c-2.9,0-7.1,2-10,2s-7.1-2-10-2s-7.1,2-10,2s-7.1-2-10-2 s-7.1,2-10,2s-7.1-2-10-2c-2.3,0-5.4,1.2-8,1.8V78z"/><path fill="#4e7ab5" d="M70,64c-2.9,0-7.1,2-10,2s-7.1-2-10-2s-7.1,2-10,2s-7.1-2-10-2s-7.1,2-10,2s-7.1-2-10-2 c-2.3,0-5.4,1.2-8,1.8v1c2.6-0.5,5.7-1.8,8-1.8c2.9,0,7.1,2,10,2s7.1-2,10-2s7.1,2,10,2s7.1-2,10-2s7.1,2,10,2s7.1-2,10-2 c2.3,0,5.4,1.2,8,1.8v-1C75.4,65.2,72.3,64,70,64z"/></svg>