<?xml version="1.0" encoding="utf-8"?>
<!-- Generator: Adobe Illustrator 21.0.2, SVG Export Plug-In . SVG Version: 6.00 Build 0)  -->
<svg xmlns="http://www.w3.org/2000/svg" xmlns:xlink="http://www.w3.org/1999/xlink" viewBox="0 0 80 80" width="100px" height="100px">
<g>
	<path style="fill:#788B9C;" d="M59.7,57.5c-1.2,2.8-0.5,1.3-1.1,2.5c1.4,0.6,3.4-1.2,4.6-4c1.2-2.8,1-5.5-0.4-6.1   C61.9,52.3,60.8,54.7,59.7,57.5z"/>
</g>
<g>
	<path style="fill:#788B9C;" d="M53.7,57.5c-1.2,2.8-0.5,1.3-1.1,2.5c1.4,0.6,3.4-1.2,4.6-4s1-5.5-0.4-6.1   C55.9,52.3,54.8,54.7,53.7,57.5z"/>
</g>
<g>
	<path style="fill:#788B9C;" d="M41.7,53.5c-1.2,2.8-0.5,1.3-1.1,2.5c1.4,0.6,3.4-1.2,4.6-4s1-5.5-0.4-6.1   C43.9,48.3,42.8,50.7,41.7,53.5z"/>
</g>
<g>
	<path style="fill:#788B9C;" d="M47.7,55.5c-1.2,2.8-0.5,1.3-1.1,2.5c1.4,0.6,3.4-1.2,4.6-4s1-5.5-0.4-6.1   C49.9,50.3,48.8,52.7,47.7,55.5z"/>
</g>
<g>
	<path style="fill:#788B9C;" d="M35.7,49.5c-1.2,2.8-0.5,1.3-1.1,2.5c1.4,0.6,3.4-1.2,4.6-4s1-5.5-0.4-6.1   C37.9,44.3,36.8,46.7,35.7,49.5z"/>
</g>
<g>
	<path style="fill:#788B9C;" d="M66,34c0-2.2,0.2-2,2-2c0,1.4,0,1.8,0,4s-0.9,4-2,4C66,38.2,66,36.2,66,34z"/>
</g>
<g>
	<path style="fill:#788B9C;" d="M52,36c0-2.2,0.2-2,2-2c0,1.4,0,1.8,0,4s-0.9,4-2,4C52,40.2,52,38.2,52,36z"/>
</g>
<g>
	<path style="fill:#788B9C;" d="M46,34c0-2.2,0.2-2,2-2c0,1.4,0,1.8,0,4s-0.9,4-2,4C46,38.2,46,36.2,46,34z"/>
</g>
<g>
	<path style="fill:#788B9C;" d="M40,32c0-2.2,0.2-2,2-2c0,1.4,0,1.8,0,4s-0.9,4-2,4C40,36.2,40,34.2,40,32z"/>
</g>
<g>
	<path style="fill:#788B9C;" d="M34,32c0-2.2,0.2-2,2-2c0,1.4,0,1.8,0,4s-0.9,4-2,4C34,36.2,34,34.2,34,32z"/>
</g>
<g>
	<path style="fill:#788B9C;" d="M58,32c0-4.4,0-1.1,0-4c2.2,0,4,3.6,4,8s-1.8,8-4,8C58,40.4,58,36.4,58,32z"/>
</g>
<g>
	<path style="fill:#BAE0BD;" d="M8.3,77.5c-4-6.2-5.8-21.2-5.8-33.5c0-16.1,3.1-28.2,7.6-29.5c0.2-0.1,0.3-0.2,0.3-0.4l0.1-0.3   C12.1,7,16.7,2.5,22,2.5c4.4,0,8.2,2,11.8,3.9C36.9,8.1,38,8.5,42,8.5h18c9.6,0,17.5,7,17.5,15.5v2c0,5.4-9.6,11.5-22.5,11.5   c-5,0-10.3-1-14.8-2.8c-1.5-0.6-3.1-1.2-4.6-1.2c-1.2,0-2.3,0.4-3,1.2C30,37.2,27,39.5,22,39.5c-0.2,0-0.6,0-1.1,0   c-0.8,0-1.9,0-2.5,0l-0.5,0c-0.3,0-0.5,0.2-0.5,0.4c0,0.2,0.1,0.5,0.4,0.5c1,0.3,3.6,0.9,4,1c2,0.4,4.8,0.6,7.7,0.8   c1.1,0.1,2.2,0.2,3.3,0.2c3.3,0.3,4.2,1.4,4.8,2.1c0.1,0.1,0.2,0.2,0.2,0.3c5.2,5.8,16.5,10.2,29.4,11.6c0,0.2-0.1,0.4-0.1,0.6   c-1.2,3.8-5.9,6.5-11.3,6.5c-3.2,0-6.2-1-9.2-2c-2.9-1-5.8-2-8.8-2c-0.2,0-0.3,0.1-0.4,0.2c-0.1,0.1-0.1,0.3,0,0.5   c2.4,5,9.4,13.9,13.1,17.3H8.3z"/>
	<path style="fill:#5E9C76;" d="M22,3c4.3,0,8,2,11.5,3.9C36.7,8.6,37.9,9,42,9h18c9.4,0,17,6.7,17,15v2c0,5.2-9.4,11-22,11   c-4.9,0-10.1-1-14.6-2.8c-1.6-0.6-3.2-1.2-4.8-1.2c-1.4,0-2.5,0.4-3.4,1.3C29.7,36.7,26.8,39,22,39c0,0,0,0,0,0c0,0,0,0-0.1,0   c0,0-0.2,0-1,0c-0.8,0-1.9,0-2.5,0L18,39c-0.5,0-0.9,0.4-1,0.9s0.2,1,0.7,1.1c1,0.3,3.6,0.9,4.1,1c2,0.4,4.8,0.6,7.8,0.8   c1.1,0.1,2.2,0.2,3.3,0.2c3.1,0.3,3.9,1.2,4.5,1.9c0.1,0.1,0.2,0.2,0.2,0.3C42.8,51,54,55.4,66.8,56.9c0,0,0,0,0,0   C65.7,60.5,61.2,63,56,63c-3.1,0-6.1-1-9-2c-2.9-1-5.9-2-9-2c-0.3,0-0.7,0.2-0.8,0.5s-0.2,0.7,0,1c2.3,4.6,8.5,12.6,12.3,16.6H16   h-5.9H8.5C4.7,70.7,3,56,3,44c0-17.7,3.7-28,7.3-29c0.4-0.1,0.6-0.4,0.7-0.7l0.1-0.3C12.5,7.4,16.9,3,22,3 M22,2   c-5.8,0-10.4,5-11.9,11.7L10,14c-4.8,1.4-8,13.7-8,30c0,13.4,2,28.1,6,34h2.1c0,0,2.3,0,5.9,0c10.4,0,32.7,0,36,0   c-2.9-2.2-11.2-12.4-14-18c5.9,0,11.6,4,18,4c5.4,0,10.4-2.5,11.8-6.8c0.1-0.4,0.2-0.8,0.2-1.2c-13.7-1.4-24.8-6.1-29.6-11.5   C37.7,43.8,37,42.3,33,42c-3.9-0.3-8.3-0.5-11-1c-0.4-0.1-3-0.7-4-1c0,0,0,0,0,0c0.2,0,1.8,0,2.9,0c0.6,0,1,0,1.1,0   c5.3,0,8.5-2.6,10.9-5c0.7-0.7,1.7-1,2.7-1c1.5,0,3.1,0.6,4.4,1.1c4,1.6,9.3,2.9,15,2.9c12.7,0,23-6,23-12v-2c0-9.4-8.6-16-18-16   H42c-4,0-5-0.4-8-2C30.1,3.9,26.4,2,22,2L22,2z"/>
</g>
<path style="fill:#36404D;" d="M23,10c-2,0-4,2.1-4,6c0,2,0.6,3.1,2,4c0.1,0.1,0.3,0.2,0.5,0.2c0.4-3.7,2.2-7.2,3.5-7.2  c0,4.9,0.5,6.5,2,8c2.3,0,6-2.4,6-3C29.9,14.9,26.9,10,23,10z"/>
<path style="fill:#36404D;" d="M68.5,17.4c1.4,1.3,1.9,3.1,1,4s-2.7,0.7-4.1-0.6C64,19.6,64,18.2,64,16C65.7,16,67.1,16.1,68.5,17.4  z"/>
<path style="fill:#5E9C76;" d="M28,62c-10.3,0-16-5.9-16-16.5c0-0.3,0.2-0.5,0.5-0.5s0.5,0.2,0.5,0.5C13,51.3,14.9,61,28,61  c1.8,0,4-0.6,6-1.2c1.6-0.5,3.1-0.8,4-0.8c0.3,0,0.5,0.2,0.5,0.5S38.3,60,38,60c-0.8,0-2.3,0.4-3.8,0.8C32.2,61.4,29.9,62,28,62z"/>
<path style="fill:#5E9C76;" d="M43.5,13c-0.1,0-0.1,0-0.2,0c-2.6-1.1-5-2.7-7.3-4.2C31.7,5.9,27.3,3,22,3c-0.3,0-0.5-0.2-0.5-0.5  S21.7,2,22,2c5.6,0,10.1,3,14.5,5.9c2.3,1.5,4.7,3.1,7.2,4.2c0.3,0.1,0.4,0.4,0.3,0.7C43.9,12.9,43.7,13,43.5,13z"/>
<path style="fill:#BAE0BD;" d="M8.5,77l0.6,1h41.3l-1-1c-1.9-2-4.4-4.9-6.7-8H5.6C6.4,72.3,7.4,75,8.5,77z"/>
</svg>