<svg xmlns="http://www.w3.org/2000/svg"  viewBox="0 0 340 340" width="100px" height="100px"><path fill="#d4ebff" d="M10,128.963V52.51s37.322-10.228,87.593-2.249a183.509,183.509,0,0,0,60.256-.723,284.853,284.853,0,0,1,112.321,3.5,118.824,118.824,0,0,0,59.448-1.325L330,51.6v76.59Z"/><path fill="#719fe8" d="M10,102.428s27.893-6.572,69.342,3.629a207.817,207.817,0,0,0,54.711,6.162c20.715-.5,47.473-2.651,72.388-9.163a158.8,158.8,0,0,1,46.543-5.313q.667.027,1.342.059a197.072,197.072,0,0,0,42.387-2.5A127.937,127.937,0,0,1,330,93.806V312.378H10Z"/><path fill="#ffc6e7" d="M250.461,256.283a35.19,35.19,0,0,0-30.731-31.018l-10.528-1.28a13.15,13.15,0,0,1-11.528-12.028c-.657-8.4-1.515-20.314-1.967-30.408l-20.37,3.115-20.37-3.115c-.451,10.094-1.309,22.006-1.966,30.408a13.152,13.152,0,0,1-11.528,12.028l-10.529,1.28a35.19,35.19,0,0,0-30.731,31.018A458.952,458.952,0,0,0,98,312.378H252.67A458.952,458.952,0,0,0,250.461,256.283Z"/><path fill="#ed91b5" d="M129.362,143.787h18.169a0,0,0,0,1,0,0v25.5a0,0,0,0,1,0,0H129.362a12.75,12.75,0,0,1-12.75-12.75v0A12.75,12.75,0,0,1,129.362,143.787Z"/><path fill="#ed91b5" d="M175.337,184.664l-20.37-3.115c-.445,9.959-1.286,21.681-1.94,30.062l44.431-2.449c-.619-8.122-1.347-18.59-1.751-27.613Z"/><path fill="#ffc6e7" d="M135.644,146.023s-5.23,48.585,39.367,48.585h40.861v-58.8Z"/><path fill="#333947" d="M200.112,184.8a10.134,10.134,0,0,1-9.256-3.836,15.574,15.574,0,0,0-12.527-5.91,14.28,14.28,0,0,0-13.346,10.809,18.92,18.92,0,0,0,.624,11.982c1.648,4.1,5.232,8.876,12.988,8.876h23.294a33.2,33.2,0,0,0,33.2-32.854l1.459-140.228a5.951,5.951,0,0,0-5.95-6.012H218.471a5.95,5.95,0,0,0-5.949,5.812L209.2,176.645A10.491,10.491,0,0,1,200.112,184.8Z"/><path fill="#ffa580" d="M131.781,126.82s-19.718-33.769,12.775-49.967l5.832,7.962s15.552-15.924,35.825-17.3a72.775,72.775,0,0,1,0,14.276s18.607-7.138,33.6-8.785a42.724,42.724,0,0,1,.307,19.089,17.838,17.838,0,0,0,.616,9.917c1.807,5.252,3.155,14.474-2.59,26.177Z"/><path fill="#cde7ff" d="M208.839,121.6H141.184a11.6,11.6,0,0,0-11.6,11.6v6.167q0,.534.028,1.049c.611,11.044,13.474,16.75,22.491,10.343,11.444-8.131,34.373-8.131,45.816,0,9.017,6.407,21.88.7,22.491-10.343q.029-.515.029-1.049V133.2A11.6,11.6,0,0,0,208.839,121.6Z"/><path fill="#bfe7ff" d="M10.005,162.158v22.664a3.49,3.49,0,0,0,4.491,3.341,42.636,42.636,0,0,0,15.918-8.609s26.009,25.536,54.409.019a11.47,11.47,0,0,0-1.193-18.04c-10.936-7.4-30.07-14.392-52.845,2.807,0,0-8.3-4.425-16.773-5.635A3.5,3.5,0,0,0,10.005,162.158Z"/><path fill="#bfe7ff" d="M330,120.034V142.7a3.491,3.491,0,0,1-4.491,3.341,42.651,42.651,0,0,1-15.918-8.609s-26.009,25.536-54.409.019a11.469,11.469,0,0,1,1.192-18.04c10.936-7.4,30.071-14.392,52.846,2.807,0,0,8.3-4.426,16.773-5.635A3.5,3.5,0,0,1,330,120.034Z"/><circle cx="60.122" cy="249.114" r="12.204" fill="#fff"/><circle cx="84.137" cy="217.225" r="10.236" fill="#fff"/><circle cx="285.703" cy="266.134" r="15.354" fill="#fff"/><circle cx="285.057" cy="211.162" r="9.374" fill="#fff"/><path fill="#ed91b5" d="M165.477,301.53c-15.187,0-24.188-6.7-24.563-6.981a4,4,0,0,1,4.819-6.385c.163.119,7.471,5.366,19.744,5.366a4,4,0,0,1,0,8Z"/><path fill="#ed91b5" d="M187.962,301.16a13,13,0,0,1-12.538-9.615c-1.443-5.4-2.175-12.44-2.175-20.925a4,4,0,0,1,8,0c0,7.788.641,14.134,1.9,18.862a4.98,4.98,0,0,0,5.465,3.635,50.992,50.992,0,0,0,16.745-5.23,4,4,0,0,1,3.961,6.951,58.818,58.818,0,0,1-19.65,6.208A12.864,12.864,0,0,1,187.962,301.16Z"/><path fill="#ed91b5" d="M175.046,244.8a10.629,10.629,0,0,1-6.026-1.863l-1.282-.879a4,4,0,1,1,4.525-6.6l1.281.879a2.679,2.679,0,0,0,3.377-.29,88.446,88.446,0,0,0,7.324-8.013,4,4,0,1,1,6.248,5,96.9,96.9,0,0,1-7.987,8.743A10.676,10.676,0,0,1,175.046,244.8Z"/><path fill="#ed91b5" d="M128.035,312.378V277.541a22.13,22.13,0,0,0-1.628-8.357l-1.846-4.553a4,4,0,0,0-7.414,3.006l1.846,4.553a14.171,14.171,0,0,1,1.042,5.351v34.837Z"/><path fill="#ed91b5" d="M230.639,312.378V277.541a14.172,14.172,0,0,1,1.043-5.351l1.846-4.553a4,4,0,0,0-7.414-3.006l-1.846,4.553a22.131,22.131,0,0,0-1.629,8.357v34.837Z"/><path fill="#fff" d="M175.011,121.6h-17.03l-25.916,25.915a14.443,14.443,0,0,0,15.014,5.529L178.523,121.6Z"/><path fill="#fff" d="M208.839,121.6H196.994l-23.077,23.077a52.38,52.38,0,0,1,10.953.911L208.858,121.6Z"/><path fill="#fff" d="M42.974,72.238a3.7,3.7,0,0,1,.6-7.277c9.409-.738,23.036-.627,40.567,2.558a162.509,162.509,0,0,0,36.314,2.8,3.7,3.7,0,0,1,1.142,7.261c-8.5,2.4-20.6,3.747-37.456,1.723C64.879,76.994,51.685,74.4,42.974,72.238Z"/><path fill="#fff" d="M284.472,68.147a151.115,151.115,0,0,1,23.781,6.4,1.736,1.736,0,0,1-.739,3.365c-12.04-1.175-30.449-2.2-45.027.365a1.732,1.732,0,0,1-1.585-2.861,22.281,22.281,0,0,1,6.516-4.928A26.84,26.84,0,0,1,284.472,68.147Z"/><path fill="#24242b" d="M328.518,47.867a115.153,115.153,0,0,1-57.447,1.273c-5.065-1.17-10.212-2.218-15.3-3.115a4,4,0,0,0-1.389,7.879c4.95.872,9.959,1.892,14.888,3.031a125.572,125.572,0,0,0,28.249,3.232,120.805,120.805,0,0,0,33.2-4.609,4,4,0,0,0-2.2-7.691Z"/><path fill="#24242b" d="M193.3,41.785A275.811,275.811,0,0,0,157.162,45.6a179.234,179.234,0,0,1-58.942.714C47.679,38.29,10.5,48.224,8.943,48.653a4,4,0,1,0,2.115,7.715c.364-.1,37.053-9.912,85.908-2.157a187.162,187.162,0,0,0,61.569-.733,267.726,267.726,0,0,1,35.086-3.7,4,4,0,0,0-.32-7.994Z"/><path fill="#24242b" d="M330.393,89.826a130.381,130.381,0,0,0-34.346,1.535,193.277,193.277,0,0,1-37.687,2.595,4,4,0,1,0-.231,8q2.921.084,5.841.085a200.984,200.984,0,0,0,33.409-2.787,122.491,122.491,0,0,1,32.229-1.463,4,4,0,0,0,.785-7.961Z"/><path fill="#24242b" d="M106.5,114.958a4,4,0,0,0,.45-7.973A213.663,213.663,0,0,1,80.3,102.172a4,4,0,0,0-1.912,7.768,221.6,221.6,0,0,0,27.658,4.992A3.767,3.767,0,0,0,106.5,114.958Z"/><path fill="#24242b" d="M58.07,97.968a4,4,0,1,0-1.037,7.932l1.209.164a4,4,0,0,0,1.1-7.924Q58.7,98.052,58.07,97.968Z"/><path fill="#24242b" d="M6.109,103.339a4,4,0,0,0,4.8,2.984c.106-.025,10.705-2.433,28.151-1.9a4,4,0,1,0,.248-8c-18.6-.573-29.762,2-30.228,2.107A4,4,0,0,0,6.109,103.339Z"/><path fill="#24242b" d="M220.212,221.294l-10.527-1.28a9.1,9.1,0,0,1-6.116-3.457,4,4,0,0,0-6.307,4.924,17.058,17.058,0,0,0,11.457,6.475l10.527,1.28a31.073,31.073,0,0,1,27.24,27.49c3,26.868,2.194,55.249,2.186,55.533a4,4,0,0,0,3.879,4.117l.121,0a4,4,0,0,0,4-3.88c.009-.289.829-29.214-2.231-56.659A39.047,39.047,0,0,0,220.212,221.294Z"/><path fill="#24242b" d="M223.669,71.932a4.006,4.006,0,0,0-4.289-2.9C209.1,70.163,197.41,73.7,190.58,76a87.058,87.058,0,0,0-.388-8.9,4.007,4.007,0,0,0-4.249-3.575c-15.976,1.081-29,10.34-34.952,15.341l-3.208-4.379a4,4,0,0,0-5.012-1.217c-19.865,9.9-22.112,25.819-20.5,37.428a4,4,0,1,0,7.924-1.1c-1.671-12.029,2.768-21.285,13.2-27.557l3.762,5.136a4,4,0,0,0,6.084.436c.136-.138,12.731-12.786,29.264-15.626a56.549,56.549,0,0,1-.262,9.284,4,4,0,0,0,5.4,4.258c.166-.064,15.408-5.873,28.978-8.05a37.453,37.453,0,0,1-.391,13.694,21.826,21.826,0,0,0,.724,12.142,26.929,26.929,0,0,1,.575,14.85,16.523,16.523,0,0,0-7.866-1.984H140.357a16.65,16.65,0,0,0-16.631,16.631v6.716c0,.422.013.835.034,1.244a16.738,16.738,0,0,0,3.456,32.379,4.26,4.26,0,0,0,.514.032,4,4,0,0,0,.5-7.968,8.743,8.743,0,0,1-2.393-16.676,18.64,18.64,0,0,0,5.764,6.613c.654,9.855,4,27.5,18.784,37-.451,7.333-.992,14.576-1.377,19.493a9.18,9.18,0,0,1-8.021,8.369l-10.53,1.28a39.045,39.045,0,0,0-34.223,34.545C93.177,283.284,94,312.209,94.006,312.5a4,4,0,0,0,4,3.88l.121,0A4,4,0,0,0,102,312.259c-.009-.284-.812-28.643,2.187-55.533a31.071,31.071,0,0,1,27.238-27.49l10.529-1.28a17.208,17.208,0,0,0,15.033-15.687c.329-4.208.771-10.111,1.176-16.327.938.331,1.917.629,2.922.905a21.659,21.659,0,0,0,.809,2.486c2.954,7.34,8.884,11.383,16.7,11.383h23.294a37.323,37.323,0,0,0,37.2-36.812l1.459-140.23a9.951,9.951,0,0,0-9.95-10.052H218.471a10.011,10.011,0,0,0-9.948,9.719l-.593,25.571a4,4,0,0,0,8,.185l.593-25.57a1.961,1.961,0,0,1,1.95-1.905H230.6a1.948,1.948,0,0,1,1.95,1.969L231.086,173.82a29.3,29.3,0,0,1-29.2,28.9H178.6c-4.519,0-7.553-2.083-9.277-6.369a14.97,14.97,0,0,1-.475-9.443,10.152,10.152,0,0,1,9.485-7.856,11.545,11.545,0,0,1,9.414,4.421,14.179,14.179,0,0,0,12.939,5.284,14.337,14.337,0,0,0,12.46-11.435,4.186,4.186,0,0,0,.056-.58l.443-19.084a19.966,19.966,0,0,0,1.875-.776,18.7,18.7,0,0,0,10.745-15.989q.038-.668.037-1.36v-6.716a16.5,16.5,0,0,0-2.271-8.349c3.576-10.324,2.272-18.589.5-23.751a13.845,13.845,0,0,1-.507-7.69A46.671,46.671,0,0,0,223.669,71.932ZM205.207,176.173a6.481,6.481,0,0,1-5.664,4.662,6.176,6.176,0,0,1-5.573-2.385,19.7,19.7,0,0,0-15.642-7.4,18.235,18.235,0,0,0-17.206,13.763,23.527,23.527,0,0,0-.655,3.449c-14.454-5.357-19.142-19.008-20.505-29.672a19.749,19.749,0,0,0,14.6-3.395c11.082-7.877,29.811-7.877,40.9,0a19.75,19.75,0,0,0,10.152,3.6Zm13.09-36.644c0,.313-.009.62-.025.92a10.668,10.668,0,0,1-6.229,9.221,11.636,11.636,0,0,1-11.949-1c-13.832-9.827-36.335-9.829-50.165,0a11.641,11.641,0,0,1-11.951,1,10.667,10.667,0,0,1-6.227-9.22c-.016-.3-.025-.608-.025-.921v-6.716a8.641,8.641,0,0,1,8.631-8.631h69.309a8.641,8.641,0,0,1,8.631,8.631Z"/><path fill="#24242b" d="M87.554,182.493a15.46,15.46,0,0,0-1.691-24.277c-10.285-6.957-30.951-15.784-55.491,1.473C26.386,157.847,17.88,154.4,10,154.4a4,4,0,0,0-4,4v30.8a4,4,0,0,0,4.529,3.965,47.005,47.005,0,0,0,19.84-8.441c4.7,3.61,15.018,10.163,27.911,10.163C67.148,194.889,77.236,191.788,87.554,182.493ZM33.212,176.7a4,4,0,0,0-5.445-.149A38.521,38.521,0,0,1,14,184.124V162.747a56.11,56.11,0,0,1,14.9,5.123,4,4,0,0,0,4.293-.337c20.371-15.385,37.45-9.954,48.189-2.69a7.459,7.459,0,0,1,.82,11.706C56.986,199.259,34.163,177.625,33.212,176.7Z"/><path fill="#24242b" d="M330,112.279c-7.879,0-16.385,3.443-20.372,5.285-24.541-17.256-45.207-8.427-55.49-1.472a15.459,15.459,0,0,0-1.69,24.277c10.317,9.295,20.4,12.4,29.273,12.4,12.892,0,23.207-6.554,27.91-10.164a46.982,46.982,0,0,0,19.841,8.441A4,4,0,0,0,334,147.078v-30.8A4,4,0,0,0,330,112.279ZM326,142a38.537,38.537,0,0,1-13.766-7.574,4.013,4.013,0,0,0-5.438.142c-.96.931-23.787,22.565-48.994-.143a7.459,7.459,0,0,1,.818-11.706,39.2,39.2,0,0,1,21.942-7.179c7.808,0,16.664,2.63,26.248,9.868a4,4,0,0,0,4.289.339,56.12,56.12,0,0,1,14.9-5.124Z"/><path fill="#24242b" d="M76.326,249.114a16.2,16.2,0,1,0-16.2,16.2A16.222,16.222,0,0,0,76.326,249.114Zm-16.2,8.2a8.2,8.2,0,1,1,8.2-8.2A8.214,8.214,0,0,1,60.122,257.318Z"/><path fill="#24242b" d="M69.9,217.225A14.236,14.236,0,1,0,84.137,202.99,14.252,14.252,0,0,0,69.9,217.225Zm20.471,0a6.236,6.236,0,1,1-6.235-6.235A6.242,6.242,0,0,1,90.372,217.225Z"/><path fill="#24242b" d="M285.7,246.781a19.354,19.354,0,1,0,19.354,19.353A19.375,19.375,0,0,0,285.7,246.781Zm0,30.707a11.354,11.354,0,1,1,11.354-11.354A11.366,11.366,0,0,1,285.7,277.488Z"/><path fill="#24242b" d="M285.057,224.537a13.374,13.374,0,1,0-13.374-13.374A13.39,13.39,0,0,0,285.057,224.537Zm0-18.748a5.374,5.374,0,1,1-5.374,5.374A5.38,5.38,0,0,1,285.057,205.789Z"/><path fill="#24242b" d="M165.477,293.53c-12.273,0-19.581-5.247-19.744-5.366a4,4,0,0,0-4.819,6.385c.375.285,9.376,6.981,24.563,6.981a4,4,0,0,0,0-8Z"/><path fill="#24242b" d="M183.153,289.482c-1.263-4.728-1.9-11.074-1.9-18.862a4,4,0,0,0-8,0c0,8.485.732,15.526,2.175,20.925a13,13,0,0,0,12.538,9.615,12.864,12.864,0,0,0,1.712-.114,58.818,58.818,0,0,0,19.65-6.208,4,4,0,0,0-3.961-6.951,50.992,50.992,0,0,1-16.745,5.23A4.98,4.98,0,0,1,183.153,289.482Z"/><path fill="#24242b" d="M189.868,227.413a4,4,0,0,0-5.623.625,88.446,88.446,0,0,1-7.324,8.013,2.679,2.679,0,0,1-3.377.29l-1.281-.879a4,4,0,1,0-4.525,6.6l1.282.879a10.7,10.7,0,0,0,13.486-1.16,96.9,96.9,0,0,0,7.987-8.743A4,4,0,0,0,189.868,227.413Z"/><path fill="#24242b" d="M66.3,167.088a3.988,3.988,0,0,0-2.83,1.17,4.05,4.05,0,0,0-1.17,2.83,3.459,3.459,0,0,0,.08.781,4.985,4.985,0,0,0,.22.75,5.763,5.763,0,0,0,.37.689,4.919,4.919,0,0,0,.5.61,3.7,3.7,0,0,0,.61.491,3.6,3.6,0,0,0,.69.369,3.832,3.832,0,0,0,.75.23,4,4,0,1,0,.78-7.92Z"/><path fill="#24242b" d="M273.7,124.958a4,4,0,1,0,.779,7.93,4.6,4.6,0,0,0,.75-.229,4.715,4.715,0,0,0,.69-.37,4.358,4.358,0,0,0,.611-.5,4.006,4.006,0,0,0-2.83-6.831Z"/><path fill="#24242b" d="M124.035,316.378a4,4,0,0,0,4-4V277.541a22.13,22.13,0,0,0-1.628-8.357l-1.846-4.553a4,4,0,0,0-7.414,3.006l1.846,4.553a14.171,14.171,0,0,1,1.042,5.351v34.837A4,4,0,0,0,124.035,316.378Z"/><path fill="#24242b" d="M230.639,312.378V277.541a14.172,14.172,0,0,1,1.043-5.351l1.846-4.553a4,4,0,0,0-7.414-3.006l-1.846,4.553a22.131,22.131,0,0,0-1.629,8.357v34.837a4,4,0,1,0,8,0Z"/></svg>