<?xml version="1.0" encoding="iso-8859-1"?>
<!-- Generator: Adobe Illustrator 19.2.0, SVG Export Plug-In . SVG Version: 6.00 Build 0)  -->
<svg version="1.1" id="Layer_1" xmlns="http://www.w3.org/2000/svg" xmlns:xlink="http://www.w3.org/1999/xlink" x="0px" y="0px"
	 viewBox="0 0 80 80" style="enable-background:new 0 0 80 80;" xml:space="preserve">
<g>
	<path style="fill:#FFC49C;" d="M57.012,77.5c-2.957,0-4.503-1.576-5.515-5.621l-2.934-22.428l9.937-0.903V72.5H59
		c2.864,0,5.225,2.201,5.478,5H57.012z"/>
	<path style="fill:#A16A4A;" d="M58,49.095V72v1h1c2.415,0,4.435,1.721,4.9,4h-6.888c-2.286,0-3.925-0.87-5.016-5.187l-2.869-21.911
		L58,49.095 M59,48l-11,1l3.012,23c1.042,4.167,2.7,6,6,6H65c0-3.3-2.7-6-6-6V48L59,48z"/>
</g>
<g>
	<path style="fill:#FFC49C;" d="M22,77.5c-3.032,0-5.5-2.467-5.5-5.5V48.5h2.972l0.032-0.466c0.087-1.28,0.137-2.645,0.171-4.122
		c1.685,3.155,5.675,4.711,12.065,4.73l6.223,3.089c-2.612,0.789-4.445,3.328-5.729,5.107c-0.226,0.312-0.436,0.603-0.63,0.857
		c-2.601,3.395-6.807,6.391-9.822,7.854L21.5,65.687V72.5H22c2.864,0,5.225,2.201,5.478,5H22z"/>
	<path style="fill:#A16A4A;" d="M20.132,45.424c2.097,2.437,5.936,3.684,11.489,3.718l5.117,2.539
		c-2.191,1.098-3.761,3.273-4.91,4.864c-0.222,0.308-0.429,0.595-0.622,0.846c-2.551,3.33-6.681,6.271-9.643,7.708L21,65.374V66v6v1
		h1c2.415,0,4.435,1.721,4.9,4H22c-2.757,0-5-2.243-5-5v-4v-6v-2v-2v-9h2.005h0.934l0.064-0.932
		C20.06,47.225,20.101,46.346,20.132,45.424 M19.247,39.774c-0.049,3.14-0.08,5.844-0.242,8.226H16v10v2v2v6v4c0,3.3,2.7,6,6,6h6
		c0-3.3-2.7-6-6-6v-6c2.833-1.375,7.222-4.373,10-8c1.5-1.958,3.859-6.012,7.604-6.012l-7.747-3.845
		C25.126,48.143,19.247,46.505,19.247,39.774L19.247,39.774z"/>
</g>
<g>
	<path style="fill:#E1EBF2;" d="M56,23.5c-0.347,0-0.43-0.112-0.457-0.149c-0.343-0.467,0.167-2.101,0.54-3.294
		c0.346-1.108,0.703-2.253,0.703-3.125c0-3.696,3.812-6.387,9.083-6.431c3.142,1.733,9.632,1.965,11.621,1.995
		C77.271,17.901,73.514,23.5,68,23.5H56z"/>
	<g>
		<path style="fill:#788B9C;" d="M65.746,11.002c3.043,1.607,8.679,1.925,11.213,1.985C76.547,17.993,73.051,23,68,23H56
			c-0.025,0-0.046-0.001-0.064-0.002c-0.094-0.496,0.368-1.976,0.623-2.793c0.357-1.143,0.726-2.325,0.726-3.274
			C57.286,13.552,60.828,11.084,65.746,11.002 M66,10c-5.996,0-9.714,3.184-9.714,6.932C56.286,19.23,53.441,24,56,24
			c2.375,0,6.139,0,12,0c5.996,0,10-6.176,10-12C75.116,12,68.854,11.656,66,10L66,10z"/>
	</g>
</g>
<g>
	<path style="fill:#FFC49C;" d="M50.012,77.5c-2.957,0-4.503-1.576-5.515-5.621L40.402,55.5h-0.391
		c-1.894,0-3.366-0.305-5.718-1.913c-1.912-1.307-4.26-2.087-6.282-2.087c-2.882,0-5.223,2.65-7.103,4.78
		c-0.451,0.511-0.869,0.984-1.251,1.366c-3.149,3.15-6.189,4.79-9.129,6.376c-0.933,0.503-1.859,1.003-2.782,1.546L7.5,65.714V72.5
		H8c2.864,0,5.225,2.201,5.478,5H8c-3.033,0-5.5-2.467-5.5-5.5V60.137C3.293,58.809,8.512,49.541,8.512,38
		c0-6.341,5.159-11.5,11.5-11.5h18.207l2.223-2.223l6.038-16.101C47.677,4.993,50.985,2.5,54.012,2.5h4
		c5.241,0,7.461,5.054,8.653,7.77c2.247,5.119-0.57,11.683-2.938,13.319C62.349,24.529,61.5,27.957,61.5,30v12
		c0,6.701-4.037,12.383-9.6,13.51l-0.4,0.082V72.5H52c2.87,0,5.235,2.201,5.489,5H50.012z"/>
	<path style="fill:#A16A4A;" d="M58.012,3c4.916,0,7.049,4.861,8.195,7.473l0.032,0.072c2.082,4.741-0.605,11.118-2.79,12.629
		C61.718,24.353,61,28.202,61,30v12c0,6.464-3.869,11.94-9.199,13.02L51,55.182V56v16v1h1c2.42,0,4.446,1.721,4.911,4h-6.899
		c-2.296,0-3.938-0.877-5.03-5.243l-4-16L40.793,55h-0.781c-1.513,0-2.966-0.137-5.436-1.826C32.585,51.813,30.131,51,28.012,51
		c-3.108,0-5.634,2.861-7.479,4.95c-0.444,0.502-0.862,0.977-1.228,1.343c-3.098,3.098-6.105,4.721-9.013,6.29
		c-0.917,0.495-1.865,1.006-2.798,1.555L7,65.428V66v6v1h1c2.415,0,4.435,1.721,4.9,4H8c-2.757,0-5-2.243-5-5V60.268
		C4.065,58.438,9.012,49.276,9.012,38c0-6.065,4.935-11,11-11h16h2h0.414l0.293-0.293l1.439-1.439l0.561-0.561l0.153-0.153
		l0.076-0.203l6-15.999C48.058,5.401,51.227,3,54.012,3H58.012 M58.012,2h-4c-3.393,0-6.806,2.824-8,6l-6,16
		c-0.494,0.494-1.514,1.514-2,2c-0.471,0-1.529,0-2,0h-16c-6.627,0-12,5.373-12,12c0,11.75-5.605,21.457-6.012,22v12
		c0,3.3,2.7,6,6,6h6c0-3.3-2.7-6-6-6v-6c3.881-2.28,7.818-3.806,12.012-8c1.894-1.894,4.659-6,8-6c1.873,0,4.141,0.729,6,2
		c2.542,1.738,4.165,2,6,2l4,16c1.042,4.167,2.7,6,6,6h8c0-3.3-2.712-6-6.012-6V56c6.161-1.249,10-7.459,10-14V30
		c0-1.954,0.818-5.186,2.012-6c2.551-1.764,5.458-8.583,3.143-13.857C65.967,7.438,63.631,2,58.012,2L58.012,2z"/>
</g>
<g>
	<g>
		<path style="fill:#FFC49C;" d="M19.601,57.498c0.013-0.012,0.027-0.031,0.039-0.043c-0.015,0.015-0.032,0.035-0.047,0.05
			C19.596,57.503,19.598,57.501,19.601,57.498z"/>
		<path style="fill:#A16A4A;" d="M19.64,57.455c-0.002,0.002-0.004,0.004-0.006,0.006C19.636,57.459,19.638,57.457,19.64,57.455
			L19.64,57.455z M19.634,57.461c-0.013,0.014-0.028,0.031-0.041,0.044c0.003-0.003,0.005-0.004,0.007-0.007
			C19.611,57.488,19.623,57.473,19.634,57.461L19.634,57.461z"/>
	</g>
</g>
<g>
	<path style="fill:#805F51;" d="M55.985,31.5c-2.617,0-5.207-2.056-6.759-5.365c-1.613-3.44,0.043-12.7,2.382-16.381
		C52.115,8.957,52.622,8.5,53,8.5c2.201,0,4.229,5.118,5.859,9.23c0.576,1.454,1.12,2.827,1.66,3.979
		c1.907,4.066,0.985,7.627-2.405,9.293C57.442,31.333,56.726,31.5,55.985,31.5z"/>
	<path style="fill:#593F33;" d="M53.001,9c1.861,0.001,3.986,5.365,5.393,8.914c0.579,1.461,1.126,2.842,1.673,4.008
		c1.779,3.792,0.946,7.1-2.173,8.632C57.291,30.85,56.648,31,55.985,31c-2.421,0-4.837-1.945-6.306-5.077
		c-1.501-3.201,0.015-11.939,2.214-15.675C52.576,9.088,52.991,9.002,53.001,9 M53,8c-2.976,0-6.432,13.643-4.226,18.348
		C50.474,29.974,53.283,32,55.985,32c0.803,0,1.598-0.179,2.35-0.549c3.283-1.613,4.844-5.25,2.638-9.954S56.352,8,53,8L53,8z"/>
</g>
<path style="fill:#36404D;" d="M62,14h-2v-2c0-1.1,0.9-2,2-2h0c1.1,0,2,0.9,2,2v0C64,13.1,63.1,14,62,14z"/>
<g>
	<path style="fill:#805F51;" d="M37.906,55.296c-1.13-0.254-2.28-0.799-3.612-1.708c-1.912-1.307-4.26-2.087-6.282-2.087
		c-0.298,0-0.61,0.036-0.947,0.108L6.195,27.419l-0.199-0.252c-0.952-1.179-1.697-2.434-2.278-3.836C2.921,21.41,2.5,19.22,2.5,17
		c0-5.829,1.781-9.988,6.146-14.354C8.741,2.552,8.866,2.5,9,2.5s0.259,0.052,0.354,0.146C9.448,2.741,9.5,2.867,9.5,3
		S9.448,3.259,9.354,3.354C3.92,8.787,3.5,12.437,3.5,17c0,4.307,1.472,6.937,4.632,8.277c2.874,1.219,6.949,1.223,10.896,1.223
		c0.012,0,19.191,0,19.191,0l2.223-2.223L45.5,10.79V46C45.5,50.495,42.312,54.389,37.906,55.296z"/>
	<path style="fill:#593F33;" d="M9,3L9,3C8.893,3.107,8.788,3.213,8.685,3.319C8.788,3.212,8.893,3.106,9,3L9,3 M45,13.547V46
		c0,4.222-2.969,7.884-7.088,8.784c-1.034-0.25-2.1-0.765-3.335-1.609C32.585,51.813,30.131,51,28.012,51
		c-0.244,0-0.495,0.021-0.758,0.063L6.776,27.327c-0.035-0.04-0.071-0.08-0.106-0.121l-0.285-0.352
		c-0.921-1.139-1.643-2.354-2.205-3.714c-0.527-1.273-0.885-2.667-1.058-4.11C4.138,27,11.402,27,19.06,27l0.466,0L20,27h18.012
		h0.414l0.293-0.293l2-2l0.153-0.153l0.076-0.203L45,13.547 M9,2C8.744,2,8.488,2.098,8.293,2.293C3.98,6.605,2,10.844,2,17
		c0,2.39,0.47,4.626,1.256,6.522c0.671,1.621,1.498,2.903,2.352,3.959c-0.007-0.001-0.013-0.001-0.02-0.002l0.171,0.198
		c0.089,0.107,0.178,0.208,0.268,0.31l20.859,24.178C27.253,52.067,27.628,52,28.012,52c1.873,0,4.141,0.729,6,2
		c1.555,1.063,2.764,1.57,3.89,1.807C42.499,54.911,46,50.849,46,46V8.032L40.012,24l-2,2H20c-0.315,0-0.63,0-0.94,0
		C10.517,26,4,25.846,4,17c0-4.75,0.598-8.184,5.707-13.293c0.391-0.391,0.391-1.023,0-1.414C9.512,2.098,9.256,2,9,2L9,2z M20,26
		L20,26L20,26L20,26z M20,26c-0.004,0-1,0-1,0l0,0H20L20,26z"/>
</g>
<path style="fill:#36404D;" d="M75.01,11.901C75.009,11.935,75,11.966,75,12c0,1.539,1.162,2.792,2.654,2.965
	C77.876,13.987,78,12.989,78,12C77.211,12,76.165,11.973,75.01,11.901z"/>
</svg>