<svg xmlns="http://www.w3.org/2000/svg"  viewBox="0 0 80 80" width="80px" height="80px"><path fill="#fff299" d="M45.5,2h-11v3L27,8c-0.9,5.4,5.2,7.4,10.6,10.6l2.4,3.6l8.3-8.1c2.2-2.3,4.3-3.6,3.7-6.6L45.5,5V2z"/><path fill="#bc9d36" d="M51.5 8c-.1 0-.1 0-.2 0l-6-2.5C45.1 5.4 45 5.2 45 5V2.5C45 2.2 45.2 2 45.5 2S46 2.2 46 2.5v2.2L51.7 7c.3.1.4.4.3.7C51.9 7.9 51.7 8 51.5 8zM28.5 8c-.2 0-.4-.1-.5-.3-.1-.3 0-.5.3-.7L34 4.7V2.5C34 2.2 34.2 2 34.5 2S35 2.2 35 2.5V5c0 .2-.1.4-.3.5l-6 2.5C28.6 8 28.6 8 28.5 8z"/><path fill="#fff299" d="M21,50.6l5.5-8.1L20,29l0.8-2.7l6.3-9.1l-1.3-8.8c0,0-6.7,8.9-8,11.6c-1.4,2.7-4.2,8.4-4.2,8.4 L22,43c0,0-3,3-2.7,5.1C19.5,50.2,21,50.6,21,50.6z"/><path fill="#bc9d36" d="M20.8,51.7l-0.3-0.4c-1.1-1.8-1.6-2.6-1.6-4.8l0-0.1l0.1-0.1c0.8-1.5,1.9-2.7,2.4-3.2 C18.7,38.8,13,29.6,13,28.5C13,27.2,22.9,7.1,28.5,7L29,7l0,1l-0.5,0C23.8,8.1,14.4,26.8,14,28.6c0.2,0.9,5.3,9.3,8.5,14.3l0.2,0.4 l-0.3,0.3c0,0-1.5,1.3-2.4,3.1c0,1.8,0.5,2.6,1.4,4.1l0.3,0.4L20.8,51.7z"/><path fill="#bc9d36" d="M27,43.5c-0.2,0-0.4-0.1-0.4-0.3l-7.6-14.8l6.7-9.7c0.2-0.2,0.5-0.3,0.7-0.1 c0.2,0.2,0.3,0.5,0.1,0.7l-6.3,9.3l7.4,14.2c0.1,0.2,0,0.5-0.2,0.7C27.2,43.5,27.1,43.5,27,43.5z"/><path fill="#fff299" d="M59,50.6l-5.5-8.1L60,29l-0.8-2.7l-6.3-9.1l1.3-8.8c0,0,6.7,8.9,8,11.6c1.4,2.7,4.2,8.4,4.2,8.4 L58,43c0,0,3,3,2.7,5.1C60.5,50.2,59,50.6,59,50.6z"/><path fill="#bc9d36" d="M59.2,51.7l-0.9-0.5l0.3-0.4c1-1.6,1.4-2.3,1.4-4.1c-0.9-1.8-2.4-3.1-2.4-3.1l-0.3-0.3l0.2-0.4 c3.2-5.1,8.4-13.5,8.5-14.4C65.6,26.8,56.2,8.1,51.5,8L51,8l0-1l0.5,0C57.1,7.1,67,27.2,67,28.5c0,1.1-5.7,10.3-8.5,14.6 c0.5,0.5,1.7,1.7,2.4,3.2l0.1,0.1v0.1c0,2.1-0.5,3-1.6,4.8L59.2,51.7z"/><path fill="#bc9d36" d="M53 43.5c-.1 0-.2 0-.2-.1-.2-.1-.3-.4-.2-.7l7.4-14.2-6.3-9.3c-.2-.2-.1-.5.1-.7.2-.2.5-.1.7.1l6.7 9.7-7.6 14.8C53.4 43.4 53.2 43.5 53 43.5zM40 21.8L40 21.8c-.3 0-.5-.2-.5-.5 0-5.3 2.5-9.2 6-9.2 0 0 0 0 0 0 .3 0 .5.2.5.5S45.8 13 45.5 13c-2.9 0-5 3.5-5 8.3C40.5 21.5 40.3 21.8 40 21.8z"/><path fill="#bc9d36" d="M40,21.6c-0.3,0-0.5-0.2-0.5-0.5c0-4.6-2.2-8.1-5-8.1c-0.3,0-0.5-0.2-0.5-0.5s0.2-0.5,0.5-0.5 c0,0,0,0,0,0c3.5,0,6,3.8,6,9.1C40.5,21.4,40.3,21.6,40,21.6C40,21.6,40,21.6,40,21.6z"/><path fill="#c2afe3" d="M49,36c0-2,2.9-5.8,4-10c1.1-4,2-7,2-17c0-2-2-2-4-2c0,11-8,6-11,14c-3-8.1-11-3.1-11-14 c-2,0-4,0-4,2c0,10,0.9,13,2,17c1.1,4.2,6,8,4,10c-8.4,8.4-16,21.8-16,38c0,0,9,4.1,25,4c15.7-0.1,25-4,25-4 C65,57.3,56.2,45.4,49,36z"/><path fill="#c0e8ff" d="M48,35l1,2l-4.8,1l-5.3,0.5L31,37l1-2c0,0,2.4,1.2,4.8,1.5s5.4-0.2,7.4-0.5S48,35,48,35z"/><path fill="#8c73a2" d="M28,8c0.3,5.9,3.1,7.1,5.8,8.3c2.1,0.9,4.1,1.8,5.2,5c0.1,0.4,0.5,0.7,0.9,0.7c0,0,0,0,0,0 c0.4,0,0.8-0.3,0.9-0.6c1.2-3.1,3.1-4,5.2-4.9C48.9,15.2,51.7,14,52,8c1.7,0.1,2,0.3,2,1c0,9.6-0.8,12.6-1.9,16.5L52,25.7 c-0.5,1.9-1.5,3.8-2.3,5.5c-1,1.9-1.7,3.5-1.7,4.7c0,0.3,0.1,0.5,0.3,0.7C58.5,47,63.8,59.3,64,73.3C61.7,74.2,53.1,77,40,77 l-0.3,0c-13.1,0-21.5-2.8-23.7-3.7c0.3-19.7,12.1-33,15.7-36.6c1.4-1.4,0.1-3.5-1.3-6c-0.9-1.6-2-3.4-2.4-5l-0.1-0.5 C26.8,21.5,26,18.5,26,9C26,8.3,26.3,8.1,28,8 M51,7c0,11-8,6-11,14c-3-8.1-11-3.1-11-14c-2,0-4,0-4,2c0,10,0.9,13,2,17 c1.1,4.2,5.4,8.6,4,10c-8,8-16,21.8-16,38c0,0,8.9,4,24.7,4c0.1,0,0.2,0,0.3,0c15.7-0.1,25-4,25-4c0-16.7-7-29-16-38 c0-2,2.9-5.8,4-10c1.1-4,2-7,2-17C55,7,53,7,51,7L51,7z"/><path fill="#8c73a2" d="M40.4,37c-0.1,0-0.3,0-0.4,0c-6.5-0.1-8.2-1.6-8.3-1.6c-0.2-0.2-0.2-0.5-0.1-0.7 c0.2-0.2,0.5-0.2,0.7-0.1c0,0,1.7,1.3,7.7,1.4c5.9,0.1,7.6-1.4,7.7-1.4c0.2-0.2,0.5-0.2,0.7,0c0.2,0.2,0.2,0.5,0,0.7 C48.3,35.4,46.5,37,40.4,37z"/><path fill="#8c73a2" d="M40.4,39c-0.1,0-0.3,0-0.4,0c-6.4-0.1-9.1-1.5-9.2-1.6c-0.2-0.1-0.3-0.4-0.2-0.7 c0.1-0.2,0.4-0.3,0.7-0.2c0,0,2.7,1.4,8.8,1.4c6,0.1,8.7-1.4,8.7-1.4c0.2-0.1,0.5-0.1,0.7,0.2c0.1,0.2,0.1,0.5-0.2,0.7 C49.1,37.5,46.5,39,40.4,39z"/><path fill="#fff299" d="M39.9,36L39.9,36l-0.1,0l-0.1,0l-0.1,0l-0.1,0l-0.1,0l-0.1,0l-0.1,0l-0.1,0l-0.1,0l0,0l0,0l0,0l0,0 l0,0l0,0l0,0l0,0l0,0l0,0l0,0l0,0l0,0l0,0l0,0l0,0l0,0l0,0l0,0l0,0l0,0l0,0l0,0l0,0l0,0l0,0l0,0l0,0l0,0l0,0l0,0l0,0l0,0l0,0l0,0 l0,0l0,0l0,0l0,0l0,0l0,0l0,0l0,0l0,0l0,0l0,0l0,0l0,0l0,0l0,0l0,0l0,0v0v0l0,0l0,0l0,0l0,0l0,0l0,0l0,0l0,0l0,0l0,0l0,0l0,0l0,0 l0,0l0,0l0,0l0,0l0,0l0,0l0,0l0,0l0,0l0,0l0,0l0,0l0,0l0,0l0,0l0,0l0,0l0,0l0,0l0,0l0,0l0,0l0,0l0,0l0,0l0,0l0,0l0,0l0,0l0,0l0,0 l0,0l0,0l0,0l0,0l0,0l0,0l0,0l0,0l0.1,0l0.1,0l0.1,0l0.1,0l0.1,0l0.1,0l0.1,0l0.1,0l0.1,0l0.1,0l0.1,0h0.1l0.1,0l0.1,0l0.1,0l0.1,0 l0.1,0l0.1,0l0.1,0l0.1,0l0.1,0l0.1,0l0,0l0,0l0,0l0,0l0,0l0,0l0,0l0,0l0,0l0,0l0,0l0,0l0,0l0,0l0,0l0,0l0,0l0,0l0,0l0,0l0,0l0,0 l0,0l0,0l0,0l0,0l0,0l0,0l0,0l0,0l0,0l0,0l0,0l0,0l0,0l0,0l0,0l0,0l0,0l0,0l0,0l0,0l0,0l0,0l0,0l0,0l0,0l0,0l0,0l0,0l0,0l0,0l0,0 l0,0l0,0l0,0l0,0l0,0l0,0l0,0l0,0l0,0l0,0l0,0l0,0l0,0l0,0l0,0l0,0l0,0l0,0l0,0l0,0l0,0l0,0l0,0l0,0l0,0l0,0l0,0l0,0l0,0l0,0l0,0 l0,0l0,0l0,0l0,0l0,0l0,0l0,0l0,0l0,0l0,0l0,0l0,0l0,0l0,0l0,0l0,0l0,0l0,0l0,0l0,0l0,0l0,0l-0.1,0l-0.1,0l-0.1,0l-0.1,0l-0.1,0 l-0.1,0l-0.1,0l-0.1,0l-0.1,0l-0.1,0L39.9,36L39.9,36z M40.1,35L40.1,35l0.2,0l0.1,0l0.1,0l0.1,0l0.1,0l0.1,0l0.1,0l0.1,0l0.1,0 l0.1,0l0.1,0l0.1,0l0.1,0l0.1,0l0.1,0l0.1,0l0.1,0l0.1,0l0.1,0l0.1,0l0.1,0l0.1,0l0.1,0l0.1,0l0.1,0l0.1,0l0.1,0l0.1,0l0.1,0l0.1,0 l0,0l0,0l0,0l0,0l0,0l0,0l0,0l0,0l0,0l0,0.1l0,0.1l0,0.1l0,0.1l0,0.1l0,0.1l0,0.1l0,0.1l0,0.1l0,0.1l0,0.1l0,0.1l0,0.1l0,0.1l0,0.1 l0,0.1l0,0.1l0,0.1l0,0.1l0,0.1l0,0.1l0,0.1l0,0.1l0,0.1l0,0.1l0,0.1l0,0.1l0,0.1l0,0.1l0,0.1l0,0.1l0,0.1l0,0.1l0,0.1l0,0.1l0,0.1 l0,0.1l0,0.1l0,0.1l0,0.1l0,0.1l0,0.1l0,0.1l0,0.1l0,0.1l0,0.1l0,0l0,0l0,0l0,0l0,0l0,0l0,0l0,0l0,0l-0.1,0l-0.1,0l-0.1,0l-0.1,0 l-0.1,0l-0.1,0l-0.1,0l-0.1,0l-0.1,0l-0.1,0l-0.1,0l-0.1,0l-0.1,0l-0.1,0l-0.1,0l-0.1,0l-0.1,0l-0.1,0l-0.1,0l-0.1,0l-0.1,0l-0.1,0 l-0.1,0l-0.1,0l-0.1,0l-0.1,0l-0.1,0l-0.1,0l-0.1,0l-0.1,0l-0.1,0L40,40l-0.1,0l-0.1,0l-0.1,0l-0.1,0l-0.1,0l-0.1,0l-0.1,0l-0.1,0 l-0.1,0l-0.1,0l-0.1,0l-0.1,0l-0.1,0l-0.1,0l-0.1,0l-0.1,0l-0.1,0l-0.1,0l-0.1,0l-0.1,0l-0.1,0l-0.1,0l-0.1,0l-0.1,0l-0.1,0l-0.1,0 l-0.1,0l-0.1,0l-0.1,0l-0.1,0l-0.1,0l-0.1,0l0,0l0,0l0,0l0,0l0,0l0,0l0,0l0,0l0,0l0-0.1l0-0.1l0-0.1l0-0.1l0-0.1l0-0.1l0-0.1l0-0.1 l0-0.1l0-0.1l0-0.1l0-0.1l0-0.1l0-0.1l0-0.1l0-0.1l0-0.1l0-0.1l0-0.1l0-0.1l0-0.1l0-0.1l0-0.1l0-0.1l0-0.1l0-0.1l0-0.1l0-0.1l0-0.1 l0-0.1l0-0.1l0-0.1l0-0.1l0-0.1l0-0.1l0-0.1l0-0.1l0-0.1l0-0.1l0-0.1l0-0.1l0-0.1l0-0.1l0-0.1l0-0.1l0-0.1l0,0l0,0l0,0l0,0l0,0l0,0 l0,0l0,0l0,0l0.1,0l0.1,0l0.1,0l0.1,0l0.1,0l0.1,0l0.1,0l0.1,0l0.1,0l0.1,0l0.1,0l0.1,0l0.1,0l0.1,0l0.1,0l0.1,0l0.1,0l0.1,0l0.1,0 l0.1,0l0.1,0l0.1,0l0.1,0l0.1,0l0.1,0l0.1,0l0.1,0l0.1,0l0.1,0l0.1,0l0.1,0L40.1,35L40.1,35z"/></svg>