<svg xmlns="http://www.w3.org/2000/svg"  viewBox="0 0 512 512" width="100px" height="100px"><path fill="#ccd3df" d="M192.3,158l0.1,254c0,27.3,6.1,54.3,17.8,79l1.9,4.1H241c15-27.3,22.9-58,22.9-89.2V158H192.3z"/><path fill="#72bcef" d="M349.2,312.6l-58-81.3L236,308.5c-3.9,5.5-6.9,11.5-8.7,18c-1.3,4.9-2,10-2,15.1c0,24.6,15.6,47.9,38.6,58.5	c8.5,3.9,17.8,6,27.3,6C339.3,406.1,373.4,354,349.2,312.6z"/><path fill="#b8c0cc" d="M240.2,490.9c-11.7-24.7-17.8-51.7-17.8-79l-0.1-254h-30l0.1,254c0,27.3,6.1,54.3,17.8,79l1.9,4.1H241	c0.2-0.4,0.4-0.7,0.6-1.1L240.2,490.9z"/><path fill="#66acd3" d="M255.4,341.6c0-7.1,1.3-14.1,3.8-20.6c1.6-4.3,3.9-8.3,6.5-12l40.5-56.7l-15-21L236,308.5	c-3.9,5.5-6.9,11.5-8.7,18c-1.3,4.9-2,10-2,15.1c0,24.6,15.6,47.9,38.6,58.5c13.2,6.1,28.1,7.6,42.3,4.2c-4.2-1-8.4-2.4-12.3-4.2	C271,389.5,255.4,366.2,255.4,341.6z"/><path fill="#f4f8fc" d="M212.2,297c-3.3,0-6-2.7-6-6v-69.7c0-3.3,2.7-6,6-6s6,2.7,6,6V291C218.2,294.4,215.5,297,212.2,297z"/><path fill="#f4f8fc" d="M212.2,206.8c-3.3,0-6-2.7-6-6v-5.4c0-3.3,2.7-6,6-6s6,2.7,6,6v5.4C218.2,204.1,215.5,206.8,212.2,206.8z"/><path fill="#8787ad" d="M228.6,17c-20.2-0.1-36.7,16.2-36.9,36.4c0,0.1,0,0.3,0,0.4L192,103h73V53.9C265.2,33.7,248.8,17.2,228.6,17z"/><path fill="#6e6e8e" d="M243.3,20.2c-18.4-8.3-40.1-0.1-48.3,18.4c-2.2,4.8-3.3,10-3.2,15.3L192,103h30l-0.3-49.2	C221.7,39.4,230.1,26.2,243.3,20.2z"/><path fill="#636384" d="M286.5,101.3H170.3l0,0c-8.5,0-15.5,6.9-15.5,15.5v42.9H302v-42.9l0,0C301.9,108.3,295,101.3,286.5,101.3z"/><rect width="30" height="58.4" x="243" y="101.3" fill="#555570"/><rect width="30" height="58.4" x="184" y="101.3" fill="#555570"/></svg>