<svg xmlns="http://www.w3.org/2000/svg"  viewBox="0 0 50 50" width="100px" height="100px" baseProfile="basic"><polygon fill="#61d6f2" points="9.001,20.382 4,23.268 4.001,25.578 10.98,29.607 11,35.393 25.001,43.476 39,35.393 39,29.618 45.999,25.578 46,23.268 41,20.382 45.999,17.495 46,15.185 32,7.102 25.001,11.144 17.999,7.101 3.999,15.184 4,17.494"/><polygon fill="#52b4cc" points="39,19.227 25.001,11.144 11.001,19.226 25.001,27.31"/><polygon fill="#4da9bf" points="25.001,11.144 11.001,19.226 25.001,27.31"/><polygon fill="#479db3" points="25.001,27.31 25.001,43.476 39,35.393 39,19.227"/><polygon fill="#5ccae6" points="11.001,19.226 4,23.268 18,31.351 25.001,27.31"/><polygon fill="#5ccae6" points="39,19.226 46,23.268 32,31.351 25.001,27.31"/><polygon fill="#5ccae6" points="39,19.227 46,15.185 32,7.102 25.001,11.144"/><polygon fill="#5ccae6" points="11.001,19.227 3.999,15.184 17.999,7.101 25.001,11.144"/><polygon fill="#479db3" points="46,15.185 45.999,17.495 41,20.382 39,19.227"/><polygon fill="#4da9bf" points="46,23.268 45.999,25.578 31.999,33.66 32,31.351"/><polygon fill="#66e1ff" points="3.999,15.184 4,17.494 9.001,20.382 11.001,19.227"/><polygon fill="#66e1ff" points="4,23.268 4.001,25.578 18.001,33.66 18,31.351"/><polygon fill="#479db3" points="25.001,27.31 24.999,29.62 18,33.66 17.999,31.352"/><polygon fill="#66e1ff" points="25.001,27.31 25.002,29.62 32,33.66 32.001,31.352"/></svg>