<svg xmlns="http://www.w3.org/2000/svg"  viewBox="0 0 24 24" width="100px" height="100px"><path fill="#136DA9" d="M8.442,3.826c-4.199,1.784-6.841,5.281-6.841,9.775C1.601,19.344,6.257,24,12,24 c5.743,0,10.399-4.656,10.399-10.399c0-6.905-6.416-9.65-6.416-9.65s-1.401-0.582-2.185-1.104c0,0-0.99-0.605-2.715-2.832 C11.083,0.014,11.122,2.544,8.442,3.826L8.442,3.826z"/><path fill="#008ECE" d="M2.962,18.83c0,0,3.729,3.085,12.803-3.788c0,0,4.558-2.861,4.42-7.767c0,0-1.475-2.12-3.963-3.213 c-0.354-0.156-3.464-1.852-5.143-3.98c0,0-0.304,6.173-8.211,8.61c0,0-1.992,2.939-0.906,7.714 C1.961,16.407,2.656,18.343,2.962,18.83L2.962,18.83z"/><path fill="#FFFDFF" d="M21.004,13.024c-0.432-0.36-0.888-0.393-1.08-0.394l-0.066,0.002l-0.002,0l-0.02-0.001 c-0.327,0.007-0.604,0.121-0.916,0.259c-0.85,0.393-1.832,1.088-1.968,1.184c-0.774,0.451-1.143,0.453-1.147,0.453l-0.004,0 l-0.009,0h-0.027l0,0c-0.048,0.002-0.186-0.026-0.338-0.086c-0.231-0.089-0.502-0.238-0.706-0.364 c-0.102-0.063-0.189-0.119-0.249-0.16l-0.09-0.062c-1.696-1.208-2.642-1.418-2.716-1.433l-0.007-0.002l-0.004-0.001 c-0.429-0.076-0.827-0.111-1.195-0.111c-1.661-0.008-2.722,0.739-3.29,1.488c-0.574,0.747-0.709,1.465-0.719,1.511l-0.003,0.017 L6.445,15.34c-0.022,0.181-0.033,0.354-0.033,0.518c-0.002,0.65,0.171,1.19,0.451,1.599c0.422,0.617,1.035,0.913,1.538,1.061 c0.507,0.148,0.925,0.156,1.043,0.157h0.019v0c0.076,0.008,0.152,0.015,0.23,0.015c0.82-0.008,1.741-0.364,2.508-0.702 c0.76-0.341,1.34-0.677,1.349-0.683l0.008-0.005l0.003-0.002c0.747-0.46,1.202-0.693,1.457-0.806 c0.127-0.057,0.203-0.083,0.238-0.094l0.012-0.004l0.029-0.003l0.053-0.018c0.16-0.054,0.301-0.069,0.415-0.07 c0.093,0,0.167,0.011,0.213,0.02l0.047,0.011l0.003,0.001c0.092,0.029,0.307,0.156,0.53,0.327c0.34,0.257,0.727,0.61,1.022,0.895 c0.148,0.143,0.274,0.269,0.362,0.359l0.138,0.142l0.004,0.004l0.01,0.01c0.416,0.411,0.878,0.521,1.168,0.517 c0.177,0,0.294-0.033,0.33-0.045l0.019-0.006l0.02-0.008c1.059-0.436,1.6-1.308,1.854-2.034c0.247-0.7,0.262-1.282,0.264-1.416 l0.001-0.015v-0.018C21.756,14.048,21.44,13.385,21.004,13.024z"/><path fill="#008ECE" d="M10.513,8.139C12.515,5.27,11.078,0,11.078,0c-0.177,2.86-2.589,3.803-2.589,3.803 C4.169,5.668,2.867,8.61,2.867,8.61C3.793,9.923,6.25,14.243,10.513,8.139L10.513,8.139z"/><path fill="#A0D8F1" d="M11.078,0c0,0,0.259,2.406-1.047,3.19c0,0-2.095,0.975-2.734,1.295c0,0-2.69,1.623-3.577,3.149 c0,0-1.897,2.539,0.722,1.939c0,0,4.736-1.337,6.661-5.372c0,0,0.113-0.34-0.248-0.691C10.856,3.509,12.3,2.42,11.078,0L11.078,0z"/><path fill="#F0F0F0" d="M11.078,0c0,0,0.108,1.643-1.256,3.004c0,0-0.41,0.577-2.525,1.48c0,0-2.422,1.263-3.507,3.014 c0,0-1.609,1.941,0.597,1.42c0,0,4.47-1.647,6.108-4.673c0,0,0.222-0.318-0.116-0.645C10.38,3.6,11.984,2.348,11.078,0L11.078,0z"/><path d="M12.091,24C6.251,24,1.5,19.385,1.5,13.713c0-6.459,5.468-9.484,5.523-9.513C7.23,4.09,7.432,3.988,7.626,3.889 C8.275,3.558,8.837,3.273,9.62,2.653c0.342-0.268,0.714-0.661,0.835-1.972c0.028-0.301,0.234-0.556,0.523-0.646 c0.286-0.089,0.604,0.001,0.798,0.233c0.467,0.555,1.559,1.855,2.206,2.291c0.496,0.324,1.012,0.556,1.558,0.801 c0.548,0.246,1.114,0.5,1.705,0.87c0.27,0.166,5.255,3.315,5.255,9.661C22.5,19.653,18.025,24,12.091,24z M11.619,2.376 c-0.231,0.605-0.579,1.07-1.071,1.455C9.65,4.542,8.997,4.874,8.307,5.226C8.12,5.32,7.928,5.418,7.723,5.528 C7.668,5.556,3,8.23,3,13.713c0,4.845,4.078,8.787,9.091,8.787C17.17,22.5,21,18.798,21,13.89c0-5.551-4.354-8.27-4.54-8.383 c-0.002-0.001-0.005-0.002-0.007-0.004c-0.506-0.316-1.002-0.539-1.528-0.775c-0.574-0.258-1.168-0.525-1.771-0.918 C12.696,3.501,12.167,2.979,11.619,2.376z"/><path d="M9.41,19.004c-0.715,0-1.433-0.175-2.126-0.617c-1.096-0.708-1.541-2.055-1.139-3.434c0.427-1.461,1.876-2.94,4.151-2.953 c1.675,0.013,3.006,0.864,4.067,1.571c0.521,0.348,1.108,0.749,1.396,0.736c0.333-0.004,1.168-0.541,1.721-0.896 c0.912-0.586,1.7-1.092,2.42-1.092c0.779,0,1.408,0.367,1.769,1.032c0.646,1.19,0.261,3.088-0.485,4.236 c-0.573,0.884-1.349,1.337-2.134,1.272c-0.629-0.043-1.189-0.585-1.898-1.27c-0.379-0.367-1.086-1.05-1.355-1.084 c-0.307,0.018-1.147,0.464-1.818,0.844C12.682,18.082,11.052,19.004,9.41,19.004z M10.337,13.5c-0.01,0-0.02,0-0.029,0 c-1.608,0.009-2.472,1.015-2.722,1.874c-0.169,0.578-0.124,1.342,0.509,1.751c1.521,0.97,3.53-0.168,5.145-1.082 c0.436-0.247,0.833-0.472,1.202-0.648c-0.293-0.164-0.593-0.364-0.909-0.575C12.604,14.201,11.553,13.5,10.337,13.5z M19.206,17.371L19.206,17.371L19.206,17.371C19.207,17.371,19.206,17.371,19.206,17.371z M16.987,15.452 c0.401,0.281,0.798,0.664,1.205,1.058c0.319,0.309,0.798,0.77,0.998,0.855c0.22-0.001,0.493-0.221,0.735-0.595 c0.54-0.83,0.742-2.119,0.425-2.703c-0.08-0.148-0.188-0.248-0.45-0.248c-0.279,0-1.111,0.535-1.609,0.854 C17.842,14.961,17.406,15.242,16.987,15.452z"/><path d="M13.404,20c-0.179,0-0.357-0.063-0.5-0.191c-0.309-0.276-0.335-0.75-0.059-1.059c0.125-0.14,1.265-1.365,2.779-1.365 c1.367,0,2.064,0.837,2.262,1.332c0.152,0.385-0.035,0.821-0.42,0.974c-0.383,0.152-0.82-0.034-0.975-0.419 c-0.023-0.047-0.22-0.387-0.867-0.387c-0.725,0-1.461,0.641-1.662,0.865C13.815,19.916,13.61,20,13.404,20z"/><path d="M14.007,22.519c-1.566,0-2.788-0.638-3.382-1.168c-0.31-0.276-0.336-0.75-0.061-1.059 c0.275-0.308,0.747-0.335,1.056-0.063c0.093,0.081,2.079,1.744,4.984,0.017c0.356-0.212,0.816-0.094,1.027,0.262 c0.212,0.356,0.095,0.816-0.262,1.028C16.157,22.256,15.011,22.519,14.007,22.519z"/></svg>