<svg xmlns="http://www.w3.org/2000/svg"  viewBox="0 0 48 48" width="144px" height="144px"><path fill="#6d4c41" d="M42.658,31.038c-0.499,0.44-1.08,0.803-1.722,1.064c-0.746,0.305-1.57,0.479-2.439,0.479	c-0.196,0-0.391-0.01-0.582-0.027c-0.313-0.027-0.618-0.085-0.915-0.156V39c0,0,5.001,0,5.896-5.669	C43.025,32.517,42.981,31.733,42.658,31.038z"/><path fill="#bcaaa4" d="M19.001,11c6.175-0.146,14.378-5.776,14.466-5.813c1.279-0.521,2.737,0.092,3.261,1.369	c0.521,1.279-0.095,2.738-1.37,3.26c-0.396,0.164-9.052,4.813-16.896,4.146C17.086,13.844,15,11,15,11S18.6,11.01,19.001,11z"/><path fill="#d7ccc8" d="M14,31.002C17.22,36.152,22.925,41,29,41s11-4.925,11-11s-4.925-11-11-11	c-0.699,0-4.158,0.002-6,0.002c-0.918,0-2-1-2-2.002C6.333,16.752,10,24.002,14,31.002z"/><path fill="#a1887f" d="M24,32.5C24,41,34,39,37,39c0,0,0-1,0-6.5c0-3.59-2.91-6.5-6.5-6.5S24,28.91,24,32.5z"/><path fill="#a1887f" d="M20,42v-1c0-1.104,0.896-2,2-2h13c1.104,0,2-5,2-3v6H20z"/><path fill="#8d6e63" d="M19.417,12.285c6.135,0.724,15.329-3.754,15.422-3.779c1.33-0.365,2.706,0.416,3.072,1.749	c0.365,1.331-0.422,2.706-1.75,3.073c-0.414,0.114-9.669,4.139-17.27,2.093c-2.849-0.768-2.382-1.354-2.249-2.729	C16.737,11.717,17.001,12,19.417,12.285z"/><path fill="#8d6e63" d="M5,20c0,3.313,6.687,3,10,3s6-2.687,6-6s-2.687-6-6-6S5,14,5,20z"/><path fill="#4e342e" d="M9,17c0,0,1.594,0,2.422,0c2,0,2.578-3,2.578-3s-1.625,0-2.453,0C9.547,14,9,17,9,17z"/><path d="M11.5,14c-0.828,0-1.5,0.672-1.5,1.5c0,0.828,0.672,1.5,1.5,1.5s1.5-0.672,1.5-1.5C13,14.672,12.328,14,11.5,14z"/><path fill="#a1887f" d="M13.388,41.997L9,42v-0.017c0-1.65,1.332-2.99,2.982-3l0.018,0l3.79-6.616	c0.134-0.234,0.168-0.512,0.094-0.772l-0.662-2.318c-0.567-1.986,1.128-3.885,3.165-3.545h0c0.997,0.166,1.828,0.855,2.177,1.804	l0.729,1.985c0.443,1.556,0.107,3.23-0.904,4.494c0,0-6.003,7.503-6.003,7.503C14.144,41.82,13.776,41.997,13.388,41.997z"/></svg>