<svg xmlns="http://www.w3.org/2000/svg"  viewBox="0 0 48 48" width="144px" height="144px"><path fill="#00BCD4" d="M38.348 19C35.735 11.456 30.294 4 24 4S12.265 11.456 9.652 19H38.348zM9.24 34c2.418 5.873 8.114 10 14.76 10s12.342-4.127 14.76-10H9.24z"/><path fill="#FF4081" d="M38.74,34c0.804-1.938,1.26-4.061,1.26-6.296c0-2.592-0.604-5.655-1.66-8.704H9.66C8.603,22.049,8,25.112,8,27.704C8,29.939,8.457,32.063,9.259,34H38.74z"/><path fill="#FFF" d="M18 22A1 1 0 1 0 18 24 1 1 0 1 0 18 22zM12 29A1 1 0 1 0 12 31 1 1 0 1 0 12 29zM24 29A1 1 0 1 0 24 31 1 1 0 1 0 24 29zM36 29A1 1 0 1 0 36 31 1 1 0 1 0 36 29zM30 22A1 1 0 1 0 30 24 1 1 0 1 0 30 22z"/><path fill="#FCE4EC" d="M30,28.464l-6-7l-6,7l-6-7l-3.924,4.577C8.027,26.613,8,27.169,8,27.704c0,0.478,0.03,0.948,0.07,1.417L12,24.536l6,7l6-7l6,7l5.948-6.938l3.904,5.205C39.939,29.114,40,28.417,40,27.704c0-0.353-0.015-0.717-0.036-1.086l-3.912-5.216L30,28.464z"/><g><path fill="#E0F7FA" d="M11.316 15c-.638 1.303-1.196 2.649-1.664 4h28.695c-.468-1.351-1.026-2.697-1.664-4H11.316zM36.397 38c.964-1.203 1.765-2.547 2.362-4H9.24c.598 1.453 1.398 2.797 2.362 4H36.397z"/></g></svg>