<svg xmlns="http://www.w3.org/2000/svg"  viewBox="0 0 48 48" width="144px" height="144px"><path fill="#ffcc80" d="M11 27l-1-1c0 0-.5-.625-1.125-1C5.04 22.699 5 24 2 21c0 8 3 13 8.059 13H11V27zM39.125 25C38.5 25.375 38 26 38 26l-1 1v7h.941C43 34 46 29 46 21 43 24 42.96 22.699 39.125 25z"/><path fill="#dd2c00" d="M24,3c13,0,14,12,20,14l-1,1.625c0,0-7-1.5-9-5.5L24,3z"/><path fill="#ff3d00" d="M38,24c0-12-8-21-14-21s-14,9-14,21v2h28V24z"/><path fill="#ffe0b2" d="M24,19c-10,0-14,5-14,5c0,0.538,0,1.191,0,2c0,3,0,4,0,7c0,9,14,12,14,12s14-3,14-12c0-3,0-4,0-7 c0-0.485,0-1.26,0-2C38,24,34,19,24,19z"/><path fill="#ffb74d" d="M4 25c1.76 1.76 4.5 4 6 4v2c-.337 0-1.008-.405-1.008-.405C8.878 30.797 8.51 31 8.25 31 6.875 31 7 29.024 7 29.024S4.859 27.141 4 25zM44 25c-1.76 1.76-4.5 4-6 4v2c.337 0 1.008-.405 1.008-.405C39.122 30.797 39.49 31 39.75 31c1.375 0 1.25-1.976 1.25-1.976S43.141 27.141 44 25z"/><path fill="#784719" d="M29.5 29A1.5 1.5 0 1 0 29.5 32 1.5 1.5 0 1 0 29.5 29zM18.5 29A1.5 1.5 0 1 0 18.5 32 1.5 1.5 0 1 0 18.5 29z"/><path fill="#ffab91" d="M19,37h10c0,0-2,3-5,3S19,37,19,37z"/><path fill="#ff6d00" d="M10,26c0,3,2,5,2,5s0-3,3-6c1,2,1,3,1,3s6-3,6-6c0,0,2,3,2,6c2,0,4-5,4-5s7,2,8,9c0,0,2-2,2-6v-2 c0,0-4-5-14-5s-14,5-14,5V26z"/><path fill="#4caf50" d="M10,26c0,0,2-6,14-6s14,6,14,6l3-5h-5l-1-5l-4,2l-3-5l-4,4l-4-4l-3,5l-4-2l-1,5H7L10,26z"/><path fill="#2e7d32" d="M43.5 15A2.5 2.5 0 1 0 43.5 20A2.5 2.5 0 1 0 43.5 15Z"/></svg>