<?xml version="1.0" encoding="utf-8"?>
<!-- Generator: Adobe Illustrator 18.0.0, SVG Export Plug-In . SVG Version: 6.00 Build 0)  -->
<!DOCTYPE svg PUBLIC "-//W3C//DTD SVG 1.1//EN" "http://www.w3.org/Graphics/SVG/1.1/DTD/svg11.dtd">
<svg version="1.1" id="Icons" xmlns="http://www.w3.org/2000/svg" xmlns:xlink="http://www.w3.org/1999/xlink" x="0px" y="0px"
	 viewBox="0 0 60 60" enable-background="new 0 0 60 60" xml:space="preserve">
<path fill="#333333" d="M53,6H7c-3.85986,0-7,3.14014-7,7v34c0,3.85986,3.14014,7,7,7h46c3.85986,0,7-3.14014,7-7V13
	C60,9.14014,56.85986,6,53,6z M58,47c0,2.75684-2.24316,5-5,5H7c-2.75684,0-5-2.24316-5-5V13c0-2.75684,2.24316-5,5-5h46
	c2.75684,0,5,2.24316,5,5V47z"/>
<path fill="#333333" d="M37.34717,16.06201c-0.39307-0.14697-0.83398-0.03125-1.10645,0.28711l-6,7
	c-0.35938,0.41943-0.31104,1.05078,0.1084,1.41016c0.41992,0.35938,1.05078,0.31104,1.41016-0.1084L36,19.70313V43
	c0,0.55225,0.44775,1,1,1s1-0.44775,1-1V17C38,16.58154,37.73926,16.20752,37.34717,16.06201z"/>
<path fill="#333333" d="M48.34717,16.06201c-0.39307-0.14697-0.83447-0.03125-1.10645,0.28711l-6,7
	c-0.35938,0.41943-0.31104,1.05078,0.1084,1.41016s1.05127,0.31104,1.41016-0.1084L47,19.70313V43c0,0.55225,0.44775,1,1,1
	s1-0.44775,1-1V17C49,16.58154,48.73926,16.20752,48.34717,16.06201z"/>
<path fill="#333333" d="M23,16H13c-2.20557,0-4,1.79443-4,4v7c0,2.20557,1.79443,4,4,4h12v9c0,1.10303-0.89697,2-2,2H13
	c-1.10303,0-2-0.89697-2-2v-1c0-0.55225-0.44775-1-1-1s-1,0.44775-1,1v1c0,2.20557,1.79443,4,4,4h10c2.20557,0,4-1.79443,4-4V20
	C27,17.79443,25.20557,16,23,16z M25,29H13c-1.10303,0-2-0.89697-2-2v-7c0-1.10303,0.89697-2,2-2h10c1.10303,0,2,0.89697,2,2V29z"/>
</svg>