<svg xmlns="http://www.w3.org/2000/svg"  viewBox="0 0 48 48" width="100px" height="100px"><path fill="#607D8B" d="M31.409,31.767l13.006-13.008c0.78-0.778,0.78-2.044,0-2.823L32.065,3.585c-0.78-0.779-2.045-0.779-2.826,0L16.234,16.591L31.409,31.767z"/><path fill="#546E7A" d="M41.5,21.676l2.915-2.917c0.78-0.778,0.78-2.044,0-2.823L32.065,3.585c-0.78-0.779-2.045-0.779-2.826,0L26.325,6.5L41.5,21.676z"/><path fill="#CFD8DC" d="M16.59,16.235L3.585,29.24c-0.779,0.781-0.779,2.045,0,2.824l12.35,12.351c0.78,0.78,2.045,0.78,2.826,0l13.005-13.006L16.59,16.235z"/></svg>