<svg xmlns="http://www.w3.org/2000/svg" viewBox="0 0 48 48" width="40px" height="40px">
  <path fill="#d6e5e5" d="M20.6,43.4c-2.9,0-5.9,0.4-8.8-0.3c-2.6-0.6-5-2-6.2-4.4c-1-2.1-0.7-4.7-0.6-7.1c0.3-5.1,0-10.2-0.2-15.3 c-0.1-2.7-0.1-5.5,1.5-7.7c1.1-1.5,2.8-2.4,4.6-2.9s3.7-0.5,5.5-0.6c5.3-0.1,10.7-0.2,16-0.3c2,0,4.1-0.1,5.9,0.7 c2.6,1.1,4.3,3.7,5,6.5c0.7,2.7,0.6,5.6,0.5,8.4c-0.2,5.3-0.5,10.6-1.2,15.9c-0.3,2.2-0.9,4.7-3.1,5.7c-1.2,0.6-2.7,0.6-4,0.7 C30.6,42.9,25.6,43.8,20.6,43.4z" />
  <path fill="#ed2224" d="M38.6,17.6c-7,0-14,0.1-20.9,0.2c-1.2,0-2.5,0-3.7,0c-0.1,0-0.3,0-0.3-0.2c0.1-1.3,0.5-2.6,0.6-3.9 c0-0.2,0.1-2.3,0.4-2.3c0.8-0.1,1.5-0.3,2.3-0.3c0.9-0.1,1.8-0.1,2.6-0.1c1.8-0.1,3.5-0.1,5.3-0.2c3.5-0.1,7.1-0.1,10.6-0.1 c1.1,0,2.2,0,3.3,0c0.5,0.6,0.4,1.5,0.4,2.3c0,1.3-0.1,2.6-0.3,3.9C38.7,17.3,38.6,17.6,38.6,17.6z" />
  <path fill="#ed2224" d="M36.2,37.6c-7,0-14,0-21,0c-0.8,0-1.6,0-2.4,0.1c-0.3,0-0.6,0.1-0.9,0.1c-0.3,0.1-0.5,0.1-0.8,0.1l0.1-0.5 c0.1-0.1,0-0.2,0-0.3c0-2.1,0.5-4.4,0.9-6.5c0.3-1.5,0.7-3,1-4.6c0.3-1.5,0.2-3,0.1-4.5c0.5-0.6,1.6-0.4,2.3-0.4 c1.1,0.1,2.1,0.1,3.2,0.1c1.8,0,3.5,0,5.3-0.1c4.4,0,8.8,0,13.2-0.1c0.2,0.4,0.1,0.9,0,1.3C37.1,22.9,37,23.5,37,24 c0,0.8,0,1.5,0,2.2c0,0.5,0.2,1.3-0.1,1.8v0.1c0,0.1-1.3,0.1-1.5,0.1c-1.7,0.2-3.4,0.1-5.1,0.1c-1.8,0-3.5,0.1-5.3,0.1 c-1.1,0-2.2,0-3.3,0c-0.1,0-0.4-0.1-0.5,0c-0.2,0.2-0.1,0.6-0.1,0.8c0,0.3-0.4,1.9,0,2c0.4,0,0.8,0,1.2,0c0.9,0,1.7,0,2.6,0 c1.7,0,3.4,0,5.1-0.1c1.8-0.1,3.5-0.2,5.3-0.1c0.3,0,0.6,0,1,0c0.2,0,0,3.5,0,3.7C36.3,35.6,36.2,36.6,36.2,37.6z" />
  <path fill="#010101" d="M15.9,44c-1.4,0-2.8-0.1-4.2-0.4c-3-0.7-5.4-2.4-6.5-4.7c-1-2.2-0.9-4.6-0.7-6.9v-0.6c0.2-4.3,0.1-8.6-0.1-12.8 l-0.1-2.4c-0.1-2.8-0.1-5.8,1.6-8c1.3-1.8,3.4-2.7,4.9-3.1c1.9-0.5,3.8-0.5,5.6-0.6l16.1-0.4c2,0,4.2-0.1,6.1,0.7 c2.5,1.1,4.5,3.6,5.3,6.8c0.8,2.8,0.6,5.8,0.5,8.6c-0.2,5.2-0.5,10.6-1.2,15.9c-0.4,2.4-1,5-3.4,6c-1.2,0.6-2.6,0.9-3.9,1h-0.3 c-1.6,0.1-3.2,0.3-4.8,0.4C27.5,43.8,16.7,44,15.9,44z M33.8,5.3c-0.5,0-0.9,0-1.4,0l-16,0.4c-1.8,0-3.6,0.1-5.4,0.5 C9.7,6.5,7.8,7.3,6.7,8.9c-1.4,2-1.5,4.6-1.4,7.4l0.1,2.4c0.2,4.2,0.4,8.6,0.1,12.9v0.6c-0.1,2.2-0.3,4.5,0.6,6.4 c1,2,3.1,3.5,5.8,4.1c2,0.5,4.2,0.4,6.3,0.3c0.8,0,1.6-0.1,2.3-0.1l0,0l0,0c3.3,0.3,6.7-0.1,10-0.4c1.6-0.2,3.2-0.3,4.8-0.4h0.3 c1.2-0.1,2.4-0.1,3.5-0.6c1.9-0.9,2.5-3.1,2.8-5.3c0.8-5.2,1-10.6,1.2-15.8c0.1-2.8,0.2-5.6-0.5-8.3c-0.8-2.9-2.5-5.2-4.8-6.1 C36.8,5.4,35.3,5.3,33.8,5.3z M13.8,18.4c-0.2,0-0.4,0-0.6-0.2c-0.1-0.1-0.2-0.3-0.2-0.5c0.1-0.7,0.2-1.3,0.3-2 c0.1-0.6,0.2-1.3,0.3-1.9v-0.2c0.1-2,0.2-2.5,0.8-2.6c0.3,0,0.6-0.1,0.9-0.1c0.4-0.1,0.9-0.2,1.3-0.2c0.7,0,1.3-0.1,2-0.1h0.7 c1.8-0.1,3.5-0.1,5.3-0.2c3.5-0.1,7.1-0.1,10.6-0.1c0.6,0,1.2,0,1.8,0c0.5,0,1,0,1.5,0c0.1,0,0.3,0.1,0.4,0.2 c0.6,0.7,0.5,1.5,0.5,2.2c0,0.1,0,0.3,0,0.4c0,1.4-0.1,2.7-0.3,4c0,0.3-0.1,0.6-0.2,0.6c-0.1,0.2-0.3,0.3-0.5,0.3 c-6.3,0-13.1,0.1-20.9,0.2C16.4,18.4,15.1,18.4,13.8,18.4C13.9,18.4,13.9,18.4,13.8,18.4z M14.9,12c0,0.2-0.1,0.7-0.2,1.7v0.2 c-0.1,0.7-0.2,1.3-0.3,2c-0.1,0.5-0.2,1-0.3,1.5c1.2,0,2.3,0,3.5,0c7.7-0.2,14.4-0.2,20.6-0.2c0,0,0,0,0-0.1 c0.2-1.2,0.3-2.5,0.3-3.9c0-0.1,0-0.3,0-0.5c0-0.5,0-1-0.1-1.4c-0.4,0-0.8,0-1.2,0c-0.6,0-1.2,0-1.8,0c-3.5,0-7.1,0-10.6,0.1 c-1.8,0-3.5,0.1-5.3,0.2h-0.7c-0.6,0-1.3,0-1.9,0.1c-0.4,0-0.8,0.1-1.2,0.2C15.4,12,15.1,12,14.9,12z M11.2,38.4 c-0.2,0-0.3-0.1-0.5-0.2c-0.1-0.1-0.1-0.3-0.1-0.4l0.1-0.5c0,0,0,0,0-0.1v-0.1c0-2.2,0.5-4.5,0.9-6.5c0.1-0.6,0.3-1.2,0.4-1.8 c0.2-0.9,0.4-1.9,0.6-2.8c0.3-1.6,0.2-3.1,0.1-4.4c0-0.1,0-0.2,0.1-0.3c0.6-0.8,1.7-0.6,2.5-0.6h0.2c0.9,0.1,1.7,0.1,2.6,0.1 l5.8-0.1c1.5,0,2.9,0,4.4,0c2.9,0,5.9,0,8.8-0.1c0.2,0,0.3,0.1,0.4,0.2c0.3,0.5,0.2,1.1,0.1,1.5v0.2c-0.1,0.6-0.2,1.1-0.2,1.7 c-0.1,0.7-0.1,1.4-0.1,2c0,0.1,0,0.3,0,0.5c0,0.5,0.1,1.1-0.1,1.5c-0.2,0.4-0.3,0.4-1.6,0.4c-0.2,0-0.3,0-0.4,0 c-1.2,0.1-2.4,0.1-3.6,0.1c-0.5,0-1,0-1.5,0L25,28.9c-0.9,0-1.8,0-2.7,0h-0.7l0,0c0,0,0,0-0.1,0c0,0.1,0,0.1,0,0.1v0.2 c0,0.1,0,0.2-0.1,0.4c0,0.2-0.1,0.7-0.1,1c0.2,0,0.4,0,0.6,0h0.3c2.6-0.1,5.2,0,7.7-0.1c2-0.1,3.6-0.2,5.3-0.1c0.2,0,0.4,0,0.5,0 c0.3,0,0.6,0,0.8,0.2s0.3,0.3,0.2,3.9c0,0-0.2,2.5-0.2,3.1c0,0.3-0.2,0.5-0.5,0.5h-5.2c-5.2,0-10.5,0-15.7,0h-0.4 c-0.7,0-1.3,0-1.9,0.1h-0.2c-0.2,0-0.4,0-0.6,0.1C11.7,38.4,11.5,38.4,11.2,38.4z M13.8,21.7c0.1,1.3,0.1,2.8-0.1,4.4 c-0.2,1-0.4,1.9-0.6,2.9c-0.1,0.6-0.3,1.1-0.4,1.7c-0.4,2-0.9,4.3-0.9,6.4c0,0.1,0,0.1,0,0.2l0,0c0.2-0.1,0.5-0.1,0.7-0.1h0.2 c0.7-0.1,1.4-0.1,2-0.1h0.4c5.2,0,10.5,0,15.7,0h4.8c0-0.4,0.2-2.6,0.2-2.6c0.1-1.8,0.1-2.6,0.1-3c-0.2,0-0.4,0-0.6,0 c-1.7-0.1-3.3,0-5.2,0.1c-2.6,0.1-5.2,0-7.8,0.1H22c-0.3,0-0.6,0-0.9,0c-0.2,0-0.4-0.1-0.5-0.2c-0.3-0.3-0.2-0.9-0.1-2 c0-0.1,0-0.2,0-0.3v-0.1c0-0.3,0-0.7,0.2-1c0.2-0.2,0.5-0.2,0.8-0.2h0.7c0.9,0,1.8,0,2.6,0l5.3-0.1c0.5,0,1,0,1.6,0 c1.2,0,2.3,0,3.5-0.1c0.1,0,0.2,0,0.4,0s0.5,0,0.8,0c0-0.3,0-0.6,0-0.8c0-0.2,0-0.4,0-0.6c0-0.7,0-1.4,0.1-2.1 c0.1-0.6,0.1-1.2,0.2-1.8v-0.2c0-0.2,0.1-0.4,0.1-0.5c-2.8,0.1-5.7,0.1-8.4,0.1c-1.5,0-2.9,0-4.4,0l-5.8,0.1c-0.9,0-1.8,0-2.7-0.1 h-0.2C14.9,21.6,14.1,21.5,13.8,21.7z" />
</svg>