<svg xmlns="http://www.w3.org/2000/svg"  viewBox="0 0 24 24" width="100px" height="100px"><rect width="11.5" height="17" x="12" y="3.5" fill="#FFF"/><path fill="#177848" d="M23.5,21h-10c-0.2763672,0-0.5-0.2236328-0.5-0.5s0.2236328-0.5,0.5-0.5H23V4h-9.5 C13.2236328,4,13,3.7763672,13,3.5S13.2236328,3,13.5,3h10C23.7763672,3,24,3.2236328,24,3.5v17 C24,20.7763672,23.7763672,21,23.5,21z"/><polygon fill="#177848" points="14,0 0,2.6086957 0,21.391304 14,24"/><polygon fill="#FFF" points="0,2.6087036 0,2.8587036 14,0.25 14,0" opacity=".2"/><rect width="4" height="2" x="13" y="5" fill="#177848"/><rect width="4" height="2" x="18" y="5" fill="#177848"/><rect width="4" height="2" x="13" y="8" fill="#177848"/><rect width="4" height="2" x="18" y="8" fill="#177848"/><rect width="4" height="2" x="13" y="11" fill="#177848"/><rect width="4" height="2" x="18" y="11" fill="#177848"/><rect width="4" height="2" x="13" y="14" fill="#177848"/><rect width="4" height="2" x="18" y="14" fill="#177848"/><rect width="4" height="2" x="13" y="17" fill="#177848"/><rect width="4" height="2" x="18" y="17" fill="#177848"/><polygon points="0,21.3912964 14,24 14,23.75 0,21.1412964" opacity=".1"/><linearGradient id="BVAFQ4D-kSo4y0HRCOHR7a" x1="9.5" x2="23.354" y1="7.5" y2="21.354" gradientUnits="userSpaceOnUse"><stop offset="0" stop-opacity=".1"/><stop offset="1" stop-opacity="0"/></linearGradient><path fill="url(#BVAFQ4D-kSo4y0HRCOHR7a)" d="M23.5,21c0.2763672,0,0.5-0.2236328,0.5-0.5V13L14,3v18H23.5z"/><polygon fill="#FFF" points="7.357666,12.5 9.6552734,8.3642578 9.6262817,8.3481445 7.8796387,8.4729004 6.5,10.9562378 5.225647,8.6624756 3.5758667,8.7802734 5.642334,12.5 3.5758667,16.2197266 5.225647,16.3375244 6.5,14.0437622 7.8796387,16.5270996 9.6262817,16.6518555 9.6552734,16.6357422"/><linearGradient id="BVAFQ4D-kSo4y0HRCOHR7b" x1="-337.186" x2="-336.956" y1="438.871" y2="438.871" gradientTransform="matrix(60.9756 0 0 60.9756 20560.121 -26748.414)" gradientUnits="userSpaceOnUse"><stop offset="0" stop-color="#fff"/><stop offset="1"/></linearGradient><path fill="url(#BVAFQ4D-kSo4y0HRCOHR7b)" d="M14,0L0,2.6086957v18.782608L14,24V0z" opacity=".05"/><linearGradient id="BVAFQ4D-kSo4y0HRCOHR7c" x1="-1.563" x2="25.045" y1="5.962" y2="18.369" gradientUnits="userSpaceOnUse"><stop offset="0" stop-color="#fff" stop-opacity=".2"/><stop offset="1" stop-color="#fff" stop-opacity="0"/></linearGradient><path fill="url(#BVAFQ4D-kSo4y0HRCOHR7c)" d="M23.5,3H14V0L0,2.6087036v18.7825928L14,24v-3h9.5c0.2763672,0,0.5-0.2236328,0.5-0.5v-17 C24,3.2236328,23.7763672,3,23.5,3z"/></svg>