<svg xmlns="http://www.w3.org/2000/svg"  viewBox="0 0 100 100" width="100px" height="100px"><path fill="#c7ede6" d="M87.215,56.71C88.35,54.555,89,52.105,89,49.5c0-6.621-4.159-12.257-10.001-14.478 C78.999,35.015,79,35.008,79,35c0-11.598-9.402-21-21-21c-9.784,0-17.981,6.701-20.313,15.757C36.211,29.272,34.638,29,33,29 c-7.692,0-14.023,5.793-14.89,13.252C12.906,43.353,9,47.969,9,53.5C9,59.851,14.149,65,20.5,65c0.177,0,0.352-0.012,0.526-0.022 C21.022,65.153,21,65.324,21,65.5C21,76.822,30.178,86,41.5,86c6.437,0,12.175-2.972,15.934-7.614C59.612,80.611,62.64,82,66,82 c4.65,0,8.674-2.65,10.666-6.518C77.718,75.817,78.837,76,80,76c6.075,0,11-4.925,11-11C91,61.689,89.53,58.727,87.215,56.71z"/><path fill="#fdfcef" d="M83.875,75.5c0,0,3.64,0,6.125,0s4.5-2.015,4.5-4.5c0-2.333-1.782-4.229-4.055-4.455 C90.467,66.364,90.5,66.187,90.5,66c0-2.485-2.015-4.5-4.5-4.5c-1.438,0-2.703,0.686-3.527,1.736 C82.333,60.6,80.171,58.5,77.5,58.5c-2.761,0-5,2.239-5,5c0,0.446,0.077,0.87,0.187,1.282C72.045,64.005,71.086,63.5,70,63.5 c-1.781,0-3.234,1.335-3.455,3.055C66.364,66.533,66.187,66.5,66,66.5c-2.485,0-4.5,2.015-4.5,4.5s2.015,4.5,4.5,4.5s9.5,0,9.5,0 h5.375V76h3V75.5z"/><path fill="#472b29" d="M77.5,58c-3.033,0-5.5,2.467-5.5,5.5c0,0.016,0,0.031,0,0.047C71.398,63.192,70.71,63,70,63 c-1.831,0-3.411,1.261-3.858,3.005C66.095,66.002,66.048,66,66,66c-2.757,0-5,2.243-5,5s2.243,5,5,5h14.875 c0.276,0,0.5-0.224,0.5-0.5s-0.224-0.5-0.5-0.5H66c-2.206,0-4-1.794-4-4s1.794-4,4-4c0.117,0,0.23,0.017,0.343,0.032l0.141,0.019 c0.021,0.003,0.041,0.004,0.062,0.004c0.246,0,0.462-0.185,0.495-0.437C67.232,65.125,68.504,64,70,64 c0.885,0,1.723,0.401,2.301,1.1c0.098,0.118,0.241,0.182,0.386,0.182c0.078,0,0.156-0.018,0.228-0.056 c0.209-0.107,0.314-0.346,0.254-0.573C73.054,64.218,73,63.852,73,63.5c0-2.481,2.019-4.5,4.5-4.5 c2.381,0,4.347,1.872,4.474,4.263c0.011,0.208,0.15,0.387,0.349,0.45c0.05,0.016,0.101,0.024,0.152,0.024 c0.15,0,0.296-0.069,0.392-0.192C83.638,62.563,84.779,62,86,62c2.206,0,4,1.794,4,4c0,0.117-0.017,0.23-0.032,0.343l-0.019,0.141 c-0.016,0.134,0.022,0.268,0.106,0.373c0.084,0.105,0.207,0.172,0.34,0.185C92.451,67.247,94,68.949,94,71c0,2.206-1.794,4-4,4 h-6.125c-0.276,0-0.5,0.224-0.5,0.5s0.224,0.5,0.5,0.5H90c2.757,0,5-2.243,5-5c0-2.397-1.689-4.413-4.003-4.877 C90.999,66.082,91,66.041,91,66c0-2.757-2.243-5-5-5c-1.176,0-2.293,0.416-3.183,1.164C82.219,59.76,80.055,58,77.5,58L77.5,58z"/><path fill="#472b29" d="M76 65c-1.403 0-2.609.999-2.913 2.341C72.72 67.119 72.301 67 71.875 67c-1.202 0-2.198.897-2.353 2.068C69.319 69.022 69.126 69 68.938 69c-1.529 0-2.811 1.2-2.918 2.732C66.01 71.87 66.114 71.99 66.251 72c.006 0 .012 0 .018 0 .13 0 .24-.101.249-.232.089-1.271 1.151-2.268 2.419-2.268.229 0 .47.041.738.127.022.007.045.01.067.01.055 0 .11-.02.156-.054C69.962 69.537 70 69.455 70 69.375c0-1.034.841-1.875 1.875-1.875.447 0 .885.168 1.231.473.047.041.106.063.165.063.032 0 .063-.006.093-.019.088-.035.148-.117.155-.212C73.623 66.512 74.712 65.5 76 65.5c.208 0 .425.034.682.107.023.007.047.01.07.01.109 0 .207-.073.239-.182.038-.133-.039-.271-.172-.309C76.517 65.04 76.256 65 76 65L76 65zM89.883 66.5c-1.326 0-2.508.897-2.874 2.182-.038.133.039.271.172.309C87.205 68.997 87.228 69 87.25 69c.109 0 .209-.072.24-.182C87.795 67.748 88.779 67 89.883 67c.117 0 .23.014.342.029.012.002.023.003.035.003.121 0 .229-.092.246-.217.019-.137-.077-.263-.214-.281C90.158 66.516 90.022 66.5 89.883 66.5L89.883 66.5z"/><path fill="#fff" d="M27.405 72H17.5c-.276 0-.5-.224-.5-.5s.224-.5.5-.5h9.905c.276 0 .5.224.5.5S27.682 72 27.405 72zM30.5 72h-1c-.276 0-.5-.224-.5-.5s.224-.5.5-.5h1c.276 0 .5.224.5.5S30.777 72 30.5 72zM35.491 74H26.5c-.276 0-.5-.224-.5-.5s.224-.5.5-.5h8.991c.276 0 .5.224.5.5S35.767 74 35.491 74zM24.5 74h-1c-.276 0-.5-.224-.5-.5s.224-.5.5-.5h1c.276 0 .5.224.5.5S24.777 74 24.5 74zM21.5 74h-2c-.276 0-.5-.224-.5-.5s.224-.5.5-.5h2c.276 0 .5.224.5.5S21.777 74 21.5 74zM27.5 76h-2c-.276 0-.5-.224-.5-.5s.224-.5.5-.5h2c.276 0 .5.224.5.5S27.776 76 27.5 76zM30.5 67c-.177 0-.823 0-1 0-.276 0-.5.224-.5.5 0 .276.224.5.5.5.177 0 .823 0 1 0 .276 0 .5-.224.5-.5C31 67.224 30.776 67 30.5 67zM30.5 69c-.177 0-4.823 0-5 0-.276 0-.5.224-.5.5 0 .276.224.5.5.5.177 0 4.823 0 5 0 .276 0 .5-.224.5-.5C31 69.224 30.776 69 30.5 69zM35.5 71c-.177 0-2.823 0-3 0-.276 0-.5.224-.5.5 0 .276.224.5.5.5.177 0 2.823 0 3 0 .276 0 .5-.224.5-.5C36 71.224 35.776 71 35.5 71zM67.5 21h-10c-.276 0-.5-.224-.5-.5s.224-.5.5-.5h10c.276 0 .5.224.5.5S67.776 21 67.5 21zM71.5 21h-2c-.276 0-.5-.224-.5-.5s.224-.5.5-.5h2c.276 0 .5.224.5.5S71.776 21 71.5 21zM76.5 23h-10c-.276 0-.5-.224-.5-.5s.224-.5.5-.5h10c.276 0 .5.224.5.5S76.777 23 76.5 23zM64.5 23h-1c-.276 0-.5-.224-.5-.5s.224-.5.5-.5h1c.276 0 .5.224.5.5S64.776 23 64.5 23zM61.375 23H59.5c-.276 0-.5-.224-.5-.5s.224-.5.5-.5h1.875c.276 0 .5.224.5.5S61.651 23 61.375 23zM70.5 19h-5c-.276 0-.5-.224-.5-.5s.224-.5.5-.5h5c.276 0 .5.224.5.5S70.777 19 70.5 19zM67.5 25h-2c-.276 0-.5-.224-.5-.5s.224-.5.5-.5h2c.276 0 .5.224.5.5S67.776 25 67.5 25z"/><path fill="#fdfcef" d="M39.5,28.5c0,0,1.567,0,3.5,0s3.5-1.567,3.5-3.5c0-1.781-1.335-3.234-3.055-3.455 C43.473,21.366,43.5,21.187,43.5,21c0-1.933-1.567-3.5-3.5-3.5c-1.032,0-1.95,0.455-2.59,1.165 c-0.384-1.808-1.987-3.165-3.91-3.165c-2.209,0-4,1.791-4,4c0,0.191,0.03,0.374,0.056,0.558C29.128,19.714,28.592,19.5,28,19.5 c-1.228,0-2.245,0.887-2.455,2.055C25.366,21.527,25.187,21.5,25,21.5c-1.933,0-3.5,1.567-3.5,3.5s1.567,3.5,3.5,3.5s7.5,0,7.5,0 V29h7V28.5z"/><path fill="#472b29" d="M41.25 24C41.112 24 41 23.888 41 23.75c0-1.223.995-2.218 2.218-2.218.034.009.737-.001 1.244.136.133.036.212.173.176.306-.036.134-.173.213-.306.176-.444-.12-1.1-.12-1.113-.118-.948 0-1.719.771-1.719 1.718C41.5 23.888 41.388 24 41.25 24zM34.5 28A.5.5 0 1 0 34.5 29 .5.5 0 1 0 34.5 28z"/><path fill="#472b29" d="M43,29h-3.5c-0.276,0-0.5-0.224-0.5-0.5s0.224-0.5,0.5-0.5H43c1.654,0,3-1.346,3-3 c0-1.496-1.125-2.768-2.618-2.959c-0.134-0.018-0.255-0.088-0.336-0.196s-0.115-0.244-0.094-0.377C42.975,21.314,43,21.16,43,21 c0-1.654-1.346-3-3-3c-0.85,0-1.638,0.355-2.219,1c-0.125,0.139-0.321,0.198-0.5,0.148c-0.182-0.049-0.321-0.195-0.36-0.379 C36.58,17.165,35.141,16,33.5,16c-1.93,0-3.5,1.57-3.5,3.5c0,0.143,0.021,0.28,0.041,0.418c0.029,0.203-0.063,0.438-0.242,0.54 c-0.179,0.102-0.396,0.118-0.556-0.01C28.878,20.155,28.449,20,28,20c-0.966,0-1.792,0.691-1.963,1.644 c-0.048,0.267-0.296,0.446-0.569,0.405C25.314,22.025,25.16,22,25,22c-1.654,0-3,1.346-3,3s1.346,3,3,3h7.5 c0.276,0,0.5,0.224,0.5,0.5S32.776,29,32.5,29H25c-2.206,0-4-1.794-4-4s1.794-4,4-4c0.059,0,0.116,0.002,0.174,0.006 C25.588,19.82,26.711,19,28,19c0.349,0,0.689,0.061,1.011,0.18C29.176,16.847,31.126,15,33.5,15c1.831,0,3.466,1.127,4.153,2.774 C38.333,17.276,39.155,17,40,17c2.206,0,4,1.794,4,4c0,0.048-0.001,0.095-0.004,0.142C45.739,21.59,47,23.169,47,25 C47,27.206,45.206,29,43,29z"/><path fill="#472b29" d="M37.5,28c-0.159,0-0.841,0-1,0c-0.276,0-0.5,0.224-0.5,0.5c0,0.276,0.224,0.5,0.5,0.5 c0.159,0,0.841,0,1,0c0.276,0,0.5-0.224,0.5-0.5C38,28.224,37.776,28,37.5,28z"/><g><path fill="#472b29" d="M36.5,48h-6c-0.276,0-0.5-0.224-0.5-0.5s0.224-0.5,0.5-0.5h6c0.276,0,0.5,0.224,0.5,0.5 S36.776,48,36.5,48z"/></g><g><path fill="#472b29" d="M44.5,42h-6c-0.276,0-0.5-0.224-0.5-0.5s0.224-0.5,0.5-0.5h6c0.276,0,0.5,0.224,0.5,0.5 S44.776,42,44.5,42z"/></g><g><path fill="#472b29" d="M29.5,42h-6c-0.276,0-0.5-0.224-0.5-0.5s0.224-0.5,0.5-0.5h6c0.276,0,0.5,0.224,0.5,0.5 S29.776,42,29.5,42z"/></g><g><path fill="#472b29" d="M36.5,42h-4c-0.276,0-0.5-0.224-0.5-0.5s0.224-0.5,0.5-0.5h4c0.276,0,0.5,0.224,0.5,0.5 S36.776,42,36.5,42z"/></g><g><path fill="#472b29" d="M27.5,48h-4c-0.276,0-0.5-0.224-0.5-0.5s0.224-0.5,0.5-0.5h4c0.276,0,0.5,0.224,0.5,0.5 S27.776,48,27.5,48z"/></g><g><path fill="#472b29" d="M37.5,54h-3c-0.276,0-0.5-0.224-0.5-0.5s0.224-0.5,0.5-0.5h3c0.276,0,0.5,0.224,0.5,0.5 S37.776,54,37.5,54z"/></g><g><path fill="#472b29" d="M31.5,54h-8c-0.276,0-0.5-0.224-0.5-0.5s0.224-0.5,0.5-0.5h8c0.276,0,0.5,0.224,0.5,0.5 S31.776,54,31.5,54z"/></g><g><path fill="#fabf82" d="M42.471,78c-0.819,0-1.501-0.273-2.047-0.955c-0.955-1.092-0.955-2.866,0.273-3.822L52.98,62.304 c1.092-0.955,2.866-0.955,3.822,0.273c0.955,1.092,0.955,2.866-0.273,3.822L44.245,77.318C43.699,77.727,43.153,78,42.471,78z"/><path fill="#472b29" d="M42.471,78.7c-1.074,0-1.946-0.41-2.593-1.218c-0.607-0.692-0.914-1.646-0.824-2.591 c0.085-0.89,0.516-1.679,1.213-2.222l12.249-10.89c0.72-0.63,1.677-0.932,2.618-0.847c0.89,0.086,1.679,0.517,2.221,1.214 c0.601,0.685,0.908,1.638,0.818,2.583c-0.085,0.89-0.517,1.679-1.214,2.221L44.71,77.841C44.154,78.261,43.443,78.7,42.471,78.7z M54.813,62.318c-0.497,0-0.998,0.186-1.372,0.513l-12.28,10.915c-0.534,0.418-0.68,0.924-0.714,1.279 c-0.053,0.555,0.135,1.138,0.504,1.559c0.402,0.502,0.865,0.716,1.52,0.716c0.448,0,0.84-0.157,1.354-0.543l12.239-10.882 c0.535-0.418,0.681-0.923,0.715-1.278c0.053-0.555-0.136-1.138-0.504-1.559c-0.415-0.531-0.92-0.677-1.275-0.711 C54.938,62.321,54.876,62.318,54.813,62.318z"/></g><g><path fill="#fabf82" d="M67.039,27.5c3.003,0,5.459,2.457,5.459,5.459c0,3.003-2.457,5.459-5.459,5.459 c-3.003,0-5.459-2.457-5.459-5.459C61.579,29.957,64.036,27.5,67.039,27.5"/><path fill="#472b29" d="M67.038,39.119c-3.396,0-6.159-2.764-6.159-6.16s2.763-6.159,6.159-6.159s6.16,2.763,6.16,6.159 S70.435,39.119,67.038,39.119z M67.038,28.2c-2.624,0-4.759,2.135-4.759,4.759c0,2.625,2.135,4.76,4.759,4.76 c2.625,0,4.76-2.135,4.76-4.76C71.798,30.335,69.663,28.2,67.038,28.2z"/></g><g><path fill="#ffb74d" d="M47.248,54.797c-1.501,0-2.866-0.682-3.822-1.911c-1.638-2.047-1.092-5.05,0.955-6.688l10.646-7.916 c2.047-1.638,5.05-1.092,6.688,0.955s1.092,5.05-0.955,6.688l-10.646,7.916C49.295,54.524,48.203,54.797,47.248,54.797z"/></g><g><path fill="#fabf82" d="M70.451,50.566h-7.507v-6.278v-1.774c0,0,0.273-2.32-0.955-3.548 c-1.098-1.098-2.921-1.975-3.824-2.368l-7.095-4.73c-0.409-0.273-0.819-0.273-1.365-0.273h-9.554 c-1.092,0.137-1.911,1.228-1.774,2.32c0.137,1.092,1.228,1.911,2.32,1.774h8.735l4.253,3.604l-9.303,6.905 c-2.047,1.638-2.593,4.64-0.955,6.688c0.14,0.18,0.301,0.331,0.459,0.485l6.083,8.237l0.009,0.013H39.741 c-1.501,0-2.73,1.228-2.73,2.729s1.345,2.966,2.846,2.966h15.014c0.955,0,1.794-0.782,2.34-1.601c0.546-0.819,0.546-1.911,0-2.73 L52.31,52.204l5.791-4.318l0.748,4.864c0,1.092,0.955,2.047,2.047,2.047h9.554c1.092,0,2.047-1.092,2.047-2.184 C72.498,51.522,71.543,50.566,70.451,50.566z"/></g><g><path fill="#ea5167" d="M58.167,47.836l0.468,1.454l4.309-0.121l0-6.655c0,0,0.273-2.32-0.955-3.549 c-1.501-1.501-7.238-4.667-7.238-4.667l-2.913,3.885l1.674,1.24l-9.129,6.776c-2.047,1.638-2.593,4.641-0.955,6.688 c0.955,1.228,2.32,1.911,3.822,1.911c0.955,0,2.047-0.273,2.866-0.955L58.167,47.836L58.167,47.836z"/></g><g><path fill="#bebacb" d="M44.553,54.207l5.425,7.415l5.258-2.62l-2.938-6.661l-5.186-8.053l-2.593,1.911 c-2.047,1.638-2.593,4.641-0.955,6.688C44.553,54.207,44.553,54.207,44.553,54.207z"/></g><g><path fill="#472b29" d="M54.755,67.781H39.741c-1.891,0-3.43-1.539-3.43-3.43s1.539-3.43,3.43-3.43h8.85l-5.234-7.089 c-0.202-0.197-0.35-0.346-0.482-0.517c-1.828-2.286-1.351-5.728,1.07-7.665l8.696-6.455l-3.051-3.289h-8.43 c-1.406,0.172-2.829-0.91-3.015-2.388c-0.176-1.404,0.953-2.706,2.518-2.901l9.641-0.006c0.721,0,1.342,0.17,1.845,0.505 c0.348,0.245,8.178,5.756,9.404,6.704c2.083,1.61,2.092,4.57,2.092,4.696v1.771l0.162,6.137h6.825c1.489,0,2.747,1.258,2.747,2.747 c0,1.509-1.31,2.884-2.747,2.884h-9.554c-1.468,0-2.712-1.223-2.747-2.683l-0.728-4.243l-4.422,3.298l4.646,10.221 c0.666,1.043,0.655,2.425-0.032,3.456C57.115,67.123,55.922,67.781,54.755,67.781z M39.741,62.322c-1.119,0-2.029,0.91-2.029,2.029 s0.91,2.029,2.029,2.029h15.014c0.712,0,1.448-0.413,1.875-1.053c0.389-0.584,0.389-1.369-0.001-1.954 c-0.021-0.031-0.039-0.063-0.055-0.098l-4.901-10.782c-0.136-0.3-0.045-0.654,0.219-0.852l5.79-4.318 c0.196-0.144,0.454-0.178,0.679-0.089c0.227,0.091,0.389,0.292,0.43,0.532l0.93,5.423c0.007,0.039,0.011,0.078,0.011,0.118 c0,0.705,0.643,1.347,1.348,1.347h9.554c0.667,0,1.347-0.749,1.347-1.483c0-0.705-0.642-1.347-1.347-1.347h-7.507 c-0.38,0-0.689-0.303-0.7-0.682l-0.181-8.63c0-0.025-0.018-2.402-1.547-3.585c-1.202-0.929-9.258-6.599-9.34-6.656 c-0.254-0.169-0.613-0.26-1.054-0.26H40.75c-0.612,0.082-1.302,0.641-1.216,1.333c0.088,0.7,0.809,1.26,1.54,1.167l8.821-0.006 c0.194,0,0.381,0.081,0.514,0.225l3.789,4.086c0.135,0.146,0.202,0.342,0.184,0.54s-0.12,0.379-0.28,0.498l-9.303,6.905 c-1.798,1.439-2.178,3.998-0.825,5.688c0.106,0.138,0.223,0.248,0.337,0.359c0.027,0.026,0.116,0.117,0.139,0.147l6.083,8.237 c0.156,0.213,0.185,0.502,0.065,0.737c-0.118,0.236-0.355,0.392-0.62,0.392H39.741z"/></g><g><path fill="#472b29" d="M63.005,49.601h-4.855c-0.138,0-0.25-0.112-0.25-0.25s0.112-0.25,0.25-0.25h4.855 c0.138,0,0.25,0.112,0.25,0.25S63.143,49.601,63.005,49.601z"/></g><g><path fill="#472b29" d="M52.697,37.635c-0.048,0-0.096-0.014-0.139-0.042c-0.115-0.076-0.146-0.231-0.069-0.347l1.942-2.914 c0.076-0.115,0.231-0.146,0.347-0.069s0.146,0.231,0.069,0.347l-1.942,2.914C52.857,37.596,52.778,37.635,52.697,37.635z"/></g><g><path fill="#472b29" d="M50.38,61.255c-0.1,0-0.193-0.06-0.232-0.157c-0.051-0.128,0.012-0.273,0.14-0.325l4.855-1.942 c0.126-0.05,0.273,0.012,0.325,0.14c0.051,0.128-0.012,0.273-0.14,0.325l-4.855,1.942C50.442,61.249,50.411,61.255,50.38,61.255z"/></g><g><path fill="#472b29" d="M52.427,52.979c-0.083,0-0.164-0.041-0.212-0.117l-3.041-4.834 c-0.073-0.116-0.038-0.271,0.079-0.345c0.116-0.071,0.271-0.039,0.345,0.079l3.041,4.834c0.073,0.116,0.038,0.271-0.079,0.345 C52.519,52.967,52.473,52.979,52.427,52.979z"/></g><g><path fill="#472b29" d="M48.427,46.604c-0.082,0-0.163-0.041-0.211-0.116l-1.375-2.167c-0.074-0.116-0.04-0.271,0.077-0.345 c0.113-0.075,0.27-0.041,0.345,0.077l1.375,2.167c0.074,0.116,0.04,0.271-0.077,0.345C48.52,46.592,48.473,46.604,48.427,46.604z"/></g></svg>