<?xml version="1.0" encoding="utf-8"?>
<!-- Generator: Adobe Illustrator 21.0.2, SVG Export Plug-In . SVG Version: 6.00 Build 0)  -->
<svg xmlns="http://www.w3.org/2000/svg" xmlns:xlink="http://www.w3.org/1999/xlink" viewBox="0 0 80 80" width="100px" height="100px">
<g>
	<path style="fill:#4E7AB5;" d="M78,40c0,13.5-17,16.3-38,16.3S2,53.5,2,40s17-5.4,38-5.4S78,26.5,78,40z"/>
</g>
<g>
	<g>
		<path style="fill:#DEB974;" d="M58.2,55.5c-4,0-7.3-3.4-7.3-7.5s3.3-7.5,7.3-7.5c5.2,0,7.3,1.4,7.3,4.8    C65.5,48.8,64,55.5,58.2,55.5z M21.8,55.5c-5.8,0-7.3-6.7-7.3-10.2c0-3.4,2.1-4.8,7.3-4.8c4,0,7.3,3.4,7.3,7.5    S25.8,55.5,21.8,55.5z"/>
	</g>
	<g>
		<path style="fill:#967A44;" d="M58.2,41c4.9,0,6.8,1.2,6.8,4.3c0,3.3-1.4,9.7-6.8,9.7c-3.8,0-6.8-3.1-6.8-7S54.5,41,58.2,41     M21.8,41c3.8,0,6.8,3.1,6.8,7s-3,7-6.8,7c-5.4,0-6.8-6.3-6.8-9.7C15,42.2,16.9,41,21.8,41 M58.2,40c-4.3,0-7.8,3.6-7.8,8    s3.5,8,7.8,8C64,56,66,49.8,66,45.3S62.5,40,58.2,40L58.2,40z M21.8,40c-4.3,0-7.8,0.9-7.8,5.3S16,56,21.8,56c4.3,0,7.8-3.6,7.8-8    C29.6,43.6,26.1,40,21.8,40L21.8,40z"/>
	</g>
</g>
<g>
	<g>
		<path style="fill:#F5CE85;" d="M40,77.5c-2.7,0-5.2-1.1-7-3.1l-0.1-0.1l-0.1,0c-8.5-3-14.3-11.2-14.3-20.3V24.8    c0-5.5,4.5-10,10-10h23c5.5,0,10,4.5,10,10V54c0,9.1-5.7,17.2-14.3,20.3l-0.1,0L47,74.4C45.2,76.4,42.7,77.5,40,77.5z"/>
	</g>
	<g>
		<path style="fill:#967A44;" d="M51.5,15.3c5.2,0,9.5,4.3,9.5,9.5V54c0,8.9-5.6,16.8-14,19.8l-0.2,0.1l-0.2,0.2    C44.9,75.9,42.5,77,40,77s-4.9-1.1-6.6-2.9l-0.2-0.2L33,73.8c-8.3-3-14-10.9-14-19.8V24.8c0-5.2,4.3-9.5,9.5-9.5L51.5,15.3     M51.5,14.3h-23C22.7,14.3,18,19,18,24.8V54c0,9.6,6.1,17.7,14.6,20.7c1.8,2,4.5,3.3,7.4,3.3s5.6-1.3,7.4-3.3    C55.9,71.7,62,63.6,62,54V24.8C62,19,57.3,14.3,51.5,14.3L51.5,14.3z"/>
	</g>
</g>
<g>
	<path style="fill:#A6714E;" d="M61.5,47.5V34c0-3.2-2.1-6.6-4.2-9.2c4,1.2,8.2,3.4,8.2,7.2c0,8-3.1,14.2-3.8,15.5H61.5z M18.3,47.5   c-0.7-1.2-3.8-6.8-3.8-15.5c0-5.8,13.7-9.2,27-9.2c1.9,0,3.9,0.1,5.7,0.2c-3.6,2.2-9.1,4.5-16.2,4.5c-6.1,0-12.5,4.7-12.5,12.5v7.5   H18.3z M54.5,23c-1.4-0.3-2.9-0.5-4.4-0.7c0.9-0.7,1.6-1.3,2-1.6C52.5,21.1,53.4,21.9,54.5,23z"/>
	<g>
		<path style="fill:#7A4F34;" d="M52,21.4c0.3,0.2,0.6,0.5,0.9,0.9c-0.5-0.1-1.1-0.2-1.7-0.3C51.6,21.7,51.8,21.5,52,21.4     M41.5,23.3c1.4,0,2.7,0,4,0.1C42,25.3,37.1,27,31,27c-6.4,0-13,4.9-13,13v5.9c-1.1-2.3-3-7.2-3-13.9C15,27.2,26.9,23.3,41.5,23.3     M58.7,25.8C61.8,27,65,29,65,32c0,6.1-1.9,11.2-3,13.8V34C62,31.6,60.9,28.8,58.7,25.8 M52,20c0,0-1.1,1.2-3.3,2.7    c2.6,0.3,5,0.7,7.2,1.2C53.9,21.6,52,20,52,20L52,20z M41.5,22.3C28,22.3,14,25.8,14,32c0,10.1,4,16,4,16h1c0,0,0-5.2,0-8    c0-7.4,5.9-12,12-12c8.2,0,14.2-3,17.7-5.3C46.4,22.4,43.9,22.3,41.5,22.3L41.5,22.3z M55.9,23.9C58.3,26.7,61,30.5,61,34    c0,3.1,0,14,0,14h1c0,0,4-6.8,4-16C66,28.1,61.9,25.4,55.9,23.9L55.9,23.9z"/>
	</g>
</g>
<circle style="fill:#36404D;" cx="51" cy="45" r="3"/>
<circle style="fill:#36404D;" cx="29" cy="45" r="3"/>
<path style="fill:#967A44;" d="M51.7,64c-3.3-0.5-6.6-3.2-8.2-4.6c-0.9,0.3-2.1,0.6-3.4,0.7L40,60c-1.2,0-2.5-0.4-3.5-0.7  c-1.6,1.5-4.9,4.2-8.2,4.7l-0.6-4c2.5-0.4,5.9-3.4,6.8-4.4l1-1l1.3,0.5c0.8,0.3,2.3,0.8,3.2,0.8c1.6-0.1,3.1-0.8,3.2-0.8l1.3-0.6  l1,1c1.1,1.1,4.4,4,6.8,4.4L51.7,64z"/>
<g>
	<g>
		<path style="fill:#8BB7F0;" d="M14.7,33C15,16.8,24.6,2.5,32.3,2.5c0.8,0,1.8,0.5,2.9,1.1c1.5,0.8,3.1,1.6,4.8,1.6    c1.7,0,3.4-0.9,4.9-1.6C46,3,47,2.5,47.7,2.5c3.6,0,8,3.5,11.5,9.2c3.7,6.1,5.9,13.8,6.1,21.3c-2.7-1.1-12.5-4.9-25.3-4.9    C27.3,28.1,17.4,31.9,14.7,33z"/>
	</g>
	<g>
		<path style="fill:#4E7AB5;" d="M47.7,3c6.5,0,16.4,13,17,29.2C61.3,30.8,52,27.6,40,27.6c-12,0-21.3,3.2-24.8,4.6    c0.3-7.1,2.4-14.5,5.9-20.2c3.4-5.5,7.6-9,11.1-9c0.6,0,1.6,0.5,2.7,1c1.5,0.8,3.2,1.7,5.1,1.7c1.8,0,3.6-0.9,5.1-1.7    C46.1,3.5,47.1,3,47.7,3 M47.7,2c-1.9,0-4.8,2.7-7.7,2.7c-2.9,0-5.8-2.7-7.7-2.7c-7.8,0-18,14.6-18,31.8c0,0,10.8-5.2,25.8-5.2    s25.8,5.2,25.8,5.2C65.8,16.7,55.4,2,47.7,2L47.7,2z"/>
	</g>
</g>
<g>
	<path style="fill:#8BB7F0;" d="M70.2,50.3c-1.7,0-2.6-2.1-2.6-5.9c0-5-14.3-8.4-27.6-8.4s-27.6,3.4-27.6,8.4c0,3.6-1.1,5.6-3,5.6   c-2.7,0-6.9-4.3-6.9-10.1c0-13.9,19-15.8,37.5-15.8S77.5,26.1,77.5,40c0,2.2-1,4.8-2.6,7C73.4,49.1,71.6,50.3,70.2,50.3L70.2,50.3z   "/>
	<g>
		<path style="fill:#4E7AB5;" d="M40,24.7c12.2,0,20.6,1,26.5,3C73.6,30.2,77,34.2,77,40c0,4.5-4.2,9.8-6.8,9.8    c-1.9,0-2.1-3.8-2.1-5.4c0-6.1-16.8-8.9-28.1-8.9s-28.1,2.8-28.1,8.9c0,1.5-0.2,5.1-2.5,5.1C6.9,49.6,3,45.3,3,40    c0-5.8,3.4-9.8,10.5-12.3C19.4,25.7,27.8,24.7,40,24.7 M40,23.7C19,23.7,2,26.5,2,40c0,5.8,4.2,10.6,7.4,10.6    c1.9,0,3.5-1.8,3.5-6.1c0-4.5,13.7-7.9,27.1-7.9s27.1,3.4,27.1,7.9c0,4.6,1.3,6.4,3.1,6.4c3.2,0,7.8-5.9,7.8-10.8    C78,26.5,61,23.7,40,23.7L40,23.7z"/>
	</g>
</g>
</svg>