<svg xmlns="http://www.w3.org/2000/svg"  viewBox="0 0 48 48" width="144px" height="144px" baseProfile="basic"><path fill="#ffebee" d="M5,39V15h38v24c0,2.209-1.791,4-4,4H9C6.791,43,5,41.209,5,39"/><path fill="#ec407a" d="M43,11v6H5v-6c0-2.209,1.791-4,4-4h30C41.209,7,43,8.791,43,11"/><path fill="#ad1457" d="M36,11c0,1.657-1.343,3-3,3s-3-1.343-3-3s1.343-3,3-3C34.657,8,36,9.343,36,11 M18,11	c0,1.657-1.343,3-3,3s-3-1.343-3-3s1.343-3,3-3S18,9.343,18,11"/><path fill="#b0bec5" d="M33,4c-1.104,0-2,0.896-2,2v5c0,1.104,0.896,2,2,2s2-0.896,2-2V6C35,4.896,34.104,4,33,4 M15,4	c-1.104,0-2,0.896-2,2v5c0,1.104,0.896,2,2,2s2-0.896,2-2V6C17,4.896,16.104,4,15,4"/><path fill="#f44336" d="M17.035,39.979V34.02h1.576c0.695,0,1.25,0.221,1.664,0.663c0.413,0.441,0.624,1.048,0.632,1.816 v0.967c0,0.783-0.206,1.397-0.62,1.844c-0.413,0.446-0.982,0.669-1.709,0.669H17.035z M18.239,35.021v3.958h0.359 c0.401,0,0.684-0.105,0.848-0.316c0.164-0.212,0.25-0.577,0.258-1.096v-1.035c0-0.557-0.078-0.944-0.233-1.164 s-0.42-0.335-0.794-0.347H18.239z"/><path fill="#f44336" d="M24.664,38.759h-1.641l-0.319,1.22H21.43l1.862-5.959h1.102l1.874,5.959h-1.285L24.664,38.759z M23.285,37.756h1.113l-0.557-2.124L23.285,37.756z"/><path fill="#f44336" d="M27.093,39.979V34.02h1.576c0.695,0,1.25,0.221,1.664,0.663c0.413,0.441,0.624,1.048,0.632,1.816 v0.967c0,0.783-0.206,1.397-0.62,1.844c-0.413,0.446-0.982,0.669-1.709,0.669H27.093z M28.297,35.021v3.958h0.359 c0.401,0,0.684-0.105,0.848-0.316c0.164-0.212,0.25-0.577,0.258-1.096v-1.035c0-0.557-0.078-0.944-0.233-1.164 s-0.42-0.335-0.794-0.347H28.297z"/><g><path fill="#f44336" d="M20.5,20c-1.933,0-3.5,1.567-3.5,3.5s1.567,3.5,3.5,3.5s3.5-1.567,3.5-3.5S22.433,20,20.5,20z"/><path fill="#f44336" d="M27.5,20c-1.933,0-3.5,1.567-3.5,3.5s1.567,3.5,3.5,3.5s3.5-1.567,3.5-3.5S29.433,20,27.5,20z"/><path fill="#f44336" d="M23.903,31.667l6.202-5.833L24,23.5l-6.466,1.853L23.903,31.667z"/></g></svg>