<svg xmlns="http://www.w3.org/2000/svg"  viewBox="0 0 512 512" width="256px" height="256px"><path fill="#9e3b4c" d="M380.341,190.333C365.752,82.867,331.205,10.037,256,10.037s-109.748,72.83-124.337,180.3C118.883,284.5,29.667,369.112,112,456H400.008C482.341,369.112,393.125,284.5,380.341,190.333Z"/><path fill="#f88" d="M407.355,496.536C403.381,451.409,394.4,337.345,369.588,304c-11.16-15-39.244-27.131-64.86-32-19.092-3.628-27.769-15.38-27.242-35.742H234.514c.527,20.362-8.15,32.114-27.242,35.742-25.616,4.869-53.7,17-64.86,32-24.81,33.345-33.793,147.409-37.767,192.536a4.994,4.994,0,0,0,4.981,5.431H402.374A4.994,4.994,0,0,0,407.355,496.536Z"/><path fill="#ed4559" d="M279.24,251.33c-6.5,2.58-12.57,4.32-17.11,5.83a19.473,19.473,0,0,1-12.26,0c-4.54-1.51-10.61-3.25-17.11-5.83a47.338,47.338,0,0,0,1.75-15.07h42.98A47.338,47.338,0,0,0,279.24,251.33Z"/><path fill="#f88" d="M353.688,159.688c-4.305-13.914-19.188-15.313-26.643-10.5l-7.371,45.96C352.519,200.546,356.375,168.375,353.688,159.688Z"/><path fill="#f88" d="M185.065,149.25c-7.455-4.811-22.448-3.476-26.752,10.438-2.688,8.687,1.168,40.858,34.013,35.458Z"/><path fill="#ffa6a2" d="M185.673,146.175a22.878,22.878,0,0,0-.785,5.568c-.322,21.418,5.278,45.768,17.627,62.367,13.278,17.849,35.49,23.353,47.354,27.292a19.451,19.451,0,0,0,12.262,0c11.864-3.939,34.076-9.443,47.354-27.292,12.843-17.264,18.387-42.911,17.56-64.924-.97-25.857-27.186-39.361-43.175-83.593a5.749,5.749,0,0,0-10-1.528C239.729,109.581,196,107.642,185.673,146.175Z"/><path fill="#fff" d="M256,206.485c11.658,0,14.918-9.336,15.7-14.09.466-2.819-1.979-5.337-5.108-5.337H245.4c-3.129,0-5.574,2.518-5.108,5.337C241.082,197.149,244.342,206.485,256,206.485Z"/><path fill="#ffdedc" d="M400.19,501.97H111.81a6.987,6.987,0,0,1-6.97-7.6c4.06-46.51,13.15-157.55,37.57-190.37,11.16-15,39.25-27.13,64.86-32L199,328H312.5l-7.77-56c25.61,4.87,53.7,17,64.86,32,24.42,32.82,33.51,143.86,37.57,190.37A6.987,6.987,0,0,1,400.19,501.97Z"/><path fill="#0e699b" d="M287.97,468.57c-1.72,11.38-3.33,22.54-4.72,33.4h-54.5c-1.39-10.86-3-22.02-4.72-33.4-8.03-53.36-18.18-111.7-17-168.32,12.31,8.43,32.73,12.76,48.97,12.76s36.66-4.33,48.97-12.76C306.15,356.87,296,415.21,287.97,468.57Z"/><path fill="#fff" d="M332.915,329.228a2,2,0,0,1,.326-3.648c4.246-1.409,9.849-3.625,9.861-5.514.026-4.022-3.644-30.954-14.09-45.332a12.978,12.978,0,0,0-7.547-5l-11.959-2.8a4.991,4.991,0,0,0-6.11,5.331c6.174,65.117-6.067,134.1-15.426,196.294,22.887-36.463,51.534-90.084,57.257-127.412C345.735,337.831,341.329,333.905,332.915,329.228Z"/><path fill="#fff" d="M208.6,272.266a4.991,4.991,0,0,0-6.11-5.331l-11.959,2.8a12.978,12.978,0,0,0-7.547,5c-10.446,14.378-14.116,41.31-14.09,45.332.012,1.889,5.615,4.105,9.861,5.514a2,2,0,0,1,.326,3.648c-8.414,4.677-12.82,8.6-12.312,11.92,5.723,37.328,34.37,90.949,57.257,127.412C214.671,406.365,202.43,337.383,208.6,272.266Z"/><path fill="#462e4c" d="M261.426,161.151a5.987,5.987,0,0,0-4.711,2.285,1.678,1.678,0,0,1-1.43,0,6,6,0,0,0-10.711,3.715c0,6.324,7.846,8.452,11.426,8.452s11.426-2.128,11.426-8.452A6,6,0,0,0,261.426,161.151Z"/><path fill="#462e4c" d="M276.5,111.855c2.975-.247,6.288-.663,9.747-1.012a87.73,87.73,0,0,1,10.937-.554,36.357,36.357,0,0,1,11.942,2.071,23.018,23.018,0,0,1,5.793,3.151,19.079,19.079,0,0,1,4.515,4.838,4.3,4.3,0,0,1-6.238,5.727l-.256-.2a16.191,16.191,0,0,0-7.007-3.086,37.511,37.511,0,0,0-8.667-.448c-3.122.126-6.408.5-9.857.792a67.516,67.516,0,0,1-11.045.3,5.8,5.8,0,0,1-.048-11.566Z"/><path fill="#462e4c" d="M311.824,144.7a33.237,33.237,0,0,1-8.443-.923,19.475,19.475,0,0,0-5.987-.476,14.4,14.4,0,0,0-5.088,1.646,31.45,31.45,0,0,0-5.064,3.417l-.2.155a6.019,6.019,0,0,1-7.342-9.54,6.575,6.575,0,0,1,.637-.429,42.24,42.24,0,0,1,7.717-3.794,24.788,24.788,0,0,1,9.162-1.539,29.264,29.264,0,0,1,8.494,1.734,26.968,26.968,0,0,0,6,1.579l.223.019a4.086,4.086,0,0,1-.106,8.151Z"/><path fill="#462e4c" d="M256,212.485c-13.609,0-20.094-9.871-21.625-19.11a10.316,10.316,0,0,1,2.347-8.362,11.335,11.335,0,0,1,8.681-3.955H266.6a11.335,11.335,0,0,1,8.681,3.955,10.315,10.315,0,0,1,2.347,8.361C276.094,202.614,269.609,212.485,256,212.485Zm-9.437-19.427c1.3,4.93,4.465,7.427,9.437,7.427s8.14-2.5,9.437-7.427Z"/><path fill="#462e4c" d="M409.535,454.412c22.811-26.363,32.858-55.03,30.673-87.413-2.062-30.544-14.141-60.242-26.93-91.683-11.323-27.837-23.031-56.622-26.991-85.79-8-58.919-21.182-102.368-40.3-132.831C324.051,21.754,293.778,4.037,256,4.037S187.957,21.754,166.024,56.7c-19.121,30.463-32.3,73.912-40.3,132.831-3.96,29.168-15.668,57.953-26.991,85.79C85.941,306.757,73.861,336.455,71.8,367c-2.185,32.38,7.86,61.044,30.666,87.4-1.334,13.357-3.8,41.606-3.8,41.606a11,11,0,0,0,10.959,11.957H402.374a11,11,0,0,0,10.959-11.957S410.869,467.766,409.535,454.412Zm-248.4,41.555-8.817-142a6,6,0,1,0-11.977.744l8.771,141.261h-38.4s13.752-157.8,36.509-188.385c4.224-5.679,11.819-11.307,21.372-16.237-4.135,12.882-5.72,25.629-5.7,28.759.021,3.153,1.813,5.44,4.983,7.36a1.048,1.048,0,0,1,.111,1.728c-4.661,3.586-7.927,7.793-7.149,12.865,6.7,43.684,41.839,103.669,57.441,128.632,1.291,8.6,2.5,17,3.617,25.278Zm24.543-171.13a8.213,8.213,0,0,0-5.23-5.017c-1.223-.409-2.238-.781-3.077-1.112a3.179,3.179,0,0,1-1.989-3.414c1.268-8.809,5.089-26.893,12.457-37.033a6.978,6.978,0,0,1,4.06-2.684l8.369-1.959a1.656,1.656,0,0,1,2.03,1.757c-4.562,54.227,3.266,111.688,11.162,163.7-15.278-27.017-35.042-66.235-40.373-96.493a3.146,3.146,0,0,1,1.028-2.916A46.729,46.729,0,0,1,182,334.472,8.021,8.021,0,0,0,185.682,324.837Zm54.5-80.246c1.391.454,6.618,2.113,7.8,2.5a25.622,25.622,0,0,0,16.043,0c1.182-.392,6.411-2.052,7.8-2.507,1.776,16.478,10.44,27.172,25.889,31.867.429,6.119.58,13.163.5,20.9-10.56,5.8-27.017,9.655-42.219,9.655s-31.656-3.854-42.216-9.654c-.078-7.738.073-14.783.5-20.9C229.733,271.759,238.4,261.069,240.178,244.591Zm-32.849-34.062c-10.475-14.079-16.774-36.571-16.442-58.7a16.842,16.842,0,0,1,.582-4.1c4.873-18.185,18.489-26.41,35.727-36.822,15.958-9.639,34-20.538,50.372-41.787a.737.737,0,0,1,1.276.192c7.97,21.34,18.291,35.771,26.624,47.423,8.8,12.3,15.15,21.183,15.582,32.677.861,22.96-5.414,46.379-16.379,61.118-10.773,14.482-28.624,20.145-40.436,23.893-1.429.453-2.768.878-4,1.287a13.418,13.418,0,0,1-8.47,0c-1.232-.409-2.572-.835-4-1.288C235.953,230.674,218.1,225.011,207.329,210.529Zm26.64,285.438c-3.5-24.485-17.466-121.033-19.859-185.169,13.132,5.611,29.3,8.21,41.89,8.21s28.759-2.583,41.893-8.185c-2.4,64.6-16.547,161.916-19.866,185.144Zm128.915,0,8.771-141.261a6,6,0,1,0-11.977-.744l-8.817,142.005H290.1c1.112-8.278,2.324-16.672,3.615-25.278,15.6-24.963,50.744-84.948,57.441-128.632.778-5.072-2.488-9.279-7.149-12.865a1.048,1.048,0,0,1,.111-1.728c3.17-1.92,4.962-4.207,4.983-7.36.02-3.131-1.567-15.892-5.707-28.782,9.559,4.936,17.151,10.577,21.379,16.26,22.757,30.585,36.509,188.385,36.509,188.385ZM309.7,275.375a1.656,1.656,0,0,1,2.03-1.757l8.369,1.959a6.984,6.984,0,0,1,4.061,2.684c7.367,10.141,11.188,28.224,12.456,37.033a3.179,3.179,0,0,1-1.989,3.414c-.838.331-1.854.7-3.077,1.112a8.213,8.213,0,0,0-5.23,5.017A8.021,8.021,0,0,0,330,334.472a46.729,46.729,0,0,1,7.881,5.195,3.147,3.147,0,0,1,1.028,2.917c-5.331,30.257-25.095,69.475-40.373,96.492C306.432,387.066,314.258,329.6,309.7,275.375Zm64.7,25.043c-7.764-10.436-22.268-19.121-38.055-25.4-.786-1.332-1.609-2.614-2.481-3.814a18.98,18.98,0,0,0-11.033-7.314l-11.959-2.8a11.009,11.009,0,0,0-9.738,2.422,10.7,10.7,0,0,0-1.062,1.079c-10.767-3.7-16-11.437-16.547-24.3,10.6-4.447,22.313-11.232,30.772-22.6a82.079,82.079,0,0,0,9.139-16.066q1.694.126,3.282.127c12.52,0,20.177-5.449,24.583-10.5,9.278-10.646,10.328-26.184,8.116-33.334a23.651,23.651,0,0,0-14.6-15.743,25.414,25.414,0,0,0-12.791-1.1c-2.508-11.331-9.226-20.735-16.794-31.317-8.545-11.946-18.229-25.488-25.716-46.2a11.748,11.748,0,0,0-20.439-3.09c-15.263,20.347-32.7,30.878-48.082,40.17-17.086,10.321-33.265,20.106-40.1,40.629a25.606,25.606,0,0,0-13.736.964,23.583,23.583,0,0,0-14.578,15.687c-2.212,7.15-1.162,22.688,8.116,33.334,4.406,5.056,12.061,10.5,24.583,10.5,1.044,0,2.131-.047,3.243-.127a82.665,82.665,0,0,0,9.178,16.066c8.459,11.371,20.174,18.156,30.772,22.6-.547,12.863-5.78,20.6-16.547,24.3a10.7,10.7,0,0,0-1.062-1.079,11.01,11.01,0,0,0-9.739-2.422l-11.959,2.8a18.981,18.981,0,0,0-11.032,7.314c-.869,1.2-1.689,2.473-2.473,3.8-15.791,6.275-30.3,14.971-38.063,25.409-17.857,24-27.622,85.483-33.34,136.953-37.481-51.61-16.515-103.194,5.588-157.534,11.6-28.527,23.6-58.026,27.766-88.7,7.764-57.19,20.382-99.081,38.576-128.066C196.055,31.423,222.164,16.037,256,16.037s59.949,15.386,79.816,47.038c18.194,28.985,30.812,70.876,38.576,128.066,4.164,30.67,16.162,60.169,27.766,88.7,22.1,54.343,43.07,105.929,5.581,157.542C402.025,385.907,392.26,324.42,374.4,300.418Zm-31.883-133.43a6.006,6.006,0,0,0-6.427-5.541,29.755,29.755,0,0,0-3.265.454c.195-2.932.3-5.873.287-8.814a13.032,13.032,0,0,1,7.6.361,11.621,11.621,0,0,1,7.244,8.013c.965,3.122.676,14.587-5.7,21.9-3.491,4.006-8.337,6.124-14.447,6.352a122.421,122.421,0,0,0,3.476-14.823,17.783,17.783,0,0,1,5.692-1.478A6,6,0,0,0,342.519,166.988Zm-167.5,6.427a17.966,17.966,0,0,1,5.633,1.445,120.51,120.51,0,0,0,3.489,14.858c-6.089-.237-10.918-2.359-14.4-6.354-6.375-7.316-6.664-18.781-5.7-21.9a11.553,11.553,0,0,1,7.216-7.957,13.289,13.289,0,0,1,7.633-.4q-.015,4.413.266,8.791a29.073,29.073,0,0,0-3.251-.452,6,6,0,0,0-.886,11.968Z"/><circle cx="294.75" cy="149.333" r="9.167" fill="#462e4c"/><path fill="#462e4c" d="M235.635,123.436a67.516,67.516,0,0,1-11.045-.3c-3.449-.293-6.735-.666-9.857-.792a37.511,37.511,0,0,0-8.667.448,16.191,16.191,0,0,0-7.007,3.086l-.25.193a4.3,4.3,0,0,1-6.244-5.721,19.079,19.079,0,0,1,4.515-4.838,23.018,23.018,0,0,1,5.793-3.151,36.357,36.357,0,0,1,11.942-2.071,87.73,87.73,0,0,1,10.937.554c3.459.349,6.772.765,9.747,1.012l.182.015a5.8,5.8,0,0,1-.046,11.566Z"/><path fill="#462e4c" d="M200.293,136.534a26.968,26.968,0,0,0,6-1.579,29.264,29.264,0,0,1,8.494-1.734,24.788,24.788,0,0,1,9.162,1.539,42.24,42.24,0,0,1,7.717,3.794,6.019,6.019,0,1,1-6.068,10.4,6.16,6.16,0,0,1-.61-.407l-.227-.176a31.45,31.45,0,0,0-5.064-3.417,14.4,14.4,0,0,0-5.088-1.646,19.475,19.475,0,0,0-5.987.476,33.237,33.237,0,0,1-8.443.923,4.086,4.086,0,0,1-.107-8.151Z"/><circle cx="217.25" cy="149.333" r="9.167" fill="#462e4c"/></svg>