<?xml version="1.0" encoding="iso-8859-1"?>
<!-- Generator: Adobe Illustrator 24.1.0, SVG Export Plug-In . SVG Version: 6.00 Build 0)  -->
<svg version="1.1" id="Layer_2" xmlns="http://www.w3.org/2000/svg" xmlns:xlink="http://www.w3.org/1999/xlink" x="0px" y="0px"
	 viewBox="0 0 48 48" style="enable-background:new 0 0 48 48;" xml:space="preserve">
<radialGradient id="SVGID_1_" cx="23.6171" cy="27.9528" r="21.3384" gradientUnits="userSpaceOnUse">
	<stop  offset="0.3757" style="stop-color:#261103"/>
	<stop  offset="0.6798" style="stop-color:#431D06"/>
	<stop  offset="1" style="stop-color:#662C09"/>
</radialGradient>
<path style="fill:url(#SVGID_1_);" d="M24,8.645c-16.026,0-20,25.877-20,25.877c0,4.607,2.139,8.643,6.62,9.713
	C14.457,45.151,19.286,46,24,46s9.543-0.849,13.38-1.766c4.481-1.07,6.62-5.106,6.62-9.713C44,34.521,40.026,8.645,24,8.645z"/>
<radialGradient id="SVGID_2_" cx="-252.6897" cy="6.4138" r="16.7576" gradientTransform="matrix(-0.9667 0 0 0.9667 -220.2667 19.6667)" gradientUnits="userSpaceOnUse">
	<stop  offset="0" style="stop-color:#FFCF54"/>
	<stop  offset="0.2609" style="stop-color:#FDCB4D"/>
	<stop  offset="0.6392" style="stop-color:#F7C13A"/>
	<stop  offset="1" style="stop-color:#F0B421"/>
</radialGradient>
<path style="fill:url(#SVGID_2_);" d="M24,7.733c6.908,0,14,2.8,14,17.733c0,1.195,0,4.525,0,5.802C38,36.6,29.426,44,24,44
	s-14-7.4-14-12.731c0-1.277,0-4.607,0-5.802C10,10.533,17.092,7.733,24,7.733z"/>
<radialGradient id="SVGID_3_" cx="13.053" cy="3.729" r="49.7567" gradientUnits="userSpaceOnUse">
	<stop  offset="1.987454e-04" style="stop-color:#C26715"/>
	<stop  offset="0.5078" style="stop-color:#B85515"/>
	<stop  offset="1" style="stop-color:#AD3F16"/>
</radialGradient>
<path style="fill:url(#SVGID_3_);" d="M24,3c-7.982,0-10,5-10,5C10.755,8.479,4,12.978,4,34.505c0,5.848,2.928,7.995,4,8.62
	c-7.76-22.812,10.021-20.171,7.375-32.872c7.62,16.934,32.175,1.963,25.349,32.338C42.58,41.18,44,38.349,44,34.505
	C44,13.265,35.383,3,24,3z"/>
</svg>