<?xml version="1.0" encoding="iso-8859-1"?>
<!-- Generator: Adobe Illustrator 20.0.0, SVG Export Plug-In . SVG Version: 6.00 Build 0)  -->
<svg version="1.1" id="Layer_1" xmlns="http://www.w3.org/2000/svg" xmlns:xlink="http://www.w3.org/1999/xlink" x="0px" y="0px"
	 viewBox="0 0 80 80" style="enable-background:new 0 0 80 80;" xml:space="preserve">
<g>
	<g>
		<path style="fill:#FFEEA3;" d="M18.942,36.165l-0.202-0.046c-0.334-0.077-0.666-0.155-0.989-0.254l-0.199-0.061l-5.08,2.701
			L12.27,32.73l-0.151-0.141c-0.244-0.228-0.479-0.463-0.707-0.708L11.27,31.73l-5.772-0.202l2.7-5.08l-0.061-0.198
			c-0.1-0.325-0.179-0.657-0.255-0.991l-0.046-0.202L2.943,22l4.893-3.058l0.046-0.202c0.076-0.334,0.155-0.667,0.255-0.991
			l0.061-0.198l-2.7-5.08l5.772-0.202l0.142-0.152c0.228-0.245,0.463-0.48,0.707-0.708l0.151-0.141l0.202-5.772l5.08,2.701
			l0.199-0.061c0.323-0.1,0.655-0.178,0.989-0.254l0.202-0.046L22,2.943l3.058,4.892l0.202,0.046
			c0.334,0.077,0.666,0.155,0.989,0.254l0.199,0.061l5.08-2.701l0.202,5.772l0.151,0.141c0.244,0.228,0.479,0.463,0.707,0.708
			l0.142,0.152l5.772,0.202l-2.7,5.08l0.061,0.198c0.1,0.325,0.179,0.657,0.255,0.991l0.046,0.202L41.057,22l-4.893,3.058
			l-0.046,0.202c-0.076,0.334-0.155,0.667-0.255,0.991l-0.061,0.198l2.7,5.08L32.73,31.73l-0.142,0.152
			c-0.228,0.245-0.463,0.48-0.707,0.708L31.73,32.73l-0.202,5.773l-5.08-2.701l-0.199,0.061c-0.323,0.1-0.655,0.178-0.989,0.254
			l-0.202,0.046L22,41.057L18.942,36.165z"/>
	</g>
	<g>
		<path style="fill:#BA9B48;" d="M22,3.887l2.524,4.038l0.22,0.352l0.404,0.093c0.331,0.076,0.652,0.152,0.957,0.245L26.5,8.736
			l0.366-0.195l4.19-2.228l0.167,4.766l0.014,0.414l0.303,0.282c0.235,0.219,0.465,0.449,0.684,0.684l0.282,0.303l0.414,0.014
			l4.766,0.167l-2.228,4.19L35.264,17.5l0.121,0.396c0.094,0.306,0.169,0.627,0.245,0.957l0.093,0.404l0.352,0.22L40.113,22
			l-4.038,2.523l-0.352,0.22l-0.093,0.404c-0.076,0.33-0.152,0.651-0.245,0.957L35.264,26.5l0.195,0.366l2.227,4.19l-4.766,0.167
			l-0.414,0.014l-0.282,0.303c-0.219,0.235-0.449,0.465-0.684,0.684l-0.303,0.282l-0.014,0.414l-0.167,4.766l-4.19-2.228
			L26.5,35.264l-0.396,0.121c-0.303,0.093-0.626,0.169-0.957,0.245l-0.404,0.093l-0.22,0.352L22,40.113l-2.523-4.038l-0.22-0.352
			l-0.404-0.093c-0.331-0.076-0.654-0.152-0.957-0.245L17.5,35.264l-0.366,0.195l-4.19,2.228l-0.167-4.766l-0.014-0.414
			l-0.303-0.282c-0.235-0.219-0.465-0.449-0.684-0.684l-0.282-0.303l-0.414-0.014l-4.766-0.167l2.227-4.19L8.736,26.5l-0.121-0.396
			c-0.094-0.306-0.169-0.627-0.245-0.957l-0.093-0.404l-0.352-0.22L3.887,22l4.038-2.523l0.352-0.22l0.093-0.404
			c0.076-0.33,0.152-0.651,0.245-0.957L8.736,17.5l-0.195-0.366l-2.228-4.19l4.766-0.167l0.414-0.014l0.282-0.303
			c0.219-0.235,0.449-0.465,0.684-0.684l0.303-0.282l0.014-0.414l0.167-4.766l4.19,2.228L17.5,8.736l0.396-0.121
			c0.304-0.093,0.626-0.169,0.957-0.245l0.404-0.093l0.22-0.352L22,3.887 M22,2l-3.372,5.394c-0.345,0.079-0.69,0.161-1.025,0.264
			L12,4.679l-0.223,6.365c-0.253,0.236-0.497,0.48-0.732,0.732L4.68,12l2.979,5.603c-0.103,0.336-0.184,0.68-0.264,1.025L2,22
			l5.394,3.371c0.079,0.345,0.161,0.69,0.264,1.025L4.68,32l6.365,0.223c0.236,0.253,0.48,0.497,0.732,0.732L12,39.32l5.603-2.979
			c0.336,0.103,0.68,0.184,1.026,0.264L22,42l3.371-5.394c0.345-0.079,0.69-0.161,1.026-0.264L32,39.32l0.223-6.365
			c0.253-0.236,0.497-0.48,0.732-0.732L39.32,32l-2.979-5.603c0.103-0.336,0.184-0.68,0.264-1.025L42,22l-5.394-3.371
			c-0.079-0.345-0.161-0.69-0.264-1.025L39.32,12l-6.365-0.223c-0.236-0.253-0.48-0.497-0.732-0.732L32,4.679l-5.603,2.979
			c-0.336-0.103-0.68-0.184-1.025-0.264L22,2L22,2z"/>
	</g>
</g>
<circle style="fill:#F5CE85;" cx="22" cy="22" r="10"/>
<g>
	<path style="fill:#BAE0BD;" d="M2.5,77.5V34.8c2.19-1.234,20.532-10.528,75-10.585V77.5H2.5z"/>
	<g>
		<path style="fill:#5E9C76;" d="M77,24.715V77H3V35.094c1.363-0.735,5.891-2.909,15.198-5.06
			C28.579,27.633,47.175,24.778,77,24.715 M78,23.714c-59.375,0-76,10.8-76,10.8V78h76V23.714L78,23.714z"/>
	</g>
</g>
<path style="fill:#93CC97;" d="M32.77,27.414c-1.579,0.218-3.075,0.443-4.491,0.671C19.314,34.695,3,51.426,3,62.5V76
	C3.516,53.912,22.818,35.01,32.77,27.414z"/>
<path style="fill:#93CC97;" d="M52.233,25.493c-1.238,0.08-2.441,0.166-3.62,0.256C37.866,33.784,18,56.007,18,77h5.429
	C23.429,54.359,42.307,33.595,52.233,25.493z"/>
<path style="fill:#93CC97;" d="M67.081,24.846c-1.03,0.025-2.049,0.053-3.048,0.085C57.57,30.217,38,50.08,38,77h5.429
	C43.429,49.791,61.439,29.975,67.081,24.846z"/>
<path style="fill:#93CC97;" d="M73.23,24.74C69.351,29.69,56,49.456,56,77h5.429c0-27.585,11.418-47.338,14.705-52.28
	C75.153,24.724,74.186,24.731,73.23,24.74z"/>
</svg>