<svg xmlns="http://www.w3.org/2000/svg"  viewBox="0 0 64 64" width="100px" height="100px"><g data-name="24-pirate flag"><path fill="#3c3b40" d="M5,59v4H2V58.73A2,2,0,0,0,3,59Z"/><rect width="3" height="6" x="2" y="41" fill="#3c3b40"/><rect width="3" height="6" x="2" y="31" fill="#3c3b40"/><rect width="3" height="6" x="2" y="21" fill="#3c3b40"/><path fill="#b92942" d="M6,3.5V5.33A1.673,1.673,0,0,1,4.33,7H2.67A1.673,1.673,0,0,1,1,5.33V3.5a2.5,2.5,0,1,1,5,0Z"/><path fill="#b92942" d="M8,11.73V14a3,3,0,0,1-3,3V12A25.449,25.449,0,0,0,8,11.73Z"/><path fill="#fffffd" d="M6,51a2.006,2.006,0,0,1,2,2,2.015,2.015,0,0,1-2,2H5V51Z"/><path fill="#fffffd" d="M5,41a3,3,0,0,1,0,6Z"/><path fill="#fffffd" d="M5,31a3,3,0,0,1,0,6Z"/><path fill="#fffffd" d="M5,21a3,3,0,0,1,0,6Z"/><path fill="#323236" d="M48.38,30.38a57.459,57.459,0,0,0,7.61-12.36A43.536,43.536,0,0,1,38.07,43.86,30.227,30.227,0,0,1,34,42.25,42.465,42.465,0,0,0,48.38,30.38Z"/><path fill="#323236" d="M29.93,43.86c1.41.99,2.79,1.84,4.07,2.56A42.41,42.41,0,0,1,26,50v-.57a8.84,8.84,0,0,0-1.15-4.35L25,45A29.776,29.776,0,0,0,29.93,43.86Z"/><path fill="#b92942" d="M2,58.73a1.813,1.813,0,0,1-.41-.32A1.955,1.955,0,0,1,1,57a2.006,2.006,0,0,1,2-2H6a2.015,2.015,0,0,0,2-2,2.006,2.006,0,0,0-2-2H2a1,1,0,0,1-1-1V48a1,1,0,0,1,1-1H5a3,3,0,0,0,0-6H2a1,1,0,0,1-1-1V38a1,1,0,0,1,1-1H5a3,3,0,0,0,0-6H2a1,1,0,0,1-1-1V28a1,1,0,0,1,1-1H5a3,3,0,0,0,0-6H2a1,1,0,0,1-1-1V18a1,1,0,0,1,1-1H5a3,3,0,0,0,3-3V11.73c3.59-.48,8.99-1.45,15-1.73h5c10,0,13.44,2,20,2,7,0,13,0,15,4,0,0-5,4-5,10s4,11,4,20a25.215,25.215,0,0,1-5,15H52a57.9,57.9,0,0,1-11.86-1.71A58.752,58.752,0,0,0,18.12,58,105.385,105.385,0,0,1,6,59H3A2,2,0,0,1,2,58.73ZM55.99,18.02a57.459,57.459,0,0,1-7.61,12.36A42.465,42.465,0,0,1,34,42.25,42.465,42.465,0,0,1,19.62,30.38a57.459,57.459,0,0,1-7.61-12.36A43.536,43.536,0,0,0,29.93,43.86,29.776,29.776,0,0,1,25,45l-.15.08c-.03-.06-.07-.11-.1-.17A6.025,6.025,0,0,0,19.6,42H19a2,2,0,0,0,0,4H14a2,2,0,1,0-2,2v1a2,2,0,1,0,2,2h8a2.989,2.989,0,0,0,2.6,2.96A1.752,1.752,0,0,0,25,54a2.006,2.006,0,0,0,2-2,1.968,1.968,0,0,0-1-1.72V50a42.41,42.41,0,0,0,8-3.58A42.41,42.41,0,0,0,42,50v.28A1.968,1.968,0,0,0,41,52a2.006,2.006,0,0,0,2,2,1.752,1.752,0,0,0,.4-.04A2.989,2.989,0,0,0,46,51h8a2,2,0,1,0,2-2V48a2,2,0,1,0-2-2H49a2,2,0,0,0,0-4h-.6a6.025,6.025,0,0,0-5.15,2.91c-.03.06-.07.11-.1.17L43,45a29.776,29.776,0,0,1-4.93-1.14A43.536,43.536,0,0,0,55.99,18.02ZM42,28V21c0-3.99-3.58-7-8-7a8.647,8.647,0,0,0-5.66,2A6.582,6.582,0,0,0,26,21v7l2,1v4l2.42,4.03a2,2,0,0,0,1.71.97h3.74a2,2,0,0,0,1.71-.97L40,33V29Z"/><path fill="#323236" d="M56,44a2,2,0,0,1,0,4v1a2,2,0,1,1-2,2H46V49.61a2.993,2.993,0,0,1,1.34-2.5L49,46h5A2.006,2.006,0,0,1,56,44Z"/><path fill="#de9937" d="M49,42a2,2,0,0,1,0,4l-1.66,1.11A2.993,2.993,0,0,0,46,49.61V51a2.989,2.989,0,0,1-2.6,2.96A1.752,1.752,0,0,1,43,54a2.006,2.006,0,0,1-2-2,1.968,1.968,0,0,1,1-1.72v-.85a8.84,8.84,0,0,1,1.15-4.35c.03-.06.07-.11.1-.17A6.025,6.025,0,0,1,48.4,42Z"/><path fill="#262629" d="M43,45l.15.08A8.84,8.84,0,0,0,42,49.43V50a42.41,42.41,0,0,1-8-3.58c-1.28-.72-2.66-1.57-4.07-2.56A43.536,43.536,0,0,1,12.01,18.02a57.459,57.459,0,0,0,7.61,12.36A42.465,42.465,0,0,0,34,42.25a30.227,30.227,0,0,0,4.07,1.61A29.776,29.776,0,0,0,43,45Z"/><path fill="#c9882d" d="M27,52a2.006,2.006,0,0,1-2,2,1.752,1.752,0,0,1-.4-.04A2.989,2.989,0,0,1,22,51V49.61a2.993,2.993,0,0,0-1.34-2.5L19,46a2,2,0,0,1,0-4h.6a6.025,6.025,0,0,1,5.15,2.91c.03.06.07.11.1.17A8.84,8.84,0,0,1,26,49.43v.85A1.968,1.968,0,0,1,27,52Z"/><path fill="#262629" d="M22,49.61V51H14a2,2,0,1,1-2-2V48a2,2,0,1,1,2-2h5l1.66,1.11A2.993,2.993,0,0,1,22,49.61Z"/><path fill="#fffffd" d="M8,11.73V14a3,3,0,0,1-3,3V12A25.449,25.449,0,0,0,8,11.73Z"/><path fill="#3c3b40" d="M5,59v4H2V58.73A2,2,0,0,0,3,59Z"/><path fill="#3c3b40" d="M5,51v4H3a2,2,0,0,0-1,.27V51Z"/><rect width="3" height="6" x="2" y="41" fill="#3c3b40"/><rect width="3" height="6" x="2" y="31" fill="#3c3b40"/><rect width="3" height="6" x="2" y="21" fill="#3c3b40"/><path fill="#3c3b40" d="M5,12v5H2V10.73A2,2,0,0,0,3,11H4a2,2,0,0,0,1-.27Z"/><path fill="#ded5d6" d="M36,35l4-3v1l-2.42,4.03a2,2,0,0,1-1.71.97H32.13a2,2,0,0,1-1.71-.97L28,33V32l4,3h4Z"/><path fill="#ded5d6" d="M40,29v3l-4,3H32l-4-3V29l2-1,1,3.15,2.05.69a2.944,2.944,0,0,0,1.9,0L37,31.15,38,28Z"/><path fill="#ded5d6" d="M38,28l-1,3.15-2.05.69a2.944,2.944,0,0,1-1.9,0L31,31.15,30,28l-2,1-2-1V21a6.582,6.582,0,0,1,2.34-5A8.647,8.647,0,0,1,34,14c4.42,0,8,3.01,8,7v7l-2,1Z"/><path fill="#323236" d="M40,23.567a1.554,1.554,0,0,1-.264.867l-.648.961a1.4,1.4,0,0,1-1.446.573,5.338,5.338,0,0,1-1.83-.773,1.291,1.291,0,0,1-.36-.354,1.33,1.33,0,0,1-.252-.78v-.7A1.364,1.364,0,0,1,36.574,22h1.848A1.574,1.574,0,0,1,40,23.567Z"/><path fill="#323236" d="M28,23.567a1.554,1.554,0,0,0,.264.867l.648.961a1.4,1.4,0,0,0,1.446.573,5.338,5.338,0,0,0,1.83-.773,1.291,1.291,0,0,0,.36-.354,1.33,1.33,0,0,0,.252-.78v-.7A1.364,1.364,0,0,0,31.426,22H29.578A1.574,1.574,0,0,0,28,23.567Z"/><polygon fill="#b3adad" points="32 35 28 32 28 33 32 36 32 35"/><path fill="#d4cbcc" d="M28,33l2.42,4.03a1.99,1.99,0,0,0,1.58.953V36Z"/><polygon fill="#c9c3c3" points="36 36 36 35 34 35 32 35 32 36 36 36"/><polygon fill="#b3adad" points="36 35 36 36 40 33 40 32 36 35"/><path fill="#d4cbcc" d="M36,37.983a1.99,1.99,0,0,0,1.58-.953L40,33l-4,3Z"/><path fill="#ded5d6" d="M32,36v1.983c.044,0,.086.017.13.017h3.74c.044,0,.086-.014.13-.017V36Z"/><polygon fill="#b3adad" points="26 24.2 26 25 26 26 26 28 28 29 30 28 30 25 26 24.2"/><polygon fill="#b3adad" points="42 24.2 42 25 42 26 42 28 40 29 38 28 38 25 42 24.2"/><path fill="#323236" d="M40,23.567a1.554,1.554,0,0,1-.264.867l-.648.961a1.4,1.4,0,0,1-1.446.573,5.338,5.338,0,0,1-1.83-.773,1.291,1.291,0,0,1-.36-.354,1.33,1.33,0,0,1-.252-.78v-.7A1.364,1.364,0,0,1,36.574,22h1.848A1.574,1.574,0,0,1,40,23.567Z"/><path fill="#323236" d="M28,23.567a1.554,1.554,0,0,0,.264.867l.648.961a1.4,1.4,0,0,0,1.446.573,5.338,5.338,0,0,0,1.83-.773,1.291,1.291,0,0,0,.36-.354,1.33,1.33,0,0,0,.252-.78v-.7A1.364,1.364,0,0,0,31.426,22H29.578A1.574,1.574,0,0,0,28,23.567Z"/><path fill="#3c3b40" d="M4,7A2.006,2.006,0,0,1,6,9a2.015,2.015,0,0,1-2,2H3A2.006,2.006,0,0,1,1,9a1.955,1.955,0,0,1,.59-1.41A1.955,1.955,0,0,1,3,7Z"/><path fill="#ef394f" d="M6,3.5a2.5,2.5,0,0,0-5,0V5.33c0,.029.007.056.009.085a2.492,2.492,0,0,1,4.982,0c0-.029.009-.056.009-.085Z"/><path fill="#ffaf3f" d="M43,52.28v-.85a8.84,8.84,0,0,1,1.15-4.35c.03-.06.07-.11.1-.17A6.025,6.025,0,0,1,49.4,44H50a1.963,1.963,0,0,1,.973.265A1.934,1.934,0,0,0,51,44a2.006,2.006,0,0,0-2-2h-.6a6.025,6.025,0,0,0-5.15,2.91c-.03.06-.07.11-.1.17A8.84,8.84,0,0,0,42,49.43v.85A1.968,1.968,0,0,0,41,52a2,2,0,0,0,1.035,1.74A1.955,1.955,0,0,1,43,52.28Z"/><path fill="#f0a53b" d="M26,50.28v-.85a8.84,8.84,0,0,0-1.15-4.35c-.03-.06-.07-.11-.1-.17A6.025,6.025,0,0,0,19.6,42H19a2.006,2.006,0,0,0-2,2,1.934,1.934,0,0,0,.027.265A1.963,1.963,0,0,1,18,44h.6a6.025,6.025,0,0,1,5.15,2.91c.03.06.07.11.1.17A8.84,8.84,0,0,1,25,51.43v.85a1.955,1.955,0,0,1,.965,1.46A2,2,0,0,0,27,52,1.968,1.968,0,0,0,26,50.28Z"/><path fill="#fff6f7" d="M34,14a8.647,8.647,0,0,0-5.66,2A6.582,6.582,0,0,0,26,21v2a6.582,6.582,0,0,1,2.34-5A8.647,8.647,0,0,1,34,16c4.42,0,8,3.01,8,7V21C42,17.01,38.42,14,34,14Z"/><path fill="#545359" d="M35,29.5a.5.5,0,0,1-.447-.276L34,28.118l-.553,1.106a.5.5,0,0,1-.894-.448l1-2a.521.521,0,0,1,.894,0l1,2A.5.5,0,0,1,35,29.5Z"/><path fill="#545359" d="M40,31v1l-4,3H32l-4-3V29l2-1,1,3.15,2.05.69a2.944,2.944,0,0,0,1.9,0L37,31.15,38,28l2,1Z"/><polygon fill="#323236" points="38 28 37 31.15 36.959 31.164 36 35 40 32 40 31 40 29 38 28"/><polygon fill="#323236" points="31 31.15 30 28 28 29 28 31 28 32 32 35 31.041 31.164 31 31.15"/><path fill="#0a0b0d" d="M38,28l-1,3.15-2.05.69a2.944,2.944,0,0,1-1.9,0L31,31.15,30,28l-2,1v1h1l1,2.15,3.05.69a2.944,2.944,0,0,0,1.9,0L38,32.15,39,30h1V29Z"/><polygon fill="#fff6f7" points="31 33 32 33 32 31.487 31 31.15 31 33"/><polygon fill="#fff6f7" points="32 34 31 34 31 34.25 32 35 32 34"/><polygon fill="#fff6f7" points="36 33 37 33 37 31.15 36 31.487 36 33"/><polygon fill="#fff6f7" points="37 34 36 34 36 35 37 34.25 37 34"/><polygon fill="#fff6f7" points="35 35 35 34 33 34 33 35 34 35 35 35"/><path fill="#fff6f7" d="M33.05,31.84,33,31.823V33h2V31.823l-.05.017A2.944,2.944,0,0,1,33.05,31.84Z"/><path fill="#0a0b0d" d="M36.574,23h1.848a1.553,1.553,0,0,1,1.488,1.068A1.563,1.563,0,0,0,38.422,22H36.574A1.364,1.364,0,0,0,35.2,23.361v.7c0,.04.015.077.019.117A1.36,1.36,0,0,1,36.574,23Z"/><path fill="#0a0b0d" d="M31.426,22H29.578a1.548,1.548,0,0,0-1.488,2.068A1.553,1.553,0,0,1,29.578,23h1.848a1.36,1.36,0,0,1,1.355,1.178c0-.04.019-.077.019-.117v-.7A1.364,1.364,0,0,0,31.426,22Z"/><path fill="#0a0b0d" d="M2,58.73V60H3a1,1,0,0,1,1,1v2H5V59H3A2,2,0,0,1,2,58.73Z"/><path fill="#0a0b0d" d="M2,52H3a1,1,0,0,1,1,1v2H5V51H2Z"/><path fill="#0a0b0d" d="M2,42H3a1,1,0,0,1,1,1v4H5V41H2Z"/><path fill="#0a0b0d" d="M2,32H3a1,1,0,0,1,1,1v4H5V31H2Z"/><path fill="#0a0b0d" d="M2,22H3a1,1,0,0,1,1,1v4H5V21H2Z"/><path fill="#0a0b0d" d="M4,11H3a2,2,0,0,1-1-.27V12H3a1,1,0,0,1,1,1v4H5V10.73A2,2,0,0,1,4,11Z"/><path fill="#262629" d="M56,49H51a1,1,0,0,1-.8-1.6L51.25,46H49l-1.66,1.11A2.993,2.993,0,0,0,46,49.61V51h8a2,2,0,1,0,2-2Z"/><path fill="#0a0b0d" d="M20.66,47.11,19,46H16.748l1.05,1.4A1,1,0,0,1,17,49H12a2,2,0,1,0,2,2h8V49.61A2.993,2.993,0,0,0,20.66,47.11Z"/><path fill="#b3adad" d="M38.529,45.6a2.029,2.029,0,0,0,2.236-1.016c-.919-.2-1.821-.437-2.695-.721A30.227,30.227,0,0,1,34,42.25,42.465,42.465,0,0,1,19.62,30.38a57.459,57.459,0,0,1-7.61-12.36l.005.018C12.325,18.833,21.435,41.815,38.529,45.6Z"/><path fill="#c9c3c3" d="M48.38,30.38A42.465,42.465,0,0,1,34,42.25q.959.457,1.955.857C48.863,36,55.717,18.726,55.985,18.038l.005-.018A57.459,57.459,0,0,1,48.38,30.38Z"/><path fill="#c9c3c3" d="M27.235,44.581A2.029,2.029,0,0,0,29.471,45.6c.738-.163,1.456-.374,2.165-.606-.562-.359-1.129-.726-1.706-1.131C29.056,44.144,28.154,44.378,27.235,44.581Z"/><ellipse cx="3.5" cy="3" fill="#ff596f" rx="1.5" ry="1"/><path fill="#a51f44" d="M62.313,16.627a17.223,17.223,0,0,0-5.792,3.157,14.975,14.975,0,0,0-1.429,1.4,42.442,42.442,0,0,1-3.762,8.478c-.027.35-.06.7-.057,1.05.039,4.266,2.2,8.518,1.158,12.655A8.948,8.948,0,0,1,51.262,46H54a2,2,0,1,1,2,2v1a2,2,0,1,1-2,2H46a2.989,2.989,0,0,1-2.6,2.96A1.752,1.752,0,0,1,43,54a2,2,0,0,1-1.991-1.907c-.989.214-1.989.39-2.986.545A101.3,101.3,0,0,1,25.945,53.75,1.97,1.97,0,0,1,25,54a1.752,1.752,0,0,1-.4-.04,2.99,2.99,0,0,1-.614-.157A122.5,122.5,0,0,1,8,52.982L8,53a2.015,2.015,0,0,1-2,2H3a2.006,2.006,0,0,0-2,2,1.955,1.955,0,0,0,.59,1.41,1.813,1.813,0,0,0,.41.32A2,2,0,0,0,3,59H6a105.385,105.385,0,0,0,12.12-1,58.752,58.752,0,0,1,22.02,1.29A57.9,57.9,0,0,0,52,61h5a25.215,25.215,0,0,0,5-15c0-9-4-14-4-20C58,21.39,60.945,17.969,62.313,16.627Z"/><path fill="#b92942" d="M42,50.28V50a42.41,42.41,0,0,1-8-3.58A42.41,42.41,0,0,1,26,50v.28A1.968,1.968,0,0,1,27,52a2,2,0,0,1-1.055,1.75,101.3,101.3,0,0,0,12.078-1.112c1-.155,2-.331,2.986-.545,0-.032-.009-.061-.009-.093A1.968,1.968,0,0,1,42,50.28Z"/><path fill="#b92942" d="M44.713,21.709c-.885,1.034-1.787,2.057-2.713,3.057V28l-2,1v4l-2.42,4.03a2,2,0,0,1-1.71.97H32.13a2,2,0,0,1-1.71-.97l-1.656-2.758A19.68,19.68,0,0,1,24.119,35.3,38.588,38.588,0,0,0,34,42.25,42.465,42.465,0,0,0,48.38,30.38a57.459,57.459,0,0,0,7.61-12.36c-.262,1.093-.571,2.138-.9,3.163a14.975,14.975,0,0,1,1.429-1.4,17.223,17.223,0,0,1,5.792-3.157C62.725,16.223,63,16,63,16c-1.258-2.516-4.1-3.448-7.777-3.795a17.155,17.155,0,0,0-2.675,1.559C49.512,15.93,47.137,18.875,44.713,21.709Z"/><path fill="#b92942" d="M23.986,53.8A2.975,2.975,0,0,1,22,51H14a2,2,0,1,1-2-2V48a2,2,0,1,1,2-2h5a2,2,0,0,1,0-4h.6a6.025,6.025,0,0,1,5.15,2.91c.03.06.07.11.1.17L25,45a29.776,29.776,0,0,0,4.93-1.14,46.648,46.648,0,0,1-9.374-8.609,14.066,14.066,0,0,1-8.608-4.183,27.616,27.616,0,0,1-4.006-6.5A3,3,0,0,1,5,27H2a1,1,0,0,0-1,1v2a1,1,0,0,0,1,1H5a3,3,0,0,1,0,6H2a1,1,0,0,0-1,1v2a1,1,0,0,0,1,1H5a3,3,0,0,1,0,6H2a1,1,0,0,0-1,1v2a1,1,0,0,0,1,1H6a2,2,0,0,1,2,1.982A122.5,122.5,0,0,0,23.986,53.8Z"/><path fill="#b92942" d="M38.07,43.86A29.776,29.776,0,0,0,43,45l.15.08c.03-.06.07-.11.1-.17A6.025,6.025,0,0,1,48.4,42H49a2,2,0,0,1,0,4h2.262a8.948,8.948,0,0,0,1.169-2.634c1.041-4.137-1.119-8.389-1.158-12.655,0-.351.03-.7.057-1.05A45.088,45.088,0,0,1,38.07,43.86Z"/><path fill="#a51f44" d="M1.617,17.078A1,1,0,0,0,1,18v2a1,1,0,0,0,1,1H5a2.986,2.986,0,0,1,1.022.19,13.6,13.6,0,0,0-1.966-2.367A11.878,11.878,0,0,0,1.617,17.078Z"/><path fill="#db2346" d="M20.556,35.251A42.432,42.432,0,0,1,12.01,18.02a57.459,57.459,0,0,0,7.61,12.36,50.687,50.687,0,0,0,4.5,4.916,19.68,19.68,0,0,0,4.645-1.024L28,33V29l-2-1V21a6.582,6.582,0,0,1,2.34-5A8.647,8.647,0,0,1,34,14c4.42,0,8,3.01,8,7v3.766c.926-1,1.828-2.023,2.713-3.057,2.424-2.834,4.8-5.779,7.835-7.945a17.155,17.155,0,0,1,2.675-1.559C53.055,12,50.6,12,48,12c-6.56,0-10-2-20-2H23c-6.01.28-11.41,1.25-15,1.73V14a3,3,0,0,1-3,3H2a.978.978,0,0,0-.383.078,11.878,11.878,0,0,1,2.439,1.745A13.6,13.6,0,0,1,6.022,21.19,2.988,2.988,0,0,1,8,24a2.949,2.949,0,0,1-.058.568,27.616,27.616,0,0,0,4.006,6.5A14.066,14.066,0,0,0,20.556,35.251Z"/><path fill="#ff405b" d="M20.9,12.3a8.006,8.006,0,0,0-3.856-.129,8,8,0,0,0-3.708.959A3.066,3.066,0,0,0,12.1,16.22a2.9,2.9,0,0,0,1.768,1.515,3.032,3.032,0,0,0,1.526.243,3.826,3.826,0,0,0,1.516-.72l4.244-2.86c.42-.283.887-.656.844-1.14S21.4,12.463,20.9,12.3Z"/><path fill="#ff405b" d="M24.117,12.79a4.8,4.8,0,0,0,1.394.2,6.578,6.578,0,0,0,3.213-.537.644.644,0,0,0,.232-.177c.117-.17-.018-.374-.2-.511a3.1,3.1,0,0,0-1.073-.43,8.3,8.3,0,0,0-3.953-.159C22.41,11.57,23.091,12.435,24.117,12.79Z"/><path fill="#ff405b" d="M49.98,13.856c-.112-.393-.83-.7-1.253-.808a2.513,2.513,0,0,0-1.552.23,8.416,8.416,0,0,0-2.359,1.95,2.593,2.593,0,0,0-.79,1.079.469.469,0,0,0,.088.475.685.685,0,0,0,.29.141,2.834,2.834,0,0,0,1.687-.127,7.482,7.482,0,0,0,1.453-.789l1.68-1.082C49.639,14.658,50.1,14.284,49.98,13.856Z"/><path fill="#545359" d="M3,10H4a1.955,1.955,0,0,0,1.41-.59A1.932,1.932,0,0,0,5.929,8.5,2,2,0,0,0,4,7H3a1.955,1.955,0,0,0-1.41.59,1.937,1.937,0,0,0-.519.909A2,2,0,0,0,3,10Z"/><path fill="#0a0b0d" d="M34,13a9.637,9.637,0,0,0-6.318,2.247A7.582,7.582,0,0,0,25,21v7a1,1,0,0,0,.553.895L27,29.618V33a1,1,0,0,0,.143.515l2.419,4.03a2.957,2.957,0,0,0,2.31,1.429A2.031,2.031,0,0,0,32.13,39h3.74a.745.745,0,0,0,.2-.02,2.989,2.989,0,0,0,2.371-1.435l2.42-4.03A1,1,0,0,0,41,33V29.618l1.447-.723A1,1,0,0,0,43,28V21C43,16.514,39.047,13,34,13Zm8,15-2,1v4l-2.42,4.03a1.99,1.99,0,0,1-1.58.953c-.044,0-.086.017-.13.017H32.13c-.044,0-.086-.014-.13-.017a1.99,1.99,0,0,1-1.58-.953L28,33V29l-2-1V21a6.582,6.582,0,0,1,2.34-5A8.647,8.647,0,0,1,34,14c4.42,0,8,3.01,8,7Z"/></g></svg>