<svg xmlns="http://www.w3.org/2000/svg"  viewBox="0 0 25 25" width="100px" height="100px"><path fill="#DE002A" d="M21.75,25h-7.031c-0.266,0-0.521-0.106-0.709-0.294l-6.17-6.201c-0.388-0.391-0.388-1.021,0.001-1.412 l6.171-6.188c0.188-0.188,0.443-0.295,0.709-0.295h7.029c0.404,0,0.769,0.243,0.923,0.616c0.155,0.373,0.07,0.803-0.214,1.089 L17,17.802l5.459,5.493c0.285,0.287,0.369,0.716,0.214,1.089C22.518,24.757,22.154,25,21.75,25z M15.135,23h4.211l-4.466-4.494 c-0.388-0.39-0.387-1.021,0-1.411l4.463-4.485h-4.208L9.961,17.8L15.135,23z"/><path fill="#583689" d="M6.778,17.046c-0.266,0-0.521-0.106-0.709-0.294l-3.528-3.546c-0.388-0.391-0.388-1.021,0-1.411 l11.457-11.5c0.233-0.234,0.555-0.327,0.858-0.283h6.878c0.404,0,0.768,0.243,0.923,0.616s0.07,0.803-0.214,1.089L7.487,16.751 C7.3,16.94,7.044,17.046,6.778,17.046z M4.661,12.501l2.117,2.127L19.33,2.011h-4.219L4.661,12.501z"/></svg>