<svg xmlns="http://www.w3.org/2000/svg"  viewBox="0 0 100 100" width="100px" height="100px"><path fill="#444445" d="M73,30v24c0,0,6-4.428,6-17V26c0-7.732-6.268-14-14-14H35c-7.732,0-14,6.268-14,14v11	c0,12.572,6,17,6,17V30c0-4.971,4.029-8,9-8c5,0,14,3,14,3s9-3,14-3C68.971,22,73,25.029,73,30z"/><path fill="#a0d2a1" d="M77.692,48.854h-1.009C74.994,52.513,73,54,73,54V30c0-4.971-4.029-8-9-8c-5,0-14,3-14,3s-9-3-14-3	c-4.971,0-9,3.029-9,8v24c0,0-1.994-1.487-3.683-5.146h-1.008C20.776,49.598,20,50.505,20,51.549c0,1.785,0.79,5.257,1.573,7.906	L21.79,60.2c0.717,2.484,1.457,5.05,3.685,5.685L26,66v6c0,3.75,10.5,18,24,18s24-14.25,24-18v-6l0.526-0.115	c2.228-0.635,2.968-3.2,3.685-5.685l0.217-0.745C79.21,56.806,80,53.334,80,51.549C80,50.505,79.224,49.598,77.692,48.854z"/><path fill="#fefdef" d="M64,22c-0.159,0-0.333,0.011-0.5,0.017V27.5c0,0.552,0.448,1,1,1h2c0.552,0,1-0.448,1-1v-4.95	C66.424,22.189,65.241,22,64,22z"/><path fill="#fefdef" d="M36,22c-1.241,0-2.424,0.189-3.5,0.55v4.95c0,0.552,0.448,1,1,1h2c0.552,0,1-0.448,1-1v-5.483	C36.333,22.011,36.159,22,36,22z"/><path fill="#1f212b" d="M73,55c-0.154,0-0.309-0.036-0.45-0.107C72.213,54.723,72,54.377,72,54V30c0-4.122-3.29-7-8-7	c-4.782,0-13.596,2.919-13.684,2.949c-0.205,0.068-0.428,0.068-0.633,0C49.596,25.919,40.779,23,36,23c-4.71,0-8,2.878-8,7v24	c0,0.377-0.213,0.723-0.55,0.893c-0.335,0.17-0.74,0.137-1.044-0.088C26.145,54.611,20,49.928,20,37V26c0-8.271,6.729-15,15-15h30	c8.271,0,15,6.729,15,15v11c0,12.928-6.145,17.611-6.406,17.805C73.419,54.934,73.21,55,73,55z M64,21c5.794,0,10,3.785,10,9v21.45	c1.653-2.228,4-6.747,4-14.45V26c0-7.168-5.832-13-13-13H35c-7.168,0-13,5.832-13,13v11c0,7.701,2.346,12.219,4,14.449V30	c0-5.215,4.206-9,10-9c4.627,0,12.324,2.406,14,2.948C51.676,23.406,59.373,21,64,21z"/><path fill="#1f212b" d="M66.5,29h-2c-0.827,0-1.5-0.673-1.5-1.5v-5.483c0-0.27,0.213-0.49,0.482-0.5l0.159-0.007	c0.123-0.005,0.244-0.01,0.359-0.01c1.289,0,2.521,0.194,3.659,0.576C67.862,22.145,68,22.335,68,22.55v4.95	C68,28.327,67.327,29,66.5,29z M64,22.5v5c0,0.276,0.225,0.5,0.5,0.5h2c0.275,0,0.5-0.224,0.5-0.5v-4.583	C66.06,22.64,65.053,22.5,64,22.5z"/><path fill="#1f212b" d="M35.5,29h-2c-0.827,0-1.5-0.673-1.5-1.5v-4.95c0-0.215,0.138-0.406,0.341-0.474	C33.479,21.694,34.711,21.5,36,21.5c0.115,0,0.236,0.005,0.358,0.011l0.159,0.007c0.27,0.009,0.482,0.23,0.482,0.5V27.5	C37,28.327,36.327,29,35.5,29z M33,22.917V27.5c0,0.276,0.225,0.5,0.5,0.5h2c0.275,0,0.5-0.224,0.5-0.5v-5	C34.947,22.5,33.94,22.64,33,22.917z"/><path fill="#1f212b" d="M66.302,51.715C66.283,51.698,64.449,50,60,50H40c-4.449,0-6.283,1.698-6.302,1.715l-1.405-1.422	C32.387,50.199,34.647,48,40,48h20c5.353,0,7.613,2.199,7.707,2.293L66.302,51.715z"/><path fill="#1f212b" d="M50,91c-13.752,0-25-14.345-25-19v-5.22c-2.615-0.906-3.44-3.768-4.172-6.302l-0.216-0.743	C19.869,57.218,19,53.561,19,51.549c0-1.459,0.966-2.668,2.871-3.594l0.875,1.799C21.949,50.141,21,50.766,21,51.549	c0,1.674,0.794,5.125,1.531,7.623l0.218,0.749c0.671,2.325,1.304,4.519,3,5.002l0.465,0.101C26.673,65.124,27,65.53,27,66v6	c0,3.332,10.332,17,23,17s23-13.668,23-17v-6c0-0.47,0.327-0.876,0.786-0.977l0.525-0.115c1.635-0.468,2.268-2.662,2.938-4.985	l0.218-0.747c0.739-2.5,1.533-5.951,1.533-7.627c0-0.783-0.949-1.408-1.746-1.795l0.875-1.799C80.034,48.88,81,50.09,81,51.549	c0,2.014-0.869,5.671-1.614,8.19L79.17,60.48c-0.735,2.55-1.567,5.434-4.17,6.305V72C75,76.655,63.752,91,50,91z"/><path fill="#1f212b" d="M48.5,41c-0.128,0-0.256-0.049-0.354-0.146l-9-9c-0.195-0.195-0.195-0.512,0-0.707	s0.512-0.195,0.707,0l9,9c0.195,0.195,0.195,0.512,0,0.707C48.756,40.951,48.628,41,48.5,41z"/><path fill="#1f212b" d="M73,37h-5c-0.553,0-1-0.448-1-1s0.447-1,1-1h5c0.553,0,1,0.448,1,1S73.553,37,73,37z"/><path fill="#1f212b" d="M73,43h-5c-0.553,0-1-0.448-1-1s0.447-1,1-1h5c0.553,0,1,0.448,1,1S73.553,43,73,43z"/><path fill="#1f212b" d="M32,37h-5c-0.553,0-1-0.448-1-1s0.447-1,1-1h5c0.553,0,1,0.448,1,1S32.553,37,32,37z"/><path fill="#1f212b" d="M32,43h-5c-0.553,0-1-0.448-1-1s0.447-1,1-1h5c0.553,0,1,0.448,1,1S32.553,43,32,43z"/><path fill="#1f212b" d="M52.5,17h-16c-0.276,0-0.5-0.224-0.5-0.5s0.224-0.5,0.5-0.5h16c0.276,0,0.5,0.224,0.5,0.5	S52.776,17,52.5,17z"/><path fill="#1f212b" d="M60.5,17h-3c-0.276,0-0.5-0.224-0.5-0.5s0.224-0.5,0.5-0.5h3c0.276,0,0.5,0.224,0.5,0.5	S60.776,17,60.5,17z"/><path fill="#1f212b" d="M63.5,17h-1c-0.276,0-0.5-0.224-0.5-0.5s0.224-0.5,0.5-0.5h1c0.276,0,0.5,0.224,0.5,0.5	S63.776,17,63.5,17z"/><path fill="#1f212b" d="M40.5,36c-0.128,0-0.256-0.049-0.354-0.146c-0.195-0.195-0.195-0.512,0-0.707l3-3	c0.195-0.195,0.512-0.195,0.707,0s0.195,0.512,0,0.707l-3,3C40.756,35.951,40.628,36,40.5,36z"/><path fill="#1f212b" d="M44.5,40c-0.128,0-0.256-0.049-0.354-0.146c-0.195-0.195-0.195-0.512,0-0.707l3-3	c0.195-0.195,0.512-0.195,0.707,0s0.195,0.512,0,0.707l-3,3C44.756,39.951,44.628,40,44.5,40z"/><path fill="#1f212b" d="M38.121,79.826c0.179,0.21,0.495,0.231,0.705,0.055c0.034-0.029,3.449-2.88,11.175-2.88	c7.686,0,11.142,2.852,11.176,2.881c0.21,0.177,0.525,0.152,0.704-0.057c0.162-0.191,0.149-0.464-0.01-0.647l0.007-0.006	c-0.149-0.171-3.743-4.171-11.876-4.171s-11.727,4-11.876,4.171l0.008,0.005C37.97,79.361,37.957,79.636,38.121,79.826z"/><path fill="#1f212b" d="M42,52c0,2.21-1.34,4-3,4s-3-1.79-3-4c0-0.1,0.02-0.19,0.02-0.29C36.13,52.44,36.74,53,37.5,53	c0.83,0,1.5-0.67,1.5-1.5S38.33,50,37.5,50v-0.82C38.23,49.07,39.06,49,40,49h0.97C41.59,49.73,42,50.8,42,52z"/><path fill="#1f212b" d="M64,52c0,2.21-1.34,4-3,4s-3-1.79-3-4c0-0.1,0.02-0.19,0.02-0.29C58.13,52.44,58.74,53,59.5,53	c0.83,0,1.5-0.67,1.5-1.5S60.33,50,59.5,50v-0.98c0-0.01,0-0.01,0.01-0.02H60c1.25,0,2.31,0.12,3.2,0.31C63.69,50.02,64,50.96,64,52	z"/><path fill="#1f212b" d="M50,71c-3.377,0-4.854-2.13-4.914-2.22c-0.155-0.229-0.095-0.54,0.135-0.694	c0.225-0.154,0.536-0.095,0.692,0.133C45.968,68.297,47.181,70,50,70c2.824,0,4.037-1.709,4.087-1.782	c0.158-0.228,0.469-0.285,0.694-0.13c0.228,0.155,0.287,0.463,0.133,0.691C54.854,68.87,53.377,71,50,71z"/></svg>