<svg xmlns="http://www.w3.org/2000/svg"  viewBox="0 0 100 100" width="100px" height="100px"><path d="M52,97.005c-1.688,0-3.368-0.413-4.862-1.193L16.64,79.884C13.161,78.067,11,74.501,11,70.577 V33.423c0-3.924,2.161-7.49,5.64-9.307L47.145,8.224c1.49-0.777,3.171-1.189,4.856-1.189c1.687,0,3.367,0.413,4.861,1.193 l30.493,15.885C90.839,25.933,93,29.499,93,33.423v37.153c0,3.924-2.161,7.49-5.64,9.307l-30.5,15.929 C55.368,96.592,53.687,97.005,52,97.005z" opacity=".35"/><path fill="#f2f2f2" d="M50,95.005c-1.688,0-3.368-0.413-4.862-1.193L14.64,77.884C11.161,76.067,9,72.501,9,68.577V31.423 c0-3.924,2.161-7.49,5.64-9.307L45.145,6.224c1.49-0.777,3.171-1.189,4.856-1.189c1.687,0,3.367,0.413,4.861,1.193l30.493,15.885 C88.839,23.933,91,27.499,91,31.423v37.153c0,3.924-2.161,7.49-5.64,9.307l-30.5,15.929C53.368,94.592,51.687,95.005,50,95.005z"/><path fill="#739f4d" d="M82.352,27.878l-30.5-15.889c-1.16-0.606-2.543-0.606-3.704,0l-30.5,15.889 c-1.32,0.69-2.148,2.056-2.148,3.546v37.154c0,1.49,0.828,2.856,2.148,3.546l30.5,15.928c1.16,0.606,2.543,0.606,3.704,0 l30.5-15.928c1.32-0.69,2.148-2.056,2.148-3.546V31.423C84.5,29.934,83.672,28.567,82.352,27.878z"/><polygon fill="#285e2c" points="50.011,46.101 50.011,88.034 84.258,70.236 84.393,29.921"/><path fill="#96c362" d="M80.945,27.842L51.771,12.946c-1.11-0.567-2.433-0.567-3.543,0L19.055,27.842 C17.792,28.487,17,29.765,17,31.159v-0.34c0,1.394,0.792,2.672,2.055,3.317l29.174,14.43c1.11,0.567,2.433,0.567,3.543,0 l29.174-14.43C82.208,33.491,83,32.213,83,30.819v0.34C83,29.765,82.208,28.487,80.945,27.842z"/><path fill="none" stroke="#40396e" stroke-linecap="round" stroke-linejoin="round" stroke-miterlimit="10" stroke-width="3" d="M82.352,27.878l-30.5-15.889c-1.16-0.606-2.543-0.606-3.704,0l-30.5,15.889c-1.32,0.69-2.148,2.056-2.148,3.546v37.154 c0,1.49,0.828,2.856,2.148,3.546l30.5,15.928c1.16,0.606,2.543,0.606,3.704,0l30.5-15.928c1.32-0.69,2.148-2.056,2.148-3.546 V31.423C84.5,29.934,83.672,28.567,82.352,27.878z"/><ellipse cx="50" cy="30" fill="#f2f2f2" rx="4" ry="3"/><path fill="#f2f2f2" d="M26,44.972c-0.004,1.749-1.123,2.513-2.502,1.707c-1.38-0.808-2.5-2.884-2.498-4.639 c0.001-1.756,1.125-2.522,2.507-1.709C24.888,41.143,26.004,43.221,26,44.972z"/><path fill="#f2f2f2" d="M44.994,76.973c-0.004,1.749-1.123,2.513-2.502,1.707c-1.38-0.808-2.5-2.884-2.498-4.639 c0.001-1.756,1.125-2.522,2.507-1.709C43.883,73.144,44.998,75.222,44.994,76.973z"/><path fill="#f2f2f2" d="M44.994,55.973c-0.004,1.749-1.123,2.513-2.502,1.707c-1.38-0.808-2.5-2.884-2.498-4.639 c0.001-1.756,1.125-2.522,2.507-1.709C43.883,52.144,44.998,54.222,44.994,55.973z"/><path fill="#f2f2f2" d="M26.013,66.992c-0.004,1.749-1.123,2.513-2.502,1.707c-1.38-0.808-2.5-2.884-2.498-4.639 c0.001-1.756,1.125-2.522,2.507-1.709C24.902,63.163,26.017,65.241,26.013,66.992z"/><path fill="#f2f2f2" d="M34.994,61.973c-0.004,1.749-1.123,2.513-2.502,1.707c-1.38-0.808-2.5-2.884-2.498-4.639 c0.001-1.756,1.125-2.522,2.507-1.709C33.883,58.144,34.998,60.222,34.994,61.973z"/><path fill="#f2f2f2" d="M78.994,64.035c-0.004-1.749-1.123-2.513-2.502-1.707c-1.38,0.808-2.5,2.884-2.498,4.639 c0.001,1.756,1.125,2.522,2.507,1.709C77.883,67.864,78.998,65.786,78.994,64.035z"/><path fill="#f2f2f2" d="M59.994,53.035c-0.004-1.749-1.123-2.513-2.502-1.707c-1.38,0.808-2.5,2.884-2.498,4.639 c0.001,1.756,1.125,2.522,2.507,1.709C58.883,56.864,59.998,54.786,59.994,53.035z"/><path fill="#f2f2f2" d="M69.994,59.035c-0.004-1.749-1.123-2.513-2.502-1.707c-1.38,0.808-2.5,2.884-2.498,4.639 c0.001,1.756,1.125,2.522,2.507,1.709C68.883,62.864,69.998,60.786,69.994,59.035z"/></svg>