<svg xmlns="http://www.w3.org/2000/svg"  viewBox="0 0 40 40" width="100px" height="100px"><path fill="#e1ebf2" d="M35.5,38.5c-1.747,0-3.376-1.966-4.95-3.867C28.865,32.601,27.125,30.5,25,30.5H15 c-2.128,0-3.877,2.106-5.568,4.144C7.857,36.54,6.229,38.5,4.5,38.5c-2.579,0-4-1.598-4-4.5C0.501,27.742,1.85,11.5,8,11.5 c2.21,0,3.955,0.348,5.357,0.628C14.356,12.328,15.22,12.5,16,12.5h8c0.78,0,1.644-0.172,2.643-0.372 C28.045,11.848,29.79,11.5,32,11.5c1.009,0,1.9,0.402,2.726,1.229c4.75,4.758,4.774,21.105,4.774,21.27 C39.5,36.902,38.079,38.5,35.5,38.5z"/><path fill="#788b9c" d="M32,12c0.869,0,1.644,0.354,2.372,1.082C38.973,17.691,39,33.836,39,34c0,2.654-1.178,4-3.5,4 c-1.512,0-3.064-1.874-4.566-3.686C29.177,32.193,27.36,30,25,30h-5h-5c-2.362,0-4.188,2.198-5.953,4.324 C7.547,36.131,5.995,38,4.5,38C2.178,38,1,36.654,1,34c0.001-5.707,1.29-22,7-22c2.16,0,3.878,0.343,5.259,0.618 C14.285,12.823,15.17,13,16,13h4h4c0.83,0,1.715-0.177,2.741-0.382C28.122,12.343,29.84,12,32,12 M32,11c-3.809,0-6.205,1-8,1 c-1.704,0-2.989,0-4,0s-2.296,0-4,0c-1.795,0-4.191-1-8-1c-8,0-8,23-8,23c0,3.199,1.643,5,4.5,5c3.905,0,6.691-8,10.5-8 c1.905,0,3.286,0,5,0s3.095,0,5,0c3.809,0,6.567,8,10.5,8c2.857,0,4.5-1.801,4.5-5C40,34,40.042,11,32,11L32,11z"/><path fill="none" stroke="#36404d" stroke-miterlimit="10" d="M20.5,12c0-4.426,2.083-5.5,6-5.5c3,0,6-0.193,6-5.5"/><path fill="#fff" d="M34.619,20.581c0.507,0.507,0.507,1.33,0,1.837l-5.201,5.201c-0.507,0.507-1.33,0.507-1.837,0	l-5.201-5.201c-0.507-0.507-0.507-1.33,0-1.837l5.201-5.201c0.507-0.507,1.33-0.507,1.837,0L34.619,20.581z"/><path fill="#ffeea3" d="M28.5 17.5A1 1 0 1 0 28.5 19.5A1 1 0 1 0 28.5 17.5Z"/><path fill="#967a44" d="M28.5,18c0.276,0,0.5,0.224,0.5,0.5S28.776,19,28.5,19S28,18.776,28,18.5S28.224,18,28.5,18 M28.5,17c-0.828,0-1.5,0.672-1.5,1.5s0.672,1.5,1.5,1.5s1.5-0.672,1.5-1.5S29.328,17,28.5,17L28.5,17z"/><path fill="#bae0bd" d="M28.5 23.5A1 1 0 1 0 28.5 25.5A1 1 0 1 0 28.5 23.5Z"/><path fill="#5e9c76" d="M28.5,24c0.276,0,0.5,0.224,0.5,0.5S28.776,25,28.5,25S28,24.776,28,24.5S28.224,24,28.5,24 M28.5,23c-0.828,0-1.5,0.672-1.5,1.5c0,0.828,0.672,1.5,1.5,1.5s1.5-0.672,1.5-1.5C30,23.672,29.328,23,28.5,23L28.5,23z"/><path fill="#f78f8f" d="M31.5 20.5A1 1 0 1 0 31.5 22.5A1 1 0 1 0 31.5 20.5Z"/><path fill="#c74343" d="M31.5,21c0.276,0,0.5,0.224,0.5,0.5S31.776,22,31.5,22S31,21.776,31,21.5S31.224,21,31.5,21 M31.5,20c-0.829,0-1.5,0.674-1.5,1.5c0,0.826,0.672,1.5,1.5,1.5s1.5-0.674,1.5-1.5C33,20.674,32.328,20,31.5,20L31.5,20z"/><path fill="#8bb7f0" d="M25.5 20.5A1 1 0 1 0 25.5 22.5A1 1 0 1 0 25.5 20.5Z"/><path fill="#4e7ab5" d="M25.5,21c0.276,0,0.5,0.224,0.5,0.5S25.776,22,25.5,22S25,21.776,25,21.5S25.224,21,25.5,21 M25.5,20c-0.828,0-1.5,0.672-1.5,1.5c0,0.828,0.672,1.5,1.5,1.5s1.5-0.672,1.5-1.5C27,20.672,26.328,20,25.5,20L25.5,20z"/><g><path fill="#b0c1d4" d="M9.5 16.5H12.5V19.5H9.5z"/><path fill="#66798f" d="M12,17v2h-2v-2H12 M13,16H9v4h4V16L13,16z"/></g><g><path fill="#b0c1d4" d="M13.5 20.5H16.5V23.5H13.5z"/><path fill="#66798f" d="M16,21v2h-2v-2H16 M17,20h-4v4h4V20L17,20z"/></g><g><path fill="#b0c1d4" d="M5.5 20.5H8.5V23.5H5.5z"/><path fill="#66798f" d="M8,21v2H6v-2H8 M9,20H5v4h4V20L9,20z"/></g><g><path fill="#b0c1d4" d="M9.5 24.5H12.5V27.5H9.5z"/><path fill="#66798f" d="M12,25v2h-2v-2H12 M13,24H9v4h4V24L13,24z"/></g></svg>