<?xml version="1.0" encoding="iso-8859-1"?><!-- Generator: Adobe Illustrator 19.2.1, SVG Export Plug-In . SVG Version: 6.00 Build 0)  --><svg xmlns="http://www.w3.org/2000/svg" xmlns:xlink="http://www.w3.org/1999/xlink" viewBox="0 0 50 50" width="100px" height="100px"><g><g><path style="fill:none;stroke:#000000;stroke-width:2;stroke-linejoin:round;stroke-miterlimit:10;" d="M45.601,39.656C45.86,38.816,46,37.925,46,37c0-0.925-0.14-1.817-0.399-2.656l0.188-0.108l1.488-1.436l-1.5-2.598l-1.988,0.57l-0.198,0.114c-1.209-1.303-2.796-2.247-4.591-2.655V28l-0.5-2h-3L35,28v0.231c-1.795,0.408-3.381,1.352-4.591,2.655l-0.204-0.118l-1.982-0.567l-1.5,2.598l1.482,1.433l0.194,0.112C28.14,35.184,28,36.075,28,37s0.14,1.816,0.399,2.656l-0.194,0.112l-1.482,1.433l1.5,2.598l1.982-0.567l0.204-0.118c1.21,1.303,2.796,2.247,4.591,2.655v0.224L35.5,48h3l0.5-2.007v-0.224c1.795-0.408,3.381-1.352,4.591-2.655l0.198,0.114l1.988,0.57l1.5-2.598l-1.488-1.436L45.601,39.656z"/></g></g><circle style="fill:none;stroke:#000000;stroke-width:2;stroke-miterlimit:10;" cx="37" cy="37" r="4"/><g><g><path style="fill:none;stroke:#000000;stroke-width:2;stroke-linejoin:round;stroke-miterlimit:10;" d="M22.601,34.656C22.86,33.816,23,32.925,23,32c0-0.925-0.14-1.817-0.399-2.656l0.188-0.108l1.488-1.436l-1.5-2.598l-1.988,0.57l-0.198,0.114c-1.209-1.303-2.796-2.247-4.591-2.655V23l-0.5-2h-3L12,23v0.231c-1.795,0.408-3.381,1.352-4.591,2.655l-0.204-0.118l-1.982-0.567l-1.5,2.598l1.482,1.433l0.194,0.112C5.14,30.184,5,31.075,5,32s0.14,1.816,0.399,2.656l-0.194,0.112l-1.482,1.433l1.5,2.598l1.982-0.567l0.204-0.118c1.21,1.303,2.796,2.247,4.591,2.655v0.224L12.5,43h3l0.5-2.007v-0.224c1.795-0.408,3.381-1.352,4.591-2.655l0.198,0.114l1.988,0.57l1.5-2.598l-1.488-1.436L22.601,34.656z"/></g></g><circle style="fill:none;stroke:#000000;stroke-width:2;stroke-miterlimit:10;" cx="14" cy="32" r="4"/><g><g><path style="fill:none;stroke:#000000;stroke-width:2;stroke-linejoin:round;stroke-miterlimit:10;" d="M38.601,16.656C38.86,15.816,39,14.925,39,14c0-0.925-0.14-1.817-0.399-2.656l0.188-0.108l1.488-1.436l-1.5-2.598l-1.988,0.57l-0.198,0.114C35.381,6.582,33.795,5.639,32,5.231V5l-0.5-2h-3L28,5v0.231c-1.795,0.408-3.381,1.352-4.591,2.655l-0.204-0.118l-1.982-0.567l-1.5,2.598l1.482,1.433l0.194,0.112C21.14,12.184,21,13.075,21,14s0.14,1.816,0.399,2.656l-0.194,0.112l-1.482,1.433l1.5,2.598l1.982-0.567l0.204-0.118c1.21,1.303,2.796,2.247,4.591,2.655v0.224L28.5,25h3l0.5-2.007v-0.224c1.795-0.408,3.381-1.352,4.591-2.655l0.198,0.114l1.988,0.57l1.5-2.598l-1.488-1.436L38.601,16.656z"/></g></g><circle style="fill:none;stroke:#000000;stroke-width:2;stroke-miterlimit:10;" cx="30" cy="14" r="4"/></svg>