<svg xmlns="http://www.w3.org/2000/svg"  viewBox="0 0 512 512" width="100px" height="100px"><title>officer</title><path d="M391.27,301.69,312.1,268.47l-10.04-5.52L209.94,265l-13.42,6.75-75.79,29.94A77.984,77.984,0,0,0,88.64,364.8v82.73H423.36V364.8A77.984,77.984,0,0,0,391.27,301.69Z" style="fill:#75967a"/><path d="M220.06,260.91l-23.54,11.84-75.79,29.94A77.984,77.984,0,0,0,88.64,365.8v82.73h30V365.8a77.984,77.984,0,0,1,32.09-63.11l75.79-29.94L239.94,266Z" style="fill:#a7d3aa"/><path d="M296.45,246.04l-80.81-.47v16.15c0,.14,0,.28.01.42a15.338,15.338,0,0,0,5.19,11.1L256,304.22l35.29-30.98a15.371,15.371,0,0,0,5.23-11.54V246.13Z" style="fill:#efc597"/><polygon points="394.87 291.69 391.27 301.69 387.14 313.14 368.33 306.37 368.33 306.36 376.06 284.91 394.87 291.69" style="fill:#fb6771"/><polygon points="376.06 284.91 368.33 306.36 342.88 297.2 350.61 275.74 376.06 284.91" style="fill:#e75163"/><polygon points="350.61 275.74 342.88 297.2 323.13 290.08 328.03 276.48 330.86 268.62 350.61 275.74" style="fill:#fb6771"/><polygon points="184.29 277.35 188.87 290.08 169.65 297 161.99 275.74 161.92 275.55 181.14 268.62 184.29 277.35" style="fill:#fb6771"/><polygon points="161.99 275.74 169.65 297 144.2 306.17 136.54 284.91 136.47 284.72 161.92 275.55 161.99 275.74" style="fill:#e75163"/><polygon points="136.54 284.91 144.2 306.17 124.86 313.14 120.73 301.69 117.13 291.69 136.47 284.72 136.54 284.91" style="fill:#fb6771"/><path d="M302.06,262.95l-5.54-3.04v1.79a15.371,15.371,0,0,1-5.23,11.54L256,304.22v.3l63,37.64Z" style="fill:#9ac5a1"/><path d="M220.84,273.24a15.338,15.338,0,0,1-5.19-11.1L209.94,265,192,342.16l64-37.64v-.3Z" style="fill:#9ac5a1"/><polygon points="285.9 448.03 288.42 464.03 256 495.04 223.58 464.03 226.31 448.03 243.62 346.73 269.95 346.73 285.9 448.03" style="fill:#f3e08d"/><polygon points="281.93 320.51 281.84 320.66 269.95 346.73 243.62 346.73 230.16 320.66 229.97 320.33 256 305.02 281.93 320.51" style="fill:#fff655"/><path d="M345.51,105.96c-.22-.01-.44-.02-.66-.02H167.15c-.22,0-.44.01-.66.02a11.607,11.607,0,0,0-10.94,11.59,11.6,11.6,0,0,0,11.6,11.6h177.7a11.6,11.6,0,0,0,.66-23.19Z" style="fill:#75967a"/><path d="M345.51,105.96c-.22-.01-.44-.02-.66-.02H167.15c-.22,0-.44.01-.66.02a89.511,89.511,0,0,1,179.02,0Z" style="fill:#9ac5a1"/><path d="M302.06,263.45l-5.54-3.04V248.63l-.33-.41a62.786,62.786,0,0,0,22.24-35.94l5.28-24.65h3.34a12.415,12.415,0,0,0,6.69-1.94l6.72,33.07c3.96,19.5-3.06,43.45-16.56,55.8l-.19.39q-5.88-2.82-11.61-5.98Z" style="fill:#6d7486"/><path d="M331.86,129.18v34.37a12.437,12.437,0,0,0-4.81-.96h-3.34a31.327,31.327,0,0,0-30.31-31.24,111.87,111.87,0,0,1-13.61-1.29q-2.325-.36-4.59-.9v-.01h56.66Z" style="fill:#6d7486"/><path d="M209.94,265.5l-13.42,6.75q-3.285,1.65-6.63,3.16l-.18-.4c-13.81-12.34-21.06-36.51-17.05-56.25l6.81-33.53a12.446,12.446,0,0,0,7.37,2.4h3.34l5.28,24.65a62.738,62.738,0,0,0,20.18,34.23v15.71c0,.14,0,.28.01.42Z" style="fill:#6d7486"/><path d="M212.98,129.15v.15a35.654,35.654,0,0,0-22.8,33.29h-3.34a12.4,12.4,0,0,0-5.24,1.15V129.15Z" style="fill:#6d7486"/><path d="M215.64,246.51a62.738,62.738,0,0,1-20.18-34.23l-5.28-24.65h-3.34a12.52,12.52,0,0,1,0-25.04h3.34a35.654,35.654,0,0,1,22.8-33.29v-.15H275.2v.01q2.265.54,4.59.9a111.87,111.87,0,0,0,13.61,1.29,31.327,31.327,0,0,1,30.31,31.24h3.34a12.516,12.516,0,0,1,8.85,21.37,12.059,12.059,0,0,1-2.16,1.73,12.415,12.415,0,0,1-6.69,1.94h-3.34l-5.28,24.65A62.877,62.877,0,0,1,217.42,248C216.82,247.51,216.22,247.02,215.64,246.51Z" style="fill:#ffd8b7"/><path d="M185.55,117.55a11.608,11.608,0,0,1,10.93-11.59c.22-.01.45-.02.67-.02h-30c-.22,0-.45.01-.67.02a11.6,11.6,0,0,0,.67,23.19h30A11.6,11.6,0,0,1,185.55,117.55Z" style="fill:#97ba9b"/><path d="M271,17.718A89.562,89.562,0,0,0,166.48,105.96c.22-.01.45-.02.67-.02h29.33A89.543,89.543,0,0,1,271,17.718Z" style="fill:#b3e2b8"/><path d="M345.52,103.96v-.02h-.67C345.07,103.94,345.3,103.95,345.52,103.96Z" style="fill:#9ac5a1"/><path d="M246.31,448.53l17.31-101.3h-20l-17.31,101.3-2.73,16L256,495.54l10-9.565-10.691-10.226a30.554,30.554,0,0,1-9-27.219Z" style="fill:#e0ce82"/><path d="M265.922,311.447,256,305.52l-26.03,15.31.19.33,13.46,26.07h20l-4.966-9.619a19.972,19.972,0,0,1,7.268-26.164Z" style="fill:#e5d94a"/><path d="M398.4,300.116l2.125-5.9a6,6,0,0,0-3.612-7.678l-58.447-21.053c7.856-13.963,11.111-32.019,7.881-47.923l-6.009-29.584a18.45,18.45,0,0,0-2.473-27.875V135.153h6.988a17.6,17.6,0,0,0,6.521-33.948,95.515,95.515,0,0,0-190.738,0,17.6,17.6,0,0,0,6.521,33.948H175.6v25.256a18.454,18.454,0,0,0-2.676,26.889l-6.148,30.267c-3.212,15.811-.035,33.655,7.705,47.582l-59.393,21.394a6,6,0,0,0-3.612,7.678l2.125,5.9A84.461,84.461,0,0,0,82.641,365.3v82.73a6,6,0,0,0,6,6H219.2l-1.535,8.99a6,6,0,0,0,1.767,5.346l32.42,31.009a6,6,0,0,0,8.294,0l32.42-31.009a6,6,0,0,0,1.78-5.269l-1.428-9.067h130.44a6,6,0,0,0,6-6V365.3A84.461,84.461,0,0,0,398.4,300.116Zm-18.725-7.03L387.2,295.8l-3.663,10.169-7.527-2.711Zm-25.446-9.166,14.157,5.1-3.664,10.168-14.156-5.1Zm-11.289-4.066-3.664,10.168-8.467-3.05,3.663-10.168ZM190.179,168.592a6,6,0,0,0,6-6,29.808,29.808,0,0,1,18.364-27.439h59.98c1.433.322,2.884.61,4.33.838a119.715,119.715,0,0,0,14.334,1.357,25.254,25.254,0,0,1,24.525,25.244,6,6,0,0,0,6,6h3.338a6.519,6.519,0,1,1,0,13.037h-3.338a6,6,0,0,0-5.867,4.743l-5.284,24.653a56.88,56.88,0,0,1-111.231,0l-5.284-24.653a6,6,0,0,0-5.867-4.743h-3.339a6.519,6.519,0,1,1,0-13.037ZM187.6,146.115V135.153h6.933A42.264,42.264,0,0,0,187.6,146.115Zm130.06-10.962h8.2v10.889A37.111,37.111,0,0,0,317.664,135.153ZM290.515,259.237V262.2a9.356,9.356,0,0,1-3.182,7.028l-31.325,27.5-31.2-27.5a9.352,9.352,0,0,1-3.168-7.016v-4a68.784,68.784,0,0,0,68.876,1.015ZM183.937,193.388c.455.072.912.141,1.377.179l4.283,19.974a69.121,69.121,0,0,0,20.042,35.609v9.8l-18.354,9.183c-10.522-11.439-16.068-31.816-12.745-48.176ZM213.892,275l32.133,28.929L201.011,330.4Zm42.084,37,18.25,10.9-8.136,17.824H247.272l-9.351-18.108Zm9.969-8.022,32.414-29.121,11.892,55.589Zm36.57-47.114v-6.114a69.122,69.122,0,0,0,21.777-37.208l4.282-19.974c.214-.017.42-.057.632-.082l5.376,26.469c3.323,16.361-1.886,36.1-12.217,47.627ZM256,22.962a83.61,83.61,0,0,1,83.236,76.976H172.764A83.61,83.61,0,0,1,256,22.962ZM167.152,123.153a5.608,5.608,0,0,1,0-11.215h177.7a5.608,5.608,0,0,1,0,11.215ZM177.533,276.8l3.663,10.168-7.934,2.858L169.6,279.662Zm-19.222,6.924,3.662,10.168L147.816,299l-3.664-10.169Zm-25.448,9.166,3.664,10.168-8.06,2.9L124.8,295.8Zm25.612,149.135V389.346a6,6,0,0,0-12,0v52.683H94.641V365.3a72.411,72.411,0,0,1,23.323-53.083l1.247,3.462a5.993,5.993,0,0,0,7.678,3.611l64.019-23.061a6,6,0,0,0,3.612-7.678l-2.681-7.441c2.5-1.128,4.972-2.294,7.372-3.5l1.987-1L186.156,341.3a6,6,0,0,0,8.885,6.53l32.521-19.124,9.8,18.985-16.115,94.335ZM256,486.735,230.031,461.9,248.68,352.725h16.137l17.188,109.137Zm161.359-44.706H365.525V389.346a6,6,0,0,0-12,0v52.683h-62.5l-14.875-94.455,8.435-18.481,31.334,18.719a6,6,0,0,0,8.944-6.406l-14.2-66.388c3.284,1.776,6.582,3.47,9.867,5.062l-3.052,8.47a6,6,0,0,0,3.612,7.678l64.019,23.061a5.993,5.993,0,0,0,7.678-3.611l1.247-3.462A72.411,72.411,0,0,1,417.359,365.3Z" style="fill:#284268"/><path d="M118.457,339.555a6,6,0,0,0-6,6v7.15a6,6,0,0,0,12,0v-7.15A6,6,0,0,0,118.457,339.555Z" style="fill:#284268"/><path d="M118.457,366.666a6,6,0,0,0-6,6v50.886a6,6,0,0,0,12,0V372.666A6,6,0,0,0,118.457,366.666Z" style="fill:#284268"/></svg>