<svg xmlns="http://www.w3.org/2000/svg"  viewBox="0 0 80 80" width="100px" height="100px"><path fill="#c2e8ff" d="M25.5,77.5L25.5,77.5c0-2.2,1.5-4,3.7-4.6c5.2-1.3,8.3-4.2,8.3-7.9c0-1.8-0.2-4.8-0.6-8.9l0-0.3 l-0.2-0.1c-1.3-0.7-2.1-1.7-2.1-2.7c0-0.9,0.5-1.7,1.5-2.3l0.2-0.2l0-0.3c-1-8.4-2.4-17.2-2.7-19.5h13.1 c-0.4,2.3-1.7,11.2-2.7,19.5l0,0.3l0.2,0.2c0.9,0.7,1.5,1.5,1.5,2.4c0,1.1-0.8,2.1-2.1,2.7l-0.2,0.1l0,0.3c-0.4,4-0.6,7-0.6,8.9 c0,3.7,3.1,6.7,8.3,7.9c2.2,0.5,3.7,2.4,3.7,4.5v0H25.5z"/><path fill="#7496c4" d="M46,31.1c-0.5,3-1.7,11.2-2.6,19l-0.1,0.6l0.5,0.3c0.5,0.3,1.2,1,1.2,1.9c0,0.8-0.7,1.7-1.8,2.3 l-0.5,0.2l-0.1,0.5c-0.4,4-0.6,7-0.6,8.9c0,4,3.3,7.1,8.7,8.4c1.8,0.4,3.1,1.9,3.3,3.6H26c0.2-1.7,1.5-3.1,3.3-3.6 c5.4-1.3,8.7-4.5,8.7-8.4c0-1.9-0.2-4.9-0.7-8.9l-0.1-0.5l-0.5-0.2C35.7,54.7,35,53.8,35,53c0-0.9,0.8-1.6,1.2-1.9l0.5-0.3 l-0.1-0.6c-1-7.8-2.2-16-2.6-19H46 M47.1,30.1H32.9c0,0,1.6,10.3,2.8,20.1C34.6,51,34,51.9,34,53c0,1.3,0.9,2.4,2.4,3.2 C36.7,59.8,37,63,37,65c0,4-3.8,6.5-7.9,7.5C26.7,73,25,75,25,77.4V78h30v-0.5c0-2.4-1.7-4.4-4.1-5C46.8,71.5,43,69,43,65 c0-2,0.3-5.2,0.6-8.8c1.4-0.7,2.4-1.9,2.4-3.2c0-1.1-0.6-2-1.7-2.8C45.5,40.5,47.1,30.1,47.1,30.1L47.1,30.1z"/><path fill="#c2e8ff" d="M40,53.5c-20.2,0-27.5-12.7-27.5-21.3c0-7.8,4.5-24.3,6.1-29.7h42.8c1.6,5.5,6.1,22,6.1,29.7 C67.5,40.8,60.2,53.5,40,53.5z"/><path fill="#7496c4" d="M61,3c1.7,5.8,6,21.7,6,29.2C67,40.6,59.8,53,40,53S13,40.6,13,32.2c0-7.6,4.3-23.5,6-29.2H61 M61.8,2H18.2C16.9,6.7,12,24.1,12,32.2C12,41.6,20.2,54,40,54s28-12.4,28-21.8C68,24.2,63.1,6.7,61.8,2L61.8,2z"/><g><path fill="#f78f8f" d="M40,53.5c-20.2,0-27.5-12.7-27.5-21.3c0-3.3,0.8-8.6,2.5-15.7H65c1.6,7.1,2.5,12.4,2.5,15.7 C67.5,40.8,60.2,53.5,40,53.5z"/><path fill="#c74343" d="M64.6,17c1.6,6.9,2.4,12,2.4,15.2C67,40.6,59.8,53,40,53S13,40.6,13,32.2c0-3.2,0.8-8.3,2.4-15.2 H64.6 M65.4,16H14.6C13.2,21.9,12,28.2,12,32.2C12,41.6,20.2,54,40,54s28-12.4,28-21.8C68,28.2,66.8,21.9,65.4,16L65.4,16z"/></g><path fill="#f7fcff" d="M23,34c-0.1,0-0.1,0-0.2,0c-0.5-0.1-0.9-0.6-0.8-1.2l4-22c0.1-0.5,0.6-0.9,1.2-0.8 c0.5,0.1,0.9,0.6,0.8,1.2l-4,22C23.9,33.7,23.5,34,23,34z"/></svg>