<svg xmlns="http://www.w3.org/2000/svg"  viewBox="0 0 48 48" width="144px" height="144px"><linearGradient id="uC9Rjf6yWnP569hFuWoupa" x1="25.595" x2="25.595" y1="48.509" y2="25.439" gradientTransform="rotate(13.663 29.348 24.877)" gradientUnits="userSpaceOnUse"><stop offset=".167" stop-color="#114a18"/><stop offset=".193" stop-color="#144e1a"/><stop offset=".427" stop-color="#2d722c"/><stop offset=".646" stop-color="#3f8c39"/><stop offset=".844" stop-color="#4a9c40"/><stop offset="1" stop-color="#4ea143"/></linearGradient><path fill="url(#uC9Rjf6yWnP569hFuWoupa)" d="M27.093,41.912L16.188,39.17c-0.715-0.18-1.149-0.905-0.969-1.62l1.571-6.246l13.494,3.394 l-1.571,6.246C28.533,41.658,27.808,42.092,27.093,41.912z"/><linearGradient id="uC9Rjf6yWnP569hFuWoupb" x1="26.809" x2="26.809" y1="53.513" y2="-5.864" gradientTransform="rotate(13.663 29.348 24.877)" gradientUnits="userSpaceOnUse"><stop offset=".246" stop-color="#114a18"/><stop offset=".266" stop-color="#18531d"/><stop offset=".337" stop-color="#2b6f2b"/><stop offset=".413" stop-color="#3b8535"/><stop offset=".497" stop-color="#46953d"/><stop offset=".593" stop-color="#4c9e42"/><stop offset=".729" stop-color="#4ea143"/></linearGradient><path fill="url(#uC9Rjf6yWnP569hFuWoupb)" d="M40.334,23.386c-0.847-0.797-2.182-0.777-3.114-0.081l-3.259,2.434l-0.218-0.163 l4.402-11.881c0.41-1.108-0.066-2.548-1.129-3.064c-1.277-0.62-2.768,0.005-3.247,1.299l-3.805,10.268 c-0.104-0.028-0.111-0.032-0.215-0.06l2.101-12.186c0.216-1.284-0.649-2.501-1.933-2.718c-1.304-0.206-2.501,0.65-2.718,1.933 l-1.965,11.649c-0.088-0.011-0.176-0.019-0.264-0.028l0.581-10.41c0.065-1.165-0.658-2.295-1.796-2.559 c-1.472-0.341-2.825,0.725-2.906,2.163l-0.585,10.797l-0.225,0.037l-1.082-8.88c-0.107-0.877-0.917-1.673-1.8-1.654 c-1.064,0.023-1.849,0.953-1.723,1.983l1.139,9.348c-0.078,2.173-0.864,4.374-1.016,6.536c-0.172,2.448,0.973,4.304,0.973,4.304 l13.476,3.318c1.445-0.227,3.222-2.306,4.288-3.734c0.748-1.001,1.644-1.879,2.644-2.629c1.416-1.063,3.202-2.401,3.202-2.401 C41.3,26.144,41.437,24.423,40.334,23.386z"/><path fill="#1c4d7a" d="M30.615,29.105c0.49-1.15,1.154-2.214,1.948-3.179c0.65-0.79,1.392-1.69,1.908-2.317 l1.078-2.908c-0.16-0.573-0.526-1.097-1.111-1.429c-1.011-0.574-2.304-0.24-3.045,0.656l-1.065,1.288l-0.364,0.981 c-0.104-0.028-0.111-0.032-0.215-0.06l0.048-0.28l-0.997,1.206l-0.251-0.107l1.471-12.584c0.137-1.173-0.666-2.46-1.82-2.71 c-0.022-0.005-0.042-0.003-0.064-0.007c-0.481,0.349-0.829,0.878-0.937,1.513l-1.965,11.649c-0.088-0.011-0.176-0.019-0.264-0.028 l0.581-10.41c0.019-0.334-0.034-0.662-0.136-0.971C25.394,9.5,25.365,9.592,25.353,9.69l-1.272,10.877 c-0.108-0.002-0.115-0.005-0.223-0.008L23.022,8.221c-0.011-0.151-0.039-0.297-0.076-0.438c-1.123,0.125-2.029,1.032-2.095,2.198 l-0.585,10.797l-0.225,0.037l-1.082-8.88c-0.045-0.372-0.222-0.725-0.472-1.012l0.673,9.417c-0.088,0.011-0.175,0.023-0.263,0.035 l-1.862-10.078c-0.998,0.092-1.719,0.979-1.599,1.966l1.139,9.348c-0.078,2.173-0.864,4.374-1.016,6.536 c-0.162,2.311,0.837,4.073,0.951,4.266l-1.309,5.204c-0.17,0.677,0.241,1.364,0.917,1.534l4.81,1.21l5.09,0.04 c0.698,0.006,1.268-0.556,1.274-1.254l0.043-5.406C28.684,33.177,29.917,30.742,30.615,29.105z" opacity=".39"/><linearGradient id="uC9Rjf6yWnP569hFuWoupc" x1="19.767" x2="19.767" y1="42.6" y2="19.53" gradientUnits="userSpaceOnUse"><stop offset="0" stop-color="#5cbd4f"/><stop offset=".605" stop-color="#5cbd4f"/></linearGradient><path fill="url(#uC9Rjf6yWnP569hFuWoupc)" d="M25.353,40.402l-11.244-0.089c-0.737-0.006-1.33-0.608-1.324-1.345l0.051-6.44l13.914,0.11 l-0.051,6.44C26.692,39.815,26.09,40.408,25.353,40.402z"/><linearGradient id="uC9Rjf6yWnP569hFuWoupd" x1="20.982" x2="20.982" y1="46.556" y2="7.139" gradientUnits="userSpaceOnUse"><stop offset=".246" stop-color="#1c7a29"/><stop offset=".298" stop-color="#2d8c33"/><stop offset=".381" stop-color="#42a13f"/><stop offset=".473" stop-color="#51b148"/><stop offset=".579" stop-color="#59ba4d"/><stop offset=".729" stop-color="#5cbd4f"/></linearGradient><path fill="url(#uC9Rjf6yWnP569hFuWoupd)" d="M33.843,19.272c-1.011-0.574-2.304-0.24-3.045,0.656l-2.592,3.135l-0.251-0.107 l1.471-12.585c0.137-1.173-0.666-2.46-1.82-2.71C26.22,7.36,24.918,8.319,24.758,9.69l-1.272,10.876 c-0.108-0.002-0.115-0.005-0.223-0.008L22.427,8.221c-0.093-1.299-1.221-2.277-2.52-2.184c-1.316,0.108-2.276,1.222-2.184,2.52 l0.843,11.783c-0.088,0.011-0.175,0.023-0.263,0.035l-1.895-10.253c-0.212-1.148-1.182-2.075-2.349-2.062 c-1.511,0.017-2.574,1.372-2.313,2.788l1.982,10.629l-0.21,0.089l-3.149-8.373c-0.311-0.827-1.286-1.409-2.139-1.182 c-1.028,0.274-1.571,1.363-1.206,2.333l3.315,8.815c0.438,2.13,0.193,4.454,0.557,6.591c0.411,2.419,1.962,3.952,1.962,3.952 l13.879,0.041c1.351-0.562,2.586-3.002,3.285-4.641c0.49-1.15,1.154-2.214,1.948-3.179c1.125-1.367,2.544-3.089,2.544-3.089 C35.433,21.724,35.16,20.019,33.843,19.272z"/></svg>