<?xml version="1.0" encoding="iso-8859-1"?>
<!-- Generator: Adobe Illustrator 24.1.2, SVG Export Plug-In . SVG Version: 6.00 Build 0)  -->
<svg version="1.1" xmlns="http://www.w3.org/2000/svg" xmlns:xlink="http://www.w3.org/1999/xlink" x="0px" y="0px"
	 viewBox="0 0 48 48" style="enable-background:new 0 0 48 48;" xml:space="preserve">
<g id="Layer_10">
</g>
<g id="bubbles">
</g>
<g id="cloud">
</g>
<g id="fluent">
	<linearGradient id="SVGID_1_" gradientUnits="userSpaceOnUse" x1="24" y1="1.5272" x2="24" y2="12.7934">
		<stop  offset="0" style="stop-color:#F0F0F0"/>
		<stop  offset="0.2532" style="stop-color:#E9EAEA"/>
		<stop  offset="0.6145" style="stop-color:#D7D9DB"/>
		<stop  offset="1" style="stop-color:#BBC1C4"/>
	</linearGradient>
	<path style="fill:url(#SVGID_1_);" d="M38,5H10C8.343,5,7,6.343,7,8v4h34V8C41,6.343,39.657,5,38,5z"/>
	<linearGradient id="SVGID_2_" gradientUnits="userSpaceOnUse" x1="24" y1="37.5625" x2="24" y2="9.8074">
		<stop  offset="0" style="stop-color:#1C5AB5"/>
		<stop  offset="0.0973" style="stop-color:#2168C1"/>
		<stop  offset="0.2402" style="stop-color:#2673CB"/>
		<stop  offset="0.4414" style="stop-color:#287AD0"/>
		<stop  offset="1" style="stop-color:#297CD2"/>
	</linearGradient>
	<path style="fill:url(#SVGID_2_);" d="M39.602,11H8.398c-1.804,0-3.201,1.582-2.977,3.372L7,27l17,1l17-1l1.578-12.628
		C42.802,12.582,41.406,11,39.602,11z"/>
	<linearGradient id="SVGID_3_" gradientUnits="userSpaceOnUse" x1="6.1932" y1="35" x2="41.8068" y2="35">
		<stop  offset="0" style="stop-color:#42A3F2"/>
		<stop  offset="1" style="stop-color:#42A4EB"/>
	</linearGradient>
	<path style="fill:url(#SVGID_3_);" d="M38.807,43H9.193c-1.73,0-3.102-1.46-2.994-3.187L7,27h34l0.801,12.813
		C41.909,41.54,40.537,43,38.807,43z"/>
	<path style="fill:#C4C7DA;" d="M22.1,25.57c0.44-0.64,0.66-1.3,0.66-1.98c0-1.39-0.42-2.47-1.25-3.25c-0.84-0.78-2-1.18-3.47-1.18
		c-1.4,0-2.55,0.42-3.46,1.23c-0.9,0.83-1.36,1.85-1.36,3.09h1.99c0-0.81,0.26-1.46,0.77-1.95c0.51-0.49,1.2-0.73,2.06-0.73
		c1.82,0,2.74,0.91,2.74,2.75c0,0.81-0.27,1.46-0.81,1.94c-0.54,0.48-1.27,0.73-2.21,0.74h-1.5v1.63L20.3,27
		C21.06,26.68,21.66,26.2,22.1,25.57z"/>
	<path style="fill:#C4C7DA;" d="M31.69,19.3L26,21.44v1.81l4-1.47v5.24l2,1V19.3H31.69z"/>
	<path style="fill:#EFEFEF;" d="M22.3,28.35c0.47,0.63,0.7,1.4,0.7,2.31c0,1.4-0.46,2.52-1.38,3.34c-0.91,0.82-2.1,1.24-3.57,1.24
		c-1.47,0-2.66-0.4-3.58-1.2c-0.93-0.79-1.39-1.84-1.39-3.14h2c0,0.82,0.27,1.48,0.81,1.97c0.54,0.5,1.26,0.74,2.16,0.74
		c0.96,0,1.69-0.25,2.2-0.75s0.76-1.22,0.76-2.16c0-0.91-0.28-1.61-0.84-2.09c-0.55-0.49-1.36-0.74-2.41-0.75h-1.5V27h4.04
		C21.16,27.27,21.83,27.72,22.3,28.35z"/>
	<rect x="30" y="27" style="fill:#EFEFEF;" width="2" height="8.02"/>
	<radialGradient id="SVGID_4_" cx="32.5" cy="8" r="2.5" gradientUnits="userSpaceOnUse">
		<stop  offset="0.0693" style="stop-color:#000000"/>
		<stop  offset="1" style="stop-color:#000000;stop-opacity:0"/>
	</radialGradient>
	<circle style="opacity:0.15;fill:url(#SVGID_4_);" cx="32.5" cy="8" r="2.5"/>
	<radialGradient id="SVGID_5_" cx="15.5" cy="8" r="2.5" gradientUnits="userSpaceOnUse">
		<stop  offset="0.0693" style="stop-color:#000000"/>
		<stop  offset="1" style="stop-color:#000000;stop-opacity:0"/>
	</radialGradient>
	<circle style="opacity:0.15;fill:url(#SVGID_5_);" cx="15.5" cy="8" r="2.5"/>
	<circle style="fill:#EFEFEF;" cx="32.5" cy="8" r="1.5"/>
	<circle style="fill:#EFEFEF;" cx="15.5" cy="8" r="1.5"/>
</g>
<g id="doodle">
</g>
</svg>