<svg xmlns="http://www.w3.org/2000/svg"  viewBox="0 0 25 25" width="100px" height="100px"><defs><mask id="g04T5KPZWaRfE5JQ9ku24a" maskContentUnits="userSpaceOnUse" maskUnits="objectBoundingBox"><path fill="#FFF" d="M0,0h25v25h-25Z"/></mask></defs><g mask="url(#g04T5KPZWaRfE5JQ9ku24a)"><path fill="#58368A" fill-rule="evenodd" d="M12.5,2.27273c-5.64837,0 -10.2273,4.5789 -10.2273,10.2273c8.88178e-16,5.6484 4.5789,10.2273 10.2273,10.2273c5.6484,0 10.2273,-4.5789 10.2273,-10.2273c0,-1.9189 -0.5276,-3.71236 -1.4458,-5.24577l-2.4694,1.6459c-0.5223,0.34807 -1.2278,0.20688 -1.5759,-0.31535c-0.348,-0.52223 -0.2068,-1.22775 0.3154,-1.57582l3.4099,-2.27272c0.5016,-0.33429 1.1768,-0.21883 1.5388,0.2631c1.5693,2.08926 2.4997,4.68795 2.4997,7.50066c0,6.9036 -5.5964,12.5 -12.5,12.5c-6.90356,0 -12.5,-5.5964 -12.5,-12.5c0,-6.90356 5.59644,-12.5 12.5,-12.5c2.2749,0 4.4111,0.60874 6.2508,1.67297c0.5433,0.31426 0.7289,1.0094 0.4147,1.55265c-0.3143,0.54325 -1.0094,0.72889 -1.5527,0.41464c-1.5031,-0.86952 -3.2481,-1.36753 -5.1128,-1.36753Z"/><path fill="#DE002B" fill-rule="evenodd" d="M12.5,9.09091c-1.8828,0 -3.4091,1.52629 -3.4091,3.40909c0,1.8828 1.5263,3.4091 3.4091,3.4091c1.8828,0 3.4091,-1.5263 3.4091,-3.4091c0,-1.8828 -1.5263,-3.40909 -3.4091,-3.40909Zm-5.68182,3.40909c0,-3.13798 2.54383,-5.68182 5.68182,-5.68182c3.138,0 5.6818,2.54384 5.6818,5.68182c0,3.138 -2.5438,5.6818 -5.6818,5.6818c-3.13799,0 -5.68182,-2.5438 -5.68182,-5.6818Z"/><path fill="#58368A" fill-rule="evenodd" d="M12.5,11.3636c-0.6276,0 -1.1363,0.5088 -1.1363,1.1364c0,0.6276 0.5087,1.1364 1.1363,1.1364c0.6276,0 1.1364,-0.5088 1.1364,-1.1364c0,-0.6276 -0.5088,-1.1364 -1.1364,-1.1364Zm-3.40906,1.1364c0,-1.8828 1.52626,-3.40909 3.40906,-3.40909c1.8828,0 3.4091,1.52629 3.4091,3.40909c0,1.8828 -1.5263,3.4091 -3.4091,3.4091c-1.8828,0 -3.40906,-1.5263 -3.40906,-3.4091Z"/></g></svg>