<?xml version="1.0" encoding="iso-8859-1"?>
<!-- Generator: Adobe Illustrator 26.1.0, SVG Export Plug-In . SVG Version: 6.00 Build 0)  -->
<svg version="1.1" xmlns="http://www.w3.org/2000/svg" xmlns:xlink="http://www.w3.org/1999/xlink" x="0px" y="0px"
	 viewBox="0 0 100 100" style="enable-background:new 0 0 100 100;" xml:space="preserve">
<g id="&#x421;&#x43B;&#x43E;&#x439;_1">
</g>
<g id="&#x421;&#x43B;&#x43E;&#x439;_2">
	<g>
		<path style="opacity:0.35;" d="M86.645,77.029l-2.923-1.235c0.299-0.654,0.543-1.294,0.741-1.912
			c1.033-0.514,1.951-1.216,2.713-2.087c3.005-3.441,4.149-9.607,0.766-13.56c-0.025-0.03-0.051-0.059-0.077-0.088
			c0.382-2.957,0.309-6.825-1.573-10.309c-1.447-2.678-3.75-4.72-6.721-5.978c-0.976-1.123-2.45-2.258-4.611-2.999
			c1.959-1.99,3.029-4.621,3.013-7.419c-0.054-8.779-0.036-13.227-0.011-14.245C77.987,16.966,78,16.732,78,16.5
			C78,10.71,73.29,6,67.5,6h-31C30.71,6,26,10.71,26,16.5v15c0,2.769,1.085,5.284,2.843,7.162c-0.415,0.091-0.732,0.17-0.922,0.221
			c-6.677,1.776-13.307,7.838-11.774,19.218c-0.038,0.042-0.075,0.085-0.112,0.128C12.645,62.19,17.994,67.56,21,71
			c0.761,0.871-2.525,2.37-1.492,2.883c0.199,0.618,0.442,1.258,0.741,1.912l-2.843,1.203C11.762,79.07,7.981,84.476,7.981,90.5
			c0,3.584,2.916,6.5,6.5,6.5h75.007c3.584,0,6.5-2.916,6.5-6.5C95.988,84.474,92.24,79.082,86.645,77.029z"/>
		<path style="fill:#F2F2F2;" d="M84.645,75.029l-2.923-1.235c0.299-0.654,0.543-1.294,0.741-1.912
			c1.033-0.514,1.951-1.216,2.713-2.087c3.005-3.441,4.149-9.607,0.766-13.56c-0.025-0.03-0.051-0.059-0.077-0.088
			c0.382-2.957,0.309-6.825-1.573-10.309c-1.447-2.678-3.75-4.72-6.721-5.978c-0.976-1.123-2.45-2.258-4.611-2.999
			c1.959-1.99,3.029-4.621,3.013-7.419c-0.054-8.779-0.036-13.227-0.011-14.245C75.987,14.966,76,14.732,76,14.5
			C76,8.71,71.29,4,65.5,4h-31C28.71,4,24,8.71,24,14.5v15c0,2.769,1.085,5.284,2.843,7.162c-0.415,0.091-0.732,0.17-0.922,0.221
			c-6.677,1.776-13.307,7.838-11.774,19.218c-0.038,0.042-0.075,0.085-0.112,0.128c-3.39,3.961-2.244,10.127,0.762,13.567
			c0.761,0.871,1.679,1.573,2.712,2.087c0.199,0.618,0.442,1.258,0.741,1.912l-2.843,1.203C9.762,77.07,5.981,82.476,5.981,88.5
			c0,3.584,2.916,6.5,6.5,6.5h75.007c3.584,0,6.5-2.916,6.5-6.5C93.988,82.474,90.24,77.082,84.645,75.029z"/>
	</g>
	<polygon style="fill:#96C362;" points="50,42 43,30 57,30 	"/>
	<path style="fill:#96C362;" d="M32,14.5c0-1.378,1.122-2.5,2.5-2.5h31c1.378,0,2.5,1.122,2.5,2.5v15c0,1.378-1.122,2.5-2.5,2.5H32
		V14.5z"/>
	<g>
		<g>
			<path style="fill:#D47F56;" d="M48.46,80.569l-10.29-3.413l0.867-3.995c2.187-1.771,2.573-4.237,3.602-7.374
				c0.862,0.807,2.334,0.506,3.446-0.766c1.209-1.384,1.53-3.389,0.718-4.479c-0.649-0.871-1.825-0.892-2.888-0.16
				c0.296-1.904,0.121-3.72,0.121-5.253c0-7.103-4.818-11.395-11.143-11.395S21.75,48.025,21.75,55.128
				c0,1.561-0.123,3.415,0.247,5.357c-0.247-0.923-1.753-0.854-2.431,0.056c-0.812,1.09-0.49,3.096,0.718,4.479
				c1.209,1.384,2.248,1.622,3.06,0.532c0.003-0.004,0.006-0.009,0.009-0.014c0.743,3.402,1.132,5.695,3.097,7.533l1.165,4.084
				l-9.865,3.413c-3.148,1.115-5.252,4.092-5.252,7.431v0h41.214v0C53.712,84.661,51.608,81.683,48.46,80.569z"/>
			<path style="opacity:0.35;fill:#40396E;" d="M33.005,75.042c2.834,0,5.445-1.916,5.445-1.916s-1.303,4.885-5.445,4.885
				c-4.108,0-5.707-4.938-5.707-4.938S30.171,75.042,33.005,75.042z"/>
			<path style="fill:#70BFFF;" d="M48.46,80.569l-9.764-3.202c-0.39,2.861-2.836,5.068-5.804,5.068s-5.415-2.207-5.804-5.068
				l-9.339,3.202c-3.148,1.115-5.252,4.092-5.252,7.431v0h41.214v0C53.712,84.661,51.608,81.683,48.46,80.569z"/>
			<g>
				<path style="fill:#40396E;" d="M43.556,67.89c-0.613,0-1.16-0.128-1.546-0.282c-0.769-0.309-1.142-1.183-0.832-1.951
					c0.307-0.763,1.17-1.134,1.93-0.841c0.184,0.065,0.796,0.229,1.245-0.286c0.833-0.954,0.988-2.714,0.704-3.108
					c-0.075-0.057-0.215-0.028-0.407,0.119c-0.495,0.375-1.17,0.408-1.697,0.081c-0.528-0.327-0.8-0.946-0.684-1.556
					c0.358-1.878,0.561-3.01,0.561-4.441c0-5.999-4.086-10.188-9.937-10.188c-0.828,0-1.5-0.671-1.5-1.5s0.672-1.5,1.5-1.5
					c7.496,0,12.937,5.546,12.937,13.188c0,1.01-0.082,1.882-0.229,2.843c0.701,0.144,1.317,0.515,1.74,1.01
					c1.508,1.761,0.847,5.224-0.728,7.027C45.686,67.564,44.536,67.89,43.556,67.89z"/>
			</g>
			<g>
				<path style="fill:#40396E;" d="M45.5,90H12.481c-0.828,0-1.5-0.671-1.5-1.5c0-3.966,2.512-7.521,6.25-8.846L25,76.369V75.03
					c-2.361-2.593-3.065-5.373-3.256-7.145c-1.093-0.037-2.311-0.38-3.183-1.378c-1.575-1.803-2.236-5.266-0.729-7.028
					c0.45-0.527,1.335-0.955,2.328-1.057c-0.142-0.942-0.222-1.802-0.222-2.795c0-7.642,5.44-13.188,12.937-13.188
					c0.828,0,1.5,0.671,1.5,1.5s-0.672,1.5-1.5,1.5c-5.851,0-9.937,4.189-9.937,10.188c0,1.432,0.202,2.563,0.561,4.441
					c0.116,0.61-0.155,1.229-0.684,1.556c-0.528,0.327-1.203,0.296-1.697-0.081c-0.29-0.22-0.812-0.128-1.051-0.034
					c-0.216,0.511-0.032,2.125,0.753,3.023c0.465,0.532,1.664,0.328,1.96,0.246c0.3-0.085,0.628-0.076,0.919,0.026
					c0.647,0.229,1.056,0.877,0.992,1.561c-0.015,0.154-0.316,3.813,2.869,7.003C27.842,73.651,28,74.033,28,74.43v2.933
					c0,0.603-0.36,1.147-0.916,1.382l-8.768,3.706c-2.127,0.756-3.652,2.486-4.155,4.55H45.5c0.828,0,1.5,0.671,1.5,1.5
					S46.328,90,45.5,90z"/>
			</g>
		</g>
		<path style="fill:#40396E;" d="M27.172,51c3.256,0,8.355,0,11.59,0c1.574,0,2.889,1.184,3.068,2.748
			C42.495,59.545,43.028,61,43.028,61h3.443c-0.042-0.067-0.086-0.131-0.135-0.189c-0.354-0.413-1.321-0.894-2.427-0.057
			c0.373-1.948,0.544-3.219,0.544-4.785c0-7.125-5.145-11.724-11.511-11.724s-11.511,4.599-11.511,11.724
			c0,1.566,0.171,2.837,0.544,4.785c-1.106-0.837-2.063-0.356-2.417,0.057c-0.049,0.058-0.093,0.122-0.135,0.189l4.085-0.395
			c0,0,0.217-0.971,0.871-6.836C24.554,52.175,25.567,51,27.172,51z"/>
		<path style="fill:#40396E;" d="M19.858,59.028c0,0,1.337-1.675,2.642-1.999c0,0,15.966-0.972,17.244-9.063
			c1.376-8.708-9.47-7.067-12.538-6.251C24.517,42.43,16.122,45.851,19.858,59.028z"/>
		<path style="fill:#40396E;" d="M38.505,49.425c0,0-0.22,2.312,3.996,7.601l2.519,2.058c0,0,4.476-12.134-5.795-15.092
			L38.505,49.425z"/>
	</g>
	<g>
		<g>
			<path style="fill:#FFC7A3;" d="M51.509,80.569l10.29-3.413l-0.867-3.995c-2.187-1.771-2.573-4.237-3.602-7.374
				c-0.862,0.807-2.334,0.506-3.446-0.766c-1.209-1.384-1.53-3.389-0.718-4.479c0.649-0.871,1.825-0.892,2.888-0.16
				c-0.296-1.904-0.121-3.72-0.121-5.253c0-7.103,4.818-11.395,11.143-11.395c6.325,0,11.143,4.292,11.143,11.395
				c0,1.561,0.123,3.415-0.247,5.357c0.247-0.923,1.753-0.854,2.431,0.056c0.812,1.09,0.49,3.096-0.718,4.479
				c-1.209,1.384-2.248,1.622-3.06,0.532c-0.003-0.004-0.006-0.009-0.009-0.014c-0.743,3.402-1.132,5.695-3.097,7.533l-1.165,4.084
				l9.865,3.413c3.148,1.115,5.252,4.092,5.252,7.431v0H46.258v0C46.258,84.661,48.362,81.683,51.509,80.569z"/>
			<path style="opacity:0.35;fill:#40396E;" d="M66.964,75.042c-2.834,0-5.445-1.916-5.445-1.916s1.303,4.885,5.445,4.885
				c4.108,0,5.707-4.938,5.707-4.938S69.799,75.042,66.964,75.042z"/>
			<path style="fill:#FF7575;" d="M51.509,80.569l9.764-3.202c0.39,2.861,2.836,5.068,5.804,5.068c2.968,0,5.415-2.207,5.804-5.068
				l9.339,3.202c3.148,1.115,5.252,4.092,5.252,7.431v0H46.258v0C46.258,84.661,48.362,81.683,51.509,80.569z"/>
			<g>
				<path style="fill:#40396E;" d="M56.414,67.89c-0.98,0-2.129-0.326-3.056-1.387c-1.575-1.803-2.236-5.265-0.729-7.027
					c0.423-0.495,1.039-0.865,1.74-1.009c-0.147-0.961-0.229-1.833-0.229-2.843c0-7.642,5.44-13.188,12.937-13.188
					c0.828,0,1.5,0.671,1.5,1.5s-0.672,1.5-1.5,1.5c-5.851,0-9.937,4.189-9.937,10.188c0,1.432,0.202,2.563,0.561,4.441
					c0.116,0.61-0.155,1.229-0.684,1.556c-0.528,0.327-1.204,0.295-1.697-0.081c-0.193-0.147-0.331-0.176-0.436-0.088
					c-0.256,0.364-0.1,2.125,0.733,3.078c0.493,0.565,1.217,0.297,1.223,0.294c0.768-0.308,1.642,0.063,1.951,0.833
					c0.31,0.769-0.063,1.642-0.832,1.951C57.574,67.762,57.027,67.89,56.414,67.89z"/>
			</g>
			<g>
				<path style="fill:#40396E;" d="M87.488,90H54.47c-0.828,0-1.5-0.671-1.5-1.5s0.672-1.5,1.5-1.5h31.339
					c-0.5-2.063-2.013-3.788-4.072-4.518l-8.851-3.738c-0.556-0.235-0.916-0.779-0.916-1.382V74.43c0-0.397,0.158-0.779,0.438-1.06
					c3.187-3.19,2.884-6.849,2.869-7.003c-0.063-0.684,0.345-1.331,0.992-1.561c0.299-0.106,0.624-0.115,0.929-0.024
					c0.286,0.08,1.487,0.283,1.951-0.249c0.783-0.896,0.967-2.506,0.75-3.023c-0.23-0.093-0.747-0.195-1.049,0.034
					c-0.496,0.375-1.17,0.406-1.697,0.08c-0.528-0.327-0.8-0.946-0.684-1.556c0.358-1.878,0.561-3.01,0.561-4.441
					c0-5.999-4.086-10.188-9.937-10.188c-0.828,0-1.5-0.671-1.5-1.5s0.672-1.5,1.5-1.5c7.496,0,12.937,5.546,12.937,13.188
					c0,0.994-0.08,1.854-0.222,2.796c0.993,0.102,1.879,0.53,2.329,1.057c1.507,1.76,0.846,5.223-0.729,7.026
					c-0.873,0.999-2.09,1.341-3.184,1.379c-0.189,1.772-0.894,4.552-3.256,7.145v1.338l7.852,3.318
					c3.655,1.292,6.167,4.847,6.167,8.813C88.988,89.329,88.316,90,87.488,90z M79.988,61.553L79.988,61.553L79.988,61.553z"/>
			</g>
			<g>
				<path style="fill:#40396E;" d="M49.985,81.242c-0.306,0-0.612-0.093-0.873-0.28c-0.232-0.167-0.534-0.259-0.953-0.387
					c-0.177-0.054-0.357-0.11-0.543-0.174l-8.385-1.963c-0.679-0.159-1.158-0.764-1.158-1.46v-2.932c0-0.397,0.158-0.779,0.438-1.06
					c3.141-3.146,2.606-6.36,2.582-6.495c-0.126-0.699,0.256-1.396,0.915-1.662l0.561,1.392l1.478-0.261
					c0.086,0.479,0.704,4.653-2.974,8.687v1.142l7.304,1.71c0.054,0.013,0.106,0.028,0.158,0.046
					c0.172,0.061,0.34,0.112,0.504,0.162c0.298,0.091,0.617,0.189,0.946,0.33c0.328-0.14,0.646-0.238,0.944-0.329
					c0.164-0.05,0.332-0.102,0.504-0.163c0.062-0.022,0.125-0.04,0.189-0.053l7.391-1.568v-1.117
					c-3.66-4.017-3.17-8.301-3.099-8.793l1.484,0.212L57.4,66.22l0.536-1.401c0.654,0.25,1.048,0.927,0.947,1.621
					c-0.021,0.143-0.468,3.542,2.691,6.706c0.28,0.281,0.438,0.663,0.438,1.06v2.932c0,0.708-0.495,1.32-1.188,1.467l-8.487,1.801
					c-0.18,0.062-0.355,0.116-0.528,0.169c-0.418,0.128-0.719,0.22-0.95,0.386C50.599,81.148,50.292,81.242,49.985,81.242z"/>
			</g>
			<g>
				<path style="fill:#40396E;" d="M79.701,90H20.269c-0.828,0-1.5-0.671-1.5-1.5s0.672-1.5,1.5-1.5h59.433
					c0.828,0,1.5,0.671,1.5,1.5S80.529,90,79.701,90z"/>
			</g>
		</g>
		<path style="fill:#40396E;" d="M72.992,49.632c-3.256,0-8.549,1.368-11.784,1.368c-1.574,0-2.889,1.184-3.068,2.748
			C57.475,59.545,56.942,61,56.942,61h-3.443c0.042-0.067,0.086-0.131,0.135-0.189c0.354-0.413,1.321-0.894,2.427-0.057
			c-0.373-1.948-0.544-3.219-0.544-4.785c0-7.125,5.145-11.724,11.511-11.724s11.511,4.599,11.511,11.724
			c0,1.566-0.171,2.837-0.544,4.785c1.106-0.837,2.063-0.356,2.417,0.057c0.049,0.058,0.093,0.122,0.135,0.189l-4.107-0.472
			c0,0-0.319-0.936-0.973-6.801C75.291,52.132,74.597,49.632,72.992,49.632z"/>
		<path style="fill:#40396E;" d="M54.921,59.027c0,0,1.337-1.675,2.642-1.999c0,0,15.966-0.972,17.244-9.063
			c1.376-8.708-9.47-7.067-12.538-6.251C59.58,42.43,51.185,45.851,54.921,59.027z"/>
		<path style="fill:#40396E;" d="M73.568,49.425c0,0-0.22,2.312,3.996,7.601l2.519,2.058c0,0,4.476-12.134-5.795-15.092
			L73.568,49.425z"/>
	</g>
	<path style="fill:none;stroke:#40396E;stroke-width:3;stroke-linecap:round;stroke-linejoin:round;stroke-miterlimit:10;" d="
		M69.5,14.5c0-2.209-1.791-4-4-4h-31c-2.209,0-4,1.791-4,4v15c0,2.209,1.791,4,4,4h10.182l5.318,9l5.318-9h10.155
		c2.219,0,4.013-1.799,4-4.018C69.44,24.148,69.402,14.402,69.5,14.5z"/>
	<g>
		<path style="fill:#FFFFFF;" d="M48.5,29c-0.384,0-0.768-0.146-1.061-0.439l-5-5c-0.586-0.585-0.586-1.536,0-2.121
			c0.586-0.586,1.535-0.586,2.121,0l3.939,3.939l8.939-8.939c0.586-0.586,1.535-0.586,2.121,0c0.586,0.585,0.586,1.536,0,2.121
			l-10,10C49.268,28.854,48.884,29,48.5,29z"/>
	</g>
</g>
</svg>