<?xml version="1.0" encoding="iso-8859-1"?>
<!-- Generator: Adobe Illustrator 22.1.0, SVG Export Plug-In . SVG Version: 6.00 Build 0)  -->
<svg version="1.1" id="Layer_1" xmlns="http://www.w3.org/2000/svg" xmlns:xlink="http://www.w3.org/1999/xlink" x="0px" y="0px"
	 viewBox="0 0 48 48" style="enable-background:new 0 0 48 48;" xml:space="preserve">
<path style="fill:#F39C12;" d="M8,47H3c-0.553,0-1-0.447-1-1s0.447-1,1-1h5c0.553,0,1,0.447,1,1S8.553,47,8,47z"/>
<path style="fill:#F39C12;" d="M6.001,47c-0.088,0-0.176-0.011-0.264-0.035C5.204,46.82,4.89,46.27,5.035,45.738l1.5-5.5
	c0.146-0.534,0.7-0.849,1.228-0.702c0.533,0.146,0.848,0.695,0.702,1.228l-1.5,5.5C6.844,46.708,6.44,47,6.001,47z"/>
<path style="fill:#E65100;" d="M22.999,1.278L22.999,1.278c-2-1.024-15,0.364-14.999,11.265C8.001,24.208,18,25.856,22.999,32
	c5-6.144,14.999-7.792,15-19.457C38,1.642,24.999,0.254,22.999,1.278z"/>
<path style="fill:#FB8C00;" d="M17.428,9.029l-2.357-1.137c-0.976-0.471-1.386-1.645-0.915-2.621l0,0
	c0.471-0.976,1.645-1.386,2.621-0.915l2.357,1.137c0.976,0.471,1.386,1.645,0.915,2.621l0,0C19.578,9.091,18.405,9.5,17.428,9.029z"
	/>
<path style="fill:#FB8C00;" d="M28.777,9.029l2.357-1.137c0.976-0.471,1.386-1.645,0.915-2.621l0,0
	c-0.471-0.976-1.645-1.386-2.621-0.915l-2.357,1.137c-0.976,0.471-1.386,1.645-0.915,2.621l0,0C26.627,9.091,27.8,9.5,28.777,9.029z
	"/>
<path style="fill:#FB8C00;" d="M29.597,8.783l-1.06-2.009c-0.856-1.622-2.76-2.455-4.586-2.007L23,5l-0.951-0.233
	c-1.826-0.448-3.73,0.385-4.586,2.007l-1.06,2.009c-0.414,0.784-0.513,1.688-0.278,2.538l2.973,10.781C19.569,23.811,21.17,25,23,25
	s3.431-1.189,3.902-2.898l2.973-10.781C30.11,10.471,30.011,9.567,29.597,8.783z"/>
<path style="fill:#5D4037;" d="M23,20L23,20h-1c0,0-1.266,2.581-2.438,3.015C19.563,23.015,21,24,23,23C23,22,23,20,23,20z"/>
<path style="fill:#5D4037;" d="M23,20L23,20h1c0,0,1.266,2.581,2.438,3.015C26.438,23.015,25,24,23,23C23,22,23,20,23,20z"/>
<circle style="fill:#FFB74D;" cx="20" cy="20" r="3"/>
<circle style="fill:#FFB74D;" cx="26" cy="20" r="3"/>
<path style="fill:#FFB74D;" d="M24,11h-2.143L20,17c1.954,0.783,3.953,0.813,6,0L24,11z"/>
<path style="fill:#5D4037;" d="M26,18.085c0,0.552-0.339,1.047-0.853,1.247L23.429,20h-0.857l-1.719-0.668
	C20.339,19.132,20,18.637,20,18.085V17c1.991,0.578,3.991,0.573,6,0V18.085z"/>
<circle style="fill:#EEFF41;" cx="19" cy="11" r="2"/>
<circle style="fill:#EEFF41;" cx="27" cy="11" r="2"/>
<circle style="fill:#212121;" cx="19" cy="11" r="1"/>
<circle style="fill:#212121;" cx="27" cy="11" r="1"/>
<path style="fill:#FFB74D;" d="M29.597,8.783l-1.06-2.009c-0.856-1.622-2.76-2.456-4.586-2.007L23,5l-0.951-0.233
	c-1.826-0.448-3.73,0.385-4.586,2.007l-1.06,2.009c-0.094,0.178-0.167,0.364-0.228,0.553L22,12l1,1l1-1l5.826-2.664
	C29.764,9.147,29.691,8.961,29.597,8.783z"/>
<path style="fill:#4E342E;" d="M42,29c0,0,0.89-1,2.67,1s3.894,6.53,0.612,7.765S42,29,42,29z"/>
<path style="fill:#4E342E;" d="M32,29c0,0-0.89-1-2.67,1s-3.894,6.53-0.612,7.765S32,29,32,29z"/>
<path style="fill:#A1887F;" d="M44.037,35.494C42.852,33.932,44.333,26,37,26s-5.852,7.932-7.037,9.494
	C29.278,36.577,29,37.416,29,39.018C29,42.322,31.537,45,34.667,45c0.417,0,1.375,0,2.333,0s1.916,0,2.333,0
	C42.463,45,45,42.322,45,39.018C45,37.416,44.722,36.577,44.037,35.494z"/>
<path style="fill:#BCAAA4;" d="M44.037,35.494c-1.057-1.393-0.011-7.834-4.965-9.218c-1.704,0.625-2.753,2.654-2.428,5.088
	c0.391,2.93,2.607,5.305,4.951,5.305c0.989,0,1.829-0.441,2.456-1.15C44.046,35.51,44.042,35.503,44.037,35.494z"/>
<circle style="fill:#212121;" cx="40" cy="33" r="1"/>
<circle style="fill:#212121;" cx="34" cy="33" r="1"/>
<path style="fill:#BCAAA4;" d="M42,42.246C42,43.887,40.333,47,37,47s-5-3.113-5-4.754c0-1.641,2.699-1.189,5-1.189
	S42,40.605,42,42.246z"/>
<path style="fill:#6D4C41;" d="M37,37c-5.833,0-7,3.385-6,5.642c1,2.257,3,3.385,6,1.128c3,2.257,5,1.129,6-1.128
	C44,40.385,42.833,37,37,37z"/>
<ellipse style="fill:#3E2723;" cx="37" cy="39.5" rx="2" ry="1.5"/>
<path style="fill:#3498DB;" d="M20.723,44.619l-0.444,0.722c-0.889,1.611-2.945,2.111-4.556,1.222L9,42.674l2.111-3.611
	L20.723,44.619z"/>
<path style="fill:#E74C3C;" d="M22,42.921c-0.504,1.543-2.217,2.439-3.779,1.941l-6.752-2.09l0.907-2.837L22,42.921z"/>
<path style="fill:#E74C3C;" d="M7.288,31.797c0,0.146,0.691,1.989,0.691,1.989L15,41.052c-1.687,1.461-4.001,2.143-6.411,1.9
	c-4.001-0.39-7.278-3.751-7.567-7.843C0.685,30.335,4.251,26.341,8.782,26c0.218-0.016,1.08-0.016,1.35,0
	c3.133,0.341,4.386,3.069,4.29,6.381l0,0c0-2.046-1.301-2.241-3.278-2.533C10.951,29.799,7.481,29.897,7.288,31.797z"/>
<path style="fill:#2ECC71;" d="M15.748,40.98l-1.393-0.448c0,0-5.543-5.975-6.459-7.017c-0.697,0.896-1.402,2.24-1.402,3.534
	c0,3.035,2.438,5.473,5.473,5.473C13.46,42.522,14.753,41.925,15.748,40.98z M14.853,32.372L14.853,32.372c0,0.1,0,0.149,0,0.249
	l0,0C14.853,32.571,14.853,32.471,14.853,32.372z"/>
<path style="fill:#F1C40F;" d="M14.563,40.584c-0.679,0.34-3.252,0.65-4.938-0.975C7.667,37.723,7.871,34.728,8.405,34
	C10.01,35.748,14.563,40.584,14.563,40.584z"/>
<circle style="fill:#ECF0F1;" cx="11" cy="31" r="4"/>
<path style="fill:#F39C12;" d="M13,29v5.553C12.44,34.872,11.756,35,11.072,35s-1.368-0.191-1.928-0.447L13,29z"/>
<path style="fill:#F1C40F;" d="M16.239,31.701c0,0.453-0.093,0.905-0.185,1.358c0,0,0,0,0,0.057C15.638,34.642,14.434,35.774,13,36
	v-8.485C14.805,27.798,16.193,29.551,16.239,31.701z"/>
<circle style="fill:#00351D;" cx="10" cy="30" r="1"/>
</svg>