<svg xmlns="http://www.w3.org/2000/svg"  viewBox="0 0 100 100" width="100px" height="100px"><path fill="#1d1d1b" d="M95.806,8.195c-2.624-2.624-6.477-4.19-10.307-4.19	c-1.225,0-2.417,0.16-3.545,0.471c-0.769-0.313-1.599-0.479-2.453-0.479c-1.734,0-3.367,0.679-4.596,1.908	c-0.856,0.855-1.423,1.894-1.7,2.989c-0.468,0.277-0.905,0.615-1.3,1.011c-0.856,0.856-1.423,1.894-1.701,2.99	c-0.468,0.276-0.904,0.614-1.299,1.01c-1.905,1.904-2.377,4.707-1.419,7.058L51.352,37.089c-2.519-1.092-5.039-1.644-7.528-1.644	c-4.182,0-7.969,1.582-10.949,4.569c-2.59,2.59-3.666,4.996-4.403,6.646c-0.193,0.441-0.458,1.044-0.528,1.116	c-0.411,0.354-2.333,0.741-3.507,0.978c-3.682,0.742-9.247,1.863-14.191,6.82c-4.571,4.572-5.981,11.063-3.97,18.277	c1.461,5.239,4.795,10.829,8.919,14.953c4.126,4.127,9.683,7.457,14.851,8.906c2.104,0.597,4.199,0.899,6.225,0.899	c4.776,0,8.979-1.679,12.151-4.851c4.952-4.938,6.076-10.494,6.831-14.222c0.231-1.148,0.619-3.069,0.93-3.438	c0.115-0.113,0.697-0.371,1.166-0.579c1.605-0.712,4.031-1.787,6.639-4.396c4.832-4.831,5.834-11.661,2.917-18.468L83.04,36.512	C83.817,36.83,84.654,37,85.5,37c1.71,0,3.385-0.694,4.596-1.905c0.395-0.395,0.733-0.831,1.01-1.299	c1.122-0.289,2.164-0.875,2.99-1.701c0.395-0.395,0.733-0.831,1.01-1.299c1.122-0.289,2.164-0.875,2.99-1.701	c1.229-1.229,1.907-2.861,1.907-4.595c0-0.859-0.167-1.694-0.484-2.468C100.789,17.353,99.434,11.821,95.806,8.195z" opacity=".35"/><path fill="#f2f2f2" d="M93.806,6.195c-2.624-2.624-6.477-4.19-10.307-4.19c-1.225,0-2.417,0.16-3.545,0.471	c-0.769-0.313-1.599-0.479-2.453-0.479c-1.734,0-3.367,0.679-4.596,1.908c-0.856,0.855-1.423,1.894-1.7,2.989	c-0.468,0.277-0.905,0.615-1.3,1.011c-0.856,0.856-1.423,1.894-1.701,2.99c-0.468,0.276-0.904,0.614-1.299,1.01	c-1.905,1.904-2.377,4.707-1.419,7.058L49.352,35.089c-2.519-1.092-5.039-1.644-7.528-1.644c-4.182,0-7.969,1.582-10.949,4.569	c-2.59,2.59-3.666,4.996-4.403,6.646c-0.193,0.441-0.458,1.044-0.528,1.116c-0.411,0.354-2.333,0.741-3.507,0.978	c-3.682,0.742-9.247,1.863-14.191,6.82c-4.571,4.572-5.981,11.063-3.97,18.277c1.461,5.239,4.795,10.829,8.919,14.953	c4.126,4.127,9.683,7.457,14.851,8.906c2.104,0.597,4.199,0.899,6.225,0.899c4.776,0,8.979-1.679,12.151-4.851	c4.952-4.938,6.076-10.494,6.831-14.222c0.231-1.148,0.619-3.069,0.93-3.438c0.115-0.113,0.697-0.371,1.166-0.579	c1.605-0.712,4.031-1.787,6.639-4.396c4.832-4.831,5.834-11.661,2.917-18.468L81.04,34.512C81.817,34.83,82.654,35,83.5,35	c1.71,0,3.385-0.694,4.596-1.905c0.395-0.395,0.733-0.831,1.01-1.299c1.122-0.289,2.164-0.875,2.99-1.701	c0.395-0.395,0.733-0.831,1.01-1.299c1.122-0.289,2.164-0.875,2.99-1.701c1.229-1.229,1.907-2.861,1.907-4.595	c0-0.859-0.167-1.694-0.484-2.468C98.789,15.353,97.434,9.821,93.806,6.195z"/><path fill="#ffb789" d="M49.611,69.481c2.121-2.121,4.596-1.768,7.778-4.95c5.303-5.303,0.707-14.142-3.536-18.385	s-13.081-8.839-18.385-3.536c-3.182,3.182-2.828,5.657-4.95,7.778c-3.889,3.889-11.314,1.414-17.678,7.778	s-1.414,17.678,4.95,24.042s17.678,11.314,24.042,4.95C48.197,80.795,45.722,73.37,49.611,69.481z"/><polygon fill="#9ba7c5" points="34.14,61.622 38.378,65.86 77.18,27.058 79.309,27.055 72.945,20.691 72.952,22.81"/><circle cx="37.5" cy="62.5" r="7.5" fill="#d47f56"/><path fill="#d47f56" d="M22.698,69.524l7.778,7.778c0.586,0.586,1.536,0.586,2.121,0l0,0c0.586-0.586,0.586-1.536,0-2.121	l-7.778-7.778c-0.586-0.586-1.536-0.586-2.121,0l0,0C22.112,67.988,22.112,68.938,22.698,69.524z"/><path fill="#40396e" d="M70.336,22.664c0.201,1.781,1.021,3.51,2.255,4.746	c1.253,1.252,2.977,2.064,4.737,2.262l4.421-4.421l-7-7L70.336,22.664z" opacity=".35"/><path fill="#ffb789" d="M89.209,10.791c-2.448-2.448-7.279-3.328-9.899-0.707c-2.62,2.62-1.29,5.532-5.075,9.317	c-1.593,1.593-1.027,4.38,0.479,5.885s4.292,2.072,5.885,0.479c3.785-3.785,6.697-2.454,9.317-5.075S91.657,13.239,89.209,10.791z"/><path fill="#40396e" d="M73,19.5c-0.384,0-0.768-0.146-1.061-0.439l-1.5-1.5c-0.586-0.585-0.586-1.536,0-2.121 c0.586-0.586,1.535-0.586,2.121,0l1.5,1.5c0.586,0.585,0.586,1.536,0,2.121C73.768,19.354,73.384,19.5,73,19.5z"/><path fill="#40396e" d="M75.5,15c-0.384,0-0.768-0.146-1.061-0.439l-1-1c-0.586-0.585-0.586-1.536,0-2.121 c0.586-0.586,1.535-0.586,2.121,0l1,1c0.586,0.585,0.586,1.536,0,2.121C76.268,14.854,75.884,15,75.5,15z"/><path fill="#40396e" d="M83.5,30c-0.384,0-0.768-0.146-1.061-0.439l-1.5-1.5c-0.586-0.585-0.586-1.536,0-2.121 c0.586-0.586,1.535-0.586,2.121,0l1.5,1.5c0.586,0.585,0.586,1.536,0,2.121C84.268,29.854,83.884,30,83.5,30z"/><path fill="#40396e" d="M87.5,27c-0.384,0-0.768-0.146-1.061-0.439l-1-1c-0.586-0.585-0.586-1.536,0-2.121 c0.586-0.586,1.535-0.586,2.121,0l1,1c0.586,0.585,0.586,1.536,0,2.121C88.268,26.854,87.884,27,87.5,27z"/><path fill="#40396e" d="M91.5,24c-0.384,0-0.768-0.146-1.061-0.439l-1-1c-0.586-0.585-0.586-1.536,0-2.121 c0.586-0.586,1.535-0.586,2.121,0l1,1c0.586,0.585,0.586,1.536,0,2.121C92.268,23.854,91.884,24,91.5,24z"/><path fill="#40396e" d="M78.5,11c-0.384,0-0.768-0.146-1.061-0.439l-1-1c-0.586-0.585-0.586-1.536,0-2.121 c0.586-0.586,1.535-0.586,2.121,0l1,1c0.586,0.585,0.586,1.536,0,2.121C79.268,10.854,78.884,11,78.5,11z"/><path fill="none" stroke="#40396e" stroke-linecap="round" stroke-linejoin="round" stroke-miterlimit="10" stroke-width="3" d="M49.611,69.481c2.121-2.121,4.596-1.768,7.778-4.95c4.35-4.35,2.746-10.37-0.567-14.99l21.32-21.32c1.291,0,2.552-0.431,3.517-1.396	c3.785-3.785,5.636-3.515,8.257-6.135s1.741-7.452-0.707-9.899s-7.279-3.328-9.899-0.707c-2.62,2.62-2.35,4.471-6.135,8.256	c-0.965,0.965-1.396,2.227-1.396,3.517l-21.32,21.32c-4.62-3.312-10.64-4.917-14.99-0.567c-3.182,3.182-2.828,5.657-4.95,7.778	c-3.889,3.889-11.314,1.414-17.678,7.778s-1.414,17.678,4.95,24.042s17.678,11.314,24.042,4.95	C48.197,80.795,45.722,73.37,49.611,69.481z"/></svg>