<svg xmlns="http://www.w3.org/2000/svg"  viewBox="0 0 80 80" width="100px" height="100px"><path d="M 53.128906 0.005859375 C 52.359121 0.005859375 51.589349 0.29736972 51.007812 0.87890625 L 48.835938 3.0507812 C 48.590471 3.2962479 48.409433 3.5805188 48.267578 3.8789062 L 47.25 2.8789062 C 46.668463 2.2973698 45.898691 2.0058594 45.128906 2.0058594 C 44.359121 2.0058594 43.589349 2.2973697 43.007812 2.8789062 L 38.878906 7.0078125 C 37.715833 8.1708856 37.715833 10.086927 38.878906 11.25 L 50.279297 22.650391 L 42.232422 30.697266 A 1.0001 1.0001 0 0 0 42.011719 30.917969 L 30.923828 42.005859 A 1.0001 1.0001 0 0 0 30.697266 42.232422 L 22.650391 50.279297 L 11.25 38.878906 C 10.668463 38.29737 9.8986914 38.005859 9.1289062 38.005859 C 8.3591213 38.005859 7.589349 38.29737 7.0078125 38.878906 L 2.8789062 43.007812 C 1.7158333 44.170887 1.7158332 46.086927 2.8789062 47.25 L 3.8789062 48.267578 C 3.5805197 48.409586 3.2962479 48.59047 3.0507812 48.835938 L 0.87890625 51.007812 C -0.28416681 52.170887 -0.28416681 54.086927 0.87890625 55.25 L 9.2792969 63.650391 L 4.2929688 68.636719 A 1.0001 1.0001 0 0 0 4.2929688 70.050781 L 9.9492188 75.707031 A 1.0001 1.0001 0 0 0 11.363281 75.707031 L 16.349609 70.720703 L 24.707031 79.078125 C 25.870104 80.241198 27.786146 80.241198 28.949219 79.078125 L 31.121094 76.90625 C 31.367211 76.660132 31.54945 76.375454 31.691406 76.076172 L 32.792969 77.164062 C 33.956042 78.327136 35.872083 78.327136 37.035156 77.164062 L 41.164062 73.035156 C 42.327137 71.872083 42.327137 69.956042 41.164062 68.792969 L 29.720703 57.349609 L 37.736328 49.333984 A 1.0001 1.0001 0 0 0 38.025391 49.044922 L 49.048828 38.021484 A 1.0001 1.0001 0 0 0 49.337891 37.732422 L 57.349609 29.720703 L 68.792969 41.164062 C 69.956042 42.327137 71.872083 42.327137 73.035156 41.164062 L 77.164062 37.035156 C 78.327136 35.872083 78.327136 33.956042 77.164062 32.792969 L 76.076172 31.691406 C 76.375454 31.54945 76.660132 31.367211 76.90625 31.121094 A 1.0001 1.0001 0 0 0 76.908203 31.121094 L 79.078125 28.949219 C 80.241198 27.786146 80.241198 25.870104 79.078125 24.707031 L 70.720703 16.349609 L 75.707031 11.363281 A 1.0001 1.0001 0 0 0 75.707031 9.9492188 L 70.050781 4.2929688 A 1.0001 1.0001 0 0 0 69.328125 4 A 1.0001 1.0001 0 0 0 68.636719 4.2929688 L 63.650391 9.2792969 L 55.25 0.87890625 C 54.668463 0.29736972 53.898691 0.005859375 53.128906 0.005859375 z M 53.128906 1.9941406 C 53.38269 1.9941406 53.636473 2.0935052 53.835938 2.2929688 L 62.800781 11.257812 A 1.0001 1.0001 0 0 0 63.091797 11.546875 L 68.457031 16.914062 A 1.0001 1.0001 0 0 0 68.748047 17.203125 L 77.664062 26.121094 C 78.06299 26.520021 78.06299 27.136229 77.664062 27.535156 L 75.492188 29.707031 C 75.126144 30.073073 74.585384 30.086944 74.189453 29.78125 L 73.710938 29.296875 A 1.0001 1.0001 0 1 0 72.289062 30.703125 L 72.517578 30.933594 A 1.0005843 1.0005843 0 0 0 72.664062 31.121094 C 72.723539 31.18057 72.792256 31.22395 72.855469 31.277344 L 75.746094 34.203125 A 1.0001 1.0001 0 0 0 75.75 34.207031 C 76.148927 34.605958 76.148927 35.222167 75.75 35.621094 L 71.621094 39.75 C 71.222167 40.148927 70.605958 40.148927 70.207031 39.75 L 52.517578 22.060547 A 1.0001 1.0001 0 0 0 52.287109 21.830078 L 40.292969 9.8359375 C 39.894042 9.4370106 39.894042 8.8208019 40.292969 8.421875 L 44.421875 4.2929688 C 44.820802 3.8940417 45.437009 3.8940417 45.835938 4.2929688 A 1.0001 1.0001 0 0 0 45.841797 4.2988281 L 48.298828 6.7128906 A 1.0001 1.0001 0 0 0 48.486328 6.8632812 C 48.589096 7.0141488 48.702594 7.1596258 48.835938 7.2929688 A 1.0001 1.0001 0 1 0 50.25 5.8789062 C 49.851073 5.4799793 49.851073 4.8637707 50.25 4.4648438 L 52.421875 2.2929688 C 52.621339 2.0935052 52.875122 1.9941406 53.128906 1.9941406 z M 69.34375 6.4140625 L 73.585938 10.65625 L 69.306641 14.935547 L 65.064453 10.693359 L 69.34375 6.4140625 z M 52 8 A 1 1 0 0 0 51 9 A 1 1 0 0 0 52 10 A 1 1 0 0 0 53 9 A 1 1 0 0 0 52 8 z M 55 11 A 1 1 0 0 0 54 12 A 1 1 0 0 0 55 13 A 1 1 0 0 0 56 12 A 1 1 0 0 0 55 11 z M 58 14 A 1 1 0 0 0 57 15 A 1 1 0 0 0 58 16 A 1 1 0 0 0 59 15 A 1 1 0 0 0 58 14 z M 61.021484 17.021484 A 1 1 0 0 0 60.021484 18.021484 A 1 1 0 0 0 61.021484 19.021484 A 1 1 0 0 0 62.021484 18.021484 A 1 1 0 0 0 61.021484 17.021484 z M 64.021484 20.021484 A 1 1 0 0 0 63.021484 21.021484 A 1 1 0 0 0 64.021484 22.021484 A 1 1 0 0 0 65.021484 21.021484 A 1 1 0 0 0 64.021484 20.021484 z M 67.021484 23.021484 A 1 1 0 0 0 66.021484 24.021484 A 1 1 0 0 0 67.021484 25.021484 A 1 1 0 0 0 68.021484 24.021484 A 1 1 0 0 0 67.021484 23.021484 z M 51.693359 24.064453 L 55.935547 28.306641 L 48.484375 35.757812 L 44.242188 31.515625 L 51.693359 24.064453 z M 70.021484 26.021484 A 1 1 0 0 0 69.021484 27.021484 A 1 1 0 0 0 70.021484 28.021484 A 1 1 0 0 0 71.021484 27.021484 A 1 1 0 0 0 70.021484 26.021484 z M 42.828125 32.929688 L 47.070312 37.171875 L 37.171875 47.070312 L 32.929688 42.828125 L 42.828125 32.929688 z M 9.1289062 39.994141 C 9.3826903 39.994141 9.6364741 40.093505 9.8359375 40.292969 L 39.75 70.207031 C 40.148927 70.605958 40.148927 71.222167 39.75 71.621094 L 35.621094 75.75 C 35.222167 76.148927 34.605958 76.148927 34.207031 75.75 A 1.0001 1.0001 0 0 0 34.203125 75.746094 L 31.277344 72.855469 C 31.22395 72.792256 31.18057 72.72354 31.121094 72.664062 A 1.0001 1.0001 0 0 0 30.923828 72.505859 L 30.703125 72.289062 A 1.0001 1.0001 0 1 0 29.296875 73.710938 L 29.783203 74.191406 C 30.08639 74.587371 30.072133 75.127086 29.707031 75.492188 L 27.535156 77.664062 C 27.136229 78.06299 26.520021 78.06299 26.121094 77.664062 L 2.2929688 53.835938 C 1.8940416 53.43701 1.8940417 52.820802 2.2929688 52.421875 L 4.4648438 50.25 C 4.8637707 49.851073 5.4799793 49.851073 5.8789062 50.25 A 1.0001 1.0001 0 1 0 7.2929688 48.835938 C 7.1585995 48.701568 7.0115214 48.587758 6.859375 48.484375 A 1.0001 1.0001 0 0 0 6.7128906 48.298828 L 4.2988281 45.841797 A 1.0001 1.0001 0 0 0 4.2929688 45.835938 C 3.8940417 45.43701 3.8940417 44.820802 4.2929688 44.421875 L 8.421875 40.292969 C 8.6213384 40.093505 8.8751224 39.994141 9.1289062 39.994141 z M 31.515625 44.242188 L 35.757812 48.484375 L 28.306641 55.935547 L 24.064453 51.693359 L 31.515625 44.242188 z M 9 51 A 1 1 0 0 0 8 52 A 1 1 0 0 0 9 53 A 1 1 0 0 0 10 52 A 1 1 0 0 0 9 51 z M 12 54 A 1 1 0 0 0 11 55 A 1 1 0 0 0 12 56 A 1 1 0 0 0 13 55 A 1 1 0 0 0 12 54 z M 15 57 A 1 1 0 0 0 14 58 A 1 1 0 0 0 15 59 A 1 1 0 0 0 16 58 A 1 1 0 0 0 15 57 z M 18.021484 60.021484 A 1 1 0 0 0 17.021484 61.021484 A 1 1 0 0 0 18.021484 62.021484 A 1 1 0 0 0 19.021484 61.021484 A 1 1 0 0 0 18.021484 60.021484 z M 21.021484 63.021484 A 1 1 0 0 0 20.021484 64.021484 A 1 1 0 0 0 21.021484 65.021484 A 1 1 0 0 0 22.021484 64.021484 A 1 1 0 0 0 21.021484 63.021484 z M 10.693359 65.064453 L 14.935547 69.306641 L 10.65625 73.585938 L 6.4140625 69.34375 L 10.693359 65.064453 z M 24.021484 66.021484 A 1 1 0 0 0 23.021484 67.021484 A 1 1 0 0 0 24.021484 68.021484 A 1 1 0 0 0 25.021484 67.021484 A 1 1 0 0 0 24.021484 66.021484 z M 27.021484 69.021484 A 1 1 0 0 0 26.021484 70.021484 A 1 1 0 0 0 27.021484 71.021484 A 1 1 0 0 0 28.021484 70.021484 A 1 1 0 0 0 27.021484 69.021484 z"/></svg>