<svg xmlns="http://www.w3.org/2000/svg"  viewBox="0 0 48 48" width="144px" height="144px"><path fill="#795548" d="M29 44L15 44 10 16 15 4 29 4 34 16z"/><path fill="#8D6E63" d="M17 8L27 8 30 16 26 40 18 40 14 16z"/><path fill="#4E342E" d="M34 6L29 4 34 16 29 44 33 42 38 16z"/><path fill="#4E342E" d="M26.847,41h-9.694L12.97,15.9L16.307,7h11.386l3.337,8.9L26.847,41z M18.847,39h6.306l3.816-22.9L26.307,9h-8.614l-2.663,7.1L18.847,39z"/><g><path fill="#FBC02D" d="M21 12H23V26H21z"/><path fill="#FBC02D" d="M18 15H26V17H18z"/></g></svg>