<?xml version="1.0" encoding="iso-8859-1"?>
<!-- Generator: Adobe Illustrator 22.1.0, SVG Export Plug-In . SVG Version: 6.00 Build 0)  -->
<svg version="1.1" id="Layer_1" xmlns="http://www.w3.org/2000/svg" xmlns:xlink="http://www.w3.org/1999/xlink" x="0px" y="0px"
	 viewBox="0 0 100 100" style="enable-background:new 0 0 100 100;" xml:space="preserve">
<path style="fill:#B77748;" d="M43,25.5c0-7-3.5-10-3.5-10v-3l2-2h3c0,0,9,2,13,16"/>
<path style="fill:#D68F53;" d="M46.5,24c-0.103,0-0.204-0.032-0.289-0.092c-0.112-0.08-0.187-0.202-0.206-0.337
	c-0.955-6.687-6.725-10.616-6.782-10.655c-0.125-0.083-0.205-0.218-0.22-0.367s0.038-0.296,0.144-0.402l2-2
	c0.14-0.139,0.345-0.184,0.529-0.115c0.337,0.126,8.277,3.201,10.313,12.36c0.029,0.131,0.004,0.269-0.069,0.381
	s-0.189,0.191-0.321,0.217l-5,1C46.565,23.997,46.532,24,46.5,24z"/>
<path style="fill:#FBB97F;" d="M74,26c-1.355,0-2.639,0.207-3.849,0.597C68.229,24.893,66.115,24,64,24
	c-4,0-5.936,2.739-5.936,2.739C56.334,24.391,53.038,23,50,23s-6.334,1.391-8.064,3.739C41.936,26.739,40,24,36,24
	c-2.115,0-4.229,0.893-6.151,2.597C28.639,26.207,27.355,26,26,26c-7.483,0-14,9.082-14,24.823S21.735,83,30,83
	c0.762,0,1.48-0.089,2.165-0.244C33.711,84.189,35.345,85,37,85c2.882,0,5.095-1.66,6.456-3.067C45.101,83.86,47.234,85,50,85
	s4.899-1.14,6.544-3.067C57.905,83.34,60.118,85,63,85c1.655,0,3.289-0.811,4.835-2.244C68.52,82.911,69.238,83,70,83
	c8.265,0,18-16.437,18-32.177S81.483,26,74,26z"/>
<path style="fill:#CF7A50;" d="M56.5,65.14v5.36h6v-6.484C60.973,64.439,58.975,64.855,56.5,65.14z"/>
<path style="fill:#CF7A50;" d="M37.5,64.016V69.5h6v-4.36C41.025,64.855,39.027,64.439,37.5,64.016z"/>
<path style="fill:#1F212B;" d="M57.02,26.637C53.307,13.644,45.14,11.188,44.438,11h-2.731L40,12.707v2.577
	c0.738,0.731,3.5,3.889,3.5,10.216h-1c0-6.657-3.293-9.592-3.326-9.622C39.064,15.784,39,15.645,39,15.5v-3
	c0-0.133,0.053-0.26,0.146-0.354l2-2C41.24,10.053,41.367,10,41.5,10h3c0.036,0,0.073,0.004,0.108,0.012
	c0.38,0.084,9.337,2.227,13.372,16.351L57.02,26.637z"/>
<path style="fill:#1F212B;" d="M46.499,24c-0.244,0-0.458-0.18-0.494-0.429c-0.955-6.687-6.725-10.616-6.782-10.655
	c-0.229-0.154-0.292-0.464-0.139-0.693c0.152-0.229,0.462-0.293,0.693-0.139c0.253,0.168,6.197,4.206,7.218,11.345
	c0.039,0.273-0.151,0.527-0.425,0.566C46.547,23.999,46.522,24,46.499,24z"/>
<path style="fill:#1F212B;" d="M63,85v-1c6.804,0,14-17.187,14-33.436C77,33.96,70.302,25,64,25v-1c6.787,0,14,9.31,14,26.564
	C78,67.943,70.57,85,63,85z"/>
<path style="fill:#1F212B;" d="M63,86c-2.735,0-4.911-1.312-6.418-2.646C54.77,85.11,52.561,86,50,86s-4.77-0.89-6.582-2.646
	C41.911,84.688,39.735,86,37,86c-1.729,0-3.451-0.728-5.128-2.166C31.252,83.944,30.624,84,30,84c-9.056,0-19-17.364-19-33.177
	C11,33.081,18.775,25,26,25c1.236,0,2.449,0.163,3.614,0.483C31.605,23.856,33.804,23,36,23c2.93,0,4.883,1.305,5.905,2.24
	C43.862,23.244,46.912,22,50,22s6.138,1.244,8.095,3.24C59.117,24.305,61.07,23,64,23c2.196,0,4.395,0.856,6.386,2.483
	C71.551,25.163,72.764,25,74,25c7.225,0,15,8.081,15,25.823C89,66.636,79.056,84,70,84c-0.624,0-1.252-0.056-1.872-0.166
	C66.451,85.272,64.729,86,63,86z M56.544,80.933c0.271,0,0.53,0.11,0.719,0.305C58.481,82.498,60.467,84,63,84
	c1.341,0,2.739-0.666,4.155-1.978c0.241-0.224,0.574-0.314,0.901-0.242C68.707,81.928,69.343,82,70,82c7.266,0,17-15.414,17-31.177
	C87,35.183,80.46,27,74,27c-1.22,0-2.412,0.185-3.542,0.548c-0.337,0.109-0.705,0.031-0.97-0.203C67.757,25.811,65.859,25,64,25
	c-3.442,0-5.104,2.293-5.12,2.316c-0.186,0.262-0.485,0.42-0.807,0.423c-0.3-0.024-0.624-0.148-0.815-0.407
	C55.791,25.339,52.874,24,50,24s-5.791,1.339-7.258,3.332c-0.191,0.259-0.456,0.378-0.815,0.407
	c-0.321-0.003-0.621-0.161-0.807-0.423C41.055,27.227,39.399,25,36,25c-1.859,0-3.757,0.811-5.488,2.345
	c-0.265,0.234-0.633,0.312-0.97,0.203C28.412,27.185,27.22,27,26,27c-6.46,0-13,8.183-13,23.823C13,66.586,22.734,82,30,82
	c0.657,0,1.293-0.072,1.943-0.219c0.326-0.072,0.66,0.018,0.901,0.242C34.261,83.334,35.659,84,37,84
	c2.533,0,4.519-1.502,5.737-2.762c0.195-0.203,0.459-0.316,0.75-0.304c0.281,0.009,0.547,0.136,0.729,0.35
	C45.776,83.111,47.668,84,50,84s4.224-0.889,5.783-2.716c0.183-0.214,0.448-0.341,0.729-0.35
	C56.523,80.933,56.533,80.933,56.544,80.933z"/>
<path style="fill:#1F212B;" d="M39.966,47.666C39.985,47.775,40,47.885,40,48c0,1.105-0.895,2-2,2s-2-0.895-2-2
	c0-0.901,0.6-1.654,1.419-1.904C37.122,46.034,36.815,46,36.5,46c-2.481,0-4.5,2.019-4.5,4.5s2.019,4.5,4.5,4.5s4.5-2.019,4.5-4.5
	C41,49.42,40.602,48.442,39.966,47.666z"/>
<path style="fill:#1F212B;" d="M65.966,47.666C65.985,47.775,66,47.885,66,48c0,1.105-0.895,2-2,2s-2-0.895-2-2
	c0-0.901,0.6-1.654,1.419-1.904C63.122,46.034,62.815,46,62.5,46c-2.481,0-4.5,2.019-4.5,4.5s2.019,4.5,4.5,4.5s4.5-2.019,4.5-4.5
	C67,49.42,66.602,48.442,65.966,47.666z"/>
<path style="fill:#1F212B;" d="M37.866,43c-0.015,0-0.028,0-0.042-0.002c-0.275-0.022-0.48-0.264-0.457-0.54
	c0.588-7.084,1.907-11.897,4.15-15.149l0.418-0.57C43.584,24.502,46.824,23,50,23c0.276,0,0.5,0.224,0.5,0.5S50.276,24,50,24
	c-2.874,0-5.791,1.339-7.259,3.332l-0.409,0.558c-2.132,3.09-3.396,7.749-3.969,14.652C38.342,42.802,38.123,43,37.866,43z"/>
<path style="fill:#1F212B;" d="M37,85c-7.57,0-15-17.057-15-34.436c0-2.424,0.152-4.756,0.465-7.13
	c0.036-0.274,0.292-0.469,0.562-0.43c0.273,0.036,0.467,0.287,0.431,0.561C23.149,45.895,23,48.185,23,50.564
	C23,66.813,30.196,84,37,84c0.276,0,0.5,0.224,0.5,0.5S37.276,85,37,85z"/>
<path style="fill:#1F212B;" d="M24.49,37c-0.051,0-0.103-0.008-0.153-0.024c-0.263-0.085-0.407-0.367-0.322-0.629
	c0.47-1.459,1.022-2.829,1.643-4.07c0.124-0.247,0.422-0.346,0.671-0.224c0.247,0.124,0.347,0.424,0.224,0.671
	c-0.598,1.196-1.131,2.518-1.586,3.93C24.897,36.865,24.701,37,24.49,37z"/>
<path style="fill:#1F212B;" d="M27.707,30.689L27.234,30.5l-0.422-0.268c0.257-0.404,0.462-0.728,0.679-1.026
	c0.162-0.225,0.476-0.272,0.698-0.111c0.224,0.163,0.272,0.475,0.11,0.699C28.096,30.075,27.901,30.381,27.707,30.689z"/>
<path style="fill:#1F212B;" d="M62.136,43c-0.257,0-0.476-0.197-0.497-0.458c-0.469-5.635-1.418-9.829-2.904-12.819
	c-0.122-0.248-0.021-0.548,0.226-0.67c0.246-0.124,0.547-0.022,0.671,0.225c1.542,3.106,2.525,7.417,3.004,13.181
	c0.023,0.275-0.182,0.517-0.457,0.54C62.164,43,62.15,43,62.136,43z"/>
<path style="fill:#1F212B;" d="M51.5,23c-0.229,0-0.437-0.159-0.488-0.392c-0.56-2.521-1.67-4.805-3.299-6.792
	c-0.175-0.213-0.144-0.528,0.069-0.704c0.215-0.174,0.528-0.145,0.704,0.07c1.729,2.108,2.907,4.534,3.502,7.208
	c0.06,0.27-0.11,0.537-0.38,0.597C51.572,22.996,51.535,23,51.5,23z"/>
<path style="fill:#1F212B;" d="M46.172,14c-0.118,0-0.236-0.042-0.332-0.126c-0.426-0.378-0.823-0.705-1.184-0.973
	c-0.222-0.165-0.268-0.478-0.103-0.699c0.167-0.222,0.48-0.266,0.7-0.103c0.383,0.285,0.803,0.63,1.25,1.027
	c0.206,0.184,0.226,0.5,0.042,0.706C46.447,13.943,46.31,14,46.172,14z"/>
<path style="fill:#1F212B;" d="M57.596,80c-0.082,0-0.165-0.02-0.241-0.063c-0.242-0.133-0.33-0.438-0.197-0.679
	c0.173-0.314,0.347-0.63,0.509-0.973c0.119-0.25,0.417-0.354,0.666-0.238c0.25,0.118,0.356,0.417,0.238,0.666
	c-0.171,0.362-0.354,0.695-0.537,1.027C57.943,79.906,57.772,80,57.596,80z"/>
<path style="fill:#1F212B;" d="M58.947,77c-0.058,0-0.116-0.01-0.173-0.031c-0.259-0.096-0.392-0.383-0.295-0.643
	c0.233-0.63,0.451-1.292,0.659-1.973c0.081-0.264,0.359-0.412,0.625-0.332c0.264,0.081,0.413,0.36,0.332,0.625
	c-0.214,0.698-0.438,1.38-0.677,2.027C59.341,76.875,59.15,77,58.947,77z"/>
<path style="fill:#1F212B;" d="M43.836,82.108c-0.141,0-0.282-0.06-0.381-0.176l-0.356-0.419c-1.215-1.564-2.285-3.869-3.193-6.869
	c-0.08-0.264,0.069-0.543,0.333-0.623c0.265-0.08,0.543,0.068,0.624,0.334c0.873,2.882,1.887,5.078,3.012,6.527l0.342,0.401
	c0.179,0.211,0.153,0.526-0.057,0.705C44.066,82.069,43.951,82.108,43.836,82.108z"/>
<path style="fill:#1F212B;" d="M63,63.87v6.63c0,0.28-0.22,0.5-0.5,0.5h-6c-0.28,0-0.5-0.22-0.5-0.5v-5.3
	c0.34-0.03,0.68-0.07,1-0.12V70h5v-5.85C62.36,64.06,62.69,63.97,63,63.87z"/>
<path style="fill:#1F212B;" d="M44,65.2v4.3c0,0.28-0.22,0.5-0.5,0.5h-6c-0.28,0-0.5-0.22-0.5-0.5v-5.63c0.31,0.1,0.64,0.19,1,0.28
	V69h5v-3.92C43.32,65.13,43.66,65.17,44,65.2z"/>
<path style="fill:#1F212B;" d="M50,66c-11.506,0-16.548-2.946-16.757-3.071c-0.236-0.142-0.313-0.448-0.171-0.685
	c0.14-0.237,0.448-0.313,0.685-0.174C33.806,62.1,38.809,65,50,65s16.194-2.9,16.244-2.93c0.237-0.139,0.544-0.063,0.685,0.174
	c0.142,0.236,0.065,0.543-0.171,0.685C66.548,63.054,61.506,66,50,66z"/>
</svg>