<svg xmlns="http://www.w3.org/2000/svg"  viewBox="0 0 512 512" width="256px" height="256px"><path fill="#f4b78e" d="M257,183S40,296,31,301s-12-1-12-1c-10-26,14-38,14-38l35.55-19.5c28.46-15.62,57.33-30.6,86-45.63C177.7,184.78,200,169.34,209.65,144c0,0,9.88-30,46.11-30s47.8,30,47.8,30c9.7,25.3,32,40.74,55.07,52.83,28.71,15,57.57,30,86,45.63L480.22,262s24,12,14,38c0,0-3,6-12,1S257,183,257,183"/><path fill="#3f456b" d="M16.5,293,249,169s9-6,16,0S496.19,293,496.19,293,494,308,482,301,256,184,256,184L31,301S19,309,16.5,293Z" opacity=".2"/><path fill="#fff" d="M203.45,156.47S222,131,256,131s53.76,25.47,53.76,25.47S297,114,256,114,203.45,156.47,203.45,156.47Z" opacity=".3"/><path fill="#3f456b" d="M256,187a5,5,0,0,1-5-5V114a5,5,0,0,1,10,0v68A5,5,0,0,1,256,187Z" opacity=".3"/><path fill="#f4b78e" d="M257,375S40,488,31,493s-12-1-12-1c-10-26,14-38,14-38l35.55-19.5c28.46-15.62,57.33-30.6,86-45.63C177.7,376.78,200,361.34,209.65,336c0,0,9.88-30,46.11-30s47.8,30,47.8,30c9.7,25.3,32,40.74,55.07,52.83,28.71,15,57.57,30,86,45.63L480.22,454s24,12,14,38c0,0-3,6-12,1S257,375,257,375"/><path fill="#3f456b" d="M16.5,485,249,361s9-6,16,0S496.19,485,496.19,485,494,500,482,493,256,376,256,376L31,493S19,501,16.5,485Z" opacity=".2"/><path fill="#fff" d="M203.45,348.47S222,323,256,323s53.76,25.47,53.76,25.47S297,306,256,306,203.45,348.47,203.45,348.47Z" opacity=".3"/><path fill="#3f456b" d="M256,379a5,5,0,0,1-5-5V306a5,5,0,0,1,10,0v68A5,5,0,0,1,256,379Z" opacity=".3"/><g><path fill="#3f456b" d="M488.67,308a18.42,18.42,0,0,1-8.88-2.63C471.45,300.74,280.34,200.84,257,188.64,233.61,200.82,41.77,300.74,33.43,305.37c-4.57,2.54-8.76,3.24-12.48,2.09a10.86,10.86,0,0,1-6.42-5.22c-.07-.15-.14-.3-.2-.45C5.16,278,21,262.48,30.67,257.57l35.48-19.46c24.93-13.68,50.54-27.07,75.31-40l10.81-5.66c37-19.37,47.62-36.94,52.68-50.1a51,51,0,0,1,10.51-16.73C222.52,118,235.25,109,255.76,109c39.22,0,51.95,31.89,52.47,33.25,9.62,25.07,33.22,40,52.71,50.19l10.82,5.66c24.76,12.94,50.38,26.33,75.31,40l35.47,19.46c9.71,4.91,25.51,20.38,16.34,44.22a4.32,4.32,0,0,1-.19.45,10.86,10.86,0,0,1-6.42,5.22A12.08,12.08,0,0,1,488.67,308ZM257,178a5,5,0,0,1,2.32.57c8.83,4.61,216.37,113.09,225.32,118.06,2.72,1.51,4.48,1.61,5.11,1,7.76-21.14-11-30.79-11.77-31.2l-.17-.09-35.55-19.5c-24.85-13.63-50.41-27-75.14-39.92l-10.81-5.66c-40.08-21-51.73-40.65-57.42-55.47C298.47,144.76,288,119,255.76,119c-32,0-41,25.54-41.36,26.62a1.31,1.31,0,0,1-.08.21C203.51,174,178,190.29,156.91,201.3L146.1,207C121.37,219.88,95.8,233.25,71,246.88L35.4,266.38l-.16.09A29.94,29.94,0,0,0,26,274.54c-4.9,6.63-5.77,14.41-2.57,23.13.64.57,2.39.47,5.11-1,9-5,217.26-113.45,226.12-118.06A5,5,0,0,1,257,178ZM489.75,297.76Zm-466.28,0Z"/><path fill="#3f456b" d="M461,296H51a5,5,0,0,1,0-10H461a5,5,0,0,1,0,10Z"/><path fill="#3f456b" d="M256,311a5,5,0,0,1-5-5V274.91a5,5,0,0,1,5-5,28.46,28.46,0,1,0-28.46-28.45,5,5,0,0,1-10,0A38.46,38.46,0,1,1,261,279.59V306A5,5,0,0,1,256,311Z"/><path fill="#3f456b" d="M256,119a5,5,0,0,1-5-5V82.91a5,5,0,0,1,5-5,28.46,28.46,0,1,0-28.46-28.45,5,5,0,1,1-10,0A38.46,38.46,0,1,1,261,87.59V114A5,5,0,0,1,256,119Z"/><path fill="#3f456b" d="M488.67,500a18.42,18.42,0,0,1-8.88-2.63C471.45,492.74,280.34,392.84,257,380.64,233.61,392.82,41.77,492.74,33.43,497.37c-4.57,2.54-8.76,3.24-12.48,2.09a10.86,10.86,0,0,1-6.42-5.22c-.07-.15-.14-.3-.2-.45C5.16,470,21,454.48,30.67,449.57l35.48-19.46c24.93-13.68,50.54-27.07,75.31-40l10.81-5.66c37-19.37,47.62-36.94,52.68-50.1a51,51,0,0,1,10.51-16.73C222.52,310,235.25,301,255.76,301c39.22,0,51.95,31.89,52.47,33.25,9.62,25.07,33.22,40,52.71,50.19l10.82,5.66c24.76,12.94,50.38,26.33,75.31,40l35.47,19.46c9.71,4.91,25.51,20.38,16.34,44.22a4.32,4.32,0,0,1-.19.45,10.86,10.86,0,0,1-6.42,5.22A12.08,12.08,0,0,1,488.67,500ZM257,370a5,5,0,0,1,2.32.57c8.83,4.61,216.37,113.09,225.32,118.06,2.72,1.51,4.48,1.61,5.11,1,7.76-21.14-11-30.79-11.77-31.2l-.17-.09-35.55-19.5c-24.85-13.63-50.41-27-75.14-39.92l-10.81-5.66c-40.08-21-51.73-40.65-57.42-55.47C298.47,336.76,288,311,255.76,311c-32,0-41,25.54-41.36,26.62a1.31,1.31,0,0,1-.08.21C203.51,366,178,382.29,156.91,393.3L146.1,399C121.37,411.88,95.8,425.25,71,438.88L35.4,458.38l-.16.09A29.94,29.94,0,0,0,26,466.54c-4.9,6.63-5.77,14.41-2.57,23.13.64.57,2.39.47,5.11-1,9-5,217.26-113.45,226.12-118.06A5,5,0,0,1,257,370ZM489.75,489.76Zm-466.28,0Z"/><path fill="#3f456b" d="M462,488H50a5,5,0,0,1,0-10H462a5,5,0,0,1,0,10Z"/></g></svg>