<?xml version="1.0" encoding="iso-8859-1"?>
<!-- Generator: Adobe Illustrator 24.2.1, SVG Export Plug-In . SVG Version: 6.00 Build 0)  -->
<svg version="1.1" id="&#x421;&#x43B;&#x43E;&#x439;_1"
	 xmlns="http://www.w3.org/2000/svg" xmlns:xlink="http://www.w3.org/1999/xlink" x="0px" y="0px" viewBox="0 0 64 64"
	 style="enable-background:new 0 0 64 64;" xml:space="preserve">
<path style="fill:#6F7B91;" d="M61.5,42c-1.381,0-2.5,1.119-2.5,2.5c0,0.449,0,1.5-1.5,1.5H53v-5.5c0-0.829-0.672-1.5-1.5-1.5
	S50,39.671,50,40.5V46h-8v-5.5c0-0.829-0.672-1.5-1.5-1.5S39,39.671,39,40.5V46H26.5c-1.381,0-2.5,1.119-2.5,2.5s1.119,2.5,2.5,2.5
	H39h3h8h3h4.5c3.23,0,6.5-2.232,6.5-6.5C64,43.119,62.881,42,61.5,42z"/>
<g>
	<path style="fill:#68E5FD;" d="M62.5,8h-48C13.672,8,13,8.671,13,9.5s0.672,1.5,1.5,1.5h48c0.828,0,1.5-0.671,1.5-1.5
		S63.328,8,62.5,8z"/>
</g>
<g>
	<circle style="fill:#68E5FD;" cx="8" cy="21" r="8"/>
</g>
<ellipse style="opacity:0.3;enable-background:new    ;" cx="43" cy="61" rx="19" ry="3"/>
<path style="fill:#FFA500;" d="M43,18H33h-6H9.31c-2.14,0-3.33,2.476-1.993,4.146h0c0.436,0.545,1.076,0.888,1.772,0.948L27,24.522
	V26c0,8.836,7.163,16,16,16h14c2.761,0,5-2.239,5-5C62,26.507,53.493,18,43,18z"/>
<g>
	<path style="fill:#9C34C2;" d="M49,18.982V29c0,1.657,1.343,3,3,3h9.313C59.642,25.869,54.991,20.977,49,18.982z"/>
</g>
<g>
	<path style="fill:#9C34C2;" d="M42.606,31.403l-5-2.143C37.238,29.102,37,28.741,37,28.341V23c0-1.105,0.895-2,2-2h3
		c1.105,0,2,0.895,2,2v7.483C44,31.201,43.266,31.685,42.606,31.403z"/>
</g>
<g>
	<path style="fill:#6F7B91;" d="M40.5,6L40.5,6C39.119,6,38,7.119,38,8.5V18h5V8.5C43,7.119,41.881,6,40.5,6z"/>
</g>
<g style="opacity:0.15;enable-background:new    ;">
	<path d="M60.094,28.747c-0.015-0.031-0.03-0.063-0.045-0.094c-0.496-1.01-1.076-1.968-1.736-2.868
		c-0.042-0.058-0.085-0.114-0.128-0.171c-0.43-0.573-0.888-1.122-1.379-1.642c-0.012-0.012-0.023-0.025-0.035-0.038
		c-0.246-0.259-0.499-0.509-0.759-0.753c-0.072-0.068-0.146-0.132-0.218-0.199c-0.451-0.412-0.921-0.801-1.41-1.168
		c-0.077-0.058-0.154-0.116-0.231-0.173c-2.19,1.671-2.617,4.8-0.951,6.995l0.079,0.105c0.486,0.663,0.917,1.375,1.241,2.033
		l0.071,0.148C55.526,32.854,56,34.898,56,37h-9c-2.762,0-5,2.238-5,5h15c2.761,0,5-2.239,5-5
		C62,34.038,61.303,31.246,60.094,28.747z"/>
</g>
<g>
	<path style="fill:#FFFFFF;" d="M3.5,22.5C2.672,22.5,2,21.828,2,21c0-3.309,2.691-6,6-6c0.828,0,1.5,0.672,1.5,1.5S8.828,18,8,18
		c-1.654,0-3,1.346-3,3C5,21.828,4.328,22.5,3.5,22.5z"/>
</g>
<g>
	<g style="opacity:0.3;enable-background:new    ;">
		<path style="fill:#FFFFFF;" d="M8,13c-4.418,0-8,3.582-8,8c0,1.771,0.583,3.402,1.557,4.728C3.551,25.071,5,23.214,5,21
			c0-1.654,1.346-3,3-3h7.413C14.226,15.069,11.357,13,8,13z"/>
	</g>
</g>
</svg>