<svg xmlns="http://www.w3.org/2000/svg"  viewBox="0 0 64 64" width="100px" height="100px"><g data-name="27-Hotel"><polygon fill="#d9babc" points="32 1 47 7 39 7 32 4 25 7 17 7 32 1"/><polygon fill="#d9d2d3" points="10 16 14 16 14 15 18 15 18 19 6 19 6 15 10 15 10 16"/><polygon fill="#d9d2d3" points="50 16 54 16 54 15 58 15 58 19 46 19 46 15 50 15 50 16"/><rect width="12" height="42" x="6" y="19" fill="#d3a9ab"/><rect width="12" height="42" x="46" y="19" fill="#d3a9ab"/><rect width="7" height="18" x="25" y="45" fill="#ededed"/><polygon fill="#d9babc" points="46 61 46 63 39 63 39 45 32 45 25 45 25 63 18 63 18 61 18 19 18 15 18 11 46 11 46 15 46 19 46 61"/><rect width="7" height="18" x="32" y="45" fill="#ededed"/><polygon fill="#ededed" points="25 45 25 52 32 45 25 45"/><polygon fill="#f5f5f5" points="32 45 25 52 25 59 32 52 32 45"/><polygon fill="#f5f5f5" points="28 63 32 63 32 59 28 63"/><polygon fill="#ededed" points="32 52 25 59 25 63 28 63 32 59 32 52"/><polygon fill="#ededed" points="32 59 39 52 39 45 32 52 32 59"/><polygon fill="#f5f5f5" points="32 59 32 63 39 63 39 52 32 59"/><polygon fill="#f5f5f5" points="39 45 32 45 32 52 39 45"/><polygon fill="#fcce9d" points="39 7 25 7 32 4 39 7"/><polygon fill="#f6bc94" points="36.667 7 39 7 32 4 25 7 27.333 7 32 5 36.667 7"/><polygon fill="#d9d2d3" points="47 7 46 11 18 11 17 7 25 7 39 7 47 7"/><path fill="#b8b2b3" d="M20.621,8.485,20.25,7H17l1,4H46l.25-1H22.562A2,2,0,0,1,20.621,8.485Z"/><polygon fill="#b8b2b3" points="48 15 48 18 58 18 58 19 46 19 46 15 48 15"/><rect width="4" height="1" x="50" y="16" fill="#c7c0c1"/><path fill="#c28c8e" d="M48,19V53a4,4,0,0,0,4,4h6v4H46V19Z"/><polygon fill="#b8b2b3" points="16 15 16 18 6 18 6 19 18 19 18 15 16 15"/><rect width="4" height="1" x="10" y="16" fill="#c7c0c1" transform="rotate(-180 12 16.5)"/><path fill="#c28c8e" d="M16,19V53a4,4,0,0,1-4,4H6v4H18V19Z"/><polygon fill="#d3a9ab" points="44.5 6 40 6 32 3 24 6 19.5 6 17 7 25 7 32 4 39 7 47 7 44.5 6"/><ellipse cx="3" cy="55" fill="#3588a3" rx="2" ry="4"/><ellipse cx="11" cy="55" fill="#3588a3" rx="2" ry="4"/><ellipse cx="61" cy="55" fill="#3588a3" rx="2" ry="4"/><ellipse cx="53" cy="55" fill="#3588a3" rx="2" ry="4"/><path fill="#255d6e" d="M60,54a6.312,6.312,0,0,1,.648-2.929C59.715,51.405,59,53.032,59,55c0,2.21.9,4,2,4,.522,0,.995-.412,1.352-1.071A1.051,1.051,0,0,1,62,58C60.9,58,60,56.21,60,54Z"/><path fill="#255d6e" d="M52,54a6.312,6.312,0,0,1,.648-2.929C51.715,51.405,51,53.032,51,55c0,2.21.9,4,2,4,.522,0,.995-.412,1.352-1.071A1.051,1.051,0,0,1,54,58C52.9,58,52,56.21,52,54Z"/><path fill="#255d6e" d="M10,54a6.312,6.312,0,0,1,.648-2.929C9.715,51.405,9,53.032,9,55c0,2.21.9,4,2,4,.522,0,.995-.412,1.352-1.071A1.051,1.051,0,0,1,12,58C10.9,58,10,56.21,10,54Z"/><path fill="#255d6e" d="M2,54a6.312,6.312,0,0,1,.648-2.929C1.715,51.405,1,53.032,1,55c0,2.21.9,4,2,4,.522,0,1-.412,1.352-1.071A1.051,1.051,0,0,1,4,58C2.9,58,2,56.21,2,54Z"/><path fill="#e3e3e3" d="M28,55v3H23l.81-1.22A4,4,0,0,1,27.14,55Z"/><path fill="#526673" d="M45,60.44v1.12a.444.444,0,0,1-.44.44H19.44a.444.444,0,0,1-.44-.44,3.454,3.454,0,0,1,2.49-3.18L23,58h5V55h9.86a4,4,0,0,1,3.33,1.78L42,58l1.63.54A2.009,2.009,0,0,1,45,60.44Z"/><path fill="#3d4b54" d="M37.277,62a1.984,1.984,0,0,0,3.446,0Z"/><path fill="#3d4b54" d="M24,63a1.994,1.994,0,0,0,1.723-1H22.277A1.994,1.994,0,0,0,24,63Z"/><path fill="#43545e" d="M43,60H23.842a1.176,1.176,0,0,1-.862-1.98L23,58l-1.51.38A3.454,3.454,0,0,0,19,61.56a.444.444,0,0,0,.44.44H44.56a.444.444,0,0,0,.44-.44V60.44a1.981,1.981,0,0,0-.427-1.218A1.99,1.99,0,0,1,43,60Z"/><path fill="#e3e3e3" d="M23.81,56.78,23,58h1l2.991-2.991A4,4,0,0,0,23.81,56.78Z"/><path fill="#f5f5f5" d="M28,55h-.86c-.05,0-.1.007-.149.009L24,58h2l2-2Z"/><polygon fill="#e3e3e3" points="28 56 26 58 28 58 28 56"/><path d="M62,59.714c1.186-.659,2-2.457,2-4.714,0-2.851-1.29-5-3-5s-3,2.149-3,5c0,2.257.814,4.055,2,4.714V62H54V59.714c1.186-.659,2-2.457,2-4.714,0-2.851-1.29-5-3-5s-3,2.149-3,5c0,2.257.814,4.055,2,4.714V62H48v2H63V62H62ZM61,52c.249,0,1,1.064,1,3s-.751,3-1,3-1-1.064-1-3S60.751,52,61,52Zm-8,0c.249,0,1,1.064,1,3s-.751,3-1,3-1-1.064-1-3S52.751,52,53,52Z"/><path d="M12,59.714c1.186-.659,2-2.457,2-4.714,0-2.851-1.29-5-3-5s-3,2.149-3,5c0,2.257.814,4.055,2,4.714V62H4V59.714C5.186,59.055,6,57.257,6,55c0-2.851-1.29-5-3-5s-3,2.149-3,5c0,2.257.814,4.055,2,4.714V62H1v2H16V62H12ZM11,52c.249,0,1,1.064,1,3s-.751,3-1,3-1-1.064-1-3S10.751,52,11,52ZM3,52c.249,0,1,1.064,1,3s-.751,3-1,3-1-1.064-1-3S2.751,52,3,52Z"/><path d="M24,45v8h2V46h5v7h2V46h5v7h2V45a1,1,0,0,0-1-1H25A1,1,0,0,0,24,45Z"/><path d="M57,20V50h2V15a1,1,0,0,0-1-1H54a1,1,0,0,0-1,1H51a1,1,0,0,0-1-1H47V11.123l.97-3.881a1,1,0,0,0-.182-.857.965.965,0,0,0-.422-.3l.006-.014-15-6a1.007,1.007,0,0,0-.744,0l-15,6,.006.014a.965.965,0,0,0-.422.3,1,1,0,0,0-.182.857L17,11.123V14H14a1,1,0,0,0-1,1H11a1,1,0,0,0-1-1H6a1,1,0,0,0-1,1V50H7V20H17V57h2V12H45V56h2V20Zm-8-4a1,1,0,0,0,1,1h4a1,1,0,0,0,1-1h2v2H47V16ZM32,2.077,41.807,6h-2.6L32.394,3.081a1.007,1.007,0,0,0-.788,0L24.8,6h-2.6ZM34.128,6H29.872L32,5.088ZM7,18V16H9a1,1,0,0,0,1,1h4a1,1,0,0,0,1-1h2v2Zm11.781-8-.5-2H45.719l-.5,2Z"/><rect width="2" height="4" x="53" y="22"/><rect width="2" height="4" x="49" y="22"/><rect width="2" height="4" x="53" y="28"/><rect width="2" height="4" x="49" y="28"/><rect width="2" height="4" x="53" y="34"/><rect width="2" height="4" x="49" y="34"/><rect width="2" height="4" x="53" y="40"/><rect width="2" height="4" x="49" y="40"/><rect width="2" height="4" x="53" y="46"/><rect width="2" height="4" x="49" y="46"/><rect width="2" height="4" x="9" y="22"/><rect width="2" height="4" x="13" y="22"/><rect width="2" height="4" x="9" y="28"/><rect width="2" height="4" x="13" y="28"/><rect width="2" height="4" x="9" y="34"/><rect width="2" height="4" x="13" y="34"/><rect width="2" height="4" x="9" y="40"/><rect width="2" height="4" x="13" y="40"/><rect width="2" height="4" x="9" y="46"/><rect width="2" height="4" x="13" y="46"/><rect width="2" height="6" x="23" y="16"/><rect width="2" height="6" x="27" y="16"/><rect width="2" height="6" x="31" y="16"/><rect width="2" height="6" x="35" y="16"/><rect width="2" height="6" x="39" y="16"/><rect width="2" height="6" x="23" y="24"/><rect width="2" height="6" x="27" y="24"/><rect width="2" height="6" x="31" y="24"/><rect width="2" height="6" x="35" y="24"/><rect width="2" height="6" x="39" y="24"/><rect width="2" height="6" x="23" y="32"/><rect width="2" height="6" x="27" y="32"/><rect width="2" height="6" x="31" y="32"/><rect width="2" height="6" x="35" y="32"/><rect width="2" height="6" x="39" y="32"/><path d="M43.948,57.6l-1.306-.436-.622-.933A4.987,4.987,0,0,0,37.859,54H27.141a4.987,4.987,0,0,0-4.161,2.227l-.6.9-1.14.285A4.443,4.443,0,0,0,18,61.562,1.441,1.441,0,0,0,19.438,63h2.349a2.949,2.949,0,0,0,4.426,0H36.787a2.949,2.949,0,0,0,4.426,0h3.349A1.441,1.441,0,0,0,46,61.562V60.441A2.994,2.994,0,0,0,43.948,57.6ZM27,56.017V57H24.934A2.965,2.965,0,0,1,27,56.017ZM44,61H20.088a2.5,2.5,0,0,1,1.64-1.651L23.122,59H28a1,1,0,0,0,1-1V56h8.859a2.991,2.991,0,0,1,2.5,1.336l.813,1.219a1,1,0,0,0,.516.393l1.632.544a1,1,0,0,1,.684.949Z"/></g></svg>