<svg xmlns="http://www.w3.org/2000/svg"  viewBox="0 0 48 48" width="144px" height="144px"><path fill="#90A4AE" d="M25,13c0,1.104-0.896,2-2,2h-3c-1.104,0-2-0.896-2-2V8c0-2,1-3,3-3h3c0,0,1-0.104,1,1V13z"/><path fill="#CFD8DC" d="M8,29c0-6,2-9,2-12s0-8,0-8l11-2c0,0,4-1,4,2v8c0,0-0.955,7.73,12,10c5.708,1,5,4,5,6s-8,2-12,2s-10-2-13-4L8,29z"/><path fill="#9FA8DA" d="M11 34H14V41H11zM29 35H32V41H29z"/><path fill="#9FA8DA" d="M38,42H5v-2h33c0.464-0.008,2-0.174,2-2c0-1.902-1.979-2.469-2.313-2.469L38,34c1.607,0,4,1.064,4,4S39.607,42,38,42z"/><g><path fill="#455A64" d="M17,35H9c0,0-1-4-1-6h2l7,0.953V35z"/><path fill="#455A64" d="M30,36c-4.555,0-7.944-1.609-10.668-2.902c-1.004-0.478-1.87-0.89-2.648-1.148C13.875,31.014,9.048,31,9,31v-2c0.211,0,5.198,0.012,8.316,1.052c0.894,0.298,1.855,0.755,2.874,1.238C22.732,32.497,25.896,34,30,34c5.85,0,11.939-0.99,12-1v2C41.752,35.041,36.014,36,30,36z"/></g><g><path fill="#546E7A" d="M22 10A1 1 0 1 0 22 12 1 1 0 1 0 22 10zM22 14A1 1 0 1 0 22 16 1 1 0 1 0 22 14zM22 18A1 1 0 1 0 22 20 1 1 0 1 0 22 18zM23 22A1 1 0 1 0 23 24 1 1 0 1 0 23 22zM26 25A1 1 0 1 0 26 27 1 1 0 1 0 26 25zM30 27A1 1 0 1 0 30 29 1 1 0 1 0 30 27z"/></g></svg>