<svg xmlns="http://www.w3.org/2000/svg"  viewBox="0 0 80 80" width="100px" height="100px"><path fill="#f5ce85" d="M40,77.5c-1.391,0-2.663-0.871-3.167-2.166L19.397,30.5h41.205L43.167,75.333 C42.663,76.629,41.391,77.5,40,77.5z"/><path fill="#967a44" d="M59.871,31l-17.17,44.152C42.265,76.275,41.204,77,40,77s-2.265-0.725-2.701-1.848L20.129,31 H59.871 M61.333,30H18.667l17.7,45.515C36.95,77.013,38.392,78,40,78s3.05-0.987,3.633-2.485L61.333,30L61.333,30z"/><path fill="#e0af53" d="M40 32.933L41.933 31 38.067 31zM34 38.933L38.586 34.347 35.239 31 32.762 31 29.414 34.348z"/><path fill="#e0af53" d="M36.757 37.104H43.242999999999995V43.589999999999996H36.757z" transform="rotate(-45.001 40 40.348)"/><path fill="#e0af53" d="M23.986 40.918L28 44.933 32.585 40.347 28 35.762 23.666 40.096zM26.586 46.347L25.785 45.546 26.234 46.699zM29.934 31L26.066 31 28 32.934zM46 38.933L50.586 34.348 47.238 31 44.761 31 41.414 34.347zM47.414 52.347L50.406 55.34 52.974 48.735 52 47.761zM28 47.761L27.026 48.735 29.594 55.34 32.586 52.347z"/><path fill="#e0af53" d="M42.757 43.105H49.242999999999995V49.589999999999996H42.757z" transform="rotate(-45.001 46 46.348)"/><path fill="#e0af53" d="M30.758 43.104H37.243V49.589999999999996H30.758z" transform="rotate(-45.001 34 46.348)"/><path fill="#e0af53" d="M50.066 31L52 32.934 53.934 31z"/><path fill="#e0af53" d="M36.757 61.104H43.242999999999995V67.59H36.757z" transform="rotate(-45.001 40 64.348)"/><path fill="#e0af53" d="M46.254 66.015L46 65.761 41.414 70.348 43.686 72.62zM57.126 38.06L59.871 31 56.762 31 53.414 34.348zM40 71.762l-2.894 2.894.193.496C37.735 76.275 38.796 77 40 77s2.265-.725 2.701-1.848l.193-.496L40 71.762zM38.586 58.347L34 53.761 30.386 57.376 31.623 60.556 34 62.933zM38.586 70.348L34 65.761 33.746 66.015 36.314 72.62zM48.377 60.556L49.614 57.376 46 53.761 41.414 58.347 46 62.933zM22.874 38.06L26.586 34.348 23.238 31 20.129 31z"/><path fill="#e0af53" d="M36.758 49.105H43.243V55.589999999999996H36.758z" transform="rotate(-45.001 40 52.348)"/><path fill="#e0af53" d="M47.415 40.347L52 44.933 56.014 40.918 56.334 40.096 52 35.762zM53.766 46.699L54.215 45.546 53.414 46.347z"/><g><path fill="#ffeea3" d="M42.036,28.643c-7.208,0-13.072-5.863-13.072-13.071c0-7.208,5.864-13.071,13.072-13.071 s13.071,5.864,13.071,13.071C55.107,22.779,49.244,28.643,42.036,28.643z"/><path fill="#ba9b48" d="M42.036,3c6.932,0,12.571,5.64,12.571,12.571c0,6.932-5.64,12.571-12.571,12.571 s-12.571-5.64-12.571-12.571C29.464,8.64,35.104,3,42.036,3 M42.036,2C34.54,2,28.464,8.076,28.464,15.571 c0,7.495,6.076,13.571,13.571,13.571s13.571-6.076,13.571-13.571C55.607,8.076,49.531,2,42.036,2L42.036,2z"/></g><g><path fill="#a6714e" d="M43.935,56.167c-2.651,0-3.163-2.697-3.642-6.812c-0.307-2.641-0.597-5.134-2.062-6.172 c-1.382-0.979-3.462-1.475-6.183-1.475c-3.354,0-6.713,0.742-7.892,1.031L19.397,30.5h41.205L56.08,42.13 c-0.688-1.117-2.05-2.754-4.11-2.754c-0.404,0-0.818,0.064-1.233,0.193c-2.83,0.879-3.231,5.007-3.62,9 C46.736,52.477,46.378,56.167,43.935,56.167z"/><path fill="#7a4f34" d="M59.871,31l-3.919,10.078c-0.839-1.072-2.158-2.202-3.983-2.202c-0.454,0-0.919,0.073-1.381,0.216 c-3.148,0.977-3.566,5.273-3.97,9.429c-0.42,4.317-0.833,7.146-2.685,7.146c-2.237,0-2.697-2.522-3.144-6.37 c-0.32-2.754-0.622-5.356-2.27-6.522c-1.468-1.039-3.645-1.567-6.471-1.567c-3.061,0-6.124,0.608-7.584,0.945L20.129,31H59.871 M61.333,30H18.667l5.185,13.333c0,0,4.142-1.125,8.198-1.125c2.222,0,4.417,0.337,5.893,1.383 c3.091,2.19,0.359,13.076,5.992,13.076s1.775-15.014,6.951-16.62c0.382-0.119,0.744-0.171,1.085-0.171 c2.762,0,4.178,3.458,4.178,3.458L61.333,30L61.333,30z"/></g><g><path fill="#ffb5d2" d="M52.893,39.5c-7.208,0-13.071-5.863-13.071-13.071s5.863-13.071,13.071-13.071 s13.071,5.863,13.071,13.071S60.101,39.5,52.893,39.5z"/><path fill="#ea4c89" d="M52.893,13.857c6.932,0,12.571,5.64,12.571,12.571C65.464,33.36,59.825,39,52.893,39 c-6.932,0-12.571-5.64-12.571-12.571C40.321,19.497,45.961,13.857,52.893,13.857 M52.893,12.857 c-7.495,0-13.571,6.076-13.571,13.571C39.321,33.924,45.398,40,52.893,40c7.495,0,13.571-6.076,13.571-13.571 C66.464,18.933,60.388,12.857,52.893,12.857L52.893,12.857z"/></g><g><path fill="#f78f8f" d="M28.464,39.5c-7.955,0-14.428-6.473-14.428-14.429s6.473-14.428,14.428-14.428 c7.956,0,14.429,6.472,14.429,14.428S36.42,39.5,28.464,39.5z"/><path fill="#c74343" d="M28.464,11.143c7.68,0,13.929,6.248,13.929,13.929c0,7.68-6.248,13.929-13.929,13.929 s-13.929-6.248-13.929-13.929C14.536,17.391,20.784,11.143,28.464,11.143 M28.464,10.143c-8.245,0-14.929,6.684-14.929,14.929 C13.536,33.316,20.219,40,28.464,40s14.929-6.684,14.929-14.929C43.393,16.827,36.709,10.143,28.464,10.143L28.464,10.143z"/></g></svg>