<?xml version="1.0" encoding="iso-8859-1"?>
<!-- Generator: Adobe Illustrator 27.2.0, SVG Export Plug-In . SVG Version: 6.00 Build 0)  -->
<svg version="1.1" baseProfile="basic" id="Layer_1"
	 xmlns="http://www.w3.org/2000/svg" xmlns:xlink="http://www.w3.org/1999/xlink" x="0px" y="0px" viewBox="0 0 100 100"
	 xml:space="preserve">
<g>
	<g>
		<path style="fill:#3070B7;" d="M83,30.65v39c0,7.17-5.83,13-13,13H31c-7.17,0-13-5.83-13-13v-39c0-7.16,5.83-13,13-13h39
			C77.17,17.65,83,23.49,83,30.65z"/>
	</g>
</g>
<g>
	<circle style="fill:#F9B621;" cx="41" cy="41" r="14"/>
</g>
<g>
	<path style="fill:#1F212B;" d="M41,55.5c-7.995,0-14.5-6.505-14.5-14.5S33.005,26.5,41,26.5S55.5,33.005,55.5,41
		S48.995,55.5,41,55.5z M41,27.5c-7.444,0-13.5,6.056-13.5,13.5S33.556,54.5,41,54.5S54.5,48.444,54.5,41S48.444,27.5,41,27.5z"/>
</g>
<g>
	<circle style="fill:#E3E2E3;" cx="37.267" cy="40.067" r="8.4"/>
</g>
<g>
	<path style="fill:#1F212B;" d="M41.998,33.375c-0.049,0-0.098-0.014-0.141-0.044c-0.311-0.212-0.636-0.402-0.967-0.567
		c-0.124-0.061-0.174-0.211-0.113-0.335c0.062-0.124,0.212-0.172,0.335-0.112c0.352,0.174,0.698,0.377,1.028,0.603
		c0.114,0.077,0.143,0.233,0.065,0.347C42.156,33.337,42.077,33.375,41.998,33.375z"/>
</g>
<g>
	<path style="fill:#1F212B;" d="M37.267,48.717c-4.77,0-8.65-3.881-8.65-8.65s3.88-8.649,8.65-8.649
		c0.645,0,1.289,0.071,1.914,0.212c0.134,0.03,0.219,0.164,0.188,0.299c-0.03,0.135-0.163,0.22-0.299,0.189
		c-0.588-0.133-1.195-0.2-1.803-0.2c-4.494,0-8.15,3.656-8.15,8.149c0,4.494,3.656,8.15,8.15,8.15s8.15-3.656,8.15-8.15
		c0-2.312-0.987-4.523-2.708-6.066c-0.103-0.093-0.111-0.251-0.019-0.354c0.093-0.102,0.25-0.109,0.353-0.02
		c1.827,1.639,2.875,3.985,2.875,6.439C45.917,44.836,42.036,48.717,37.267,48.717z"/>
</g>
<g>
	<path style="fill:#F16E7C;" d="M83,30.65v23.99c-0.64,0.39-1.31,0.73-2,1.02c-0.95,0.42-1.96,0.74-3,0.96
		c-0.33,0.08-0.66,0.14-1,0.19C76.19,56.94,75.35,57,74.5,57C65.39,57,58,49.61,58,40.5S65.39,24,74.5,24
		c1.65,0,3.24,0.24,4.74,0.69c0.99,0.3,1.93,0.68,2.83,1.15C82.67,27.33,83,28.95,83,30.65z"/>
</g>
<g>
	<path style="fill:#1F212B;" d="M74.5,57.5c-9.374,0-17-7.626-17-17s7.626-17,17-17c1.667,0,3.31,0.239,4.884,0.711
		c0.488,0.147,0.963,0.314,1.427,0.501l-0.372,0.928c-0.438-0.175-0.885-0.332-1.344-0.472C77.616,24.725,76.069,24.5,74.5,24.5
		c-8.822,0-16,7.178-16,16s7.178,16,16,16c0.843,0,1.657-0.062,2.421-0.184c0.33-0.049,0.645-0.105,0.961-0.183
		c1.033-0.218,2.009-0.53,2.916-0.931c0.378-0.159,0.741-0.329,1.097-0.514l0.461,0.887c-0.38,0.198-0.768,0.38-1.163,0.545
		c-0.961,0.425-2.004,0.759-3.09,0.988c-0.33,0.08-0.675,0.143-1.03,0.195C76.263,57.435,75.395,57.5,74.5,57.5z"/>
</g>
<g>
	<path style="fill:#E3E2E3;" d="M83,31.3v13.4c-0.6,0.54-1.27,1-2,1.36c-0.92,0.46-1.93,0.77-3,0.88C77.67,46.98,77.34,47,77,47
		c-4.97,0-9-4.03-9-9s4.03-9,9-9c1.42,0,2.77,0.33,3.97,0.93C81.71,30.29,82.39,30.75,83,31.3z"/>
</g>
<g>
	<path style="fill:#1F212B;" d="M71.75,30.939c-0.078,0-0.154-0.036-0.203-0.104c-0.081-0.112-0.055-0.269,0.057-0.35
		c1.578-1.136,3.444-1.736,5.396-1.736c1.439,0,2.812,0.321,4.082,0.956c0.407,0.197,0.807,0.432,1.186,0.695
		c0.113,0.078,0.142,0.234,0.063,0.348c-0.079,0.113-0.236,0.14-0.348,0.062c-0.358-0.248-0.736-0.469-1.122-0.657
		c-1.202-0.601-2.5-0.904-3.86-0.904c-1.846,0-3.611,0.568-5.104,1.643C71.852,30.924,71.801,30.939,71.75,30.939z"/>
</g>
<g>
	<path style="fill:#1F212B;" d="M77,47.25c-5.101,0-9.25-4.149-9.25-9.25c0-2.326,0.867-4.549,2.44-6.26
		c0.093-0.102,0.251-0.108,0.354-0.015c0.102,0.093,0.108,0.251,0.015,0.353C69.07,33.697,68.25,35.8,68.25,38
		c0,4.825,3.925,8.75,8.75,8.75c0.334,0,0.652-0.02,0.969-0.059c1.009-0.104,1.989-0.391,2.919-0.854
		c0.422-0.209,0.831-0.455,1.215-0.733c0.11-0.08,0.267-0.057,0.349,0.056c0.081,0.111,0.056,0.268-0.056,0.349
		c-0.407,0.295-0.839,0.557-1.286,0.777c-0.983,0.49-2.022,0.794-3.085,0.903C77.692,47.229,77.355,47.25,77,47.25z"/>
</g>
<g>
	<circle style="fill:#656566;" cx="55.5" cy="54.5" r="18.5"/>
</g>
<g>
	<path style="fill:#1F212B;" d="M55.5,73.5c-10.477,0-19-8.523-19-19s8.523-19,19-19s19,8.523,19,19S65.977,73.5,55.5,73.5z
		 M55.5,36.5c-9.925,0-18,8.075-18,18s8.075,18,18,18s18-8.075,18-18S65.425,36.5,55.5,36.5z"/>
</g>
<g>
	<circle style="fill:#E3E2E3;" cx="55.5" cy="54.5" r="10.5"/>
</g>
<g>
	<path style="fill:#1F212B;" d="M55.5,65.25c-5.928,0-10.75-4.822-10.75-10.75c0-3.45,1.674-6.715,4.479-8.732
		c0.111-0.08,0.268-0.056,0.349,0.058c0.081,0.111,0.055,0.268-0.057,0.349c-2.674,1.924-4.271,5.036-4.271,8.326
		c0,5.652,4.598,10.25,10.25,10.25s10.25-4.598,10.25-10.25S61.152,44.25,55.5,44.25c-1.171,0-2.321,0.196-3.417,0.583
		c-0.133,0.044-0.273-0.022-0.319-0.152s0.022-0.272,0.152-0.318c1.15-0.406,2.355-0.612,3.583-0.612
		c5.928,0,10.75,4.822,10.75,10.75S61.428,65.25,55.5,65.25z"/>
</g>
<g>
	<path style="fill:#E3E2E3;" d="M43.5,66.61l-1.3,0.99l-11.45,8.55h-0.01l-0.93,0.72l-3.55,2.71l-1.73,1.33h-0.01
		c-3.55-2.04-6.05-5.73-6.46-10.01L20,69.65l3.04-1.95l0.97-0.62l0.67-0.43l12.13-7.44l1.01-0.65c0.68-0.48,1.48-0.71,2.29-0.71
		c1.51,0,3.07,0.79,4.09,2.23C45.77,62.31,45.46,65.23,43.5,66.61z"/>
</g>
<g>
	<path style="fill:#656566;" d="M19.069,70.25L20,69.65l3.04-1.95l0.97-0.62l0.67-0.43l12.13-7.44c0.06-0.01,0.13-0.01,0.19-0.01
		c1.66,0,3.43,0.92,4.61,2.58c1.33,1.88,1.5,4.17,0.59,5.82l-11.45,8.55l-0.94,0.72l-3.55,2.71l-1.135,0.872"/>
</g>
<g>
	<path style="fill:#F9B621;" d="M30.45,76.05c-0.19,0.31-0.43,0.58-0.72,0.79c-0.04,0.05-0.09,0.08-0.13,0.11l-3.37,2.62l-1.71,1.34
		c-3.55-2.04-6.05-5.73-6.46-10.01L20,69.65l3.04-1.95l0.97-0.62l0.67-0.43c0.02-0.01,0.05-0.01,0.07-0.01
		c1.7,0,3.64,1.08,4.97,2.96C31.28,71.81,31.52,74.43,30.45,76.05z"/>
</g>
<g>
	<path style="fill:#1F212B;" d="M30.125,76.735c-0.06,0-0.12-0.021-0.168-0.064c-0.102-0.093-0.11-0.251-0.018-0.354
		c0.11-0.121,0.21-0.255,0.297-0.398c1.037-1.57,0.739-4.106-0.721-6.175c-1.245-1.76-3.071-2.854-4.766-2.854
		c-0.138,0-0.25-0.112-0.25-0.25s0.112-0.25,0.25-0.25c1.854,0,3.837,1.174,5.174,3.064c1.576,2.233,1.878,5.001,0.735,6.732
		c-0.099,0.163-0.218,0.321-0.348,0.466C30.261,76.708,30.193,76.735,30.125,76.735z"/>
</g>
<g>
	<path style="fill:#1F212B;" d="M37.474,43.186h-1.537v-5.791c-0.561,0.525-1.223,0.913-1.985,1.165v-1.395
		c0.401-0.131,0.837-0.38,1.307-0.746c0.47-0.366,0.793-0.794,0.968-1.282h1.247V43.186z"/>
</g>
<g>
	<path style="fill:#1F212B;" d="M53.607,53.716c-0.581-0.196-1.016-0.492-1.303-0.889c-0.287-0.397-0.449-0.844-0.486-1.34
		c-0.063-0.848,0.18-1.571,0.731-2.169s1.372-0.937,2.463-1.019c1.081-0.081,1.94,0.133,2.579,0.641
		c0.639,0.509,0.99,1.187,1.053,2.035c0.039,0.527-0.062,1.007-0.306,1.439s-0.605,0.775-1.085,1.029
		c0.65,0.206,1.157,0.54,1.522,1.001c0.365,0.461,0.571,1.01,0.619,1.646c0.079,1.05-0.192,1.928-0.813,2.635
		c-0.62,0.707-1.487,1.102-2.598,1.185c-1.034,0.077-1.916-0.13-2.644-0.621c-0.86-0.58-1.332-1.429-1.415-2.546
		c-0.046-0.615,0.064-1.192,0.331-1.729S52.971,54.044,53.607,53.716z M54.055,56.373c0.045,0.6,0.234,1.056,0.567,1.369
		s0.729,0.452,1.19,0.418c0.45-0.034,0.81-0.223,1.081-0.568c0.271-0.345,0.383-0.823,0.337-1.433
		c-0.04-0.533-0.222-0.949-0.546-1.25s-0.716-0.434-1.177-0.399c-0.533,0.04-0.916,0.253-1.149,0.64S54.023,55.944,54.055,56.373z
		 M53.892,51.487c0.033,0.434,0.181,0.764,0.445,0.989c0.264,0.225,0.6,0.322,1.009,0.291c0.414-0.031,0.735-0.179,0.965-0.443
		s0.328-0.613,0.296-1.048c-0.031-0.409-0.178-0.726-0.442-0.954c-0.264-0.227-0.598-0.326-1.001-0.296
		c-0.419,0.031-0.743,0.18-0.973,0.447C53.961,50.741,53.862,51.078,53.892,51.487z"/>
</g>
<g>
	<path style="fill:#1F212B;" d="M74.299,40.062l1.594-0.193c0.051,0.406,0.188,0.717,0.41,0.932s0.492,0.322,0.809,0.322
		c0.34,0,0.626-0.129,0.858-0.387s0.349-0.605,0.349-1.043c0-0.414-0.111-0.742-0.334-0.984s-0.494-0.363-0.814-0.363
		c-0.211,0-0.463,0.041-0.756,0.123l0.182-1.342c0.445,0.012,0.785-0.085,1.02-0.29s0.352-0.478,0.352-0.817
		c0-0.289-0.086-0.52-0.258-0.691s-0.4-0.258-0.686-0.258c-0.281,0-0.521,0.098-0.721,0.293s-0.32,0.48-0.363,0.855l-1.518-0.258
		c0.105-0.52,0.265-0.935,0.478-1.245s0.51-0.555,0.891-0.732s0.808-0.267,1.28-0.267c0.809,0,1.457,0.258,1.945,0.773
		c0.402,0.422,0.604,0.898,0.604,1.43c0,0.754-0.412,1.355-1.236,1.805c0.492,0.105,0.886,0.342,1.181,0.709s0.442,0.811,0.442,1.33
		c0,0.754-0.275,1.396-0.826,1.928s-1.236,0.797-2.057,0.797c-0.777,0-1.422-0.224-1.934-0.671S74.381,40.785,74.299,40.062z"/>
</g>
<g>
	<path style="fill:#1F212B;" d="M25.25,80.606c-0.075,0-0.149-0.033-0.198-0.098c-0.084-0.109-0.063-0.267,0.046-0.351l5.49-4.205
		c0.015-0.013,0.032-0.022,0.05-0.03l12.711-9.513c0.896-0.63,1.453-1.612,1.577-2.772c0.125-1.172-0.205-2.384-0.93-3.414
		c-0.942-1.33-2.395-2.124-3.886-2.124c-0.788,0-1.53,0.23-2.146,0.665l-1.019,0.655l-13.771,8.491l-4.165,2.674
		c-0.117,0.074-0.271,0.041-0.345-0.074c-0.075-0.116-0.042-0.271,0.075-0.346l5.806-3.726l13.139-8.089
		c0.692-0.489,1.534-0.751,2.425-0.751c1.652,0,3.258,0.873,4.294,2.336c0.795,1.13,1.156,2.463,1.018,3.755
		c-0.14,1.306-0.771,2.415-1.778,3.123l-1.292,0.985l-11.452,8.552c-0.013,0.01-0.028,0.019-0.043,0.026l-5.454,4.178
		C25.357,80.59,25.303,80.606,25.25,80.606z"/>
</g>
<g>
	<path style="fill:#1F212B;" d="M25.551,80.375c-0.075,0-0.149-0.033-0.198-0.098c-0.084-0.109-0.063-0.267,0.046-0.351l5.199-3.975
		l11.409-8.521c0.863-1.613,0.629-3.769-0.601-5.507C40.321,60.398,38.633,59.45,37,59.45c-0.034,0-0.071-0.001-0.106,0.002
		l-13.719,8.459l-3.665,2.352c-0.117,0.075-0.271,0.042-0.346-0.074c-0.075-0.116-0.041-0.271,0.075-0.346l5.306-3.403l12.134-7.442
		c0.028-0.018,0.059-0.028,0.091-0.034c0.073-0.012,0.157-0.013,0.23-0.013c1.792,0,3.637,1.029,4.813,2.686
		c1.353,1.911,1.59,4.3,0.605,6.085c-0.017,0.031-0.041,0.058-0.069,0.079l-12.388,9.269l-4.258,3.255
		C25.658,80.358,25.604,80.375,25.551,80.375z"/>
</g>
<g>
	<g>
		<path style="fill:#1F212B;" d="M23.041,67.71c0.235-0.245,0.562-0.409,0.98-0.442c-0.003-0.063-0.01-0.124-0.012-0.188
			C24,66.99,24,66.91,24,66.82V33.49c0-5.42,4.41-9.84,9.84-9.84H67.5c0.28,0,0.5-0.22,0.5-0.5c0-0.27-0.22-0.5-0.5-0.5H33.84
			C27.86,22.65,23,27.52,23,33.49v33.33c0,0.3,0.01,0.59,0.04,0.88C23.04,67.703,23.041,67.707,23.041,67.71z"/>
		<path style="fill:#1F212B;" d="M77.5,58.65c-0.28,0-0.5,0.23-0.5,0.5v7.67c0,5.42-4.41,9.83-9.84,9.83H33.84
			c-1.08,0-2.12-0.17-3.09-0.5h-0.01c-0.087-0.026-0.168-0.054-0.253-0.087c-0.009,0.014-0.025,0.023-0.035,0.036
			c-0.102,0.317-0.293,0.6-0.571,0.796c1.231,0.483,2.565,0.755,3.959,0.755h33.32c5.98,0,10.84-4.86,10.84-10.83v-7.67
			C78,58.88,77.78,58.65,77.5,58.65z"/>
		<path style="fill:#1F212B;" d="M82.07,25.84c-1.91-4.79-6.6-8.19-12.07-8.19H31c-7.17,0-13,5.84-13,13v39
			c0,0.42,0.02,0.84,0.06,1.25c0.41,4.28,2.91,7.97,6.46,10.01h0.01c1.91,1.11,4.11,1.74,6.47,1.74h39c7.17,0,13-5.83,13-13v-39
			C83,28.95,82.67,27.33,82.07,25.84z M81,69.65c0,6.07-4.93,11-11,11H31c-1.7,0-3.31-0.38-4.74-1.07c-0.01,0-0.02-0.01-0.03-0.01
			C22.55,77.79,20,74.01,20,69.65v-39c0-6.06,4.93-11,11-11h39c3.87,0,7.28,2.01,9.24,5.04c0.99,1.53,1.61,3.32,1.73,5.24
			c0.02,0.24,0.03,0.48,0.03,0.72V69.65z"/>
	</g>
</g>
</svg>