<svg xmlns="http://www.w3.org/2000/svg"  viewBox="0 0 80 80" width="100px" height="100px"><path fill="#ffeea3" d="M6,59.5c-1.93,0-3.5-1.57-3.5-3.5V24c0-1.93,1.57-3.5,3.5-3.5h68c1.93,0,3.5,1.57,3.5,3.5v32 c0,1.93-1.57,3.5-3.5,3.5H6z"/><path fill="#f5c276" d="M74,21c1.654,0,3,1.346,3,3v32c0,1.654-1.346,3-3,3H6c-1.654,0-3-1.346-3-3V24c0-1.654,1.346-3,3-3 H74 M74,20H6c-2.2,0-4,1.8-4,4v32c0,2.2,1.8,4,4,4h68c2.2,0,4-1.8,4-4V24C78,21.8,76.2,20,74,20L74,20z"/><path fill="#839cb2" d="M42.5,49.5v-19h3.517c2.784,0,3.053,0.179,3.771,0.658c0.153,0.102,0.322,0.214,0.529,0.339 c0.592,0.342,1.183,1.351,1.183,2.625v12.062c0,0.976-0.447,1.846-1.195,2.327l-0.25,0.15c-0.638,0.394-1.361,0.839-4.038,0.839 H42.5z M45.5,47.438H46c0.684,0,2.5,0,2.5-2.198V34.802c0-1.441-0.935-2.302-2.5-2.302h-0.5V47.438z"/><path fill="#66798f" d="M46.017,31c2.633,0,2.868,0.156,3.495,0.574c0.158,0.105,0.334,0.222,0.563,0.36 C50.529,32.198,51,33.088,51,34.122v12.061c0,0.805-0.361,1.518-0.926,1.883c-0.095,0.055-0.188,0.112-0.282,0.17 C49.183,48.611,48.552,49,46.017,49H43V31H46.017 M45,47.938h1c1.991,0,3-0.908,3-2.698V34.802C49,33.074,47.85,32,46,32h-1v1 v13.938V47.938 M46.017,30H42v20h4.017c3.167,0,3.767-0.611,4.558-1.069C51.525,48.321,52,47.252,52,46.183V34.122 c0-1.374-0.633-2.595-1.425-3.053C49.308,30.305,49.5,30,46.017,30L46.017,30z M46,46.938V33c0.95,0,2,0.36,2,1.802V45.24 C48,46.807,46.95,46.938,46,46.938L46,46.938z"/><path fill="#839cb2" d="M36.5 49.5L36.5 32.312 31.753 49.5 29.987 49.5 25.5 32.048 25.5 49.5 22.5 49.5 22.5 30.5 27.625 30.5 30.951 41.885 34.372 30.5 39.5 30.5 39.5 49.5z"/><path fill="#66798f" d="M39,31v18h-2V36v-5H39 M36.344,31l-1.307,4.734L31.372,49h-0.997l-3.407-13.249L25.747,31h1.504 l2.748,9.405l0.947,3.24l0.971-3.232L34.744,31H36.344 M25,31v5v13h-2V31H25 M40,30h-6l-3.042,10.125L28,30h-6v20h4V36l3.6,14 h2.533L36,36v14h4V30L40,30z"/><g><path fill="#839cb2" d="M16.5 30.5H19.5V49.5H16.5z"/><path fill="#66798f" d="M19,31v18h-2V31H19 M20,30h-4v20h4V30L20,30z"/></g><g><path fill="#839cb2" d="M60.875,49.5c-0.849,0-2.185-0.656-2.627-0.909L57.5,48.164V49.5h-3v-21h3v6.813l0.899-1.187 c0.342-0.453,1.455-1.627,2.476-1.627c0.98,0,2.625,0.455,2.625,3.5v10C63.5,48.619,61.697,49.5,60.875,49.5z M59,35.5 c-0.827,0-1.5,0.673-1.5,1.5v8c0,0.827,0.673,1.5,1.5,1.5s1.5-0.673,1.5-1.5v-8C60.5,36.173,59.827,35.5,59,35.5z"/><path fill="#66798f" d="M57,29v4.825v2.989l0.01-0.013C57.003,36.866,57,36.933,57,37v8c0,1.103,0.897,2,2,2s2-0.897,2-2v-8 c0-1.103-0.897-2-2-2c-0.261,0-0.511,0.05-0.74,0.142l0.539-0.715C59.149,33.961,60.118,33,60.875,33C62.285,33,63,34.009,63,36v10 c0,2.245-1.459,3-2.125,3c-0.652,0-1.806-0.518-2.38-0.844L57,47.307V49h-2V29H57 M58,28h-4v22h4v-0.975 c0,0,1.708,0.975,2.875,0.975C62.042,50,64,48.846,64,46V36c0-3.098-1.625-4-3.125-4S58,33.825,58,33.825V28L58,28z M59,46 c-0.55,0-1-0.45-1-1v-8c0-0.55,0.45-1,1-1s1,0.45,1,1v8C60,45.55,59.55,46,59,46L59,46z"/></g></svg>