<svg xmlns="http://www.w3.org/2000/svg"  viewBox="0 0 24 24" width="100px" height="100px" clip-rule="evenodd"><path fill="#333" d="M18,0H6C4.8969727,0,4,0.8969727,4,2v20c0,1.1030273,0.8969727,2,2,2h12c1.1030273,0,2-0.8969727,2-2V2 C20,0.8969727,19.1030273,0,18,0z"/><path fill="#010101" d="M18,23.75H6c-1.1030273,0-2-0.8969727-2-2V22c0,1.1030273,0.8969727,2,2,2h12 c1.1030273,0,2-0.8969727,2-2v-0.25C20,22.8530273,19.1030273,23.75,18,23.75z" opacity=".2"/><path fill="#FFF" d="M6,0.25h12c1.1030273,0,2,0.8969727,2,2V2c0-1.1030273-0.8969727-2-2-2H6 C4.8969727,0,4,0.8969727,4,2v0.25C4,1.1469727,4.8969727,0.25,6,0.25z" opacity=".1"/><rect width="14" height="16" x="5" y="4" fill="#F3F3F3"/><linearGradient id="8qPWLqwRdnVMq7vs6M6Doa" x1="3.186" x2="20.814" y1="7.89" y2="16.11" gradientUnits="userSpaceOnUse"><stop offset="0" stop-color="#fff" stop-opacity=".2"/><stop offset="1" stop-color="#fff" stop-opacity="0"/></linearGradient><rect width="14" height="16" x="5" y="4" fill="url(#8qPWLqwRdnVMq7vs6M6Doa)"/><linearGradient id="8qPWLqwRdnVMq7vs6M6Dob" x1="-268" x2="-268" y1="-292" y2="-293" gradientTransform="rotate(180 -128 -145.5)" gradientUnits="userSpaceOnUse"><stop offset="0" stop-color="#fff" stop-opacity=".05"/><stop offset="1" stop-color="#fff" stop-opacity=".15"/></linearGradient><circle cx="12" cy="1.5" r=".5" fill="url(#8qPWLqwRdnVMq7vs6M6Dob)"/><linearGradient id="8qPWLqwRdnVMq7vs6M6Doc" x1="12" x2="12" y1="1.724" y2="1.328" gradientUnits="userSpaceOnUse"><stop offset="0" stop-color="#fff" stop-opacity=".05"/><stop offset="1" stop-color="#fff" stop-opacity=".1"/></linearGradient><circle cx="12" cy="1.5" r=".25" fill="url(#8qPWLqwRdnVMq7vs6M6Doc)"/><linearGradient id="8qPWLqwRdnVMq7vs6M6Dod" x1="10.336" x2="13.664" y1="1.974" y2="3.526" gradientUnits="userSpaceOnUse"><stop offset="0" stop-color="#fff" stop-opacity=".05"/><stop offset="1" stop-color="#fff" stop-opacity="0"/></linearGradient><path fill="url(#8qPWLqwRdnVMq7vs6M6Dod)" d="M13.7500229,3h-3.500001c-0.1380711,0-0.249999-0.1119287-0.249999-0.2499998V2.7499998 c0-0.1380711,0.111928-0.2499998,0.249999-0.2499998h3.500001c0.1380711,0,0.25,0.1119287,0.25,0.2499998v0.0000005 C14.0000229,2.8880713,13.8880939,3,13.7500229,3z"/><linearGradient id="8qPWLqwRdnVMq7vs6M6Doe" x1="-325.664" x2="-322.336" y1="-334.026" y2="-332.474" gradientTransform="rotate(180 -156 -165.25)" gradientUnits="userSpaceOnUse"><stop offset="0" stop-color="#fff" stop-opacity=".1"/><stop offset="1" stop-color="#fff" stop-opacity="0"/></linearGradient><path fill="url(#8qPWLqwRdnVMq7vs6M6Doe)" d="M10.2500219,2.5h3.500001c0.1380711,0,0.25,0.1119287,0.25,0.2499998v0.0000005 c0,0.1380711-0.1119289,0.2499998-0.25,0.2499998h-3.500001c-0.1380711,0-0.249999-0.1119287-0.249999-0.2499998V2.7499998 C10.0000229,2.6119287,10.1119509,2.5,10.2500219,2.5z"/><linearGradient id="8qPWLqwRdnVMq7vs6M6Dof" x1="12" x2="12" y1="21" y2="23" gradientUnits="userSpaceOnUse"><stop offset="0" stop-color="#fff" stop-opacity=".05"/><stop offset="1" stop-color="#fff" stop-opacity=".2"/></linearGradient><circle cx="12" cy="22" r="1" fill="url(#8qPWLqwRdnVMq7vs6M6Dof)"/><linearGradient id="8qPWLqwRdnVMq7vs6M6Dog" x1="12" x2="12" y1="22.75" y2="21.25" gradientUnits="userSpaceOnUse"><stop offset="0" stop-color="#fff" stop-opacity=".05"/><stop offset="1" stop-color="#fff" stop-opacity=".1"/></linearGradient><circle cx="12" cy="22" r=".75" fill="url(#8qPWLqwRdnVMq7vs6M6Dog)"/><linearGradient id="8qPWLqwRdnVMq7vs6M6Doh" x1="11.368" x2="12.487" y1="21.368" y2="22.487" gradientUnits="userSpaceOnUse"><stop offset="0" stop-color="#010101" stop-opacity=".1"/><stop offset="1" stop-color="#010101" stop-opacity="0"/></linearGradient><circle cx="12" cy="22" r="1" fill="url(#8qPWLqwRdnVMq7vs6M6Doh)"/><path fill="#1A1A1A" fill-rule="evenodd" d="M13.9262848,12.2502041 c-0.0096636-1.0116596,0.8265867-1.4992275,0.8643255-1.522336c-0.4695835-0.6884193-1.2022104-0.7826586-1.4631195-0.7936764 c-0.6228209-0.0625381-1.2155018,0.3671761-1.5317097,0.3671761c-0.3153515,0-0.8036318-0.3576498-1.3197651-0.3474808 c-0.6796036,0.00945-1.3056231,0.3945313-1.6555223,1.0024157c-0.7051229,1.2243242-0.1802406,3.0375566,0.5073948,4.0307989 c0.3356133,0.485013,0.7367554,1.0321436,1.2627668,1.0123787c0.5073977-0.0198946,0.6984425-0.3272266,1.3103905-0.3272266 c0.6124372,0,0.784441,0.3272266,1.3211184,0.3171339c0.5444899-0.0098019,0.8906937-0.4953814,1.2242403-0.9823761 C14.8319836,14.4429016,14.990757,13.8968353,15,13.8684778C14.9882698,13.8642159,13.9373035,13.4607325,13.9262848,12.2502041 L13.9262848,12.2502041z" clip-rule="evenodd"/><path fill="#1A1A1A" fill-rule="evenodd" d="M12.9197407,9.2777643 C13.1992741,8.9389524,13.386837,8.4687986,13.3354483,8c-0.4023476,0.0159845-0.8901958,0.2685757-1.1783981,0.6063318 c-0.2590647,0.2997179-0.4857903,0.778327-0.4243116,1.2373085C12.1815739,9.87854,12.6400661,9.6159248,12.9197407,9.2777643 L12.9197407,9.2777643z" clip-rule="evenodd"/><linearGradient id="8qPWLqwRdnVMq7vs6M6Doi" x1="8.617" x2="14.849" y1="11.372" y2="14.278" gradientUnits="userSpaceOnUse"><stop offset="0" stop-color="#fff" stop-opacity=".2"/><stop offset="1" stop-color="#fff" stop-opacity="0"/></linearGradient><path fill="url(#8qPWLqwRdnVMq7vs6M6Doi)" d="M13.9262848,12.2502041c-0.0096636-1.0116596,0.8265867-1.4992275,0.8643255-1.522336 c-0.4695835-0.6884193-1.2022104-0.7826586-1.4631195-0.7936764c-0.6228209-0.0625381-1.2155018,0.3671761-1.5317097,0.3671761 c-0.3153515,0-0.8036318-0.3576498-1.3197651-0.3474808c-0.6796036,0.00945-1.3056231,0.3945313-1.6555223,1.0024157 c-0.7051229,1.2243242-0.1802406,3.0375566,0.5073948,4.0307989c0.3356133,0.485013,0.7367554,1.0321436,1.2627668,1.0123787 c0.5073977-0.0198946,0.6984425-0.3272266,1.3103905-0.3272266c0.6124372,0,0.784441,0.3272266,1.3211184,0.3171339 c0.5444899-0.0098019,0.8906937-0.4953814,1.2242403-0.9823761C14.8319836,14.4429016,14.990757,13.8968353,15,13.8684778 C14.9882698,13.8642159,13.9373035,13.4607325,13.9262848,12.2502041L13.9262848,12.2502041z"/><linearGradient id="8qPWLqwRdnVMq7vs6M6Doj" x1="12.04" x2="13.043" y1="8.692" y2="9.159" gradientUnits="userSpaceOnUse"><stop offset="0" stop-color="#fff" stop-opacity=".2"/><stop offset="1" stop-color="#fff" stop-opacity="0"/></linearGradient><path fill="url(#8qPWLqwRdnVMq7vs6M6Doj)" d="M12.9197407,9.2777643C13.1992741,8.9389524,13.386837,8.4687986,13.3354483,8 c-0.4023476,0.0159845-0.8901958,0.2685757-1.1783981,0.6063318c-0.2590647,0.2997179-0.4857903,0.778327-0.4243116,1.2373085 C12.1815739,9.87854,12.6400661,9.6159248,12.9197407,9.2777643L12.9197407,9.2777643z"/><linearGradient id="8qPWLqwRdnVMq7vs6M6Dok" x1="1.429" x2="22.571" y1="7.071" y2="16.929" gradientUnits="userSpaceOnUse"><stop offset="0" stop-color="#fff" stop-opacity=".2"/><stop offset="1" stop-color="#fff" stop-opacity="0"/></linearGradient><path fill="url(#8qPWLqwRdnVMq7vs6M6Dok)" d="M18,0H6C4.8969727,0,4,0.8969727,4,2v20c0,1.1030273,0.8969727,2,2,2h12 c1.1030273,0,2-0.8969727,2-2V2C20,0.8969727,19.1030273,0,18,0z"/></svg>