<svg xmlns="http://www.w3.org/2000/svg"  viewBox="0 0 256 256" width="256px" height="256px"><path fill="#d6df58" d="M47.791,26.006c0,0,3.408,12.659,13.222,13.246c0,0-13.1,4.525-13.321,14.202c0,0-2.579-13.572-12.925-14.059 C34.767,39.395,46.818,37.569,47.791,26.006z"/><path fill="#3a312a" d="M47.691,54.953c-0.713,0-1.335-0.506-1.473-1.217c-0.023-0.124-2.494-12.417-11.522-12.842 c-0.771-0.037-1.388-0.651-1.428-1.421c-0.04-0.771,0.511-1.445,1.273-1.561c0.441-0.069,10.895-1.817,11.754-12.033 c0.062-0.725,0.635-1.301,1.359-1.367c0.739-0.058,1.394,0.399,1.584,1.102c0.031,0.116,3.259,11.626,11.863,12.141 c0.714,0.043,1.297,0.584,1.396,1.293c0.098,0.708-0.318,1.388-0.994,1.622c-0.121,0.042-12.118,4.311-12.311,12.819 c-0.018,0.767-0.61,1.396-1.375,1.459C47.775,54.952,47.733,54.953,47.691,54.953z M39.949,39.224 c3.879,1.969,6.23,5.746,7.588,8.877c2.026-4.021,5.941-6.787,8.948-8.427c-4.134-1.842-6.783-5.651-8.334-8.722 C46.358,35.311,42.88,37.819,39.949,39.224z"/><path fill="#d6df58" d="M26.092,42.986c0,0,2.411,8.954,9.352,9.369c0,0-9.266,3.201-9.422,10.045c0,0-1.824-9.6-9.142-9.944 C16.88,52.457,25.404,51.165,26.092,42.986z"/><path fill="#3a312a" d="M26.021,63.901c-0.714,0-1.337-0.507-1.473-1.22c-0.016-0.082-1.704-8.442-7.739-8.726 c-0.771-0.037-1.388-0.651-1.428-1.421c-0.04-0.771,0.511-1.445,1.274-1.561c0.296-0.047,7.363-1.243,7.942-8.114 c0.062-0.726,0.636-1.303,1.361-1.368c0.712-0.06,1.392,0.399,1.582,1.102l0,0c0.021,0.079,2.227,7.92,7.993,8.265 c0.714,0.043,1.299,0.585,1.396,1.294c0.097,0.709-0.32,1.388-0.996,1.622c-0.081,0.028-8.282,2.952-8.412,8.662 c-0.018,0.767-0.611,1.397-1.376,1.461C26.104,63.899,26.062,63.901,26.021,63.901z M21.502,52.373 c2.107,1.333,3.523,3.395,4.447,5.28c1.376-2.232,3.516-3.872,5.365-4.972c-2.287-1.27-3.885-3.35-4.942-5.224 C25.199,49.743,23.357,51.332,21.502,52.373z"/><path fill="#d6df58" d="M26.092,16.329c0,0,2.411,8.954,9.352,9.369c0,0-9.266,3.201-9.422,10.045c0,0-1.824-9.6-9.142-9.944 C16.88,25.799,25.404,24.508,26.092,16.329z"/><path fill="#3a312a" d="M26.021,37.243c-0.714,0-1.337-0.507-1.473-1.22c-0.016-0.082-1.704-8.442-7.739-8.726 c-0.771-0.037-1.388-0.651-1.428-1.421c-0.04-0.77,0.511-1.445,1.274-1.561c0.296-0.047,7.363-1.243,7.942-8.113 c0.062-0.726,0.636-1.303,1.361-1.368c0.712-0.059,1.392,0.399,1.582,1.101l0,0c0.021,0.079,2.227,7.919,7.993,8.264 c0.714,0.043,1.299,0.585,1.396,1.294c0.097,0.709-0.32,1.388-0.996,1.622c-0.081,0.028-8.282,2.953-8.412,8.662 c-0.018,0.767-0.611,1.397-1.376,1.461C26.104,37.242,26.062,37.243,26.021,37.243z M21.502,25.716 c2.107,1.333,3.523,3.394,4.447,5.28c1.376-2.232,3.515-3.872,5.365-4.973c-2.287-1.269-3.885-3.35-4.942-5.224 C25.199,23.086,23.357,24.674,21.502,25.716z"/><path fill="#87796f" d="M210.41,238.212c-0.98,0.97-2.26,1.46-3.54,1.46c-1.28,0-2.56-0.49-3.54-1.46l-75.21-75.21l-7.08-7.08 l-62.81-62.81h14.16l138.02,138.02C212.36,233.091,212.36,236.252,210.41,238.212z"/><path fill="#3a312a" d="M206.87,241.171c-1.73,0-3.362-0.673-4.596-1.894L57.17,94.172c-0.429-0.429-0.558-1.074-0.325-1.635 c0.232-0.561,0.779-0.926,1.386-0.926H72.39c0.397,0,0.779,0.158,1.061,0.439l138.021,138.02c2.525,2.538,2.525,6.663,0.003,9.199 c-0.003,0.003-0.006,0.005-0.009,0.008C210.231,240.499,208.6,241.171,206.87,241.171z M210.41,238.211h0.01H210.41z M61.852,94.611l142.539,142.54c1.323,1.311,3.622,1.319,4.96-0.001c1.358-1.369,1.356-3.593-0.004-4.96L71.769,94.611H61.852z"/><path fill="#87796f" d="M85.235,191.727L45.83,231.132c-1.95,1.96-1.95,5.12,0,7.08c0.98,0.97,2.26,1.46,3.54,1.46 c1.28,0,2.56-0.49,3.54-1.46l82.29-82.29l62.81-62.81h-14.16l-88.663,88.663L85.235,191.727z"/><path fill="#3a312a" d="M49.37,241.171c-1.73,0-3.362-0.673-4.596-1.894c-2.53-2.543-2.53-6.668-0.008-9.204l39.407-39.407 c0.586-0.586,1.535-0.586,2.121,0c0.586,0.585,0.586,1.536,0,2.121l-39.404,39.404c-1.359,1.366-1.359,3.593,0.003,4.961 c1.32,1.307,3.624,1.317,4.962-0.008L194.389,94.611h-9.918l-88.224,88.224c-0.586,0.586-1.535,0.586-2.121,0 c-0.586-0.585-0.586-1.536,0-2.121l88.663-88.664c0.281-0.281,0.663-0.439,1.061-0.439h14.16c0.606,0,1.153,0.365,1.386,0.926 c0.232,0.561,0.104,1.206-0.325,1.635l-145.1,145.1C52.731,240.499,51.1,241.171,49.37,241.171z"/><path fill="#8ac5dc" d="M79.716,72.172H27.561c-5.766,0-10.441,4.674-10.441,10.441v0.062c0,5.766,4.675,10.441,10.441,10.441h201.118 c5.766,0,10.441-4.674,10.441-10.441v-0.062c0-5.766-4.674-10.441-10.441-10.441H92.527H79.716z"/><path fill="#3a312a" d="M228.68,94.615H27.56c-6.584,0-11.94-5.356-11.94-11.941c0-6.646,5.357-12.002,11.94-12.002h52.155 c0.828,0,1.5,0.671,1.5,1.5c0,0.829-0.672,1.5-1.5,1.5H27.56c-4.93,0-8.94,4.011-8.94,8.94c0,4.992,4.011,9.003,8.94,9.003H228.68 c4.93,0,8.94-4.011,8.94-8.941c0-4.992-4.011-9.002-8.94-9.002H92.527c-0.828,0-1.5-0.671-1.5-1.5c0-0.829,0.672-1.5,1.5-1.5 H228.68c6.584,0,11.94,5.356,11.94,11.94C240.62,89.259,235.264,94.615,228.68,94.615z"/><circle cx="128.12" cy="154.171" r="13.5" fill="#d6df58"/><path fill="#3a312a" d="M128.12,169.171c-8.271,0-15-6.729-15-15s6.729-15,15-15s15,6.729,15,15S136.392,169.171,128.12,169.171z M128.12,142.171c-6.617,0-12,5.383-12,12s5.383,12,12,12s12-5.383,12-12S134.737,142.171,128.12,142.171z"/><circle cx="128.12" cy="154.171" r="6" fill="#87796f"/><path fill="#3a312a" d="M128.12,161.671c-4.136,0-7.5-3.364-7.5-7.5c0-4.136,3.364-7.5,7.5-7.5c4.136,0,7.5,3.364,7.5,7.5 C135.62,158.307,132.256,161.671,128.12,161.671z M128.12,149.671c-2.481,0-4.5,2.018-4.5,4.5c0,2.481,2.019,4.5,4.5,4.5 c2.481,0,4.5-2.019,4.5-4.5C132.62,151.69,130.602,149.671,128.12,149.671z"/><path fill="#6ca6be" d="M237.62,82.677c0,4.93-4.01,8.94-8.94,8.94h-15c4.93,0,8.94-4.01,8.94-8.94c0-4.99-4.01-9.01-8.94-9.01h15 C233.61,73.667,237.62,77.687,237.62,82.677z"/><path fill="#d6df58" d="M193.961,32.781v2.955h-16.988v-2.955c0-1.302,1.053-2.356,2.356-2.356h12.277 C192.908,30.425,193.961,31.479,193.961,32.781z"/><path fill="#3a312a" d="M193.961,37.235h-16.987c-0.828,0-1.5-0.671-1.5-1.5v-2.955c0-2.126,1.729-3.855,3.855-3.855h12.276 c2.126,0,3.855,1.729,3.855,3.855v2.955C195.461,36.564,194.789,37.235,193.961,37.235z M178.474,34.235h13.987v-1.455 c0-0.472-0.384-0.855-0.855-0.855h-12.276c-0.472,0-0.855,0.384-0.855,0.855V34.235z"/><path fill="#87796f" d="M206.474,31.422v4.314h-8.243v-4.314c0-3.588-2.92-6.507-6.508-6.507h-24.925 c-2.277,0-4.121-1.844-4.121-4.121s1.844-4.121,4.121-4.121h24.925C199.857,16.671,206.474,23.288,206.474,31.422z"/><path fill="#3a312a" d="M206.474,37.235h-8.242c-0.828,0-1.5-0.671-1.5-1.5v-4.314c0-2.761-2.246-5.008-5.008-5.008h-24.925 c-3.1,0-5.621-2.522-5.621-5.621s2.521-5.622,5.621-5.622h24.925c8.96,0,16.25,7.29,16.25,16.25v4.314 C207.974,36.564,207.302,37.235,206.474,37.235z M199.731,34.235h5.242v-2.814c0-7.306-5.944-13.25-13.25-13.25h-24.925 c-1.445,0-2.621,1.176-2.621,2.622c0,1.445,1.176,2.621,2.621,2.621h24.925c4.415,0,8.008,3.592,8.008,8.008V34.235z"/><path fill="#ef6d7a" d="M119.065,72.172L119.065,72.172h80.837c3.629,0,6.571-2.942,6.571-6.571V35.736h-31.067 C151.092,35.736,129.039,49.997,119.065,72.172z"/><path fill="#3a312a" d="M199.902,73.672h-80.838c-0.509,0-0.983-0.258-1.26-0.686c-0.276-0.427-0.317-0.966-0.108-1.43 c10.198-22.671,32.851-37.321,57.71-37.321h31.067c0.828,0,1.5,0.671,1.5,1.5V65.6C207.974,70.051,204.352,73.672,199.902,73.672z M121.434,70.672h78.469c2.796,0,5.071-2.275,5.071-5.072V37.236h-29.567C152.508,37.236,131.575,50.283,121.434,70.672z"/><path fill="#fae6ca" d="M125.089,61.683c-2.317,3.254-4.345,6.756-6.024,10.489l0,0h80.837c3.629,0,6.571-2.942,6.571-6.571v-3.918 H125.089z"/><path fill="#3a312a" d="M199.902,73.672h-80.838c-0.509,0-0.983-0.258-1.26-0.686c-0.276-0.427-0.317-0.966-0.108-1.43 c1.685-3.744,3.761-7.359,6.171-10.744c0.281-0.395,0.736-0.63,1.222-0.63h81.385c0.828,0,1.5,0.671,1.5,1.5V65.6 C207.974,70.051,204.352,73.672,199.902,73.672z M121.436,70.672h78.467c2.796,0,5.071-2.275,5.071-5.072v-2.417h-79.105 C124.209,65.577,122.724,68.086,121.436,70.672z"/></svg>