<svg xmlns="http://www.w3.org/2000/svg"  viewBox="0 0 80 80" width="100px" height="100px"><path fill="#ffeea3" d="M53.3,54.2c-0.9,0-1.8-0.4-2.5-1L37.8,40.1c0,0-0.1-0.1-0.1-0.1L19,28.9c-0.8-0.5-1.3-1.3-1.5-2.2 s0-1.9,0.5-2.6c0.7-1,1.7-1.6,2.9-1.6c0.7,0,1.4,0.2,1.9,0.6l19,11.4c0.2,0.1,0.4,0.3,0.5,0.4l13.4,13.9c1.4,1.4,1.4,3.1,0,4.4 C55.1,53.8,54.2,54.2,53.3,54.2z"/><path fill="#ba9b48" d="M21,23c0.6,0,1.2,0.2,1.7,0.5l18.9,11.3c0.2,0.1,0.3,0.2,0.4,0.4l13.4,13.9c1.2,1.2,1.2,2.5,0,3.7 c-0.6,0.6-1.3,0.9-2.1,0.9s-1.6-0.3-2.1-0.9L38.1,39.7c-0.1-0.1-0.1-0.1-0.2-0.2L19.3,28.5c-0.7-0.4-1.1-1.1-1.3-1.9 c-0.2-0.8,0-1.6,0.4-2.3C19,23.5,20,23,21,23 M21,22c-1.3,0-2.6,0.6-3.3,1.8c-1.2,1.8-0.7,4.3,1.1,5.5l18.7,11.1l13.1,13.1 c0.8,0.8,1.8,1.2,2.8,1.2s2-0.4,2.8-1.2c1.6-1.6,1.6-3.6,0-5.1L42.8,34.5c-0.2-0.2-0.4-0.4-0.6-0.5l-19-11.3 C22.5,22.2,21.7,22,21,22L21,22z"/><path fill="#99c99e" d="M68,45.3c-0.8,0-1.5-0.2-2.2-0.7L50.2,32.4c-0.9-0.6-1.5-1.5-1.7-2.5l-2.4-11.1 c-0.4-2.2,1-4.3,3.1-4.7c2.2-0.4,4.3,1,4.7,3.1l2,9.5L70.2,38c1.8,1.2,2.3,3.7,1.1,5.5C70.5,44.7,69.3,45.3,68,45.3z"/><path fill="#5e9c76" d="M68,45.8c-0.9,0-1.8-0.3-2.5-0.8L49.8,32.8c-1-0.6-1.7-1.7-1.9-2.8l-2.4-11.1 c-0.2-1.2,0-2.4,0.7-3.4c0.7-1,1.7-1.7,2.9-1.9c2.4-0.5,4.8,1.1,5.3,3.5l2,9.3l14.1,11.2c1,0.6,1.6,1.7,1.9,2.8 c0.2,1.2,0,2.4-0.7,3.4C70.9,45.1,69.5,45.8,68,45.8z M50,14.5c-0.2,0-0.5,0-0.7,0.1c-0.9,0.2-1.7,0.7-2.2,1.5 c-0.5,0.8-0.7,1.7-0.5,2.6l2.4,11.1c0.2,0.9,0.7,1.7,1.5,2.2l15.6,12.3c0.5,0.4,1.2,0.6,1.9,0.6c1.2,0,2.3-0.6,2.9-1.6 c0.5-0.8,0.7-1.7,0.5-2.6s-0.7-1.7-1.5-2.2L55.5,26.9l-2.1-9.6C53.1,15.6,51.7,14.5,50,14.5z"/><path fill="#8bb7f0" d="M30,72c-1.6,0-3.1-1-3.7-2.5l-4.5-12.8l-11.2-14h10.7l7.1,9.5c0.2,0.3,0.4,0.6,0.6,1l4.7,13.3 c0.8,2.1-0.2,4.4-2.2,5.2C31,71.9,30.5,72,30,72z"/><path fill="#4e7ab5" d="M30,72.5c-1.9,0-3.5-1.1-4.2-2.8L21.3,57L9.6,42.2h12l7.3,9.7c0.3,0.3,0.5,0.7,0.7,1.1l4.7,13.4 c0.4,1.1,0.4,2.3,0,3.4c-0.5,1.1-1.4,2-2.5,2.4C31.1,72.4,30.6,72.5,30,72.5z M11.6,43.2l10.6,13.4l4.5,12.8 c0.5,1.3,1.8,2.2,3.2,2.2c0.4,0,0.9-0.1,1.3-0.3c0.9-0.3,1.6-1,1.9-1.9c0.4-0.9,0.4-1.8,0-2.7l-4.7-13.4c-0.1-0.3-0.3-0.6-0.5-0.9 l-7-9.3H11.6z"/><path fill="#ffeea3" d="M28,19.5c-3,0-5.5-2.5-5.5-5.5S25,8.5,28,8.5s5.5,2.5,5.5,5.5S31,19.5,28,19.5z"/><path fill="#ba9b48" d="M28,9c2.8,0,5,2.2,5,5s-2.2,5-5,5s-5-2.2-5-5S25.2,9,28,9 M28,8c-3.3,0-6,2.7-6,6s2.7,6,6,6 c3.3,0,6-2.7,6-6S31.3,8,28,8L28,8z"/><g><path fill="#ffeea3" d="M44,65.5c-3,0-5.5-2.5-5.5-5.5s2.5-5.5,5.5-5.5c3,0,5.5,2.5,5.5,5.5S47,65.5,44,65.5z"/><path fill="#ba9b48" d="M44,55c2.8,0,5,2.2,5,5c0,2.8-2.2,5-5,5s-5-2.2-5-5C39,57.3,41.3,55,44,55 M44,54c-3.3,0-6,2.7-6,6 s2.7,6,6,6c3.3,0,6-2.7,6-6C50,56.7,47.3,54,44,54L44,54z"/></g><g><path fill="#8bb7f0" d="M4,71.5c-0.9,0-1.8-0.4-2.5-1c-1.4-1.4-1.4-3.6,0-5l9-10L8.4,42.6c0,0,0-2.1,0.6-3.3l6.8-13.7 c1-1.9,2.9-3.1,5-3.1c0.9,0,1.7,0.2,2.5,0.6c2.6,1.3,10.1,6.2,12,7.4l-3.8,6l-5.7-3.1l-4.9,9l-3.4,3.4V57c0,0.9-0.4,1.8-1,2.5 l-10,11C5.8,71.2,4.9,71.5,4,71.5z"/><path fill="#4e7ab5" d="M20.9,23c0.8,0,1.6,0.2,2.3,0.5c2.4,1.2,9.1,5.5,11.5,7.1l-3.3,5.1l-4.9-2.6l-0.9-0.5l-0.5,0.9 l-4.7,8.5l-3.2,3.2L17,45.6V46v11c0,0.8-0.3,1.6-0.9,2.2l-10,11C5.5,70.7,4.8,71,4,71s-1.6-0.3-2.1-0.9c-1.2-1.2-1.2-3.1,0-4.2l0,0 l0,0l8.8-9.9l0.3-0.4L11,55.2l-2-12.6c0-0.7,0.1-2.2,0.5-3.1l6.8-13.7C17.2,24.1,18.9,23,20.9,23 M20.9,22c-2.2,0-4.4,1.2-5.5,3.4 L8.6,39.1c-0.6,1.3-0.6,3.5-0.6,3.6L10,55.3l-8.8,9.9c-1.6,1.6-1.6,4.1,0,5.7C1.9,71.6,3,72,4,72s2-0.4,2.8-1.2l10-11 c0.8-0.8,1.2-1.8,1.2-2.8V46l3.3-3.3L26,34l5.7,3.1l4.3-6.8c0,0-9.4-6.2-12.4-7.7C22.7,22.2,21.8,22,20.9,22L20.9,22z"/></g><g><path fill="#99c99e" d="M55.4,55.5c-1.1,0-2.2-0.3-3.2-1l0,0l-0.1,0c-0.3-0.1-0.6-0.3-0.8-0.5L40.6,42.9l4.8-4.9l6.6,6.7 l10.5-9.4v-8.7c0-1,0.3-1.9,1-2.5l10-8.5c0.7-0.7,1.6-1.1,2.5-1.1c0.9,0,1.8,0.4,2.5,1c1.4,1.4,1.4,3.6,0,5l-9,7.5l1.9,11.3 c0,0.3,0.2,1.1,0.2,1.5c0,1.5-0.6,2.9-1.6,4l-10.5,9.1C58.3,55,56.9,55.5,55.4,55.5L55.4,55.5z"/><path fill="#5e9c76" d="M76,15.1c0.8,0,1.6,0.3,2.1,0.9c0.6,0.6,0.9,1.3,0.9,2.1c0,0.8-0.3,1.5-0.8,2.1l-8.8,7.3l-0.4,0.4 l0.1,0.6l1.8,11c0.1,0.4,0.2,1.1,0.2,1.4c0,1.4-0.5,2.6-1.4,3.6l-10.5,9.1l0,0l0,0c-1,1-2.2,1.5-3.6,1.5c-1,0-2-0.3-2.9-0.9 l-0.1-0.1l-0.1,0c-0.2-0.1-0.4-0.2-0.6-0.5L41.3,42.9l4.1-4.2l5.9,6l0.7,0.7l0.7-0.6l10-9l0.3-0.3V35v-8.5c0-0.8,0.3-1.6,0.8-2.1 l10-8.5l0,0l0,0C74.4,15.4,75.2,15.1,76,15.1 M76,14.1c-1,0-2,0.4-2.8,1.2l-10,8.5c-0.8,0.8-1.1,1.8-1.1,2.8V35l-10,9l-6.6-6.8 l-5.5,5.6L51,54.3c0.3,0.3,0.6,0.5,1,0.7c1,0.7,2.2,1.1,3.4,1.1c1.6,0,3.1-0.6,4.3-1.8l10.5-9.2c1.2-1.2,1.8-2.7,1.8-4.3 c0-0.5-0.2-1.6-0.2-1.6l-1.8-11l8.8-7.3c1.6-1.6,1.6-4.1,0-5.7C78,14.4,77,14.1,76,14.1L76,14.1z"/></g></svg>