<svg xmlns="http://www.w3.org/2000/svg"  viewBox="0 0 60 60" width="100px" height="100px"><path fill="#d1d7db" d="M33,29V40h4a2.006,2.006,0,0,1,2,2v1a2.006,2.006,0,0,1-2,2H33v4h4a2.006,2.006,0,0,1,2,2v1a2.006,2.006,0,0,1-2,2H33v2a3,3,0,0,1-6,0V29l3-3Z"/><path fill="#fcbe5d" d="M39.93,12.19A9.389,9.389,0,0,0,40,11a10,10,0,0,0-20,0,9.389,9.389,0,0,0,.07,1.19A10,10,0,1,0,30,27.99a10,10,0,1,0,9.93-15.8ZM22,27a5,5,0,1,1,5-5A5,5,0,0,1,22,27Zm8-11a5,5,0,1,1,5-5A5,5,0,0,1,30,16Zm8,11a5,5,0,1,1,5-5A5,5,0,0,1,38,27Z"/></svg>