<svg xmlns="http://www.w3.org/2000/svg"  viewBox="0 0 80 80" width="100px" height="100px"><path fill="#a6714e" d="M70.572,19.5c0.226-1.851,0.533-7.625-3.369-12.813c8.633,1.701,10.04,10.571,10.259,12.813H70.572z"/><path fill="#7a4f34" d="M68.366,7.487c3.167,0.957,5.536,3.083,7.06,6.344c0.945,2.02,1.325,4.009,1.477,5.168h-5.778 C71.306,16.829,71.278,12.054,68.366,7.487 M66,6c5.495,6.25,3.992,14,3.992,14H78C78,20,77.628,7.25,66,6L66,6z"/><path fill="#a6714e" d="M40.537,19.5c0.097-1.02,0.434-3.408,1.569-5.851c1.793-3.854,4.713-6.192,8.691-6.964 c-3.903,5.189-3.596,10.963-3.37,12.815H40.537z"/><path fill="#7a4f34" d="M49.634,7.487c-2.912,4.567-2.94,9.342-2.759,11.513h-5.78c0.148-1.145,0.522-3.101,1.452-5.111 C44.07,10.595,46.448,8.45,49.634,7.487 M52,6C40.372,7.25,40,20,40,20h8.008C48.008,20,46.505,12.25,52,6L52,6z"/><path fill="#f5ce85" d="M59.501,20.5c-4.963,0-9-4.038-9-9s4.037-9,9-9s9,4.038,9,9S64.464,20.5,59.501,20.5z"/><path fill="#967a44" d="M59.501,3c4.687,0,8.5,3.813,8.5,8.5s-3.813,8.5-8.5,8.5s-8.5-3.813-8.5-8.5S54.814,3,59.501,3 M59.501,2c-5.247,0-9.5,4.253-9.5,9.5s4.253,9.5,9.5,9.5c5.247,0,9.5-4.253,9.5-9.5S64.748,2,59.501,2L59.501,2z"/><path fill="#f5ce85" d="M72.5,55.5c-1.654,0-3-1.346-3-3v-16h6v16C75.5,54.154,74.154,55.5,72.5,55.5z"/><path fill="#967a44" d="M75,37v15.5c0,1.378-1.122,2.5-2.5,2.5S70,53.878,70,52.5V37H75 M76,36h-7v16.5 c0,1.933,1.567,3.5,3.5,3.5s3.5-1.567,3.5-3.5V36L76,36z"/><path fill="#f5ce85" d="M46.5,55.5c-1.654,0-3-1.346-3-3v-16h6v16C49.5,54.154,48.154,55.5,46.5,55.5z"/><path fill="#967a44" d="M49,37v15.5c0,1.378-1.122,2.5-2.5,2.5S44,53.878,44,52.5V37H49 M50,36h-7v16.5 c0,1.933,1.567,3.5,3.5,3.5s3.5-1.567,3.5-3.5V36L50,36z"/><path fill="#f5ce85" d="M63.5,77.5c-2.206,0-4-1.794-4-4v-21h8v21C67.5,75.706,65.706,77.5,63.5,77.5z"/><path fill="#967a44" d="M67,53v20.5c0,1.93-1.57,3.5-3.5,3.5S60,75.43,60,73.5V53H67 M68,52h-9v21.5 c0,2.485,2.015,4.5,4.5,4.5s4.5-2.015,4.5-4.5V52L68,52z"/><path fill="#f5ce85" d="M55.5,77.5c-2.206,0-4-1.794-4-4v-21h8v21C59.5,75.706,57.706,77.5,55.5,77.5z"/><path fill="#967a44" d="M59,53v20.5c0,1.93-1.57,3.5-3.5,3.5S52,75.43,52,73.5V53H59 M60,52h-9v21.5 c0,2.485,2.015,4.5,4.5,4.5s4.5-2.015,4.5-4.5V52L60,52z"/><path fill="#bae0bd" d="M49.501,49.5v-12h-6V34c0-5.238,4.262-9.5,9.5-9.5h13c5.237,0.001,9.499,4.263,9.499,9.5v3.5 h-5.999v12H49.501z"/><path fill="#5e9c76" d="M66.002,24l0,1C70.963,25.001,75,29.038,75,34v3h-4.999h-1v1v11h-19V38v-1h-1h-5v-3 c0-4.963,4.037-9,9-9h13L66.002,24 M66.001,24h-13c-5.523,0-10,4.477-10,10v4h6v12h21V38H76v-4C76,28.478,71.524,24.001,66.001,24 L66.001,24L66.001,24z"/><path fill="#a6714e" d="M50.568,10.5c0.5-4.527,4.326-8,8.933-8s8.433,3.473,8.933,8H50.568z"/><path fill="#7a4f34" d="M59.501,3c4.16,0,7.646,2.999,8.356,7H51.145C51.855,5.999,55.341,3,59.501,3 M59.501,2 c-5.078,0-9.213,3.987-9.475,9h18.949C68.714,5.987,64.579,2,59.501,2L59.501,2z"/><g><path fill="#bae0bd" d="M59.499,61.5c-6.864,0-14-1.985-15.873-2.545L49.368,40.5h20.264l5.74,18.455 C73.498,59.514,66.358,61.5,59.499,61.5z"/><path fill="#5e9c76" d="M69.264,41l5.48,17.618C72.352,59.305,65.808,61,59.499,61c-6.301,0-12.851-1.695-15.245-2.382 L49.736,41H69.264 M70,40H49l-6.001,19.286c0,0,8.379,2.714,16.5,2.714s16.5-2.714,16.5-2.714L70,40L70,40z"/></g><g><path fill="#f5ce85" d="M20,21.5c-5.238,0-9.5-4.262-9.5-9.5s4.262-9.5,9.5-9.5s9.5,4.262,9.5,9.5S25.238,21.5,20,21.5z"/><path fill="#967a44" d="M20,3c4.963,0,9,4.037,9,9s-4.037,9-9,9s-9-4.037-9-9S15.037,3,20,3 M20,2c-5.523,0-10,4.477-10,10 s4.477,10,10,10s10-4.477,10-10S25.523,2,20,2L20,2z"/></g><g><path fill="#f5ce85" d="M34.5,55.5c-1.654,0-3-1.346-3-3v-16h6v16C37.5,54.154,36.154,55.5,34.5,55.5z"/><path fill="#967a44" d="M37,37v15.5c0,1.378-1.122,2.5-2.5,2.5S32,53.878,32,52.5V37H37 M38,36h-7v16.5 c0,1.933,1.567,3.5,3.5,3.5s3.5-1.567,3.5-3.5V36L38,36z"/></g><g><path fill="#f5ce85" d="M5.5,55.5c-1.654,0-3-1.346-3-3v-16h6v16C8.5,54.154,7.154,55.5,5.5,55.5z"/><path fill="#967a44" d="M8,37v15.5C8,53.878,6.878,55,5.5,55S3,53.878,3,52.5V37H8 M9,36H2v16.5C2,54.433,3.567,56,5.5,56 S9,54.433,9,52.5V36L9,36z"/></g><g><path fill="#f5ce85" d="M27,77.5c-2.481,0-4.5-2.019-4.5-4.5V52.5h9V73C31.5,75.481,29.481,77.5,27,77.5z"/><path fill="#967a44" d="M31,53v20c0,2.206-1.794,4-4,4s-4-1.794-4-4V53H31 M32,52H22v21c0,2.761,2.239,5,5,5s5-2.239,5-5 V52L32,52z"/></g><g><path fill="#f5ce85" d="M13,77.5c-2.481,0-4.5-2.019-4.5-4.5V52.5h9V73C17.5,75.481,15.481,77.5,13,77.5z"/><path fill="#967a44" d="M17,53v20c0,2.206-1.794,4-4,4s-4-1.794-4-4V53H17 M18,52H8v21c0,2.761,2.239,5,5,5s5-2.239,5-5V52 L18,52z"/></g><g><path fill="#c2e8ff" d="M8.5,49.5v-12h-6V34c0-5.238,4.262-9.5,9.5-9.5h16c5.238,0,9.5,4.262,9.5,9.5v3.5h-6v12H8.5z"/><path fill="#7496c4" d="M28,25c4.963,0,9,4.037,9,9v3h-5h-1v1v11H9V38v-1H8H3v-3c0-4.963,4.037-9,9-9H28 M28,24H12 C6.477,24,2,28.477,2,34v4h6v12h24V38h6v-4C38,28.477,33.523,24,28,24L28,24z"/></g><g><path fill="#f78f8f" d="M22.207 59.5L20 57.293 17.793 59.5 8.5 59.5 8.5 44.5 31.5 44.5 31.5 59.5z"/><path fill="#c74343" d="M31,45v14h-8.586l-1.707-1.707L20,56.586l-0.707,0.707L17.586,59H9V45H31 M32,44H8v16h10l2-2l2,2 h10V44L32,44z"/></g></svg>