<svg xmlns="http://www.w3.org/2000/svg" viewBox="0 0 50 50" width="50px" height="50px">
  <path d="M25,2C12.317,2,2,12.317,2,25s10.317,23,23,23s23-10.317,23-23S37.683,2,25,2z M10.978,28.024 c-1.669,0-3.024-1.355-3.024-3.024s1.355-3.024,3.024-3.024s3.024,1.355,3.024,3.024S12.647,28.024,10.978,28.024z M20.994,28.003 c-1.656,0-3-1.344-3-3s1.344-3,3-3c1.656,0,3,1.344,3,3S22.65,28.003,20.994,28.003z M31.003,28c-1.656,0-3-1.344-3-3s1.344-3,3-3 c1.656,0,3,1.344,3,3S32.658,28,31.003,28z M41,33c0,0.553-0.447,1-1,1s-1-0.447-1-1V17c0-0.553,0.447-1,1-1s1,0.447,1,1V33z" fill="#000000" />
</svg>