<svg xmlns="http://www.w3.org/2000/svg"  viewBox="0 0 4335 4335" width="135px" height="135px" fill-rule="evenodd" clip-rule="evenodd" image-rendering="optimizeQuality" shape-rendering="geometricPrecision" text-rendering="geometricPrecision"><path fill="#27ae60" d="M608 75l3114 0c300,0 546,246 546,546l0 3114c0,300 -246,546 -546,546l-3114 0c-300,0 -546,-246 -546,-546l0 -3114c0,-300 246,-546 546,-546zm159 215l2795 0c270,0 490,221 490,490l0 2795c0,270 -221,490 -490,490l-2795 0c-270,0 -490,-221 -490,-490l0 -2795c0,-270 221,-490 490,-490z"/><path fill="#27ae60" fill-rule="nonzero" d="M1452 3162l0 -1970 675 0c216,0 381,48 495,144 114,96 171,235 171,417 0,101 -26,189 -79,263 -53,75 -130,134 -231,179 108,35 186,92 233,172 48,79 71,177 71,293l0 186c0,61 7,117 20,165 13,49 37,88 70,119l0 32 -275 0c-35,-31 -57,-76 -68,-136 -10,-60 -15,-121 -15,-184l0 -180c0,-106 -31,-192 -93,-257 -62,-65 -146,-98 -251,-98l-457 0 0 855 -266 0zm266 -1065l381 0c151,0 260,-29 326,-86 67,-57 100,-144 100,-261 0,-110 -32,-196 -97,-256 -65,-61 -165,-91 -302,-91l-408 0 0 694z"/></svg>