<svg xmlns="http://www.w3.org/2000/svg"  viewBox="0 0 4335 4335" width="135px" height="135px" fill-rule="evenodd" clip-rule="evenodd" image-rendering="optimizeQuality" shape-rendering="geometricPrecision" text-rendering="geometricPrecision"><path fill="#27ae60" fill-rule="nonzero" d="M1436 3170l0 -1975 622 0c258,0 465,79 623,238 157,159 235,364 235,615l0 270c0,252 -78,457 -235,615 -157,158 -364,237 -623,237l-622 0zm267 -211l355 0c183,0 327,-60 433,-180 105,-120 158,-274 158,-462l0 -272c0,-186 -53,-339 -158,-459 -106,-120 -250,-180 -433,-180l-355 0 0 1552z"/><path fill="#27ae60" d="M616 75l3121 0c301,0 548,246 548,548l0 3121c0,301 -246,548 -548,548l-3121 0c-301,0 -548,-246 -548,-548l0 -3121c0,-301 246,-548 548,-548zm160 216l2802 0c270,0 492,221 492,492l0 2802c0,270 -221,492 -492,492l-2802 0c-270,0 -492,-221 -492,-492l0 -2802c0,-270 221,-492 492,-492z"/></svg>