<svg xmlns="http://www.w3.org/2000/svg"  viewBox="0 0 4335 4335" width="135px" height="135px" fill-rule="evenodd" clip-rule="evenodd" image-rendering="optimizeQuality" shape-rendering="geometricPrecision" text-rendering="geometricPrecision"><path fill="#27ae60" d="M591 110l3085 0c298,0 541,244 541,541l0 3085c0,298 -243,541 -541,541l-3085 0c-298,0 -541,-244 -541,-541l0 -3085c0,-298 243,-541 541,-541zm158 213l2769 0c267,0 486,219 486,486l0 2769c0,267 -219,486 -486,486l-2769 0c-267,0 -486,-219 -486,-486l0 -2769c0,-267 219,-486 486,-486z"/><path fill="#27ae60" fill-rule="nonzero" d="M1545 2933l0 -1451 236 0 18 215c48,-77 109,-136 181,-179 73,-43 156,-64 249,-64 156,0 277,46 363,137 86,92 129,233 129,425l0 917 -264 0 0 -911c0,-128 -25,-219 -76,-273 -50,-54 -128,-81 -231,-81 -81,0 -150,16 -207,49 -57,33 -102,78 -135,137l0 1078 -264 0z"/></svg>