<svg xmlns="http://www.w3.org/2000/svg"  viewBox="0 0 4335 4335" width="135px" height="135px" fill-rule="evenodd" clip-rule="evenodd" image-rendering="optimizeQuality" shape-rendering="geometricPrecision" text-rendering="geometricPrecision"><path fill="#27ae60" fill-rule="nonzero" d="M1567 3221l0 -2099 265 0 0 837c50,-70 112,-125 185,-164 74,-39 154,-58 243,-58 155,0 276,47 363,140 87,93 130,237 130,431l0 913 -265 0 0 -916c0,-120 -26,-210 -78,-267 -51,-57 -129,-86 -231,-86 -79,0 -148,16 -206,46 -58,31 -106,74 -142,130l0 1092 -265 0z"/><path fill="#27ae60" d="M613 81l3095 0c299,0 543,244 543,543l0 3095c0,299 -244,543 -543,543l-3095 0c-299,0 -543,-244 -543,-543l0 -3095c0,-299 244,-543 543,-543zm158 214l2778 0c268,0 487,219 487,487l0 2778c0,268 -219,487 -487,487l-2778 0c-268,0 -487,-219 -487,-487l0 -2778c0,-268 219,-487 487,-487z"/></svg>