<svg xmlns="http://www.w3.org/2000/svg"  viewBox="0 0 4335 4335" width="135px" height="135px" fill-rule="evenodd" clip-rule="evenodd" image-rendering="optimizeQuality" shape-rendering="geometricPrecision" text-rendering="geometricPrecision"><polygon fill="#27ae60" fill-rule="nonzero" points="1381,1408 1381,1197 2942,1197 2942,1408 2291,1408 2291,3172 2024,3172 2024,1408"/><path fill="#27ae60" d="M601 76l3121 0c301,0 548,246 548,548l0 3121c0,301 -246,548 -548,548l-3121 0c-301,0 -548,-246 -548,-548l0 -3121c0,-301 246,-548 548,-548zm160 216l2802 0c270,0 492,221 492,492l0 2802c0,270 -221,492 -492,492l-2802 0c-270,0 -492,-221 -492,-492l0 -2802c0,-270 221,-492 492,-492z"/></svg>