<svg xmlns="http://www.w3.org/2000/svg"  viewBox="0 0 512 512" width="270px" height="270px" fill-rule="evenodd" clip-rule="evenodd" image-rendering="optimizeQuality" shape-rendering="geometricPrecision" text-rendering="geometricPrecision"><path fill="#3498db" d="M252 11c135,0 244,109 244,244 0,135 -109,244 -244,244 -135,0 -244,-109 -244,-244 0,-135 109,-244 244,-244zm63 318c0,2 0,3 0,5 0,1 0,3 -1,4 0,1 -1,2 -1,3 0,1 -1,2 -2,3 -1,1 -4,3 -7,5 -4,2 -8,5 -14,7 -5,2 -12,4 -19,6 -7,2 -15,2 -23,2 -14,0 -28,-2 -39,-7 -12,-5 -22,-12 -30,-21 -8,-9 -15,-21 -19,-35 -4,-14 -7,-30 -7,-48 0,-19 2,-35 7,-49 5,-14 11,-27 20,-37 9,-10 19,-18 31,-23 12,-5 25,-8 40,-8 6,0 13,1 19,2 6,1 12,3 17,5 5,2 10,4 14,6 4,2 7,4 8,6 2,2 3,3 3,4 0,1 1,2 1,3 0,1 1,2 1,4 0,2 0,3 0,5 0,2 0,4 0,6 0,2 -1,3 -1,4 0,1 -1,2 -2,2 -1,1 -1,1 -2,1 -2,0 -4,-1 -7,-3 -3,-2 -7,-5 -11,-7 -5,-3 -10,-5 -17,-7 -7,-2 -14,-3 -23,-3 -10,0 -19,2 -27,6 -8,4 -15,10 -21,18 -6,8 -10,17 -13,28 -3,11 -5,24 -5,38 0,14 2,27 5,38 3,11 7,20 13,27 6,7 13,13 21,17 8,4 18,6 28,6 9,0 17,-1 23,-3 7,-2 12,-5 17,-7 5,-3 9,-5 12,-7 3,-2 5,-3 7,-3 1,0 2,0 2,1 1,0 1,1 1,2 0,1 1,2 1,4 0,2 0,4 0,7zm-63 -291c120,0 216,97 216,216 0,120 -97,216 -216,216 -120,0 -216,-97 -216,-216 0,-120 97,-216 216,-216z"/></svg>