<svg xmlns="http://www.w3.org/2000/svg"  viewBox="0 0 4335 4335" width="135px" height="135px" fill-rule="evenodd" clip-rule="evenodd" image-rendering="optimizeQuality" shape-rendering="geometricPrecision" text-rendering="geometricPrecision"><path fill="#27ae60" d="M621 68l3131 0c302,0 549,247 549,549l0 3131c0,302 -247,549 -549,549l-3131 0c-302,0 -549,-247 -549,-549l0 -3131c0,-302 247,-549 549,-549zm160 216l2810 0c271,0 493,222 493,493l0 2810c0,271 -222,493 -493,493l-2810 0c-271,0 -493,-222 -493,-493l0 -2810c0,-271 222,-493 493,-493z"/><path fill="#27ae60" fill-rule="nonzero" d="M2053 3246l0 -1473 268 0 0 1473 -268 0zm0 -1852l0 -273 268 0 0 273 -268 0z"/></svg>