<svg xmlns="http://www.w3.org/2000/svg"  viewBox="0 0 4335 4335" width="67px" height="67px" fill-rule="evenodd" clip-rule="evenodd" image-rendering="optimizeQuality" shape-rendering="geometricPrecision" text-rendering="geometricPrecision"><path fill="#2ecc71" d="M634 87l3091 0c298,0 542,244 542,542l0 3091c0,298 -244,542 -542,542l-3091 0c-298,0 -542,-244 -542,-542l0 -3091c0,-298 244,-542 542,-542zm158 214l2775 0c268,0 487,219 487,487l0 2775c0,268 -219,487 -487,487l-2775 0c-268,0 -487,-219 -487,-487l0 -2775c0,-268 219,-487 487,-487z"/><path fill="#2ecc71" fill-rule="nonzero" d="M1367 3153l706 -1956 227 0 691 1956 -270 0 -172 -501 -737 0 -175 501 -270 0zm522 -724l585 0 -285 -840 -8 0 -292 840z"/></svg>