<svg xmlns="http://www.w3.org/2000/svg"  viewBox="0 0 4335 4335" width="135px" height="135px" fill-rule="evenodd" clip-rule="evenodd" image-rendering="optimizeQuality" shape-rendering="geometricPrecision" text-rendering="geometricPrecision"><path fill="#27ae60" fill-rule="nonzero" d="M1577 2464l3 -7 256 0c5,94 40,162 106,205 66,43 144,65 232,65 95,0 170,-20 224,-60 54,-40 81,-91 81,-153 0,-59 -22,-107 -67,-144 -45,-37 -130,-69 -255,-97 -173,-37 -305,-88 -398,-155 -93,-67 -139,-156 -139,-268 0,-120 51,-222 152,-307 102,-85 234,-127 396,-127 171,0 310,45 417,136 101,87 152,187 152,301 0,5 0,10 0,14l-3 7 -272 0c0,-63 -28,-120 -83,-171 -56,-51 -126,-76 -211,-76 -94,0 -164,21 -211,63 -47,43 -70,93 -70,152 0,58 20,102 60,134 40,32 124,60 249,87 180,38 316,91 410,161 93,69 140,160 140,272 0,131 -53,237 -158,320 -106,82 -243,124 -413,124 -187,0 -335,-48 -443,-143 -102,-90 -153,-196 -153,-316 0,-5 0,-10 0,-15z"/><path fill="#27ae60" d="M601 70l3119 0c301,0 547,246 547,547l0 3119c0,301 -246,547 -547,547l-3119 0c-301,0 -547,-246 -547,-547l0 -3119c0,-301 246,-547 547,-547zm160 215l2800 0c270,0 491,221 491,491l0 2800c0,270 -221,491 -491,491l-2800 0c-270,0 -491,-221 -491,-491l0 -2800c0,-270 221,-491 491,-491z"/></svg>