<svg xmlns="http://www.w3.org/2000/svg"  viewBox="0 0 4335 4335" width="135px" height="135px" fill-rule="evenodd" clip-rule="evenodd" image-rendering="optimizeQuality" shape-rendering="geometricPrecision" text-rendering="geometricPrecision"><path fill="#27ae60" fill-rule="nonzero" d="M1515 2191l0 -30c0,-216 59,-394 176,-534 117,-140 276,-210 477,-210 202,0 363,70 480,209 118,139 176,318 176,535l0 30c0,218 -59,396 -176,535 -117,139 -276,208 -478,208 -202,0 -362,-70 -479,-208 -118,-139 -176,-317 -176,-534zm266 -1c0,155 33,282 98,382 65,101 162,151 292,151 127,0 223,-50 289,-151 66,-101 99,-228 99,-382l0 -30c0,-153 -33,-280 -100,-381 -66,-101 -163,-152 -291,-152 -127,0 -224,51 -289,152 -66,101 -98,228 -98,381l0 30z"/><path fill="#27ae60" d="M617 78l3106 0c300,0 545,245 545,545l0 3106c0,300 -245,545 -545,545l-3106 0c-300,0 -545,-245 -545,-545l0 -3106c0,-300 245,-545 545,-545zm159 215l2788 0c269,0 489,220 489,489l0 2788c0,269 -220,489 -489,489l-2788 0c-269,0 -489,-220 -489,-489l0 -2788c0,-269 220,-489 489,-489z"/></svg>