<svg xmlns="http://www.w3.org/2000/svg"  viewBox="0 0 48 48" width="100px" height="100px" baseProfile="basic"><path fill="#ed488b" d="M1.5,9.5l6.779,0.835l0.501,5.996l6.639,0.057c0.567,0.005,1.016,0.479,0.99,1.045l-0.35,7.765	c0,0,0.188,2.007,1.522,2.007c1.335,0,1.379-1.743,1.379-2.14c0-0.317-0.22-5.669-0.309-7.808c-0.021-0.507,0.341-0.943,0.841-1.024	c1.598-0.261,4.918-0.738,6.008-0.399c0.176-0.86,2.618-6.246,9.324-6.246s8.629,4.716,8.629,4.716s0.871,2.078,2.312,1.372	s1.199,1.493,1.199,1.493s-0.066,4.346,0.044,5.537c-0.75,0.11-1.919,0.11-1.919,2.206s1.919,1.754,1.919,1.754l-0.64,7.864	c0,0-8.838,0.206-9.074-7.765c-2.441,0-3.191,0.154-3.191,0.154s-1.235-0.221-1.412,1.456c-0.176,1.676-2.315,6.524-7.826,5.751	c-0.188,1.389-2.571,10.021-12.894,6.61c-0.353-4.441-0.456-7.485-0.456-7.485l-1.132-0.779c0,0-1.848,3.58-6.324,0.853	c-1.882-1.147-2.941-2.676-2.912-5.882S1.5,9.5,1.5,9.5z M37.615,19.258c-0.123-1.219-0.57-3.421-2.192-3.346	c-1.593,0.074-1.841,2.082-1.851,3.235c-0.004,0.44,0.341,0.802,0.78,0.813l2.547,0.065C37.321,20.035,37.657,19.678,37.615,19.258z"/><path d="M9.91,32.443c-0.887,1.491-2.814,1.768-4.335,1.188c-1.597-0.609-3.414-2.196-3.759-3.926	c-0.203-1.016-0.096-2.108-0.082-3.139c0.015-1.104,0.031-2.207,0.049-3.311c0.034-2.132,0.071-4.264,0.107-6.395	C1.931,14.407,1.971,11.953,2,9.5C1.833,9.667,1.667,9.833,1.5,10c2.265,0.231,4.513,0.605,6.779,0.835	c-0.167-0.167-0.333-0.333-0.5-0.5c0.544,4.369,0.342,8.833,0.353,13.226c0.003,1.078,0.005,2.156,0.008,3.234	c0.003,1.013-0.007,2.042,0.221,3.035c0.374,1.625,1.465,3.009,2.886,3.86c1.965,1.178,4.291,1.182,6.386,0.365	c0.593-0.231,0.335-1.199-0.266-0.964c-2.251,0.879-4.801,0.717-6.608-1.021c-1.81-1.742-1.616-4.156-1.622-6.473	c-0.006-2.535-0.013-5.069-0.019-7.604c-0.007-2.557-0.023-5.117-0.339-7.659c-0.036-0.291-0.201-0.47-0.5-0.5	C6.013,9.605,3.765,9.231,1.5,9C1.229,8.972,1.003,9.252,1,9.5c-0.059,4.954-0.16,9.907-0.234,14.86	c-0.018,1.221-0.039,2.443-0.05,3.665c-0.009,1.07,0.045,2.133,0.557,3.097c0.879,1.656,2.686,3.129,4.496,3.623	c1.853,0.506,3.99-0.093,5.004-1.797C11.104,32.393,10.239,31.89,9.91,32.443L9.91,32.443z"/><path d="M11,33.5c0.065,1.558,0.104,3.117,0.156,4.675c0.035,1.066-0.222,2.614,0.967,3.127c1.183,0.51,2.724,0.633,3.999,0.658	c1.388,0.028,2.787-0.182,4.076-0.708c2.45-0.999,3.975-2.972,4.748-5.459c0.873-2.808,1.178-5.836,1.308-8.761	C26.409,23.52,26.218,20.005,26,16.5c-0.04-0.639-1.04-0.644-1,0c0.338,5.427,0.625,10.943-0.378,16.32	c-0.442,2.372-1.056,4.948-3.051,6.512c-2.038,1.597-4.775,1.864-7.257,1.463c-0.34-0.055-0.679-0.121-1.016-0.197	c-0.256-0.058-0.758-0.099-0.952-0.304c-0.225-0.239-0.147-0.895-0.158-1.191c-0.013-0.348-0.025-0.696-0.037-1.044	c-0.05-1.519-0.089-3.039-0.152-4.558C11.973,32.859,10.973,32.855,11,33.5L11,33.5z"/><path d="M8.65,16.579c1.114,0.018,2.228,0.036,3.342,0.054c0.536,0.009,1.073,0.017,1.609,0.026	c0.533,0.009,1.179-0.083,1.701,0.031c0.53,0.116,0.529,0.744,0.563,1.187c0.044,0.563,0.049,1.128,0.036,1.692	c-0.026,1.092-0.126,2.181-0.176,3.272c-0.064,1.418-0.359,4.127,1.458,4.65c0.732,0.211,1.454-0.194,1.828-0.821	c0.469-0.785,0.354-1.78,0.341-2.654c-0.018-1.256-0.037-2.512-0.055-3.768c-0.009-0.608-0.018-1.215-0.027-1.823	c-0.008-0.572-0.18-1.401,0.036-1.932c-0.077,0.1-0.153,0.199-0.23,0.299c0.221-0.143,0.686-0.116,0.942-0.142	c0.292-0.029,0.584-0.052,0.877-0.069c0.501-0.029,1.004-0.038,1.506-0.031c0.975,0.013,1.948,0.089,2.92,0.15	c0.643,0.04,0.64-0.96,0-1c-1.037-0.065-2.074-0.147-3.113-0.152c-1.049-0.006-2.275-0.042-3.293,0.228	c-0.439,0.116-0.624,0.411-0.665,0.852c-0.063,0.665,0.014,1.373,0.024,2.041c0.019,1.297,0.038,2.593,0.057,3.89	c0.009,0.648,0.019,1.297,0.028,1.945c0.008,0.591,0.113,1.428-0.378,1.865c-0.554,0.493-1.036-0.18-1.165-0.695	c-0.158-0.631-0.127-1.336-0.118-1.983c0.018-1.335,0.16-2.665,0.199-4c0.028-0.983,0.151-2.314-0.332-3.217	c-0.594-1.112-2.163-0.801-3.213-0.818c-1.568-0.025-3.136-0.051-4.704-0.076C8.006,15.568,8.006,16.568,8.65,16.579L8.65,16.579z"/><path d="M25.078,34.597c2.536,0.241,5.094-0.809,6.674-2.819c0.751-0.956,1.288-2.087,1.51-3.286	c0.048-0.262,0.031-0.658,0.213-0.865c0.201-0.229,0.816-0.164,1.12-0.182c0.829-0.048,1.658-0.096,2.487-0.144	c0.64-0.037,0.644-1.037,0-1c-0.79,0.046-1.579,0.091-2.369,0.137c-0.578,0.033-1.346-0.052-1.831,0.326	c-0.432,0.337-0.48,0.866-0.568,1.37c-0.115,0.664-0.322,1.31-0.63,1.91c-1.261,2.456-3.876,3.811-6.606,3.552	C24.438,33.537,24.442,34.537,25.078,34.597L25.078,34.597z"/><path d="M26,16.5c0.037-2.159,1.822-3.903,3.544-4.99c1.86-1.174,4.051-1.654,6.236-1.474c2.031,0.168,4.101,0.951,5.619,2.332	c0.733,0.667,1.272,1.448,1.694,2.34c0.385,0.814,0.919,1.696,1.941,1.669c0.277-0.007,0.542-0.1,0.811-0.153	c0.385-0.075,0.602-0.102,0.613,0.339c0.017,0.702-0.112,1.426-0.124,2.132c-0.025,1.472,0.085,2.936,0.292,4.393	c0.161-0.211,0.321-0.422,0.482-0.633c-1.069-0.13-2.252,0.089-2.433,1.336c-0.161,1.108-0.02,2.627,1.121,3.17	c0.247,0.118,0.467,0.105,0.726,0.149c0.053,0.009,0.024-0.284-0.019,0.107c-0.019,0.173,0.009,0.361,0.007,0.536	c-0.007,0.74-0.08,1.477-0.167,2.212c-0.177,1.507-0.42,3.012-0.342,4.534c0.167-0.167,0.333-0.333,0.5-0.5	c-2.377,0.105-4.923-0.742-6.693-2.356c-1.836-1.675-2.189-3.964-1.99-6.327c0.201-2.384,0.491-4.797,0.103-7.18	c-0.17-1.046-0.653-2.108-1.682-2.549c-0.96-0.411-1.936-0.013-2.508,0.822c-0.354,0.517-0.524,1.126-0.588,1.744	c-0.058,0.549-0.159,1.346,0.146,1.845c0.306,0.501,0.875,0.478,1.392,0.476c0.823-0.002,1.646-0.005,2.468-0.007	c0.643-0.002,0.645-1.002,0-1c-0.588,0.002-1.175,0.003-1.763,0.005c-0.275,0.001-0.55,0.006-0.825,0.002	c0.016,0-0.386,0.022-0.425-0.022c-0.065-0.073-0.028-0.438-0.028-0.548c0.001-0.856,0.258-2.722,1.534-2.471	c1.233,0.243,1.341,1.958,1.413,2.936c0.076,1.023,0.068,2.048,0.004,3.072c-0.129,2.045-0.569,4.14-0.111,6.171	c0.419,1.857,1.539,3.393,3.086,4.477c1.857,1.302,4.201,2.011,6.468,1.91c0.259-0.012,0.514-0.22,0.5-0.5	c-0.125-2.444,0.623-4.841,0.501-7.281c-0.021-0.412-0.068-0.848-0.495-1.031c-0.46-0.198-0.888,0.014-1.18-0.528	c-0.235-0.437-0.328-1.424-0.126-1.885c0.219-0.5,0.962-0.372,1.406-0.318c0.36,0.044,0.522-0.353,0.482-0.633	c-0.216-1.523-0.298-3.064-0.244-4.602c0.033-0.932,0.546-2.524-0.624-2.954c-0.469-0.172-0.9-0.049-1.369,0.05	c-0.834,0.176-1.091-0.465-1.396-1.114c-0.467-0.991-1.098-1.871-1.917-2.602c-3.445-3.072-8.924-3.421-12.835-1.057	c-2.105,1.273-4.159,3.36-4.204,5.955C24.989,17.144,25.989,17.144,26,16.5L26,16.5z"/></svg>