<?xml version="1.0" encoding="utf-8"?><!-- Generator: Adobe Illustrator 23.0.1, SVG Export Plug-In . SVG Version: 6.00 Build 0)  --><svg xmlns="http://www.w3.org/2000/svg" xmlns:xlink="http://www.w3.org/1999/xlink" viewBox="0 0 100 100" width="100px" height="100px"><title>people man_25</title><g id="line3"><circle style="fill:#FFFFFF;" cx="20.2" cy="56.3" r="0.9"/><circle style="fill:#FFFFFF;" cx="79.2" cy="31.5" r="0.7"/><circle style="fill:#F1BC19;" cx="76.6" cy="12.4" r="0.9"/><circle style="fill:#F1BC19;" cx="20.7" cy="64" r="0.9"/><circle style="fill:#FCE0A2;" cx="49.5" cy="49.7" r="37.5"/><circle style="fill:#F1BC19;" cx="82" cy="14.6" r="4"/><circle style="fill:#DB2E4C;" cx="86" cy="23.7" r="1.9"/><circle style="fill:#FBCD59;" cx="77.1" cy="76.1" r="1.9"/><circle style="fill:#FBCD59;" cx="13.9" cy="63.1" r="4"/><circle style="fill:#DB2E4C;" cx="24.1" cy="87.3" r="1.9"/><circle style="fill:#FFFFFF;" cx="75.7" cy="30" r="1.8"/><circle style="fill:#FFFFFF;" cx="17.6" cy="51" r="2.5"/><path style="fill:#895F3F;" d="M68,70.9c-0.4-2.2-1.3-3.4-3.3-4l-0.3-0.1l-0.6-0.2C62.4,66,55,63.2,55,63.2c-0.6-0.1-1-0.5-1.2-1.1   c-0.2-0.9-0.3-1.9-0.2-2.9c-1.6,0.6-3.3,1-5,1.4c-1.9,0.2-6-2.3-6-2.3s-0.1,3-0.2,3.7c-0.2,0.6-0.7,1-1.3,1.1l-7.1,2.6   c-0.8,0.2-1.5,0.5-2.2,0.9c-1.5,1-2.6,2.4-3.2,4.2c0,0-0.5,3.3-0.5,3.4c0,0.5-0.1,1-0.1,1.5c7.8,5.3,14,6.7,24.7,6.3   c4.9-0.2,12.1-2.6,15.9-4.5C68.3,73.3,68,70.9,68,70.9z"/><path style="fill:#FDFCEF;" d="M55.1,63.9l-0.9-0.3c-0.2-0.1-0.4-0.2-0.6-0.3c-1.7,0.7-1.6,1.4-3.7,1.4c0.8,0-0.8-0.4,0,0   c-3,0.3-6.5,1-8.4-1.3c-0.1,0.1-0.2,0.1-0.4,0.2l-0.9,0.3L40,64c1.5,4.1,4.9,18.8,6.4,22.9h3.4c1.8-3.8,5.9-18.4,7.5-22.3   L55.1,63.9z"/><path style="fill:#FBCD59;" d="M46.2,69.2l-1.8-4.1h7.3l-1.8,4.1c-0.6,1-1.8,1.4-2.8,0.8C46.7,69.8,46.4,69.5,46.2,69.2z"/><path style="fill:#FBCD59;" d="M49.6,70.7l1,15.9l-5,0.2l1.3-16.1C47.6,69.2,48.8,69.2,49.6,70.7z"/><path style="fill:#E1E0D8;" d="M42.6,62.2l-1.8,1.3l3.9,6l3.6-4.5C48.4,65,42.9,63.5,42.6,62.2z"/><path style="fill:#E1E0D8;" d="M53.4,62.2l1.8,1.3l-3.9,6L47.7,65C47.7,65,53.2,63.5,53.4,62.2z"/><path style="fill:#836F61;" d="M28.8,69.2c0.4-1,3.2-2.9,4.3-3.3l1.5-0.5l0,0l5.8-2.3c1.5,3.9,5.1,20,6.8,23.8   c-3.2,0.1-6.4-0.3-9.5-1.1c-3.6-1.4-7-3.2-10.2-5.3C27.7,79.7,27.5,72.4,28.8,69.2z"/><path style="fill:#836F61;" d="M67.4,68.5c-0.4-1-1.2-1.1-2.3-1.4l-1.5-0.5l0,0l-8.2-2.7C54,67.7,50.2,83,48.8,87.1   c3.8,0.2,7.6-0.3,11.2-1.3c6.3-1.8,8.8-3.4,8.8-3.5C68.7,81.5,68.7,71.7,67.4,68.5z"/><g style="opacity:0.38;"><path style="fill:#472B29;" d="M34.8,84.6c-0.2,0-0.4-0.2-0.4-0.3v-3.9c0-0.2,0.2-0.3,0.4-0.3s0.4,0.2,0.4,0.3v3.9    C35.1,84.5,34.9,84.6,34.8,84.6z"/><path style="fill:#472B29;" d="M61.1,85.3c-0.2,0-0.3-0.2-0.3-0.3v-4.6c0-0.2,0.2-0.3,0.3-0.3s0.3,0.2,0.3,0.3V85    C61.4,85.2,61.3,85.3,61.1,85.3z"/></g><g><path style="fill:#A3754F;" d="M60.3,44.4h-0.4c-1,0-1.2,0.3-1.2-0.3c0.1-1.1-0.1-5.4-0.1-5.6c0-4.5-4.7-8.1-10.5-8.3h-0.2    c-5.8,0.2-10.5,3.8-10.5,8.3c0,0.2-0.2,4.5-0.1,5.6c0,0.6-0.2,0.2-1.2,0.3h-0.4c-1,0-1.8,0.7-2.1,1.6c0.1,0.1,0.6,3.7,1.4,5.2    c0.4,0.8,1.1,0.9,1.8,1.4c0.3,0.2,0.5,0.6,0.6,1c0.5,1.6,1.4,3,2.7,4.1c0.6,0.6,4.5,4.7,7.8,4.5s7.3-4,7.9-4.5    c1.3-1.1,2.2-2.5,2.7-4.1c0.1-0.4,0.3-0.8,0.6-1c0.7-0.5,1.4-0.6,1.8-1.4c0.8-1.4,1.3-5.1,1.4-5.2C62.1,45,61.2,44.4,60.3,44.4z"/><path style="fill:#472B29;" d="M47.8,62.5c-1.5,0-4.1-0.8-7.7-4.5L40,57.9c-1.3-1.1-2.3-2.6-2.8-4.2c-0.1-0.4-0.2-0.6-0.5-0.8    c-0.2-0.2-0.4-0.3-0.6-0.4c-0.5-0.3-0.9-0.5-1.3-1.2c-0.6-1-1-3.1-1.2-4.3c-0.1-0.3-0.1-0.7-0.2-0.8l-0.1-0.1l0.1-0.3    c0.3-1.1,1.3-1.8,2.4-1.8h0.4c0.4,0,0.7,0,0.8,0.1c-0.1-0.9,0-3.8,0.1-5c0-0.3,0-0.5,0-0.5c0-4.6,4.7-8.4,10.8-8.6l0.2,0    c6.1,0.2,10.8,4,10.8,8.6c0,0,0,0.2,0,0.5c0,1.2,0.1,4.1,0.1,5c0.2,0,0.5-0.1,0.9-0.1l0.3,0c1.1,0,2.1,0.7,2.4,1.8l0.1,0.3    l-0.1,0.1c0,0.2-0.1,0.5-0.2,0.8c-0.2,1.2-0.6,3.2-1.2,4.3c-0.3,0.6-0.8,0.9-1.3,1.2c-0.2,0.1-0.4,0.2-0.6,0.4    c-0.2,0.2-0.4,0.5-0.4,0.8c-0.5,1.7-1.5,3.2-2.8,4.3L56,58.1c-3.1,2.8-5.7,4.3-7.9,4.5C48,62.5,47.9,62.5,47.8,62.5z M34.1,45.9    c0,0.2,0.1,0.4,0.2,1c0.2,1.2,0.6,3.1,1.1,4.1c0.2,0.5,0.6,0.6,1,0.9c0.2,0.1,0.5,0.3,0.7,0.4c0.4,0.3,0.6,0.7,0.7,1.2    c0.5,1.5,1.4,2.8,2.6,3.9l0.2,0.2c3.7,3.7,6.1,4.4,7.4,4.3c1.4-0.1,3.8-0.9,7.5-4.3l0.2-0.2c1.2-1.1,2.1-2.4,2.6-3.9    c0-0.4,0.3-0.9,0.7-1.2c0.3-0.2,0.5-0.3,0.7-0.5c0.4-0.2,0.8-0.4,1-0.9c0.5-0.9,0.9-2.9,1.1-4.1c0.1-0.5,0.2-0.8,0.2-1    c-0.3-0.7-0.9-1.2-1.7-1.2h-0.4c-0.3,0-0.6,0-0.8,0c-0.2,0-0.4,0.1-0.6-0.1c-0.2-0.2-0.2-0.4-0.2-0.6c0.1-0.8,0-3.7-0.1-5    c0-0.3,0-0.5,0-0.6c0-4.3-4.5-7.7-10.1-7.9l-0.2,0c-5.7,0.2-10.1,3.7-10.1,7.9c0,0,0,0.2,0,0.5c0,1.1-0.1,4.2-0.1,5    c0,0.2,0,0.5-0.2,0.6c-0.2,0.2-0.4,0.1-0.6,0.1c-0.2,0-0.4-0.1-0.7,0l-0.4,0C35.1,44.7,34.4,45.2,34.1,45.9z"/></g><path style="fill:#512C2B;" d="M48.1,51.4c0.7,0,1.3-0.3,1.8-0.8c0,0,0-0.1,0-0.2c0,0,0,0,0,0l0,0c0,0-0.1,0-0.2,0c0,0,0,0,0,0   c-0.4,0.4-1,0.7-1.6,0.6c-0.6,0-1.2-0.2-1.6-0.6c0,0-0.1,0-0.1,0c0,0,0,0-0.1,0c0,0,0,0.1,0,0.2C46.8,51.1,47.4,51.4,48.1,51.4z"/><path style="fill:#512C2B;" d="M45.9,42.2l0.4-0.8c-1.9-0.4-3.8-0.4-5.7,0.2l0.5,0.8C42.8,41.9,44.4,41.8,45.9,42.2z"/><path style="fill:#512C2B;" d="M55.1,42.2l0.4-0.8c-1.9-0.4-3.8-0.4-5.7,0.2l0.5,0.8C51.9,41.9,53.6,41.8,55.1,42.2z"/><path style="fill:#512C2B;" d="M43.3,43.4c-0.4,0-0.8,0.3-1,0.7c0.1,0,0.1,0,0.2,0c0.4,0,0.7,0.3,0.7,0.7c0,0.4-0.3,0.7-0.7,0.7   c-0.1,0-0.2,0-0.3-0.1c0.1,0.6,0.6,1.1,1.2,1.1c0.9-0.2,1.4-1.1,1.2-2C44.4,44,43.9,43.5,43.3,43.4L43.3,43.4z"/><path style="fill:#512C2B;" d="M52.9,43.4c-0.4,0-0.8,0.2-1,0.5c0.1,0,0.2-0.1,0.2,0c0.4,0,0.7,0.3,0.7,0.7c0,0.4-0.3,0.7-0.7,0.7   c-0.2,0-0.4-0.1-0.5-0.3c-0.1,0.8,0.5,1.5,1.3,1.6c0.9-0.2,1.4-1.1,1.2-2C53.9,44,53.4,43.5,52.9,43.4L52.9,43.4z"/><path style="fill:#512C2B;" d="M53.4,53.3c0,0,0.1-0.1,0-0.1c0,0,0,0,0,0l0,0c0,0-0.1,0-0.2,0c0,0,0,0,0,0c-1.5,1-3.3,1.5-5.2,1.4   c-1.8,0.1-3.6-0.4-5.1-1.4c0,0,0,0-0.1,0c0,0-0.1,0-0.1,0c0,0,0,0.1,0,0.2c0,0,0,0,0,0C46,55.5,50.2,55.5,53.4,53.3L53.4,53.3z"/><path style="fill:#512C2B;" d="M38.2,40.8c0.5-2.2,1.2-4.3,2.3-6.2c-0.3-0.5-0.9-0.7-1.5-0.5c-1.4,2.6-2.1,5.5-2.1,8.5   c0.1,1.4,0.3,2.7,0.7,4C37.9,44.6,37.8,42.7,38.2,40.8z"/><path style="fill:#512C2B;" d="M58,40.8c-0.5-2.2-1.2-4.3-2.3-6.2c0.3-0.5,1-0.7,1.5-0.5c1.4,2.6,2.2,5.5,2.1,8.5   c-0.1,1.4-0.3,2.7-0.7,4C58.3,44.6,58.4,42.7,58,40.8z"/><path style="fill:#512C2B;" d="M49.5,58.5c0.1,0,0.1-0.1,0.1-0.2c0-0.1,0-0.1-0.1-0.2h-2.6c-0.1,0-0.1,0.1-0.1,0.2s0,0.2,0.1,0.2   H49.5z"/><path style="fill:#472B29;" d="M49.2,87.3c-8.9,0-14.7-1.8-21.5-6.4c-0.2-0.1-0.2-0.3-0.2-0.5c0-0.1,0-0.5,0-1.1   c0-2.2,0.1-6.7,0.6-8.4c0.4-1.9,1.6-3.6,3.4-4.5c0.7-0.4,1.5-0.7,2.3-1l7.1-2.6c0.5-0.1,0.9-0.4,1-0.8c0-0.3,0.1-1.2,0.1-2   c-0.7-0.5-1.4-1-2.1-1.6c-1.3-1.2-2.3-2.7-2.8-4.4c-0.1-0.3-0.2-0.6-0.4-0.8c-0.2-0.1-0.4-0.3-0.6-0.4c-0.5-0.3-1-0.6-1.4-1.2   c-0.8-1.7-1.3-3.5-1.4-5.4c0-0.1,0-0.1,0-0.2c0.3-1.1,1.4-1.9,2.6-1.9h0.4c0.3,0,0.5,0,0.7,0c0-1.2,0-3.8,0.1-4.9   c0-0.3,0-0.5,0-0.5c0-4.8,4.8-8.7,11-8.9l0.2,0c6.2,0.2,11,4.1,11,8.9c0,0,0,0.2,0,0.5c0,1.2,0.1,3.8,0.1,4.9c0.2,0,0.4,0,0.7,0   h0.4c1.2,0,2.2,0.8,2.6,1.9c0,0.1,0,0.1,0,0.2c-0.2,1.9-0.6,3.7-1.4,5.4c-0.4,0.7-0.9,1-1.4,1.3c-0.2,0.1-0.4,0.2-0.6,0.4   c-0.2,0.2-0.3,0.4-0.4,0.7c-0.5,1.8-1.5,3.3-2.9,4.5c-0.7,0.6-1.5,1.2-2.2,1.8c0,0.6,0.1,1.3,0.3,1.9c0.2,0.3,0.5,0.6,0.9,0.7   c0.3,0.1,7.5,2.8,8.8,3.3l0.9,0.3c2.1,0.6,3.2,1.9,3.7,4.4c0,0,0,0,0,0.1c0,0,0.3,6.9,0.5,11.2c0,0.2-0.1,0.4-0.3,0.5   c-4,2-11.3,4.4-16.1,4.6C51.4,87.3,50.3,87.3,49.2,87.3z M28.4,80.2c7.4,5,13.5,6.5,24.2,6c4.5-0.2,11.4-2.4,15.4-4.3   c-0.2-4.1-0.5-10.3-0.5-10.8c-0.4-2.1-1.2-3.1-3-3.6l-1-0.4c-1.3-0.5-8.6-3.3-8.7-3.3c-0.7-0.2-1.2-0.7-1.5-1.4   C53,61.7,52.9,60.8,53,60c0-0.2,0.1-0.3,0.2-0.4c0.8-0.6,1.6-1.2,2.3-1.8c1.2-1.1,2.1-2.4,2.6-3.9c0.1-0.4,0.3-0.9,0.7-1.2   c0.3-0.2,0.5-0.3,0.7-0.5c0.4-0.2,0.7-0.4,1-0.8c0.7-1.5,1.2-3.2,1.3-4.9c-0.2-0.7-0.9-1.1-1.6-1.1h-0.4c-0.3,0-0.5,0-0.7,0.1   c-0.3,0-0.6,0.1-0.8-0.1c-0.2-0.2-0.2-0.6-0.2-0.7c0.1-0.8,0-3.9-0.1-5c0-0.3,0-0.5,0-0.6c0-4.2-4.4-7.7-10-7.9l-0.2,0   c-5.6,0.2-10,3.7-10,7.9c0,0,0,0.2,0,0.5c0,1.2-0.1,4.2-0.1,5.1c0,0.2,0,0.5-0.2,0.7c-0.2,0.2-0.5,0.2-0.7,0.1   c-0.2,0-0.4-0.1-0.7,0l-0.4,0c-0.7,0-1.3,0.5-1.6,1.1c0.2,1.7,0.6,3.4,1.3,5c0.2,0.4,0.5,0.6,0.9,0.8c0.2,0.1,0.5,0.3,0.7,0.4   c0.4,0.3,0.7,0.8,0.8,1.3c0.4,1.4,1.3,2.8,2.5,3.8c0.7,0.6,1.5,1.2,2.2,1.7c0.1,0.1,0.2,0.2,0.2,0.4c0,1-0.1,2.1-0.2,2.5   c-0.3,0.8-0.9,1.4-1.7,1.6l-7,2.6c-0.8,0.2-1.5,0.5-2.1,0.9c-1.5,0.8-2.6,2.2-2.9,3.8c-0.5,1.7-0.5,6.3-0.6,8.2   C28.5,79.7,28.4,80,28.4,80.2z"/><path style="fill:#895D3D;" d="M60.3,49.2l-0.6-0.1l0.2-1.8l-1,0.4l-0.2-0.5l1.5-0.6c0.1,0,0.2,0,0.3,0c0.1,0.1,0.1,0.2,0.1,0.3   L60.3,49.2z"/><path style="fill:#895D3D;" d="M36.1,48.9l-0.3-2.3c0-0.1,0-0.2,0.1-0.3c0.1-0.1,0.2-0.1,0.3,0l1.5,0.7l-0.2,0.5l-1-0.4l0.2,1.8   L36.1,48.9z"/><path style="fill:#472B29;" d="M37.5,53.3C37.4,53.3,37.4,53.3,37.5,53.3c-0.1,0-0.2-0.1-0.2-0.2l0.2-8.6c0-0.1,0.1-0.2,0.2-0.2   c0,0,0,0,0,0c0.1,0,0.2,0.1,0.2,0.2l-0.2,8.6C37.6,53.3,37.6,53.3,37.5,53.3z"/><path style="fill:#472B29;" d="M58.8,53.3c-0.1,0-0.2-0.1-0.2-0.2l-0.2-8.6c0-0.1,0.1-0.2,0.2-0.2c0.1,0,0.2,0.1,0.2,0.2l0.2,8.6   C59,53.2,58.9,53.3,58.8,53.3C58.8,53.3,58.8,53.3,58.8,53.3z"/><path style="fill:#512C2B;" d="M59.5,42c0.5-4.9-0.9-7.8-2-9.2c-2.7-2.2-6-3.4-9.5-3.4c-2.9,0-5.8,0.8-8.2,2.4   c-1.9,2-4.2,5.7-3.1,10.1c0.2,2.2,0.5,4.4,1,6.5c0.2-2,0.2-6.4,0.6-8.3c0.3-1.4,0.7-2.8,1.3-4.1c2.7-3,14.1-2.9,17,0   c0.5,1.3,1,2.7,1.3,4.1c0.4,1.9,0.4,6.3,0.8,8.2C59.1,46.3,59.3,44.1,59.5,42z"/><path style="fill:#5E2E2E;" d="M61.8,34.9c-0.3,0.5-0.8,0.9-1.4,1.1c-0.1-0.2-0.2-0.4-0.3-0.6c0.4-0.5,0.6-1.2,0.5-1.8   c-0.2-1.3-1.5-2.2-2.8-2c0,0,0,0,0,0l0,0c0-0.3,0-0.6,0-1c-0.2-1.7-1.8-2.9-3.5-2.6c-0.3,0-0.6,0.1-0.9,0.3c0,0,0-0.1,0-0.1   c-0.4-2-2.4-3.4-4.4-3c-1.2,0.2-2.2,0.9-2.9,1.9c-0.9-0.4-2-0.5-3-0.4c-2.5,0.4-4.3,2.5-4,4.6c0,0.1,0,0.2,0.1,0.3   c-0.5,0.4-0.9,1-1,1.6c-0.1,1.6,1.1,3.1,2.8,3.2c0.8,0.1,1.6,0,2.3-0.4c1.2,2.1,3.6,3.2,6,2.7c1-0.2,2-0.6,2.8-1.2   c0.7,1.1,2,1.6,3.2,1.4c0.3-0.1,0.6-0.1,0.9-0.3c0.6,0.5,1.3,0.8,2.1,0.6c0.5-0.1,1-0.3,1.3-0.7C60.8,38.3,61.8,37.3,61.8,34.9z"/></g></svg>