<svg xmlns="http://www.w3.org/2000/svg"  viewBox="0 0 64 64" width="128px" height="128px"><ellipse cx="32" cy="61" opacity=".3" rx="19" ry="3"/><path fill="#a7b3c7" d="M45,21L45,21c-1.562-1.562-1.562-4.094,0-5.656l3.381-3.381c0.562-0.562,0.273-1.511-0.501-1.691	c-0.99-0.23-2.034-0.321-3.11-0.247c-5.384,0.368-9.714,4.97-9.768,10.367c-0.059,5.885,4.723,10.667,10.608,10.608	c5.397-0.054,9.999-4.384,10.367-9.768c0.073-1.076-0.017-2.12-0.247-3.11c-0.18-0.774-1.129-1.064-1.691-0.501L50.656,21	C49.094,22.562,46.562,22.562,45,21z"/><path fill="#a7b3c7" d="M45.035,20.965c-1.951-1.953-5.119-1.953-7.07,0l-24.5,24.5c-1.953,1.952-1.953,5.118,0,7.07	C14.44,53.512,15.721,54,17,54s2.56-0.488,3.535-1.465l24.5-24.5C46.988,26.083,46.988,22.917,45.035,20.965z M17,51	c-1.105,0-2-0.895-2-2c0-1.105,0.895-2,2-2s2,0.895,2,2C19,50.105,18.105,51,17,51z"/><rect width="6" height="23" x="21.682" y="15.182" fill="#a7b3c7" transform="rotate(-45.001 24.682 26.682)"/><path fill="#a7b3c7" d="M21.5,19.257L17.257,23.5l-3.761-1.612c-0.773-0.331-1.422-0.898-1.854-1.619l-2.774-4.623	c-0.472-0.787-0.348-1.794,0.301-2.443l2.034-2.034c0.649-0.649,1.656-0.773,2.443-0.301l4.623,2.774	c0.721,0.433,1.287,1.081,1.619,1.854L21.5,19.257z"/><path d="M54.037,17.619l-3.005,3.005c-0.011,0.091-0.039,0.175-0.046,0.267	c-0.19,2.788-2.625,5.08-5.433,5.107c-0.553,0.025-1.093-0.071-1.621-0.228c-1.759-0.524-3.663-0.043-4.961,1.257L18.414,47.586	C18.776,47.948,19,48.448,19,49c0,1.105-0.895,2-2,2c-0.408,0-0.786-0.123-1.103-0.333c-0.404,1.004-0.449,2.108-0.175,3.146	C16.142,53.924,16.569,54,17,54c1.279,0,2.56-0.488,3.535-1.465l21.971-21.971c0.982,0.292,2.023,0.447,3.102,0.436	c5.397-0.054,9.999-4.384,10.367-9.768c0.073-1.076-0.017-2.12-0.247-3.11C55.548,17.346,54.599,17.057,54.037,17.619z" opacity=".15"/><path fill="#fff" d="M17.934,13.441l-4.287-2.572c-0.787-0.472-1.794-0.348-2.443,0.301l-2.034,2.034	c-0.649,0.649-0.773,1.656-0.301,2.443l2.774,4.623c0.433,0.721,1.081,1.287,1.854,1.619l3.761,1.612l3.527,3.527	c0.438-0.438,0.81-0.954,1.069-1.559C22.941,22.931,16,18,17.934,13.441z" opacity=".3"/><path fill="#fd3c4f" d="M47.25,54c1.279,0,2.56-0.488,3.535-1.465c1.953-1.952,1.953-5.118,0-7.07L32.406,27.086 c-1.172-1.172-3.071-1.172-4.243,0l-2.828,2.828c-1.172,1.172-1.172,3.071,0,4.243l18.379,18.379C44.69,53.512,45.971,54,47.25,54z"/><path fill="#fff" d="M45.375,14.968l3.005-3.005c0.562-0.562,0.273-1.511-0.501-1.691	c-0.99-0.23-2.034-0.321-3.11-0.247c-5.384,0.368-9.714,4.97-9.768,10.367c-0.011,1.079,0.144,2.12,0.436,3.102l-1.715,1.715	c0.395,0.105,0.802,0.179,1.23,0.183c0.017,0,0.034,0,0.051,0c2.738,0,4.972-2.206,4.999-4.95c0.027-2.803,2.319-5.237,5.107-5.428	C45.201,15.007,45.285,14.979,45.375,14.968z" opacity=".3"/><path fill="none" stroke="#fff" stroke-linecap="round" stroke-linejoin="round" stroke-miterlimit="10" stroke-width="3" d="M38.405,20.725c0.015-1.472,0.487-2.869,1.28-4.046"/></svg>