<?xml version="1.0" encoding="iso-8859-1"?>
<!-- Generator: Adobe Illustrator 21.0.2, SVG Export Plug-In . SVG Version: 6.00 Build 0)  -->
<svg xmlns="http://www.w3.org/2000/svg" xmlns:xlink="http://www.w3.org/1999/xlink" viewBox="0 0 80 80" width="100px" height="100px">
<g>
	<path style="fill:#FFFFFF;" d="M8.505,77.5c0.267-12.729,10.704-23,23.495-23h16c12.791,0,23.228,10.271,23.495,23H8.505z"/>
	<g>
		<path style="fill:#788B9C;" d="M48,55c12.347,0,22.453,9.78,22.979,22H9.021C9.547,64.78,19.653,55,32,55H48 M48,54H32    C18.745,54,8,64.745,8,78h64C72,64.745,61.255,54,48,54L48,54z"/>
	</g>
</g>
<g>
	<path style="fill:#DEB974;" d="M40,61.5c-7.008,0-9.215-4.771-9.5-5.47V44.5h19v11.53C49.215,56.729,47.009,61.5,40,61.5z"/>
	<g>
		<path style="fill:#967A44;" d="M49,45v10.926C48.625,56.765,46.414,61,40,61c-6.444,0-8.623-4.212-9-5.072V45H49 M50,44H30v12.124    c0,0,2.133,5.876,10,5.876s10-5.876,10-5.876V44L50,44z"/>
	</g>
</g>
<g>
	<g>
		<path style="fill:#DEB974;" d="M54.286,38.929c-2.875,0-5.214-2.339-5.214-5.214s2.339-5.215,5.214-5.215    c3.704,0,5.214,0.959,5.214,3.31C59.5,34.621,57.164,38.929,54.286,38.929z M25.714,38.929c-2.878,0-5.214-4.308-5.214-7.119    c0-2.351,1.511-3.31,5.214-3.31c2.875,0,5.214,2.34,5.214,5.215S28.589,38.929,25.714,38.929z"/>
	</g>
	<g>
		<path style="fill:#967A44;" d="M54.286,29C58.211,29,59,30.075,59,31.81c0,2.829-2.331,6.619-4.714,6.619    c-2.599,0-4.714-2.115-4.714-4.714S51.686,29,54.286,29 M25.714,29c2.599,0,4.714,2.115,4.714,4.714s-2.115,4.714-4.714,4.714    c-2.384,0-4.714-3.79-4.714-6.619C21,30.075,21.789,29,25.714,29 M54.286,28c-3.156,0-5.714,2.558-5.714,5.714    c0,3.156,2.558,5.714,5.714,5.714c3.156,0,5.714-4.463,5.714-7.619C60,28.654,57.442,28,54.286,28L54.286,28z M25.714,28    C22.558,28,20,28.654,20,31.81c0,3.156,2.558,7.619,5.714,7.619c3.156,0,5.714-2.558,5.714-5.714    C31.429,30.558,28.87,28,25.714,28L25.714,28z"/>
	</g>
</g>
<g>
	<g>
		<path style="fill:#F5CE85;" d="M40,53.5c-1.343,0-2.639-0.495-3.648-1.394l-0.091-0.08l-0.118-0.03    C29.288,50.238,24.5,44.071,24.5,37V18.403c0-3.93,3.196-7.126,7.125-7.126h16.749c3.929,0,7.125,3.196,7.125,7.126V37    c0,7.071-4.788,13.238-11.643,14.996l-0.118,0.03l-0.091,0.08C42.639,53.005,41.343,53.5,40,53.5z"/>
	</g>
	<g>
		<path style="fill:#967A44;" d="M48.375,11.778c3.653,0,6.625,2.972,6.625,6.625V37c0,6.842-4.633,12.81-11.268,14.512l-0.235,0.06    l-0.181,0.161C42.398,52.55,41.22,53,40,53c-1.22,0-2.398-0.45-3.316-1.267l-0.181-0.161l-0.235-0.06    C29.633,49.81,25,43.842,25,37V18.403c0-3.653,2.972-6.625,6.625-6.625H48.375 M48.375,10.778H31.625    c-4.211,0-7.625,3.414-7.625,7.625V37c0,7.46,5.112,13.708,12.019,15.48C37.079,53.423,38.47,54,40,54s2.921-0.577,3.981-1.52    C50.888,50.708,56,44.46,56,37V18.403C56,14.192,52.586,10.778,48.375,10.778L48.375,10.778z"/>
	</g>
</g>
<g>
	<path style="fill:#A6714E;" d="M55.5,35.5V28c0-7.021-6.83-10.765-7.121-10.92l-0.351-0.188l-0.262,0.301   c-0.053,0.06-5.36,6.021-14.466,6.021c-3.778,0-8.8,0.703-8.8,6.786v5.5h-0.228C23.565,34.39,20.5,29.38,20.5,26   c0-11.115,7.598-23.5,18.5-23.5c8.037,0,10.441,5.461,10.539,5.693l0.129,0.306L50,8.5c3.973,0,9.5,8.818,9.5,17.5   c0,3.38-3.065,8.39-3.772,9.5H55.5z"/>
	<g>
		<path style="fill:#7A4F34;" d="M39,3c7.678,0,9.985,5.17,10.077,5.385L49.334,9H50c3.385,0,9,8.234,9,17    c0,2.563-1.873,6.159-3,8.091V28c0-7.316-7.083-11.199-7.384-11.361l-0.704-0.377l-0.524,0.603    c-0.051,0.059-5.187,5.849-14.088,5.849c-2.3,0-9.3,0-9.3,7.286v4.092c-1.127-1.93-3-5.524-3-8.092C21,15.121,28.392,3,39,3 M39,2    C27.362,2,20,15.339,20,26c0,4,4,10,4,10h1c0,0,0-4.057,0-6c0-5.336,4.048-6.286,8.3-6.286c9.46,0,14.843-6.193,14.843-6.193    S55,21.199,55,28c0,2.137,0,8,0,8h1c0,0,4-6,4-10c0-9.035-5.753-18-10-18C50,8,47.494,2,39,2L39,2z"/>
	</g>
</g>
<g>
	<g>
		<g>
			<path style="fill:#FFFFFF;" d="M59.498,25.396C57.184,24.972,48.544,23.5,40,23.5s-17.184,1.472-19.498,1.896     c0.06-10.566,1.679-17.968,1.946-19.119C23.178,5.704,27.813,2.5,40,2.5c12.182,0,16.817,3.201,17.552,3.777     C57.82,7.43,59.438,14.831,59.498,25.396z"/>
			<path style="fill:#788B9C;" d="M40,3c11.453,0,16.113,2.848,17.105,3.566c0.347,1.542,1.777,8.469,1.888,18.232     C56.016,24.273,47.967,23,40,23s-16.016,1.273-18.993,1.798c0.111-9.76,1.541-16.687,1.888-18.231C23.902,5.839,28.566,3,40,3      M40,2C26.252,2,22,6,22,6s-2,8-2,20c0,0,10-2,20-2s20,2,20,2c0-12-2-20-2-20S53.75,2,40,2L40,2z"/>
		</g>
		<g>
			<polygon style="fill:#F78F8F;" points="38.5,19.5 38.5,14.5 33.5,14.5 33.5,11.5 38.5,11.5 38.5,6.5 41.5,6.5 41.5,11.5      46.5,11.5 46.5,14.5 41.5,14.5 41.5,19.5    "/>
			<g>
				<path style="fill:#C74343;" d="M41,7v4v1h1h4v2h-4h-1v1v4h-2v-4v-1h-1h-4v-2h4h1v-1V7H41 M42,6h-4v5h-5v4h5v5h4v-5h5v-4h-5V6      L42,6z"/>
			</g>
		</g>
	</g>
</g>
</svg>