<?xml version="1.0" encoding="utf-8"?>
<!-- Generator: Adobe Illustrator 21.1.0, SVG Export Plug-In . SVG Version: 6.00 Build 0)  -->
<svg version="1.1" id="color" xmlns="http://www.w3.org/2000/svg" xmlns:xlink="http://www.w3.org/1999/xlink" x="0px" y="0px"
	 viewBox="0 0 24 24" enable-background="new 0 0 24 24" xml:space="preserve">
<path fill="#D04422" d="M0,20.91l13.688,2.34V0.75L0,3.153V20.91z M4.299,6.955l2.859-0.147c0.53-0.033,1.054,0.025,1.566,0.178
	c0.515,0.15,0.922,0.454,1.223,0.912c0.3,0.456,0.469,0.985,0.51,1.588c0.037,0.603-0.043,1.16-0.244,1.669
	c-0.375,0.86-0.935,1.41-1.684,1.647C7.78,13.039,6.971,13.131,6.1,13.078v3.386l-1.801-0.207V6.955z"/>
<path fill="#D04422" d="M23.49,4.084h-0.006h-8.542v3.152c0.515-0.386,1.132-0.582,1.855-0.582V9.72h3.074
	c-0.015,0.86-0.315,1.585-0.901,2.17c-0.584,0.586-1.318,0.887-2.188,0.906c-0.675-0.02-1.29-0.221-1.829-0.608v2.106h6.719v1.034
	h-6.721v1.279h6.715v1.021h-6.719v2.315h8.543c0.346,0,0.51-0.18,0.51-0.531V4.589C24,4.251,23.836,4.084,23.49,4.084z M17.28,9.216
	V6.125c0.87,0.02,1.6,0.319,2.188,0.9c0.586,0.582,0.891,1.312,0.906,2.191H17.28z"/>
<path fill="#D04422" d="M6.951,11.449c0.285-0.015,0.555-0.089,0.809-0.223c0.313-0.223,0.5-0.519,0.561-0.904
	c0.06-0.387,0.039-0.758-0.064-1.099v0.044H8.256C8.203,9.068,8.116,8.914,7.993,8.8C7.873,8.689,7.711,8.608,7.51,8.557
	c-0.225-0.06-0.457-0.089-0.69-0.089L6.1,8.481v2.967h0.026C6.387,11.465,6.661,11.465,6.951,11.449z"/>
</svg>