<svg xmlns="http://www.w3.org/2000/svg"  viewBox="0 0 48 48" width="144px" height="144px" baseProfile="basic"><path fill="#ffebee" d="M5,39V15h38v24c0,2.209-1.791,4-4,4H9C6.791,43,5,41.209,5,39"/><path fill="#ec407a" d="M43,11v6H5v-6c0-2.209,1.791-4,4-4h30C41.209,7,43,8.791,43,11"/><path fill="#ad1457" d="M36,11c0,1.657-1.343,3-3,3s-3-1.343-3-3s1.343-3,3-3C34.657,8,36,9.343,36,11 M18,11	c0,1.657-1.343,3-3,3s-3-1.343-3-3s1.343-3,3-3S18,9.343,18,11"/><path fill="#b0bec5" d="M33,4c-1.104,0-2,0.896-2,2v5c0,1.104,0.896,2,2,2s2-0.896,2-2V6C35,4.896,34.104,4,33,4 M15,4	c-1.104,0-2,0.896-2,2v5c0,1.104,0.896,2,2,2s2-0.896,2-2V6C17,4.896,16.104,4,15,4"/><path fill="#f44336" d="M16.941,34.031l1.125,4.309l1.121-4.309h1.571v5.958h-1.207v-1.612l0.11-2.483l-1.19,4.096h-0.818 l-1.19-4.096l0.11,2.483v1.612H15.37v-5.958H16.941z"/><path fill="#f44336" d="M26.126,37.547c0,0.799-0.189,1.42-0.566,1.861c-0.378,0.442-0.902,0.663-1.573,0.663 c-0.669,0-1.194-0.219-1.576-0.657c-0.382-0.438-0.575-1.051-0.581-1.839v-1.019c0-0.818,0.19-1.458,0.569-1.917 c0.379-0.46,0.905-0.689,1.579-0.689c0.663,0,1.186,0.226,1.567,0.677s0.575,1.085,0.581,1.9V37.547z M24.919,36.548 c0-0.537-0.076-0.937-0.229-1.198c-0.152-0.263-0.39-0.394-0.712-0.394c-0.319,0-0.555,0.127-0.708,0.379 c-0.152,0.252-0.231,0.636-0.237,1.151v1.061c0,0.521,0.078,0.904,0.233,1.151s0.396,0.37,0.721,0.37 c0.313,0,0.547-0.12,0.699-0.362c0.152-0.241,0.23-0.615,0.233-1.123V36.548z"/><path fill="#f44336" d="M28.763,34.031l1.125,4.309l1.121-4.309h1.571v5.958h-1.207v-1.612l0.11-2.483l-1.19,4.096h-0.818 l-1.19-4.096l0.11,2.483v1.612h-1.203v-5.958H28.763z"/><g><path fill="#f44336" d="M20.5,20c-1.933,0-3.5,1.567-3.5,3.5s1.567,3.5,3.5,3.5s3.5-1.567,3.5-3.5S22.433,20,20.5,20z"/><path fill="#f44336" d="M27.5,20c-1.933,0-3.5,1.567-3.5,3.5s1.567,3.5,3.5,3.5s3.5-1.567,3.5-3.5S29.433,20,27.5,20z"/><path fill="#f44336" d="M23.903,31.667l6.202-5.833L24,23.5l-6.466,1.853L23.903,31.667z"/></g></svg>