<svg xmlns="http://www.w3.org/2000/svg"  viewBox="0 0 48 48" width="100px" height="100px"><linearGradient id="850MbKvxtlPj0Mn4_lCsSa" x1="24" x2="24" y1="38.581" y2="9.134" gradientUnits="userSpaceOnUse"><stop offset=".507" stop-color="#ffcf40"/><stop offset=".559" stop-color="#ffbe41"/><stop offset=".662" stop-color="#ff9243"/><stop offset=".787" stop-color="#ff5447"/><stop offset=".815" stop-color="#ef5148"/><stop offset=".869" stop-color="#c4494b"/><stop offset=".943" stop-color="#803c4f"/><stop offset="1" stop-color="#483252"/></linearGradient><path fill="url(#850MbKvxtlPj0Mn4_lCsSa)" d="M37,41H11c-2.209,0-4-1.791-4-4V11c0-2.209,1.791-4,4-4h26c2.209,0,4,1.791,4,4v26 C41,39.209,39.209,41,37,41z"/><g opacity=".3"><polygon fill="#fff" points="24.709,21.522 25.619,7 22.381,7 23.291,21.522"/><polygon fill="#fff" points="21.351,22.422 22.579,21.713 15.271,7 11.111,7"/><polygon fill="#fff" points="32.729,7 25.421,21.713 26.649,22.422 36.889,7"/><polygon fill="#fff" points="27.879,23.944 41,17.427 41,13.532 27.17,22.716"/><polygon fill="#fff" points="20.83,22.943 7,13.759 7,17.653 20.121,24.171"/></g><radialGradient id="850MbKvxtlPj0Mn4_lCsSb" cx="23.975" cy="25.554" r="15.622" gradientUnits="userSpaceOnUse"><stop offset="0" stop-color="#fff"/><stop offset=".147" stop-color="#fff6e8"/><stop offset=".458" stop-color="#ffdfab"/><stop offset=".903" stop-color="#ffba4c"/><stop offset="1" stop-color="#ffb236"/></radialGradient><circle cx="24" cy="25.668" r="5.531" fill="url(#850MbKvxtlPj0Mn4_lCsSb)"/><linearGradient id="850MbKvxtlPj0Mn4_lCsSc" x1="27.759" x2="43.936" y1="44.385" y2="18.456" gradientUnits="userSpaceOnUse"><stop offset=".303" stop-color="#232c36"/><stop offset=".45" stop-color="#2a323e"/><stop offset=".675" stop-color="#3c4353"/><stop offset=".948" stop-color="#5a5f76"/><stop offset="1" stop-color="#60657d"/></linearGradient><path fill="url(#850MbKvxtlPj0Mn4_lCsSc)" d="M37.909,41C39.616,41,41,39.616,41,37.909V20.972l-2.109-2.776l-2.99,5.726l-1.38,2.501 l-3.515-2.873l-5.536,10.896l-1.343,2.749L22.865,41H37.909z"/><linearGradient id="850MbKvxtlPj0Mn4_lCsSd" x1="41.953" x2="30.107" y1="47.041" y2="29.735" gradientUnits="userSpaceOnUse"><stop offset="0" stop-color="#b0b4bf"/><stop offset=".184" stop-color="#abafba"/><stop offset=".412" stop-color="#9ca1ad"/><stop offset=".663" stop-color="#828997"/><stop offset=".928" stop-color="#606879"/><stop offset="1" stop-color="#555e70"/></linearGradient><polygon fill="url(#850MbKvxtlPj0Mn4_lCsSd)" points="34.583,34.801 32.567,34.801 37.657,39.841" opacity=".3"/><linearGradient id="850MbKvxtlPj0Mn4_lCsSe" x1="44.586" x2="35.447" y1="43.895" y2="30.543" gradientUnits="userSpaceOnUse"><stop offset="0" stop-color="#b0b4bf"/><stop offset=".184" stop-color="#abafba"/><stop offset=".412" stop-color="#9ca1ad"/><stop offset=".663" stop-color="#828997"/><stop offset=".928" stop-color="#606879"/><stop offset="1" stop-color="#555e70"/></linearGradient><path fill="url(#850MbKvxtlPj0Mn4_lCsSe)" d="M40.101,36.263l-2.016-2.318l-0.072,1.429l2.909,3.205 C40.971,38.363,41,38.14,41,37.909v-0.23L40.101,36.263z" opacity=".3"/><linearGradient id="850MbKvxtlPj0Mn4_lCsSf" x1="44.146" x2="37.221" y1="33.849" y2="23.731" gradientUnits="userSpaceOnUse"><stop offset="0" stop-color="#b0b4bf"/><stop offset=".184" stop-color="#abafba"/><stop offset=".412" stop-color="#9ca1ad"/><stop offset=".663" stop-color="#828997"/><stop offset=".928" stop-color="#606879"/><stop offset="1" stop-color="#555e70"/></linearGradient><polygon fill="url(#850MbKvxtlPj0Mn4_lCsSf)" points="41,29.002 39.66,26.007 40.304,29.524 41,30.074 41,29.003" opacity=".3"/><linearGradient id="850MbKvxtlPj0Mn4_lCsSg" x1="27.263" x2="27.263" y1="20.687" y2="39.279" gradientUnits="userSpaceOnUse"><stop offset="0" stop-color="#aeb4c4"/><stop offset=".187" stop-color="#a9afbf"/><stop offset=".418" stop-color="#9aa0b1"/><stop offset=".672" stop-color="#808899"/><stop offset=".941" stop-color="#5e6678"/><stop offset="1" stop-color="#555e70"/></linearGradient><polygon fill="url(#850MbKvxtlPj0Mn4_lCsSg)" points="24.731,33.113 23.446,35.192 22.841,41 24.587,41 24.58,39.085 29.04,30.543 30.778,35.419 31.685,30.203 31.005,23.551"/><linearGradient id="850MbKvxtlPj0Mn4_lCsSh" x1="37.147" x2="37.147" y1="15.771" y2="31.678" gradientUnits="userSpaceOnUse"><stop offset="0" stop-color="#aeb4c4"/><stop offset=".187" stop-color="#a9afbf"/><stop offset=".418" stop-color="#9aa0b1"/><stop offset=".672" stop-color="#808899"/><stop offset=".941" stop-color="#5e6678"/><stop offset="1" stop-color="#555e70"/></linearGradient><path fill="url(#850MbKvxtlPj0Mn4_lCsSh)" d="M36.863,33.151c0.278-0.464,0.529-7.748,0.529-7.748l2.381-2.457l-0.896-4.725L35.9,23.922 l-1.38,2.501l0.491,2.684L36.863,33.151z"/><linearGradient id="850MbKvxtlPj0Mn4_lCsSi" x1="20.711" x2="6.688" y1="47.706" y2="14.751" gradientUnits="userSpaceOnUse"><stop offset=".303" stop-color="#232c36"/><stop offset=".45" stop-color="#2a323e"/><stop offset=".675" stop-color="#3c4353"/><stop offset=".948" stop-color="#5a5f76"/><stop offset="1" stop-color="#60657d"/></linearGradient><path fill="url(#850MbKvxtlPj0Mn4_lCsSi)" d="M26.856,40.427c-0.009-0.026-2.126-6.332-2.126-6.332l-3.446-3.745l-3.029-4.157 l-1.808-5.077l-2.805-2.921l-2.99,5.726L8.38,28.187L7,26.943v10.966C7,39.616,8.384,41,10.091,41h16.866L26.856,40.427z"/><linearGradient id="850MbKvxtlPj0Mn4_lCsSj" x1="25.32" x2="5.709" y1="50.379" y2="21.726" gradientUnits="userSpaceOnUse"><stop offset="0" stop-color="#b0b4bf"/><stop offset=".184" stop-color="#abafba"/><stop offset=".412" stop-color="#9ca1ad"/><stop offset=".663" stop-color="#828997"/><stop offset=".928" stop-color="#606879"/><stop offset="1" stop-color="#555e70"/></linearGradient><path fill="url(#850MbKvxtlPj0Mn4_lCsSj)" d="M15.381,36.707l1.576,2.608l-3.663-3.941l-0.742-1.808L15.381,36.707z M9.261,35.907L7.5,35.003l4.219,3.802l-1.936-2.898H9.261z M14.477,26.901l1.008,2.99l3.06,3.06l-1.495-2.782l-0.869-0.8 L14.477,26.901z M18.986,30.772l1.414,3.222l1.379,1.356l-1.495-2.99L18.986,30.772z" opacity=".3"/><linearGradient id="850MbKvxtlPj0Mn4_lCsSk" x1="15.873" x2="8.389" y1="13.263" y2="34.504" gradientUnits="userSpaceOnUse"><stop offset="0" stop-color="#aeb4c4"/><stop offset=".187" stop-color="#a9afbf"/><stop offset=".418" stop-color="#9aa0b1"/><stop offset=".672" stop-color="#808899"/><stop offset=".941" stop-color="#5e6678"/><stop offset="1" stop-color="#555e70"/></linearGradient><path fill="url(#850MbKvxtlPj0Mn4_lCsSk)" d="M11.487,32.036c0.278-0.464,1.287-7.743,1.287-7.743l1.426-2.469l-0.569-3.603 c-1.274,2.453-3.955,7.564-5.249,9.967C8.815,29.317,10.604,31.223,11.487,32.036z"/></svg>