<svg xmlns="http://www.w3.org/2000/svg"  viewBox="0 0 512 512" width="100px" height="100px"><path fill="#FEBF10" d="M259.6,468c1.2-17-1.8-34.4-2.1-51.4c-0.3-21.7-3.9-43.2-4-64.9c-2.4-0.1-4.8-0.2-7.1-0.2 c-2.6,0-5.2,0-7.8,0c-0.1,0.2-0.1,0.4-0.2,0.6c-0.1,0.3-0.1,0.5-0.2,0.7c0.2,0.7,0.3,1.4,0.2,2.3c-0.8,10.1,2.1,20.3,2.1,30.4 c0,10.6,0.1,21.3,0,31.9c-0.1,19.4-1,38.9-2.5,58.2c2.6,0,5.3,0,7.9-0.1c3.1-0.1,6.3-0.2,9.3-0.7c0.9-0.1,1.8-0.3,2.7-0.6 c0.4-0.2,0.7-0.3,0.9-0.3c0.6-0.7,1.4-1.2,2.3-1.5C260.1,471.2,259.5,469.7,259.6,468z"/><path fill="#14B6B9" d="M156,100.8c-4.1,0.1-7.5,1.3-10,4.8c-1.7,2.4-2.4,5.3-2.1,8.1c1.3,0.5,2.5,1.5,2.9,3.4 c2.9,12.1,23.8,5.8,24.8-4.7C172.4,104.9,162.3,100.6,156,100.8z"/><path fill="#FEBF10" d="M221.7,350.6c-4.2,0.4-9.3,1.3-13.7,0.6c-0.2,0.5-0.3,0.9-0.5,1.5c-0.6,2.2-1.1,4.4-1.6,6.7 c-0.8,3.7-1.7,7.4-2.9,11c-4.7,13.1-8.8,26.4-14.2,39.2c-5.2,12.3-10.5,24.5-16.4,36.6c-4.7,9.6-9.3,19.3-13.3,29.2 c10.5-0.2,21.1-0.3,31.4,1.3c8.2-22.8,13.8-46.3,21.6-69.2c6.3-18.6,7.4-38.6,14.8-56.9C225.1,350.5,223.4,350.5,221.7,350.6z"/><path fill="#127274" d="M218.9,81.5c-9.5-20.5-32.8-34.1-55.3-34.6c-23.1-0.5-41.2,13-53.7,31.5C102,89.9,96.1,104,94.6,118 c-1.3,12.5,1.3,24.3,7.1,35.1c0.5,0.5,0.8,1.2,1.1,2c0.8,1.3,1.6,2.6,2.4,3.8c0.7,1.1,1,2.2,1,3.2c4.5,6.7,11.6,11.6,18.8,15.1 c9.5,4.7,20.6,8.4,31.3,8.3c25.5-0.3,49.4-16.3,60.3-39.2C225.8,126.9,228.1,101.3,218.9,81.5z M139.6,127.6 c-0.2-0.2-0.4-0.3-0.5-0.5c-11.4-12.5-5.4-33.5,11.7-36.8c12.6-2.4,30.4,4.9,31.8,19.2C184.5,130.9,151.1,143.4,139.6,127.6z"/><path fill="#14B6B9" d="M308.3,100.8c-4.1,0.1-7.5,1.3-10,4.8c-1.7,2.4-2.4,5.3-2.1,8.1c1.3,0.5,2.5,1.5,2.9,3.4 c2.9,12.1,23.8,5.8,24.8-4.7C324.7,104.9,314.6,100.6,308.3,100.8z"/><path fill="#127274" d="M371.2,81.5c-9.5-20.5-32.8-34.1-55.3-34.6c-23.1-0.5-41.2,13-53.7,31.5c-7.9,11.6-13.8,25.6-15.3,39.7 c-1.3,12.5,1.3,24.3,7.1,35.1c0.5,0.5,0.8,1.2,1.1,2c0.8,1.3,1.6,2.6,2.4,3.8c0.7,1.1,1,2.2,1,3.2c4.5,6.7,11.6,11.6,18.8,15.1 c9.5,4.7,20.6,8.4,31.3,8.3c25.5-0.3,49.4-16.3,60.3-39.2C378.1,126.9,380.4,101.3,371.2,81.5z M291.9,127.6 c-0.2-0.2-0.4-0.3-0.5-0.5c-11.4-12.5-5.4-33.5,11.7-36.8c12.6-2.4,30.4,4.9,31.8,19.2C336.9,130.9,303.4,143.4,291.9,127.6z"/><path fill="#127274" d="M95.6,237.5c-0.1,0-0.1,0-0.2,0c-1.3,0.1-2.5-0.2-3.4-0.9c-0.3,0-0.6,0-0.6,0c-1.4,0.1-2.8,0.2-4.1,0.3 c-0.6,0.1-1.3,0.1-1.9,0.2c-0.5,3.7,0.1,7.4,0.6,11.1c3.5-0.2,7.2-0.2,10.3,0.7C96.2,245.1,95.9,241.3,95.6,237.5z"/><path fill="#127274" d="M350.6,183.3c-16.8,11.2-37.4,16-57.3,11.2c-6.5-1.6-13.5-3.8-20.1-7c-0.8,1.1-2.1,1.9-4,1.9h-0.7 c0,0,0,0,0,0c-26.2,0-52.9-1.3-79,2c-1.7,0.2-3.1-0.3-4.1-1.2c-13.9,6-29.4,7.8-44.4,4.2c-7.6-1.8-15.8-4.6-23.3-8.6 c-2.4,2-6.4,2.2-8.3-0.9c-0.4,0.1-0.9,0.3-1.3,0.5c-0.6,0.3-1.4,0.7-1.9,1.1c-2.4,2.1-4.5,4.3-5.2,7.6 c-1.3,6.4,0.3,12.4,1.6,18.7c1.5,6.9,2.8,13.8,3.5,20.9c1.6,14.8,1.8,29.8,0.4,44.6c-1,10.9-4.3,26.1,8.8,30.6 c10.8,3.7,23,0.8,33.9-0.3c31.6-3,62.8,2.6,94.4,3.7c16.3,0.6,32.8,0.1,49.1-0.5c14.6-0.5,30,0.7,44-4c4.1-2.5,8.1-5.8,9-10.8 c0.9-5.2-0.1-10.6-1.2-15.7c-0.3-1.5-0.1-2.7,0.6-3.6c-0.2-0.2-0.5-0.5-0.8-0.8c-1.5-1.2-2-2.7-1.9-4.1c-0.1-0.4-0.1-0.9-0.2-1.3 c-0.6-3.6-1.1-7.1-1.5-10.7c-0.8-7.2-1.2-14.3-1.2-21.5c0-3.3,2.4-5.3,5-5.7c2.6-4.1,7.4-7.5,12.1-7.9 C356.9,211.4,357.8,196.1,350.6,183.3z"/><path fill="#127274" d="M408.8,179.8c-0.3,0.2-0.6,0.3-0.7,0.4c-2.1,1.5-3.9,3.2-5.8,5c-5.3,5.2-10.3,10.8-15,16.6 c-5,6.2-9.9,12.7-13.9,19.6c-1.6,2.8-3.2,5.7-4.3,8.8c-0.5,1.5-0.8,3.6-0.8,4.3c0.5,5.2-5.3,7-8.7,4.8c-1.4-0.3-2.6-1-3.3-2.3 c0,0,0,0-0.1-0.1c-0.4,0.2-0.7,0.5-1.1,0.8c0,0-0.2,0.2-0.4,0.4c-0.3,0.3-0.5,0.6-0.8,0.9c0,0-0.1,0.2-0.2,0.4 c-0.8,1.5-2.1,2.4-3.4,2.7c0.2,9.3,1,18.6,2.5,27.8c0.2,0.2,0.4,0.5,0.6,0.7c0.2,0.3,0.4,0.6,0.6,0.9c5.4,0.4,4.9-3.5,4.5-8 c-0.5-5.6-1.5-11-1.1-16.6c0.5-7.1,11.3-4.9,10.8,2.1c-0.5,7.4,2.7,14.9,1.1,22.4c-0.5,2.4-1.4,4.4-2.6,6c0.4,0,0.8,0.1,1.2,0.2 c12.4,3.9,18.9,15.1,27.3,24c3.6,3.9,7.7,8.3,11.9,11.5c2.3,1.7,2.2,1.3,2.4-1.5c0.2-2.4-0.1-4.8-0.1-7.2c0-2,0.8-3.5,2.1-4.5 c0.2-20,0.9-39.9,0.9-59.9C412.6,220.3,415.2,198.9,408.8,179.8z"/><path fill="#FEBF10" d="M309.2,409.3c-10.6-18-18.7-38.5-32.9-54.2c-1.1-1.2-1.6-2.7-1.5-4c-3.4,0.6-6.9,0.8-10.3,0.9 c0,3.9,0.2,7.8,0.4,11.7c2.7-0.1,5.4,1.4,5.6,4.9c0.3,6.1,3.9,11.6,6.6,16.9c3.2,6.1,5.3,12.7,7.8,19.1 c5.3,14,10.9,27.8,17.7,41.1c2.4,4.6,4.6,9.5,6.2,14.4c0.7,2.2,1.4,4.5,2.2,6.7c0.5,1.2,1.5,3.6,1.7,3.6c4,0.6,8.6-2.5,12.4-3.6 c3.9-1.1,8.3-1.3,12.6-1.3C327.7,447,319.9,427.4,309.2,409.3z"/><path fill="#FEBF10" d="M277.7,324.9c-0.3-0.5-0.6-1-0.8-1.6c-9.5,0.1-19.1,0.2-28.6,0.2c-14.7,0-29.3-1.4-43.9-2.7 c0.3,2.5,0.5,5.1,0.8,7.6c0.4,2.7,0.7,5.5,1.6,8.1c0.3,0.9,0.6,1.8,1.1,2.6c0.4,0.6,1.1,1,0.6,1c4.6,0.8,9.5-0.5,14.1-0.7 c7-0.2,14.1,1,21.2,1c9.6,0,19.5,1.3,29-0.3c1.3-0.2,2.9-0.4,4.1-1.1c-0.3,0.1,0.3-0.8,0.4-1.2c0.2-1.1,0.4-2.2,0.5-3.4 C278.2,331.3,277.9,328.1,277.7,324.9z"/><path d="M334.8,109.5c-1.4-14.3-19.2-21.6-31.8-19.2c-17.1,3.3-23.1,24.3-11.7,36.8c0.2,0.2,0.3,0.4,0.5,0.5 C303.4,143.4,336.9,130.9,334.8,109.5z M324,112.5c-1,10.5-21.8,16.8-24.8,4.7c-0.5-1.9-1.6-3-2.9-3.4c-0.4-2.8,0.4-5.7,2.1-8.1 c2.4-3.6,5.8-4.7,10-4.8C314.6,100.6,324.7,104.9,324,112.5z"/><path d="M419.2,176.2c-0.7-2.2-2.3-3.3-4-3.5c-0.2-1-0.7-1.9-1.5-2.8c-4.5-4.5-11,0.6-14.5,3.6c-6.6,5.6-12.4,12.1-18,18.7 c-4.9,5.8-9.5,11.9-13.6,18.2c-0.3-11.6-1.9-22.9-8-33.4c-0.1-0.1-0.2-0.2-0.2-0.4c32.4-28.9,40.1-86.2,8.6-118.5 c-12.8-13.1-31.9-20.8-50.1-22c-17.1-1.1-33.2,4.7-46.3,15.5c-15.5,12.8-26.1,30.6-32.2,49.6c-6.4,19.9-4.3,40.6,5.8,58.5 c2.5,7.6,7.4,13.8,13.5,18.8c-18.1-0.2-36.4-0.6-54.5,0.6c0,0,0.1,0,0.1-0.1C239,150.9,248,91.3,215.6,58 c-12.8-13.1-31.9-20.8-50.1-22c-17.1-1.1-33.2,4.7-46.3,15.5C103.7,64.4,93.1,82.2,87,101.2c-6.4,19.9-4.3,40.6,5.8,58.5 c2.1,6.3,5.9,11.7,10.7,16.3c-3,1.5-5.8,3.5-7.7,5.4c-8.8,8.7-6.7,22.9-3.9,33.5c0.9,3.6,1.7,7.2,2.3,10.9 c-4.6-0.8-10.6,0.7-14.6,0.8c-4.2,0.1-5.6,3.9-4.6,7c-0.2,0.4-0.3,0.9-0.4,1.4c-0.8,6.6,0.7,12.9,0.9,19.5c0.1,3.1,3,5.1,5.9,5.1 c2.5,0,10.8-1.9,12,0.6c0.8,1.5,1.8,2.3,3,2.5c-0.2,6.1-0.9,12.2-0.9,18.3c-0.1,6.2-1.3,12.4-0.6,18.6c3.1,28,38.5,21.6,57.5,20 c13.7-1.2,27.4-0.6,41,0.4c1.2,7.8,0.7,18.4,5,25.2c-2.9,5.1-3.5,13.2-4.6,17.7c-2.9,12.3-8.2,24.7-12.8,36.5 c-10.5,26.9-25.1,52.1-35,79.2c-1.5,4,0.9,7.9,5.4,7.9c13.8,0,27.9-1,41.5,1.9c2.2,0.5,5.1-0.7,6-3c8.6-23.2,15.5-47,22.4-70.8 c3.1-10.7,5.9-21.4,8.2-32.3c0,0,0,0.1,0,0.1c0.2,10.7,0,21.3,0,32c0,21.9-1,43.7-2.9,65.5c-0.3,3.7,2,6.5,5.8,6.5 c6.6,0,13.1,0.2,19.7-0.3c6.3-0.5,14.1-1.3,16.3-8.1c0.6-1.7,0.3-3.1-0.5-4.1c1.3-0.6,2.3-1.9,2.5-3.9c1.3-17.5-1.8-35-1.9-52.5 c0-9.3-0.7-18.5-1.5-27.8c3.2,6.6,5.6,13.4,8.2,20.2c3.1,8.2,6.4,16.3,9.8,24.4c3.3,7.6,7.4,14.7,10.6,22.2 c3.5,8.3,5.1,23.1,16,24.7c5.6,0.8,11.2-2.2,16.4-3.9c3.6-1.2,8.3-0.8,12-0.9c3.5-0.1,7,0.6,9.5-2.4c0.6-0.8,1-1.7,1.2-2.7 c0.7-1.2,0.9-2.7,0.5-4.2c-0.4-1.4-1.1-2.5-1.9-3.5c-11.2-19.7-19.6-40.9-30.9-60.6c-10.9-18.8-19.6-39.3-34.2-55.6 c6.1-5.3,5-16.2,4.5-24.4c3-0.1,5.9-0.2,8.9-0.3c14.6-0.6,29.3,0.2,43.3-4.6c0.7-0.2,1.2-0.5,1.7-0.9c6.2-3.8,11.4-8.9,13.5-16 c1.8-6.2,1.1-12.6-0.1-18.9c2.2-0.1,4.3-0.6,6.2-1.4c-0.7,2.8,0.4,6.2,3.9,7.3c6.7,2.1,11.8,9.3,16.1,14.5 c4.5,5.4,9.4,10.1,14.3,15.1c4.5,4.7,11.3,9.8,17.9,5.9c4.3-2.5,5.7-6.5,6.2-10.9c1.2-1,2.1-2.4,2.1-4.4c0-23.1,0.9-46.3,1-69.4 C423.6,218.3,426,196.3,419.2,176.2z M86,248.2c-0.5-3.7-1.1-7.4-0.6-11.1c0.6-0.1,1.3-0.1,1.9-0.2c1.4-0.1,2.8-0.2,4.1-0.3 c0,0,0.3,0,0.6,0c0.9,0.6,2,1,3.4,0.9c0.1,0,0.1,0,0.2,0c0.3,3.8,0.6,7.7,0.7,11.5C93.2,248,89.5,248,86,248.2z M258.5,162.1 c0-1-0.2-2.1-1-3.2c-0.9-1.3-1.6-2.5-2.4-3.8c-0.3-0.8-0.6-1.5-1.1-2c-5.8-10.8-8.4-22.6-7.1-35.1c1.5-14,7.4-28.1,15.3-39.7 c12.6-18.5,30.7-32,53.7-31.5c22.4,0.5,45.7,14.1,55.3,34.6c9.2,19.8,6.9,45.4-2.3,64.8c-10.9,23-34.8,38.9-60.3,39.2 c-10.7,0.1-21.8-3.6-31.3-8.3C270.2,173.7,263,168.8,258.5,162.1z M102.8,155.1c-0.3-0.8-0.6-1.5-1.1-2 c-5.8-10.8-8.4-22.6-7.1-35.1c1.5-14,7.4-28.1,15.3-39.7c12.6-18.5,30.7-32,53.7-31.5c22.4,0.5,45.7,14.1,55.3,34.6 c9.2,19.8,6.9,45.4-2.3,64.8c-10.9,23-34.8,38.9-60.3,39.2c-10.7,0.1-21.8-3.6-31.3-8.3c-7.1-3.5-14.3-8.4-18.8-15.1 c0-1-0.2-2.1-1-3.2C104.4,157.7,103.6,156.4,102.8,155.1z M212.1,407.6c-7.8,22.9-13.5,46.4-21.6,69.2 c-10.3-1.6-20.9-1.5-31.4-1.3c4-9.9,8.6-19.6,13.3-29.2c5.8-12.1,11.1-24.3,16.4-36.6c5.4-12.8,9.6-26.1,14.2-39.2 c1.3-3.6,2.1-7.3,2.9-11c0.5-2.2,1-4.5,1.6-6.7c0.1-0.5,0.3-1,0.5-1.5c4.5,0.7,9.5-0.3,13.7-0.6c1.7-0.2,3.4-0.1,5.1,0 C219.5,368.9,218.4,389,212.1,407.6z M258.8,473.8c-0.2,0.1-0.4,0.2-0.9,0.3c-0.9,0.3-1.8,0.4-2.7,0.6c-3.1,0.5-6.2,0.6-9.3,0.7 c-2.6,0.1-5.3,0.1-7.9,0.1c1.6-19.4,2.4-38.8,2.5-58.2c0.1-10.6,0-21.3,0-31.9c0-10.1-2.9-20.3-2.1-30.4c0.1-0.8,0-1.6-0.2-2.3 c0.1-0.2,0.2-0.5,0.2-0.7c0.1-0.2,0.1-0.4,0.2-0.6c2.6,0,5.2,0,7.8,0c2.3,0,4.7,0.1,7.1,0.2c0.1,21.7,3.7,43.2,4,64.9 c0.2,17,3.3,34.4,2.1,51.4c-0.1,1.8,0.5,3.3,1.5,4.3C260.2,472.6,259.4,473.1,258.8,473.8z M244,340.5c-7,0-14.2-1.2-21.2-1 c-4.7,0.1-9.5,1.4-14.1,0.7c0.5,0-0.2-0.4-0.6-1c-0.5-0.8-0.8-1.7-1.1-2.6c-0.9-2.6-1.3-5.4-1.6-8.1c-0.3-2.5-0.6-5.1-0.8-7.6 c14.6,1.3,29.2,2.7,43.9,2.7c9.5,0,19.1,0,28.6-0.2c0.2,0.6,0.4,1.1,0.8,1.6c0.2,3.2,0.4,6.4,0.2,9.6c-0.1,1.1-0.3,2.2-0.5,3.4 c-0.1,0.4-0.7,1.4-0.4,1.2c-1.2,0.8-2.8,0.9-4.1,1.1C263.4,341.8,253.6,340.5,244,340.5z M309.2,409.3 c10.7,18.1,18.5,37.7,28.5,56.2c-4.3,0-8.6,0.2-12.6,1.3c-3.8,1.1-8.4,4.2-12.4,3.6c-0.2,0-1.2-2.4-1.7-3.6 c-0.9-2.2-1.5-4.5-2.2-6.7c-1.6-4.9-3.9-9.8-6.2-14.4c-6.8-13.3-12.4-27.1-17.7-41.1c-2.5-6.4-4.6-13-7.8-19.1 c-2.7-5.3-6.3-10.8-6.6-16.9c-0.2-3.5-2.9-5-5.6-4.9c-0.2-3.9-0.4-7.8-0.4-11.7c3.5,0,6.9-0.2,10.3-0.9c0,1.4,0.4,2.8,1.5,4 C290.6,370.8,298.6,391.3,309.2,409.3z M344.5,233.7c-2.6,0.4-5,2.3-5,5.7c0,7.2,0.4,14.4,1.2,21.5c0.4,3.6,0.9,7.2,1.5,10.7 c0.1,0.4,0.1,0.9,0.2,1.3c-0.1,1.4,0.4,2.9,1.9,4.1c0.3,0.3,0.6,0.6,0.8,0.8c-0.6,0.9-0.9,2.1-0.6,3.6c1.1,5.1,2.1,10.5,1.2,15.7 c-0.9,5-4.9,8.3-9,10.8c-14,4.7-29.4,3.5-44,4c-16.3,0.6-32.8,1.1-49.1,0.5c-31.6-1.1-62.8-6.8-94.4-3.7c-11,1.1-23.2,4-33.9,0.3 c-13.1-4.5-9.8-19.7-8.8-30.6c1.3-14.8,1.2-29.8-0.4-44.6c-0.8-7-2-14-3.5-20.9c-1.4-6.3-3-12.3-1.6-18.7 c0.7-3.3,2.8-5.4,5.2-7.6c0.5-0.5,1.3-0.8,1.9-1.1c0.4-0.2,0.9-0.3,1.3-0.5c1.8,3.1,5.9,3,8.3,0.9c7.5,4,15.7,6.8,23.3,8.6 c15.1,3.6,30.5,1.7,44.4-4.2c1,0.9,2.3,1.4,4.1,1.2c26.1-3.3,52.7-2,79-2c0,0,0,0,0,0h0.7c1.9,0,3.2-0.8,4-1.9 c6.6,3.1,13.6,5.4,20.1,7c19.9,4.8,40.5,0,57.3-11.2c7.2,12.8,6.4,28.1,6,42.5C352,226.2,347.1,229.6,344.5,233.7z M412.5,240 c-0.1,20-0.7,39.9-0.9,59.9c-1.2,1-2.1,2.5-2.1,4.5c0,2.4,0.3,4.8,0.1,7.2c-0.2,2.8-0.1,3.2-2.4,1.5c-4.2-3.2-8.3-7.6-11.9-11.5 c-8.4-9-14.9-20.2-27.3-24c-0.4-0.1-0.8-0.2-1.2-0.2c1.2-1.6,2.1-3.5,2.6-6c1.6-7.5-1.6-14.9-1.1-22.4c0.5-7-10.3-9.2-10.8-2.1 c-0.4,5.6,0.6,11,1.1,16.6c0.4,4.6,0.9,8.4-4.5,8c-0.2-0.3-0.3-0.6-0.6-0.9c-0.2-0.3-0.4-0.5-0.6-0.7c-1.5-9.2-2.3-18.5-2.5-27.8 c1.3-0.3,2.6-1.2,3.4-2.7c0.1-0.2,0.2-0.3,0.2-0.4c0.3-0.3,0.5-0.6,0.8-0.9c0.2-0.2,0.3-0.3,0.4-0.4c0.3-0.3,0.7-0.5,1.1-0.8 c0,0,0,0.1,0.1,0.1c0.7,1.3,2,2,3.3,2.3c3.4,2.3,9.2,0.5,8.7-4.8c-0.1-0.8,0.2-2.9,0.8-4.3c1.1-3.1,2.7-5.9,4.3-8.8 c4-7,8.8-13.4,13.9-19.6c4.7-5.8,9.7-11.4,15-16.6c1.8-1.8,3.7-3.5,5.8-5c0.1-0.1,0.4-0.2,0.7-0.4 C415.2,198.9,412.6,220.3,412.5,240z"/><path d="M182.5,109.5c-1.4-14.3-19.2-21.6-31.8-19.2c-17.1,3.3-23.1,24.3-11.7,36.8c0.2,0.2,0.3,0.4,0.5,0.5 C151.1,143.4,184.5,130.9,182.5,109.5z M171.6,112.5c-1,10.5-21.8,16.8-24.8,4.7c-0.5-1.9-1.6-3-2.9-3.4 c-0.4-2.8,0.4-5.7,2.1-8.1c2.4-3.6,5.8-4.7,10-4.8C162.3,100.6,172.4,104.9,171.6,112.5z"/></svg>