<?xml version="1.0" encoding="iso-8859-1"?>
<!-- Generator: Adobe Illustrator 25.2.3, SVG Export Plug-In . SVG Version: 6.00 Build 0)  -->
<svg version="1.1" baseProfile="basic" xmlns="http://www.w3.org/2000/svg" xmlns:xlink="http://www.w3.org/1999/xlink" x="0px"
	 y="0px" viewBox="0 0 48 48" xml:space="preserve">
<rect x="-88" y="-378" style="display:none;fill:#525252;" width="812" height="595"/>
<radialGradient id="SVGID_1_" cx="24" cy="21" r="20.8356" gradientTransform="matrix(1 0 0 0.4695 0 11.1402)" gradientUnits="userSpaceOnUse">
	<stop  offset="0.0814" style="stop-color:#381D09"/>
	<stop  offset="0.6344" style="stop-color:#40210A"/>
	<stop  offset="1" style="stop-color:#804433"/>
</radialGradient>
<ellipse style="fill:url(#SVGID_1_);" cx="24" cy="21" rx="21" ry="10"/>
<radialGradient id="SVGID_2_" cx="24.0652" cy="21.2593" r="20.9362" gradientTransform="matrix(1 0 0 0.8908 0 2.3209)" gradientUnits="userSpaceOnUse">
	<stop  offset="0.2132" style="stop-color:#804433"/>
	<stop  offset="1" style="stop-color:#572400"/>
</radialGradient>
<path style="fill:url(#SVGID_2_);" d="M45,21c0,10.44-9.4,18.91-21,18.91S3,31.44,3,21c0,5.52,9.4,10,21,10S45,26.52,45,21z"/>
<path style="fill:#6E3A13;" d="M34.543,26.27c-0.22,0-0.421-0.146-0.482-0.369c-1.33-4.896-8.186-5.056-10.261-4.984
	c-5.156,0.171-9.369,2.086-9.69,3.684c-0.055,0.271-0.318,0.447-0.589,0.392c-0.271-0.055-0.446-0.318-0.392-0.589
	c0.518-2.57,5.925-4.33,10.638-4.486c6.029-0.191,10.231,1.939,11.259,5.722c0.072,0.266-0.085,0.541-0.352,0.613
	C34.631,26.265,34.586,26.27,34.543,26.27z"/>
<path style="fill:#824D25;" d="M12.151,27.62c-0.204,0-0.395-0.125-0.469-0.327c-0.105-0.286-0.159-0.736,0.184-1.257
	c1.128-1.712,5.837-2.949,9.738-3.155c0.26-0.022,0.511,0.197,0.526,0.473c0.014,0.276-0.197,0.511-0.473,0.526
	c-4.379,0.231-8.235,1.612-8.956,2.706c-0.137,0.208-0.098,0.315-0.081,0.361c0.095,0.259-0.037,0.546-0.296,0.642
	C12.267,27.61,12.208,27.62,12.151,27.62z"/>
<path style="fill:#824D25;" d="M14.588,26.637c-0.159,0-0.315-0.075-0.412-0.216c-1.024-1.481-0.877-3.125,0.403-4.51
	c3.101-3.355,13.083-5.021,23.022,0.744c0.239,0.139,0.32,0.445,0.182,0.684c-0.139,0.238-0.444,0.32-0.684,0.182
	c-9.494-5.509-18.908-4.047-21.786-0.931c-0.671,0.726-1.27,1.881-0.315,3.263c0.157,0.227,0.1,0.539-0.127,0.695
	C14.785,26.608,14.686,26.637,14.588,26.637z"/>
<path style="fill:#6E3A13;" d="M38.652,24.667c-0.078,0-0.158-0.019-0.232-0.058c-4.521-2.375-8.701-3.135-12.779-2.328
	c-0.273,0.055-0.534-0.122-0.587-0.393c-0.054-0.271,0.122-0.534,0.393-0.587c4.308-0.856,8.706-0.063,13.438,2.424
	c0.245,0.128,0.339,0.431,0.21,0.675C39.005,24.57,38.832,24.667,38.652,24.667z"/>
<path style="fill:#542C0E;" d="M17.255,27.932c-0.213,0-0.411-0.137-0.478-0.352c-0.356-1.147-0.089-2.196,0.772-3.034
	c2.439-2.375,9.474-2.693,15.361-0.693c0.262,0.089,0.401,0.373,0.313,0.634c-0.088,0.262-0.371,0.401-0.634,0.313
	c-5.477-1.86-12.178-1.643-14.343,0.462c-0.59,0.575-0.758,1.236-0.514,2.022c0.082,0.264-0.066,0.544-0.33,0.625
	C17.354,27.924,17.304,27.932,17.255,27.932z"/>
<path style="fill:#6E3A13;" d="M33.528,27.62c-0.106,0-0.214-0.034-0.305-0.104c-3.954-3.052-13.704-3.63-17.988-1.065
	c-0.238,0.141-0.544,0.064-0.686-0.172c-0.142-0.237-0.064-0.544,0.172-0.686c4.55-2.723,14.911-2.111,19.113,1.132
	c0.218,0.169,0.259,0.483,0.09,0.702C33.826,27.553,33.678,27.62,33.528,27.62z"/>
<path style="fill:#542C0E;" d="M31.609,28.5c-0.049,0-0.1-0.007-0.15-0.023c-4.848-1.521-11.767-2.593-15.307-0.609
	c-0.242,0.135-0.547,0.049-0.681-0.191c-0.135-0.241-0.049-0.546,0.191-0.681c3.815-2.137,10.815-1.129,16.096,0.527
	c0.263,0.083,0.41,0.363,0.327,0.627C32.019,28.363,31.822,28.5,31.609,28.5z"/>
<path style="fill:#6E3A13;" d="M18.614,28.318c-0.141,0-0.282-0.06-0.385-0.171c-0.298-0.324-0.344-0.746-0.127-1.157
	c0.943-1.786,7.866-3.97,13.579-3.135c0.273,0.04,0.462,0.293,0.422,0.567c-0.04,0.272-0.294,0.466-0.567,0.422
	c-5.998-0.873-12.425,1.704-12.569,2.659c0.187,0.203,0.172,0.503-0.031,0.69C18.845,28.278,18.73,28.318,18.614,28.318z"/>
<path style="fill:#6E3A13;" d="M35.152,26.927c-0.07,0-0.141-0.015-0.208-0.045c-5.944-2.727-11.053-2.419-16.64-1.778
	c-0.28,0.032-0.522-0.166-0.554-0.439c-0.032-0.274,0.165-0.522,0.439-0.554c5.528-0.635,11-0.97,17.171,1.862
	c0.251,0.115,0.361,0.412,0.246,0.663C35.523,26.819,35.342,26.927,35.152,26.927z"/>
<path style="fill:#875027;" d="M33.528,27.914c-0.111,0-0.222-0.037-0.315-0.112c-0.214-0.174-0.247-0.489-0.072-0.703
	c0.458-0.563,0.561-1.107,0.315-1.663c-0.706-1.596-3.987-2.941-6.449-3.078c-5.661-0.311-11.97,0.542-12.703,3.887
	c-0.06,0.27-0.328,0.439-0.595,0.381c-0.27-0.059-0.44-0.326-0.381-0.595c1.091-4.98,10.788-4.833,13.735-4.671
	c2.814,0.155,6.422,1.668,7.308,3.671c0.279,0.633,0.428,1.614-0.455,2.698C33.818,27.851,33.674,27.914,33.528,27.914z"/>
<path style="fill:#B56B34;" d="M24.201,29.163c-4.017,0-8.052-0.75-11.258-2.23c-0.251-0.116-0.36-0.413-0.245-0.664
	c0.116-0.25,0.414-0.36,0.664-0.245c5.763,2.66,14.312,2.871,20.326,0.5c3.518-1.386,5.976-3.587,7.11-6.366
	c0.104-0.256,0.397-0.379,0.652-0.274c0.256,0.104,0.378,0.396,0.274,0.652c-1.24,3.037-3.892,5.429-7.669,6.918
	C31.154,28.598,27.685,29.163,24.201,29.163z"/>
<path style="opacity:0.6;fill:#B56B34;" d="M21.346,32.646c-3.341,0-6.63-0.524-9.376-1.589c-0.257-0.1-0.385-0.39-0.285-0.647
	c0.1-0.257,0.39-0.384,0.647-0.285c5.917,2.298,14.463,1.977,20.318-0.763c3.424-1.602,5.741-3.952,6.701-6.794
	c0.087-0.262,0.371-0.404,0.633-0.314c0.262,0.088,0.402,0.372,0.314,0.633c-1.048,3.108-3.546,5.661-7.224,7.381
	C29.709,31.841,25.487,32.646,21.346,32.646z"/>
<path style="fill:#B56B34;" d="M29.24,32.198c-6.963,0-12.055-2.364-12.128-2.399c-0.25-0.119-0.355-0.417-0.237-0.666
	c0.119-0.25,0.417-0.355,0.666-0.237c0.103,0.049,10.385,4.808,21.584,0.507c0.258-0.098,0.546,0.029,0.646,0.288
	c0.099,0.258-0.03,0.547-0.288,0.646C35.882,31.72,32.372,32.198,29.24,32.198z"/>
<path style="fill:#875027;" d="M31.869,34.087c-0.223,0-0.426-0.15-0.484-0.376c-0.068-0.268,0.093-0.54,0.36-0.608
	c0.107-0.027,10.742-2.826,11.869-9.296c1.188-6.821-5.926-9.632-8.768-10.14c-0.272-0.048-0.453-0.308-0.404-0.58
	s0.309-0.455,0.58-0.404c4.501,0.804,10.766,4.476,9.578,11.296c-1.238,7.107-12.143,9.975-12.606,10.093
	C31.952,34.082,31.91,34.087,31.869,34.087z"/>
<path style="fill:#A65417;" d="M32.75,34.456c-0.206,0-0.398-0.127-0.471-0.332c-0.093-0.26,0.043-0.546,0.303-0.639
	c0.31-0.11,7.574-2.802,7.071-10.726c-0.018-0.276,0.192-0.513,0.467-0.531c0.271-0.014,0.513,0.191,0.531,0.467
	c0.551,8.688-7.651,11.703-7.734,11.732C32.862,34.446,32.806,34.456,32.75,34.456z"/>
<path style="fill:#875027;" d="M9.435,18.5c-0.12,0-0.24-0.042-0.335-0.129c-0.205-0.186-0.221-0.501-0.035-0.706
	c2.999-3.311,11.591-6.881,21.296-4.454c0.268,0.067,0.431,0.338,0.364,0.606c-0.067,0.268-0.34,0.429-0.606,0.364
	c-9.308-2.327-17.481,1.029-20.313,4.155C9.707,18.445,9.571,18.5,9.435,18.5z"/>
<path style="fill:#995A2C;" d="M13.478,18.5c-0.129,0-0.259-0.05-0.357-0.15c-0.193-0.197-0.19-0.514,0.007-0.707
	c4.714-4.627,7.747-5.764,17.077-6.403c0.295-0.007,0.515,0.19,0.533,0.465c0.019,0.275-0.189,0.514-0.465,0.533
	c-9.61,0.658-12.142,1.895-16.445,6.119C13.731,18.452,13.604,18.5,13.478,18.5z"/>
<path style="fill:#824D25;" d="M25.419,38.773c-3.356,0-7.238-0.556-10.864-2.41c-9.01-4.605-8.057-13.605-8.046-13.696
	c0.033-0.274,0.284-0.471,0.555-0.438c0.274,0.032,0.47,0.28,0.438,0.554c-0.04,0.341-0.869,8.407,7.508,12.688
	C23.532,39.828,33.896,36.6,34,36.567c0.265-0.087,0.544,0.061,0.628,0.324s-0.061,0.544-0.324,0.628
	C34.044,37.603,30.286,38.773,25.419,38.773z"/>
<path style="fill:#6E3A13;" d="M21.851,37.682c-5.946,0-10.156-1.379-10.228-1.404c-0.262-0.088-0.402-0.372-0.314-0.633
	c0.088-0.262,0.369-0.404,0.633-0.315c0.118,0.041,11.964,3.91,23.891-1.61c0.252-0.116,0.548-0.006,0.664,0.244
	c0.116,0.25,0.007,0.548-0.244,0.664C31.152,36.988,26.065,37.682,21.851,37.682z"/>
<path style="fill:#A65417;" d="M27.072,37.762c-7.541,0-12.306-3.128-12.374-3.174c-0.229-0.154-0.29-0.464-0.135-0.693
	c0.154-0.229,0.466-0.289,0.693-0.136c0.092,0.063,9.409,6.15,22.615,0.823c0.257-0.103,0.547,0.02,0.651,0.277
	c0.103,0.256-0.021,0.547-0.277,0.651C34.107,37.178,30.331,37.762,27.072,37.762z"/>
<path style="opacity:0.6;fill:#B56B34;" d="M24.872,36.19c-0.138,0-0.225-0.002-0.256-0.003c-0.276-0.008-0.493-0.238-0.485-0.514
	s0.241-0.491,0.514-0.486c0.101,0.01,9.189,0.189,17.499-5.524c0.228-0.156,0.539-0.098,0.695,0.129
	c0.156,0.228,0.099,0.539-0.129,0.695C34.811,35.918,26.458,36.19,24.872,36.19z"/>
<path style="fill:#B56B34;" d="M18.891,34.674c-0.271,0-0.493-0.216-0.5-0.488c-0.006-0.276,0.212-0.505,0.488-0.512
	c11.263-0.271,19.19-4.501,24.235-12.931c0.142-0.237,0.449-0.313,0.686-0.172c0.237,0.142,0.314,0.449,0.172,0.686
	c-5.164,8.626-13.598,13.141-25.069,13.417C18.899,34.674,18.895,34.674,18.891,34.674z"/>
<path style="fill:#A1561E;" d="M14,29.848c-0.057,0-0.115-0.01-0.171-0.03c-3.852-1.407-6.467-4.226-7.175-7.733
	c-0.487-2.417,0.086-4.803,1.462-6.081c0.201-0.188,0.519-0.177,0.707,0.026c0.188,0.203,0.176,0.519-0.026,0.707
	c-1.126,1.046-1.583,3.068-1.163,5.15c0.637,3.159,3.02,5.707,6.537,6.992c0.26,0.095,0.393,0.382,0.298,0.641
	C14.396,29.722,14.204,29.848,14,29.848z"/>
<path style="fill:#A65417;" d="M20.56,38.424c-0.066,0-0.133-0.013-0.198-0.041c-9.116-3.937-10.657-8.6-11.677-11.686l-0.172-0.514
	c-0.089-0.262,0.051-0.545,0.312-0.634c0.266-0.09,0.546,0.052,0.635,0.312l0.174,0.523c0.964,2.916,2.42,7.323,11.124,11.082
	c0.253,0.109,0.37,0.404,0.261,0.657C20.938,38.311,20.754,38.424,20.56,38.424z"/>
<path style="fill:#B56B34;" d="M18.657,30.103c-11.076,0-14.325-5.571-14.485-5.86c-0.134-0.241-0.047-0.543,0.193-0.678
	s0.545-0.049,0.68,0.191c0.045,0.08,4.724,7.961,22.062,4.412c0.269-0.054,0.535,0.119,0.59,0.39c0.056,0.271-0.119,0.535-0.39,0.59
	C23.998,29.825,21.131,30.103,18.657,30.103z"/>
<path style="fill:#995A2C;" d="M41.261,23.227c-0.201,0-0.391-0.122-0.467-0.321c-3.067-8-11.953-9.119-16.993-7.352
	c-0.261,0.092-0.546-0.046-0.637-0.307c-0.091-0.261,0.046-0.546,0.307-0.637c5.411-1.892,14.954-0.679,18.257,7.938
	c0.099,0.258-0.03,0.547-0.288,0.646C41.381,23.216,41.32,23.227,41.261,23.227z"/>
<path style="fill:#A1561E;" d="M30.239,16.749c-0.071,0-0.143-0.015-0.211-0.047c-5.076-2.374-8.695-3.22-12.103-2.836
	c-0.285,0.035-0.522-0.167-0.553-0.44c-0.031-0.274,0.166-0.522,0.44-0.553c3.603-0.413,7.383,0.464,12.64,2.923
	c0.25,0.117,0.358,0.415,0.241,0.665C30.607,16.643,30.427,16.749,30.239,16.749z"/>
<path style="fill:#824D25;" d="M11.013,25.002c-0.216,0-0.415-0.14-0.479-0.357c-1.846-6.188,1.461-10.565,10.11-13.382
	c0.262-0.086,0.544,0.059,0.63,0.321c0.085,0.263-0.058,0.545-0.321,0.63c-10.689,3.481-10.519,8.598-9.461,12.145
	c0.079,0.265-0.071,0.543-0.336,0.622C11.108,24.996,11.06,25.002,11.013,25.002z"/>
<path style="fill:#B56B34;" d="M38.653,22.291c-0.15,0-0.299-0.067-0.398-0.196c-6.552-8.573-21.806-6.507-26.765-3.308
	c-0.233,0.147-0.542,0.083-0.691-0.149c-0.149-0.232-0.083-0.542,0.149-0.691c4.936-3.184,20.896-5.886,28.102,3.542
	c0.167,0.219,0.125,0.533-0.094,0.701C38.865,22.257,38.759,22.291,38.653,22.291z"/>
<path style="fill:#B56B34;" d="M18.39,33.876c-7.324,0-9.707-1.878-12.406-4.565c-0.196-0.195-0.197-0.512-0.002-0.707
	s0.512-0.197,0.707-0.002c3.181,3.167,5.693,5.669,22.642,3.37c0.277-0.033,0.526,0.155,0.563,0.428
	c0.037,0.274-0.155,0.526-0.428,0.563C24.824,33.592,21.234,33.876,18.39,33.876z"/>
<path style="fill:#A1561E;" d="M33.606,35.66c-10.074,0-21.076-1.473-23.45-4.167c-0.183-0.207-0.163-0.523,0.044-0.706
	c0.208-0.182,0.523-0.163,0.706,0.044c2.042,2.317,13.446,4.061,24.897,3.804c0.323-0.015,0.505,0.213,0.511,0.489
	c0.006,0.276-0.213,0.505-0.489,0.511C35.094,35.652,34.353,35.66,33.606,35.66z"/>
<path style="fill:#824D25;" d="M19.174,35.922c-1.47,0-2.9-0.091-4.26-0.266c-0.274-0.035-0.467-0.286-0.432-0.56
	c0.036-0.273,0.283-0.463,0.56-0.432c8.61,1.11,20.097-1.232,26.333-8.957c0.174-0.215,0.488-0.249,0.703-0.075
	c0.215,0.173,0.249,0.488,0.075,0.703C36.666,33.132,27.311,35.922,19.174,35.922z"/>
<path style="fill:#B56B34;" d="M27.997,30.273c-1.653,0-3.359-0.147-5.173-0.432c-0.273-0.043-0.459-0.299-0.417-0.571
	c0.043-0.272,0.298-0.459,0.571-0.417c7.294,1.144,12.801-0.003,20.32-4.23c0.241-0.136,0.545-0.05,0.681,0.191
	c0.135,0.241,0.05,0.546-0.191,0.681C37.911,28.799,33.218,30.273,27.997,30.273z"/>
<path style="fill:#B56B34;" d="M20.258,40.109c-0.043,0-0.086-0.005-0.13-0.017C8.906,37.088,5.705,31.231,3.985,28.084
	c-0.132-0.242-0.053-0.564,0.189-0.696c0.24-0.134,0.536-0.062,0.668,0.181c0,0,0.02,0.035,0.02,0.035
	c1.648,3.016,4.716,8.628,15.524,11.522c0.267,0.071,0.425,0.346,0.354,0.612C20.681,39.962,20.479,40.109,20.258,40.109z"/>
<path style="fill:#995A2C;" d="M5.293,21.793c-0.273,0-0.497-0.22-0.5-0.494c-0.053-4.219,3.962-8.066,10.48-10.039
	c0.264-0.079,0.543,0.07,0.624,0.333c0.08,0.265-0.069,0.543-0.333,0.624c-5.982,1.811-9.817,5.371-9.77,9.069
	c0.003,0.276-0.218,0.503-0.494,0.506C5.298,21.793,5.295,21.793,5.293,21.793z"/>
<path style="fill:#995A2C;" d="M19.454,30.268c-0.04,0-0.08-0.004-0.12-0.015C8.189,27.515,8.393,23.015,8.515,20.327
	c0.021-0.471,0.04-0.878-0.009-1.189c-0.042-0.273,0.145-0.528,0.417-0.571c0.274-0.038,0.529,0.146,0.571,0.417
	c0.063,0.411,0.042,0.885,0.019,1.388c-0.114,2.536-0.288,6.368,10.059,8.91c0.269,0.066,0.432,0.336,0.366,0.604
	C19.883,30.115,19.678,30.268,19.454,30.268z"/>
<path style="fill:#995A2C;" d="M38.059,20.62c-0.2,0-0.389-0.121-0.466-0.318c-2.238-5.738-7.475-7.967-11.22-9.145
	c-0.264-0.083-0.41-0.364-0.327-0.627c0.083-0.264,0.365-0.408,0.627-0.327c3.941,1.24,9.458,3.597,11.852,9.736
	c0.101,0.257-0.027,0.547-0.284,0.647C38.181,20.609,38.12,20.62,38.059,20.62z"/>
<path style="fill:#B56B34;" d="M6.337,15.582c-0.177,0-0.348-0.094-0.439-0.26c-0.133-0.242-0.044-0.546,0.198-0.679
	c1.322-0.725,13.281-6.928,25.956-1.935c0.257,0.102,0.383,0.392,0.282,0.648c-0.102,0.257-0.392,0.382-0.648,0.282
	C19.437,8.814,7.857,14.82,6.577,15.52C6.501,15.562,6.418,15.582,6.337,15.582z"/>
<path style="fill:#B56B34;" d="M9,22.038c-0.02,0-0.041-0.001-0.062-0.004C8.665,22,8.47,21.751,8.504,21.477
	c0.472-3.847,5.929-6.898,14.597-8.162c0.273-0.045,0.527,0.15,0.567,0.422c0.04,0.273-0.149,0.527-0.422,0.567
	c-8.073,1.178-13.341,3.973-13.75,7.295C9.465,21.853,9.25,22.038,9,22.038z"/>
<path style="fill:#6E3A13;" d="M37.38,25.002c-0.193,0-0.378-0.113-0.459-0.303c-0.917-2.135-2.855-3.794-5.604-4.797
	c-4.648-1.697-10.993-1.33-15.427,0.892c-0.246,0.125-0.548,0.024-0.671-0.223c-0.124-0.247-0.024-0.547,0.223-0.671
	c4.662-2.337,11.332-2.723,16.218-0.938c3.014,1.101,5.151,2.948,6.18,5.342c0.109,0.253-0.008,0.548-0.262,0.657
	C37.514,24.989,37.446,25.002,37.38,25.002z"/>
<path style="fill:#A1561E;" d="M13.152,25.683c-0.276,0-0.5-0.224-0.5-0.5c0-0.279-0.021-0.564-0.043-0.855
	c-0.174-2.348-0.39-5.27,8.627-8.43c0.262-0.093,0.546,0.046,0.637,0.306c0.091,0.261-0.046,0.546-0.306,0.637
	c-8.295,2.907-8.118,5.301-7.961,7.413c0.023,0.316,0.046,0.626,0.046,0.929C13.652,25.459,13.429,25.683,13.152,25.683z"/>
<path style="fill:#995A2C;" d="M14.978,27.092c-0.105,0-0.211-0.033-0.302-0.102c-3.322-2.524-3.153-4.704-2.756-5.779
	c1.169-3.172,6.7-4.954,14.097-4.525c0.276,0.016,0.487,0.252,0.471,0.527c-0.016,0.276-0.263,0.489-0.527,0.471
	c-7.861-0.449-12.298,1.693-13.102,3.873c-0.52,1.409,0.341,3.055,2.423,4.637c0.22,0.167,0.263,0.48,0.096,0.7
	C15.278,27.024,15.128,27.092,14.978,27.092z"/>
<path style="fill:#B56B34;" d="M38.463,23.359c-0.065,0-0.13-0.012-0.193-0.039c-0.255-0.107-0.375-0.4-0.268-0.654
	c0.864-2.06,0.925-3.945,0.181-5.606c-1.417-3.161-5.303-4.529-5.342-4.542c-0.261-0.09-0.4-0.374-0.311-0.635
	c0.09-0.262,0.372-0.4,0.634-0.311c0.176,0.06,4.33,1.515,5.928,5.074c0.864,1.925,0.808,4.081-0.169,6.408
	C38.844,23.244,38.658,23.359,38.463,23.359z"/>
<path style="fill:#6E3A13;" d="M34.836,28.087c-0.095,0-0.191-0.027-0.277-0.084c-0.229-0.153-0.292-0.463-0.139-0.693
	c0.872-1.309,1.166-2.522,0.897-3.708c-0.593-2.618-3.806-4.535-6.152-5.935l-0.378-0.226c-0.237-0.142-0.313-0.449-0.171-0.686
	c0.142-0.236,0.45-0.314,0.686-0.171l0.376,0.225c2.501,1.493,5.927,3.537,6.614,6.573c0.328,1.447-0.022,2.955-1.041,4.483
	C35.157,28.009,34.998,28.087,34.836,28.087z"/>
<path style="fill:#B56B34;" d="M45,21.5c-0.138,0-0.275-0.057-0.374-0.167c-5.206-5.85-10.224-6.222-14.875-5.753
	c-0.277,0.023-0.52-0.172-0.548-0.447s0.172-0.52,0.447-0.548c4.913-0.495,10.218-0.102,15.723,6.083
	c0.184,0.207,0.165,0.522-0.041,0.706C45.237,21.458,45.119,21.5,45,21.5z"/>
<path style="fill:#A1561E;" d="M7.201,21.5c-0.046,0-0.094-0.006-0.141-0.02c-0.265-0.078-0.417-0.355-0.339-0.621
	c2.374-8.096,9.277-9.433,14.319-10.409c0.455-0.088,0.896-0.173,1.321-0.261c0.272-0.054,0.535,0.118,0.591,0.389
	c0.056,0.271-0.118,0.535-0.389,0.591c-0.429,0.088-0.874,0.175-1.333,0.264c-5.056,0.979-11.347,2.196-13.549,9.708
	C7.617,21.359,7.417,21.5,7.201,21.5z"/>
<path style="fill:#B56B34;" d="M11.219,27.092c-0.111,0-0.224-0.037-0.316-0.113c-3.427-2.81-4.652-9.224-3.805-12.177
	c0.076-0.266,0.355-0.419,0.618-0.343c0.266,0.076,0.419,0.353,0.343,0.618c-0.756,2.636,0.397,8.603,3.478,11.128
	c0.214,0.175,0.245,0.49,0.07,0.704C11.507,27.029,11.364,27.092,11.219,27.092z"/>
<path style="fill:#A1561E;" d="M12.151,25.002c-0.178,0-0.35-0.095-0.44-0.262c-0.788-1.454-0.844-3.09-0.16-4.608
	c0.821-1.82,3.073-4.283,9.135-5.681c0.268-0.062,0.538,0.106,0.6,0.375c0.062,0.269-0.106,0.538-0.375,0.6
	c-4.418,1.019-7.418,2.836-8.448,5.118c-0.553,1.227-0.508,2.548,0.127,3.72c0.132,0.243,0.042,0.546-0.201,0.678
	C12.313,24.983,12.232,25.002,12.151,25.002z"/>
<path style="fill:#A1561E;" d="M33.223,27.297c-0.181,0-0.355-0.098-0.444-0.269c-0.127-0.245-0.032-0.547,0.212-0.674
	c2.354-1.225,4.97-3.073,4.07-4.929c-1.933-3.987-16.45-6.007-21.437-3.759c-0.254,0.112-0.548,0-0.662-0.25
	c-0.113-0.252-0.001-0.548,0.25-0.662c5.407-2.436,20.603-0.189,22.748,4.235c1.004,2.07-0.513,4.174-4.508,6.252
	C33.379,27.279,33.3,27.297,33.223,27.297z"/>
<path style="fill:#B56B34;" d="M13.152,37.333c-0.093,0-0.187-0.026-0.271-0.08c-7.257-4.683-11.57-12.352-9.616-17.096
	c0.105-0.255,0.398-0.375,0.653-0.272c0.255,0.105,0.377,0.397,0.272,0.653c-1.559,3.784,1.779,11.065,9.233,15.875
	c0.232,0.149,0.299,0.459,0.149,0.691C13.477,37.253,13.316,37.333,13.152,37.333z"/>
<path style="fill:#B56B34;" d="M24.38,40.143c-3.633,0-6.806-1.095-8.794-2.761c-0.211-0.177-0.239-0.493-0.062-0.705
	c0.178-0.21,0.493-0.24,0.705-0.062c4.121,3.453,14.351,4.158,22.069-3.6c0.195-0.195,0.511-0.197,0.707-0.002
	s0.197,0.511,0.002,0.707C34.387,38.364,29.011,40.143,24.38,40.143z"/>
<path style="fill:#A1561E;" d="M39.304,34.447c-0.138,0-0.274-0.057-0.374-0.167c-0.184-0.206-0.165-0.522,0.041-0.706
	c3.928-3.497,4.314-7.283,4.195-9.229c-0.149-2.429-1.246-4.691-2.793-5.761c-0.228-0.157-0.284-0.468-0.127-0.695
	c0.157-0.228,0.468-0.285,0.695-0.127c1.818,1.257,3.053,3.756,3.223,6.522c0.13,2.126-0.285,6.258-4.528,10.037
	C39.542,34.406,39.423,34.447,39.304,34.447z"/>
<path style="fill:#B56B34;" d="M36.826,34.674c-0.219,0-0.42-0.145-0.481-0.366c-0.074-0.266,0.082-0.542,0.348-0.616
	c1.41-0.392,8.378-2.742,7.063-10.571c-0.046-0.272,0.138-0.53,0.41-0.576c0.274-0.042,0.53,0.138,0.576,0.41
	c1.457,8.674-6.227,11.269-7.782,11.701C36.915,34.668,36.87,34.674,36.826,34.674z"/>
<path style="fill:#A3602F;" d="M25.287,31.481c-0.039,0-0.077-0.004-0.116-0.014c-6.845-1.628-12.028-4.574-13.205-7.505
	c-0.415-1.032-0.329-2.049,0.247-2.94c0.149-0.231,0.459-0.299,0.691-0.148c0.232,0.15,0.298,0.459,0.148,0.691
	c-0.403,0.624-0.455,1.287-0.159,2.025c1.043,2.599,6.07,5.374,12.508,6.905c0.269,0.064,0.435,0.333,0.371,0.602
	C25.718,31.326,25.513,31.481,25.287,31.481z"/>
<path style="fill:#824D25;" d="M17.326,32.214c-0.067,0-0.135-0.014-0.201-0.042c-6.519-2.862-8.085-6.079-8.251-8.273
	c-0.201-2.65,1.496-4.71,3.009-5.669c0.234-0.148,0.542-0.078,0.69,0.155c0.148,0.233,0.079,0.542-0.155,0.69
	c-1.28,0.811-2.714,2.541-2.547,4.749c0.146,1.922,1.592,4.771,7.656,7.433c0.252,0.111,0.368,0.406,0.257,0.659
	C17.702,32.103,17.518,32.214,17.326,32.214z"/>
<path style="fill:#A65417;" d="M11.219,26.065c-0.063,0-0.127-0.012-0.189-0.037c-5.291-2.167-7.207-5.276-6.031-9.785
	c0.069-0.268,0.345-0.424,0.61-0.358c0.268,0.07,0.428,0.343,0.358,0.61c-0.743,2.85-0.678,6.1,5.442,8.607
	c0.256,0.105,0.378,0.397,0.273,0.652C11.603,25.948,11.416,26.065,11.219,26.065z"/>
<path style="fill:#875027;" d="M5.646,25.002c-0.237,0-0.448-0.169-0.492-0.412c-0.543-3.021-0.135-5.386,1.247-7.23
	c1.732-2.31,5.007-3.736,9.734-4.239c0.272-0.03,0.521,0.17,0.55,0.444c0.029,0.274-0.169,0.521-0.444,0.55
	c-4.439,0.473-7.481,1.766-9.04,3.845c-1.207,1.609-1.555,3.72-1.063,6.453c0.049,0.271-0.132,0.532-0.404,0.581
	C5.705,25,5.675,25.002,5.646,25.002z"/>
<path style="fill:#B56B34;" d="M11.532,31.662c-0.061,0-0.123-0.011-0.184-0.035c-3.838-1.515-6.4-3.781-7.615-6.734
	c-1.077-2.621-0.998-5.827,0.214-8.579c0.111-0.252,0.403-0.368,0.659-0.256c0.252,0.111,0.367,0.406,0.256,0.659
	c-0.414,0.939-1.65,4.277-0.204,7.795c1.107,2.693,3.482,4.773,7.058,6.184c0.257,0.102,0.383,0.392,0.282,0.649
	C11.919,31.542,11.731,31.662,11.532,31.662z"/>
<path style="fill:#A1561E;" d="M25.988,39.435c-0.014,0-0.028,0-0.042-0.002c-7.543-0.627-12.871-1.964-17.78-6.945
	c-0.194-0.197-0.192-0.513,0.005-0.707c0.197-0.194,0.513-0.191,0.707,0.005c4.692,4.76,9.842,6.043,17.151,6.651
	c0.275,0.022,0.479,0.264,0.457,0.54C26.464,39.237,26.246,39.435,25.988,39.435z"/>
<path style="fill:#995420;" d="M13.622,23.227c-0.059,0-0.118-0.01-0.175-0.032c-0.259-0.097-0.39-0.385-0.293-0.644
	c1.15-3.068,8.231-6.407,18.537-4.695c0.272,0.045,0.457,0.303,0.411,0.575c-0.045,0.272-0.297,0.46-0.575,0.411
	c-9.649-1.603-16.434,1.385-17.437,4.06C14.015,23.103,13.825,23.227,13.622,23.227z"/>
<path style="fill:#995A2C;" d="M30.711,23.227c-0.071,0-0.143-0.015-0.211-0.047c-3.964-1.855-10.249-4.216-14.68-5.013
	c-0.272-0.049-0.453-0.309-0.404-0.581c0.049-0.272,0.311-0.451,0.581-0.404c4.52,0.813,10.906,3.209,14.927,5.092
	c0.25,0.117,0.358,0.415,0.241,0.665C31.079,23.12,30.899,23.227,30.711,23.227z"/>
<path style="fill:#B56B34;" d="M36.827,20.221c-0.143,0-0.285-0.061-0.384-0.179c-4.657-5.567-9.523-6.458-14.674-7.403
	c-0.271-0.05-0.451-0.31-0.401-0.582c0.05-0.271,0.306-0.454,0.582-0.401c5.099,0.935,10.372,1.901,15.26,7.745
	c0.177,0.212,0.149,0.527-0.062,0.704C37.053,20.183,36.939,20.221,36.827,20.221z"/>
<path style="fill:#B56B34;" d="M38.06,33.069c-0.156,0-0.309-0.072-0.407-0.208c-0.161-0.225-0.109-0.537,0.115-0.698
	c1.241-0.89,5.327-4.148,5.791-8.704c0.25-2.451-0.647-4.802-2.665-6.986c-0.188-0.203-0.175-0.519,0.028-0.707
	c0.202-0.188,0.519-0.175,0.707,0.028c2.221,2.404,3.205,5.017,2.925,7.766c-0.506,4.972-4.875,8.463-6.202,9.415
	C38.262,33.039,38.16,33.069,38.06,33.069z"/>
<path style="fill:#B56B34;" d="M7.471,26.521c-0.101,0-0.202-0.03-0.291-0.093c-4.094-2.928-4.472-5.566-4.069-7.263
	c0.761-3.2,4.867-5.5,8.344-6.04c0.274-0.041,0.528,0.145,0.571,0.417s-0.145,0.528-0.417,0.571
	c-3.155,0.49-6.864,2.508-7.524,5.283c-0.477,2.006,0.794,4.157,3.678,6.219c0.225,0.161,0.276,0.473,0.116,0.698
	C7.78,26.449,7.626,26.521,7.471,26.521z"/>
<path style="fill:#A65417;" d="M31.292,34.46c-9.852,0-15.886-4.494-16.176-4.715c-0.22-0.167-0.262-0.48-0.095-0.7
	c0.167-0.22,0.479-0.264,0.701-0.096c0.079,0.06,8.084,5.999,20.423,4.143c0.274-0.034,0.528,0.147,0.569,0.42
	s-0.147,0.527-0.42,0.569C34.534,34.346,32.864,34.46,31.292,34.46z"/>
<path style="fill:#995A2C;" d="M26.294,37.701c-0.045,0-0.09-0.006-0.135-0.019c-9.495-2.66-13.429-6.502-15.058-9.258
	c-0.14-0.238-0.062-0.544,0.176-0.685c0.237-0.139,0.544-0.061,0.685,0.176c2.17,3.672,7.308,6.798,14.466,8.804
	c0.266,0.075,0.421,0.351,0.347,0.616C26.713,37.556,26.512,37.701,26.294,37.701z"/>
<path style="fill:#B56B34;" d="M10.313,19.403c-0.075,0-0.151-0.017-0.223-0.053c-0.247-0.124-0.347-0.424-0.224-0.671
	c2.125-4.25,6.404-6.252,10.179-8.02c0.25-0.118,0.547-0.009,0.665,0.241s0.009,0.548-0.241,0.665
	c-3.627,1.698-7.739,3.623-9.708,7.562C10.673,19.302,10.497,19.403,10.313,19.403z"/>
<radialGradient id="SVGID_3_" cx="24.2472" cy="20.9545" r="22.5657" gradientTransform="matrix(1 0 0 0.5067 0 10.3361)" gradientUnits="userSpaceOnUse">
	<stop  offset="0.632" style="stop-color:#6E3A13;stop-opacity:0"/>
	<stop  offset="1" style="stop-color:#42220C"/>
</radialGradient>
<path style="opacity:0.58;fill:url(#SVGID_3_);" d="M44.913,20.179c-0.55-3.215-4.289-5.993-9.714-7.627
	c-1.083-0.646-1.956-0.953-2.035-0.98c-0.257-0.088-0.532,0.046-0.627,0.298c-0.601-0.128-1.217-0.241-1.846-0.342
	c-0.081-0.177-0.261-0.292-0.487-0.287c-0.204,0.014-0.39,0.03-0.588,0.044c-1.027-0.442-2.029-0.794-2.944-1.082
	c-0.262-0.081-0.543,0.063-0.627,0.327c-0.061,0.195,0.004,0.399,0.149,0.526c-0.21-0.01-0.425-0.01-0.637-0.018
	c-0.887-0.117-1.762-0.194-2.618-0.229c0.02-0.073,0.029-0.15,0.012-0.23c-0.056-0.271-0.319-0.443-0.591-0.389
	c-0.425,0.088-0.866,0.173-1.321,0.261c-0.739,0.143-1.52,0.297-2.319,0.476c-1.045,0.1-2.05,0.245-3.003,0.424
	c-0.124-0.095-0.284-0.138-0.444-0.09c-0.529,0.16-1.034,0.337-1.529,0.521c-4.162,1.029-7.038,2.527-7.647,2.862
	c-0.242,0.132-0.331,0.437-0.198,0.679c0.012,0.022,0.036,0.032,0.051,0.052c-0.25,0.18-0.491,0.368-0.718,0.565
	c-0.001,0-0.001,0.001-0.002,0.001c-0.032,0.028-0.064,0.055-0.096,0.083c-0.017,0.017-0.036,0.029-0.051,0.049
	c-0.081,0.074-0.158,0.15-0.236,0.226c-0.05-0.102-0.129-0.19-0.241-0.24c-0.256-0.112-0.548,0.003-0.659,0.256
	c-0.385,0.874-0.642,1.795-0.798,2.728c-0.011,0.041-0.028,0.081-0.038,0.123C3.02,19.55,2.972,19.986,2.996,20.46
	c-0.008,0.188-0.007,0.374-0.005,0.561c-0.465,1.913-0.068,4.193,1.021,6.524c-0.103,0.156-0.121,0.367-0.026,0.539
	c1.72,3.146,4.921,9.003,16.143,12.008c0.043,0.012,0.087,0.017,0.13,0.017c0.217,0,0.412-0.145,0.476-0.361
	c1.138,0.251,2.361,0.394,3.647,0.394c2.776,0,5.82-0.646,8.809-2.159c0.299-0.132,0.605-0.253,0.896-0.397
	c0.112-0.033,0.191-0.058,0.22-0.067c0.105-0.034,0.185-0.104,0.245-0.188c0.693-0.364,1.357-0.763,1.996-1.194
	c0.56-0.191,1.126-0.397,1.7-0.629c0.256-0.104,0.38-0.395,0.277-0.651c-0.022-0.055-0.057-0.101-0.094-0.143
	c0.169-0.144,0.345-0.282,0.508-0.431c0.099,0.107,0.232,0.163,0.368,0.163c0.119,0,0.237-0.042,0.333-0.126
	c0.786-0.7,1.44-1.412,1.984-2.122c2.009-1.695,3.727-4.431,3.178-8.719c0.095-0.652,0.154-1.314,0.173-1.985
	C44.982,21.495,44.991,21.5,45,21.5c0.119,0,0.237-0.042,0.333-0.126c0.206-0.184,0.225-0.5,0.041-0.706
	C45.22,20.495,45.066,20.343,44.913,20.179z"/>
<radialGradient id="SVGID_4_" cx="16.4429" cy="20.9987" r="8.7411" gradientTransform="matrix(0.9414 -0.3372 0.467 1.3037 -8.843 -0.8333)" gradientUnits="userSpaceOnUse">
	<stop  offset="0" style="stop-color:#E8EFFF"/>
	<stop  offset="0.2597" style="stop-color:#DBE6FF"/>
	<stop  offset="1" style="stop-color:#5F6A99"/>
</radialGradient>
<path style="fill:url(#SVGID_4_);" d="M25.02,28.15c-0.8,0.02-1.6,0.01-2.39-0.02c-0.03,0-0.05,0-0.08-0.01
	c-3.31-0.17-6.54-0.88-9.19-2.1c-0.18-0.08-0.39-0.04-0.53,0.09c-0.04-0.02-0.08-0.03-0.12-0.05c-0.79-3.22-0.73-7.13,1.3-8.36
	c2.87-1.72,8.6,2.5,10.36,5.42C25.32,24.7,25.5,26.53,25.02,28.15z"/>
<radialGradient id="SVGID_5_" cx="18.4992" cy="16.7314" r="10.9394" gradientTransform="matrix(0.9414 -0.3372 0.3509 0.9797 -4.7877 6.5781)" gradientUnits="userSpaceOnUse">
	<stop  offset="0" style="stop-color:#EDF2FF;stop-opacity:0"/>
	<stop  offset="1" style="stop-color:#40424A"/>
</radialGradient>
<path style="fill:url(#SVGID_5_);" d="M25.02,28.15c-0.8,0.02-1.6,0.01-2.39-0.02c-0.03,0-0.05,0-0.08-0.01
	c-3.31-0.17-6.54-0.88-9.19-2.1c-0.18-0.08-0.39-0.04-0.53,0.09c-0.04-0.02-0.08-0.03-0.12-0.05c-0.79-3.22-0.73-7.13,1.3-8.36
	c2.87-1.72,8.6,2.5,10.36,5.42C25.32,24.7,25.5,26.53,25.02,28.15z"/>
<radialGradient id="SVGID_6_" cx="30.455" cy="18.8049" r="8.8308" gradientTransform="matrix(0.861 0.5086 -0.5946 1.0067 15.4136 -15.6141)" gradientUnits="userSpaceOnUse">
	<stop  offset="0" style="stop-color:#EBF1FF"/>
	<stop  offset="0.4283" style="stop-color:#BFC7DB"/>
	<stop  offset="1" style="stop-color:#454752"/>
</radialGradient>
<path style="fill:url(#SVGID_6_);" d="M36.24,24.13c-0.71,0.72-1.81,1.47-3.25,2.22c-0.19,0.1-0.29,0.31-0.26,0.52
	c-1.85,0.63-3.89,1.02-6,1.2c-0.05,0-0.11,0-0.17,0.01c-0.35,0.03-0.71,0.05-1.07,0.06c-0.37,0.02-0.75,0.03-1.13,0.03
	c-0.91-1.73-0.98-3.86-0.02-5.74c1.56-3.03,6.98-7.66,9.96-6.13C36.33,17.35,36.71,20.97,36.24,24.13z"/>
</svg>