<?xml version="1.0" encoding="iso-8859-1"?>
<!-- Generator: Adobe Illustrator 24.1.2, SVG Export Plug-In . SVG Version: 6.00 Build 0)  -->
<svg version="1.1" baseProfile="basic" id="Layer_1"
	 xmlns="http://www.w3.org/2000/svg" xmlns:xlink="http://www.w3.org/1999/xlink" x="0px" y="0px" viewBox="0 0 100 100"
	 xml:space="preserve">
<g>
	<path style="fill:#4E6E91;" d="M73.5,52c1.381,0,2.5-1.119,2.5-2.5c0-1.381-1.119-2.5-2.5-2.5H73V21h0.5c1.381,0,2.5-1.119,2.5-2.5
		c0-1.381-1.119-2.5-2.5-2.5h-4H30.723H26.5c-1.381,0-2.5,1.119-2.5,2.5c0,1.381,1.119,2.5,2.5,2.5H27v26h-0.5
		c-1.381,0-2.5,1.119-2.5,2.5c0,1.381,1.119,2.5,2.5,2.5H27v27h-0.5c-1.381,0-2.5,1.119-2.5,2.5c0,1.381,1.119,2.5,2.5,2.5h4.223
		H69.5h4c1.381,0,2.5-1.119,2.5-2.5c0-1.381-1.119-2.5-2.5-2.5H73V52H73.5z"/>
	<path style="fill:#6693C1;" d="M26,20h48c1.105,0,2-0.895,2-2v0c0-1.105-0.895-2-2-2H26c-1.105,0-2,0.895-2,2v0
		C24,19.105,24.895,20,26,20z"/>
	<path style="fill:#6693C1;" d="M26,84h48c1.105,0,2-0.895,2-2l0,0c0-1.105-0.895-2-2-2H26c-1.105,0-2,0.895-2,2l0,0
		C24,83.105,24.895,84,26,84z"/>
	<path style="fill:#6693C1;" d="M25.5,51h49c0.828,0,1.5-0.672,1.5-1.5l0,0c0-0.828-0.672-1.5-1.5-1.5h-49
		c-0.828,0-1.5,0.672-1.5,1.5l0,0C24,50.328,24.672,51,25.5,51z"/>
	<path style="fill:#EDDC67;" d="M58.5,52.779c0,4.816-3.806,8.721-8.5,8.721s-8.5-3.904-8.5-8.721C41.5,46.384,50,37.5,50,37.5
		S58.5,46.384,58.5,52.779z"/>
</g>
<g>
	<path style="fill:#1F212B;" d="M73.5,85h-47c-1.93,0-3.5-1.57-3.5-3.5c0-1.76,1.306-3.221,3-3.464V52.964
		c-1.694-0.243-3-1.704-3-3.464s1.306-3.221,3-3.464V21.964c-1.694-0.243-3-1.704-3-3.464c0-1.93,1.57-3.5,3.5-3.5h47
		c1.93,0,3.5,1.57,3.5,3.5c0,1.76-1.306,3.221-3,3.464v24.071c1.694,0.243,3,1.704,3,3.464s-1.306,3.221-3,3.464v25.071
		c1.694,0.243,3,1.704,3,3.464C77,83.43,75.43,85,73.5,85z M26.5,80c-0.827,0-1.5,0.673-1.5,1.5s0.673,1.5,1.5,1.5h47
		c0.827,0,1.5-0.673,1.5-1.5S74.327,80,73.5,80H73c-0.552,0-1-0.448-1-1V52c0-0.552,0.448-1,1-1h0.5c0.827,0,1.5-0.673,1.5-1.5
		S74.327,48,73.5,48H73c-0.552,0-1-0.448-1-1V21c0-0.552,0.448-1,1-1h0.5c0.827,0,1.5-0.673,1.5-1.5S74.327,17,73.5,17h-47
		c-0.827,0-1.5,0.673-1.5,1.5s0.673,1.5,1.5,1.5H27c0.552,0,1,0.448,1,1v26c0,0.552-0.448,1-1,1h-0.5c-0.827,0-1.5,0.673-1.5,1.5
		s0.673,1.5,1.5,1.5H27c0.552,0,1,0.448,1,1v27c0,0.552-0.448,1-1,1H26.5z"/>
	<path style="fill:#1F212B;" d="M50.5,21H27c-0.276,0-0.5-0.224-0.5-0.5S26.724,20,27,20h23.5c0.276,0,0.5,0.224,0.5,0.5
		S50.776,21,50.5,21z"/>
	<path style="fill:#1F212B;" d="M42.919,48H27c-0.276,0-0.5-0.224-0.5-0.5S26.724,47,27,47h15.919c0.276,0,0.5,0.224,0.5,0.5
		S43.195,48,42.919,48z"/>
	<path style="fill:#1F212B;" d="M66.5,48h-9.418c-0.276,0-0.5-0.224-0.5-0.5s0.224-0.5,0.5-0.5H66.5c0.276,0,0.5,0.224,0.5,0.5
		S66.776,48,66.5,48z"/>
	<path style="fill:#1F212B;" d="M73,48h-3.5c-0.276,0-0.5-0.224-0.5-0.5s0.224-0.5,0.5-0.5H73c0.276,0,0.5,0.224,0.5,0.5
		S73.276,48,73,48z"/>
	<path style="fill:#1F212B;" d="M73,52H58.396c-0.276,0-0.5-0.224-0.5-0.5s0.224-0.5,0.5-0.5H73c0.276,0,0.5,0.224,0.5,0.5
		S73.276,52,73,52z"/>
	<path style="fill:#1F212B;" d="M73,80H39.5c-0.276,0-0.5-0.224-0.5-0.5s0.224-0.5,0.5-0.5H73c0.276,0,0.5,0.224,0.5,0.5
		S73.276,80,73,80z"/>
	<path style="fill:#1F212B;" d="M35.5,80H27c-0.276,0-0.5-0.224-0.5-0.5S26.724,79,27,79h8.5c0.276,0,0.5,0.224,0.5,0.5
		S35.776,80,35.5,80z"/>
	<path style="fill:#1F212B;" d="M50,62c-4.962,0-9-4.136-9-9.221c0-6.521,8.286-15.256,8.639-15.625
		c0.188-0.197,0.534-0.197,0.723,0C50.714,37.523,59,46.258,59,52.779C59,57.864,54.962,62,50,62z M50,38.237
		c-1.605,1.771-8,9.163-8,14.542C42,57.312,45.589,61,50,61s8-3.688,8-8.221C58,47.396,51.605,40.006,50,38.237z"/>
	<path style="fill:#1F212B;" d="M41.604,52H35.5c-0.276,0-0.5-0.224-0.5-0.5s0.224-0.5,0.5-0.5h6.104c0.276,0,0.5,0.224,0.5,0.5
		S41.881,52,41.604,52z"/>
	<path style="fill:#1F212B;" d="M32.5,52h-2c-0.276,0-0.5-0.224-0.5-0.5s0.224-0.5,0.5-0.5h2c0.276,0,0.5,0.224,0.5,0.5
		S32.776,52,32.5,52z"/>
	<path style="fill:#1F212B;" d="M61.5,21h-7c-0.276,0-0.5-0.224-0.5-0.5s0.224-0.5,0.5-0.5h7c0.276,0,0.5,0.224,0.5,0.5
		S61.776,21,61.5,21z"/>
	<path style="fill:#1F212B;" d="M66.5,21h-2c-0.276,0-0.5-0.224-0.5-0.5s0.224-0.5,0.5-0.5h2c0.276,0,0.5,0.224,0.5,0.5
		S66.776,21,66.5,21z"/>
	<path style="fill:#1F212B;" d="M73,21h-3.5c-0.276,0-0.5-0.224-0.5-0.5s0.224-0.5,0.5-0.5H73c0.276,0,0.5,0.224,0.5,0.5
		S73.276,21,73,21z"/>
</g>
</svg>