<?xml version="1.0" encoding="iso-8859-1"?>
<!-- Generator: Adobe Illustrator 24.1.2, SVG Export Plug-In . SVG Version: 6.00 Build 0)  -->
<svg version="1.1" xmlns="http://www.w3.org/2000/svg" xmlns:xlink="http://www.w3.org/1999/xlink" x="0px" y="0px"
	 viewBox="0 0 48 48" style="enable-background:new 0 0 48 48;" xml:space="preserve">
<g id="&#x421;&#x43B;&#x43E;&#x439;_1">
</g>
<g id="&#x421;&#x43B;&#x43E;&#x439;_2">
</g>
<g id="&#x421;&#x43B;&#x43E;&#x439;_3">
	<path style="fill:#FFC107;" d="M24.538,4C15.887,4,6,8.954,6,22.947C6,33.108,13.678,44,25.423,44c0.004,0,0.17,0,0.176,0
		c4.411-0.079,9.158-2.918,9.158-8.959c0-1.157-0.434-2.159-0.814-3.042c-0.103-0.233-0.2-0.462-0.29-0.694
		c-0.869-2.175,0.09-2.971,2.343-4.565c2.552-1.806,6.048-4.278,6.003-10.819C41.999,12.032,37.731,4,24.538,4z M24.901,39
		c-2.254,0-4.024-1.76-4.024-3.999c0-2.241,1.77-4.001,4.024-4.001c2.251,0,4.021,1.76,4.021,4.001
		C28.922,37.24,27.153,39,24.901,39z"/>
	<path style="fill:#2196F3;" d="M25.5,7C23.567,7,22,8.567,22,10.5s1.567,3.5,3.5,3.5s3.5-1.567,3.5-3.5S27.433,7,25.5,7z"/>
	<path style="fill:#4CAF50;" d="M15.5,12c-1.933,0-3.5,1.567-3.5,3.5s1.567,3.5,3.5,3.5s3.5-1.567,3.5-3.5S17.433,12,15.5,12z"/>
	<path style="fill:#FF3D00;" d="M14.5,23c-1.933,0-3.5,1.567-3.5,3.5s1.567,3.5,3.5,3.5s3.5-1.567,3.5-3.5S16.433,23,14.5,23z"/>
	<rect x="32" y="22" style="fill:#9E9E9E;" width="5" height="3"/>
	<path style="fill:#424242;" d="M34.5,46L34.5,46c-0.763,0-1.393-0.597-1.435-1.359L32,25h5l-1.065,19.641
		C35.893,45.403,35.263,46,34.5,46z"/>
	<path style="fill:#F6F6F6;" d="M38,19c0,1.475-1,3-1,3h-5c0,0-1-1.527-1-3c0-4.5,5.067-7,7-7C36,15,38,16,38,19z"/>
</g>
</svg>