<svg xmlns="http://www.w3.org/2000/svg"  viewBox="0 0 80 80" width="100px" height="100px"><path fill="#36404d" d="M50 78.003L56 42.382 54.035 42.003 47.962 78.003zM60 78.003L78 40.003 76.184 39.163 57.796 78.003zM30 78.003L24 42.382 25.965 42.003 32.038 78.003zM20 78.003L2 40.003 3.816 39.163 22.204 78.003z"/><path fill="#99c99e" d="M70,45.503c-5.281,0-7.511-5.623-7.533-5.68l-0.579-1.501l-0.374,1.565 c-0.055,0.229-1.401,5.615-6.628,5.615c-5.229,0-6.384-5.541-6.395-5.597l-0.335-1.695l-0.623,1.612 c-0.022,0.057-2.252,5.68-7.533,5.68s-7.511-5.623-7.533-5.68l-0.566-1.466l-0.386,1.523c-0.058,0.229-1.482,5.622-6.715,5.622 c-5.206,0-6.266-5.362-6.308-5.591l-0.323-1.733l-0.635,1.645c-0.022,0.057-2.252,5.68-7.533,5.68c-5.853,0-7.34-4.965-7.5-5.572 C2.533,19.28,19.343,2.492,40,2.492s37.467,16.789,37.5,37.439C77.344,40.535,75.879,45.503,70,45.503z"/><path fill="#5e9c76" d="M40,2.992c20.36,0,36.931,16.53,37,36.873c-0.209,0.749-1.661,5.137-7,5.137 c-4.927,0-6.982-5.141-7.066-5.358l-1.151-2.998l-0.755,3.124c-0.052,0.214-1.321,5.232-6.142,5.232 c-4.791,0-5.861-4.984-5.904-5.194l-0.673-3.405l-1.242,3.241c-0.021,0.054-2.111,5.358-7.066,5.358 c-4.927,0-6.982-5.141-7.066-5.358l-1.125-2.929l-0.779,3.042c-0.055,0.214-1.398,5.245-6.231,5.245 c-4.779,0-5.777-4.972-5.816-5.18l-0.642-3.504l-1.275,3.326c-0.021,0.054-2.111,5.358-7.066,5.358c-5.319,0-6.789-4.394-7-5.139 C3.069,19.52,19.64,2.992,40,2.992 M40,1.992c-20.989,0-38,17.011-38,38c0,0,1.409,6.011,8,6.011c5.7,0,8-6,8-6s1.1,6,6.8,6 c5.7,0,7.2-6,7.2-6s2.3,6,8,6s8-6,8-6s1.185,6,6.885,6c5.7,0,7.115-6,7.115-6s2.3,6,8,6c6.617,0,8-6.011,8-6.011 C78,19.003,60.989,1.992,40,1.992L40,1.992z"/><g><path fill="#5e9c76" d="M18 40.003c0 0 1.1 5.418 6.8 5.418s7.2-5.418 7.2-5.418S32.4 10.604 40 3C40 3 18 5.803 18 40.003zM40 3c7.6 7.604 8 37.003 8 37.003s1.185 5.418 6.885 5.418S62 40.003 62 40.003C62 5.803 40 3 40 3z"/></g></svg>