<?xml version="1.0" encoding="iso-8859-1"?>
<!-- Generator: Adobe Illustrator 24.1.2, SVG Export Plug-In . SVG Version: 6.00 Build 0)  -->
<svg version="1.1" id="Layer_2" xmlns="http://www.w3.org/2000/svg" xmlns:xlink="http://www.w3.org/1999/xlink" x="0px" y="0px"
	 viewBox="0 0 48 48" style="enable-background:new 0 0 48 48;" xml:space="preserve">
<linearGradient id="SVGID_1_" gradientUnits="userSpaceOnUse" x1="5.7066" y1="7.7066" x2="23.7623" y2="25.7623">
	<stop  offset="0" style="stop-color:#FED100"/>
	<stop  offset="1" style="stop-color:#E36001"/>
</linearGradient>
<path style="fill:url(#SVGID_1_);" d="M16,7C9.925,7,5,11.925,5,18s4.925,11,11,11s11-4.925,11-11S22.075,7,16,7z"/>
<linearGradient id="SVGID_2_" gradientUnits="userSpaceOnUse" x1="22.3126" y1="16.0786" x2="26.6178" y2="41.4484">
	<stop  offset="0" style="stop-color:#FCFCFC"/>
	<stop  offset="1" style="stop-color:#C3C9CD"/>
</linearGradient>
<path style="fill:url(#SVGID_2_);" d="M35,21c-0.331,0-0.657,0.018-0.98,0.049C31.741,17.99,28.108,16,24,16
	c-5.713,0-10.52,3.837-12.012,9.071C8.049,25.569,5,28.925,5,33c0,4.418,3.582,8,8,8c1.818,0,20.107,0,22,0c5.523,0,10-4.477,10-10
	C45,25.477,40.523,21,35,21z"/>
</svg>