<svg xmlns="http://www.w3.org/2000/svg"  viewBox="0 0 100 100" width="100px" height="100px" baseProfile="basic"><path fill="#ee4267" d="M73.923,82H26.077C21.616,82,18,78.384,18,73.923V26.077C18,21.616,21.616,18,26.077,18h47.846 C78.384,18,82,21.616,82,26.077v47.846C82,78.384,78.384,82,73.923,82z"/><path fill="#1f212b" d="M74.874,19.1c3.322,0,6.025,2.703,6.025,6.026v49.75c0,3.322-2.703,6.025-6.025,6.025H25.125 c-3.323,0-6.026-2.703-6.026-6.025v-49.75c0-3.323,2.703-6.026,6.026-6.026L74.874,19.1 M74.874,17H25.125 C20.637,17,17,20.637,17,25.125v49.75C17,79.362,20.637,83,25.125,83h49.75C79.362,83,83,79.362,83,74.874V25.125 C83,20.637,79.362,17,74.874,17L74.874,17z"/><path fill="#1f212b" d="M22.5,30c-0.276,0-0.5-0.224-0.5-0.5v-2.962C22,24.036,24.036,22,26.538,22H31.5 c0.276,0,0.5,0.224,0.5,0.5S31.776,23,31.5,23h-4.962C24.587,23,23,24.587,23,26.538V29.5C23,29.776,22.776,30,22.5,30z"/><path fill="#1f212b" d="M29.5,78h-2.962C24.036,78,22,75.964,22,73.462V35.5c0-0.276,0.224-0.5,0.5-0.5s0.5,0.224,0.5,0.5 v37.962C23,75.413,24.587,77,26.538,77H29.5c0.276,0,0.5,0.224,0.5,0.5S29.776,78,29.5,78z"/><path fill="#1f212b" d="M73.462,78H61c-0.276,0-0.5-0.224-0.5-0.5S60.724,77,61,77h12.462C75.413,77,77,75.413,77,73.462 V47.5c0-0.276,0.224-0.5,0.5-0.5s0.5,0.224,0.5,0.5v25.962C78,75.964,75.964,78,73.462,78z"/><path fill="#1f212b" d="M77.5,48.5c-0.276,0-0.5-0.224-0.5-0.5V26.538C77,24.587,75.413,23,73.462,23H69 c-0.276,0-0.5-0.224-0.5-0.5S68.724,22,69,22h4.462C75.964,22,78,24.036,78,26.538V48C78,48.276,77.776,48.5,77.5,48.5z"/><path fill="#1f212b" d="M52.5,23h-3c-0.276,0-0.5-0.224-0.5-0.5s0.224-0.5,0.5-0.5h3c0.276,0,0.5,0.224,0.5,0.5 S52.776,23,52.5,23z"/><path fill="#1f212b" d="M46.5,23h-10c-0.276,0-0.5-0.224-0.5-0.5s0.224-0.5,0.5-0.5h10c0.276,0,0.5,0.224,0.5,0.5 S46.776,23,46.5,23z"/><path fill="#1f212b" d="M38.5,78h-5c-0.276,0-0.5-0.224-0.5-0.5s0.224-0.5,0.5-0.5h5c0.276,0,0.5,0.224,0.5,0.5 S38.776,78,38.5,78z"/><path fill="#1f212b" d="M57.5,78h-14c-0.276,0-0.5-0.224-0.5-0.5s0.224-0.5,0.5-0.5h14c0.276,0,0.5,0.224,0.5,0.5 S57.776,78,57.5,78z"/><path fill="#fff" d="M61.218,37.204l2.746-4.756c1.105-1.913,0.449-4.36-1.464-5.464s-4.36-0.449-5.464,1.464 l-2.742,4.75C52.772,32.75,51.166,32.5,49.5,32.5c-9.389,0-17,7.611-17,17c0,2.045,0.386,3.995,1.05,5.81l5.856-10.142 C41.087,41.25,44.966,38.5,49.5,38.5c6.075,0,11,4.925,11,11s-4.925,11-11,11c-1.99,0-3.78-0.454-5.331-1.302l3.544-6.138 c0.54,0.272,1.142,0.44,1.788,0.44c2.209,0,4-1.791,4-4s-1.791-4-4-4c-1.597,0-2.965,0.943-3.606,2.297l-6.552,11.317 c-0.002-0.003-0.005-0.005-0.007-0.007l-4.299,7.446c-1.105,1.913-0.449,4.36,1.464,5.464s4.36,0.449,5.464-1.464l2.705-4.685 c1.514,0.418,3.128,0.633,4.831,0.633c9.389,0,17-7.611,17-17C66.5,44.658,64.466,40.3,61.218,37.204z"/><path fill="#1f212b" d="M40.663,35.475c-0.168,0-0.333-0.085-0.427-0.24c-0.144-0.236-0.069-0.543,0.167-0.687 c1.559-0.95,3.246-1.646,5.016-2.069c0.269-0.061,0.539,0.102,0.603,0.37s-0.102,0.539-0.37,0.603 c-1.668,0.398-3.259,1.055-4.728,1.95C40.842,35.451,40.752,35.475,40.663,35.475z"/><path fill="#1f212b" d="M61.206,62.328c-0.132,0-0.265-0.052-0.362-0.155c-0.19-0.2-0.183-0.517,0.018-0.707 C64.175,58.317,66,54.068,66,49.5c0-4.544-1.821-8.782-5.127-11.934c-0.167-0.159-0.204-0.412-0.088-0.612l2.746-4.757 c0.965-1.671,0.39-3.816-1.281-4.781c-1.671-0.964-3.816-0.391-4.781,1.281l-2.742,4.75c-0.115,0.2-0.355,0.295-0.573,0.229 C52.625,33.228,51.06,33,49.5,33c-0.276,0-0.5-0.224-0.5-0.5s0.224-0.5,0.5-0.5c1.526,0,3.057,0.205,4.556,0.61l2.548-4.413 c0.601-1.041,1.571-1.786,2.732-2.097c1.16-0.31,2.374-0.151,3.414,0.45c1.041,0.601,1.785,1.571,2.097,2.732 c0.311,1.161,0.151,2.374-0.45,3.415l-2.551,4.42C65.173,40.429,67,44.811,67,49.5c0,4.846-1.936,9.353-5.449,12.69 C61.454,62.282,61.33,62.328,61.206,62.328z"/><path fill="#1f212b" d="M52.305,66.77c-0.239,0-0.451-0.174-0.492-0.418c-0.045-0.272,0.139-0.53,0.411-0.575 c2.303-0.383,4.458-1.234,6.404-2.529c0.229-0.153,0.54-0.093,0.693,0.139c0.153,0.23,0.091,0.541-0.139,0.693 c-2.065,1.375-4.352,2.277-6.795,2.684C52.36,66.768,52.332,66.77,52.305,66.77z"/><path fill="#1f212b" d="M38.493,73.052c-0.763,0-1.536-0.194-2.243-0.603c-1.041-0.601-1.786-1.571-2.097-2.731 c-0.311-1.161-0.151-2.374,0.45-3.415l4.298-7.445c0.017-0.029,0.036-0.056,0.058-0.08l6.502-11.231 C46.185,46.014,47.778,45,49.5,45c2.481,0,4.5,2.019,4.5,4.5S51.981,54,49.5,54c-0.534,0-1.063-0.101-1.579-0.301l-3.057,5.294 C46.257,59.661,47.814,60,49.5,60C55.29,60,60,55.29,60,49.5C60,43.71,55.29,39,49.5,39c-3.789,0-7.31,2.339-9.661,6.417 l-5.856,10.143c-0.097,0.167-0.283,0.26-0.477,0.248c-0.193-0.017-0.359-0.145-0.426-0.326C32.363,53.521,32,51.508,32,49.5 c0-4.989,2.138-9.754,5.866-13.073c0.205-0.185,0.521-0.166,0.706,0.041c0.184,0.206,0.165,0.522-0.041,0.706 C35.016,40.304,33,44.796,33,49.5c0,1.536,0.227,3.077,0.675,4.595l5.298-9.177C41.507,40.521,45.344,38,49.5,38 C55.841,38,61,43.159,61,49.5C61,55.841,55.841,61,49.5,61c-2.042,0-3.916-0.459-5.571-1.363c-0.118-0.064-0.205-0.174-0.242-0.304 c-0.036-0.129-0.019-0.269,0.048-0.385l3.544-6.138c0.132-0.23,0.422-0.315,0.658-0.196C48.447,52.87,48.973,53,49.5,53 c1.93,0,3.5-1.57,3.5-3.5S51.43,46,49.5,46c-1.358,0-2.567,0.771-3.154,2.011l-6.571,11.354c-0.017,0.028-0.036,0.055-0.057,0.079 l-4.248,7.358c-0.468,0.81-0.592,1.753-0.35,2.655c0.242,0.903,0.821,1.658,1.631,2.126c1.671,0.964,3.815,0.389,4.781-1.281 l2.705-4.686c0.114-0.197,0.347-0.294,0.566-0.231C46.276,65.793,47.857,66,49.5,66c0.276,0,0.5,0.224,0.5,0.5S49.776,67,49.5,67 c-1.595,0-3.137-0.186-4.589-0.552l-2.514,4.354C41.564,72.244,40.049,73.052,38.493,73.052z"/></svg>