<svg xmlns="http://www.w3.org/2000/svg"  viewBox="0 0 48 48" width="144px" height="144px"><path fill="#ffc107" d="M17,44c-0.4,0-0.8-0.3-0.9-0.7c-0.2-0.5,0.1-1.1,0.6-1.3c1.8-0.6,3.4-1.4,4.4-2.1h-7 c-0.6,0-1-0.4-1-1s0.4-1,1-1h10v1c0,2.5-4.7,4.3-6.7,4.9C17.2,44,17.1,44,17,44z"/><path fill="#ffc107" d="M15,42c-0.6,0-1-0.4-1-1c0-0.6,0.4-1,1-1c2.2,0,6.1-0.5,7.3-1.7c0.4-0.4,1-0.4,1.4,0s0.4,1,0,1.4 C21.5,41.9,15.7,42,15,42z"/><path fill="#ffc107" d="M30,44c-0.1,0-0.2,0-0.3-0.1c-2-0.7-6.7-2.5-6.7-4.9v-1h10c0.6,0,1,0.4,1,1s-0.4,1-1,1h-7 c1,0.7,2.5,1.4,4.4,2.1c0.5,0.2,0.8,0.7,0.6,1.3C30.8,43.7,30.4,44,30,44z"/><path fill="#ffc107" d="M32,42c-0.7,0-6.5-0.1-8.7-2.3c-0.4-0.4-0.4-1,0-1.4s1-0.4,1.4,0c1.2,1.2,5.1,1.7,7.3,1.7 c0.6,0,1,0.4,1,1C33,41.6,32.6,42,32,42z"/><path fill="#1a237e" d="M13 18c-2 5-8 9-8 9s1 2 5 2h3V18zM35 18c2 5 8 9 8 9s-1 2-5 2h-3V18z"/><path fill="#303f9f" d="M34,14c0,5.5-4.5,10-10,10s-10-4.5-10-10c0-7,4.5-10,10-10S34,7,34,14z"/><path fill="#303f9f" d="M38,27c0,7.7-6.3,14-14,14s-14-6.3-14-14s6.3-14,14-14S38,19.3,38,27z"/><path fill="#303f9f" d="M10,27c0-6,4-10,4-13s20-3,20,0s4,7,4,13S10,33,10,27z"/><path fill="#fff" d="M34,27c0,5.5-4.5,10-10,10s-10-4.5-10-10s4.5-10,10-10S34,21.5,34,27z"/><path fill="#fff" d="M30,17c0,0,1-2,1-4c0-7-7-3-7-2c0-1-7-5-7,2c0,2,1,4,1,4c-1,2-4,4.2-4,10h20C34,21.2,31,19,30,17z"/><path fill="#263238" d="M23 14.5c0 .8-.7 1.5-1.5 1.5S20 15.3 20 14.5s.7-1.5 1.5-1.5S23 13.7 23 14.5zM28 14.5c0 .8-.7 1.5-1.5 1.5S25 15.3 25 14.5s.7-1.5 1.5-1.5S28 13.7 28 14.5z"/><path fill="#ffc107" d="M24.7,16.3C24.5,16.1,24.3,16,24,16s-0.5,0.1-0.7,0.3c-0.9,0.7-2.1,0.5-2.1,0.5S22.6,21,24,21 s2.8-4.2,2.8-4.2S25.6,17,24.7,16.3z"/></svg>