<svg xmlns="http://www.w3.org/2000/svg"  viewBox="0 0 48 48" width="100px" height="100px"><radialGradient id="_sUB17~MmP7w9X5jaIWgRa" cx="40.663" cy="6.902" r="11.146" gradientTransform="matrix(1 0 0 .4866 0 3.544)" gradientUnits="userSpaceOnUse"><stop offset=".094" stop-color="#ef9a9a"/><stop offset=".134" stop-color="#f1a2a3"/><stop offset=".28" stop-color="#f9babd"/><stop offset=".411" stop-color="#fdc8cc"/><stop offset=".514" stop-color="#ffcdd2"/></radialGradient><path fill="url(#_sUB17~MmP7w9X5jaIWgRa)" d="M28,9c0,0,3-4,6-4s5,2,7,2s3-1,4-1c2,0,3,2,3,2l-2,1c0,0,1,1.2,1,3c0,5-4,6-5,7s-2,3-4,3c-1,0-2-1-4-4	C32.8,16.1,28,9,28,9z"/><radialGradient id="_sUB17~MmP7w9X5jaIWgRb" cx="38.488" cy="12.841" r="12.461" gradientTransform="matrix(1 0 0 .789 0 2.71)" gradientUnits="userSpaceOnUse"><stop offset=".486" stop-color="#ffcdd2" stop-opacity="0"/><stop offset=".589" stop-color="#fdc8cc" stop-opacity=".244"/><stop offset=".72" stop-color="#f9babd" stop-opacity=".556"/><stop offset=".866" stop-color="#f1a2a3" stop-opacity=".903"/><stop offset=".906" stop-color="#ef9a9a"/></radialGradient><path fill="url(#_sUB17~MmP7w9X5jaIWgRb)" d="M28,9c0,0,3-4,6-4s5,2,7,2s3-1,4-1c2,0,3,2,3,2l-2,1c0,0,1,1.2,1,3c0,5-4,6-5,7s-2,3-4,3c-1,0-2-1-4-4	C32.8,16.1,28,9,28,9z"/><radialGradient id="_sUB17~MmP7w9X5jaIWgRc" cx="34.562" cy="12.012" r="9.609" fx="35.259" fy="13.16" gradientTransform="matrix(.9606 -.278 .3616 1.2494 -2.981 6.614)" gradientUnits="userSpaceOnUse"><stop offset=".16" stop-color="#d36a6a"/><stop offset=".508" stop-color="#ef9a9a"/><stop offset="1" stop-color="#ef9a9a" stop-opacity=".4"/></radialGradient><path fill="url(#_sUB17~MmP7w9X5jaIWgRc)" d="M30,10c0,0,1-3,4-3s5,3,7,3s3-1,5-1c0,0,1,1.2,1,3c0,4-3,4-5,6s-2,3-4,3c0,0-2,0-4-3C32.8,16.1,30,10,30,10z"/><linearGradient id="_sUB17~MmP7w9X5jaIWgRd" x1="38.5" x2="38.5" y1="18.229" y2="6.11" gradientUnits="userSpaceOnUse"><stop offset=".222" stop-color="#ef9a9a" stop-opacity="0"/><stop offset=".298" stop-color="#eb9494" stop-opacity=".107"/><stop offset=".703" stop-color="#da7575" stop-opacity=".678"/><stop offset=".932" stop-color="#d36a6a"/></linearGradient><path fill="url(#_sUB17~MmP7w9X5jaIWgRd)" d="M30,10c0,0,1-3,4-3s5,3,7,3s3-1,5-1c0,0,1,1.2,1,3c0,4-3,4-5,6s-2,3-4,3c0,0-2,0-4-3C32.8,16.1,30,10,30,10z"/><radialGradient id="_sUB17~MmP7w9X5jaIWgRe" cx="680.663" cy="6.902" r="11.146" gradientTransform="matrix(-1 0 0 .4866 688 3.544)" gradientUnits="userSpaceOnUse"><stop offset=".094" stop-color="#ef9a9a"/><stop offset=".134" stop-color="#f1a2a3"/><stop offset=".28" stop-color="#f9babd"/><stop offset=".411" stop-color="#fdc8cc"/><stop offset=".514" stop-color="#ffcdd2"/></radialGradient><path fill="url(#_sUB17~MmP7w9X5jaIWgRe)" d="M20,9c0,0-3-4-6-4S9,7,7,7S4,6,3,6C1,6,0,8,0,8l2,1c0,0-1,1.2-1,3c0,5,4,6,5,7s2,3,4,3c1,0,2-1,4-4	C15.2,16.1,20,9,20,9z"/><radialGradient id="_sUB17~MmP7w9X5jaIWgRf" cx="678.488" cy="12.841" r="12.461" gradientTransform="matrix(-1 0 0 .789 688 2.71)" gradientUnits="userSpaceOnUse"><stop offset=".486" stop-color="#ffcdd2" stop-opacity="0"/><stop offset=".589" stop-color="#fdc8cc" stop-opacity=".244"/><stop offset=".72" stop-color="#f9babd" stop-opacity=".556"/><stop offset=".866" stop-color="#f1a2a3" stop-opacity=".903"/><stop offset=".906" stop-color="#ef9a9a"/></radialGradient><path fill="url(#_sUB17~MmP7w9X5jaIWgRf)" d="M20,9c0,0-3-4-6-4S9,7,7,7S4,6,3,6C1,6,0,8,0,8l2,1c0,0-1,1.2-1,3c0,5,4,6,5,7s2,3,4,3c1,0,2-1,4-4	C15.2,16.1,20,9,20,9z"/><radialGradient id="_sUB17~MmP7w9X5jaIWgRg" cx="674.562" cy="12.012" r="9.609" fx="675.259" fy="13.16" gradientTransform="matrix(-.9606 -.278 -.3616 1.2494 665.745 184.563)" gradientUnits="userSpaceOnUse"><stop offset=".16" stop-color="#d36a6a"/><stop offset=".508" stop-color="#ef9a9a"/><stop offset="1" stop-color="#ef9a9a" stop-opacity=".4"/></radialGradient><path fill="url(#_sUB17~MmP7w9X5jaIWgRg)" d="M18,10c0,0-1-3-4-3s-5,3-7,3S4,9,2,9c0,0-1,1.2-1,3c0,4,3,4,5,6s2,3,4,3c0,0,2,0,4-3C15.2,16.1,18,10,18,10z"/><linearGradient id="_sUB17~MmP7w9X5jaIWgRh" x1="678.5" x2="678.5" y1="18.229" y2="6.11" gradientTransform="matrix(-1 0 0 1 688 0)" gradientUnits="userSpaceOnUse"><stop offset=".222" stop-color="#ef9a9a" stop-opacity="0"/><stop offset=".298" stop-color="#eb9494" stop-opacity=".107"/><stop offset=".703" stop-color="#da7575" stop-opacity=".678"/><stop offset=".932" stop-color="#d36a6a"/></linearGradient><path fill="url(#_sUB17~MmP7w9X5jaIWgRh)" d="M18,10c0,0-1-3-4-3s-5,3-7,3S4,9,2,9c0,0-1,1.2-1,3c0,4,3,4,5,6s2,3,4,3c0,0,2,0,4-3C15.2,16.1,18,10,18,10z"/><radialGradient id="_sUB17~MmP7w9X5jaIWgRi" cx="24" cy="29.682" r="17.085" gradientTransform="matrix(1 0 0 1.3473 0 -13.491)" gradientUnits="userSpaceOnUse"><stop offset=".569" stop-color="#ffcdd2"/><stop offset=".681" stop-color="#fcc5c9"/><stop offset=".864" stop-color="#f5aeb0"/><stop offset="1" stop-color="#ef9a9a"/></radialGradient><path fill="url(#_sUB17~MmP7w9X5jaIWgRi)" d="M33.9,42.1l-7.7,2.5c-1.4,0.5-3,0.5-4.4,0l-7.7-2.5c-3-1-5-3.8-4.8-6.9l1-16.1C10.7,12.9,15.9,8,22.3,8h3.4	c6.3,0,11.6,4.9,12,11.1l1,16.1C38.9,38.3,36.9,41.1,33.9,42.1z"/><radialGradient id="_sUB17~MmP7w9X5jaIWgRj" cx="24.236" cy="66.381" r="2.423" gradientTransform="matrix(.8255 0 0 2.0638 3.993 -123.995)" gradientUnits="userSpaceOnUse"><stop offset="0" stop-color="#e57373" stop-opacity=".2"/><stop offset=".179" stop-color="#e67878" stop-opacity=".164"/><stop offset=".402" stop-color="#eb8788" stop-opacity=".12"/><stop offset=".649" stop-color="#f29fa1" stop-opacity=".07"/><stop offset=".912" stop-color="#fbc0c4" stop-opacity=".018"/><stop offset="1" stop-color="#ffcdd2" stop-opacity="0"/></radialGradient><ellipse cx="24" cy="13" fill="url(#_sUB17~MmP7w9X5jaIWgRj)" rx="2" ry="5"/><radialGradient id="_sUB17~MmP7w9X5jaIWgRk" cx="33.106" cy="21.927" r="4.047" gradientTransform="matrix(.7303 -.6831 .7775 .8312 -8.12 26.317)" gradientUnits="userSpaceOnUse"><stop offset=".22" stop-color="#ffebee"/><stop offset=".635" stop-color="#ffe9ec" stop-opacity=".468"/><stop offset=".811" stop-color="#ffe2e5" stop-opacity=".242"/><stop offset=".942" stop-color="#ffd5da" stop-opacity=".074"/><stop offset="1" stop-color="#ffcdd2" stop-opacity="0"/></radialGradient><path fill="url(#_sUB17~MmP7w9X5jaIWgRk)" d="M35,21c0,0,0-2.7-0.2-2.7C34.3,18.1,33.7,18,33,18c-0.5,0-1.1,0.1-1.7,0.3c-2.1,0.8-2.7,2.9-2.2,4.5	c0,0,1.8,3.1,5.8,3.1C37.3,26,35,21,35,21z"/><radialGradient id="_sUB17~MmP7w9X5jaIWgRl" cx="28.908" cy="34.424" r="2.918" fx="29.121" fy="35.726" gradientTransform="matrix(-.9122 .3492 -.302 -.7112 70.063 36.398)" gradientUnits="userSpaceOnUse"><stop offset="0" stop-color="#bcaaa4"/><stop offset=".045" stop-color="#8c7d78"/><stop offset=".114" stop-color="#493e3b"/><stop offset=".163" stop-color="#1f1615"/><stop offset=".189" stop-color="#0f0706"/><stop offset=".361" stop-color="#160d0c"/><stop offset=".494" stop-color="#201312"/><stop offset=".67" stop-color="#35201d"/><stop offset=".875" stop-color="#160d0c"/></radialGradient><path fill="url(#_sUB17~MmP7w9X5jaIWgRl)" d="M31.1,22.3c0,0-0.5-1.5,1-2.1c1.3-0.5,2.7,0.2,2.7,0.2s0.9,1.5-0.4,2.4C33.6,23.2,32,23.1,31.1,22.3z"/><radialGradient id="_sUB17~MmP7w9X5jaIWgRm" cx="662.106" cy="21.927" r="4.047" gradientTransform="matrix(-.7303 -.6831 -.7775 .8312 515.483 456.005)" gradientUnits="userSpaceOnUse"><stop offset=".22" stop-color="#ffebee"/><stop offset=".635" stop-color="#ffe9ec" stop-opacity=".468"/><stop offset=".811" stop-color="#ffe2e5" stop-opacity=".242"/><stop offset=".942" stop-color="#ffd5da" stop-opacity=".074"/><stop offset="1" stop-color="#ffcdd2" stop-opacity="0"/></radialGradient><path fill="url(#_sUB17~MmP7w9X5jaIWgRm)" d="M13,21c0,0,0-2.7,0.2-2.7c0.5-0.1,1.1-0.3,1.8-0.3c0.5,0,1.1,0.1,1.7,0.3c2.1,0.8,2.7,2.9,2.2,4.5	c0,0-1.8,3.1-5.8,3.1C10.7,26,13,21,13,21z"/><radialGradient id="_sUB17~MmP7w9X5jaIWgRn" cx="668.446" cy="34.424" r="2.918" fx="668.659" fy="35.726" gradientTransform="matrix(.9122 .3492 .302 -.7112 -605.423 -186.944)" gradientUnits="userSpaceOnUse"><stop offset="0" stop-color="#bcaaa4"/><stop offset=".045" stop-color="#8c7d78"/><stop offset=".114" stop-color="#493e3b"/><stop offset=".163" stop-color="#1f1615"/><stop offset=".189" stop-color="#0f0706"/><stop offset=".361" stop-color="#160d0c"/><stop offset=".494" stop-color="#201312"/><stop offset=".67" stop-color="#35201d"/><stop offset=".875" stop-color="#160d0c"/></radialGradient><path fill="url(#_sUB17~MmP7w9X5jaIWgRn)" d="M16.9,22.3c0,0,0.5-1.5-1-2.1c-1.3-0.5-2.7,0.2-2.7,0.2s-0.9,1.5,0.4,2.4C14.4,23.2,16,23.1,16.9,22.3z"/><path fill="#ffcdd2" d="M15,34c0,1.2,0.4,2.4,1.1,3.5s1.6,2,2.6,2.9c2,1.6,4.2,2.6,5.3,2.6s3.4-1,5.3-2.6c1-0.8,1.9-1.8,2.6-2.9 S33,35.2,33,34h-9H15z"/><path fill="#fecbcf" d="M15.2,34.1c0,0.5,0.1,0.9,0.2,1.4c0.2,0.7,0.5,1.4,0.9,2c0.7,1,1.5,2,2.5,2.8c1.9,1.6,4.1,2.5,5.2,2.5 c1.1,0,3.3-1,5.2-2.5c1-0.8,1.9-1.7,2.6-2.8c0.4-0.6,0.7-1.3,0.9-2c0.1-0.5,0.2-0.9,0.2-1.4H24H15.2z"/><path fill="#fdc8cd" d="M15.4,34.2c0,0.5,0.1,0.9,0.2,1.4c0.2,0.7,0.5,1.4,0.9,2c0.6,1,1.5,1.9,2.4,2.7c1.8,1.5,3.9,2.4,5,2.4 c1,0,3.2-0.9,5-2.4c0.9-0.7,1.9-1.7,2.6-2.7c0.4-0.6,0.7-1.3,0.9-2c0.1-0.5,0.2-0.9,0.2-1.4H24H15.4z"/><path fill="#fdc6ca" d="M15.6,34.4c0,0.4,0.1,0.9,0.2,1.3c0.2,0.7,0.5,1.3,0.9,1.9c0.6,1,1.4,1.8,2.3,2.5c1.8,1.5,3.8,2.3,4.8,2.3 c1,0,3.2-0.9,4.9-2.2c0.9-0.7,1.9-1.6,2.5-2.6c0.4-0.6,0.7-1.3,0.9-1.9c0.1-0.4,0.2-0.9,0.2-1.3H24H15.6z"/><path fill="#fcc3c7" d="M15.8,34.5c0,0.4,0.1,0.9,0.2,1.3c0.2,0.7,0.5,1.3,0.9,1.9c0.6,0.9,1.4,1.7,2.2,2.4c1.7,1.4,3.6,2.3,4.6,2.3 c0.9,0,3.1-0.8,4.7-2.1c0.9-0.7,1.8-1.6,2.5-2.6c0.4-0.6,0.7-1.2,0.9-1.9c0.1-0.4,0.2-0.9,0.2-1.3H24H15.8z"/><path fill="#fbc1c5" d="M16,34.6c0,0.4,0.1,0.9,0.2,1.3c0.2,0.6,0.6,1.3,1,1.9c0.6,0.9,1.3,1.7,2.2,2.3c1.6,1.3,3.5,2.2,4.4,2.2 c0.9,0,3-0.8,4.5-2c0.9-0.6,1.8-1.5,2.5-2.5c0.4-0.6,0.7-1.2,1-1.9c0.2-0.4,0.2-0.9,0.2-1.3h-8H16z"/><path fill="#fabec2" d="M16.1,34.7c0,0.4,0.1,0.8,0.3,1.3c0.2,0.6,0.6,1.2,1,1.8c0.6,0.8,1.3,1.6,2.1,2.2c1.6,1.3,3.3,2.1,4.3,2.1 c0.8,0,3-0.7,4.4-1.9c0.9-0.6,1.8-1.4,2.5-2.4c0.4-0.6,0.7-1.2,1-1.8c0.2-0.4,0.3-0.9,0.3-1.3H24H16.1z"/><path fill="#fabcbf" d="M16.3,34.8c0,0.4,0.1,0.8,0.3,1.2c0.2,0.6,0.6,1.2,1,1.8c0.6,0.8,1.2,1.5,2,2.1c1.5,1.2,3.2,2,4.1,2 c0.8,0,2.9-0.7,4.2-1.8c0.8-0.5,1.8-1.4,2.5-2.4c0.4-0.6,0.7-1.2,1-1.8c0.2-0.4,0.3-0.8,0.3-1.2H24H16.3z"/><path fill="#f9babd" d="M16.5,35c0,0.4,0.1,0.8,0.3,1.2c0.2,0.6,0.6,1.2,1,1.7c0.5,0.7,1.2,1.4,1.9,2c1.4,1.2,3.1,1.9,3.9,1.9 c0.7,0,2.9-0.6,4.1-1.6c0.8-0.5,1.8-1.3,2.5-2.3c0.4-0.5,0.8-1.1,1-1.7c0.2-0.4,0.3-0.8,0.3-1.2H24H16.5z"/><path fill="#f8b7ba" d="M16.7,35.1c0,0.4,0.1,0.8,0.3,1.2c0.2,0.6,0.6,1.1,1,1.7c0.5,0.7,1.2,1.4,1.8,1.9c1.4,1.1,2.9,1.8,3.7,1.8 c0.6,0,2.8-0.6,3.9-1.5c0.8-0.5,1.8-1.3,2.5-2.2c0.4-0.5,0.8-1.1,1-1.7c0.2-0.4,0.3-0.8,0.3-1.2H24H16.7z"/><path fill="#f7b5b7" d="M16.9,35.2c0,0.4,0.1,0.7,0.3,1.2c0.2,0.5,0.6,1.1,1,1.6c0.5,0.7,1.1,1.3,1.8,1.8c1.3,1,2.8,1.7,3.5,1.7 c0.6,0,2.7-0.5,3.8-1.4c0.8-0.4,1.7-1.2,2.5-2.1c0.4-0.5,0.8-1.1,1-1.6c0.2-0.4,0.3-0.8,0.3-1.2H24H16.9z"/><path fill="#f7b2b5" d="M17.1,35.3c0,0.3,0.1,0.7,0.3,1.1c0.3,0.5,0.6,1.1,1,1.6c0.5,0.6,1.1,1.2,1.7,1.7c1.2,1,2.6,1.6,3.3,1.6 c0.5,0,2.7-0.5,3.6-1.2c0.8-0.4,1.7-1.2,2.5-2.1c0.4-0.5,0.8-1,1-1.6c0.2-0.4,0.3-0.8,0.3-1.1H24H17.1z"/><path fill="#f6b0b2" d="M17.3,35.4c0,0.3,0.1,0.7,0.3,1.1c0.3,0.5,0.6,1,1,1.5c0.5,0.6,1,1.1,1.6,1.6c1.2,0.9,2.5,1.5,3.2,1.5 c0.5,0,2.6-0.4,3.4-1.1c0.7-0.3,1.7-1.1,2.5-2c0.4-0.5,0.8-1,1-1.5c0.2-0.4,0.3-0.8,0.3-1.1H24H17.3z"/><path fill="#f5adaf" d="M17.5,35.5c0,0.3,0.1,0.7,0.4,1.1c0.3,0.5,0.6,1,1,1.5c0.4,0.5,1,1.1,1.5,1.5c1.1,0.9,2.3,1.4,3,1.4 c0.4,0,2.5-0.4,3.3-1c0.7-0.3,1.7-1.1,2.5-1.9c0.4-0.5,0.8-1,1-1.5c0.2-0.4,0.4-0.8,0.4-1.1H24H17.5z"/><path fill="#f4abad" d="M17.7,35.7c0,0.3,0.2,0.7,0.4,1c0.3,0.5,0.6,1,1,1.4c0.4,0.5,0.9,1,1.4,1.4c1.1,0.8,2.2,1.3,2.8,1.3 c0.4,0,2.5-0.3,3.1-0.9c0.7-0.3,1.7-1,2.5-1.8c0.4-0.5,0.8-1,1-1.4c0.2-0.4,0.4-0.8,0.4-1H24H17.7z"/><path fill="#f4a9aa" d="M17.9,35.8c0,0.3,0.2,0.6,0.4,1c0.3,0.5,0.6,0.9,1.1,1.4c0.4,0.5,0.9,0.9,1.4,1.3c1,0.8,2,1.2,2.6,1.2 c0.3,0,2.4-0.3,3-0.8c0.7-0.2,1.7-0.9,2.5-1.8c0.4-0.4,0.8-0.9,1.1-1.4c0.2-0.4,0.4-0.7,0.4-1H24H17.9z"/><path fill="#f3a6a7" d="M18,35.9c0,0.3,0.2,0.6,0.4,1c0.3,0.4,0.7,0.9,1.1,1.3c0.4,0.4,0.8,0.8,1.3,1.2c0.9,0.7,1.9,1.1,2.4,1.1 c0.3,0,2.3-0.2,2.8-0.6c0.7-0.2,1.6-0.9,2.4-1.7c0.4-0.4,0.8-0.9,1.1-1.3c0.2-0.4,0.4-0.7,0.4-1h-6H18z"/><path fill="#f2a4a5" d="M18.2,36c0,0.3,0.2,0.6,0.4,1c0.3,0.4,0.7,0.9,1.1,1.3c0.4,0.4,0.8,0.8,1.2,1.1c0.9,0.6,1.7,1.1,2.3,1.1 c0.2,0,2.3-0.2,2.6-0.5c0.6-0.2,1.6-0.8,2.4-1.6c0.4-0.4,0.8-0.9,1.1-1.3c0.2-0.4,0.4-0.7,0.4-1H24H18.2z"/><path fill="#f1a1a2" d="M18.4,36.1c0,0.2,0.2,0.6,0.4,0.9c0.3,0.4,0.7,0.8,1.1,1.2c0.3,0.3,0.7,0.7,1.1,1c0.8,0.6,1.6,1,2.1,1 c0.2,0,2.2-0.1,2.5-0.4c0.6-0.1,1.6-0.8,2.4-1.6c0.4-0.4,0.8-0.8,1.1-1.2c0.3-0.4,0.4-0.7,0.4-0.9H24H18.4z"/><path fill="#f19f9f" d="M18.6,36.3c0,0.2,0.2,0.6,0.4,0.9c0.3,0.4,0.7,0.8,1.1,1.2c0.3,0.3,0.7,0.6,1,0.9c0.7,0.5,1.5,0.9,1.9,0.9 c0.1,0,2.1-0.1,2.3-0.2c0.6-0.1,1.6-0.7,2.4-1.5c0.4-0.4,0.8-0.8,1.1-1.2c0.3-0.4,0.4-0.7,0.4-0.9H24H18.6z"/><path fill="#f09c9d" d="M18.8,36.4c0,0.2,0.2,0.5,0.5,0.9c0.3,0.4,0.7,0.8,1.1,1.1c0.3,0.3,0.6,0.5,1,0.8C22,39.6,22.6,40,23,40 c0.1,0,2.1,0,2.2-0.1c0.6,0,1.6-0.7,2.4-1.4c0.4-0.4,0.8-0.8,1.1-1.1c0.3-0.4,0.5-0.7,0.5-0.9H24H18.8z"/><path fill="#ef9a9a" d="M19,36.5c0,0.2,0.2,0.5,0.5,0.9s0.7,0.7,1.1,1.1c0.9,0.7,1.9,1.3,2.4,1.3h2c0.5,0,1.5-0.6,2.4-1.3 c0.4-0.4,0.8-0.7,1.1-1.1s0.5-0.7,0.5-0.9h-5H19z"/><radialGradient id="_sUB17~MmP7w9X5jaIWgRo" cx="24.067" cy="28.114" r="10.674" fx="24.104" fy="23.083" gradientTransform="matrix(1 0 0 1.3716 0 -10.447)" gradientUnits="userSpaceOnUse"><stop offset=".472" stop-color="#ffcdd2" stop-opacity="0"/><stop offset=".665" stop-color="#ffd3d8" stop-opacity=".366"/><stop offset=".933" stop-color="#ffe5e9" stop-opacity=".873"/><stop offset="1" stop-color="#ffebee"/></radialGradient><path fill="url(#_sUB17~MmP7w9X5jaIWgRo)" d="M24,19c-3.9,0-9,11.1-9,15c0,2,3,5,5,5s4-1,4-1s2,1,4,1s5-3,5-5C33,30.1,27.9,19,24,19z"/><radialGradient id="_sUB17~MmP7w9X5jaIWgRp" cx="67.669" cy="8.28" r="7.33" fx="67.679" fy="10.611" gradientTransform="matrix(1.1667 0 0 1.2688 -55 25.63)" gradientUnits="userSpaceOnUse"><stop offset=".068" stop-color="#e57373"/><stop offset=".569" stop-color="#ed9292"/><stop offset=".695" stop-color="#ef9a9a"/><stop offset=".772" stop-color="#f4a6a8"/><stop offset=".901" stop-color="#ffc0c9"/><stop offset=".932" stop-color="#fdbdc5"/><stop offset=".964" stop-color="#f9b4b9"/><stop offset=".986" stop-color="#f4abab"/></radialGradient><path fill="url(#_sUB17~MmP7w9X5jaIWgRp)" d="M31,34.2c0,2.9-3.1,4.8-7,4.8s-7-1.9-7-4.8s3.1-7.2,7-7.2S31,31.3,31,34.2z"/><radialGradient id="_sUB17~MmP7w9X5jaIWgRq" cx="67.663" cy="5.22" r="6.506" fx="67.698" fy="3.296" gradientTransform="matrix(1.1667 0 0 1.0361 -55 27.055)" gradientUnits="userSpaceOnUse"><stop offset=".661" stop-color="#ef9a9a" stop-opacity="0"/><stop offset=".745" stop-color="#ec9393" stop-opacity=".247"/><stop offset=".864" stop-color="#e28181" stop-opacity=".598"/><stop offset="1" stop-color="#d36363"/></radialGradient><path fill="url(#_sUB17~MmP7w9X5jaIWgRq)" d="M31,34.2c0,2.9-3.1,4.8-7,4.8s-7-1.9-7-4.8s3.1-7.2,7-7.2S31,31.3,31,34.2z"/><radialGradient id="_sUB17~MmP7w9X5jaIWgRr" cx="637.002" cy="-307.006" r=".967" fx="637.002" fy="-307.654" gradientTransform="matrix(.01585 -.9999 1.0297 .01632 333.017 674.939)" gradientUnits="userSpaceOnUse"><stop offset=".566" stop-color="#2b1916"/><stop offset=".664" stop-color="#331f1b"/><stop offset=".819" stop-color="#4a312a"/><stop offset="1" stop-color="#6d4c41"/></radialGradient><circle cx="27" cy="33" r="1" fill="url(#_sUB17~MmP7w9X5jaIWgRr)"/><radialGradient id="_sUB17~MmP7w9X5jaIWgRs" cx="21.002" cy="-307.006" r=".967" fx="21.002" fy="-307.654" gradientTransform="matrix(-.01585 -.9999 -1.0297 .01632 -294.78 59.016)" gradientUnits="userSpaceOnUse"><stop offset=".566" stop-color="#2b1916"/><stop offset=".664" stop-color="#331f1b"/><stop offset=".819" stop-color="#4a312a"/><stop offset="1" stop-color="#6d4c41"/></radialGradient><circle cx="21" cy="33" r="1" fill="url(#_sUB17~MmP7w9X5jaIWgRs)"/></svg>