<svg xmlns="http://www.w3.org/2000/svg"  viewBox="0 0 64 64" width="100px" height="100px"><g id="_23-Pills" data-name="23-Pills"><path d="M27,53,17,63,3,49l7-7,2-13.34a4,4,0,0,1,1.17-2.83L17,22l3-3s3,4,0,7l-3,3V49a4,4,0,0,0,4,4Z" style="fill:#ffcdbe"/><polygon points="25 53 16 62 17 63 27 53 25 53" style="fill:#faa68e"/><rect x="37" y="1" width="20" height="52" rx="4" style="fill:#cdd2e1"/><path d="M39,49V5a4,4,0,0,1,4-4H41a4,4,0,0,0-4,4V49a4,4,0,0,0,4,4h2A4,4,0,0,1,39,49Z" style="fill:#bec3d2"/><path d="M37,5V49a4,4,0,0,1-4,4H21a4,4,0,0,1-4-4V29l3-3c3-3,0-7,0-7l-3,3V5a4,4,0,0,1,4-4H33A4,4,0,0,1,37,5Z" style="fill:#e9edf5"/><path d="M19,51V31l3-3c3-3,0-7,0-7l-.782.782A4.429,4.429,0,0,1,20,26l-3,3V49a3.993,3.993,0,0,0,2.359,3.641A3.984,3.984,0,0,1,19,51Z" style="fill:#dce1eb"/><path d="M19,7a4,4,0,0,1,4-4H35a3.984,3.984,0,0,1,1.641.359A3.993,3.993,0,0,0,33,1H21a4,4,0,0,0-4,4V22l2-2Z" style="fill:#dce1eb"/><path d="M30,6a3,3,0,0,1,0,6H27V6Z" style="fill:#ffc247"/><path d="M32.12,9.12A2.993,2.993,0,0,1,30,10H27v2h3a2.973,2.973,0,0,0,2.816-4A3,3,0,0,1,32.12,9.12Z" style="fill:#ffa426"/><path d="M27,6v6H24a3,3,0,0,1,0-6Z" style="fill:#ff475a"/><path d="M21.184,8A2.944,2.944,0,0,0,21,9a3,3,0,0,0,3,3h3V10H24A2.987,2.987,0,0,1,21.184,8Z" style="fill:#f03049"/><path d="M30,18a3,3,0,0,1,0,6H27V18Z" style="fill:#ffc247"/><path d="M32.12,21.12A2.993,2.993,0,0,1,30,22H27v2h3a2.973,2.973,0,0,0,2.816-4A3,3,0,0,1,32.12,21.12Z" style="fill:#ffa426"/><path d="M27,18v6H24a3,3,0,0,1,0-6Z" style="fill:#ff475a"/><path d="M21.184,20A2.944,2.944,0,0,0,21,21a3,3,0,0,0,3,3h3V22H24A2.987,2.987,0,0,1,21.184,20Z" style="fill:#f03049"/><path d="M30,30a3,3,0,0,1,0,6H27V30Z" style="fill:#ffc247"/><path d="M32.12,33.12A2.993,2.993,0,0,1,30,34H27v2h3a2.973,2.973,0,0,0,2.816-4A3,3,0,0,1,32.12,33.12Z" style="fill:#ffa426"/><path d="M27,30v6H24a3,3,0,0,1,0-6Z" style="fill:#ff475a"/><path d="M21.184,32A2.944,2.944,0,0,0,21,33a3,3,0,0,0,3,3h3V34H24A2.987,2.987,0,0,1,21.184,32Z" style="fill:#f03049"/><path d="M30,42a3,3,0,0,1,0,6H27V42Z" style="fill:#ffc247"/><path d="M32.12,45.12A2.993,2.993,0,0,1,30,46H27v2h3a2.973,2.973,0,0,0,2.816-4A3,3,0,0,1,32.12,45.12Z" style="fill:#ffa426"/><path d="M27,42v6H24a3,3,0,0,1,0-6Z" style="fill:#ff475a"/><path d="M21.184,44A2.944,2.944,0,0,0,21,45a3,3,0,0,0,3,3h3V46H24A2.987,2.987,0,0,1,21.184,44Z" style="fill:#f03049"/><path d="M18,26l-3,3V49a4,4,0,0,0,4,4h2a4,4,0,0,1-4-4V29l3-3c3-3,0-7,0-7l-1.277,1.277A4.857,4.857,0,0,1,18,26Z" style="fill:#faa68e"/><path d="M50,6a3,3,0,0,1,0,6H47V6Z" style="fill:#ffc247"/><path d="M52.12,9.12A2.993,2.993,0,0,1,50,10H47v2h3a2.973,2.973,0,0,0,2.816-4A3,3,0,0,1,52.12,9.12Z" style="fill:#ffa426"/><path d="M47,6v6H44a3,3,0,0,1,0-6Z" style="fill:#ff475a"/><path d="M41.184,8A2.944,2.944,0,0,0,41,9a3,3,0,0,0,3,3h3V10H44A2.987,2.987,0,0,1,41.184,8Z" style="fill:#f03049"/><path d="M50,18a3,3,0,0,1,0,6H47V18Z" style="fill:#ffc247"/><path d="M52.12,21.12A2.993,2.993,0,0,1,50,22H47v2h3a2.973,2.973,0,0,0,2.816-4A3,3,0,0,1,52.12,21.12Z" style="fill:#ffa426"/><path d="M47,18v6H44a3,3,0,0,1,0-6Z" style="fill:#ff475a"/><path d="M41.184,20A2.944,2.944,0,0,0,41,21a3,3,0,0,0,3,3h3V22H44A2.987,2.987,0,0,1,41.184,20Z" style="fill:#f03049"/><path d="M50,30a3,3,0,0,1,0,6H47V30Z" style="fill:#ffc247"/><path d="M52.12,33.12A2.993,2.993,0,0,1,50,34H47v2h3a2.973,2.973,0,0,0,2.816-4A3,3,0,0,1,52.12,33.12Z" style="fill:#ffa426"/><path d="M47,30v6H44a3,3,0,0,1,0-6Z" style="fill:#ff475a"/><path d="M41.184,32A2.944,2.944,0,0,0,41,33a3,3,0,0,0,3,3h3V34H44A2.987,2.987,0,0,1,41.184,32Z" style="fill:#f03049"/><path d="M50,42a3,3,0,0,1,0,6H47V42Z" style="fill:#ffc247"/><path d="M52.12,45.12A2.993,2.993,0,0,1,50,46H47v2h3a2.973,2.973,0,0,0,2.816-4A3,3,0,0,1,52.12,45.12Z" style="fill:#ffa426"/><path d="M47,42v6H44a3,3,0,0,1,0-6Z" style="fill:#ff475a"/><path d="M41.184,44A2.944,2.944,0,0,0,41,45a3,3,0,0,0,3,3h3V46H44A2.987,2.987,0,0,1,41.184,44Z" style="fill:#f03049"/><path d="M17,64a1,1,0,0,1-.707-.293l-14-14a1,1,0,0,1,0-1.414L9.06,41.526,11,28.579a4.967,4.967,0,0,1,1.464-3.458L16,21.586V5a5.006,5.006,0,0,1,5-5H33a5.006,5.006,0,0,1,5,5V49a5.006,5.006,0,0,1-5,5H27.414l-9.707,9.707A1,1,0,0,1,17,64ZM4.414,49,17,61.586,24.586,54H21a5.006,5.006,0,0,1-5-5V29a1,1,0,0,1,.293-.707l3-3a3.928,3.928,0,0,0,.5-4.675l-5.918,5.917A2.98,2.98,0,0,0,13,28.657a1.056,1.056,0,0,1-.011.149l-2,13.342a1,1,0,0,1-.282.559ZM18,29.414V49a3,3,0,0,0,3,3H33a3,3,0,0,0,3-3V5a3,3,0,0,0-3-3H21a3,3,0,0,0-3,3V19.586l1.293-1.293a.978.978,0,0,1,.778-.29,1,1,0,0,1,.729.4c1.218,1.623,2.765,5.449-.093,8.307Z"/><path d="M30,13H24a4,4,0,0,1,0-8h6a4,4,0,0,1,0,8ZM24,7a2,2,0,0,0,0,4h6a2,2,0,0,0,0-4Z"/><rect x="26" y="6" width="2" height="6"/><path d="M30,25H24V23h6a2,2,0,0,0,0-4H24V17h6a4,4,0,0,1,0,8Z"/><rect x="26" y="18" width="2" height="6"/><path d="M30,37H24a4,4,0,0,1,0-8h6a4,4,0,0,1,0,8Zm-6-6a2,2,0,0,0,0,4h6a2,2,0,0,0,0-4Z"/><rect x="26" y="30" width="2" height="6"/><path d="M30,49H24a4,4,0,0,1,0-8h6a4,4,0,0,1,0,8Zm-6-6a2,2,0,0,0,0,4h6a2,2,0,0,0,0-4Z"/><rect x="26" y="42" width="2" height="6"/><path d="M50,13H44a4,4,0,0,1,0-8h6a4,4,0,0,1,0,8ZM44,7a2,2,0,0,0,0,4h6a2,2,0,0,0,0-4Z"/><rect x="46" y="6" width="2" height="6"/><path d="M50,25H44a4,4,0,0,1,0-8h6a4,4,0,0,1,0,8Zm-6-6a2,2,0,0,0,0,4h6a2,2,0,0,0,0-4Z"/><rect x="46" y="18" width="2" height="6"/><path d="M50,37H44a4,4,0,0,1,0-8h6a4,4,0,0,1,0,8Zm-6-6a2,2,0,0,0,0,4h6a2,2,0,0,0,0-4Z"/><rect x="46" y="30" width="2" height="6"/><path d="M50,49H44a4,4,0,0,1,0-8h6a4,4,0,0,1,0,8Zm-6-6a2,2,0,0,0,0,4h6a2,2,0,0,0,0-4Z"/><rect x="46" y="42" width="2" height="6"/><path d="M53,54H41a5.006,5.006,0,0,1-5-5V5a5.006,5.006,0,0,1,5-5H53a5.006,5.006,0,0,1,5,5V49A5.006,5.006,0,0,1,53,54ZM41,2a3,3,0,0,0-3,3V49a3,3,0,0,0,3,3H53a3,3,0,0,0,3-3V5a3,3,0,0,0-3-3Z"/></g></svg>