<svg xmlns="http://www.w3.org/2000/svg"  viewBox="0 0 80 80" width="100px" height="100px"><path fill="#f5ce85" d="M25.4,77.5c-5.8,0-11.2-2.3-15.6-6.8C5,65.9,2.5,60.6,2.5,55c0-7.2,4.1-14.9,12.1-22.9 c9.5-9.5,20.1-14.1,33-14.2l14.9,13.8c-0.2,14-4.7,24.9-14.1,34.3C40.9,73.5,32.9,77.5,25.4,77.5C25.4,77.5,25.4,77.5,25.4,77.5z"/><path fill="#967a44" d="M47.4,18.4L62,31.8c-0.3,13.8-4.7,24.5-13.9,33.7C40.6,73,32.8,77,25.4,77c-5.6,0-10.9-2.3-15.2-6.6 C5.4,65.6,3,60.5,3,55C3,48,7,40.4,14.9,32.5C24.3,23.1,34.7,18.6,47.4,18.4 M47.8,17.3c-10.7,0.1-22.3,3.1-33.6,14.4 C-2.4,48.3-0.1,61.5,9.4,71.1c4.4,4.4,9.9,6.9,16,6.9c7.2,0,15.2-3.5,23.4-11.7C60.4,54.6,62.9,41.9,63,31.4L47.8,17.3L47.8,17.3z"/><path fill="#967a44" d="M23.9 77.5C23.9 77.5 23.9 77.5 23.9 77.5c-.3 0-.5-.3-.5-.5.2-2.8 0-4.7-.8-5.4-1.7-1.7-9.1-.3-11.8.4-.3.1-.5-.1-.6-.4-.1-.3.1-.5.4-.6 1.1-.3 10.3-2.5 12.7-.2 1 1 1.3 3.1 1.1 6.2C24.4 77.3 24.2 77.5 23.9 77.5zM9.6 71.1c0 0-.1 0-.1 0-.3-.1-.4-.4-.3-.6.8-2.7 2.5-10 .8-11.7-.8-.8-3.7-1-7.1-.6-.3 0-.5-.2-.6-.4 0-.3.2-.5.4-.6 1.5-.2 6.4-.6 7.9.9 2.4 2.4-.3 11.6-.6 12.7C10 70.9 9.8 71.1 9.6 71.1zM34.4 71.6c0 0-.1 0-.1 0-.3-.1-.4-.3-.4-.6.6-2.4 1.8-9.2.1-10.8-1.7-1.7-8.4-.5-10.8.1-.3.1-.5-.1-.6-.4-.1-.3.1-.5.4-.6 1-.2 9.4-2.2 11.8.1 2.4 2.4.4 10.8.1 11.8C34.8 71.4 34.6 71.6 34.4 71.6zM21.6 58.9c0 0-.1 0-.1 0-.3-.1-.4-.3-.4-.6.6-2.4 1.8-9.2.1-10.8-1.7-1.7-8.4-.5-10.8.1-.3.1-.5-.1-.6-.4-.1-.3.1-.5.4-.6 1-.2 9.4-2.2 11.8.1 2.4 2.4.4 10.8.1 11.8C22.1 58.7 21.9 58.9 21.6 58.9zM45.7 60.3c0 0-.1 0-.1 0-.3-.1-.4-.3-.4-.6.6-2.4 1.8-9.2.1-10.8-1.7-1.7-8.4-.5-10.8.1-.3.1-.5-.1-.6-.4-.1-.3.1-.5.4-.6 1-.2 9.4-2.2 11.8.1 2.4 2.4.4 10.8.1 11.8C46.1 60.1 45.9 60.3 45.7 60.3z"/><path fill="#967a44" d="M45.7 60.3c-.2 0-.4-.1-.5-.3-.1-.3.1-.5.3-.6.3-.1 6.3-2.1 9.3-1.9.3 0 .5.3.5.5 0 .3-.2.5-.5.5-2.8-.2-8.8 1.8-8.9 1.9C45.8 60.3 45.7 60.3 45.7 60.3zM21.6 36.2c-.1 0-.1 0-.2 0-.3-.1-.4-.4-.3-.6 1.2-3.3 2.5-8.4 1.5-9.4-.2-.2-.2-.5 0-.7.2-.2.5-.2.7 0 1.8 1.8-.8 9-1.3 10.4C22 36.1 21.8 36.2 21.6 36.2zM34.3 71.6c-.2 0-.4-.1-.5-.3-.1-.3 0-.5.3-.6.8-.3 7.5-2.9 10-1.2.2.2.3.5.1.7-.2.2-.5.3-.7.1-1.8-1.2-7.2.6-9.1 1.3C34.5 71.6 34.4 71.6 34.3 71.6zM10.3 47.6c0 0-.1 0-.2 0-.3-.1-.4-.4-.3-.6 1.2-3.7 2.3-9.3 1.3-10.3-.2-.2-.2-.5 0-.7.2-.2.5-.2.7 0 1.8 1.8-.6 9.7-1.1 11.3C10.7 47.4 10.5 47.6 10.3 47.6z"/><path fill="#967a44" d="M32.9 47.6c0 0-.1 0-.1 0-.3-.1-.4-.3-.4-.6.6-2.4 1.8-9.2.1-10.8-1.7-1.7-8.4-.5-10.8.1-.3.1-.5-.1-.6-.4-.1-.3.1-.5.4-.6 1-.2 9.4-2.2 11.8.1 2.4 2.4.4 10.8.1 11.8C33.4 47.4 33.2 47.6 32.9 47.6zM57 49c0 0-.1 0-.1 0-.3-.1-.4-.3-.4-.6.6-2.4 1.8-9.2.1-10.8-1.7-1.7-8.4-.5-10.8.1-.3.1-.5-.1-.6-.4-.1-.3.1-.5.4-.6 1-.2 9.4-2.2 11.8.1 2.4 2.4.4 10.8.1 11.8C57.4 48.8 57.2 49 57 49zM44.3 36.2c0 0-.1 0-.1 0-.3-.1-.4-.3-.4-.6.6-2.4 1.8-9.2.1-10.8-1.7-1.7-8.4-.5-10.8.1-.3.1-.5-.1-.6-.4-.1-.3.1-.5.4-.6 1-.2 9.4-2.2 11.8.1 2.4 2.4.4 10.8.1 11.8C44.7 36.1 44.5 36.2 44.3 36.2zM36.1 75.2c-.2 0-.5-.2-.5-.4l0-.2c-.1-.9-.2-1.8-.8-2.4-1.8-1.6-8.4-.5-10.9.1-.3.1-.5-.1-.6-.4-.1-.3.1-.5.4-.6.9-.2 9.3-2.1 11.8.1.9.8 1 2 1.1 3l0 .2C36.6 74.9 36.4 75.2 36.1 75.2 36.1 75.2 36.1 75.2 36.1 75.2zM9.6 58.2c0 0-.1 0-.1 0-.3-.1-.4-.3-.4-.6.6-2.4 1.8-9.2.1-10.8C8.8 46.3 7 45.9 5 45.9c-.3 0-.5-.2-.5-.5s.2-.5.5-.5c.7 0 4 .2 4.9 1.1 2.4 2.4.4 10.8.1 11.8C10 58 9.8 58.2 9.6 58.2zM22.3 70.9c0 0-.1 0-.1 0-.3-.1-.4-.3-.4-.6.6-2.4 1.8-9.2.1-10.8-1.7-1.7-8.4-.5-10.8.1-.3.1-.5-.1-.6-.4-.1-.3.1-.5.4-.6 1-.2 9.4-2.2 11.8.1 2.4 2.4.4 10.8.1 11.8C22.8 70.7 22.6 70.9 22.3 70.9zM45.7 68.1c0 0-.1 0-.1 0-.3-.1-.4-.3-.4-.6.9-3.9.9-6.6.1-7.4C44 58.9 38.4 60 35.2 61c-.3.1-.5-.1-.6-.3-.1-.3.1-.5.3-.6.9-.3 9-2.7 11.1-.6 1.1 1.1 1.2 3.9.2 8.3C46.1 68 45.9 68.1 45.7 68.1z"/><path fill="#967a44" d="M20.9 46.9c0 0-.1 0-.1 0-.3-.1-.4-.4-.3-.6 1-3.2 2.1-8.8.8-10.1-1-1-4.7-.7-9.5.7-.3.1-.5-.1-.6-.3-.1-.3.1-.5.3-.6 3.2-.9 8.8-2.1 10.5-.4 2.1 2.1-.3 10.2-.6 11.1C21.3 46.7 21.1 46.9 20.9 46.9zM33.6 59.6c0 0-.1 0-.1 0-.3-.1-.4-.3-.4-.6.6-2.4 1.8-9.2.1-10.8-1.7-1.7-8.4-.5-10.8.1-.3.1-.5-.1-.6-.4-.1-.3.1-.5.4-.6 1-.2 9.4-2.2 11.8.1 2.4 2.4.4 10.8.1 11.8C34.1 59.4 33.9 59.6 33.6 59.6zM58.3 52.3C58.3 52.3 58.3 52.3 58.3 52.3c-.3 0-.5-.2-.5-.5 0-1.1-.7-2.5-1.1-3-1.3-1.3-6.9-.2-10.1.8-.3.1-.5-.1-.6-.3-.1-.3.1-.5.3-.6.9-.3 9-2.7 11.1-.6.6.6 1.5 2.2 1.4 3.7C58.8 52.1 58.5 52.3 58.3 52.3zM32.2 35.5c0 0-.1 0-.1 0-.3-.1-.4-.4-.3-.6 1-3.2 2.1-8.8.8-10.1-1-1-4.5-1-7.2-.4-.3.1-.5-.1-.6-.4-.1-.3.1-.5.4-.6 2.5-.5 6.7-.8 8.2.6 2.1 2.1-.3 10.2-.6 11.1C32.6 35.4 32.4 35.5 32.2 35.5zM45 48.3c0 0-.1 0-.1 0-.3-.1-.4-.3-.4-.6.6-2.4 1.8-9.2.1-10.8-1.7-1.7-8.4-.5-10.8.1-.3.1-.5-.1-.6-.4-.1-.3.1-.5.4-.6 1-.2 9.4-2.2 11.8.1 2.4 2.4.4 10.8.1 11.8C45.4 48.1 45.2 48.3 45 48.3zM56.3 37c0 0-.1 0-.1 0-.3-.1-.4-.3-.4-.6.6-2.4 1.8-9.2.1-10.8-1.7-1.7-8.4-.5-10.8.1-.3.1-.5-.1-.6-.4-.1-.3.1-.5.4-.6 1-.2 9.4-2.2 11.8.1 2.4 2.4.4 10.8.1 11.8C56.7 36.8 56.5 37 56.3 37zM57.7 38.4c-.2 0-.4-.2-.5-.4-.1-.3.1-.5.4-.6.1 0 1.8-.4 4-.7.3 0 .5.2.6.4 0 .3-.2.5-.4.6-2.1.3-3.9.7-3.9.7C57.8 38.4 57.7 38.4 57.7 38.4zM43.5 24.2c0 0-.1 0-.1 0-.3-.1-.4-.3-.4-.6 0 0 .6-2.6.9-5.2 0-.3.3-.5.5-.5.3 0 .5.3.5.5-.3 2.7-.9 5.3-.9 5.4C44 24.1 43.8 24.2 43.5 24.2z"/><path fill="#bae0bd" d="M59.4,20.3l-0.8-5.2c4.3-2.7,11.1-6.7,12.8-6.7c0.1,0,0.1,0,0.1,0c0.3,0.9-3.2,7.3-6.7,12.9 L59.4,20.3z"/><path fill="#5e9c76" d="M71,9c-0.5,1.9-3.4,7.2-6.3,11.7l-4.8-0.9l-0.7-4.6C63.2,12.8,68.9,9.6,71,9 M71.5,7.9 c-2.6,0-13.4,6.9-13.4,6.9l0.9,5.9l6.2,1.1c0,0,8-12.6,6.8-13.8C71.8,8,71.7,7.9,71.5,7.9L71.5,7.9z"/><g><path fill="#bae0bd" d="M51.7,21c0.8-4.5,3.1-15.4,5-18.3C59.3,6,62.6,16.9,62.6,17l0.1,0.3l0.3,0.1c0.1,0,11,3.3,14.3,5.8 c-2.9,1.8-14,4-18.6,4.8L51.7,21z"/><path fill="#5e9c76" d="M56.8,3.7c2,3.1,4.4,10.5,5.3,13.5l0.2,0.5l0.5,0.2c2.9,0.9,10.3,3.3,13.5,5.3 c-3.2,1.5-11.8,3.4-17.5,4.3l-6.5-6.6C53.3,15.3,55.2,6.8,56.8,3.7 M56.8,2c-2.6,2.6-5.6,19.2-5.6,19.2l7.2,7.4 c0,0,17.1-2.9,19.6-5.3c-2.7-2.7-14.9-6.3-14.9-6.3S59.4,4.7,56.8,2L56.8,2z"/></g><g><path fill="#bae0bd" d="M44.9,17.3c0.2-1.5,1.2-10,3.9-13.3c3.5,4.2,7.8,18.8,7.9,18.9l0.1,0.3l0.3,0.1c0.2,0,15,4.6,19,7.8 c-3.2,2.7-11.4,4.4-13,4.8L44.9,17.3z"/><path fill="#5e9c76" d="M48.8,4.9c2.8,3.9,6.2,14.3,7.4,18.3l0.2,0.5l0.5,0.2c4,1.2,14.5,4.7,18.3,7.4 c-2.9,2-9.1,3.6-12,4.2L45.4,17.2C45.8,14.3,46.8,7.9,48.8,4.9 M48.8,3.3c-3.3,3.3-4.4,14.2-4.4,14.2l18.4,19c0,0,10.6-2,13.9-5.3 c-3.4-3.4-19.6-8.3-19.6-8.3S52.5,7,48.8,3.3L48.8,3.3z"/></g></svg>