<svg xmlns="http://www.w3.org/2000/svg"  viewBox="0 0 256 256" width="100px" height="100px" clip-rule="evenodd"><path fill="#ed6e7a" d="M197.902,112.568v6.637c-4.578-1.43-9.441-2.203-14.491-2.203c-5.05,0-9.913,0.772-14.491,2.203v-6.637 c0-5.028,4.07-9.098,9.091-9.098h10.8C193.832,103.47,197.902,107.539,197.902,112.568z"/><path fill="#3a312a" d="M197.902,120.705c-0.15,0-0.301-0.022-0.447-0.068c-9.066-2.833-19.022-2.833-28.087,0 c-0.456,0.142-0.952,0.06-1.336-0.223c-0.384-0.283-0.611-0.731-0.611-1.209v-6.638c0-5.844,4.751-10.598,10.591-10.598h10.8 c5.84,0,10.591,4.754,10.591,10.598v6.638c0,0.477-0.227,0.926-0.611,1.209C198.53,120.606,198.218,120.705,197.902,120.705z M183.411,115.502c4.409,0,8.769,0.573,12.991,1.706v-4.641c0-4.189-3.405-7.598-7.591-7.598h-10.8 c-4.186,0-7.591,3.408-7.591,7.598v4.641C174.643,116.075,179.002,115.502,183.411,115.502z"/><path fill="#87796f" d="M177.804,66.423v37.048h11.215V22.118c0-3.097-2.511-5.608-5.608-5.608c-3.097,0-5.608,2.511-5.608,5.608 v30.354V66.423z"/><path fill="#3a312a" d="M189.019,104.971h-11.215c-0.829,0-1.5-0.671-1.5-1.5V66.423c0-0.829,0.671-1.5,1.5-1.5s1.5,0.671,1.5,1.5 v35.548h8.215V22.118c0-2.265-1.843-4.108-4.108-4.108c-2.265,0-4.107,1.843-4.107,4.108v30.354c0,0.829-0.671,1.5-1.5,1.5 s-1.5-0.671-1.5-1.5V22.118c0-3.92,3.188-7.108,7.107-7.108c3.92,0,7.108,3.188,7.108,7.108v81.354 C190.519,104.3,189.848,104.971,189.019,104.971z"/><path fill="#ed6e7a" d="M132.658,165.615h101.506c2.871,0,5.198,2.327,5.198,5.198l0,0c0,2.87-2.327,5.198-5.198,5.198H132.658 c-2.871,0-5.198-2.327-5.198-5.198l0,0C127.461,167.942,129.788,165.615,132.658,165.615z"/><path fill="#3a312a" d="M234.164,177.51H132.658c-3.693,0-6.697-3.004-6.697-6.697c0-3.693,3.004-6.698,6.697-6.698h101.506 c3.693,0,6.698,3.004,6.698,6.698C240.862,174.505,237.857,177.51,234.164,177.51z M132.658,167.115 c-2.039,0-3.697,1.659-3.697,3.698c0,2.039,1.659,3.697,3.697,3.697h101.506c2.039,0,3.698-1.659,3.698-3.697 c0-2.039-1.659-3.698-3.698-3.698H132.658z"/><path fill="#8ac5dc" d="M134.799,165.615h97.225l0,0c0-26.848-21.765-48.613-48.613-48.613h0 C156.563,117.002,134.799,138.767,134.799,165.615L134.799,165.615z"/><path fill="#3a312a" d="M232.024,167.115h-97.225c-0.829,0-1.5-0.671-1.5-1.5c0-27.632,22.48-50.113,50.112-50.113 c27.632,0,50.113,22.48,50.113,50.113C233.524,166.443,232.852,167.115,232.024,167.115z M136.322,164.115H230.5 c-0.796-25.286-21.614-45.613-47.089-45.613C157.936,118.502,137.118,138.829,136.322,164.115z"/><path fill="#6ca8bf" d="M230.497,164.11h-15c-0.71-22.75-17.64-41.49-39.59-45.01c2.44-0.4,4.95-0.6,7.5-0.6 C208.887,118.5,229.707,138.83,230.497,164.11z"/><path fill="#d4d853" d="M225.838,203.035c0,0,3.41,12.659,13.229,13.246c0,0-13.107,4.525-13.328,14.202 c0,0-2.58-13.572-12.932-14.059C212.807,216.424,224.864,214.599,225.838,203.035z"/><path fill="#3a312a" d="M225.738,231.982c-0.713,0-1.336-0.506-1.472-1.217c-0.024-0.124-2.496-12.417-11.529-12.842 c-0.77-0.037-1.388-0.651-1.428-1.421c-0.04-0.771,0.511-1.445,1.273-1.561c0.441-0.069,10.901-1.817,11.761-12.033 c0.061-0.725,0.634-1.301,1.359-1.367c0.718-0.068,1.393,0.398,1.583,1.101c0.032,0.116,3.261,11.626,11.871,12.141 c0.714,0.043,1.298,0.584,1.396,1.292c0.098,0.709-0.319,1.388-0.995,1.623c-0.121,0.042-12.124,4.31-12.319,12.819 c-0.018,0.767-0.61,1.395-1.374,1.46C225.822,231.981,225.779,231.982,225.738,231.982z M217.992,216.253 c3.88,1.97,6.234,5.748,7.591,8.878c2.027-4.022,5.945-6.788,8.954-8.428c-4.137-1.843-6.788-5.653-8.339-8.724 C224.405,212.339,220.925,214.848,217.992,216.253z"/><path fill="#d4d853" d="M204.128,220.015c0,0,2.412,8.954,9.357,9.369c0,0-9.271,3.201-9.427,10.045c0,0-1.825-9.6-9.147-9.944 C194.911,229.486,203.439,228.194,204.128,220.015z"/><path fill="#3a312a" d="M204.057,240.93c-0.713,0-1.336-0.507-1.472-1.22c-0.016-0.082-1.705-8.442-7.744-8.726 c-0.77-0.037-1.388-0.651-1.428-1.421c-0.04-0.771,0.511-1.445,1.273-1.561c0.296-0.047,7.368-1.243,7.947-8.114 c0.061-0.726,0.635-1.303,1.36-1.368c0.725-0.067,1.391,0.399,1.582,1.102l0,0c0.021,0.079,2.229,7.919,7.998,8.264 c0.715,0.043,1.299,0.585,1.396,1.294c0.098,0.709-0.32,1.388-0.996,1.622c-0.081,0.028-8.287,2.953-8.417,8.662 c-0.018,0.767-0.611,1.397-1.376,1.461C204.14,240.929,204.098,240.93,204.057,240.93z M199.535,229.402 c2.109,1.333,3.525,3.395,4.45,5.281c1.377-2.233,3.517-3.873,5.368-4.974c-2.289-1.27-3.887-3.351-4.944-5.225 C203.235,226.772,201.392,228.361,199.535,229.402z"/><path fill="#d4d853" d="M204.128,193.357c0,0,2.412,8.954,9.357,9.37c0,0-9.271,3.201-9.427,10.046c0,0-1.825-9.6-9.147-9.944 C194.911,202.828,203.439,201.537,204.128,193.357z"/><path fill="#3a312a" d="M204.057,214.273c-0.713,0-1.336-0.507-1.472-1.22c-0.016-0.082-1.705-8.442-7.744-8.726 c-0.77-0.037-1.388-0.651-1.428-1.421c-0.04-0.77,0.511-1.445,1.273-1.561c0.296-0.047,7.368-1.243,7.947-8.114 c0.061-0.726,0.635-1.303,1.36-1.368c0.725-0.065,1.391,0.399,1.582,1.102l0,0c0.021,0.079,2.229,7.919,7.998,8.265 c0.715,0.043,1.299,0.584,1.396,1.293c0.098,0.71-0.32,1.388-0.996,1.622c-0.081,0.028-8.287,2.953-8.417,8.662 c-0.018,0.767-0.611,1.397-1.376,1.461C204.14,214.271,204.098,214.273,204.057,214.273z M199.535,202.745 c2.108,1.333,3.525,3.395,4.45,5.281c1.377-2.233,3.518-3.873,5.368-4.974c-2.289-1.27-3.887-3.351-4.944-5.225 C203.235,200.114,201.392,201.704,199.535,202.745z"/><circle cx="120.306" cy="52.01" r="35.5" fill="#87796f"/><path fill="#3a312a" d="M120.306,89.01c-20.402,0-37-16.598-37-37c0-20.402,16.598-37,37-37c20.402,0,37,16.598,37,37 C157.306,72.412,140.707,89.01,120.306,89.01z M120.306,18.01c-18.748,0-34,15.252-34,34c0,18.747,15.252,34,34,34 c18.747,0,34-15.253,34-34C154.306,33.262,139.053,18.01,120.306,18.01z"/><path fill="#fae6ca" fill-rule="evenodd" d="M43.037,109.983c0,6.424-5.21,11.631-11.638,11.631c-6.427,0-11.637-5.207-11.637-11.631 c0-6.424,5.21-11.632,11.637-11.632C37.827,98.352,43.037,103.559,43.037,109.983z" clip-rule="evenodd"/><path fill="#3a312a" d="M31.4,123.115c-7.244,0-13.137-5.891-13.137-13.131S24.156,96.852,31.4,96.852 c7.244,0,13.138,5.891,13.138,13.132S38.644,123.115,31.4,123.115z M31.4,99.852c-5.59,0-10.137,4.545-10.137,10.132 c0,5.586,4.547,10.131,10.137,10.131s10.138-4.545,10.138-10.131C41.538,104.397,36.99,99.852,31.4,99.852z"/><path fill="#fae6ca" fill-rule="evenodd" d="M144.612,109.983c0,6.424-5.21,11.631-11.637,11.631c-6.427,0-11.638-5.207-11.638-11.631 c0-6.424,5.21-11.632,11.638-11.632C139.402,98.352,144.612,103.559,144.612,109.983z" clip-rule="evenodd"/><path fill="#3a312a" d="M132.975,123.115c-7.244,0-13.138-5.891-13.138-13.131s5.894-13.132,13.138-13.132 c7.244,0,13.137,5.891,13.137,13.132S140.218,123.115,132.975,123.115z M132.975,99.852c-5.59,0-10.138,4.545-10.138,10.132 c0,5.586,4.548,10.131,10.138,10.131c5.59,0,10.137-4.545,10.137-10.131C143.112,104.397,138.564,99.852,132.975,99.852z"/><path fill="#fae6ca" d="M133.777,104.337c0,28.478-27.44,72.189-51.59,72.189c-23.051,0-51.59-43.711-51.59-72.189 s23.098-51.563,51.59-51.563C110.68,52.774,133.777,75.86,133.777,104.337z"/><path fill="#3a312a" d="M82.187,178.026c-11.055,0-24.391-9.743-35.673-26.062c-10.743-15.539-17.417-33.789-17.417-47.627 c0-29.259,23.816-53.063,53.09-53.063s53.09,23.804,53.09,53.063c0,13.995-6.514,32.241-17,47.619 C106.98,168.523,93.826,178.026,82.187,178.026z M82.187,54.274c-27.62,0-50.09,22.458-50.09,50.063 c0,13.261,6.47,30.856,16.885,45.921c10.722,15.509,23.135,24.768,33.205,24.768c10.475,0,23.04-9.256,33.612-24.76 c10.164-14.906,16.478-32.505,16.478-45.929C132.277,76.732,109.807,54.274,82.187,54.274z"/><path fill="#3a312a" d="M69.008,103.755c0,2.78-2.254,5.033-5.035,5.033c-2.781,0-5.035-2.253-5.035-5.033 c0-2.779,2.254-5.033,5.035-5.033C66.754,98.722,69.008,100.976,69.008,103.755z"/><path fill="#3a312a" d="M105.437,103.755c0,2.78-2.254,5.033-5.035,5.033c-2.781,0-5.035-2.253-5.035-5.033 c0-2.779,2.254-5.033,5.035-5.033C103.182,98.722,105.437,100.976,105.437,103.755z"/><path fill="#f59689" d="M62.583,118.718c0,3.579-3.883,6.481-8.674,6.481c-4.791,0-8.674-2.902-8.674-6.481 c0-3.58,3.884-6.481,8.674-6.481C58.7,112.237,62.583,115.138,62.583,118.718z"/><path fill="#f59689" d="M119.139,118.718c0,3.579-3.883,6.481-8.674,6.481c-4.791,0-8.674-2.902-8.674-6.481 c0-3.58,3.884-6.481,8.674-6.481C115.256,112.237,119.139,115.138,119.139,118.718z"/><path fill="#3a312a" d="M82.187,147.662c-7.285,0-12.536-3.271-15.609-9.723c-0.356-0.748-0.039-1.643,0.709-1.999 c0.748-0.357,1.643-0.038,1.999,0.709c2.568,5.392,6.788,8.013,12.901,8.013c7.825,0,11.828-5.164,12.851-7.895 c0.292-0.776,1.158-1.169,1.931-0.878c0.776,0.291,1.169,1.155,0.878,1.931C96.071,142.561,90.412,147.662,82.187,147.662z"/><path fill="#87796f" d="M141.633,85.439c0,5.283-0.688,10.404-1.987,15.279c-13.214-6.367-25.783-14.184-37.428-23.021 c-3.416-2.588-6.779-5.283-9.991-8.139c-3.943-3.457-7.67-7.183-11.033-11.221c-7.316-8.805-12.687-18.919-17.231-29.453 c5.737-1.858,11.86-2.856,18.22-2.856c17.006,0,32.347,7.14,43.186,18.586C135.456,55.256,141.633,69.623,141.633,85.439z"/><path fill="#3a312a" d="M139.645,102.218c-0.223,0-0.445-0.05-0.651-0.149c-12.981-6.255-25.66-14.053-37.684-23.177 c-3.831-2.902-7.129-5.589-10.08-8.212c-4.205-3.687-7.972-7.519-11.19-11.382c-6.517-7.843-12.063-17.318-17.456-29.818 c-0.167-0.388-0.163-0.828,0.011-1.213c0.174-0.385,0.502-0.678,0.904-0.809c6.002-1.943,12.288-2.929,18.682-2.929 c16.915,0,32.639,6.767,44.275,19.055c10.753,11.343,16.675,26.207,16.675,41.855c0,5.323-0.686,10.594-2.038,15.665 c-0.115,0.432-0.417,0.79-0.823,0.977C140.073,102.172,139.859,102.218,139.645,102.218z M66.008,29.824 c5.065,11.474,10.278,20.261,16.339,27.555c3.117,3.742,6.774,7.461,10.868,11.051c2.9,2.578,6.138,5.216,9.908,8.071 c11.353,8.615,23.292,16.029,35.515,22.057c0.992-4.271,1.495-8.675,1.495-13.12c0-14.876-5.63-29.007-15.853-39.791 c-11.065-11.684-26.015-18.119-42.098-18.119C76.663,27.529,71.23,28.3,66.008,29.824z"/><path fill="#87796f" d="M125.368,44.615c-10.227,9.32-21.357,17.566-33.142,24.943c-20.895,13.089-43.809,23.418-67.261,32.019 c-1.45-5.132-2.224-10.544-2.224-16.138c0-26.457,17.307-48.877,41.22-56.554c5.737-1.858,11.86-2.856,18.22-2.856 C99.188,26.029,114.529,33.169,125.368,44.615z"/><path fill="#3a312a" d="M24.965,103.077c-0.235,0-0.469-0.055-0.682-0.164c-0.372-0.19-0.648-0.526-0.761-0.928 c-1.514-5.355-2.281-10.922-2.281-16.546c0-26.566,16.984-49.867,42.262-57.982c5.999-1.942,12.285-2.928,18.679-2.928 c16.915,0,32.639,6.767,44.275,19.055c0.277,0.293,0.424,0.684,0.41,1.086c-0.015,0.402-0.191,0.782-0.489,1.054 c-9.829,8.957-21.051,17.403-33.356,25.105c-19.139,11.989-41.231,22.507-67.541,32.155 C25.314,103.046,25.14,103.077,24.965,103.077z M82.182,27.529c-6.08,0-12.055,0.936-17.758,2.783 c-24.036,7.716-40.183,29.87-40.183,55.127c0,4.801,0.588,9.557,1.749,14.162c25.435-9.42,46.854-19.671,65.44-31.313 c11.676-7.309,22.359-15.29,31.779-23.742C112.261,33.559,97.752,27.529,82.182,27.529z"/><path fill="#f8e4c8" d="M147.734,239.48v-26.79c0-16.32-13.24-29.56-29.58-29.56h-19.54v-12.56c-5.41,3.75-11,5.96-16.43,5.96 c-5.32,0-10.93-2.33-16.41-6.26v12.86h-19.55c-16.33,0-29.57,13.24-29.57,29.56v26.79H147.734z"/><path fill="#3a312a" d="M147.733,240.98H16.654c-0.829,0-1.5-0.671-1.5-1.5v-26.79c0-17.126,13.938-31.06,31.07-31.06h18.05v-11.36 c0-0.563,0.314-1.078,0.815-1.334c0.499-0.256,1.102-0.212,1.559,0.116c5.532,3.967,10.759,5.979,15.536,5.979 c4.886,0,10.126-1.915,15.576-5.692c0.46-0.318,1.057-0.355,1.55-0.096c0.495,0.259,0.804,0.771,0.804,1.329v11.06h18.04 c17.137,0,31.08,13.934,31.08,31.06v26.79C149.233,240.309,148.562,240.98,147.733,240.98z M18.154,237.98h128.08v-25.29 c0-15.472-12.597-28.06-28.08-28.06h-19.54c-0.829,0-1.5-0.671-1.5-1.5v-9.796c-5.137,3.118-10.149,4.696-14.93,4.696 c-4.705,0-9.71-1.66-14.91-4.94v10.04c0,0.829-0.671,1.5-1.5,1.5h-19.55c-15.478,0-28.07,12.588-28.07,28.06V237.98z"/><path fill="#d7e057" d="M147.718,212.69v26.8H16.638v-26.8c0-14.44,10.35-26.46,24.05-29.04c1.79-0.34,3.64-0.52,5.53-0.52h5.26 l-0.11,0.08l20.32,26.95l10.49-7.91l10.49,7.91l20.32-26.95l-0.11-0.08h5.27c1.89,0,3.75,0.18,5.54,0.53 C137.368,186.24,147.718,198.25,147.718,212.69z"/><path fill="#3a312a" d="M147.718,240.99H16.638c-0.829,0-1.5-0.671-1.5-1.5v-26.8c0-14.923,10.629-27.756,25.272-30.514 c1.908-0.362,3.862-0.546,5.808-0.546h5.26c0.65,0,1.226,0.418,1.427,1.037c0.015,0.046,0.028,0.094,0.038,0.141l19.04,25.251 l9.292-7.007c0.535-0.403,1.271-0.403,1.807,0l9.293,7.007l19.04-25.253c0.01-0.048,0.023-0.095,0.039-0.142 c0.201-0.617,0.777-1.035,1.426-1.035h5.27c1.974,0,3.934,0.188,5.828,0.558c14.621,2.758,25.242,15.586,25.242,30.502v26.8 C149.218,240.319,148.547,240.99,147.718,240.99z M18.138,237.99h128.08v-25.3c0-13.474-9.592-25.063-22.808-27.556 c-1.714-0.335-3.481-0.504-5.262-0.504h-4.352l-19.93,26.433c-0.24,0.318-0.595,0.527-0.989,0.583 c-0.398,0.055-0.795-0.048-1.112-0.288l-9.587-7.23l-9.586,7.23c-0.318,0.24-0.715,0.343-1.112,0.288 c-0.394-0.055-0.75-0.265-0.989-0.583L50.56,184.63h-4.342c-1.758,0-3.524,0.166-5.25,0.494 c-13.229,2.492-22.83,14.084-22.83,27.566V237.99z"/><rect width="13.186" height="33.749" x="60.209" y="175.841" fill="#87796f" transform="rotate(-36.989 66.796 192.7)"/><path fill="#3a312a" d="M71.697,211.655c-0.455,0-0.904-0.206-1.199-0.597l-20.319-26.947c-0.24-0.318-0.343-0.718-0.288-1.112 c0.055-0.394,0.265-0.75,0.583-0.99l10.532-7.934c0.66-0.498,1.601-0.366,2.1,0.295l20.319,26.947 c0.24,0.318,0.343,0.718,0.288,1.112c-0.055,0.394-0.265,0.75-0.583,0.99l-10.532,7.934 C72.328,211.557,72.011,211.655,71.697,211.655z M53.478,183.504l18.513,24.551l8.136-6.129l-18.513-24.551L53.478,183.504z"/><rect width="13.186" height="33.749" x="90.975" y="175.841" fill="#87796f" transform="scale(-1) rotate(36.989 576.112 -291.675)"/><path fill="#3a312a" d="M92.674,211.655c-0.314,0-0.631-0.098-0.901-0.302L81.24,203.42c-0.318-0.24-0.528-0.596-0.583-0.99 c-0.056-0.394,0.048-0.794,0.288-1.111l20.318-26.947c0.499-0.661,1.44-0.793,2.1-0.295l10.532,7.934 c0.318,0.24,0.528,0.596,0.583,0.99c0.056,0.394-0.048,0.794-0.288,1.112l-20.318,26.947 C93.578,211.449,93.128,211.655,92.674,211.655z M84.244,201.926l8.136,6.129l18.512-24.551l-8.136-6.129L84.244,201.926z"/><path fill="#8ac5dc" d="M65.778,217.36h-14.59v-34.23h-4.97c-1.89,0-3.74,0.18-5.53,0.52v55.84h83v-55.83 c-1.79-0.35-3.65-0.53-5.54-0.53h-4.96v34.23h-33.94H65.778z"/><path fill="#3a312a" d="M123.688,240.99h-83c-0.829,0-1.5-0.671-1.5-1.5v-55.84c0-0.721,0.512-1.339,1.22-1.474 c1.91-0.363,3.864-0.546,5.81-0.546h4.97c0.829,0,1.5,0.671,1.5,1.5v32.73h13.09c0.829,0,1.5,0.671,1.5,1.5 c0,0.829-0.671,1.5-1.5,1.5h-14.59c-0.829,0-1.5-0.671-1.5-1.5v-32.73h-3.47c-1.346,0-2.696,0.097-4.03,0.29v53.07h80v-53.066 c-1.324-0.196-2.678-0.294-4.04-0.294h-3.46v32.73c0,0.829-0.671,1.5-1.5,1.5h-33.94c-0.829,0-1.5-0.671-1.5-1.5 c0-0.829,0.671-1.5,1.5-1.5h32.44v-32.73c0-0.829,0.671-1.5,1.5-1.5h4.96c1.974,0,3.934,0.188,5.828,0.558 c0.704,0.138,1.212,0.755,1.212,1.472v55.83C125.188,240.319,124.517,240.99,123.688,240.99z"/></svg>