<svg xmlns="http://www.w3.org/2000/svg"  viewBox="0 0 64 64" width="100px" height="100px">
  
  <title>Politics icon</title>
<desc>Politics icon for website, application, printing, document, poster design, etc.</desc>
<metadata><?xpacket begin="﻿" id="W5M0MpCehiHzreSzNTczkc9d"?>
<x:xmpmeta xmlns:x="adobe:ns:meta/" x:xmptk="Adobe XMP Core 5.6-c148 79.163858, 2019/03/06-03:18:36        ">
   <rdf:RDF xmlns:rdf="http://www.w3.org/1999/02/22-rdf-syntax-ns#">
      <rdf:Description rdf:about=""
            xmlns:dc="http://purl.org/dc/elements/1.1/">
         <dc:title>
            <rdf:Alt>
               <rdf:li xml:lang="x-default">Politics icon</rdf:li>
            </rdf:Alt>
         </dc:title>
         <dc:description>
            <rdf:Alt>
               <rdf:li xml:lang="x-default">Politics icon for website, application, printing, document, poster design, etc.</rdf:li>
            </rdf:Alt>
         </dc:description>
         <dc:subject>
            <rdf:Bag>
               <rdf:li xml:lang="x-default">Politics</rdf:li>
               <rdf:li>speech</rdf:li>
               <rdf:li>candidate</rdf:li>
               <rdf:li>policy</rdf:li>
               <rdf:li>government</rdf:li>
            </rdf:Bag>
         </dc:subject>
      </rdf:Description>
   </rdf:RDF>
</x:xmpmeta>
                                                                                                    
                                                                                                    
                                                                                                    
                                                                                                    
                                                                                                    
                                                                                                    
                                                                                                    
                                                                                                    
                                                                                                    
                                                                                                    
                                                                                                    
                                                                                                    
                                                                                                    
                                                                                                    
                                                                                                    
                                                                                                    
                                                                                                    
                                                                                                    
                                                                                                    
                                                                                                    
                           
<?xpacket end="w"?></metadata>
<g id="Flat">
    <g id="Color_copy" data-name="Color copy">
      <g>
        <path d="M16,33V30.414l2.707-2.707a1,1,0,0,0-1.414-1.414l-3,3A1,1,0,0,0,14,30v3a1,1,0,0,0,2,0Z" style="fill: #a7325c"/>
        <rect x="11" y="39" width="42" height="22" style="fill: #3aba80"/>
        <rect x="7" y="33" width="50" height="6" style="fill: #80e1b8"/>
        <g>
          <rect x="31" y="15" width="6" height="4" style="fill: #f06e7a"/>
          <path d="M34,17h0a5,5,0,0,1-5-5V7H39v5A5,5,0,0,1,34,17Z" style="fill: #ffc569"/>
          <path d="M28,17H41a4,4,0,0,1,4,4V33a0,0,0,0,1,0,0H28a0,0,0,0,1,0,0V17A0,0,0,0,1,28,17Z" style="fill: #68cbf2"/>
          <path d="M33,22V17H28V33H45V30H41A8,8,0,0,1,33,22Z" style="fill: #34b2e4"/>
          <polygon points="35 20 33 20 32 28 34 30 36 28 35 20" style="fill: #80e1b8"/>
          <path d="M20.828,17l-5-5A1.994,1.994,0,0,0,13,12L13,12a1.994,1.994,0,0,0,0,2.82l5.59,5.59A2,2,0,0,0,20,21h8V17Z" style="fill: #34b2e4"/>
          <path d="M17.41,13.59l-2.82,2.82L13,14.82A1.994,1.994,0,0,1,13,12h0a1.994,1.994,0,0,1,2.82,0Z" style="fill: #ffc569"/>
          <path d="M41,22h0a0,0,0,0,1,0,0V33a0,0,0,0,1,0,0H39a0,0,0,0,1,0,0V24A2,2,0,0,1,41,22Z" style="fill: #34b2e4"/>
          <path d="M31,12a3,3,0,0,1,3-3h5V7H29v5a5,5,0,0,0,6,4.9A5,5,0,0,1,31,12Z" style="fill: #f06e7a"/>
          <path d="M33.351,24.2v0a1.459,1.459,0,0,1,1.039-1.245,1.977,1.977,0,0,0,.709-.375,2.176,2.176,0,0,0,.2-.2L35,20H33l-1,8,2,2,1-1h0A5.778,5.778,0,0,1,33.351,24.2Z" style="fill: #3aba80"/>
          <path d="M32,17h4a0,0,0,0,1,0,0v2a2,2,0,0,1-2,2h0a2,2,0,0,1-2-2V17A0,0,0,0,1,32,17Z" style="fill: #80e1b8"/>
          <path d="M34,19a2,2,0,0,1,2-2H32v2a1.988,1.988,0,0,0,3,1.723A1.994,1.994,0,0,1,34,19Z" style="fill: #3aba80"/>
          <path d="M25,3H35a4,4,0,0,1,4,4V7a0,0,0,0,1,0,0H29a4,4,0,0,1-4-4V3a0,0,0,0,1,0,0Z" style="fill: #92e5eb"/>
          <path d="M30,5a3.982,3.982,0,0,1-3.445-2H25a4,4,0,0,0,4,4H39a3.955,3.955,0,0,0-.555-2Z" style="fill: #34b2e4"/>
          <circle cx="31" cy="11" r="1" style="fill: #34b2e4"/>
          <circle cx="35" cy="11" r="1" style="fill: #34b2e4"/>
        </g>
        <rect x="17.828" y="21.172" width="4" height="8" rx="2" transform="translate(23.607 -6.648) rotate(45)" style="fill: #ffc569"/>
        <path d="M22.657,23.172,19.828,26A2,2,0,0,1,17,26a1.967,1.967,0,0,1-.309-.414A2,2,0,0,0,19.828,28l2.829-2.828a2,2,0,0,0,.309-2.415A1.973,1.973,0,0,1,22.657,23.172Z" style="fill: #f06e7a"/>
        <path d="M12,33H57a0,0,0,0,1,0,0v3a0,0,0,0,1,0,0H15a3,3,0,0,1-3-3v0a0,0,0,0,1,0,0Z" style="fill: #bbf58b"/>
        <path d="M17,42H53a0,0,0,0,1,0,0V55a0,0,0,0,1,0,0H27A10,10,0,0,1,17,45V42A0,0,0,0,1,17,42Z" style="fill: #80e1b8"/>
        <rect x="18.829" y="23.172" width="2" height="4" transform="translate(-11.991 21.393) rotate(-45)" style="fill: #a7325c"/>
        <path d="M22.351,45.063a1,1,0,0,0-1.288.586L19,51.152l-2.063-5.5a1,1,0,1,0-1.874.7l3,8a1,1,0,0,0,1.874,0l3-8A1,1,0,0,0,22.351,45.063Z" style="fill: #ffc569"/>
        <path d="M28,45a4,4,0,0,0-4,4v2a4,4,0,0,0,8,0V49A4,4,0,0,0,28,45Zm2,6a2,2,0,0,1-4,0V49a2,2,0,0,1,4,0Z" style="fill: #ffc569"/>
        <path d="M40,45H34a1,1,0,0,0,0,2h2v7a1,1,0,0,0,2,0V47h2a1,1,0,0,0,0-2Z" style="fill: #ffc569"/>
        <path d="M48,51a1,1,0,0,0,0-2H45V47h3a1,1,0,0,0,0-2H44a1,1,0,0,0-1,1v8a1,1,0,0,0,1,1h4a1,1,0,0,0,0-2H45V51Z" style="fill: #ffc569"/>
        <path d="M19.042,51.039,19,51.152l-.128-.341a9.928,9.928,0,0,1-1.824-4.865l-.111-.3a1,1,0,1,0-1.874.7l3,8a1,1,0,0,0,1.874,0l.635-1.7A10.1,10.1,0,0,1,19.042,51.039Z" style="fill: #f06e7a"/>
      </g>
    </g>
  </g>
</svg>