<?xml version="1.0" encoding="iso-8859-1"?>
<!-- Generator: Adobe Illustrator 19.1.1, SVG Export Plug-In . SVG Version: 6.00 Build 0)  -->
<svg xmlns="http://www.w3.org/2000/svg" xmlns:xlink="http://www.w3.org/1999/xlink" viewBox="0 0 80 80" width="100px" height="100px">
<g>
	<path style="fill:#B0C1D4;" d="M8,51.5c-3.032,0-5.5-2.467-5.5-5.5V26c0-3.033,2.468-5.5,5.5-5.5h64c3.032,0,5.5,2.467,5.5,5.5v20   c0,3.033-2.468,5.5-5.5,5.5H8z"/>
	<path style="fill:#66798F;" d="M72,21c2.757,0,5,2.243,5,5v20c0,2.757-2.243,5-5,5H8c-2.757,0-5-2.243-5-5V26c0-2.757,2.243-5,5-5   H72 M72,20H8c-3.314,0-6,2.686-6,6v20c0,3.314,2.686,6,6,6h64c3.314,0,6-2.686,6-6V26C78,22.686,75.314,20,72,20L72,20z"/>
</g>
<rect x="10" y="30" style="fill:#66798F;" width="60" height="11"/>
<rect x="14" y="16" style="fill:#66798F;" width="52" height="5"/>
<g>
	<rect x="16.5" y="2.5" style="fill:#FFFFFF;" width="47" height="18"/>
	<path style="fill:#788B9C;" d="M63,3v17H17V3H63 M64,2H16v19h48V2L64,2z"/>
</g>
<g>
	<path style="fill:#B0C1D4;" d="M9.173,67.5c-2.517,0-4.586-1.89-4.813-4.396L0.59,40.5h78.819l-3.798,22.566   C75.379,65.61,73.31,67.5,70.793,67.5H9.173z"/>
	<path style="fill:#66798F;" d="M78.818,41l-3.699,21.984l-0.006,0.038l-0.003,0.038C74.904,65.306,73.049,67,70.793,67H9.173   c-2.256,0-4.111-1.694-4.316-3.941l-0.003-0.037l-0.006-0.037L1.181,41H78.818 M80,40H0l3.861,23.15   C4.111,65.897,6.414,68,9.173,68h61.62c2.758,0,5.062-2.103,5.311-4.85L80,40L80,40z"/>
</g>
</svg>