<?xml version="1.0" encoding="utf-8"?>
<!-- Generator: Adobe Illustrator 21.0.2, SVG Export Plug-In . SVG Version: 6.00 Build 0)  -->
<svg xmlns="http://www.w3.org/2000/svg" xmlns:xlink="http://www.w3.org/1999/xlink" viewBox="0 0 80 80" width="100px" height="100px">
<g>
	<circle style="fill:#FFFFFF;" cx="9" cy="55" r="6.5"/>
	<g>
		<path style="fill:#788B9C;" d="M9,49c3.3,0,6,2.7,6,6s-2.7,6-6,6s-6-2.7-6-6S5.7,49,9,49 M9,48c-3.9,0-7,3.1-7,7s3.1,7,7,7    s7-3.1,7-7S12.9,48,9,48L9,48z"/>
	</g>
</g>
<g>
	<path style="fill:#B6C9D6;" d="M64,75.5c-3.6,0-4.9-3.3-8.5-12.1c-0.9-2.2-1.9-4.7-3.1-7.6l-0.2-0.5l-0.5,0.2   c-0.1,0.1-0.6,0.3-1.2,0.6c-0.9,0.5-2.2,1.1-2.8,1.4l-0.3,0.1V58c0,4.3-6.9,9.5-15.5,9.5v1h14c4,0,7.2,3,7.5,7H20   c-3.6,0-7.5-1.7-7.5-5.5c0-1.2,0.5-2.1,0.9-3c1-2,2.1-4.1-1-9.2c-1.8-3.6-1.9-8.8-1.9-9.7c0-11.5,11.8-17.5,23.5-17.5h8.8l0.1,0   c0,0,0.1,0,0.1,0c1.8,0,3.3-1.4,3.5-3.1c3.4-0.1,5-1.3,6.6-2.5c1.7-1.2,3.3-2.4,6.9-2.4c2.3,0,5.4,0.1,5.9,0.8   c0.2,0.4-0.2,1.2-0.7,2.2c-0.7,1.5-1.7,3.7-1.7,6.4c0,2.7-0.2,3.2-0.3,3.5c-0.2,0.6-0.2,0.8,0.3,4.6l0,1.9c0,3.2-0.6,5.7-1.9,7.7   l-0.1,0.2l0,0.2c0.5,3.7,3.9,17.5,4,18.1l0.1,0.4H66c4,0,7.2,3,7.5,7L64,75.5L64,75.5z"/>
	<g>
		<path style="fill:#788B9C;" d="M60,23c4.5,0,5.3,0.4,5.5,0.6c0.1,0.3-0.4,1.1-0.7,1.8C64,26.9,63,29.1,63,32    c0,2.6-0.2,3.1-0.3,3.3c-0.2,0.7-0.3,0.9,0.3,4.7V42c0,3.1-0.6,5.6-1.8,7.5L61,49.8l0,0.4c0.5,3.7,3.9,17.5,4,18.1l0.2,0.8H66    c3.6,0,6.5,2.6,6.9,6H64c-3.1,0-4.3-2.6-8-11.8c-0.9-2.2-1.9-4.7-3.1-7.6l-0.4-0.9l-0.9,0.4c-0.1,0.1-0.6,0.3-1.2,0.6    c-0.9,0.5-2.2,1.1-2.8,1.4L47,57.4V58c0,4.1-6.9,9-15,9v2h14c3.6,0,6.5,2.6,6.9,6H20c-3.4,0-7-1.6-7-5c0-1.1,0.4-1.9,0.9-2.8    c1-2,2.2-4.3-1-9.7C11.5,54.8,11,50.7,11,48c0-11.2,11.6-17,23-17h8.7c0,0,0.1,0,0.1,0c0,0,0.1,0,0.1,0c1.9,0,3.5-1.4,3.9-3.2    c3.2-0.2,5-1.4,6.5-2.5C55,24.1,56.5,23,60,23 M60,22c-7.5,0-6.9,4.9-14,4.9c0,0,0,0,0,0.1c0,0,0,0.1,0,0.1c0,1.7-1.3,3-3,3    c-0.1,0-0.1,0-0.2,0c0,0-0.1,0-0.1,0H34c-12.7,0-24,6.8-24,18c0,2.3,0.4,6.8,2,10c4.4,7.3,0,8,0,12c0,4,3.9,6,8,6h34    c0-4.5-3.5-8-8-8H32c8.8,0,16-5.4,16-10c1.1-0.5,3.7-1.8,4-2c6.1,14.6,7.1,20,12,20h10c0-4.5-3.5-8-8-8c0,0-3.5-14.3-4-18    c0.8-1.3,2-3.6,2-8c0-1,0-0.8,0-2c-0.9-6.8,0-1.8,0-8C64,24.5,71.6,22,60,22L60,22z"/>
	</g>
</g>
<g>
	<path style="fill:#B6C9D6;" d="M59.8,24.6c-3.5-4.2-18-13.1-26.3-13.1c-2.7,0-4.9-1.6-4.9-3.5c0-1.8,2.6-3.5,5.5-3.5   c6.9,0,19.3,6.3,25.7,11.9C60.5,17.1,60.1,22.1,59.8,24.6z"/>
	<g>
		<path style="fill:#788B9C;" d="M34,5c6.7,0,19.1,6.3,25.3,11.7c0.5,0.7,0.3,4.2,0.1,6.7C54.7,18.7,41.1,11,33.4,11    C31,11,29,9.7,29,8C29,6.5,31.4,5,34,5 M34,4c-3,0-6,1.8-6,4s2.4,4,5.4,4C43,12,60,23.7,60,26c0,0,0,0,0,0c0.1,0,1.4-8.7,0-10    C53.8,10.6,41.2,4,34,4L34,4z"/>
	</g>
</g>
<g>
	<path style="fill:#B6C9D6;" d="M56.2,25.6c-3.6-3.6-18-10.1-26.2-10.1c-2.9,0-5.5-1.7-5.5-3.5s2.6-3.5,5.5-3.5   c7.4,0,19.9,4.8,25.7,9.9C56.5,19.1,56.4,23.4,56.2,25.6z"/>
	<g>
		<path style="fill:#788B9C;" d="M30,9c7.3,0,19.6,4.7,25.3,9.7c0.5,0.5,0.6,3.5,0.5,5.8c-2.3-1.9-6.4-3.9-8.5-4.8    C44.1,18.3,36.2,15,30,15c-2.6,0-5-1.5-5-3S27.4,9,30,9 M30,8c-3,0-6,1.8-6,4s3,4,6,4c9.5,0,26.6,8.7,26.6,11c0,0,0,0,0,0    c0,0,0.9-7.8-0.6-9C49.8,12.6,37.2,8,30,8L30,8z"/>
	</g>
</g>
<g>
	<path style="fill:#B6C9D6;" d="M59,39.5c-6.9,0-12.5-5.6-12.5-12.5S52.1,14.5,59,14.5h1c10.8,0,17.5,10.2,17.5,17.5   c0,6.4-5,7.5-15.5,7.5H59z"/>
	<path style="fill:#788B9C;" d="M60,15c10.5,0,17,9.9,17,17c0,6-4.6,7-15,7h-3c-6.6,0-12-5.4-12-12s5.4-12,12-12H60 M60,14   c-0.5,0,0,0-1,0c-7.2,0-13,5.8-13,13s5.8,13,13,13c2.5,0,0.8,0,3,0c9.8,0,16-0.8,16-8S71.4,14,60,14L60,14z"/>
</g>
<g>
	<path style="fill:#788B9C;" d="M32,68c-0.3,0-0.5-0.2-0.5-0.5S31.7,67,32,67c7.9,0,15-4.5,15-9.5c0-4.6-4.7-9.5-13.5-9.5   c-0.3,0-0.5-0.2-0.5-0.5s0.2-0.5,0.5-0.5C42.9,47,48,52.4,48,57.5C48,63.1,40.5,68,32,68z"/>
</g>
<circle style="fill:#36404D;" cx="65" cy="27" r="3"/>
<path style="fill:#788B9C;" d="M32,69L32,69c-0.5,0-1-0.4-1-1l0,0c0-0.6,0.5-1,1-1l0,0V69z"/>
</svg>