<svg xmlns="http://www.w3.org/2000/svg"  viewBox="0 0 48 48" width="100px" height="100px" clip-rule="evenodd" baseProfile="basic"><path fill-rule="evenodd" d="M15.995,25.998v-14	c0-4.416,3.584-8,8.001-8c4.416,0,8.001,3.584,8.001,8v14c0,4.417-3.585,8-8.001,8C19.579,33.998,15.995,30.415,15.995,25.998z" clip-rule="evenodd"/><path fill-rule="evenodd" d="M14.997,21.005h-3.003	c-0.552,0-1-0.448-1-1v-4.007c0-0.551,0.448-1,1-1h3.003v-0.004c0-0.551,0.448-1,1-1h16.004c0.551,0,1,0.449,1,1v0.004h3.001	c0.551,0,1,0.449,1,1v4.007c0,0.552-0.449,1-1,1h-3.003c-0.001,0.551-0.451,0.996-0.999,0.996H15.997	C15.446,22.001,14.998,21.555,14.997,21.005z" clip-rule="evenodd"/><path fill-rule="evenodd" d="M12.001,24.999l-0.003-8	c-0.001-0.552,0.447-1,0.999-1c0.552-0.001,1,0.447,1,0.999l0.004,8c0,5.519,4.48,9.997,9.999,9.997	c5.517,0,9.999-4.479,9.999-9.997v-8c0-0.551,0.448-1,1-1c0.551,0,1,0.449,1,1v8c0,6.624-5.376,11.997-11.999,11.997	C17.375,36.995,12.001,31.622,12.001,24.999z" clip-rule="evenodd"/><path fill="#fff" fill-rule="evenodd" d="M21.994,30.998v12h4.004	v-12H21.994z" clip-rule="evenodd"/><path fill-rule="evenodd" d="M20.994,42.998v-12	c0-0.551,0.448-1,1-1h4.004c0.551,0,1,0.449,1,1v12c0,0.552-0.449,1-1,1h-4.004C21.442,43.998,20.994,43.55,20.994,42.998z M24.998,41.998v-10h-2.004v10H24.998z" clip-rule="evenodd"/><path fill-rule="evenodd" d="M33.997,43.998l0.001-1.001H13.997v1	c0,1.657,1.344,3,3,3h14C32.654,46.997,33.997,45.654,33.997,43.998z" clip-rule="evenodd"/><path fill="#fff" fill-rule="evenodd" d="M32.997,42.997	l0.001-1.999H14.997v1.999c0,1.104,0.896,2,2,2h14C32.101,44.997,32.997,44.101,32.997,42.997z" clip-rule="evenodd"/><path fill-rule="evenodd" d="M13.997,42.997v-1.999	c0-0.551,0.448-1,1-1h18.001c0.552,0,1,0.449,0.999,1.001v1.999c0,1.656-1.344,2.999-3,2.999h-14	C15.339,45.997,13.997,44.654,13.997,42.997z M31.997,42.997v-0.999h-16v0.999c0,0.552,0.448,1,1,1h14	C31.547,43.997,31.997,43.549,31.997,42.997z" clip-rule="evenodd"/><path fill="#fff" fill-rule="evenodd" d="M16.995,23.998	c0-2.944,0-11.055,0-14c0-3.864,3.137-7,7.001-7s7.001,3.136,7.001,7c0,2.945,0,11.056,0,14c0,3.864-3.137,7-7.001,7	S16.995,27.862,16.995,23.998z" clip-rule="evenodd"/><path fill-rule="evenodd" d="M15.995,23.998v-14	c0-4.416,3.584-8,8.001-8c4.416,0,8.001,3.584,8.001,8v14c0,4.417-3.585,8-8.001,8C19.579,31.998,15.995,28.415,15.995,23.998z M29.998,23.998v-14c0-3.311-2.691-6-6.001-6c-3.312,0-6.001,2.689-6.001,6v14c0,3.312,2.689,6,6.001,6	C27.307,29.998,29.998,27.31,29.998,23.998z" clip-rule="evenodd"/><path fill="#fff" fill-rule="evenodd" d="M11.994,14.998v4.007	h7.004v-4.007H11.994z" clip-rule="evenodd"/><path fill-rule="evenodd" d="M10.994,19.005v-4.007	c0-0.551,0.448-1,1-1h7.004c0.551,0,1,0.449,1,1v4.007c0,0.552-0.449,1-1,1h-7.004C11.442,20.005,10.994,19.557,10.994,19.005z M17.998,18.005v-2.007h-5.004v2.007H17.998z" clip-rule="evenodd"/><path fill="#fff" fill-rule="evenodd" d="M36.002,14.998v4.007	h-7.004v-4.007H36.002z" clip-rule="evenodd"/><path fill-rule="evenodd" d="M27.998,19.005v-4.007	c0-0.551,0.448-1,1-1h7.004c0.551,0,1,0.449,1,1v4.007c0,0.552-0.449,1-1,1h-7.004C28.446,20.005,27.998,19.557,27.998,19.005z M35.002,18.005v-2.007h-5.004v2.007H35.002z" clip-rule="evenodd"/><path fill="#fff" fill-rule="evenodd" d="M15.997,13.994v6.007	h16.004v-6.007H15.997z" clip-rule="evenodd"/><path fill-rule="evenodd" d="M14.997,20.001v-6.007	c0-0.551,0.448-1,1-1h16.004c0.551,0,1,0.449,1,1v6.007c0,0.552-0.449,1-1,1H15.997C15.445,21.001,14.997,20.553,14.997,20.001z M31.001,19.001v-4.007H16.997v4.007H31.001z" clip-rule="evenodd"/><path d="M20.998,11.998c0,0.552,0.448,1,1,1c0.552,0,1-0.448,1-1c0-0.552-0.448-1-1-1	C21.446,10.998,20.998,11.446,20.998,11.998z"/><path d="M16.998,11.998c0,0.552,0.448,1,1,1c0.552,0,1-0.448,1-1c0-0.552-0.448-1-1-1	C17.446,10.998,16.998,11.446,16.998,11.998z"/><path d="M18.993,8.997c0,0.552,0.448,1,1,1s1-0.448,1-1s-0.448-1-1-1	S18.993,8.445,18.993,8.997z"/><path d="M28.998,11.998c0,0.552,0.448,1,1,1c0.552,0,1-0.448,1-1c0-0.552-0.448-1-1-1	C29.446,10.998,28.998,11.446,28.998,11.998z"/><path d="M24.998,11.998c0,0.552,0.448,1,1,1c0.552,0,1-0.448,1-1c0-0.552-0.448-1-1-1	C25.446,10.998,24.998,11.446,24.998,11.998z"/><path d="M26.993,8.997c0,0.552,0.448,1,1,1s1-0.448,1-1s-0.448-1-1-1	S26.993,8.445,26.993,8.997z"/><path d="M24.998,5.998c0-0.552,0.448-1,1-1c0.552,0,1,0.448,1,1s-0.448,1-1,1	C25.446,6.998,24.998,6.55,24.998,5.998z"/><path d="M20.998,5.998c0-0.552,0.448-1,1-1c0.552,0,1,0.448,1,1s-0.448,1-1,1	C21.446,6.998,20.998,6.55,20.998,5.998z"/><path d="M22.993,8.999c0-0.552,0.448-1,1-1s1,0.448,1,1s-0.448,1-1,1	S22.993,9.551,22.993,8.999z"/><path fill-rule="evenodd" d="M7.109,14.454	c-0.72-1.408-1.109-2.904-1.109-4.457c0-1.549,0.389-3.045,1.109-4.453c0.251-0.492,0.853-0.687,1.345-0.435	c0.492,0.251,0.687,0.853,0.435,1.345C8.299,7.606,7.999,8.793,7.999,9.997c0,1.209,0.3,2.395,0.889,3.547	c0.252,0.492,0.057,1.095-0.435,1.345C7.962,15.141,7.359,14.946,7.109,14.454z" clip-rule="evenodd"/><path fill-rule="evenodd" d="M2.074,15.379	c-0.705-1.715-1.079-3.52-1.079-5.381c0-1.86,0.373-3.665,1.079-5.38c0.209-0.509,0.795-0.755,1.305-0.544	c0.509,0.209,0.755,0.795,0.544,1.305C3.314,6.865,2.995,8.411,2.995,9.998c0,1.588,0.319,3.135,0.928,4.62	c0.211,0.511-0.035,1.096-0.544,1.305C2.869,16.134,2.283,15.889,2.074,15.379z" clip-rule="evenodd"/><path fill-rule="evenodd" d="M39.542,14.889	c-0.491-0.252-0.685-0.855-0.433-1.347c0.591-1.151,0.893-2.337,0.893-3.545c0-1.204-0.303-2.389-0.893-3.541	c-0.252-0.492-0.057-1.095,0.433-1.347c0.492-0.252,1.095-0.057,1.347,0.433c0.721,1.408,1.113,2.905,1.113,4.455	c0,1.553-0.392,3.051-1.113,4.459C40.637,14.946,40.034,15.141,39.542,14.889z" clip-rule="evenodd"/><path fill-rule="evenodd" d="M44.618,15.923	c-0.511-0.211-0.755-0.795-0.544-1.305c0.612-1.485,0.932-3.032,0.932-4.62c0-1.587-0.32-3.133-0.932-4.619	c-0.211-0.511,0.033-1.095,0.544-1.305c0.511-0.211,1.095,0.033,1.305,0.544c0.705,1.715,1.083,3.52,1.083,5.38	c0,1.861-0.377,3.667-1.083,5.381C45.713,15.89,45.129,16.134,44.618,15.923z" clip-rule="evenodd"/></svg>