<svg xmlns="http://www.w3.org/2000/svg"  viewBox="0 0 40 40" width="100px" height="100px"><rect width="2" height="33.041" x="18.714" y="-5.902" fill="#66798f" transform="rotate(69.537 19.715 10.619)"/><path fill="#ffb5d2" d="M34.5,13.993v1.933c0,0.272-0.221,0.493-0.493,0.493h-4.014c-0.272,0-0.493-0.221-0.493-0.493 v-1.933c0-0.272,0.221-0.493,0.493-0.493h4.014C34.279,13.5,34.5,13.721,34.5,13.993z"/><path fill="#ea4c89" d="M34.007,16.919h-4.014c-0.548,0-0.993-0.445-0.993-0.993v-1.933C29,13.445,29.445,13,29.993,13 h4.014C34.555,13,35,13.445,35,13.993v1.933C35,16.474,34.555,16.919,34.007,16.919z M34.007,15.919v0.5V15.919L34.007,15.919 L34.007,15.919z M34,13.993L29.993,14L30,15.926l4-0.007V13.993z"/><path fill="#c2e8ff" d="M4.5,38.5c-1.654,0-3-1.346-3-3v-17c0-1.654,1.346-3,3-3h31c1.654,0,3,1.346,3,3v17 c0,1.654-1.346,3-3,3H4.5z"/><path fill="#7496c4" d="M35.5,16c1.381,0,2.5,1.119,2.5,2.5v17c0,1.381-1.119,2.5-2.5,2.5H18H4.5C3.119,38,2,36.881,2,35.5 v-17C2,17.119,3.119,16,4.5,16H18H35.5 M35.5,15H18H4.5C2.57,15,1,16.57,1,18.5v17C1,37.43,2.57,39,4.5,39H18h17.5 c1.93,0,3.5-1.57,3.5-3.5v-17C39,16.57,37.43,15,35.5,15L35.5,15z"/><path fill="#dbf2ff" d="M10.555,35H2V19h8.555C11.905,19,13,20.095,13,21.445v11.11C13,33.905,11.905,35,10.555,35z"/><path fill="#b0c1d4" d="M35,3.5c-0.828,0-1.5,0.672-1.5,1.5s0.672,1.5,1.5,1.5s1.5-0.672,1.5-1.5S35.828,3.5,35,3.5z"/><path fill="#66798f" d="M35,7c-1.103,0-2-0.897-2-2s0.897-2,2-2s2,0.897,2,2S36.103,7,35,7z M35,4c-0.552,0-1,0.449-1,1 s0.448,1,1,1s1-0.449,1-1S35.552,4,35,4z"/><path fill="#c5d4de" d="M9,20.5c-1.381,0-2.5,1.119-2.5,2.5s1.119,2.5,2.5,2.5s2.5-1.119,2.5-2.5S10.381,20.5,9,20.5z"/><path fill="#788b9c" d="M9,26c-1.654,0-3-1.346-3-3s1.346-3,3-3s3,1.346,3,3S10.654,26,9,26z M9,21c-1.103,0-2,0.897-2,2 s0.897,2,2,2s2-0.897,2-2S10.103,21,9,21z"/><path fill="#c5d4de" d="M9,28.5c-1.381,0-2.5,1.119-2.5,2.5c0,1.381,1.119,2.5,2.5,2.5s2.5-1.119,2.5-2.5 C11.5,29.619,10.381,28.5,9,28.5z"/><path fill="#788b9c" d="M9,34c-1.654,0-3-1.346-3-3s1.346-3,3-3s3,1.346,3,3S10.654,34,9,34z M9,29c-1.103,0-2,0.897-2,2 s0.897,2,2,2s2-0.897,2-2S10.103,29,9,29z"/><path fill="#b0c1d4" d="M26,36c-5,0-9-4-9-9s4-9,9-9s9,4,9,9S31,36,26,36z"/><rect width="18" height="1" x="17" y="25" fill="#c2e8ff"/><rect width="18" height="1" x="17" y="22" fill="#c2e8ff"/><rect width="18" height="1" x="17" y="19" fill="#c2e8ff"/><rect width="18" height="1" x="17" y="28" fill="#c2e8ff"/><rect width="18" height="1" x="17" y="31" fill="#c2e8ff"/><rect width="18" height="1" x="17" y="34" fill="#c2e8ff"/></svg>