<svg xmlns="http://www.w3.org/2000/svg"  viewBox="0 0 512 512" width="100px" height="100px" clip-rule="evenodd" image-rendering="optimizeQuality" shape-rendering="geometricPrecision" text-rendering="geometricPrecision"><defs><linearGradient id="Pi5Ou6g-mKgUK4mweyAEOa" x1="253.413" x2="253.413" y1="430.958" y2="77.868" gradientUnits="userSpaceOnUse"><stop offset="0" stop-color="#4062ad"/><stop offset="1" stop-color="#5fc5e1"/></linearGradient></defs><path fill="#e6e6e6" d="M253 22c128,0 232,104 232,232 0,128 -104,232 -232,232 -128,0 -232,-104 -232,-232 0,-128 104,-232 232,-232z"/><path fill="#ccc" d="M253 26c126,0 228,102 228,228 0,126 -102,228 -228,228 -126,0 -228,-102 -228,-228 0,-126 102,-228 228,-228z"/><path fill="#e6e6e6" d="M253 23c128,0 231,104 231,231 0,128 -104,231 -231,231 -128,0 -231,-104 -231,-231 0,-128 104,-231 231,-231z"/><path fill="#fff" d="M253 31c123,0 223,100 223,223 0,123 -100,223 -223,223 -123,0 -223,-100 -223,-223 0,-123 100,-223 223,-223z"/><path fill="url(#Pi5Ou6g-mKgUK4mweyAEOa)" d="M253 78c98,0 177,79 177,177 0,98 -79,177 -177,177 -98,0 -177,-79 -177,-177 0,-98 79,-177 177,-177z"/><g><polygon fill="#fff" points="148,369 239,242 267,267"/><polygon fill="red" points="358,140 239,242 267,267"/></g><path fill="#fff" d="M272 91l7 1 -4 32 -7 -1 4 -32zm78 30l-6 -4 -18 26 6 4 18 -26zm-169 243l-6 -4 -18 26 6 4 18 -26zm129 44l-7 2 -10 -30 7 -2 10 30zm-97 -280l-7 2 -10 -30 7 -2 10 30zm199 85l-2 -7 -31 9 2 7 31 -9zm-285 81l-2 -7 -31 9 2 7 31 -9zm268 44l-4 6 -27 -17 4 -6 27 17zm-252 -155l-4 6 -27 -17 4 -6 27 17zm247 -19l-4 -6 -26 18 4 6 26 -18zm-243 170l-4 -6 -26 18 4 6 26 -18zm213 46l-6 5 -20 -25 6 -5 20 25zm-188 -229l-6 5 -20 -25 6 -5 20 25zm244 122l-1 7 -32 -4 1 -7 32 4zm-294 -38l-1 7 -32 -4 1 -7 32 4zm109 151l7 1 -4 32 -7 -1 4 -32z"/></svg>