<svg xmlns="http://www.w3.org/2000/svg"  viewBox="0 0 48 48" width="100px" height="100px"><path fill="#ff9800" d="M24,37c-5,0-5-6-5-6v-6h10v6C29,31,29,37,24,37z"/><path fill="#ffa726" d="M35,19c0,1.105-0.896,2-2,2c-1.106,0-2-0.895-2-2s0.894-2,2-2C34.104,17,35,17.895,35,19 M17,19	c0-1.105-0.896-2-2-2c-1.106,0-2,0.895-2,2s0.894,2,2,2C16.104,21,17,20.105,17,19"/><path fill="#ffb74d" d="M33,13c0-7.635-18-4.971-18,0v7c0,4.971,4.028,9,9,9c4.971,0,9-4.029,9-9V13z"/><path fill="#795548" d="M24,4c-6.075,0-10,4.926-10,11v2.286L16,19v-5l12-4l4,4v5l2-1.742V15c0-4.025-1.038-8.016-6-9l-1-2	H24z"/><path fill="#784719" d="M27,18c0-0.551,0.448-1,1-1s1,0.449,1,1s-0.448,1-1,1S27,18.551,27,18 M19,18c0,0.551,0.448,1,1,1	s1-0.449,1-1s-0.448-1-1-1S19,17.449,19,18"/><path fill="#039be5" d="M30.95,31.572C30.95,31.572,30.95,31.572,30.95,31.572c-0.006-0.003-0.012-0.004-0.018-0.007	C29.785,31.147,29,31,29,31s-1,4-5,4s-5-4-5-4s-0.311,0.057-0.821,0.201c-0.004,0.001-0.008,0.002-0.012,0.003	c-0.095,0.027-0.197,0.057-0.305,0.09c-0.015,0.004-0.029,0.009-0.044,0.014c-0.099,0.031-0.202,0.064-0.311,0.1	c-0.027,0.009-0.053,0.018-0.08,0.027c-0.101,0.034-0.204,0.07-0.312,0.109c-0.023,0.008-0.043,0.015-0.066,0.023	c0,0,0,0.001,0,0.001C13.889,32.717,8,35.939,8,44h32C40,35.966,34.109,32.731,30.95,31.572z"/><rect width="6" height="2" x="12.364" y="24.033" fill="#78909c" transform="rotate(20.401 15.362 25.03)"/><rect width="2" height="7" x="12.795" y="25.751" fill="#546e7a" transform="rotate(20.401 13.794 29.248)"/><path fill="#e0f7fa" d="M33,20c0.552,0,1-0.448,1-1s-0.448-1-1-1s-1,0.448-1,1c-0.552,0-1,0.448-1,1	c0,0.186,0.065,0.351,0.153,0.5C31.065,20.649,31,20.814,31,21c0,0.031,0.015,0.056,0.017,0.086c-0.468,0.16-0.829,0.542-0.96,1.023	C29.885,22.04,29.698,22,29.5,22c-0.184,0-0.357,0.038-0.52,0.098C28.984,22.064,29,22.035,29,22c0-0.552-0.448-1-1-1	c-0.388,0-0.715,0.228-0.881,0.551c-0.099-0.032-0.198-0.063-0.302-0.095C26.638,21.188,26.347,21,26,21	c-0.159,0-0.305,0.045-0.438,0.112c-0.577-0.137-1.132-0.233-1.556-0.233c-0.002,0-0.004,0-0.006,0s-0.004,0-0.006,0	c-0.422,0-0.976,0.099-1.551,0.237C22.308,21.047,22.162,21,22,21c-0.186,0-0.351,0.065-0.5,0.153C21.351,21.065,21.186,21,21,21	c-0.51,0-0.915,0.388-0.976,0.882c-0.363,0.184-0.643,0.495-0.762,0.891l-1.257,3.93c0.374,0.351,0.805,0.68,1.282,0.983	c0.179,0.628,0.751,1.091,1.437,1.091c0.205,0,0.399-0.042,0.577-0.116c0.392,0.138,0.815,0.253,1.253,0.353	c0.275,0.345,0.694,0.571,1.169,0.571c0.389,0,0.74-0.152,1.007-0.395c0.256,0.204,0.576,0.331,0.929,0.331	c0.607,0,1.127-0.362,1.363-0.881c0.168,0.065,0.35,0.105,0.541,0.105c0.737,0,1.348-0.533,1.473-1.234	c0.246-0.17,0.476-0.348,0.693-0.533c0.618-0.096,1.112-0.564,1.238-1.171c0.415-0.122,0.723-0.49,0.723-0.944	c0-0.017-0.009-0.031-0.01-0.047c0.489-0.066,0.871-0.467,0.871-0.974c0-0.083-0.028-0.157-0.047-0.235	C32.807,23.332,33,22.94,33,22.5c0-0.184-0.038-0.357-0.098-0.52C32.936,21.984,32.965,22,33,22c0.552,0,1-0.448,1-1	S33.552,20,33,20z M24,22.384c0.001,0,0.006-0.001,0.006-0.001v-0.001c0,0,0.031,0.004,0.074,0.01C24.233,22.749,24.587,23,25,23	c0.186,0,0.351-0.065,0.5-0.153C25.649,22.935,25.814,23,26,23c0.186,0,0.35-0.064,0.499-0.152c0.181,0.049,0.351,0.1,0.502,0.154	c0.001,0.506,0.383,0.906,0.87,0.972c0.118,0.323,0.226,0.713,0.212,1.056c-0.037,0.11-0.06,0.226-0.07,0.346	c-0.062,0.157-0.175,0.287-0.346,0.379c-0.035-0.002-0.067-0.01-0.103-0.01c-0.21,0-0.409,0.044-0.591,0.122	C26.905,25.38,26.505,25,26,25c-0.12,0-0.233,0.029-0.34,0.069c-0.363-0.35-0.81-0.68-1.655-0.68v0.001	c-0.002,0-0.003,0.001-0.005,0.001s-0.003-0.001-0.005-0.001v-0.001c-1.681,0-1.793,1.317-2.79,1.474	c-0.079-0.027-0.16-0.049-0.245-0.062C20.865,25.347,20.482,25,20,25c-0.011,0-0.02,0.006-0.031,0.006c0-0.004,0-0.008,0-0.013	C19.98,24.994,19.989,25,20,25c0.552,0,1-0.448,1-1c0-0.326-0.167-0.603-0.409-0.785c0.121-0.082,0.289-0.16,0.497-0.233	c0.141-0.013,0.269-0.054,0.387-0.119c0.012-0.003,0.023-0.006,0.035-0.01C21.657,22.938,21.818,23,22,23	c0.336,0,0.618-0.176,0.8-0.43c0.657-0.119,1.194-0.188,1.194-0.188v0.001C23.994,22.383,23.999,22.384,24,22.384z"/><path fill="#ffb74d" d="M7.86,36.318l1.713-6.985c0.121-0.495,0.525-0.87,1.027-0.954l2.111-0.355	c0.521-0.088,1.053,0.079,1.431,0.448l1.279,1.25c0.506,0.495,0.701,1.227,0.506,1.908l-0.81,2.828	c-0.19,0.661-0.998,0.908-1.524,0.464l-0.468-0.395l-0.539,1.829c-0.206,1.239-1.585,2.283-2.814,1.759L7.86,36.318z"/><path fill="#ffb74d" d="M9.628,44l2.011-7.117c0.582-1.228,0.494-2.705-0.734-3.287c-1.228-0.582-1.014-1.526-1.596-0.298	L3.667,44H9.628z"/></svg>