<svg xmlns="http://www.w3.org/2000/svg"  viewBox="0 0 512 512" width="256px" height="256px"><path fill="#2a7fb8" d="M441,86.125v369.75c0,14.439-12.54,26.141-28,26.141H256v-2.031l60-57.969l-12.49-72.461 l-10.34-59.939l-8.65-50.24h-0.01l-8.51-49.39h5v-40l3.55-3.82l36.45,33.82l39.17-120H413C428.46,59.985,441,71.685,441,86.125z"/><path fill="#3598db" d="M361.32,52.845c0,2.34-0.37,4.75-1.15,7.14l-39.17,120l-36.45-33.82l-25.479-23.64l52.09-62.54 l24.99-30h2.26C351.46,29.985,361.32,40.665,361.32,52.845z"/><polygon fill="#2a7fb8" points="336.15,29.985 311.16,59.985 259.07,122.525 204.42,59.985 178.21,29.985"/><polygon fill="#232b3f" points="303.51,349.555 316,422.016 256,479.984 196,422.016 196.48,419.205 201,419.984 301,349.984"/><polygon fill="#313a52" points="293.17,289.615 303.51,349.555 301,349.984 201,419.984 196.48,419.205 208.49,349.555 211,349.984 291,289.984"/><polygon fill="#232b3f" points="284.52,239.375 293.17,289.615 291,289.984 211,349.984 208.49,349.555 220.5,279.895 221,279.984 281,239.985 284.51,239.375"/><polygon fill="#232b3f" points="284.55,146.165 281,149.985 281,189.985 276,189.985 236,189.985 231,189.985 231,149.985 229.14,147.785 259.07,122.525"/><polygon fill="#313a52" points="276,189.985 284.51,239.375 281,239.985 221,279.984 220.5,279.895 236,189.985"/><path fill="#3598db" d="M204.42,59.985l54.65,62.54l-29.93,25.26l-38.14,32.2l-37.37-120l-0.09-0.3 c-4.59-14.74,6.42-29.7,21.86-29.7h2.81L204.42,59.985z"/><path fill="#2a7fb8" d="M256,479.984v2.031H99c-15.46,0-28-11.701-28-26.141V86.125c0-14.44,12.54-26.14,28-26.14h54.63 l37.37,120l38.14-32.2l1.86,2.2v40h5l-15.5,89.91l-12.01,69.66l-12.01,69.65l-0.48,2.811L256,479.984z"/></svg>