<svg xmlns="http://www.w3.org/2000/svg"  viewBox="0 0 512 512" width="256px" height="256px"><g data-name="filled outline"><path fill="#c3c3c3" d="M488,96H24a8,8,0,0,1,0-16H488a8,8,0,0,1,0,16Z"/><path fill="#e4e4e2" d="M360,156a8,8,0,0,1-8-8V118.629A24,24,0,1,1,384,96a8,8,0,0,1-16,0,8,8,0,1,0-8,8,8,8,0,0,1,8,8v36A8,8,0,0,1,360,156Z"/><path fill="#e4e4e2" d="M144,154a8,8,0,0,1-8-8V118.629A24,24,0,1,1,168,96a8,8,0,0,1-16,0,8,8,0,1,0-8,8,8,8,0,0,1,8,8v34A8,8,0,0,1,144,154Z"/><rect width="16" height="16" x="136" y="128" fill="#cbcbcb"/><rect width="16" height="16" x="352" y="128" fill="#cbcbcb"/><rect width="57.028" height="39.966" x="331.403" y="150.067" fill="#cbcbcb"/><rect width="55.819" height="48.873" x="116.17" y="152" fill="#d8798f"/><path fill="#e2ac86" d="M170.53,144.41l-.11,3.84-.37,13.59-4.58-2.25a68.249,68.249,0,0,0-42.94,0l-4.58,2.26-.37-13.6-.11-3.84A84.458,84.458,0,0,1,170.53,144.41Z"/><path fill="#cd9c7a" d="M170.42,148.25l-.37,13.59-4.58-2.25a68.249,68.249,0,0,0-42.94,0l-4.58,2.26-.37-13.6A84.2,84.2,0,0,1,170.42,148.25Z"/><path fill="#f388a2" d="M207.3,376.13,216,424a332.051,332.051,0,0,1-144,0l8.7-47.87a213.78,213.78,0,0,0,3.45-38.24A213.128,213.128,0,0,0,80,296L55.28,274.81,24,248l20.04-60.13a60.006,60.006,0,0,1,49.48-40.56L120,144v11.16A53.9,53.9,0,0,0,144,200a53.9,53.9,0,0,0,24-44.84V144l26.48,3.31a60.006,60.006,0,0,1,49.48,40.56L264,248l-56,48A213.6,213.6,0,0,0,207.3,376.13Z"/><path fill="#e68199" d="M76.61,287.51,80,296,55.28,274.81l24.44-31.98A51.465,51.465,0,0,0,76.61,287.51Z"/><path fill="#e68199" d="M206.4,239.79a51.48,51.48,0,0,1,5,47.724L208,296l26.133-22.4s-29.585-36.576-27.736-33.81"/><path fill="#e2ac86" d="M391.76,153.94c-.05.2-.1.39-.17.59a8,8,0,0,1-10.12,5.06,68.249,68.249,0,0,0-42.94,0,8,8,0,0,1-10.12-5.06c-.07-.2-.12-.39-.17-.59a8,8,0,0,1,5.23-9.53,84.458,84.458,0,0,1,53.06,0A8,8,0,0,1,391.76,153.94Z"/><path fill="#cd9c7a" d="M391.76,153.94c-.05.2-.1.39-.17.59a8,8,0,0,1-10.12,5.06,68.249,68.249,0,0,0-42.94,0,8,8,0,0,1-10.12-5.06c-.07-.2-.12-.39-.17-.59a7.977,7.977,0,0,1,5.23-5.66,84.318,84.318,0,0,1,53.06,0A7.977,7.977,0,0,1,391.76,153.94Z"/><path fill="#e4e4e2" d="M488,280l-38.1,10.89L432,296V424H288V296l-56-16,28.04-92.13a60.006,60.006,0,0,1,49.48-40.56L336,143v17a24,24,0,0,0,48,0V143l26.48,4.31a60.006,60.006,0,0,1,49.48,40.56Z"/><polygon fill="#dbdbdb" points="288 296 288 248 270.095 290.884 288 296"/><polygon fill="#dbdbdb" points="449.9 290.89 432 296 432 256 449.9 290.89"/><path d="M467.547,193.343h0a68.34,68.34,0,0,0-56.076-45.973l-25.784-3.223A83.6,83.6,0,0,0,368,140.526V112a8,8,0,0,0-8-8,8.009,8.009,0,0,1-8-8h16a8,8,0,0,0,16,0H488a8,8,0,0,0,0-16H377.869a23.956,23.956,0,0,0-35.738,0H161.869a23.956,23.956,0,0,0-35.738,0H24a8,8,0,0,0,0,16h96a24.042,24.042,0,0,0,16,22.629v21.9a83.6,83.6,0,0,0-17.687,3.622l-25.784,3.223a68.343,68.343,0,0,0-56.017,45.795L16.533,245.129a8,8,0,0,0,2.26,8.945l53.882,46.184a204.8,204.8,0,0,1,.157,74.445l-8.7,47.866a8,8,0,0,0,6.136,9.241,342.133,342.133,0,0,0,147.47,0,8,8,0,0,0,6.136-9.241l-8.7-47.866a204.8,204.8,0,0,1,.157-74.445l14.614-12.526L280,302.034V424a8,8,0,0,0,8,8H432a8,8,0,0,0,8-8V302.034l50.2-14.342a8,8,0,0,0,5.391-10.222ZM344,158.026a68.485,68.485,0,0,1,32,0V168a16,16,0,0,1-32,0ZM152,96a8,8,0,0,0,16,0H336a24.042,24.042,0,0,0,16,22.629v21.9a83.6,83.6,0,0,0-17.687,3.622l-25.784,3.223a68.34,68.34,0,0,0-56.076,45.972l-.417,1.25-.548-1.427a68.343,68.343,0,0,0-56.017-45.795l-25.784-3.223A83.6,83.6,0,0,0,152,140.526V112a8,8,0,0,0-8-8,8.009,8.009,0,0,1-8-8Zm-24,62.026a68.485,68.485,0,0,1,32,0v5.129a45.791,45.791,0,0,1-16,34.828,45.777,45.777,0,0,1-16-34.821ZM81.264,417.768l7.31-40.2a220.736,220.736,0,0,0-.695-82.949c0-.022-.441-1.56-.451-1.586l-3.395-8.487a43.423,43.423,0,0,1,9.624-46.885,8,8,0,0,0-11.314-11.314,59.4,59.4,0,0,0-17.266,46.329L33.494,245.6,51.51,198.744c.043-.113.084-.226.122-.342a52.261,52.261,0,0,1,42.882-35.154L112,161.062v2.1a61.76,61.76,0,0,0,27.563,51.5,8,8,0,0,0,8.875,0A61.775,61.775,0,0,0,176,163.155v-2.093l17.486,2.186A52.261,52.261,0,0,1,236.368,198.4c.038.116.079.229.122.342l7.586,19.729-17.05,51.152-.233-.271-3.87,3.318a59.4,59.4,0,0,0-17.266-46.329,8,8,0,0,0-11.314,11.314,43.425,43.425,0,0,1,9.624,46.886l-3.4,8.486c-.011.027-.379,1.212-.417,1.4a220.758,220.758,0,0,0-.729,83.133l7.31,40.2A326.537,326.537,0,0,1,81.264,417.768ZM440,285.394V256a8,8,0,0,0-16,0V416H296V248a8,8,0,0,0-16,0v37.394L242.232,274.6l25.4-76.2a52.261,52.261,0,0,1,42.882-35.154L328,161.062V168a32,32,0,0,0,64,0v-6.938l17.486,2.186A52.261,52.261,0,0,1,452.368,198.4h0l25.4,76.2Z"/></g></svg>