<svg xmlns="http://www.w3.org/2000/svg"  viewBox="0 0 64 64" width="256px" height="256px"><path fill="#e6e6e6" d="M7.5,57.5h0a12.022,12.022,0,0,0,17,0L39.243,42.757A6,6,0,0,0,41,38.515V15H19V26.515a6,6,0,0,1-1.757,4.242L7.5,40.5A12.022,12.022,0,0,0,7.5,57.5Z"/><rect width="26" height="12" x="17" y="3" fill="#4678ad" rx="2" ry="2"/><path fill="#4678ad" d="M7.5,40.5,8,40,25,57l-.5.5a12.022,12.022,0,0,1-17,0h0A12.022,12.022,0,0,1,7.5,40.5Z"/><path fill="none" stroke="#000" stroke-miterlimit="10" stroke-width="2" d="M35,47l-.343-.343a8,8,0,0,1,0-11.314h0A8,8,0,0,1,40.314,33H41v5.515a6,6,0,0,1-1.757,4.242Z"/><path fill="#f2f2f2" d="M24.5,57.5h0a12.022,12.022,0,0,0,17,0L56.243,42.757A6,6,0,0,0,58,38.515V15H36V26.515a6,6,0,0,1-1.757,4.242L24.5,40.5A12.022,12.022,0,0,0,24.5,57.5Z"/><rect width="26" height="12" x="34" y="3" fill="#5b7fad" rx="2" ry="2"/><path fill="#5b7fad" d="M24.521,40.5l.5-.5,17,17-.5.5a12.022,12.022,0,0,1-17,0h0A12.02,12.02,0,0,1,24.521,40.5Z"/><path fill="#5b7fad" d="M52,47l-.343-.343a8,8,0,0,1,0-11.314h0A8,8,0,0,1,57.314,33H58v5.515a6,6,0,0,1-1.757,4.242Z"/></svg>