<svg xmlns="http://www.w3.org/2000/svg"  viewBox="0 0 48 48" width="100px" height="100px"><path fill="#0d47a1" d="M37,21H11v-8c0-1.7,1.3-3,3-3h20c1.7,0,3,1.3,3,3V21z"/><path fill="#29b6f6" d="M37,35H11c-1.7,0-3-1.3-3-3V21.7c0-2.8,1.9-5.2,4.5-5.8L24,13l11.5,2.9c2.7,0.7,4.5,3.1,4.5,5.8V32 C40,33.7,38.7,35,37,35z"/><path fill="#81d4fa" d="M14,42h20V15.5L24,13l-10,2.5V42z"/><path fill="#1e88e5" d="M24,13l-9,2.2c1.3,3.5,4.8,4.3,9,4.3s7.7-0.7,9-4.3L24,13z"/><path fill="#4fc3f7" d="M34,10c0,6.8-4.5,8-10,8s-10-1.3-10-8c0-5,4.5-9,10-9S34,5,34,10z"/><path fill="#263238" d="M31,8c0,0-2.4-1-7-1s-7,1-7,1v4c0,2.9,4,4.7,7,4.7s7-1.6,7-4.7V8z"/><path fill="#607d8b" d="M19,12.5c-0.3,0-0.5-0.2-0.5-0.5V9.1L18.9,9C19,9,21.1,8.5,24,8.5c0.3,0,0.5,0.2,0.5,0.5 S24.3,9.5,24,9.5c-2.1,0-3.8,0.3-4.5,0.4V12C19.5,12.3,19.3,12.5,19,12.5z"/><path fill="#b3e5fc" d="M28,31h-8c-1.1,0-2-0.9-2-2v-6c0-1.1,0.9-2,2-2h8c1.1,0,2,0.9,2,2v6C30,30.1,29.1,31,28,31z"/><path fill="#0d47a1" d="M28,30h-8c-0.6,0-1-0.4-1-1v-6c0-0.6,0.4-1,1-1h8c0.6,0,1,0.4,1,1v6C29,29.6,28.6,30,28,30z"/><path fill="#d84315" d="M8 26h6v2H8V26zM8 30h6v2H8V30zM34 26h6v2h-6V26zM34 30h6v2h-6V30z"/><path fill="#1e88e5" d="M23,35h2v8h-2V35z"/><path fill="#1e88e5" d="M22 45h-6c-1.1 0-2-.9-2-2v-1c0 0 1.5-2 5-2s5 2 5 2v1C24 44.1 23.1 45 22 45zM32 45h-6c-1.1 0-2-.9-2-2v-1c0 0 1.5-2 5-2s5 2 5 2v1C34 44.1 33.1 45 32 45z"/></svg>