<?xml version="1.0" encoding="iso-8859-1"?><!-- Generator: Adobe Illustrator 19.1.1, SVG Export Plug-In . SVG Version: 6.00 Build 0)  --><svg xmlns="http://www.w3.org/2000/svg" xmlns:xlink="http://www.w3.org/1999/xlink" viewBox="0 0 48 48" width="100px" height="100px"><path style="fill:#F9A825;" d="M19.887,44.008c-0.376,0-0.757-0.084-1.116-0.264c-1.234-0.62-1.735-2.12-1.118-3.354L21.455,33h-0.958c-1.381,0-2.997-1.119-2.997-2.5S18.619,28,20,28h5.5c0.866,0,1.671,0.449,2.127,1.188c0.455,0.736,0.497,1.656,0.109,2.43l-5.611,11.007C21.686,43.502,20.804,44.008,19.887,44.008z"/><path style="fill:#FFB74D;" d="M23,4c2.209,0,4,1.792,4,4s-1.791,4-4,4c-2.209,0-4-1.792-4-4S20.791,4,23,4"/><path style="fill:#FFB74D;" d="M22.498,45c-0.376,0-0.757-0.086-1.116-0.266c-1.234-0.617-1.735-2.117-1.118-3.354L25,33l-9.003,1C14.616,34,13,31.879,13,30.5c0-1.383,1.119-2.5,2.5-2.5h13c0.866,0,1.671,0.447,2.127,1.184c0.455,0.738,0.497,1.658,0.109,2.434l-6,12C24.298,44.492,23.415,45,22.498,45z"/><path style="fill:#FFB74D;" d="M38,18H21c-1.104,0-2-0.896-2-2s0.896-2,2-2h17c1.104,0,2,0.896,2,2S39.104,18,38,18z"/><path style="fill:#5EC08F;" d="M21,14c-0.155,0-0.305,0.022-0.45,0.055c-1.535,0.161-2.949,1.091-3.633,2.597l-5.513,10.984c-1.028,2.262-0.028,4.93,2.234,5.959C14.243,33.871,14.875,34,15.498,34c1.711,0,3.249-1.34,4.003-3L28,14H21z"/><polygon style="fill:#41A571;" points="21,28 19,28 24,18 26,18 "/><path style="fill:#5C6BC0;" d="M11.281,28c-0.774,2.178,0.214,4.621,2.357,5.596C14.243,33.871,14.875,34,15.498,34c1.711,0,3.249-1.34,4.003-3l1.5-3H11.281z"/><g><path style="fill:#5C6BC0;" d="M23,28h-7.5c-1.381,0-2.5,1.117-2.5,2.5c0,1.379,1.616,3.5,2.997,3.5L23,33.222V28z"/></g></svg>