<svg xmlns="http://www.w3.org/2000/svg"  viewBox="0 0 48 48" width="144px" height="144px" baseProfile="basic"><path fill="#2e7d32" d="M39,43h-6.79l-3.89,4.85L22.5,28.875l7.375-3.625L39,43z"/><path fill="#43a047" d="M27.625,25.5L20.68,47.85L16.79,43H10l9.25-19.375L27.625,25.5z"/><path fill="#2e7d32" d="M24,4.077c-7.137,0-12.923,5.786-12.923,12.923S16.863,29.923,24,29.923S36.923,24.137,36.923,17	S31.137,4.077,24,4.077z"/><path fill="#8bc34a" d="M24,31.001c-7.719,0-14-6.281-14-14S16.28,3,24,3S38,9.28,38,17S31.719,31.001,24,31.001z M24,7	c-5.515,0-10,4.486-10,10s4.486,10,10,10s10-4.486,10-10S29.514,7,24,7z"/><path fill="#8bc34a" d="M24.364,16.004l1.114,1.319c0.383,0.472,0.715,1.005,0.993,1.559 c0.272,0.562,0.508,1.154,0.628,1.819c0.123,0.655,0.138,1.412-0.167,2.184l-0.009,0.025c-0.185,0.47-0.715,0.708-1.185,0.534 c-0.469-0.175-0.7-0.697-0.515-1.167c0.015-0.038,0.034-0.079,0.054-0.113c0.169-0.3,0.247-0.739,0.21-1.22 c-0.027-0.479-0.159-0.986-0.332-1.479c-0.18-0.496-0.412-0.969-0.692-1.432l-0.857-1.499c-0.124-0.218-0.046-0.499,0.177-0.626 C23.98,15.794,24.225,15.839,24.364,16.004z"/><path fill="#8bc34a" d="M18.581,15.232c0.774,1.08,4.657,2.017,5.726,2.243c0.178,0.038,0.195-0.009,0.195-0.009 s0.026-0.011,0.035-0.091c0.094-0.785,0.544-5.091-0.276-6.232c-1.269-1.751-3.099-0.308-3.321,1.389 C19.278,12.199,17.327,13.471,18.581,15.232z"/><path fill="#8bc34a" d="M23.618,22.552c1.06-1.086,1.177-6.161,1.177-6.161s-5.173,0.136-6.232,1.223 c-1.47,1.524,0.281,3.094,1.978,3.045C20.53,22.345,22.136,24.062,23.618,22.552z"/><path fill="#8bc34a" d="M26.457,12.067c-1.382,0.66-3.228,5.126-3.228,5.126s4.725,1.478,6.107,0.817 c1.924-0.931,0.875-2.865-0.718-3.326C29.249,13.173,28.389,11.151,26.457,12.067z"/><g><path fill="#43a047" d="M24,7c0.338,0,0.671,0.018,1,0.051v-4C24.668,3.027,24.338,3,24,3s-0.668,0.027-1,0.051v4 C23.329,7.018,23.662,7,24,7z"/><path fill="#43a047" d="M24,27c-0.338,0-0.671-0.018-1-0.051v4.001c0.332,0.024,0.662,0.051,1,0.051s0.668-0.027,1-0.051 v-4.001C24.671,26.982,24.338,27,24,27z"/><path fill="#43a047" d="M14,17c0-0.211,0.019-0.417,0.032-0.625h-4C10.022,16.584,10,16.79,10,17.001 c0,0.464,0.025,0.922,0.07,1.374h4.036C14.044,17.924,14,17.467,14,17z"/><path fill="#43a047" d="M34,17c0,0.468-0.044,0.924-0.106,1.375h4.036C37.975,17.922,38,17.464,38,17 c0-0.211-0.022-0.416-0.032-0.625h-4C33.981,16.583,34,16.789,34,17z"/><path fill="#43a047" d="M27.935,26.19l2.003,3.47c0.606-0.286,1.193-0.605,1.748-0.972l-2.004-3.471 C29.136,25.597,28.552,25.925,27.935,26.19z"/><path fill="#43a047" d="M19.726,7.973l-2.003-3.469c-0.598,0.302-1.174,0.64-1.72,1.021l2.011,3.483 C18.547,8.608,19.119,8.261,19.726,7.973z"/><path fill="#43a047" d="M31.909,23.096l3.484,2.011c0.387-0.542,0.736-1.111,1.044-1.707l-3.469-2.003 C32.67,22,32.316,22.569,31.909,23.096z"/><path fill="#43a047" d="M15.7,11.429l-3.46-1.998c-0.361,0.559-0.68,1.146-0.96,1.755l3.477,2.007 C15.014,12.572,15.329,11.98,15.7,11.429z"/><path fill="#43a047" d="M29.985,9.008l2.011-3.484c-0.546-0.381-1.121-0.719-1.72-1.021l-2.003,3.47 C28.881,8.261,29.453,8.608,29.985,9.008z"/><path fill="#43a047" d="M18.317,25.218l-2.004,3.471c0.555,0.366,1.142,0.686,1.748,0.972l2.004-3.47 C19.448,25.925,18.864,25.597,18.317,25.218z"/><path fill="#43a047" d="M33.243,13.193l3.477-2.007c-0.28-0.61-0.599-1.196-0.96-1.755l-3.46,1.998 C32.671,11.98,32.986,12.572,33.243,13.193z"/><path fill="#43a047" d="M15.033,21.397l-3.47,2.003c0.308,0.596,0.657,1.164,1.044,1.707l3.484-2.012 C15.684,22.569,15.33,22,15.033,21.397z"/></g></svg>