<svg xmlns="http://www.w3.org/2000/svg"  viewBox="0 0 512 512" width="100px" height="100px"><g data-name="&lt;编组&gt;"><polygon fill="#a7aec1" points="444.81 13.83 459.8 29.49 434.51 37.13 419.91 64.35 299.94 57.06 339.01 45.14 391.63 22.99 444.81 13.83"/><polygon fill="#a7aec1" points="476.27 189.57 489.01 242.22 439.57 139.05 419.91 64.35 434.51 37.13 459.8 29.49 476.27 189.57"/><polygon fill="#fff" points="444.81 13.83 459.8 29.49 434.51 37.13 419.91 64.35 299.94 57.06 339.01 45.14 391.63 22.99 444.81 13.83" opacity=".3"/><polygon fill="#3f466a" points="476.27 189.57 489.01 242.22 439.57 139.05 419.91 64.35 434.51 37.13 459.8 29.49 476.27 189.57" opacity=".2"/><polygon fill="#a7aec1" points="489.01 242.22 496.5 398.03 486.76 411.55 382.64 486.25 305.3 495.5 107.55 495.5 96.5 474.87 121.97 151.15 132.26 135.32 176.65 123.04 214.86 83.02 299.92 57.06 299.94 57.06 419.91 64.35 439.57 139.05 489.01 242.22"/></g><polygon fill="#3f466a" points="495.03 383 379.14 469 304.81 480.5 98.98 480.5 107.55 495.5 305.3 495.5 382.64 486.25 486.76 411.55 496.5 398.03 495.03 383" opacity=".2"/><polygon fill="#fff" points="121.97 151.15 132.26 135.32 176.65 123.04 214.86 83.02 299.94 57.06 419.91 64.35 423.9 79.5 303.35 70.67 221.85 95.67 183.71 139.33 121.97 151.15" opacity=".3"/><path fill="#b9ddfc" d="M257.19,389.94a97,97,0,1,1,.85-137.1A97,97,0,0,1,257.19,389.94Z"/><path fill="#bf8d77" d="M86.82,393.13l-65,64.19A20.06,20.06,0,0,0,50,485.87l65.05-64.24Z"/><rect width="39.94" height="9.04" x="77.93" y="406.31" fill="#fff" opacity=".2" transform="rotate(-134.34 97.884 410.829)"/><path fill="#3f456b" d="M105.16,411.88,38.92,478s-9,10.59-16.3,8.14c0,0,14,14.06,28.72-.59l63.59-63.51Z" opacity=".25"/><path fill="#fff" d="M285.8,327.39s-4.59-84.28-91.7-89.76S92.27,314.87,92.27,314.87s9.91-96.53,102.87-90.69S285.8,327.39,285.8,327.39Z" opacity=".3"/><circle cx="187.51" cy="282.7" r="58.6" fill="#fff" opacity=".3" transform="rotate(-74.64 187.51 282.7)"/><g opacity=".7"><path fill="#fff" d="M127.85,293.05a8.47,8.47,0,0,1-3.21-1.13,8.64,8.64,0,0,1-3-11.84c18.3-30.88,54.45-37,56-37.23a8.64,8.64,0,0,1,2.75,17.06c-.42.08-29.8,5.24-43.87,29A8.63,8.63,0,0,1,127.85,293.05Z"/><path fill="#fff" d="M129.67,312.17a10.64,10.64,0,1,1-9.09-11.85A10.56,10.56,0,0,1,129.67,312.17Z"/></g><path fill="#3f456b" d="M92.29,314.69S96.88,399,184,404.45s101.83-77.24,101.83-77.24S275.9,423.75,183,417.9,92.29,314.69,92.29,314.69Z" opacity=".15"/><g opacity=".5"><path fill="#3f456b" d="M131.29,290.5a5,5,0,0,1-4.18-7.74l10.5-16a5,5,0,0,1,8.16-.28l7.82,10.29,7.94-10.32a5,5,0,0,1,3.95-1.95h0a5,5,0,0,1,3.95,1.94l11.22,14.5a5,5,0,0,1-7.91,6.12l-7.25-9.38-8,10.37a5,5,0,0,1-4,1.95h0a5,5,0,0,1-4-2l-7.49-9.86-6.61,10.08A5,5,0,0,1,131.29,290.5Z"/><path fill="#3f456b" d="M177.25,305.75H130.57a5,5,0,0,1,0-10h46.68a5,5,0,0,1,0,10Z"/><path fill="#3f456b" d="M177.25,322H130.57a5,5,0,0,1,0-10h46.68a5,5,0,0,1,0,10Z"/><path fill="#3f456b" d="M240.31,321.25h-38.8a5,5,0,0,1-5-5V268.5a5,5,0,0,1,5-5h38.8a5,5,0,0,1,5,5v47.75A5,5,0,0,1,240.31,321.25Zm-33.8-10h28.8V273.5h-28.8Z"/><path fill="#3f456b" d="M243.51,376a5,5,0,0,1-4.11-2.14L220.54,346.8,199.73,374a5,5,0,0,1-7.95-6.08l25-32.68a5,5,0,0,1,8.07.18l22.79,32.68a5,5,0,0,1-1.25,7A4.93,4.93,0,0,1,243.51,376Z"/><path fill="#3f456b" d="M154,376c-23,0-30.86-17.26-31.18-18a5,5,0,0,1,.14-4.31c.38-.74,9.59-18,31-18,21.21,0,30.48,14.81,30.86,15.44a5,5,0,0,1,.41,4.38C185,356.33,177.21,376,154,376Zm-20.74-19.87c2.45,3.48,8.6,9.87,20.74,9.87a23.41,23.41,0,0,0,20.72-11.72c-2.8-3.09-9.4-8.61-20.72-8.61A25.6,25.6,0,0,0,133.28,356.13Zm-5.86-.13h0Z"/><path fill="#3f456b" d="M155,360.83h-1a5,5,0,0,1,0-10h1a5,5,0,1,1,0,10Z"/></g><g opacity=".3"><path fill="#3f456b" d="M400,116.5H277.33a5,5,0,0,1,0-10H400a5,5,0,0,1,0,10Z"/><path fill="#3f456b" d="M252.33,116.5H225.5a5,5,0,0,1,0-10h26.83a5,5,0,0,1,0,10Z"/><path fill="#3f456b" d="M413.25,148.5H382a5,5,0,0,1,0-10h31.25a5,5,0,0,1,0,10Z"/><path fill="#3f456b" d="M357,148.5H336.5a5,5,0,0,1,0-10H357a5,5,0,0,1,0,10Z"/><path fill="#3f456b" d="M304.5,148.5H195.75a5,5,0,0,1,0-10H304.5a5,5,0,0,1,0,10Z"/><path fill="#3f456b" d="M419.91,180.5H262.5a5,5,0,0,1,0-10H419.91a5,5,0,1,1,0,10Z"/><path fill="#3f456b" d="M229.5,180.5H157.6a5,5,0,0,1,0-10h71.9a5,5,0,0,1,0,10Z"/><path fill="#3f456b" d="M438.74,212.5H368.5a5,5,0,0,1,0-10h70.24a5,5,0,0,1,0,10Z"/><path fill="#3f456b" d="M336.5,212.5H324.33a5,5,0,1,1,0-10H336.5a5,5,0,0,1,0,10Z"/><path fill="#3f456b" d="M296.5,212.5H157.6a5,5,0,0,1,0-10H296.5a5,5,0,0,1,0,10Z"/><path fill="#3f456b" d="M448.5,244.5H285.8a5,5,0,1,1,0-10H448.5a5,5,0,0,1,0,10Z"/><path fill="#3f456b" d="M464.5,276.5H388.06a5,5,0,1,1,0-10H464.5a5,5,0,0,1,0,10Z"/><path fill="#3f456b" d="M362,276.5H304.5a5,5,0,0,1,0-10H362a5,5,0,0,1,0,10Z"/><path fill="#3f456b" d="M457.62,308.5H440.25a5,5,0,0,1,0-10h17.37a5,5,0,0,1,0,10Z"/><path fill="#3f456b" d="M413.25,308.5H318.5a5,5,0,0,1,0-10h94.75a5,5,0,0,1,0,10Z"/><path fill="#3f456b" d="M457.62,340.5H321a5,5,0,0,1,0-10H457.62a5,5,0,0,1,0,10Z"/><path fill="#3f456b" d="M457.62,372.5H398a5,5,0,0,1,0-10h59.62a5,5,0,0,1,0,10Z"/><path fill="#3f456b" d="M361,372.5H311.67a5,5,0,0,1,0-10H361a5,5,0,0,1,0,10Z"/><path fill="#3f456b" d="M454.46,404.5H291.76a5,5,0,0,1,0-10h162.7a5,5,0,1,1,0,10Z"/><path fill="#3f456b" d="M388.1,436.5H375.05a5,5,0,1,1,0-10H388.1a5,5,0,0,1,0,10Z"/><path fill="#3f456b" d="M357.5,436.5H336.33a5,5,0,1,1,0-10H357.5a5,5,0,0,1,0,10Z"/><path fill="#3f456b" d="M318.25,436.5H256.5a5,5,0,0,1,0-10h61.75a5,5,0,0,1,0,10Z"/><path fill="#3f456b" d="M357.5,468.5H263.67a5,5,0,0,1,0-10H357.5a5,5,0,0,1,0,10Z"/><path fill="#3f456b" d="M231,468.5H131.29a5,5,0,1,1,0-10H231a5,5,0,0,1,0,10Z"/></g><g><path fill="#3f456b" d="M305.3,500.5H107.55a5,5,0,0,1-4.41-2.64l-11-20.63a5,5,0,0,1-.57-2.75l2.8-35.62a5,5,0,0,1,10,.78L101.6,473.8l8.94,16.7H305l75.77-9.06L483.18,408l8.24-11.44L484,242.93l-12.62-52.19a5.09,5.09,0,0,1-.12-.66L455,31.7,443,19.21l-50,8.61L341,49.75l-.48.17L217.56,87.42,180.27,126.5a5.07,5.07,0,0,1-2.29,1.36l-42.55,11.77-8.58,13.18-8.38,106.62a5,5,0,0,1-10-.78L117,150.76a5,5,0,0,1,.8-2.34l10.3-15.83a5,5,0,0,1,2.86-2.09L174,118.59l37.25-39a5,5,0,0,1,2.15-1.33L337.31,40.43l52.38-22a4.69,4.69,0,0,1,1.09-.32L444,8.91a5,5,0,0,1,4.46,1.47l15,15.65A5,5,0,0,1,464.77,29l16.44,159.75L493.87,241a5,5,0,0,1,.13.94l7.49,155.81a5,5,0,0,1-.93,3.16l-9.74,13.52a5.14,5.14,0,0,1-1.14,1.14l-104.12,74.7a5,5,0,0,1-2.32.91l-77.34,9.24A4,4,0,0,1,305.3,500.5Z"/><path fill="#3f456b" d="M101.81,412.42h-.39a5,5,0,0,1-4.6-5.38l3-37.54a5,5,0,1,1,10,.79l-2.95,37.53A5,5,0,0,1,101.81,412.42Z"/><path fill="#3f456b" d="M419.91,69.35h-.3l-120-7.29a5,5,0,0,1,.61-10L417,59.16l13.09-24.39a5,5,0,0,1,3-2.42l25.28-7.65a5,5,0,1,1,2.89,9.57l-23.3,7L424.31,66.71A5,5,0,0,1,419.91,69.35Z"/><path fill="#3f456b" d="M489,247.22a5,5,0,0,1-4.51-2.84L435.06,141.21a5.44,5.44,0,0,1-.32-.88L415.07,65.62a5,5,0,1,1,9.67-2.54l19.55,74.24,49.23,102.74a5,5,0,0,1-2.35,6.66A4.91,4.91,0,0,1,489,247.22Z"/><path fill="#3f456b" d="M189.07,422.86A101.89,101.89,0,1,1,260.7,393.5h0A101.65,101.65,0,0,1,189.07,422.86ZM189,229a91.29,91.29,0,1,0,.6,0Zm68.15,160.93h0Z"/><path fill="#3f456b" d="M35.91,496.65h-.16A25.06,25.06,0,0,1,18.3,453.76l65-64.19a5,5,0,0,1,7.07,0l28.23,28.51a5,5,0,0,1,0,7.07l-65,64.24A24.92,24.92,0,0,1,35.91,496.65ZM86.78,400.2,25.33,460.88a15.06,15.06,0,1,0,21.16,21.43L108,421.6Z"/><path fill="#3f456b" d="M101,412.36a5,5,0,0,1-3.55-1.48,5,5,0,0,1,0-7.08l18.45-18.21a5,5,0,1,1,7,7.11l-18.44,18.22A5,5,0,0,1,101,412.36Z"/></g></svg>