<?xml version="1.0" encoding="utf-8"?>
<!-- Generator: Adobe Illustrator 21.0.2, SVG Export Plug-In . SVG Version: 6.00 Build 0)  -->
<svg xmlns="http://www.w3.org/2000/svg" xmlns:xlink="http://www.w3.org/1999/xlink" viewBox="0 0 80 80" width="160px" height="160px">
<g>
	<rect x="4.5" y="26.5" style="fill:#F2FAFF;" width="71" height="51"/>
	<g>
		<path style="fill:#A3B7CC;" d="M75,27v50H5V27H75 M76,26H4v52h72V26L76,26z"/>
	</g>
</g>
<rect x="5" y="68" style="fill:#E1EBF2;" width="70" height="9"/>
<g>
	<rect x="14.5" y="44.5" style="fill:#B6C9D6;" width="22" height="33"/>
	<g>
		<path style="fill:#788B9C;" d="M36,45v32H15V45H36 M37,44H14v34h23V44L37,44z"/>
	</g>
</g>
<g>
	<rect x="46.5" y="44.5" style="fill:#C2E8FF;" width="19" height="17"/>
	<g>
		<path style="fill:#7496C4;" d="M65,45v16H47V45H65 M66,44H46v18h20V44L66,44z"/>
	</g>
</g>
<circle style="fill:#FFFFFF;" cx="31" cy="60" r="2"/>
<path style="fill:#788B9C;" d="M4,2v16h72V2H4z"/>
<path style="fill:#F78F8F;" d="M0,31.7c0,4.2,3.1,7.9,7.2,8.3c4.8,0.5,8.8-3.3,8.8-8c0,4.4,3.6,8,8,8s8-3.6,8-8c0,4.4,3.6,8,8,8  s8-3.6,8-8c0,4.4,3.6,8,8,8s8-3.6,8-8c0,4.7,4,8.4,8.8,8c4.2-0.4,7.2-4.1,7.2-8.3V24H0V31.7z"/>
<polygon style="fill:#F7A8A8;" points="0,24 80,24 76,16 4,16 "/>
<path style="fill:#C74343;" d="M76,16h-1.1l4.1,8.2v7.4c0,3.8-2.8,7-6.3,7.3c-0.2,0-0.5,0-0.7,0c-3.9,0-7-3.1-7-7c0-0.6-0.4-1-1-1  s-1,0.4-1,1c0,3.9-3.1,7-7,7s-7-3.1-7-7c0-0.6-0.4-1-1-1s-1,0.4-1,1c0,3.9-3.1,7-7,7s-7-3.1-7-7c0-0.6-0.4-1-1-1s-1,0.4-1,1  c0,3.9-3.1,7-7,7s-7-3.1-7-7c0-0.6-0.4-1-1-1s-1,0.4-1,1c0,3.9-3.1,7-7,7c-0.2,0-0.5,0-0.7,0C3.8,38.6,1,35.4,1,31.7v-7.4L5.1,16H4  l-4,8v7.7c0,4.2,3.1,7.9,7.2,8.3c0.3,0,0.5,0,0.8,0c4.4,0,8-3.6,8-8c0,4.4,3.6,8,8,8s8-3.6,8-8c0,4.4,3.6,8,8,8s8-3.6,8-8  c0,4.4,3.6,8,8,8s8-3.6,8-8c0,4.4,3.6,8,8,8c0.3,0,0.5,0,0.8,0c4.2-0.4,7.2-4.1,7.2-8.3V24L76,16z"/>
<circle style="fill:#C8D1DB;" cx="11" cy="9" r="3"/>
<circle style="fill:#C8D1DB;" cx="19" cy="9" r="3"/>
<rect x="0.5" y="24" style="fill:#C74343;" width="79" height="1"/>
<rect x="26" y="6" style="fill:#FFFFFF;" width="46" height="6"/>
</svg>