<svg xmlns="http://www.w3.org/2000/svg"  viewBox="0 0 100 100" width="100px" height="100px"><path d="M97.087,31.929L83.258,17.931C82.046,16.704,80.36,16,78.635,16H23.318c-1.726,0-3.411,0.704-4.624,1.932L4.867,31.928 c-2.385,2.412-2.53,6.184-0.337,8.771L46.018,89.69c1.237,1.46,3.045,2.298,4.959,2.298s3.722-0.838,4.96-2.299L97.422,40.7 C99.616,38.111,99.472,34.34,97.087,31.929z" opacity=".35"/><path fill="#f2f2f2" d="M95.087,29.93L81.258,15.932c-1.212-1.227-2.898-1.931-4.624-1.931H21.318 c-1.726,0-3.411,0.704-4.624,1.932L2.867,29.929c-2.385,2.412-2.53,6.184-0.337,8.771l41.488,48.992 c1.237,1.46,3.045,2.298,4.959,2.298s3.722-0.838,4.96-2.299l41.486-48.989C97.616,36.112,97.472,32.341,95.087,29.93z"/><path fill="#de5147" d="M7.489,34.498l13.829-13.997h55.316l13.829,13.997L48.977,83.489L7.489,34.498z"/><path fill="#40396e" d="M48.977,84.989c-0.441,0-0.86-0.194-1.145-0.53L6.345,35.468c-0.502-0.593-0.469-1.472,0.078-2.024 l13.829-13.997c0.282-0.285,0.666-0.445,1.067-0.445h55.316c0.401,0,0.785,0.16,1.067,0.445l13.829,13.997 c0.546,0.553,0.58,1.432,0.078,2.024L50.121,84.459C49.836,84.795,49.417,84.989,48.977,84.989z M9.521,34.576l39.456,46.592 l39.456-46.592L76.008,22.001H21.945L9.521,34.576z"/><g><path fill="#ffc571" d="M64.136,34.507c-0.179-5.721-6.552-9.524-16.27-9.5c-9.718-0.145-13.824,4.745-13.824,4.745 s-7.392,8.263,16.491,8.205s22.833,9.645,22.833,9.645l10.595-12.586l-6.935-7.051l-0.012,6.511L64.136,34.507z"/><path fill="#ffc571" d="M30.902,25.048l-6.918,0.017L13.962,35.354l0.33,0.336l5.121,6.045 C22.184,29.781,30.902,25.048,30.902,25.048z"/><path fill="#ffc571" d="M38.078,63.901l0.33,0.336L49.146,77l9.197-11.128l1.477-2.023 C59.985,64.016,50.439,67.069,38.078,63.901z"/><path fill="#ffc571" d="M65.663,28.666c0.821-0.843,1.638-3.706,1.638-3.706l-4.941,0.012 C62.196,24.972,64.506,26.818,65.663,28.666z"/><path fill="#ffc571" d="M48.278,58.66c23.062,1.122,16.127-5.76,16.127-5.76s-0.827-1.344-18.123-2.312 c-17.297-0.968-21.749-2.976-21.749-2.976l8.59,10.244C35.587,55.157,43.653,53.455,48.278,58.66z"/></g></svg>