<?xml version="1.0" encoding="iso-8859-1"?><!-- Generator: Adobe Illustrator 23.0.0, SVG Export Plug-In . SVG Version: 6.00 Build 0)  --><svg xmlns="http://www.w3.org/2000/svg" xmlns:xlink="http://www.w3.org/1999/xlink" viewBox="0 0 50 50" width="100px" height="100px"><g><g><path d="M41,4H9C6.24,4,4,6.24,4,9v32c0,2.76,2.24,5,5,5h32c2.76,0,5-2.24,5-5V9C46,6.24,43.76,4,41,4z M41,25c0,8.84-7.16,16-16,16S9,33.84,9,25S16.16,9,25,9S41,16.16,41,25z"/></g></g><polygon points="28,20 29,23 21,23 22,20 12,25 22,30 21,27 29,27 28,30 38,25 "/></svg>