<svg xmlns="http://www.w3.org/2000/svg"  viewBox="0 0 48 48" width="100px" height="100px" baseProfile="basic"><linearGradient id="otqKENga_plKbSLdPKikLa" x1="8" x2="8" y1="34" y2="17" gradientUnits="userSpaceOnUse"><stop offset="0" stop-color="#e52030"/><stop offset=".557" stop-color="#ee3d4a"/><stop offset="1" stop-color="#f43e5a"/></linearGradient><path fill="url(#otqKENga_plKbSLdPKikLa)" d="M5.505,21.34H1.5c-0.276,0-0.5-0.224-0.5-0.5V17.5C1,17.224,1.224,17,1.5,17h13	c0.276,0,0.5,0.224,0.5,0.5v3.34c0,0.276-0.224,0.5-0.5,0.5h-4.006V33.5c0,0.276-0.224,0.5-0.5,0.5h-3.99	c-0.276,0-0.5-0.224-0.5-0.5V21.34z"/><linearGradient id="otqKENga_plKbSLdPKikLb" x1="22.98" x2="22.98" y1="34" y2="17" gradientUnits="userSpaceOnUse"><stop offset="0" stop-color="#e52030"/><stop offset=".557" stop-color="#ee3d4a"/><stop offset="1" stop-color="#f43e5a"/></linearGradient><path fill="url(#otqKENga_plKbSLdPKikLb)" d="M16.46,17H29.5c0.276,0,0.5,0.224,0.5,0.5v3.34c0,0.276-0.224,0.5-0.5,0.5h-8.393v2.093H29.5	c0.276,0,0.5,0.224,0.5,0.5v3.083c0,0.276-0.224,0.5-0.5,0.5h-8.393v2.144H29.5c0.276,0,0.5,0.224,0.5,0.5v3.34	c0,0.276-0.224,0.5-0.5,0.5H16.46c-0.276,0-0.5-0.224-0.5-0.5l0-16C15.96,17.224,16.184,17,16.46,17z"/><linearGradient id="otqKENga_plKbSLdPKikLc" x1="39.031" x2="39.031" y1="34" y2="17" gradientUnits="userSpaceOnUse"><stop offset="0" stop-color="#e52030"/><stop offset=".557" stop-color="#ee3d4a"/><stop offset="1" stop-color="#f43e5a"/></linearGradient><path fill="url(#otqKENga_plKbSLdPKikLc)" d="M39.506,17h-7.944c-0.276,0-0.5,0.224-0.5,0.5v16c0,0.276,0.224,0.5,0.5,0.5h6.944	C44.302,34,47,30.682,47,25.475C47,21.186,45.052,17,39.506,17z M38.207,29.66h-1.998l-0.051-8.27h1.649	c3.698,0,4.048,2.961,4.048,4.033C41.855,27.006,41.404,29.66,38.207,29.66z"/></svg>