<svg xmlns="http://www.w3.org/2000/svg"  viewBox="0 0 512 512" width="192px" height="192px"><path fill="#BCBCBC" d="M284.6,454.6c-6,3.7-12.1,6.8-18.4,9.8c-11.1,5.3-22.3,10.7-34.1,14.3c2.3,3.1,4.7,6,7.3,8.7c11.9-8.1,25.2-15,38.8-19.6c1.5-0.5,2.9-0.4,4,0.1c2.3-4.4,4.6-9,6.9-13.4c0.8-1.5,1.6-2.9,2.4-4.3C289.1,451.7,286.9,453.2,284.6,454.6z"/><path fill="#71C598" d="M326.2,358.8c-5,1.7-9.5,4.7-13.9,7.6c-5.3,3.5-10.8,6.6-16.4,9.7c-12.6,7-24.9,14.6-37.8,21c-13.2,6.5-27,11.5-40.7,16.9c-5.6,2.2-10.9,4.5-16.1,7.5c-3.6,2.1-7.3,4.5-11.4,5.7c0.1,0.2,0.3,0.5,0.4,0.7c8.6,13,20.3,23.7,30.3,35.5c1.6,1.9,3.1,3.8,4.6,5.9c13.6-3.8,26.2-10,39-16.1c12.1-5.7,22.7-14.2,35-19.4c0.9-0.4,1.7-0.5,2.5-0.4c2.9-4.5,5.8-9.1,8.5-13.7c6.9-11.5,13.7-23.9,15.7-37.4C327.1,374.6,327,366.7,326.2,358.8z"/><path fill="#BCBCBC" d="M248.3 494.9c.6.5 1 1.1 1.3 1.7 10.6 3.2 19.4-6.9 25.1-15.6C265.5 484.7 256.6 489.5 248.3 494.9zM323.6 342.2c-1 .8-1.9 1.5-3.1 2.1-.4.2-.7.3-.9.4-.2.2-.5.4-.9.6-2.5 1.7-5 3.3-7.6 4.8-5.5 3.2-11.2 6.1-17 8.9-11.6 5.5-23.5 10.4-35.4 15.3-27 11.1-52.5 25.6-80.2 34.7 0 .1.1.1.1.2 1.8 2.8 3.5 5.7 5.2 8.5 1.3-1.4 3.3-2.1 5.1-1.9 3.2-1.5 6.3-3.5 9.3-5.3 5.4-3.1 11.3-5.3 17.1-7.6 13.7-5.4 27.8-10.4 40.8-17.3 13-6.8 25.4-14.5 38.3-21.4 9.8-5.3 18.7-13.3 29.6-16.4.2 0 .3-.1.5-.1C324.4 345.9 324 344.1 323.6 342.2zM225.8 48.8c-5.9.3-14-1.1-18.6 3.5-4.2 4.2-7.6 9.2-10.6 14.3-.1.2-.2.4-.3.6 7.1-1.3 13.8-5.4 19.8-9 5.4-3.2 10.7-6.7 16.3-9.8C230.2 48.6 228 48.8 225.8 48.8z"/><path fill="#71C598" d="M273.9,156.5c-0.7,0-1.5-0.1-2.3-0.5c-9.3-3.8-20.7-2.6-30.3-1.1c-8.8,1.4-17.5,3.4-25.9,6.6c-1.2,2-2.4,4.1-3.3,6.4c-5.6,14.1-9.1,29.1-14.4,43.4c-0.2,0.6-0.4,1.3-0.7,1.9c13.4-6.3,27.3-11.7,41.4-16.3c7.3-2.4,15.1-4.2,21.9-7.9c6-3.3,11.7-7.1,18.1-9.6C276.8,171.7,275.3,164.1,273.9,156.5z"/><path fill="#3AB37C" d="M179.8 81.6c-.2-.8-.3-1.6-.2-2.5.6-3.7 1.9-7.3 3.6-10.8-11.3-1.3-24.3-1.7-34.4-7.2-.7 1.3-1.4 2.6-2 4-1.4 3.1-2.7 6.4-3.6 9.7-1.6 5.8-3.9 12.6-1.4 18.5 3.1 7.2 13.4 8 20.2 8.7 6.5.6 13.1 1.8 19.7 2.4-1.2-2.9-2.3-5.8-3.1-8.8C177.4 91.1 176.2 85.3 179.8 81.6zM334.9 30.3c-1.3-1.8-2.8-3.4-4.6-4.7-8.2-5.9-19.5-8.7-29.4-10.1-31.8-4.4-64.2 6-94.4 14.9-12.4 3.6-24.6 8-37.1 11.4-5 1.3-10.9 2.6-15.1 5.8-.8.7-1.9 1.6-2.4 2.5 1 .8 3.9 2.2 5.8 2.8 3.6 1.1 7.2 1.9 10.9 2.5 6.1 1 12.3 1.6 18.4 2.4.7.1 1.3.3 1.9.6 3.4-5.5 7.2-11.3 12.4-15.2 7.7-5.8 16.1-4.2 25-5.2 5.2-.6 10.4-.6 15.6-1.1 5-.5 10.1-1.2 15.1-.9 6.3.4 13 .9 18.9 3.5 5.1-5.5 13.6-6.6 20.9-6.8 9.7-.3 19.3.8 29 1.2 3.4.2 6.7.2 9.9-.9.1-.1.2-.1.2-.2.1 0 .1-.1.2-.1C335.8 31.7 335.4 31 334.9 30.3z"/><path fill="#71C598" d="M311.5 293.3c-2.1-6.7-4.4-13.4-6.7-20-5 1.5-9.6 5-13.9 7.7-5.7 3.6-11.3 7-17.2 10.2-15.5 8.4-30.1 18.2-45.9 25.9-12.3 6-24.8 12.5-37.5 17.6-4.2 1.7-8.4 3.3-12.5 5.1-1.8.8-3.6 1.5-5.3 2.4-.1.1-.2.1-.3.2-.6 1.7-2.1 3.1-4.6 3.1h-1c-1.5 0-3.1-.6-4.2-1.6-.3 1.4-.6 2.8-.9 4.2-1.6 7.4-3.5 15.1-3 22.7.5 6.9 4.2 13.6 7.8 19.4 2 3.2 4.2 6.4 6.3 9.6.5-.4 1-.7 1.7-.9 27.5-9 52.6-23.4 79.3-34.3 11.4-4.7 22.9-9.3 34.1-14.5 5.9-2.8 11.9-5.7 17.5-9 2.6-1.5 5.1-3.1 7.6-4.8 1.1-.8 2.2-1.8 3.6-2.3.2-.1.4-.1.6-.2 1.6-1 3.4-1.1 4.9-.5C318.7 319.8 315.5 306.4 311.5 293.3zM280.8 57.4c-7.3-9.4-18-11.5-29.5-10.6-1.9.1-3.9.3-5.8.5 1.2 2.7.7 6.4-2.7 8-15.9 7.5-31 22.8-49.4 23.3-.9 0-1.6-.1-2.3-.4-.3 1-.5 2-.7 3-.2 1-.5 1.8-1 2.5.6 1.5.4 3.3-1 4.9.1.8.1 1.7.3 2.5.7 2.7 1.6 5.3 2.7 7.9 1 2.5 2.1 4.9 3.2 7.3.2-.1.4-.2.7-.3 16.7-6.5 32.9-14.2 50-19.5 7-2.2 14.1-4.1 20.8-7.1 3-1.3 6-2.8 8.6-4.8 1-.8 1.9-1.6 2.8-2.2-.1-.9.1-1.8.6-2.6 1.7-2.9 4.5-4.4 7.5-5.5C284.1 61.8 282.5 59.5 280.8 57.4z"/><path fill="#3AB37C" d="M382 44.2c-2.2-7.5-8.8-12.3-15.3-16.1-2.2-1.2-4.4-2.4-6.7-3.4.9 6.8 1 13.7-2.3 19.8-2.4 4.6-5.8 8.6-9.1 12.6 6.9-1.8 13.9-3.3 20.9-4.6.8-.6 1.8-.9 3.1-.9.8 0 1.6 0 2.4-.1.1 0 .3 0 .4 0C379.5 51.2 383.5 49.5 382 44.2zM304.6 43.4c-4.2-.1-15.6-1-19.7 2.2 2.8 2.6 5.2 5.6 7.3 8.9 3.8 5.7 7.3 11.4 9.8 17.8.7 1.8 1.5 3.9 2 6.1.1 0 .1.1.2.1 1.8-3.4 4.8-6.1 8.3-8.3 0-.3 0-.6.1-1 1-7.3 5-14.5 9.1-20.5.9-1.3 1.8-2.7 2.8-4C317.8 44.2 311.2 43.5 304.6 43.4z"/><path fill="#BCBCBC" d="M348.1 20.3c-3.2-1-6.5-1.8-9.9-2.5 4.1 3.2 7.5 7.2 8.8 12.2 1.7 6.2-1.4 10.3-6.1 12.6-4.5 3.4-8 8.5-10.8 13.2-1.6 2.7-3.2 5.4-4.5 8.4 2.3-.8 4.4-1.5 6.4-2.1 0-.1.1-.2.1-.3 4-7.5 11-13 14.9-20.5C350.5 34.4 349.5 27.4 348.1 20.3zM298.9 256.3c-.5.5-1.2.8-2.1 1-11.5 2.9-21.3 10.2-31.5 16-10.7 6.1-22.2 10.7-33.2 16.1-10.4 5.1-20.4 10.4-30.5 16.1-8.9 5.1-18.7 10.4-29.3 10-1.8-.1-3.2-.8-4.1-1.9-1.4 6.9-2.8 13.8-4.1 20.7 1.4-1 3.1-1.7 4.7-2.5 4.5-2.1 9.1-4 13.7-5.9 12.4-5 24.4-11 36.4-16.8 17.3-8.3 33.3-18.9 50.2-28.1 6.1-3.3 11.9-7.1 17.8-10.7 4.4-2.7 9.2-6 14.2-7.6C300.4 260.7 299.7 258.5 298.9 256.3zM280.9 190.1c-6.5 2.8-12.2 7.1-18.6 10-7.1 3.1-14.5 5-21.8 7.6-15.5 5.6-30.8 11.2-45.6 18.6-1 .5-1.9.6-2.7.6-1.6 4.8-3.2 9.7-4.8 14.5 6.5-2.8 12.4-7.3 18.8-10.5 7.9-3.9 16.1-7.2 24-11 17-8.1 33.3-17.6 51-24 .3-.1.7-.2 1-.3C281.7 193.8 281.3 192 280.9 190.1z"/><path fill="#71C598" d="M284.7 206.3c-18.2 6.6-35.5 16-52.6 24.9-7.7 4-16.2 6.5-23.8 10.7-7.1 3.9-13.7 9.1-21.6 11.3-1.1.3-2.1.3-3 .1-.3 1.1-.6 2.2-1 3.3-4.3 15.1-8.3 30.4-12 45.7-.2.8-.4 1.6-.6 2.4.4-.1.8-.1 1.3-.1 10.8.4 20.5-6 29.4-11.4 9.9-6 20.5-10.7 30.9-15.8 11.1-5.5 22.5-10.2 33.1-16.6 8.9-5.4 18.1-11.3 28.3-13.9 1-.3 1.9-.2 2.8 0C291.9 233.5 288.1 219.9 284.7 206.3zM284.9 99.8c-6.8 3.4-13.9 6.1-20.8 9.4-18.9 8.9-37.4 19.4-57.3 26.1-.5.2-1 .3-1.5.3 1.8 5.3 4.1 10.4 7.9 15 9.2-3.3 19-5.5 28.6-6.8 10-1.3 20.6-1.9 30.4.9.2-.4.4-.8.7-1.2 6.9-9.6 12.6-20.4 16.2-31.7 1.7-5.4 2.9-11 4.1-16.5C290.6 97 287.7 98.4 284.9 99.8z"/><path fill="#BCBCBC" d="M292.4,77.9c-0.5-1.3-1-2.7-1.6-4c-0.4,0.1-0.7,0.3-1.1,0.4c0,0.9-0.2,1.9-0.5,2.7c-1,2.2-2.4,2.6-4.4,3.6c-0.7,0.4-1,0.6-1,0.5c-0.4,0.4-0.8,0.8-1.3,1.2c-2.8,2.4-6,4.3-9.3,5.9c-7,3.4-14.4,5.7-21.9,8c-17.9,5.5-34.9,13.4-52.3,20.2c1.2,3,2.2,6.1,3.1,9.2c0.3-0.2,0.6-0.3,1-0.5c18.8-6.4,36.8-16,54.5-24.8c6.2-3.1,12.6-5.5,18.8-8.4c3.9-1.8,11.2-4.4,13.5-8c0.9-1.3,2-2.1,3.3-2.5C293.2,80.1,292.8,79,292.4,77.9z"/><path fill="#010101" d="M382.6,26c-19.5-16.9-48-22.2-73.1-21.4c-1.1,0-2,0.3-2.7,0.8c-21.5-3.9-43.8-0.9-65.2,4.2c-15.4,3.6-30.7,7.9-45.9,12.5c-6.5,2-12.9,4.3-19.4,6.4c-5.1,1.7-10.5,2.7-15.7,4.3c-7.3,2.2-15.8,5.9-19,13.3c-1,2.4-1.1,4.6-0.5,6.6c-3.6,4.3-5.7,10.8-7.3,15.4c-2.9,8.6-5.1,17.4-3.1,26.5c2.3,10.9,13.3,15.5,23.1,17.3c5.5,1,11.1,1.2,16.6,1.8c5.4,0.6,10.8,1.6,16.3,1.9c5.9,13.7,7.5,29.2,17.2,41c-0.2,1-0.2,2,0,2.9c-2.3,4.6-3.9,9.4-5.4,14.4c-2.3,7.9-4.8,15.7-7.5,23.5c-5.1,14.8-10.6,29.5-15.2,44.5c-9.3,30.2-16.2,60.9-22.6,91.8c-2.8,13.5-8.5,29.2-5.1,42.9c3.5,14,12.8,25.4,20.5,37.2c4,6.2,7.7,12.5,11.6,18.7c4.3,6.8,9.5,12.7,14.8,18.6c10.1,11.3,20.1,22.4,29,34.6c4.8,6.5,9.9,12.3,16.4,16.8c0.3,1.4,1.2,2.7,3,3.4c19.8,7.7,34.1-8.8,43.5-24.2c4.4-7.2,7.9-14.8,11.8-22.3c6.4-12,14.1-23.2,21.1-34.9c7-11.6,13-23.7,16-37c3.2-14.1,1.6-29.1-0.9-43.1c-5.4-30.7-14.8-60.4-25.1-89.7c-11.4-32.8-19.4-67.1-25.7-101.2c-0.3-1.8-1.4-3.1-2.7-3.9c6.8-9.7,12.4-20,16.5-31.2c3.5-9.6,4.6-19.7,7.5-29.4c3.2,0.9,7.5-1.1,7.7-5.5c0,0.6,0,0.4,0.5-0.5c-0.4,0.7,1-1.1,1.1-1.1c2-1.8,4.4-3.1,6.8-4.3c6-3.1,12.7-5.2,19.2-7.1c11.3-3.4,22.8-6.1,34.5-8.1c0,0,0.1,0,0.1,0c8.1-0.4,15.4-4.4,17.3-12.9C394.9,40.7,389,31.5,382.6,26z M179.8,81.6c-3.6,3.7-2.3,9.5-1.2,13.9c0.8,3,1.9,5.9,3.1,8.8c-6.6-0.6-13.2-1.8-19.7-2.4c-6.8-0.7-17-1.5-20.2-8.7c-2.6-5.8-0.2-12.7,1.4-18.5c0.9-3.3,2.2-6.6,3.6-9.7c0.6-1.4,1.3-2.7,2-4c10.1,5.5,23,6,34.4,7.2c-1.7,3.5-3,7.1-3.6,10.8C179.5,80,179.5,80.9,179.8,81.6z M168.6,55.4c-3.7-0.6-7.3-1.4-10.9-2.5c-1.9-0.6-4.8-1.9-5.8-2.8c0.6-0.9,1.6-1.8,2.4-2.5c4.2-3.3,10.1-4.5,15.1-5.8c12.5-3.3,24.7-7.7,37.1-11.4c30.2-8.8,62.6-19.3,94.4-14.9c9.9,1.4,21.1,4.2,29.4,10.1c1.8,1.3,3.3,2.8,4.6,4.7c0.5,0.7,0.9,1.4,1.2,2.2c-0.1,0-0.1,0.1-0.2,0.1c-0.1,0.1-0.2,0.1-0.2,0.2c-3.2,1.1-6.5,1-9.9,0.9c-9.7-0.4-19.3-1.5-29-1.2c-7.3,0.2-15.8,1.3-20.9,6.8c-5.8-2.6-12.6-3.2-18.9-3.5c-5-0.3-10.1,0.4-15.1,0.9c-5.2,0.6-10.5,0.5-15.6,1.1c-8.9,1-17.3-0.6-25,5.2c-5.2,3.9-9,9.8-12.4,15.2c-0.5-0.3-1.2-0.5-1.9-0.6C180.9,57,174.7,56.4,168.6,55.4z M232.4,48.4c-5.5,3.1-10.8,6.5-16.3,9.8c-6,3.6-12.8,7.7-19.8,9c0.1-0.2,0.2-0.4,0.3-0.6c2.9-5.1,6.3-10.1,10.6-14.3c4.6-4.6,12.7-3.2,18.6-3.5C228,48.8,230.2,48.6,232.4,48.4z M194.5,106.2c-1.1-2.4-2.2-4.9-3.2-7.3c-1-2.6-2-5.2-2.7-7.9c-0.2-0.8-0.3-1.6-0.3-2.5c1.4-1.6,1.6-3.3,1-4.9c0.5-0.6,0.9-1.5,1-2.5c0.2-1,0.4-2,0.7-3c0.7,0.3,1.5,0.4,2.3,0.4c18.4-0.5,33.5-15.8,49.4-23.3c3.4-1.6,4-5.4,2.7-8c1.9-0.2,3.9-0.3,5.8-0.5c11.5-0.9,22.2,1.2,29.5,10.6c1.7,2.2,3.2,4.4,4.7,6.8c-3,1.1-5.7,2.6-7.5,5.5c-0.5,0.8-0.7,1.7-0.6,2.6c-0.9,0.7-1.8,1.4-2.8,2.2c-2.6,2-5.6,3.5-8.6,4.8c-6.7,2.9-13.8,4.9-20.8,7.1c-17.1,5.3-33.4,13-50,19.5C195,106,194.7,106.1,194.5,106.2z M197.7,211.2c5.3-14.3,8.8-29.3,14.4-43.4c0.9-2.2,2-4.3,3.3-6.4c8.3-3.1,17.1-5.2,25.9-6.6c9.6-1.5,21.1-2.7,30.3,1.1c0.8,0.3,1.6,0.5,2.3,0.5c1.4,7.6,2.9,15.2,4.5,22.7c-6.4,2.5-12.1,6.3-18.1,9.6c-6.8,3.7-14.6,5.5-21.9,7.9c-14.1,4.7-28,10-41.4,16.3C197.2,212.5,197.5,211.9,197.7,211.2z M249.6,496.6c-0.3-0.6-0.7-1.2-1.3-1.7c8.3-5.4,17.2-10.1,26.4-13.8C269,489.7,260.2,499.8,249.6,496.6z M289.1,454.7c-2.3,4.4-4.6,8.9-6.9,13.4c-1.1-0.5-2.5-0.7-4-0.1c-13.6,4.7-26.8,11.6-38.8,19.6c-2.6-2.7-5-5.7-7.3-8.7c11.8-3.7,22.9-9,34.1-14.3c6.3-3,12.5-6.1,18.4-9.8c2.3-1.4,4.6-2.9,6.9-4.3C290.6,451.8,289.8,453.2,289.1,454.7z M325.9,382.4c-2,13.5-8.8,25.8-15.7,37.4c-2.8,4.6-5.6,9.2-8.5,13.7c-0.8-0.1-1.6,0.1-2.5,0.4c-12.3,5.2-22.9,13.6-35,19.4c-12.7,6.1-25.4,12.3-39,16.1c-1.5-2-3-4-4.6-5.9c-10-11.9-21.7-22.6-30.3-35.5c-0.2-0.2-0.3-0.5-0.4-0.7c4-1.2,7.8-3.6,11.4-5.7c5.2-3,10.5-5.3,16.1-7.5c13.6-5.4,27.5-10.4,40.7-16.9c12.9-6.4,25.2-14,37.8-21c5.6-3.1,11.1-6.2,16.4-9.7c4.4-2.9,8.9-5.9,13.9-7.6C327,366.7,327.1,374.6,325.9,382.4z M324.7,347.8c-0.2,0-0.3,0.1-0.5,0.1c-10.9,3.1-19.7,11.1-29.6,16.4c-12.9,6.9-25.3,14.6-38.3,21.4c-13.1,6.9-27.1,11.9-40.8,17.3c-5.8,2.3-11.7,4.4-17.1,7.6c-3,1.8-6.1,3.8-9.3,5.3c-1.8-0.2-3.8,0.5-5.1,1.9c-1.7-2.8-3.4-5.7-5.2-8.5c0-0.1-0.1-0.1-0.1-0.2c27.7-9.2,53.2-23.7,80.2-34.7c11.9-4.9,23.8-9.8,35.4-15.3c5.8-2.7,11.5-5.7,17-8.9c2.6-1.5,5.1-3.1,7.6-4.8c0.4-0.3,0.7-0.5,0.9-0.6c0.2-0.1,0.5-0.2,0.9-0.4c1.2-0.6,2.1-1.2,3.1-2.1C324,344.1,324.4,345.9,324.7,347.8z M311.5,293.3c4.1,13.1,7.3,26.5,10.3,39.9c-1.6-0.5-3.3-0.5-4.9,0.5c-0.2,0-0.4,0.1-0.6,0.2c-1.3,0.5-2.4,1.5-3.6,2.3c-2.4,1.7-5,3.3-7.6,4.8c-5.6,3.4-11.6,6.3-17.5,9c-11.2,5.2-22.7,9.9-34.1,14.5c-26.7,11-51.8,25.3-79.3,34.3c-0.7,0.2-1.2,0.5-1.7,0.9c-2.2-3.2-4.3-6.3-6.3-9.6c-3.6-5.8-7.3-12.5-7.8-19.4c-0.5-7.6,1.4-15.3,3-22.7c0.3-1.4,0.6-2.8,0.9-4.2c1.2,1,2.7,1.6,4.2,1.6h1c2.5,0,4-1.3,4.6-3.1c0.1-0.1,0.2-0.1,0.3-0.2c1.7-0.9,3.6-1.6,5.3-2.4c4.1-1.8,8.3-3.5,12.5-5.1c12.7-5.1,25.1-11.6,37.5-17.6c15.8-7.7,30.5-17.5,45.9-25.9c5.9-3.2,11.5-6.6,17.2-10.2c4.3-2.7,9-6.2,13.9-7.7C307.1,280,309.4,286.6,311.5,293.3z M298.9,256.3c0.7,2.2,1.5,4.4,2.2,6.7c-5,1.5-9.8,4.8-14.2,7.6c-5.9,3.6-11.7,7.4-17.8,10.7c-16.9,9.1-32.9,19.8-50.2,28.1c-12,5.8-24,11.8-36.4,16.8c-4.6,1.9-9.2,3.7-13.7,5.9c-1.6,0.8-3.3,1.5-4.7,2.5c1.4-6.9,2.7-13.8,4.1-20.7c1,1.1,2.3,1.9,4.1,1.9c10.6,0.4,20.4-4.9,29.3-10c10-5.8,20.1-11,30.5-16.1c11-5.4,22.5-10,33.2-16.1c10.2-5.8,19.9-13.1,31.5-16C297.7,257.1,298.4,256.7,298.9,256.3z M284.7,206.3c3.4,13.6,7.1,27.1,11.2,40.5c-0.8-0.2-1.8-0.2-2.8,0c-10.2,2.6-19.3,8.5-28.3,13.9c-10.6,6.4-22,11.2-33.1,16.6c-10.4,5.1-20.9,9.9-30.9,15.8c-8.9,5.3-18.6,11.8-29.4,11.4c-0.5,0-0.9,0-1.3,0.1c0.2-0.8,0.4-1.6,0.6-2.4c3.7-15.3,7.6-30.6,12-45.7c0.3-1.1,0.6-2.2,1-3.3c0.9,0.2,1.9,0.3,3-0.1c7.9-2.3,14.5-7.4,21.6-11.3c7.6-4.2,16.1-6.7,23.8-10.7C249.3,222.4,266.6,212.9,284.7,206.3z M282.2,195.7c-0.3,0.1-0.6,0.1-1,0.3c-17.7,6.4-34,15.9-51,24c-7.9,3.8-16.1,7.1-24,11c-6.4,3.1-12.2,7.6-18.8,10.5c1.5-4.9,3.1-9.7,4.8-14.5c0.8,0.1,1.7-0.1,2.7-0.6c14.8-7.3,30.1-12.9,45.6-18.6c7.2-2.6,14.7-4.5,21.8-7.6c6.5-2.9,12.2-7.2,18.6-10C281.3,192,281.7,193.8,282.2,195.7z M289.1,111.8c-3.6,11.3-9.3,22.1-16.2,31.7c-0.3,0.4-0.5,0.8-0.7,1.2c-9.8-2.8-20.4-2.2-30.4-0.9c-9.6,1.3-19.4,3.5-28.6,6.8c-3.8-4.6-6.1-9.7-7.9-15c0.5,0,1-0.1,1.5-0.3c19.8-6.8,38.3-17.2,57.3-26.1c6.9-3.2,14-6,20.8-9.4c2.8-1.4,5.7-2.8,8.3-4.6C291.9,100.8,290.8,106.3,289.1,111.8z M290.1,83.7c-2.3,3.7-9.6,6.2-13.5,8c-6.2,2.9-12.7,5.4-18.8,8.4c-17.8,8.8-35.7,18.4-54.5,24.8c-0.4,0.1-0.7,0.3-1,0.5c-0.9-3.1-1.9-6.2-3.1-9.2c17.4-6.8,34.4-14.6,52.3-20.2c7.4-2.3,14.9-4.6,21.9-8c3.3-1.6,6.5-3.5,9.3-5.9c0.4-0.4,0.9-0.8,1.3-1.2c0,0.1,0.3-0.1,1-0.5c2-1,3.3-1.4,4.4-3.6c0.4-0.8,0.6-1.7,0.5-2.7c0.4-0.1,0.7-0.3,1.1-0.4c0.6,1.3,1.1,2.7,1.6,4c0.4,1.1,0.7,2.2,0.9,3.3C292.1,81.5,290.9,82.3,290.1,83.7z M321.7,48.5c-4,6.1-8,13.2-9.1,20.5c0,0.3-0.1,0.7-0.1,1c-3.6,2.2-6.6,5-8.3,8.3c-0.1,0-0.1-0.1-0.2-0.1c-0.5-2.2-1.3-4.3-2-6.1c-2.5-6.4-6.1-12.1-9.8-17.8c-2.2-3.2-4.6-6.2-7.3-8.9c4-3.2,15.5-2.2,19.7-2.2c6.6,0.1,13.3,0.8,19.9,1.2C323.5,45.8,322.6,47.2,321.7,48.5z M332.1,61.7c-0.1,0.1-0.1,0.2-0.1,0.3c-2,0.6-4.1,1.3-6.4,2.1c1.3-2.9,2.9-5.7,4.5-8.4c2.8-4.7,6.4-9.8,10.8-13.2c4.7-2.3,7.8-6.4,6.1-12.6c-1.4-5-4.7-9-8.8-12.2c3.3,0.7,6.6,1.5,9.9,2.5c1.4,7.1,2.5,14.2-1.1,20.9C343.1,48.6,336.1,54.2,332.1,61.7z M375.4,51.6c-0.1,0-0.3,0-0.4,0c-0.8,0.1-1.7,0.1-2.4,0.1c-1.3,0-2.4,0.3-3.1,0.9c-7,1.3-14,2.8-20.9,4.6c3.3-4,6.7-8,9.1-12.6c3.2-6.2,3.2-13.1,2.3-19.8c2.3,1,4.5,2.2,6.7,3.4c6.6,3.7,13.2,8.5,15.3,16.1C383.5,49.5,379.5,51.2,375.4,51.6z"/></svg>