<svg xmlns="http://www.w3.org/2000/svg"  viewBox="0 0 80 80" width="100px" height="100px"><path fill="#f5ce85" d="M8.5,55.6c-1.7,0-3-1.3-3-3v-13h6v13C11.5,54.2,10.2,55.6,8.5,55.6z"/><path fill="#967a44" d="M11,40.1v12.5c0,1.4-1.1,2.5-2.5,2.5S6,53.9,6,52.6V40.1H11 M12,39.1H5v13.5c0,1.9,1.6,3.5,3.5,3.5 s3.5-1.6,3.5-3.5V39.1L12,39.1z"/><path fill="#f5ce85" d="M33.5,55.6c-1.7,0-3-1.3-3-3v-13h6v13C36.5,54.2,35.2,55.6,33.5,55.6z"/><path fill="#967a44" d="M36,40.1v12.5c0,1.4-1.1,2.5-2.5,2.5S31,53.9,31,52.6V40.1H36 M37,39.1h-7v13.5 c0,1.9,1.6,3.5,3.5,3.5s3.5-1.6,3.5-3.5V39.1L37,39.1z"/><path fill="#735f63" d="M27,77.5c-1.9,0-3.5-1.6-3.5-3.5V57.5h-5V74c0,1.9-1.6,3.5-3.5,3.5s-3.5-1.6-3.5-3.5V51.5h-6V36 c0-6.2,4.9-11.2,11-11.5l0.5,0l0.1,0h8.2c0.2,0,0.5,0,0.7,0.1C32,25.1,36.5,30,36.5,36v15.5h-6V74C30.5,75.9,28.9,77.5,27,77.5z"/><path fill="#4d3e40" d="M25.3,25c0.2,0,0.4,0,0.7,0.1c5.7,0.5,10,5.2,10,10.9v15h-5h-1v1v6v16c0,1.7-1.3,3-3,3s-3-1.3-3-3 V58v-1h-1h-4h-1v1v16c0,1.7-1.3,3-3,3s-3-1.3-3-3V58v-6v-1h-1H6V36c0-5.9,4.6-10.7,10.4-11l0.6,0c0,0,0.1,0,0.1,0H25.3 M25.3,24 h-8.2c0,0-0.1,0-0.1,0v0c-6.6,0-12,5.4-12,12v16h6v6v16c0,2.2,1.8,4,4,4s4-1.8,4-4V58h4v16c0,2.2,1.8,4,4,4s4-1.8,4-4V58v-6h6V36 c0-6.3-4.8-11.4-10.9-11.9C25.8,24,25.6,24,25.3,24L25.3,24z"/><path fill="#f5ce85" d="M17.5 18.5H24.5V25.6H17.5z"/><path fill="#967a44" d="M24,19v6.1h-6V19H24 M25,18h-8v8.1h8V18L25,18z"/><path fill="#deb974" d="M26.3,17.2c-1,0-1.8-0.8-1.8-1.8s0.8-1.8,1.8-1.8c1.6,0,1.8,0.5,1.8,1C28,15.7,27.1,17.2,26.3,17.2 z M15.8,17.2c-0.9,0-1.8-1.5-1.8-2.5c0-0.5,0.1-1,1.8-1c1,0,1.8,0.8,1.8,1.8S16.7,17.2,15.8,17.2z"/><path fill="#967a44" d="M26.3,14.2c1.3,0,1.3,0.3,1.3,0.5c0,0.8-0.7,2-1.3,2c-0.7,0-1.3-0.6-1.3-1.3S25.6,14.2,26.3,14.2 M15.8,14.2c0.7,0,1.3,0.6,1.3,1.3s-0.6,1.3-1.3,1.3c-0.5,0-1.3-1.2-1.3-2C14.5,14.4,14.5,14.2,15.8,14.2 M26.3,13.2 c-1.2,0-2.3,1-2.3,2.3s1,2.3,2.3,2.3s2.3-1.8,2.3-3S27.5,13.2,26.3,13.2L26.3,13.2z M15.8,13.2c-1.2,0-2.3,0.3-2.3,1.5s1,3,2.3,3 s2.3-1,2.3-2.3C18,14.2,17,13.2,15.8,13.2L15.8,13.2z"/><path fill="#f5ce85" d="M21,22.5c-3,0-5.5-2.5-5.5-5.5V7.1h11V17C26.5,20,24,22.5,21,22.5z"/><path fill="#967a44" d="M26,7.6V17c0,2.8-2.2,5-5,5s-5-2.2-5-5V7.6H26 M27,6.6H15c0,0.9,0,9.5,0,10.4c0,3.3,2.7,6,6,6 s6-2.7,6-6C27,16.1,27,7.5,27,6.6L27,6.6z"/><path fill="#a6714e" d="M26.5,15.7v-4.8l-4.1-2.2l-0.2,0.1c0,0-4.2,1.8-6.2,2.3l-0.4,0.1v4.6h-0.2c-0.4-1-1.8-4.2-1.8-6.1 c0-3.2,1.9-6.9,7.1-6.9c3.1,0,3.9,1.6,3.9,1.7l0.1,0.3l0.3,0c2.9,0,3.5,2.8,3.5,5.1c0,1.6-1.4,5-1.8,6L26.5,15.7L26.5,15.7z"/><path fill="#7a4f34" d="M20.6,3.1c2.7,0,3.5,1.3,3.5,1.4l0.3,0.6H25c2,0,3,1.6,3,4.6c0,0.9-0.5,2.5-1,3.8v-2.4v-0.6 l-0.5-0.3l-3.7-2L22.4,8l-0.4,0.2c0,0-4.1,1.8-6.2,2.3L15,10.7v0.8v2.1c-0.5-1.4-1-3-1-4C14,6.6,15.7,3.1,20.6,3.1 M20.6,2.1 c-5.1,0-7.6,3.5-7.6,7.4c0,2.4,2,6.6,2,6.6h1c0-2.8,0-4.7,0-4.7c2.1-0.5,6.3-2.3,6.3-2.3l3.7,2v5h1c0,0,2-4.4,2-6.5 c0-3.3-1.2-5.6-4-5.6C25,4.1,24.1,2.1,20.6,2.1L20.6,2.1z"/><path fill="#fff" d="M21 37L17 25 25 25z"/><path fill="#4d3e40" d="M30 36H31V53H30zM11 36H12V53H11z"/><path fill="#f5ce85" d="M45.5,55.5c-1.4,0-2.5-1.1-2.5-2.5V32.5h5V53C48,54.4,46.9,55.5,45.5,55.5z"/><path fill="#967a44" d="M47.5,33v20c0,1.1-0.9,2-2,2s-2-0.9-2-2V33H47.5 M48.5,32h-6v21c0,1.7,1.3,3,3,3s3-1.3,3-3V32 L48.5,32z"/><path fill="#f5ce85" d="M65.5,55.5c-1.4,0-2.5-1.1-2.5-2.5V32.5h5V53C68,54.4,66.9,55.5,65.5,55.5z"/><path fill="#967a44" d="M67.5,33v20c0,1.1-0.9,2-2,2s-2-0.9-2-2V33H67.5 M68.5,32h-6v21c0,1.7,1.3,3,3,3c1.7,0,3-1.3,3-3 V32L68.5,32z"/><path fill="#f5ce85" d="M52.5,77.5c-1.7,0-3-1.3-3-3v-22h6v22C55.5,76.2,54.2,77.5,52.5,77.5z"/><path fill="#967a44" d="M55,53v21.5c0,1.4-1.1,2.5-2.5,2.5S50,75.9,50,74.5V53H55 M56,52h-7v22.5c0,1.9,1.6,3.5,3.5,3.5 s3.5-1.6,3.5-3.5V52L56,52z"/><g><path fill="#f5ce85" d="M58.5,77.5c-1.7,0-3-1.3-3-3v-22h6v22C61.5,76.2,60.2,77.5,58.5,77.5z"/><path fill="#967a44" d="M61,53v21.5c0,1.4-1.1,2.5-2.5,2.5S56,75.9,56,74.5V53H61 M62,52h-7v22.5c0,1.9,1.6,3.5,3.5,3.5 s3.5-1.6,3.5-3.5V52L62,52z"/></g><g><path fill="#ffc49c" d="M48,47.5v-14h-5v-1.6c0-4.1,3.3-7.4,7.4-7.4h10.3c4.1,0,7.4,3.3,7.4,7.4v1.6h-5v14H48z"/><path fill="#a16a4a" d="M60.6,25c3.8,0,6.9,3.1,6.9,6.9V33h-4h-1v1v13h-14V34v-1h-1h-4v-1.1c0-3.8,3.1-6.9,6.9-6.9h1.1h8 H60.6 M60.6,24h-1.1h-8h-1.1c-4.3,0-7.9,3.5-7.9,7.9V34h5v14h16V34h5v-2.1C68.5,27.5,65,24,60.6,24L60.6,24z"/></g><g><path fill="#ffc49c" d="M55.5,59.5c-7.2,0-12.8-1.9-14.4-2.5l6.7-18.2h15.3L69.9,57C68.3,57.6,62.7,59.5,55.5,59.5z"/><path fill="#a16a4a" d="M62.8,39.3l6.4,17.4c-2,0.7-7.2,2.3-13.7,2.3s-11.7-1.6-13.7-2.3l6.4-17.4L62.8,39.3 M63.5,38.3 h-16l-7,19c0,0,6.3,2.7,15,2.7s15-2.7,15-2.7L63.5,38.3L63.5,38.3z"/></g><g><path fill="#f5ce85" d="M55.5,29.5c-1.7,0-2.4-1-2.5-1.2v-7h5v7C57.9,28.5,57.3,29.5,55.5,29.5z"/><path fill="#967a44" d="M57.5,21.8v6.3c-0.2,0.3-0.7,0.9-2,0.9c-1.3,0-1.8-0.6-2-0.9v-6.3L57.5,21.8 M58.5,20.8h-6v7.6 c0,0,0.6,1.6,3,1.6s3-1.6,3-1.6V20.8L58.5,20.8z"/></g><path fill="#ffc49c" d="M51.4 26.4H59.5V34.5H51.4z"/><path fill="#fff" d="M50.5 25l2-1c0 0 .9 2.4 2.9 2.4L52.5 31 50.5 25zM60.5 25l-2-1c0 0-.9 2.4-2.9 2.4l2.9 4.6L60.5 25z"/><g><path fill="#f5ce85" d="M55.5,23.5c-2.5,0-4.5-2-4.5-4.5V8.5h9V19C60,21.5,58,23.5,55.5,23.5z"/><path fill="#967a44" d="M59.5,9v10c0,2.2-1.8,4-4,4s-4-1.8-4-4V9H59.5 M60.5,8h-10c0,0.7,0,10.3,0,11c0,2.8,2.2,5,5,5 s5-2.2,5-5C60.5,18.3,60.5,8.7,60.5,8L60.5,8z"/></g><g><path fill="#a6714e" d="M60,13.5l-1.4-3.4l-0.5,0.7c0,0-3,3.6-6.6,3.6H51v6.7l-6-3.4c0.1-7.1,2.6-15.2,9.5-15.2 c2.6,0,3.5,1.7,3.6,1.7l0.1,0.3h0.3c6.6,0,7.5,9,7.5,13.2l-6,3.4V13.5z"/><path fill="#7a4f34" d="M54.5,3c2.3,0,3.1,1.4,3.1,1.5L57.9,5h0.6c6,0,6.9,8.3,7,12.4l-5,2.9v-6.7v-0.2l-0.1-0.2l-1-2.5 l-0.6-1.6l-1.1,1.3c0,0-2.9,3.5-6.2,3.5h-1v1v5.3l-5-2.9C45.6,10.6,48,3,54.5,3 M54.5,2c-7.6,0-10,9-10,16l7,4v-7.1 c3.9,0,7-3.8,7-3.8l1,2.5V22l7-4c0-5.4-1.2-14-8-14C58.5,4,57.4,2,54.5,2L54.5,2z"/></g></svg>