<svg xmlns="http://www.w3.org/2000/svg"  viewBox="0 0 48 48" width="144px" height="144px"><path fill="#455A64" d="M43,12.5C43,8.358,34.493,5,24,5S5,8.358,5,12.5c0,2.138,2.277,4.062,5.912,5.428L10,38c0,0,0.063,5,14,5s14-5,14-5l-0.912-20.072C40.723,16.562,43,14.638,43,12.5z"/><path fill="#90A4AE" d="M37.323,23.108l-0.235-5.18C33.679,19.209,29.078,20,24,20c-5.078,0-9.679-0.791-13.088-2.072l-0.235,5.18C14.705,24.383,19.42,25,24,25S33.295,24.383,37.323,23.108z"/><path fill="#212121" d="M24 9A12 3 0 1 0 24 15A12 3 0 1 0 24 9Z"/></svg>