<svg xmlns="http://www.w3.org/2000/svg"  viewBox="0 0 80 80" width="100px" height="100px"><path fill="#8bb7f0" d="M27.8,78c-0.6,0-1-0.4-1-1s0.4-1,1-1c9.1,0,11.2-5.9,11.3-6.1c0.2-0.5,0.7-0.8,1.3-0.6 c0.5,0.2,0.8,0.7,0.6,1.3C40.8,70.8,38.4,78,27.8,78z"/><path fill="#c2e8ff" d="M41.6,75.5c-1.7,0-3.5-0.5-5.1-1.3c-2.1-1.1-3.6-2.9-4-4.6c-0.2-1.1,0-2.2,0.7-3.1 c1-1.3,2.9-2,5.1-2c1.7,0,3.5,0.5,5.1,1.3c2.1,1.1,3.6,2.9,4,4.6c0.2,1.1,0,2.2-0.7,3.1C45.7,74.8,43.9,75.5,41.6,75.5z"/><path fill="#8bb7f0" d="M38.3,65L38.3,65c1.6,0,3.4,0.4,4.8,1.2c2,1.1,3.4,2.7,3.7,4.3c0.2,1,0,1.9-0.6,2.7 c-0.9,1.2-2.6,1.8-4.7,1.8c-1.6,0-3.4-0.4-4.8-1.2c-2-1.1-3.4-2.7-3.7-4.3c-0.2-1,0-1.9,0.6-2.7C34.6,65.7,36.3,65,38.3,65 M38.3,64c-2.3,0-4.3,0.8-5.5,2.2c-2,2.6-0.5,6.3,3.4,8.4c1.7,0.9,3.6,1.4,5.3,1.4c2.3,0,4.3-0.8,5.5-2.2c2-2.6,0.5-6.3-3.4-8.4 C42,64.4,40.1,64,38.3,64L38.3,64z"/><path fill="#c2e8ff" d="M47.2,69.5c-2.7,0-5.6-0.8-8.3-2.3c-3.4-1.9-5.8-4.7-6.3-7.2c-0.3-1.3,0-2.4,0.7-3.3 c1-1.4,3-2.1,5.5-2.1c2.7,0,5.6,0.8,8.3,2.3c3.4,1.9,5.8,4.7,6.3,7.2c0.3,1.3,0,2.4-0.7,3.3C51.7,68.8,49.7,69.5,47.2,69.5z"/><path fill="#8bb7f0" d="M38.8,55L38.8,55c2.6,0,5.4,0.8,8,2.3c3.3,1.8,5.6,4.5,6.1,6.9c0.2,1.1,0,2.1-0.6,2.9 c-0.9,1.2-2.8,1.9-5.1,1.9c-2.6,0-5.4-0.8-8-2.3c-3.3-1.8-5.6-4.5-6.1-6.9c-0.2-1.1,0-2.1,0.6-2.9C34.6,55.7,36.4,55,38.8,55 M38.8,54c-2.6,0-4.7,0.8-5.9,2.3c-2.4,3.1,0.2,8.2,5.8,11.3c2.8,1.6,5.9,2.4,8.5,2.4c2.6,0,4.7-0.8,5.9-2.3 c2.4-3.1-0.2-8.2-5.8-11.3C44.5,54.8,41.4,54,38.8,54L38.8,54z"/><path fill="#c2e8ff" d="M48.7,61.5c-11.1,0-18.2-7.8-18.2-13.1l0-0.6c0-2.1,0-3.4,0.7-4.1c1.1-1.1,4.6-1.1,12.2-1.1 c14.4,0,18.2,7.5,18.2,11.5C61.5,59.2,55,61.5,48.7,61.5z"/><path fill="#7496c4" d="M43.4,42v1C57.3,43,61,50.2,61,54c0,4.9-6.2,7-12.3,7C37.1,61,31,52.8,31,48.4l0-0.6 c0-1.9,0-3.2,0.5-3.7c1-1,4.8-1,11.8-1L43.4,42 M43.4,42C43.4,42,43.3,42,43.4,42C29.5,42,30,42.1,30,48.4C30,53.7,36.9,62,48.7,62 C55,62,62,59.7,62,54C62,49.1,57.2,42,43.4,42L43.4,42z"/><path fill="#c2e8ff" d="M48,53.5c-14.4,0-22.7-9.6-22.8-9.6c-1-1.2-1.3-2.2-0.8-3.1c1.7-3.5,13.6-4.3,17.6-4.3 c1,0,2.8,0,4.9,0c2.9,0,6.4,0,9,0c3.2,0,3.9,0,4,0c6.6,1.4,7.6,5.3,7.6,7.5C67.5,46.6,63.9,53.5,48,53.5z"/><path fill="#7496c4" d="M55.9,37c3,0,3.7,0,3.9,0c6.3,1.3,7.2,5,7.2,7c0,0.1-0.6,9-19,9c-14.2,0-22.3-9.4-22.4-9.5 c-1.3-1.6-0.9-2.3-0.8-2.6c1.4-3,12.2-4,17.2-4c1,0,2.8,0,4.9,0C49.8,37,53.3,37,55.9,37 M55.9,36c-4.5,0-11.5,0-13.9,0 c-2.8,0-23.3,0.6-17.2,8.2c0,0,8.3,9.8,23.2,9.8c17.2,0,20-7.8,20-10c0-2.6-1.3-6.6-8-8C59.8,36,58.2,36,55.9,36L55.9,36z"/><g><path fill="#8bb7f0" d="M39.1,45.5c-17.4,0-30.2-8-30.5-19l57.6-1.9c4.2,2.5,3.3,6.4,3.3,6.4c0,0,0,0.1,0,0.1 C69.4,35.4,60.7,45.5,39.1,45.5z"/><path fill="#4e7ab5" d="M65.9,25.1c3.7,2.3,3,5.6,3,5.8c0,0.1,0,0.2,0,0.2c0,4.1-8.6,13.9-29.8,13.9C22.2,45,9.8,37.5,9,27 L65.9,25.1 M66.2,24.1L8,26C8,38.2,22,46,39.1,46c22.4,0,30.8-10.6,30.8-14.9C69.9,31.1,71,26.8,66.2,24.1L66.2,24.1z"/></g><g><path fill="#8bb7f0" d="M29.9,37.5C17.3,37.5,8.5,33.2,8.5,27C8.5,17.2,20.3,7.7,37.1,4c4.3-1,8.5-1.4,12.6-1.4 c11.9,0,20.4,4.1,21.7,10.5c1.8,8.8-10.9,19.1-28.2,23C38.7,37,34.3,37.5,29.9,37.5z"/><path fill="#4e7ab5" d="M49.7,2v1c11.6,0,20,4,21.2,10.1c1.7,8.6-10.8,18.6-27.9,22.4c-4.3,1-8.8,1.5-13.1,1.5 C17.6,37,9,32.9,9,27C9,17.4,20.6,8.1,37.2,4.4C41.4,3.5,45.6,3,49.7,3L49.7,2 M49.7,2c-4,0-8.3,0.5-12.7,1.5C19.4,7.4,8,17.3,8,27 c0,6.9,9.7,11,21.9,11c4.2,0,8.8-0.5,13.3-1.5C60.9,32.6,73.7,22,71.8,12.9C70.5,6.1,61.4,2,49.7,2L49.7,2z"/></g><path fill="#578dc9" d="M18.5,25.1c2.9-5.8,11.1-11.2,21.4-13.6c10.8-2.3,17.5-0.3,21.1,1.8c0,0,2.6,1.5,2.6,4.6 c0,3.7-2.7,12.3-18.6,16.9c0,0-18.3,3.5-18.3-5c0-6.5,14.4-10.9,14.4-10.9C32.5,16.9,24.9,18.7,18.5,25.1z"/><path fill="#4e7ab5" d="M37.2,36c-3.4,0-7.1-0.5-9.2-2.3c-1.2-1-1.8-2.4-1.8-4c0-6.8,14.2-11.1,14.8-11.3 c0.3-0.1,0.5,0.1,0.6,0.3c0.1,0.3-0.1,0.5-0.3,0.6c-0.1,0-14,4.3-14,10.4c0,1.3,0.5,2.4,1.5,3.2c4.3,3.5,16.1,1.3,16.2,1.3 C62.2,29.2,63,19.7,63,17.9c0-2.7-2.2-4.1-2.3-4.2c-3.6-2-10.1-4-20.7-1.7c-9.9,2.3-18.2,7.5-21,13.3c-0.1,0.2-0.4,0.4-0.7,0.2 c-0.2-0.1-0.3-0.4-0.2-0.7c3-6.1,11.3-11.4,21.7-13.8c11-2.3,17.7-0.3,21.4,1.8c0.1,0.1,2.8,1.7,2.8,5c0,2-0.9,12.1-19,17.4 C44.8,35.3,41.2,36,37.2,36z"/></svg>