<svg xmlns="http://www.w3.org/2000/svg"  viewBox="0 0 48 48" width="144px" height="144px" baseProfile="basic"><linearGradient id="djCgeVWfjrQY23kOMgwbja" x1="20.421" x2="27.992" y1="2.933" y2="45.04" gradientUnits="userSpaceOnUse"><stop offset="0" stop-color="#23a6ed"/><stop offset="1" stop-color="#007ed1"/></linearGradient><path fill="url(#djCgeVWfjrQY23kOMgwbja)" d="M12,7l0.974,37.026c0.014,0.542,0.458,0.974,1,0.974h7.166c0.526,0,0.962-0.407,0.998-0.931 L24,17.001l1.862,27.068C25.898,44.593,26.334,45,26.86,45h7.166c0.542,0,0.985-0.432,1-0.974L36,7H12z"/><linearGradient id="djCgeVWfjrQY23kOMgwbjb" x1="23.602" x2="24.657" y1="2.981" y2="10.893" gradientUnits="userSpaceOnUse"><stop offset="0" stop-color="#23a6ed"/><stop offset="1" stop-color="#007ed1"/></linearGradient><path fill="url(#djCgeVWfjrQY23kOMgwbjb)" d="M13,3h22c0.552,0,1,0.448,1,1v4H12V4 C12,3.448,12.448,3,13,3z"/><linearGradient id="djCgeVWfjrQY23kOMgwbjc" x1="23.443" x2="24.043" y1=".948" y2="5.848" gradientUnits="userSpaceOnUse"><stop offset="0" stop-color="#a4e1f4"/><stop offset="1" stop-color="#44c2f9"/></linearGradient><path fill="url(#djCgeVWfjrQY23kOMgwbjc)" d="M15,3h2v5h-2V3z M31,3h2v5h-2V3z"/><linearGradient id="djCgeVWfjrQY23kOMgwbjd" x1="23.724" x2="24.45" y1="4.059" y2="7.853" gradientUnits="userSpaceOnUse"><stop offset="0" stop-color="#ffca41"/><stop offset="1" stop-color="#e05d26"/></linearGradient><path fill="url(#djCgeVWfjrQY23kOMgwbjd)" d="M24,4c-0.828,0-1.5,0.672-1.5,1.5 S23.172,7,24,7s1.5-0.672,1.5-1.5S24.828,4,24,4z"/><linearGradient id="djCgeVWfjrQY23kOMgwbje" x1="23.951" x2="24.284" y1="7.73" y2="15.264" gradientUnits="userSpaceOnUse"><stop offset=".003" stop-color="#0090e6"/><stop offset="1" stop-color="#0065a0"/></linearGradient><path fill="url(#djCgeVWfjrQY23kOMgwbje)" d="M23,16V8h2v6C25,14,25,16,23,16z M31,8 h5.006l-0.184,5.988C31,13.988,31,8,31,8z M17,8h-5l0.184,5.988C17,13.988,17,8,17,8z"/></svg>