<svg xmlns="http://www.w3.org/2000/svg"  viewBox="0 0 512 512" width="100px" height="100px"><path fill="#5fcda4" d="M465.34,256h-150a59.167,59.167,0,0,0-17.4-41.94l.02-.02,106-106A208.718,208.718,0,0,1,465.34,256Z"/><path fill="#b9d69c" d="M315.34,256h150a208.718,208.718,0,0,1-61.38,147.96l-106-106-.02-.02A59.167,59.167,0,0,0,315.34,256Z"/><path fill="#6994fe" d="M108.04,403.96A209.023,209.023,0,1,0,46.66,256,208.718,208.718,0,0,0,108.04,403.96ZM256,16c132.55,0,240,107.45,240,240S388.55,496,256,496,16,388.55,16,256,123.45,16,256,16Z"/><path fill="#f58387" d="M256,46.66V92.25l14.32,106.16a59.333,59.333,0,0,1,27.62,15.65l.02-.02,106-106A208.718,208.718,0,0,0,256,46.66Z"/><path fill="#72bcef" d="M403.96,403.96A208.718,208.718,0,0,1,256,465.34v-150a59.167,59.167,0,0,0,41.94-17.4l.02.02Z"/><path fill="#53d8d8" d="M108.04,108.04l106,106,.02.02a59.336,59.336,0,0,1,27.5-15.62L256,92.25V46.66A208.718,208.718,0,0,0,108.04,108.04Z"/><path fill="#8f8fb7" d="M256,315.34v150a208.718,208.718,0,0,1-147.96-61.38l106-106,.02-.02A59.167,59.167,0,0,0,256,315.34Z"/><path fill="#6addc7" d="M214.06,297.94l-.02.02-106,106A208.718,208.718,0,0,1,46.66,256h150A59.167,59.167,0,0,0,214.06,297.94Z"/><path fill="#efce7c" d="M214.04,214.04l.02.02A59.167,59.167,0,0,0,196.66,256h-150a208.718,208.718,0,0,1,61.38-147.96Z"/><polygon fill="#6d7486" points="256 92.25 227.8 132.66 241.56 132.66 241.56 198.44 270.32 198.41 270.32 132.66 282.95 132.66 256 92.25"/><path fill="#b0b5ca" d="M270.32,198.41A59.463,59.463,0,1,1,256,196.66,59.333,59.333,0,0,1,270.32,198.41Z"/><circle cx="256" cy="256" r="29.34" fill="#ccd3df"/><path fill="#41a5a2" d="M138.04,108.04h0A208.981,208.981,0,0,1,256,48.818V46.66a208.718,208.718,0,0,0-147.96,61.38L123.8,123.8A211.372,211.372,0,0,1,138.04,108.04Z"/><path fill="#70708e" d="M123.8,388.2,108.04,403.96A208.718,208.718,0,0,0,256,465.34v-2.159A208.974,208.974,0,0,1,138.04,403.96,211.372,211.372,0,0,1,123.8,388.2Z"/><path fill="#53ad9c" d="M76.66,256h-30a208.718,208.718,0,0,0,61.38,147.96L123.8,388.2A208.375,208.375,0,0,1,76.66,256Z"/><path fill="#bca061" d="M123.8,123.8,108.04,108.04h0A208.718,208.718,0,0,0,46.66,256h30A208.375,208.375,0,0,1,123.8,123.8Z"/><path fill="#284268" d="M256,220.663A35.337,35.337,0,1,0,291.337,256,35.377,35.377,0,0,0,256,220.663Zm0,58.674A23.337,23.337,0,1,1,279.337,256,23.364,23.364,0,0,1,256,279.337Z"/><path fill="#284268" d="M256,10A246,246,0,0,0,82.052,429.948a246,246,0,1,0,347.9-347.9A244.386,244.386,0,0,0,256,10ZM421.463,421.463A234,234,0,0,1,90.537,90.537,234,234,0,0,1,421.463,421.463Z"/><path fill="#284268" d="M256,40.663c-118.737,0-215.337,96.6-215.337,215.337S137.263,471.337,256,471.337,471.337,374.737,471.337,256,374.737,40.663,256,40.663Zm6,12.1a202.6,202.6,0,0,1,133.4,55.355l-97.676,97.675a65.327,65.327,0,0,0-21.408-11.874V138.66h6.632a6,6,0,0,0,4.992-9.329L262,90.43Zm9.737,73.9h-1.419a6,6,0,0,0-6,6v58.55a63.5,63.5,0,0,0-16.754.016V132.66a6,6,0,0,0-6-6H239.3l16.586-23.767ZM250,52.758v37.6l-27.124,38.867a6,6,0,0,0,4.921,9.433h7.767v55.293a65.363,65.363,0,0,0-21.29,11.836L116.6,108.113A202.6,202.6,0,0,1,250,52.758ZM108.113,116.6l97.674,97.674A64.989,64.989,0,0,0,190.946,250H52.758A202.6,202.6,0,0,1,108.113,116.6ZM52.758,262H190.949a65.035,65.035,0,0,0,14.827,35.738L108.113,395.4A202.6,202.6,0,0,1,52.758,262ZM250,459.242a202.6,202.6,0,0,1-133.4-55.355l97.663-97.663A65.041,65.041,0,0,0,250,321.051ZM202.663,256A53.337,53.337,0,1,1,256,309.337,53.4,53.4,0,0,1,202.663,256ZM262,459.242V321.051a65.041,65.041,0,0,0,35.739-14.827L395.4,403.887A202.6,202.6,0,0,1,262,459.242ZM403.887,395.4l-97.663-97.664A65.042,65.042,0,0,0,321.051,262H459.242A202.6,202.6,0,0,1,403.887,395.4ZM321.054,250a64.989,64.989,0,0,0-14.841-35.728L403.887,116.6A202.6,202.6,0,0,1,459.242,250Z"/><path fill="#284268" d="M182.435,356.656,138.278,405.84a6,6,0,1,0,8.93,8.017l44.157-49.184a6,6,0,0,0-8.93-8.017Z"/><path fill="#284268" d="M205.761,330.675l-8.637,9.62a6,6,0,1,0,8.93,8.017l8.636-9.62a6,6,0,0,0-8.929-8.017Z"/></svg>