<svg xmlns="http://www.w3.org/2000/svg"  viewBox="0 0 464 464" width="100px" height="100px"><path fill="#ff6d7a" d="M440,52c-14.482,0-409.81,0-416,0C10.75,52,0,62.75,0,76c0,29.083,0,278.856,0,312	c0,13.25,10.75,24,24,24h416c13.25,0,24-10.75,24-24c0-10.92,0-300.679,0-312C464,62.75,453.25,52,440,52z"/><path fill="#fe4f60" d="M464,76v312c0,13.255-10.745,24-24,24H148.705c-16.532,0-22.172-21.949-7.735-30.003	C266.613,311.903,336.944,187.792,343.05,52H440C453.255,52,464,62.745,464,76z"/><path fill="#e3f7fc" d="M464,76v36H207V52h233C453.25,52,464,62.75,464,76z"/><rect width="257" height="60" x="207" y="172" fill="#e3f7fc"/><rect width="464" height="60" y="292" fill="#e3f7fc"/><path fill="#9cbcff" d="M207,232H0V76c0-13.25,10.75-24,24-24h183C207,58.425,207,225.022,207,232z"/><path fill="#fff" d="M38.35,107.56C42.597,101.11,53,104.007,53,112c0,3.691-2.577,7.081-6.44,7.84	C39.706,121.316,34.375,113.458,38.35,107.56z"/><path fill="#fff" d="M95.16,110.44c0.979-4.992,6.311-7.744,10.9-5.83c7.265,3.03,6.237,13.711-1.5,15.23	C99.041,121.028,93.978,115.924,95.16,110.44z"/><path fill="#fff" d="M155.34,106.34c7.654-7.442,18.735,3.915,11.32,11.32C159.153,125.169,147.891,113.789,155.34,106.34	z"/><path fill="#fff" d="M37,172c0-7.146,8.677-10.65,13.66-5.66c3.123,3.123,3.098,8.226,0,11.32	C45.621,182.7,37,179.09,37,172z"/><path fill="#fff" d="M95,172c0-5.767,5.884-9.549,11.06-7.39c7.336,3.06,6.168,13.724-1.5,15.23	C99.848,180.854,95,177.199,95,172z"/><path fill="#fff" d="M154.35,176.44c-5.91-8.78,7.525-17.65,13.3-8.88C173.452,176.156,160.312,185.484,154.35,176.44z"/><path fill="#caf1fc" d="M250.81,292H464v60H187.2C209.16,335.53,230.79,315.75,250.81,292z"/><path fill="#caf1fc" d="M464,76v36H336.02c3.07-16.093,4.991-31.317,6.112-45.316C342.797,58.382,349.747,52,358.075,52H440	C453.255,52,464,62.745,464,76z"/><path fill="#caf1fc" d="M319.72,172H464v60H292.4C303.79,211.75,312.73,191.59,319.72,172z"/></svg>