<svg xmlns="http://www.w3.org/2000/svg"  viewBox="0 0 256 256" width="100px" height="100px"><path fill="#939598" d="M65.563,93.318l24.018,103.946c0.481,2.081,2.329,3.646,4.465,3.586 c2.937-0.081,4.91-2.782,4.285-5.488L74.286,91.302c-0.557-2.409-2.961-3.91-5.369-3.354l0,0 C66.507,88.505,65.006,90.909,65.563,93.318z"/><path fill="#E63950" d="M44.762,128.77c-2.526-16.3,8.376-32.144,25.258-36.045c-26.683,6.166-45.613,23.864-43.771,40.323 c0.136,1.217,1.324,2.033,2.517,1.757l17.776-4.107C45.788,130.871,44.949,129.975,44.762,128.77z"/><path fill="#E63950" d="M127.043,109.757c-5.565-15.598-30.34-23.198-57.023-17.033c16.882-3.901,33.63,5.554,38.511,21.31 c0.361,1.165,0,2.339-0.755,2.513l17.776-4.107C126.746,112.165,127.455,110.911,127.043,109.757z"/><path fill="#E8566F" d="M65.291,124.026c-3.284-16.125-1.283-29.912,4.728-31.301c-16.882,3.901-27.784,19.745-25.258,36.045 c0.187,1.206,1.026,2.102,1.781,1.927l19.713-4.555C65.987,126.204,65.534,125.219,65.291,124.026z"/><path fill="#E8566F" d="M108.531,114.035c-4.881-15.756-21.629-25.211-38.511-21.31c6.012-1.389,13.858,10.123,17.981,26.054 c0.305,1.178,0.33,2.262,0.061,2.325l19.713-4.555C108.531,116.374,108.892,115.2,108.531,114.035z"/><path fill="#E63950" d="M88.001,118.778c-4.123-15.931-11.969-27.443-17.981-26.054c-6.012,1.389-8.013,15.176-4.728,31.301 c0.243,1.193,0.696,2.178,0.965,2.116l21.807-5.039C88.331,121.041,88.306,119.957,88.001,118.778z"/><path fill="#F2AD97" d="M144.725,208.706c-2.309-0.06-3.668-2.662-2.352-4.56c8.306-11.983,14.675-27.119,17.839-44.107 c4.552-24.435,0.517-54.519-12.108-73.096l12.625-5.787c16.242,16.083,24.281,42.297,24.281,65.953 c0,24.045-6.753,45.71-17.552,60.91c-0.562,0.791-1.489,1.236-2.459,1.211L144.725,208.706z"/><path fill="#E59076" d="M160.73,81.156l-1.344,0.616c10.441,15.722,15.625,36.351,15.625,55.337 c0,24.045-6.753,45.71-17.552,60.91c-0.562,0.791-1.489,1.236-2.459,1.211l-9.298-0.241c-1.071,1.775-2.179,3.498-3.328,5.156 c-1.316,1.898,0.043,4.5,2.352,4.56l20.274,0.524c0.969,0.025,1.897-0.421,2.459-1.211c10.799-15.2,17.552-36.865,17.552-60.91 C185.01,123.453,176.971,97.239,160.73,81.156z"/><path fill="#76A34F" d="M113.937,63.016c-15.834-2.192-30.709,4.258-45.63,14.668c-2.083,1.454-4.7-1.004-3.326-3.141 c17.014-26.44,47.105-38.092,72.803-29.62c0.821,0.271,1.708,0.075,2.338-0.517c20.408-19.154,60.594-23.801,88.669-6.075 c2.047,1.292,0.984,4.482-1.43,4.306c-20.416-1.491-38.778-1.112-53.395,5.358c-1.854,0.821-1.827,3.431,0.02,4.267 c24.085,10.911,47.631,36.673,45.123,69.689c-0.191,2.51-3.619,3.039-4.514,0.686c-15.992-42.041-52.922-47.698-56.58-48.159 c-0.195-0.025-0.382-0.025-0.578-0.003c-25.711,2.865-53.248,25.229-67.847,56.182c-1.012,2.147-4.192,1.6-4.443-0.76 C82.291,103.048,96.701,80.818,115,67.19C116.656,65.957,115.982,63.299,113.937,63.016z"/><path fill="#648940" d="M67.618,70.705L67.618,70.705c0.232-0.071,0.463-0.182,0.689-0.339 c14.921-10.41,29.801-16.887,45.63-14.668c9.479,1.329,2.552,10.237,1.359,11.233c1.266-1.312,0.552-3.65-1.359-3.914 c-15.833-2.192-30.709,4.258-45.63,14.668c-2.083,1.454-4.7-1.004-3.326-3.141C65.828,73.227,66.708,71.948,67.618,70.705z"/><path fill="#648940" d="M194.939,35.354c9.276-1.049,18.66-0.883,27.963-0.33c2.012,1.001,3.978,2.103,5.888,3.309 c2.047,1.292,0.984,4.482-1.43,4.306c-20.416-1.491-38.778-1.113-53.395,5.358c-1.506,0.667-1.771,2.513-0.828,3.632 c-2.506-1.492-4.415-4.157-3.401-7.093C172.108,38.677,188.968,36.122,194.939,35.354z"/><path fill="#648940" d="M85.147,122.58c0.251,2.36,3.431,2.907,4.443,0.76c14.599-30.953,42.135-53.317,67.847-56.182 c0.195-0.022,0.383-0.021,0.578,0.003c3.658,0.461,40.588,6.118,56.58,48.159c0.895,2.353,4.323,1.825,4.514-0.686 c0.03-0.391,0.055-0.78,0.077-1.168c0.162,2.77,0.142,5.601-0.077,8.487c-0.191,2.51-3.619,3.039-4.514,0.686 c-15.992-42.041-52.922-47.698-56.58-48.159c-0.195-0.025-0.382-0.025-0.578-0.003c-25.711,2.865-53.248,25.229-67.847,56.182 c-1.012,2.146-4.192,1.6-4.443-0.76c-0.379-3.563-0.454-7.045-0.256-10.436C84.95,120.494,85.035,121.533,85.147,122.58z"/><path fill="#648940" d="M115.845,65.974c-0.107,0.446-0.379,0.869-0.845,1.217C115.441,66.862,115.717,66.432,115.845,65.974z"/><circle cx="149.057" cy="78.916" r="12.596" fill="#FFA91A"/><path fill="#F79219" d="M155.106,67.867c0.985,1.796,1.547,3.856,1.547,6.049c0,6.957-5.639,12.596-12.596,12.596 c-2.193,0-4.253-0.562-6.049-1.547c2.14,3.901,6.285,6.547,11.049,6.547c6.957,0,12.596-5.639,12.596-12.596 C161.653,74.152,159.007,70.008,155.106,67.867z"/><circle cx="130.049" cy="69.411" r="12.596" fill="#FFA91A"/><path fill="#F79219" d="M136.097,58.363c0.985,1.796,1.547,3.856,1.547,6.049c0,6.957-5.639,12.596-12.596,12.596 c-2.193,0-4.253-0.562-6.049-1.547c2.14,3.901,6.285,6.547,11.049,6.547c6.957,0,12.596-5.639,12.596-12.596 C142.645,64.647,139.999,60.503,136.097,58.363z"/><g><circle cx="167.087" cy="68.245" r="12.596" fill="#FFA91A"/></g><g><path fill="#F79219" d="M173.135,57.196c0.985,1.796,1.547,3.856,1.547,6.049c0,6.957-5.639,12.596-12.596,12.596 c-2.193,0-4.253-0.562-6.049-1.547c2.14,3.901,6.285,6.547,11.049,6.547c6.957,0,12.596-5.639,12.596-12.596 C179.683,63.481,177.037,59.337,173.135,57.196z"/></g><g><path fill="#8C3F0A" d="M166.443,200.835l-69.775-5.895c-2.617-0.221-4.56-2.522-4.339-5.139l4.584-54.252 c0.221-2.617,2.522-4.56,5.139-4.339l69.775,5.895c2.617,0.221,4.56,2.522,4.339,5.139l-4.584,54.252 C171.361,199.114,169.06,201.056,166.443,200.835z"/><rect width="79.535" height="3.281" x="96.225" y="143.681" fill="#6D2E03" transform="rotate(4.83 135.975 145.3)"/><rect width="79.535" height="3.281" x="95.085" y="157.174" fill="#6D2E03" transform="rotate(4.83 134.835 158.79)"/><rect width="79.535" height="3.281" x="93.945" y="170.667" fill="#6D2E03" transform="rotate(4.83 133.695 172.282)"/><rect width="79.535" height="3.281" x="92.805" y="184.159" fill="#6D2E03" transform="rotate(4.83 132.556 185.773)"/><g><path fill="#8C3F0A" d="M149.165,126.386l-22.982-1.942c-0.789-0.067-1.375-0.761-1.308-1.55l0.337-3.986 c0.067-0.789,0.761-1.375,1.55-1.308l22.982,1.942c0.789,0.067,1.375,0.761,1.308,1.55l-0.337,3.986 C150.649,125.867,149.955,126.453,149.165,126.386z"/></g><g><path fill="#FFA91A" d="M154.056,135.603l-4.183-0.353l1.204-14.245l1.58,0.134c1.438,0.121,2.505,1.385,2.383,2.823 L154.056,135.603z"/></g><g><path fill="#FFA91A" d="M119.799,132.709l4.183,0.353l1.204-14.245l-1.58-0.134c-1.438-0.121-2.701,0.946-2.823,2.383 L119.799,132.709z"/></g><g><path fill="#5E9CF7" d="M119.368,161.061l-15.02-3.7c-0.659-0.162-1.061-0.828-0.899-1.486l1.919-7.789 c0.162-0.659,0.828-1.061,1.486-0.899l15.02,3.7c0.659,0.162,1.061,0.828,0.899,1.486l-1.919,7.789 C120.692,160.821,120.026,161.223,119.368,161.061z"/></g><g><path fill="#76A34F" d="M166.104,155.584l-15.242,2.641c-0.668,0.116-1.304-0.332-1.42-1l-1.37-7.904 c-0.116-0.668,0.332-1.304,1-1.42l15.242-2.641c0.668-0.116,1.304,0.332,1.42,1l1.37,7.904 C167.22,154.832,166.772,155.468,166.104,155.584z"/></g><g><rect width="27.873" height="2.897" x="132.39" y="183.701" fill="#FFF" transform="rotate(-85.17 146.336 185.159)"/><rect width="27.873" height="2.897" x="105.187" y="181.402" fill="#FFF" transform="rotate(-85.17 119.131 182.86)"/><rect width="27.873" height="2.897" x="118.788" y="182.552" fill="#FFF" transform="rotate(-85.17 132.734 184.01)"/></g><g><path fill="#FFF" d="M138.298,187.181c0.709,0.203,1.442-0.155,1.504-0.89c0.025-0.301-0.077-0.598-0.282-0.82l-4.117-4.439 l1.79-7.509l12.283,4.873c1.77,0.702,3.765-0.312,3.907-1.986c0.058-0.685-0.218-1.366-0.761-1.877 c0,0-14.304-13.453-14.304-13.453l0.46-5.443c0.197-2.333-0.143-4.67-0.987-6.774l-0.218-0.544 c-0.674-1.68-2.692-1.85-3.638-0.307l-0.306,0.5c-1.185,1.933-1.913,4.18-2.11,6.513l-0.46,5.443l-16.358,10.862 c-0.621,0.412-1.007,1.038-1.065,1.723c-0.141,1.674,1.655,3.009,3.518,2.613l12.927-2.743l0.505,7.703l-4.804,3.686 c-0.239,0.184-0.39,0.46-0.416,0.761c-0.062,0.735,0.599,1.191,1.334,1.13C129.597,185.96,135.5,186.38,138.298,187.181z"/></g></g><g><path fill="#FFA91A" d="M37.764,228.75c-10.664,0-14.59-14.028-5.469-19.552c19.235-11.65,55.133-19.486,96.243-19.486 s77.008,7.836,96.243,19.486c9.121,5.524,5.195,19.552-5.469,19.552H37.764z"/></g><g><path fill="#FFC91D" d="M35.4,216.33c-0.7,0-1.34-0.36-1.71-0.96c-0.27-0.46-0.36-1-0.23-1.52c0.13-0.52,0.45-0.95,0.91-1.23 c0.92-0.56,2.19-0.24,2.74,0.68c0.57,0.94,0.27,2.17-0.67,2.74C36.13,216.23,35.77,216.33,35.4,216.33z M42.48,212.6 c-0.78,0-1.49-0.46-1.82-1.16c-0.22-0.49-0.25-1.03-0.06-1.53c0.18-0.5,0.55-0.9,1.03-1.13c10.05-4.65,23.27-8.48,38.25-11.08 c15-2.6,31.82-3.98,48.66-3.99c14.59,0,28.79,1,42.21,2.96c13.3,1.95,25.17,4.74,35.28,8.31c0.5,0.18,0.909,0.54,1.14,1.02 c0.229,0.49,0.26,1.03,0.08,1.53c-0.36,1.01-1.53,1.58-2.55,1.22c-19.851-7.01-47.601-11.04-76.121-11.04h-0.15 c-33.47,0-65.29,5.5-85.11,14.7C43.05,212.53,42.77,212.6,42.48,212.6z"/></g><g><path fill="#F79219" d="M224.782,209.198c-1.569-0.95-3.259-1.872-5.044-2.769c0.93,5.874-3.196,12.321-10.425,12.321H27.764 c-0.184,0-0.36-0.014-0.54-0.022c0.305,5.139,4.248,10.022,10.54,10.022h181.548C229.976,228.75,233.903,214.722,224.782,209.198z"/></g><g><path fill="#EF7816" d="M224.782,209.198c-0.288-0.174-0.591-0.345-0.886-0.517c3.019,6.393-1.196,15.069-9.583,15.069H32.764 c-1.67,0-3.174-0.344-4.489-0.946c1.601,3.373,4.925,5.946,9.489,5.946h181.548C229.976,228.75,233.903,214.722,224.782,209.198z"/></g></svg>