<svg xmlns="http://www.w3.org/2000/svg"  viewBox="0 0 64 64" width="100px" height="100px"><path fill="#00325A" d="M56,40H8l3.701-20.358C11.874,18.691,12.703,18,13.669,18h36.662c0.967,0,1.795,0.691,1.968,1.642L56,40z"/><path fill="#FAB400" d="M46,18H18c-1.105,0-2-0.895-2-2v-4c0-1.105,0.895-2,2-2h28c1.105,0,2,0.895,2,2v4 C48,17.105,47.105,18,46,18z"/><rect width="32" height="2" x="16" y="13" fill="#DC9600"/><path fill="#C80A50" d="M42,10H22c-1.105,0-2-0.895-2-2V6c0-1.105,0.895-2,2-2h20c1.105,0,2,0.895,2,2v2 C44,9.105,43.105,10,42,10z"/><rect width="1" height="6" x="26" y="4" fill="#A00028"/><rect width="1" height="8" x="26" y="10" fill="#DC9600"/><rect width="1" height="8" x="40" y="10" fill="#DC9600"/><rect width="1" height="6" x="40" y="4" fill="#A00028"/><rect width="24" height="2" x="20" y="6" fill="#0A5078"/><path fill="#00A0C8" d="M56,52H8c-2.209,0-4-1.791-4-4v-4c0-2.209,1.791-4,4-4h48c2.209,0,4,1.791,4,4v4 C60,50.209,58.209,52,56,52z"/><path fill="#0A5078" d="M14,60h-4c-1.105,0-2-0.895-2-2v-6h8v6C16,59.105,15.105,60,14,60z"/><path fill="#0A5078" d="M54,60h-4c-1.105,0-2-0.895-2-2v-6h8v6C56,59.105,55.105,60,54,60z"/><circle cx="12" cy="47" r="4" fill="#0082AA"/><circle cx="52" cy="47" r="4" fill="#0082AA"/><circle cx="12" cy="46" r="4" fill="#FAB400"/><circle cx="12" cy="46" r="2" fill="#F0F0F0"/><circle cx="52" cy="46" r="4" fill="#FAB400"/><path fill="#0082AA" d="M44,48H20c-1.105,0-2-0.895-2-2v0c0-1.105,0.895-2,2-2h24c1.105,0,2,0.895,2,2v0 C46,47.105,45.105,48,44,48z"/><path fill="#F0C8A0" d="M34,32h-4c-1.105,0-2-0.895-2-2v-4h8v4C36,31.105,35.105,32,34,32z"/><path fill="#FAB400" d="M33,22h-2c-1.657,0-3,1.343-3,3v1h8v-1C36,23.343,34.657,22,33,22z"/><rect width="4" height="2" x="30" y="32" fill="#D2AA82"/><path fill="#F0F0F0" d="M38,40H26v-2c0-2.209,1.791-4,4-4h4c2.209,0,4,1.791,4,4V40z"/><path fill="#D2D2D2" d="M28.599,34.253C27.081,34.82,26,36.284,26,38v2h3v-4C29,35.373,28.856,34.78,28.599,34.253z"/><rect width="16" height="1" x="36" y="39" fill="#DC9600"/><rect width="2" height="14" x="24" y="4" fill="#00A0C8"/><rect width="2" height="14" x="38" y="4" fill="#00A0C8"/><path fill="#FAB400" d="M52,40H36v-5c0-1.657,1.343-3,3-3h10c1.657,0,3,1.343,3,3V40z"/><path fill="#D2AA82" d="M44,34L44,34c-1.105,0-2-0.895-2-2v-3h4v3C46,33.105,45.105,34,44,34z"/><path fill="#F0C8A0" d="M45,30h-2c-1.657,0-3-1.343-3-3v-3c0-1.105,0.895-2,2-2h4c1.105,0,2,0.895,2,2v3 C48,28.657,46.657,30,45,30z"/><path fill="#C80A50" d="M46,22h-4c-1.105,0-2,0.895-2,2v0v-2c0-1.105,0.895-2,2-2h4c1.105,0,2,0.895,2,2v2v0 C48,22.895,47.105,22,46,22z"/><path fill="#0A5078" d="M44,34c-3.314,0-6,2.686-6,6h2c0-2.209,1.791-4,4-4s4,1.791,4,4h2C50,36.686,47.314,34,44,34z"/><path fill="#00325A" d="M38.083,39C38.029,39.325,38,39.659,38,40h2c0-0.345,0.044-0.68,0.126-1H38.083z"/><path fill="#00325A" d="M47.874,39C47.956,39.32,48,39.655,48,40h2c0-0.341-0.029-0.675-0.083-1H47.874z"/><path fill="#0A5078" d="M22,20h-4c-2.209,0-4,1.791-4,4v5c0,0.552,0.448,1,1,1h10c0.552,0,1-0.448,1-1v-5 C26,21.791,24.209,20,22,20z"/><rect width="4" height="3" x="18" y="29" fill="#D2AA82"/><path fill="#C80A50" d="M28,40H12v-4c0-2.209,1.791-4,4-4h8c2.209,0,4,1.791,4,4V40z"/><path fill="#D2AA82" d="M20,36L20,36c-2.209,0-4-1.791-4-4v0h8v0C24,34.209,22.209,36,20,36z"/><path fill="#F0C8A0" d="M21,30h-2c-1.657,0-3-1.343-3-3v-3c0-1.105,0.895-2,2-2h1v0c0,1.105,0.895,2,2,2h3v3 C24,28.657,22.657,30,21,30z"/><g><rect width="16" height="1" x="12" y="39" fill="#A00028"/></g><g><rect width="8" height="1" x="28" y="39" fill="#D2D2D2"/></g><g><rect width="1" height="2" x="26" y="6" fill="#00325A"/></g><g><rect width="1" height="2" x="40" y="6" fill="#00325A"/></g><g><circle cx="52" cy="46" r="2" fill="#F0F0F0"/></g><g><rect width="8" height="1" x="8" y="52" fill="#00325A"/></g><g><rect width="8" height="1" x="48" y="52" fill="#00325A"/></g></svg>