<svg xmlns="http://www.w3.org/2000/svg"  viewBox="0 0 80 80" width="100px" height="100px"><path fill="#ffc49c" d="M2.5,25.5v-10c0-4.226,3.308-7.729,7.529-7.976l0.42-0.024H67.5v18H2.5z"/><path fill="#a16a4a" d="M67,8v17H3v-9.5c0-3.962,3.1-7.246,7.058-7.476L10.335,8H67 M68,7H10v0.025 c-4.46,0.26-8,3.949-8,8.475C2,15.669,2,26,2,26h66V7L68,7z"/><path fill="#bae0bd" d="M7.5 15.5H72.5V64.5H7.5z"/><path fill="#5e9c76" d="M72,16v48H8V16H72 M73,15H7v50h66V15L73,15z"/><path fill="#fff" d="M7.5,58.5v-39h19.473C37.74,19.5,46.5,28.248,46.5,39s-8.76,19.5-19.527,19.5H7.5z"/><path fill="#5e9c76" d="M26.973,20C37.465,20,46,28.523,46,39s-8.535,19-19.027,19H8V20H26.973 M26.973,19 C26.636,19,7,19,7,19v40c0,0,17.796,0,19.973,0C38.034,59,47,50.046,47,39C47,27.954,38.034,19,26.973,19L26.973,19z"/><g><path fill="#ffc49c" d="M13,72.5c-0.336,0-0.666-0.02-0.993-0.051C11.608,72.482,11.307,72.5,11,72.5 c-4.687,0-8.5-3.813-8.5-8.5c0-0.307,0.019-0.609,0.05-0.908C2.52,62.666,2.5,62.335,2.5,62V16.5h0.015c0.26,4.455,3.967,8,8.485,8 h56.5v48H13z"/><path fill="#a16a4a" d="M3,20.121C4.498,23.016,7.522,25,11,25h56v47H13c-0.292,0-0.602-0.016-0.947-0.048l-0.099-0.009 l-0.099,0.011C11.557,71.985,11.277,72,11,72c-4.411,0-8-3.589-8-8c0-0.277,0.015-0.557,0.047-0.854l0.01-0.099l-0.009-0.099 C3.016,62.602,3,62.292,3,62V20.121 M3,16H2v46c0,0.351,0.02,0.697,0.052,1.04C2.019,63.356,2,63.676,2,64c0,4.971,4.029,9,9,9 c0.324,0,0.644-0.019,0.96-0.052C12.303,72.98,12.649,73,13,73h55V24c0,0-55.596,0-57,0C6.582,24,3,20.418,3,16L3,16z"/></g><g><path fill="#ffc49c" d="M52.5 41.5H77.5V55.5H52.5z"/><path fill="#a16a4a" d="M77,42v13H53V42H77 M78,41H52v15h26V41L78,41z"/></g><g><path fill="#a16a4a" d="M60.5 46A2.5 2.5 0 1 0 60.5 51A2.5 2.5 0 1 0 60.5 46Z"/></g></svg>