<svg xmlns="http://www.w3.org/2000/svg"  viewBox="0 0 256 256" width="256px" height="256px"><path fill="#e0ebfc" d="M231.958,236h-153c-8.837,0-16-7.163-16-16V24c0-8.837,7.163-16,16-16h153c8.837,0,16,7.163,16,16v196 C247.958,228.837,240.795,236,231.958,236z"/><circle cx="155.458" cy="140.012" r="66.15" fill="#6bdddd"/><path fill="#a4c9ff" d="M155.458,191.162c-28.204,0-51.15-22.945-51.15-51.149s22.946-51.15,51.15-51.15s51.149,22.946,51.149,51.15 S183.662,191.162,155.458,191.162z"/><path fill="#3762cc" d="M155.458,193.162c-29.307,0-53.15-23.843-53.15-53.149c0-29.308,23.843-53.15,53.15-53.15 c29.307,0,53.149,23.843,53.149,53.15C208.608,169.319,184.765,193.162,155.458,193.162z M155.458,90.862 c-27.102,0-49.15,22.049-49.15,49.15s22.049,49.149,49.15,49.149c27.101,0,49.149-22.048,49.149-49.149 S182.56,90.862,155.458,90.862z"/><path fill="#a4c9ff" d="M62.958,24v29h185V24c0-8.836-7.164-16-16-16h-153C70.121,8,62.958,15.164,62.958,24z"/><circle cx="222.765" cy="33.273" r="12.479" fill="#4671c6"/><path fill="#e0ebfc" d="M222.765,35.238L222.765,35.238c-1.532,0-2.773-1.242-2.773-2.773V19.985c0-1.532,1.242-2.773,2.773-2.773 l0,0c1.532,0,2.773,1.242,2.773,2.773v12.479C225.538,33.996,224.297,35.238,222.765,35.238z"/><path fill="#f9cfcf" d="M191.218,43.982h-104c-3.314,0-6-2.686-6-6v-13c0-3.314,2.686-6,6-6h104c3.314,0,6,2.686,6,6v13 C197.218,41.296,194.532,43.982,191.218,43.982z"/><path fill="#f9a7a7" d="M107.658,36.982h-8.44c-1.105,0-2-0.895-2-2v-7c0-1.105,0.895-2,2-2h8.44c1.105,0,2,0.895,2,2v7 C109.658,36.087,108.763,36.982,107.658,36.982z"/><path fill="#f9a7a7" d="M131.511,36.982h-8.44c-1.105,0-2-0.895-2-2v-7c0-1.105,0.895-2,2-2h8.44c1.105,0,2,0.895,2,2v7 C133.511,36.087,132.616,36.982,131.511,36.982z"/><path fill="#f9a7a7" d="M155.365,36.982h-8.44c-1.105,0-2-0.895-2-2v-7c0-1.105,0.895-2,2-2h8.44c1.105,0,2,0.895,2,2v7 C157.365,36.087,156.469,36.982,155.365,36.982z"/><path fill="#f9a7a7" d="M179.218,36.982h-8.44c-1.105,0-2-0.895-2-2v-7c0-1.105,0.895-2,2-2h8.44c1.105,0,2,0.895,2,2v7 C181.218,36.087,180.323,36.982,179.218,36.982z"/><circle cx="225.538" cy="212.605" r="15" fill="#a4c9ff"/><path fill="#e0ebfc" d="M232.643,206.061h-14c-1.104,0-2-0.896-2-2s0.896-2,2-2h14c1.104,0,2,0.896,2,2 S233.747,206.061,232.643,206.061z"/><path fill="#e0ebfc" d="M232.643,223.148h-14c-1.104,0-2-0.896-2-2s0.896-2,2-2h14c1.104,0,2,0.896,2,2 S233.747,223.148,232.643,223.148z"/><path fill="#e0ebfc" d="M234.643,214.604h-18c-1.104,0-2-0.896-2-2s0.896-2,2-2h18c1.104,0,2,0.896,2,2 S235.747,214.604,234.643,214.604z"/><path fill="#ffea92" d="M171.11,130c-5.779,0-8.86-2.955-11.11-5.113c-2.033-1.949-3.119-2.887-5.572-2.887 c-2.453,0-3.538,0.938-5.57,2.887c-2.25,2.158-5.331,5.113-11.109,5.113c-5.778,0-8.858-2.955-11.108-5.113 c-2.032-1.949-3.118-2.887-5.57-2.887c-2.209,0-4-1.791-4-4s1.791-4,4-4c5.778,0,8.859,2.955,11.108,5.113 c2.032,1.949,3.118,2.887,5.57,2.887c2.453,0,3.539-0.938,5.571-2.887c2.25-2.158,5.331-5.113,11.108-5.113 c5.779,0,8.86,2.955,11.11,5.113c2.033,1.949,3.119,2.887,5.572,2.887s3.539-0.938,5.571-2.887 c2.25-2.158,5.331-5.113,11.11-5.113c2.209,0,4,1.791,4,4s-1.791,4-4,4c-2.454,0-3.54,0.938-5.572,2.887 C179.969,127.045,176.888,130,171.11,130z"/><path fill="#ffea92" d="M171.11,150c-5.779,0-8.86-2.955-11.11-5.113c-2.033-1.949-3.119-2.887-5.572-2.887 c-2.453,0-3.538,0.938-5.57,2.887c-2.25,2.158-5.331,5.113-11.109,5.113c-5.778,0-8.858-2.955-11.108-5.113 c-2.032-1.949-3.118-2.887-5.57-2.887c-2.209,0-4-1.791-4-4s1.791-4,4-4c5.778,0,8.859,2.955,11.108,5.113 c2.032,1.949,3.118,2.887,5.57,2.887c2.453,0,3.539-0.938,5.571-2.887c2.25-2.158,5.331-5.113,11.108-5.113 c5.779,0,8.86,2.955,11.11,5.113c2.033,1.949,3.119,2.887,5.572,2.887s3.539-0.938,5.571-2.887 c2.25-2.158,5.331-5.113,11.11-5.113c2.209,0,4,1.791,4,4s-1.791,4-4,4c-2.454,0-3.54,0.938-5.572,2.887 C179.969,147.045,176.888,150,171.11,150z"/><path fill="#ffea92" d="M171.11,170c-5.779,0-8.86-2.955-11.11-5.113c-2.033-1.949-3.119-2.887-5.572-2.887 c-2.453,0-3.538,0.938-5.57,2.887c-2.25,2.158-5.331,5.113-11.109,5.113c-5.778,0-8.858-2.955-11.108-5.113 c-2.032-1.949-3.118-2.887-5.57-2.887c-2.209,0-4-1.791-4-4s1.791-4,4-4c5.778,0,8.859,2.955,11.108,5.113 c2.032,1.949,3.118,2.887,5.57,2.887c2.453,0,3.539-0.938,5.571-2.887c2.25-2.158,5.331-5.113,11.108-5.113 c5.779,0,8.86,2.955,11.11,5.113c2.033,1.949,3.119,2.887,5.572,2.887s3.539-0.938,5.571-2.887 c2.25-2.158,5.331-5.113,11.11-5.113c2.209,0,4,1.791,4,4s-1.791,4-4,4c-2.454,0-3.54,0.938-5.572,2.887 C179.969,167.045,176.888,170,171.11,170z"/><path fill="#6bdddd" d="M217.299,116.521h-7.925h-14.767c-5.523,0-10,4.477-10,10v26.983c0,5.523,4.477,10,10,10h14.767h6.557h1.368 c2.776-7.302,4.309-15.216,4.309-23.492S220.075,123.822,217.299,116.521z M204.789,153.504h-8.181c-1.105,0-2-0.896-2-2V128.52 c0-1.104,0.895-2,2-2h8.181c1.178,4.302,1.819,8.823,1.819,13.493C206.608,144.683,205.966,149.203,204.789,153.504z"/><path fill="#3762cc" d="M155.458,208.162c-37.578,0-68.15-30.571-68.15-68.149s30.572-68.15,68.15-68.15s68.15,30.572,68.15,68.15 S193.036,208.162,155.458,208.162z M155.458,75.862c-35.373,0-64.15,28.777-64.15,64.15c0,35.372,28.777,64.149,64.15,64.149 s64.15-28.777,64.15-64.149C219.608,104.64,190.831,75.862,155.458,75.862z"/><path fill="#3762cc" d="M217.299,165.504h-22.691c-6.617,0-12-5.383-12-12v-26.983c0-6.617,5.383-12,12-12h22.691 c0.831,0,1.574,0.513,1.87,1.289c2.945,7.748,4.439,15.891,4.439,24.202s-1.494,16.455-4.439,24.203 C218.874,164.991,218.13,165.504,217.299,165.504z M194.608,118.521c-4.411,0-8,3.589-8,8v26.983c0,4.411,3.589,8,8,8h21.296 c2.458-6.904,3.704-14.128,3.704-21.492c0-7.363-1.246-14.587-3.704-21.491H194.608z M204.789,155.504h-8.181 c-2.206,0-4-1.794-4-4V128.52c0-2.206,1.794-4,4-4h8.181c0.901,0,1.691,0.603,1.929,1.472c1.254,4.582,1.89,9.299,1.89,14.021 c0,4.722-0.636,9.438-1.89,14.02C206.479,154.901,205.69,155.504,204.789,155.504z M196.608,128.52v22.984h6.63 c0.909-3.771,1.37-7.63,1.37-11.491s-0.46-7.721-1.37-11.493H196.608z"/><path fill="#3762cc" d="M231.958,238h-153c-9.925,0-18-8.075-18-18V24c0-9.925,8.075-18,18-18h153c1.304,0,2.643,0.153,3.979,0.455 c5.357,1.212,9.81,4.754,12.214,9.721c0.296,0.611,0.557,1.239,0.777,1.867c0.111,0.313,0.217,0.632,0.312,0.956 c0.477,1.649,0.718,3.331,0.718,5.001v196C249.958,229.925,241.883,238,231.958,238z M78.958,10c-7.72,0-14,6.28-14,14v196 c0,7.72,6.28,14,14,14h153c7.72,0,14-6.28,14-14V24c0-1.294-0.188-2.603-0.56-3.89c-0.072-0.25-0.156-0.496-0.243-0.741 c-0.171-0.488-0.374-0.976-0.604-1.451c-1.871-3.863-5.332-6.62-9.496-7.561C234.008,10.12,232.966,10,231.958,10H78.958z"/><path fill="#f9a7a7" d="M94.755,191.162h-72c-4.418,0-8-3.582-8-8V176.5c0-4.418,3.582-8,8-8h72c4.418,0,8,3.582,8,8v6.662 C102.755,187.58,99.173,191.162,94.755,191.162z"/><path fill="#ffea92" d="M96.247,168.5H21.262c-3.594,0-6.508-2.914-6.508-6.508v-1.981c0-3.594,2.914-6.508,6.508-6.508h74.985 c3.594,0,6.508,2.914,6.508,6.508v1.981C102.755,165.586,99.841,168.5,96.247,168.5z"/><path fill="#3762cc" d="M94.754,193.162h-72c-5.514,0-10-4.486-10-10V176.5c0-5.514,4.486-10,10-10h72c5.514,0,10,4.486,10,10v6.662 C104.754,188.676,100.269,193.162,94.754,193.162z M22.754,170.5c-3.309,0-6,2.691-6,6v6.662c0,3.309,2.691,6,6,6h72 c3.309,0,6-2.691,6-6V176.5c0-3.309-2.691-6-6-6H22.754z"/><path fill="#3762cc" d="M96.247,170.5H21.262c-4.691,0-8.508-3.816-8.508-8.508v-1.98c0-4.691,3.816-8.508,8.508-8.508h74.985 c4.691,0,8.507,3.816,8.507,8.508v1.98C104.754,166.684,100.938,170.5,96.247,170.5z M21.262,155.504 c-2.486,0-4.508,2.022-4.508,4.508v1.98c0,2.485,2.022,4.508,4.508,4.508h74.985c2.485,0,4.507-2.022,4.507-4.508v-1.98 c0-2.485-2.022-4.508-4.507-4.508H21.262z"/><path fill="#4671c6" d="M59.791,181.667H11.042c-1.752,0-3.131,1.494-2.99,3.24l4.107,51.08C12.703,242.752,19.24,248,27.123,248 h32.668H92.46c7.883,0,14.42-5.248,14.964-12.013l4.107-51.08c0.14-1.746-1.239-3.24-2.99-3.24H59.791z"/><path fill="#3762cc" d="M92.459,250H27.123c-8.885,0-16.333-6.085-16.958-13.853l-4.107-51.08c-0.111-1.388,0.366-2.77,1.31-3.792 c0.943-1.022,2.283-1.608,3.674-1.608h97.499c1.391,0,2.73,0.586,3.674,1.608c0.944,1.022,1.421,2.404,1.31,3.792l-4.107,51.08 C108.793,243.915,101.344,250,92.459,250z M11.042,183.667c-0.381,0-0.624,0.201-0.735,0.321c-0.111,0.12-0.292,0.379-0.262,0.759 l4.107,51.08C14.611,241.531,20.309,246,27.123,246h65.336c6.814,0,12.512-4.469,12.971-10.173l4.107-51.08 c0.031-0.38-0.151-0.639-0.262-0.759c-0.111-0.12-0.354-0.321-0.735-0.321H11.042z"/></svg>