<svg xmlns="http://www.w3.org/2000/svg"  viewBox="0 0 512 512" width="100px" height="100px"><path fill="#5AD7FF" d="M400,496H112c-8.837,0-16-7.163-16-16v0c0-8.837,7.163-16,16-16h288c8.837,0,16,7.163,16,16v0 C416,488.837,408.837,496,400,496z"/><path fill="#23AAE6" d="M368,496H144c-8.837,0-16-7.163-16-16v0c0-8.837,7.163-16,16-16h224c8.837,0,16,7.163,16,16v0 C384,488.837,376.837,496,368,496z"/><path fill="#4B8C41" d="M162.667,248H144c-4.418,0-8,3.582-8,8s3.582,8,8,8c39.701,0,72,32.299,72,72v144c0,4.418,3.582,8,8,8 h18.667c4.418,0,8-3.582,8-8V336C250.667,287.477,211.19,248,162.667,248z"/><path fill="#4B8C41" d="M368,248h-16c-48.523,0-88,39.477-88,88v144c0,4.418,3.582,8,8,8h16c4.418,0,8-3.582,8-8V336 c0-39.701,32.299-72,72-72c4.418,0,8-3.582,8-8S372.418,248,368,248z"/><rect width="16" height="290.667" x="248" y="189.333" fill="#5FAA46"/><path fill="#91C83C" d="M256,480h-8V216h0c4.418,0,8,3.582,8,8V480z"/><path fill="#A55023" d="M256,64c-4.418,0-8-3.582-8-8V24c0-4.418,3.582-8,8-8c4.418,0,8,3.582,8,8v32 C264,60.418,260.418,64,256,64z"/><path fill="#D26E28" d="M256,200c-13.255,0-24-10.745-24-24V64c0-13.255,10.745-24,24-24s24,10.745,24,24v112 C280,189.255,269.255,200,256,200z"/><path fill="#A55023" d="M268,56L268,56c-6.627,0-12,5.373-12,12v108h-24v0c0,13.255,10.745,24,24,24h0c13.255,0,24-10.745,24-24 V68C280,61.373,274.627,56,268,56z"/><rect width="16" height="242.667" x="176" y="237.333" fill="#5FAA46"/><path fill="#91C83C" d="M184,480h-8V264h0c4.418,0,8,3.582,8,8V480z"/><path fill="#A55023" d="M184,112c-4.418,0-8-3.582-8-8V72c0-4.418,3.582-8,8-8s8,3.582,8,8v32C192,108.418,188.418,112,184,112z"/><path fill="#D26E28" d="M184,248c-13.255,0-24-10.745-24-24V112c0-13.255,10.745-24,24-24s24,10.745,24,24v112 C208,237.255,197.255,248,184,248z"/><path fill="#A55023" d="M196,104L196,104c-6.627,0-12,5.373-12,12v108h-24v0c0,13.255,10.745,24,24,24h0c13.255,0,24-10.745,24-24 V116C208,109.373,202.627,104,196,104z"/><rect width="16" height="242.667" x="320" y="237.333" fill="#5FAA46"/><path fill="#91C83C" d="M328,480h-8V264l0,0c4.418,0,8,3.582,8,8V480z"/><path fill="#A55023" d="M328,112c-4.418,0-8-3.582-8-8V72c0-4.418,3.582-8,8-8s8,3.582,8,8v32C336,108.418,332.418,112,328,112z"/><path fill="#D26E28" d="M328,248c-13.255,0-24-10.745-24-24V112c0-13.255,10.745-24,24-24s24,10.745,24,24v112 C352,237.255,341.255,248,328,248z"/><path fill="#A55023" d="M340,104L340,104c-6.627,0-12,5.373-12,12v108h-24v0c0,13.255,10.745,24,24,24h0c13.255,0,24-10.745,24-24 V116C352,109.373,346.627,104,340,104z"/><path fill="#5FAA46" d="M182.794,347.48l-49.137-49.137c-3.124-3.124-8.189-3.124-11.313,0c-1.562,1.562-2.343,3.61-2.343,5.657 s0.781,4.095,2.343,5.657l33.174,33.174C184.203,371.535,200,409.691,200,450.274V480c0,4.418,3.582,8,8,8h16c4.418,0,8-3.582,8-8 v-13.726C232,421.399,214.525,379.211,182.794,347.48z"/><path fill="#91C83C" d="M183.598,428.284l-33.941-33.941c-3.123-3.125-8.188-3.124-11.313,0c-3.125,3.124-3.125,8.19,0,11.314 l17.941,17.941c7.555,7.555,11.716,17.6,11.716,28.284V480c0,4.418,3.582,8,8,8h16c4.418,0,8-3.582,8-8v-12.118 C200,452.924,194.175,438.861,183.598,428.284z"/><path fill="#91C83C" d="M373.657,394.343c-3.124-3.124-8.188-3.124-11.314,0l-17.941,17.941c-0.022,0.023-0.044,0.045-0.066,0.067 l-15.934,15.933C317.825,438.861,312,452.924,312,467.882V480c0,4.418,3.582,8,8,8h16c4.418,0,8-3.582,8-8v-28.118 c0-10.658,4.141-20.68,11.659-28.228l17.998-17.997C376.781,402.533,376.781,397.467,373.657,394.343z"/><path fill="#5FAA46" d="M389.657,298.343c-3.125-3.124-8.189-3.124-11.314,0l-49.137,49.137C297.476,379.211,280,421.4,280,466.274 V480c0,4.418,3.582,8,8,8h16c4.418,0,8-3.582,8-8v-29.726c0-40.601,15.811-78.771,44.521-107.48l33.137-33.137 C392.781,306.532,392.781,301.467,389.657,298.343z"/><path fill="#23AAE6" d="M336,496H176c-8.837,0-16-7.163-16-16v0h192v0C352,488.837,344.837,496,336,496z"/></svg>