<svg xmlns="http://www.w3.org/2000/svg"  viewBox="0 0 128 128" width="100px" height="100px"><path fill="#85a5d3" d="M90.18,82.16c6.94,6.94,8.37,14.67,3.64,22.89-.71,1.25,1.88,3.18.88,4.45s-5.55,1.8-6.8,3-2,6-3.2,6.94-2.89-1.84-4.14-1.11c-8.27,4.84-16.06,3.43-23.05-3.55-7.74-7.75-8.63-16.47-1.76-25.75,1.14-1.53,3.15-2.41,4.71-4s2.48-3.61,4-4.75C73.75,73.53,82.45,74.43,90.18,82.16Z"/><path fill="#aed197" d="M57.46,38.33a54.53,54.53,0,0,0-9.92-14.49c-6.12-6.24-15.09-8.71-22.07-9.66a57.52,57.52,0,0,0-10.55-.51S13.54,24.54,23.31,36A50.45,50.45,0,0,0,35.37,46c2.19,1.35,24.14,10.82,24.14,10.82a60.38,60.38,0,0,0-2-18.53"/><path fill="#7f7199" d="M117.64,43.58a10.89,10.89,0,0,0-7.28-3.15,5,5,0,0,0,.5-.41,10.39,10.39,0,0,0-10.53-17.26,10.56,10.56,0,0,0-3-8.25A12.52,12.52,0,0,0,81.7,13c-3.62,2.31-4.67,6.28-5.94,9.26-.43,0-.85-.13-1.29-.13a11.53,11.53,0,0,0-11.4,13.67c-3.21,1.44-7.46,3.17-9.32,5.89-2.71,4-3,11.13,1.38,15.46a11,11,0,0,0,7.68,3.24A11.2,11.2,0,0,0,81.07,71.33a10.79,10.79,0,0,0,3,5.83,10.87,10.87,0,0,0,17.85-3.74,9,9,0,0,0,12-12,10.9,10.9,0,0,0,3.74-17.87Z"/><circle cx="34.94" cy="73.57" r="25.95" fill="#e26d76"/><path fill="#404040" d="M34,80H32V78a2,2,0,0,0-4,0v2H26a2,2,0,0,0,0,4h2v2a2,2,0,0,0,4,0V84h2a2,2,0,0,0,0-4Z"/><path fill="#404040" d="M114.11,39.11a12.41,12.41,0,0,0-11.86-18.79c-1.29-9.76-13-14.52-21.63-9-3.59,2.29-5,5.87-6.12,8.74l0,.08A13.59,13.59,0,0,0,67.7,22c-1.13-.26-5.05-1.77-6.21-10.27a2,2,0,1,0-4,.55c1,7.64,4.19,11,6.73,12.55a13.46,13.46,0,0,0-3.35,9.79c-.81.36-1.66.75-2.51,1.17A54.48,54.48,0,0,0,49,22.44C40.59,13.9,25.22,11,14.79,11.67a2,2,0,0,0-1.85,1.75c-.06.48-1.38,11.89,8.85,23.83a50.72,50.72,0,0,0,9.64,8.59A27.95,27.95,0,1,0,49.56,97.38c-1.49,6.61.69,13,6.54,18.86,7.74,7.74,16.39,8.93,25,4.15,1.55,1,3.14,2.06,4.9.66s2.46-6,3.35-7.08c1-.87,5.45-1.33,7-3.22s.16-3.73-.49-5.1c4.51-8.13,3.55-16.17-2.74-23.36a12.82,12.82,0,0,0,9.9-6.37A11,11,0,0,0,116.4,62.46,12.9,12.9,0,0,0,114.11,39.11ZM24.83,34.65c-6.83-8-7.87-15.72-8-19C27,15.65,39,18,46.12,25.24a50.78,50.78,0,0,1,8.82,12.53c-4,2.85-5.5,7.44-5.09,12.17a27.85,27.85,0,0,0-9.79-3.85l-.09,0C37.35,45.28,30,40.68,24.83,34.65ZM62.66,70.06a13,13,0,0,0,6.7,5.23,23.9,23.9,0,0,0-7.17,4.48A27.44,27.44,0,0,0,62.66,70.06ZM11,73.57a24,24,0,1,1,24,24A24,24,0,0,1,11,73.57Zm81.11,30.48c-.91,1.58-.09,3,.64,4.39-1.85.79-4.82,1.27-6.24,2.69s-1.92,4.2-2.78,6.23l0,0c-.85-.58-2.43-1.67-4.12-.68-7.38,4.32-14.12,3.26-20.62-3.24-7.23-7.23-7.74-14.79-1.57-23.14.83-1.12,2.9-2.13,4.52-3.75s2.64-3.7,3.79-4.55c8.1-6,15.69-5.8,23.1,1.6C95.22,90,96.31,96.73,92.09,104.05Zm21.08-44.46a2,2,0,0,0-1.08,2.72,7,7,0,0,1-9.3,9.31,2,2,0,0,0-2.72,1.07c-3.28,8.39-15.5,7.1-17-1.7a2,2,0,0,0-3.27-1.18,9.22,9.22,0,0,1-15-9,2,2,0,0,0-1.92-2.43,9,9,0,0,1-6.29-2.65C53,52.19,53.1,46.19,55.4,42.81c1.55-2.27,5.81-4,8.49-5.2A2,2,0,0,0,65,35.43c-1.2-6.64,4.63-12,10.09-11.24A2.08,2.08,0,0,0,77.6,23c1.29-3,2.17-6.45,5.17-8.37,6.82-4.35,16.11.13,15.57,8a2,2,0,0,0,2.6,2c8.69-2.77,14.92,8.25,8.1,14.27a2,2,0,0,0,1.24,3.5C119.86,42.82,122.1,56.09,113.17,59.59Z"/><path fill="#404040" d="M95.3,55.83a8.11,8.11,0,0,1-11-.38,2,2,0,0,0-2.83,2.82,12.14,12.14,0,0,0,16.4.6,2,2,0,0,0-2.61-3Z"/><path fill="#404040" d="M85.92,42.05a2,2,0,0,0-2.82-.22,7.54,7.54,0,0,1-10.19-.36,2,2,0,0,0-2.83,2.83,11.57,11.57,0,0,0,15.63.57A2,2,0,0,0,85.92,42.05Z"/></svg>