<svg xmlns="http://www.w3.org/2000/svg"  viewBox="0 0 48 48" width="100px" height="100px"><linearGradient id="T3K5VKprKE9XR7ZWYOGHga" x1="24" x2="24" y1="32" y2="24" gradientUnits="userSpaceOnUse"><stop offset="0" stop-color="#f282ff"/><stop offset="0" stop-color="#c948db"/><stop offset=".796" stop-color="#5c005e"/></linearGradient><path fill="url(#T3K5VKprKE9XR7ZWYOGHga)" d="M24,24C7,24,4,27.5,4,27.5C4,29.985,14.611,32,24,32s20-2.015,20-4.5C44,27.5,41,24,24,24z"/><path fill="#a600ab" d="M24,24.5c14.459,0,18.662,2.572,19.465,3.192C42.837,29.421,33.947,31.5,24,31.5 c-9.945,0-18.833-2.078-19.464-3.807C5.353,27.063,9.567,24.5,24,24.5 M24,24C7,24,4,27.5,4,27.5C4,29.985,14.611,32,24,32 s20-2.015,20-4.5C44,27.5,41,24,24,24L24,24z"/><radialGradient id="T3K5VKprKE9XR7ZWYOGHgb" cx="41.124" cy="-56.351" r="25.175" gradientTransform="matrix(.9517 0 0 .5621 -15.137 78.194)" gradientUnits="userSpaceOnUse"><stop offset=".002" stop-color="#ea80fc"/><stop offset=".655" stop-color="#8a2891"/><stop offset=".979" stop-color="#5e0061"/></radialGradient><path fill="url(#T3K5VKprKE9XR7ZWYOGHgb)" d="M7,46h34c0-5.596-4.613-10.133-10.303-10.133H17.303C11.613,35.867,7,40.404,7,46z"/><linearGradient id="T3K5VKprKE9XR7ZWYOGHgc" x1="24.001" x2="24.001" y1="45.361" y2="37.707" gradientUnits="userSpaceOnUse"><stop offset=".002" stop-color="#ab47bc"/><stop offset=".004" stop-color="#ab47bc"/><stop offset="1" stop-color="#7b1fa2"/></linearGradient><path fill="url(#T3K5VKprKE9XR7ZWYOGHgc)" d="M17.499,38.5c-0.38-0.748,0.189-3.097,1.608-3.232c3.237-0.335,6.628-0.46,9.749,0.023 c1.472,0.298,2.028,2.668,1.643,3.208c-1.533,1.69-5.044,5.287-6.156,6.36c-0.096,0.093-0.22,0.14-0.344,0.14 c-0.124,0.001-0.249-0.045-0.346-0.138C22.587,43.844,19.309,40.503,17.499,38.5z"/><g><linearGradient id="T3K5VKprKE9XR7ZWYOGHgd" x1="-50.803" x2="-62.57" y1="1198.733" y2="1192.017" gradientTransform="matrix(1 0 0 .9876 92.647 -1145.866)" gradientUnits="userSpaceOnUse"><stop offset="0" stop-color="#c69c6d"/><stop offset=".165" stop-color="#aa8054"/><stop offset=".337" stop-color="#946a40"/><stop offset=".447" stop-color="#8c6239"/><stop offset=".999" stop-color="#331604"/></linearGradient><path fill="url(#T3K5VKprKE9XR7ZWYOGHgd)" d="M35.18,26.237c0,0-0.133,3.938,1.876,8.57c0.694,1.292-0.187,1.819-0.187,1.819 s-6.394,2.505-13.095,2.268c0-2.715,0-17.824,0-17.824l11.259,2.017L35.18,26.237z"/><linearGradient id="T3K5VKprKE9XR7ZWYOGHge" x1="-2369.558" x2="-2358.389" y1="1188.832" y2="1183.352" gradientTransform="matrix(-1 0 0 1 -2328.25 -1152)" gradientUnits="userSpaceOnUse"><stop offset="0" stop-color="#c69c6d"/><stop offset=".165" stop-color="#aa8054"/><stop offset=".337" stop-color="#946a40"/><stop offset=".447" stop-color="#8c6239"/><stop offset=".999" stop-color="#331604"/></linearGradient><path fill="url(#T3K5VKprKE9XR7ZWYOGHge)" d="M34.606,35.702c0.507-0.267,0.574-0.68-0.027-1.882c-1.774-4.432-1.535-7.422-1.548-8.49 l0.024-2.597l1.978,0.354l0.147,3.15c0,0-0.133,3.938,1.876,8.57c0.694,1.292-0.187,1.819-0.187,1.819s-6.394,2.505-13.095,2.268 c0-0.324,0.326-0.306,0.326-0.936C29.731,37.606,34.606,35.702,34.606,35.702z"/><linearGradient id="T3K5VKprKE9XR7ZWYOGHgf" x1="-2369.584" x2="-2358.385" y1="1188.853" y2="1183.359" gradientTransform="matrix(-1 0 0 1 -2328.25 -1152)" gradientUnits="userSpaceOnUse"><stop offset="0" stop-color="#b78e60"/><stop offset=".133" stop-color="#a47a4f"/><stop offset=".325" stop-color="#8e643b"/><stop offset=".447" stop-color="#865c34"/><stop offset=".999" stop-color="#391b06"/></linearGradient><path fill="url(#T3K5VKprKE9XR7ZWYOGHgf)" d="M34.843,35.772c0.435-0.229,0.61-0.616-0.004-1.831c-1.808-4.461-1.571-7.621-1.583-8.535 l0.002-2.637l1.775,0.318l0.151,3.022c0,0-0.129,4.015,1.881,8.647c0.697,1.294-0.12,1.875-0.219,1.913 c0,0-6.367,2.483-13.069,2.245c0-0.292,0.276-0.315,0.276-0.874C29.8,37.744,34.843,35.772,34.843,35.772z"/><linearGradient id="T3K5VKprKE9XR7ZWYOGHgg" x1="-2369.609" x2="-2358.383" y1="1188.874" y2="1183.366" gradientTransform="matrix(-1 0 0 1 -2328.25 -1152)" gradientUnits="userSpaceOnUse"><stop offset="0" stop-color="#a97f53"/><stop offset=".091" stop-color="#9d7449"/><stop offset=".308" stop-color="#875e35"/><stop offset=".447" stop-color="#7f562e"/><stop offset=".999" stop-color="#402008"/></linearGradient><path fill="url(#T3K5VKprKE9XR7ZWYOGHgg)" d="M35.079,35.843c0.362-0.19,0.646-0.552,0.019-1.779c-1.841-4.489-1.608-7.818-1.617-8.582 l-0.021-2.677l1.573,0.282l0.155,2.895c0,0-0.125,4.093,1.886,8.724c0.699,1.297-0.054,1.932-0.251,2.006 c0,0-6.34,2.461-13.041,2.223c0-0.26,0.225-0.324,0.225-0.813C29.868,37.883,35.079,35.843,35.079,35.843z"/><linearGradient id="T3K5VKprKE9XR7ZWYOGHgh" x1="-2369.636" x2="-2358.38" y1="1188.897" y2="1183.375" gradientTransform="matrix(-1 0 0 1 -2328.25 -1152)" gradientUnits="userSpaceOnUse"><stop offset="0" stop-color="#9a7146"/><stop offset=".025" stop-color="#976f44"/><stop offset=".282" stop-color="#815830"/><stop offset=".447" stop-color="#795029"/><stop offset=".999" stop-color="#46250a"/></linearGradient><path fill="url(#T3K5VKprKE9XR7ZWYOGHgh)" d="M35.315,35.914c0.29-0.152,0.683-0.488,0.042-1.728c-1.875-4.518-1.644-8.017-1.652-8.627 l-0.043-2.717l1.371,0.246l0.158,2.767c0,0-0.12,4.17,1.89,8.802c0.702,1.3,0.013,1.988-0.282,2.099 c0,0-6.312,2.439-13.014,2.201c0-0.229,0.175-0.334,0.175-0.751C29.937,38.022,35.315,35.914,35.315,35.914z"/><linearGradient id="T3K5VKprKE9XR7ZWYOGHgi" x1="-2369.664" x2="-2358.377" y1="1188.921" y2="1183.383" gradientTransform="matrix(-1 0 0 1 -2328.25 -1152)" gradientUnits="userSpaceOnUse"><stop offset="0" stop-color="#8c633a"/><stop offset=".246" stop-color="#7b522b"/><stop offset=".447" stop-color="#734a23"/><stop offset=".999" stop-color="#4d290d"/></linearGradient><path fill="url(#T3K5VKprKE9XR7ZWYOGHgi)" d="M35.552,35.984c0.217-0.115,0.719-0.423,0.065-1.676c-1.909-4.546-1.68-8.216-1.686-8.673 l-0.066-2.757l1.168,0.209l0.162,2.639c0,0-0.115,4.247,1.895,8.879c0.705,1.302,0.08,2.044-0.315,2.193 c0,0-6.286,2.416-12.986,2.179c0-0.197,0.125-0.343,0.125-0.689C30.007,38.16,35.552,35.984,35.552,35.984z"/><linearGradient id="T3K5VKprKE9XR7ZWYOGHgj" x1="-2369.692" x2="-2358.375" y1="1188.945" y2="1183.392" gradientTransform="matrix(-1 0 0 1 -2328.25 -1152)" gradientUnits="userSpaceOnUse"><stop offset="0" stop-color="#7d552d"/><stop offset=".182" stop-color="#754c25"/><stop offset=".447" stop-color="#6d441e"/><stop offset=".999" stop-color="#532e0f"/></linearGradient><path fill="url(#T3K5VKprKE9XR7ZWYOGHgj)" d="M35.788,36.055c0.145-0.077,0.755-0.359,0.088-1.625c-1.943-4.575-1.717-8.413-1.72-8.719 l-0.089-2.797l0.966,0.173l0.166,2.511c0,0-0.111,4.325,1.9,8.956c0.707,1.305,0.147,2.1-0.347,2.286 c0,0-6.258,2.394-12.959,2.157c0-0.165,0.075-0.352,0.075-0.628C30.076,38.299,35.788,36.055,35.788,36.055z"/><linearGradient id="T3K5VKprKE9XR7ZWYOGHgk" x1="-2369.722" x2="-2358.372" y1="1188.968" y2="1183.401" gradientTransform="matrix(-1 0 0 1 -2328.25 -1152)" gradientUnits="userSpaceOnUse"><stop offset="0" stop-color="#6f4620"/><stop offset=".03" stop-color="#6e451f"/><stop offset=".447" stop-color="#663e18"/><stop offset=".999" stop-color="#5a3311"/></linearGradient><path fill="url(#T3K5VKprKE9XR7ZWYOGHgk)" d="M36.024,36.125c0.072-0.038,0.791-0.295,0.111-1.573 c-1.976-4.603-1.753-8.612-1.754-8.764l-0.112-2.837l0.764,0.137l0.17,2.384c0,0-0.106,4.402,1.904,9.034 c0.71,1.307,0.213,2.156-0.379,2.379c0,0-6.231,2.372-12.933,2.134c0-0.133,0.024-0.361,0.024-0.567 C30.144,38.437,36.024,36.125,36.024,36.125z"/><path fill="#603813" d="M36.261,36.196c0,0,0.828-0.23,0.133-1.522c-2.01-4.632-1.789-8.811-1.789-8.811l-0.134-2.877 l0.562,0.101l0.173,2.256c0,0-0.101,4.479,1.909,9.111c0.713,1.31,0.28,2.212-0.41,2.473c0,0-6.204,2.35-12.905,2.112 c0-0.102-0.026-0.37-0.026-0.505C30.213,38.576,36.261,36.196,36.261,36.196z"/><linearGradient id="T3K5VKprKE9XR7ZWYOGHgl" x1="-2427.016" x2="-2438.783" y1="1198.811" y2="1192.094" gradientTransform="matrix(-1 0 0 .9876 -2420.897 -1145.866)" gradientUnits="userSpaceOnUse"><stop offset="0" stop-color="#c69c6d"/><stop offset=".165" stop-color="#aa8054"/><stop offset=".337" stop-color="#946a40"/><stop offset=".447" stop-color="#8c6239"/><stop offset=".999" stop-color="#331604"/></linearGradient><path fill="url(#T3K5VKprKE9XR7ZWYOGHgl)" d="M12.783,26.314c0,0,0.133,3.938-1.876,8.57c-0.694,1.292,0.187,1.819,0.187,1.819 s6.394,2.505,13.095,2.268c0-2.715,0-17.824,0-17.824L12.93,23.164L12.783,26.314z"/><linearGradient id="T3K5VKprKE9XR7ZWYOGHgm" x1="6.654" x2="17.824" y1="1188.908" y2="1183.428" gradientTransform="translate(0 -1152)" gradientUnits="userSpaceOnUse"><stop offset="0" stop-color="#c69c6d"/><stop offset=".165" stop-color="#aa8054"/><stop offset=".337" stop-color="#946a40"/><stop offset=".447" stop-color="#8c6239"/><stop offset=".999" stop-color="#331604"/></linearGradient><path fill="url(#T3K5VKprKE9XR7ZWYOGHgm)" d="M13.357,35.778c-0.507-0.267-0.574-0.68,0.027-1.882c1.774-4.432,1.535-7.422,1.548-8.49 l-0.024-2.597l-1.978,0.354l-0.147,3.15c0,0,0.133,3.938-1.876,8.57c-0.694,1.292,0.187,1.819,0.187,1.819 s6.394,2.505,13.095,2.268c0-0.324-0.326-0.306-0.326-0.936C18.232,37.683,13.357,35.778,13.357,35.778z"/><linearGradient id="T3K5VKprKE9XR7ZWYOGHgn" x1="6.63" x2="17.827" y1="1188.93" y2="1183.436" gradientTransform="translate(0 -1152)" gradientUnits="userSpaceOnUse"><stop offset="0" stop-color="#b78e60"/><stop offset=".133" stop-color="#a47a4f"/><stop offset=".325" stop-color="#8e643b"/><stop offset=".447" stop-color="#865c34"/><stop offset=".999" stop-color="#391b06"/></linearGradient><path fill="url(#T3K5VKprKE9XR7ZWYOGHgn)" d="M13.121,35.849c-0.435-0.229-0.61-0.616,0.004-1.831c1.808-4.461,1.571-7.621,1.583-8.535 l-0.002-2.637l-1.775,0.318l-0.151,3.022c0,0,0.129,4.015-1.881,8.647c-0.697,1.294,0.12,1.875,0.219,1.913 c0,0,6.367,2.483,13.069,2.245c0-0.292-0.276-0.315-0.276-0.874C18.163,37.821,13.121,35.849,13.121,35.849z"/><linearGradient id="T3K5VKprKE9XR7ZWYOGHgo" x1="6.603" x2="17.829" y1="1188.951" y2="1183.443" gradientTransform="translate(0 -1152)" gradientUnits="userSpaceOnUse"><stop offset="0" stop-color="#a97f53"/><stop offset=".091" stop-color="#9d7449"/><stop offset=".308" stop-color="#875e35"/><stop offset=".447" stop-color="#7f562e"/><stop offset=".999" stop-color="#402008"/></linearGradient><path fill="url(#T3K5VKprKE9XR7ZWYOGHgo)" d="M12.884,35.919c-0.362-0.19-0.646-0.552-0.019-1.779c1.841-4.489,1.608-7.818,1.617-8.582 l0.021-2.677l-1.573,0.282l-0.155,2.895c0,0,0.125,4.093-1.886,8.724c-0.699,1.297,0.054,1.932,0.251,2.006 c0,0,6.34,2.461,13.041,2.223c0-0.26-0.225-0.324-0.225-0.813C18.094,37.959,12.884,35.919,12.884,35.919z"/><linearGradient id="T3K5VKprKE9XR7ZWYOGHgp" x1="6.576" x2="17.833" y1="1188.974" y2="1183.451" gradientTransform="translate(0 -1152)" gradientUnits="userSpaceOnUse"><stop offset="0" stop-color="#9a7146"/><stop offset=".025" stop-color="#976f44"/><stop offset=".282" stop-color="#815830"/><stop offset=".447" stop-color="#795029"/><stop offset=".999" stop-color="#46250a"/></linearGradient><path fill="url(#T3K5VKprKE9XR7ZWYOGHgp)" d="M12.648,35.99c-0.29-0.152-0.683-0.488-0.042-1.728c1.875-4.518,1.644-8.017,1.652-8.627 l0.043-2.717l-1.371,0.246l-0.158,2.767c0,0,0.12,4.17-1.89,8.802c-0.702,1.3-0.013,1.988,0.282,2.099 c0,0,6.312,2.439,13.014,2.201c0-0.229-0.175-0.334-0.175-0.751C18.025,38.098,12.648,35.99,12.648,35.99z"/><linearGradient id="T3K5VKprKE9XR7ZWYOGHgq" x1="6.548" x2="17.835" y1="1188.997" y2="1183.46" gradientTransform="translate(0 -1152)" gradientUnits="userSpaceOnUse"><stop offset="0" stop-color="#8c633a"/><stop offset=".246" stop-color="#7b522b"/><stop offset=".447" stop-color="#734a23"/><stop offset=".999" stop-color="#4d290d"/></linearGradient><path fill="url(#T3K5VKprKE9XR7ZWYOGHgq)" d="M12.411,36.06c-0.217-0.115-0.719-0.423-0.065-1.676c1.909-4.546,1.68-8.216,1.686-8.673 l0.066-2.757l-1.168,0.209l-0.162,2.639c0,0,0.115,4.247-1.895,8.879c-0.705,1.302-0.08,2.044,0.315,2.193 c0,0,6.286,2.416,12.986,2.179c0-0.197-0.125-0.343-0.125-0.689C17.956,38.236,12.411,36.06,12.411,36.06z"/><linearGradient id="T3K5VKprKE9XR7ZWYOGHgr" x1="6.521" x2="17.838" y1="1189.021" y2="1183.468" gradientTransform="translate(0 -1152)" gradientUnits="userSpaceOnUse"><stop offset="0" stop-color="#7d552d"/><stop offset=".182" stop-color="#754c25"/><stop offset=".447" stop-color="#6d441e"/><stop offset=".999" stop-color="#532e0f"/></linearGradient><path fill="url(#T3K5VKprKE9XR7ZWYOGHgr)" d="M12.175,36.131c-0.145-0.077-0.755-0.359-0.088-1.625c1.943-4.575,1.717-8.413,1.72-8.719 l0.089-2.797l-0.966,0.173l-0.165,2.51c0,0,0.111,4.325-1.9,8.956c-0.707,1.305-0.147,2.1,0.347,2.286 c0,0,6.258,2.394,12.959,2.157c0-0.165-0.075-0.352-0.075-0.628C17.887,38.375,12.175,36.131,12.175,36.131z"/><linearGradient id="T3K5VKprKE9XR7ZWYOGHgs" x1="6.492" x2="17.841" y1="1189.045" y2="1183.477" gradientTransform="translate(0 -1152)" gradientUnits="userSpaceOnUse"><stop offset="0" stop-color="#6f4620"/><stop offset=".03" stop-color="#6e451f"/><stop offset=".447" stop-color="#663e18"/><stop offset=".999" stop-color="#5a3311"/></linearGradient><path fill="url(#T3K5VKprKE9XR7ZWYOGHgs)" d="M11.938,36.202c-0.072-0.038-0.791-0.295-0.111-1.573 c1.976-4.603,1.753-8.612,1.754-8.764l0.112-2.837l-0.764,0.137l-0.17,2.384c0,0,0.106,4.402-1.904,9.034 c-0.71,1.307-0.213,2.156,0.379,2.379c0,0,6.231,2.372,12.933,2.134c0-0.133-0.024-0.361-0.024-0.567 C17.818,38.514,11.938,36.202,11.938,36.202z"/><path fill="#603813" d="M11.702,36.272c0,0-0.828-0.23-0.133-1.522c2.01-4.632,1.789-8.811,1.789-8.811l0.134-2.877 l-0.562,0.101l-0.173,2.256c0,0,0.101,4.479-1.909,9.111c-0.713,1.31-0.28,2.212,0.41,2.473c0,0,6.204,2.35,12.905,2.112 c0-0.102,0.026-0.37,0.026-0.505C17.75,38.652,11.702,36.272,11.702,36.272z"/><linearGradient id="T3K5VKprKE9XR7ZWYOGHgt" x1="23.996" x2="23.996" y1="43.299" y2="39.807" gradientUnits="userSpaceOnUse"><stop offset="0" stop-color="#fdd02d"/><stop offset=".999" stop-color="#cf941d"/></linearGradient><path fill="url(#T3K5VKprKE9XR7ZWYOGHgt)" d="M24,44l-4.5-6c-0.993-1.294,9.932-1.274,9,0L24,44z"/><radialGradient id="T3K5VKprKE9XR7ZWYOGHgu" cx="-1158.209" cy="5.962" r="1.851" gradientTransform="matrix(-1.0734 .1748 .4815 2.1652 -1231.482 218.556)" gradientUnits="userSpaceOnUse"><stop offset="0" stop-color="#ffe16e"/><stop offset=".461" stop-color="#ffd226"/><stop offset=".658" stop-color="#fbc921"/><stop offset=".978" stop-color="#f1b114"/><stop offset=".999" stop-color="#f0af13"/></radialGradient><path fill="url(#T3K5VKprKE9XR7ZWYOGHgu)" d="M15.114,26.895c-0.74-0.193-2.528-0.07-2.589,1.706c-0.058,1.679,0.452,2.444,1.13,3.165 c0.761,0.809,2.128,0.803,2.015,0.16C15.557,31.284,15.114,26.895,15.114,26.895z"/><radialGradient id="T3K5VKprKE9XR7ZWYOGHgv" cx="-20.957" cy="5.962" r="1.879" gradientTransform="matrix(1.0633 .1748 -.477 2.1652 58.423 19.804)" gradientUnits="userSpaceOnUse"><stop offset="0" stop-color="#ffe16e"/><stop offset=".461" stop-color="#ffd226"/><stop offset=".741" stop-color="#f8c21d"/><stop offset=".999" stop-color="#f0af13"/></radialGradient><path fill="url(#T3K5VKprKE9XR7ZWYOGHgv)" d="M32.742,26.895c0.733-0.193,2.504-0.07,2.565,1.706c0.058,1.679-0.448,2.444-1.12,3.165 c-0.754,0.809-2.108,0.803-1.997,0.16C32.302,31.284,32.742,26.895,32.742,26.895z"/><radialGradient id="T3K5VKprKE9XR7ZWYOGHgw" cx="175.377" cy="1123.158" r="12.068" fx="175.314" fy="1117.989" gradientTransform="matrix(.8889 0 0 1.0839 -131.962 -1190.816)" gradientUnits="userSpaceOnUse"><stop offset="0" stop-color="#ffe16e"/><stop offset=".629" stop-color="#ffd226"/><stop offset=".75" stop-color="#fdcd23"/><stop offset=".899" stop-color="#f6bd1b"/><stop offset=".999" stop-color="#f0af13"/></radialGradient><path fill="url(#T3K5VKprKE9XR7ZWYOGHgw)" d="M34.368,27.164c0,2.384-1.227,5.614-2.374,7.402C29.657,38.207,26.053,40,23.918,40 c-2.082,0-5.874-1.82-8.102-5.434c-1.115-1.808-2.322-5.017-2.322-7.402c0-0.523,0.014-4.23,0.042-4.7 c0.16-2.699,2.068-9.314,10.396-9.314c8.33,0,10.184,6.452,10.374,8.993C34.347,22.709,34.368,26.522,34.368,27.164z"/><g><radialGradient id="T3K5VKprKE9XR7ZWYOGHgx" cx="-782.012" cy="131.915" r="7.153" gradientTransform="matrix(-.0112 .979 -1.4286 -.0163 203.595 787.407)" gradientUnits="userSpaceOnUse"><stop offset="0" stop-color="#c69c6d"/><stop offset=".232" stop-color="#aa8054"/><stop offset=".474" stop-color="#946a40"/><stop offset=".629" stop-color="#8c6239"/><stop offset=".734" stop-color="#875d34"/><stop offset=".865" stop-color="#774e27"/><stop offset=".999" stop-color="#603813"/></radialGradient><path fill="url(#T3K5VKprKE9XR7ZWYOGHgx)" d="M14.163,23.82c1.061-0.295,3.779-1.947,5.905-4.604c0.243-0.304,0.678-0.36,1.008-0.152 c1.424,0.899,4.575,1.547,8.483,0.953c0.267-0.041,0.538,0.052,0.711,0.258c1.459,1.735,1.872,2.636,3.091,3.359 c0.926,0.553,1.639,1.735,1.733,2.356c0.28-2.755,0.997-13.664-11.209-13.664c-1.265,0-2.571,0.235-3.459,0.98 c-0.58-0.118-1.484-0.043-2.087,0.235c-6.726,3.104-5.428,11.51-5.505,12.778C12.959,24.463,13.741,24.005,14.163,23.82z"/><radialGradient id="T3K5VKprKE9XR7ZWYOGHgy" cx="23.934" cy="1175.108" r="10.725" gradientTransform="translate(0 -1152)" gradientUnits="userSpaceOnUse"><stop offset="0" stop-color="#603813" stop-opacity="0"/><stop offset=".999" stop-color="#603813" stop-opacity=".2"/></radialGradient><path fill="url(#T3K5VKprKE9XR7ZWYOGHgy)" d="M34.335,26.135c-0.097-0.635-2.339-3.1-3.84-4.873c-0.178-0.211-0.457-0.304-0.732-0.264 c-4.019,0.606-7.317-0.861-8.782-1.779c-0.339-0.212-0.786-0.155-1.036,0.155c-1.677,2.081-5.044,5.938-6.423,6.654 c-0.022,0.127-0.017,0.781-0.017,1.082c1.551-0.54,5.068-3.977,6.788-6.111c0.25-0.31,0.482-0.348,0.82-0.136 c1.465,0.918,4.302,1.631,8.321,1.025c0.274-0.042,0.575,0.037,0.732,0.264c1.304,1.892,3.432,4.529,4.193,4.969 C34.36,26.73,34.375,26.376,34.335,26.135z"/><radialGradient id="T3K5VKprKE9XR7ZWYOGHgz" cx="23.934" cy="1175.085" r="10.72" gradientTransform="translate(0 -1152)" gradientUnits="userSpaceOnUse"><stop offset="0" stop-color="#5c3512" stop-opacity=".143"/><stop offset=".999" stop-color="#5c3512" stop-opacity=".314"/></radialGradient><path fill="url(#T3K5VKprKE9XR7ZWYOGHgz)" d="M34.34,26.149c-0.097-0.635-2.396-3.225-3.897-4.997 c-0.178-0.211-0.457-0.304-0.732-0.264c-4.019,0.606-7.266-0.75-8.731-1.669c-0.339-0.212-0.786-0.155-1.036,0.155 c-1.677,2.081-5.048,5.948-6.426,6.664c-0.022,0.127-0.015,0.74-0.016,1.015c1.634-0.642,4.972-3.879,6.772-6.177 c0.247-0.313,0.482-0.348,0.82-0.136c1.465,0.918,4.317,1.628,8.335,1.022c0.274-0.042,0.567,0.042,0.724,0.269 c1.352,1.955,3.464,4.606,4.204,5.047C34.362,26.664,34.381,26.39,34.34,26.149z"/><radialGradient id="T3K5VKprKE9XR7ZWYOGHgA" cx="23.934" cy="1175.064" r="10.716" gradientTransform="translate(0 -1152)" gradientUnits="userSpaceOnUse"><stop offset="0" stop-color="#573111" stop-opacity=".286"/><stop offset=".999" stop-color="#573111" stop-opacity=".429"/></radialGradient><path fill="url(#T3K5VKprKE9XR7ZWYOGHgA)" d="M34.345,26.163c-0.097-0.635-2.452-3.35-3.953-5.122 c-0.178-0.211-0.457-0.304-0.732-0.264c-4.019,0.606-7.214-0.64-8.68-1.559c-0.339-0.212-0.786-0.155-1.036,0.155 c-1.677,2.081-5.051,5.958-6.43,6.674c-0.022,0.127-0.014,0.7-0.016,0.948c1.718-0.744,4.868-3.787,6.756-6.243 c0.243-0.316,0.482-0.348,0.82-0.136c1.465,0.918,4.331,1.626,8.35,1.019c0.274-0.042,0.56,0.047,0.717,0.274 c1.401,2.019,3.495,4.684,4.216,5.124C34.364,26.599,34.386,26.405,34.345,26.163z"/><radialGradient id="T3K5VKprKE9XR7ZWYOGHgB" cx="23.935" cy="1175.043" r="10.711" gradientTransform="translate(0 -1152)" gradientUnits="userSpaceOnUse"><stop offset="0" stop-color="#532e10" stop-opacity=".429"/><stop offset=".999" stop-color="#532e10" stop-opacity=".543"/></radialGradient><path fill="url(#T3K5VKprKE9XR7ZWYOGHgB)" d="M34.35,26.178c-0.097-0.635-2.508-3.474-4.009-5.246 c-0.178-0.211-0.457-0.304-0.732-0.264c-4.019,0.606-7.162-0.53-8.627-1.448c-0.339-0.212-0.786-0.155-1.036,0.155 c-1.677,2.081-5.054,5.967-6.433,6.683c-0.022,0.127-0.012,0.659-0.015,0.882c1.801-0.845,4.771-3.691,6.74-6.309 c0.239-0.318,0.482-0.348,0.82-0.136c1.465,0.918,4.345,1.623,8.365,1.017c0.274-0.042,0.553,0.053,0.71,0.28 c1.449,2.082,3.527,4.761,4.228,5.202C34.366,26.534,34.391,26.419,34.35,26.178z"/><radialGradient id="T3K5VKprKE9XR7ZWYOGHgC" cx="23.935" cy="1175.022" r="10.707" gradientTransform="translate(0 -1152)" gradientUnits="userSpaceOnUse"><stop offset="0" stop-color="#4f2b0e" stop-opacity=".571"/><stop offset=".999" stop-color="#4f2b0e" stop-opacity=".657"/></radialGradient><path fill="url(#T3K5VKprKE9XR7ZWYOGHgC)" d="M34.355,26.192c-0.097-0.635-2.565-3.599-4.066-5.371 c-0.178-0.211-0.457-0.304-0.732-0.264c-4.019,0.606-7.111-0.419-8.576-1.337c-0.339-0.212-0.786-0.155-1.036,0.155 c-1.677,2.081-5.057,5.976-6.436,6.693c-0.022,0.127-0.011,0.619-0.015,0.814c1.884-0.947,4.675-3.593,6.724-6.375 c0.236-0.321,0.482-0.348,0.82-0.136c1.465,0.918,4.36,1.621,8.378,1.014c0.274-0.042,0.545,0.059,0.702,0.286 c1.497,2.146,3.559,4.839,4.24,5.28C34.369,26.469,34.396,26.432,34.355,26.192z"/><radialGradient id="T3K5VKprKE9XR7ZWYOGHgD" cx="23.935" cy="1174.999" r="10.703" gradientTransform="translate(0 -1152)" gradientUnits="userSpaceOnUse"><stop offset="0" stop-color="#4b280d" stop-opacity=".714"/><stop offset=".999" stop-color="#4b280d" stop-opacity=".771"/></radialGradient><path fill="url(#T3K5VKprKE9XR7ZWYOGHgD)" d="M34.36,26.205c-0.097-0.635-2.621-3.723-4.122-5.495 c-0.178-0.211-0.457-0.304-0.732-0.264c-4.019,0.606-7.059-0.309-8.525-1.227c-0.339-0.212-0.786-0.155-1.036,0.155 c-1.677,2.081-5.061,5.986-6.439,6.702c-0.022,0.127-0.008,0.579-0.015,0.747c1.967-1.048,4.58-3.494,6.708-6.442 c0.233-0.323,0.482-0.348,0.82-0.136c1.465,0.918,4.374,1.618,8.393,1.012c0.274-0.042,0.537,0.064,0.696,0.291 c1.546,2.209,3.591,4.916,4.251,5.357C34.37,26.404,34.401,26.447,34.36,26.205z"/><radialGradient id="T3K5VKprKE9XR7ZWYOGHgE" cx="23.936" cy="1174.978" r="10.698" gradientTransform="translate(0 -1152)" gradientUnits="userSpaceOnUse"><stop offset="0" stop-color="#46240c" stop-opacity=".857"/><stop offset=".999" stop-color="#46240c" stop-opacity=".886"/></radialGradient><path fill="url(#T3K5VKprKE9XR7ZWYOGHgE)" d="M34.365,26.219c-0.097-0.635-2.677-3.848-4.178-5.62 c-0.178-0.211-0.457-0.304-0.732-0.264c-4.019,0.606-7.008-0.199-8.473-1.117c-0.339-0.212-0.786-0.155-1.036,0.155 c-1.677,2.081-5.064,5.996-6.443,6.712c-0.022,0.127-0.007,0.539-0.015,0.68c2.05-1.15,4.492-3.392,6.692-6.508 c0.231-0.325,0.482-0.348,0.82-0.136c1.465,0.918,4.388,1.615,8.407,1.009c0.274-0.042,0.53,0.07,0.689,0.296 c1.594,2.273,3.623,4.994,4.264,5.434C34.373,26.338,34.405,26.461,34.365,26.219z"/><path fill="#42210b" d="M34.37,26.234c-0.097-0.635-2.734-3.972-4.235-5.744c-0.178-0.211-0.457-0.304-0.732-0.264 c-4.019,0.606-6.956-0.088-8.421-1.006c-0.339-0.212-0.786-0.155-1.036,0.155c-1.677,2.081-5.067,6.006-6.446,6.722 c-0.022,0.127-0.005,0.498-0.015,0.614c2.133-1.251,4.396-3.294,6.675-6.574c0.228-0.327,0.482-0.348,0.82-0.136 c1.465,0.918,4.403,1.613,8.421,1.006c0.274-0.042,0.523,0.076,0.681,0.302c1.642,2.336,3.655,5.071,4.275,5.512 C34.375,26.273,34.41,26.475,34.37,26.234z"/><g><radialGradient id="T3K5VKprKE9XR7ZWYOGHgF" cx="23.587" cy="21.604" r="9.03" gradientUnits="userSpaceOnUse"><stop offset="0" stop-color="#c69c6d"/><stop offset=".232" stop-color="#aa8054"/><stop offset=".474" stop-color="#946a40"/><stop offset=".629" stop-color="#8c6239"/><stop offset=".734" stop-color="#875d34"/><stop offset=".865" stop-color="#774e27"/><stop offset=".999" stop-color="#603813"/></radialGradient><path fill="url(#T3K5VKprKE9XR7ZWYOGHgF)" d="M33.941,23.397c-0.699-1.098-1.42-2.679-2.88-4.378 c-0.173-0.202-0.444-0.292-0.711-0.252c-3.814,0.567-6.583-0.325-8.062-1.207c-0.405-0.339-1.16-0.749-1.005-2.553 c0.091-1.061-1.7-1.133-2.184,0.077c0,0-0.696,1.191-0.522,2.707c0.087,0.278-0.523,0.876-0.561,0.921 c-2.127,2.602-2.991,3.761-4.31,4.935c-0.611,0.556-0.823,2.083-0.896,3.036c0.019,0.002,0.039,0.005,0.058,0.007 c0.191-0.948,0.621-1.164,1.18-1.525c0.967-0.601,3.877-3.224,6.004-5.826c0.243-0.298,0.74-0.344,1.07-0.141 c1.424,0.881,4.429,1.573,8.336,0.991c0.266-0.04,0.677,0.093,0.851,0.295c1.459,1.699,2.041,3.497,3.04,4.484 c0.612,0.605,1.261,1.204,1.567,1.728c0.042-0.006,0.087-0.011,0.13-0.016C34.908,25.844,34.455,24.205,33.941,23.397z"/><radialGradient id="T3K5VKprKE9XR7ZWYOGHgG" cx="23.585" cy="21.654" r="9.005" gradientUnits="userSpaceOnUse"><stop offset="0" stop-color="#b78e60"/><stop offset=".188" stop-color="#a47a4f"/><stop offset=".457" stop-color="#8e643b"/><stop offset=".629" stop-color="#865c34"/><stop offset=".744" stop-color="#81572f"/><stop offset=".886" stop-color="#714822"/><stop offset=".999" stop-color="#603813"/></radialGradient><path fill="url(#T3K5VKprKE9XR7ZWYOGHgG)" d="M33.871,23.61c-0.72-1.121-1.487-2.693-2.91-4.435c-0.169-0.206-0.444-0.292-0.711-0.252 c-3.814,0.567-6.642-0.315-8.122-1.197c-0.405-0.339-1.146-0.778-0.984-2.667c0.086-0.992-1.503-1.014-1.93,0.06 c0,0-0.65,1.234-0.439,2.741c0.087,0.278-0.448,0.805-0.485,0.851c-2.199,2.768-3.271,4.037-4.536,5.153 c-0.609,0.547-0.842,1.927-0.932,2.819c0.021,0.003,0.043,0.005,0.064,0.008c0.211-0.848,0.643-1.083,1.163-1.426 c1.372-0.936,3.875-3.313,6.002-5.915c0.243-0.298,0.731-0.346,1.061-0.142c1.424,0.881,4.446,1.605,8.353,1.024 c0.266-0.04,0.662,0.083,0.83,0.288c1.412,1.71,1.993,3.41,3.067,4.524c0.566,0.588,1.191,1.151,1.516,1.655 c0.046-0.007,0.098-0.012,0.146-0.018C34.852,25.831,34.365,24.38,33.871,23.61z"/><radialGradient id="T3K5VKprKE9XR7ZWYOGHgH" cx="23.58" cy="21.708" r="8.979" gradientUnits="userSpaceOnUse"><stop offset="0" stop-color="#a97f53"/><stop offset=".129" stop-color="#9d7449"/><stop offset=".434" stop-color="#875e35"/><stop offset=".629" stop-color="#7f562e"/><stop offset=".759" stop-color="#7a5129"/><stop offset=".92" stop-color="#6a421c"/><stop offset=".999" stop-color="#603813"/></radialGradient><path fill="url(#T3K5VKprKE9XR7ZWYOGHgH)" d="M33.802,23.821c-0.741-1.144-1.555-2.707-2.94-4.492 c-0.163-0.209-0.444-0.292-0.711-0.252c-3.814,0.567-6.702-0.305-8.181-1.188c-0.405-0.339-1.131-0.807-0.964-2.781 c0.08-0.925-1.306-0.895-1.675,0.043c0,0-0.605,1.277-0.357,2.775c0.087,0.278-0.373,0.734-0.409,0.781 c-2.278,2.929-3.551,4.312-4.761,5.372c-0.608,0.537-0.862,1.775-0.967,2.606c0.024,0.003,0.05,0.006,0.073,0.009 c0.229-0.756,0.663-1.006,1.143-1.33c1.778-1.271,3.873-3.402,6-6.005c0.243-0.298,0.723-0.347,1.052-0.143 c1.424,0.881,4.462,1.639,8.37,1.057c0.266-0.04,0.646,0.074,0.811,0.282c1.365,1.722,1.947,3.322,3.093,4.563 c0.528,0.572,1.12,1.104,1.456,1.589c0.054-0.008,0.112-0.015,0.168-0.022C34.796,25.837,34.278,24.559,33.802,23.821z"/><radialGradient id="T3K5VKprKE9XR7ZWYOGHgI" cx="23.576" cy="21.762" r="8.952" gradientUnits="userSpaceOnUse"><stop offset="0" stop-color="#9a7146"/><stop offset=".035" stop-color="#976f44"/><stop offset=".397" stop-color="#815830"/><stop offset=".629" stop-color="#795029"/><stop offset=".776" stop-color="#744b24"/><stop offset=".96" stop-color="#643c17"/><stop offset=".999" stop-color="#603813"/></radialGradient><path fill="url(#T3K5VKprKE9XR7ZWYOGHgI)" d="M33.732,24.034c-0.761-1.166-1.621-2.721-2.97-4.548 c-0.158-0.213-0.444-0.292-0.711-0.252c-3.814,0.567-6.761-0.296-8.241-1.179c-0.405-0.339-1.118-0.837-0.943-2.894 c0.075-0.856-1.109-0.777-1.421,0.026c0,0-0.559,1.32-0.273,2.808c0.087,0.278-0.298,0.663-0.334,0.711 c-2.352,3.093-3.831,4.588-4.987,5.591c-0.608,0.53-0.88,1.621-1.001,2.39c0.027,0.004,0.058,0.007,0.085,0.01 c0.246-0.667,0.678-0.928,1.119-1.234c2.183-1.607,3.871-3.491,5.997-6.093c0.243-0.298,0.714-0.348,1.043-0.144 c1.424,0.881,4.479,1.671,8.387,1.09c0.266-0.04,0.631,0.065,0.79,0.277c1.318,1.733,1.903,3.231,3.12,4.602 c0.491,0.553,1.051,1.056,1.394,1.52c0.062-0.009,0.125-0.018,0.19-0.027C34.738,25.851,34.191,24.738,33.732,24.034z"/><radialGradient id="T3K5VKprKE9XR7ZWYOGHgJ" cx="23.57" cy="21.814" r="8.924" gradientUnits="userSpaceOnUse"><stop offset="0" stop-color="#8c633a"/><stop offset=".346" stop-color="#7b522b"/><stop offset=".629" stop-color="#734a23"/><stop offset=".803" stop-color="#6e451e"/><stop offset=".999" stop-color="#603813"/></radialGradient><path fill="url(#T3K5VKprKE9XR7ZWYOGHgJ)" d="M33.663,24.246c-0.782-1.189-1.689-2.735-3-4.605c-0.152-0.217-0.444-0.292-0.711-0.252 c-3.814,0.567-6.82-0.287-8.3-1.169c-0.405-0.339-1.104-0.866-0.922-3.007c0.069-0.788-0.913-0.659-1.166,0.009 c0,0-0.514,1.363-0.191,2.842c0.087,0.278-0.223,0.593-0.259,0.64c-2.423,3.259-4.111,4.865-5.212,5.81 c-0.605,0.519-0.898,1.467-1.035,2.175c0.036,0.005,0.075,0.009,0.11,0.014c0.262-0.579,0.683-0.852,1.083-1.14 c2.588-1.942,3.869-3.58,5.996-6.183c0.243-0.298,0.705-0.349,1.035-0.146c1.424,0.881,4.496,1.704,8.404,1.122 c0.266-0.04,0.615,0.056,0.771,0.27c1.271,1.744,1.862,3.138,3.147,4.642c0.456,0.533,0.986,1.009,1.332,1.452 c0.068-0.011,0.136-0.021,0.207-0.031C34.679,25.876,34.104,24.919,33.663,24.246z"/><radialGradient id="T3K5VKprKE9XR7ZWYOGHgK" cx="23.56" cy="21.867" r="8.896" gradientUnits="userSpaceOnUse"><stop offset="0" stop-color="#7d552d"/><stop offset=".257" stop-color="#754c25"/><stop offset=".629" stop-color="#6d441e"/><stop offset=".847" stop-color="#683f19"/><stop offset=".999" stop-color="#603813"/></radialGradient><path fill="url(#T3K5VKprKE9XR7ZWYOGHgK)" d="M34.904,26.667c0-0.008,0-0.008-0.008-0.016c-0.301-0.773-0.887-1.555-1.302-2.19 c-0.252-0.374-0.513-0.781-0.798-1.221c-0.627-0.977-1.351-2.124-2.23-3.443c-0.147-0.22-0.448-0.293-0.716-0.252 c-3.809,0.57-6.878-0.277-8.36-1.156c-0.407-0.342-1.091-0.895-0.904-3.126c0.065-0.716-0.708-0.537-0.912-0.008 c0,0-0.464,1.408-0.106,2.882c0.09,0.277-0.147,0.521-0.179,0.57c-1.408,1.929-2.621,3.313-3.598,4.314 c-0.765,0.781-1.384,1.327-1.84,1.709c-0.391,0.334-0.659,0.781-0.838,1.229c-0.106,0.252-0.179,0.505-0.236,0.732 c0.05,0.007,0.1,0.014,0.148,0.021c0.133-0.246,0.294-0.444,0.471-0.607c0.008,0,0.008-0.008,0.008-0.008v-0.008 c0.008,0.008,0.008,0,0.008,0c0.008,0,0.008-0.008,0.016-0.008c0.008-0.008,0.016-0.016,0.024-0.024 c0.016-0.016,0.033-0.033,0.049-0.041c0.008-0.008,0.016-0.016,0.024-0.024c0.008,0,0.016-0.008,0.024-0.016v-0.008 c0,0,0,0,0.008,0v-0.008c0,0,0,0.008,0.008,0c0.041-0.033,0.09-0.073,0.138-0.098c0.081-0.073,0.171-0.138,0.252-0.195 c0.122-0.09,0.236-0.179,0.35-0.269c0.024-0.016,0.049-0.041,0.073-0.057v-0.008h0.008c0.008-0.008,0.016-0.008,0.016-0.008 c0.016-0.016,0.033-0.033,0.049-0.041c0.016-0.016,0.024-0.024,0.041-0.033c0.024-0.016,0.049-0.041,0.065-0.049v-0.008 c0.016-0.008,0.024-0.016,0.033-0.016c0.024-0.033,0.049-0.049,0.073-0.065c0.024-0.016,0.041-0.033,0.057-0.049 c0.016-0.008,0.024-0.016,0.033-0.024c2.377-1.929,3.272-3.289,5.201-5.649c0.179-0.212,0.472-0.301,0.741-0.244 c0.098,0.008,0.195,0.041,0.285,0.098c0.415,0.252,0.96,0.505,1.636,0.724c0.049,0.016,0.09,0.033,0.138,0.041 c0.293,0.09,0.619,0.179,0.952,0.252c0.138,0.033,0.277,0.057,0.423,0.081c0.13,0.024,0.26,0.049,0.399,0.065 c0.081,0.016,0.155,0.033,0.236,0.033c1.335,0.187,2.906,0.212,4.632-0.041c0.203-0.033,0.448,0.016,0.619,0.138 c0.033,0.016,0.057,0.041,0.065,0.065c0.033,0.016,0.049,0.041,0.065,0.065c0.016,0.024,0.033,0.049,0.049,0.073 c0.057,0.073,0.106,0.147,0.155,0.22c0.065,0.09,0.122,0.179,0.187,0.269c0.049,0.081,0.098,0.155,0.147,0.228 c0.049,0.073,0.09,0.138,0.13,0.203c0.049,0.065,0.081,0.13,0.122,0.187c0.008,0.008,0.008,0.008,0.016,0.016 c0.033,0.065,0.073,0.122,0.114,0.179c0.7,1.123,1.278,2.124,2.255,3.305c0.301,0.358,0.635,0.692,0.928,1.001 c0,0.008,0,0.008,0,0.008h0.008c0,0.008,0.008,0.008,0.008,0.008c0,0.008,0.008,0.008,0.008,0.008 c0,0.008,0.008,0.008,0.008,0.008c0.111,0.119,0.213,0.235,0.306,0.349c0.074-0.012,0.147-0.024,0.226-0.035 C34.911,26.686,34.908,26.676,34.904,26.667z"/><radialGradient id="T3K5VKprKE9XR7ZWYOGHgL" cx="23.549" cy="21.92" r="8.864" gradientUnits="userSpaceOnUse"><stop offset="0" stop-color="#6f4620"/><stop offset=".042" stop-color="#6e451f"/><stop offset=".629" stop-color="#663e18"/><stop offset=".975" stop-color="#613914"/><stop offset=".999" stop-color="#603813"/></radialGradient><path fill="url(#T3K5VKprKE9XR7ZWYOGHgL)" d="M33.525,24.67c-0.824-1.235-1.823-2.763-3.061-4.718 c-0.142-0.224-0.444-0.292-0.711-0.252c-3.814,0.567-6.939-0.268-8.419-1.15c-0.405-0.339-1.083-0.925-0.882-3.233 c0.057-0.652-0.518-0.421-0.658-0.025c0,0-0.423,1.451-0.025,2.91c0.087,0.278-0.073,0.451-0.107,0.499 c-2.558,3.598-4.67,5.417-5.662,6.248c-0.599,0.499-0.933,1.163-1.103,1.745c0.067,0.009,0.13,0.019,0.193,0.029 c0.283-0.426,0.66-0.716,0.975-0.959c3.398-2.613,3.865-3.758,5.992-6.361c0.243-0.298,0.687-0.352,1.017-0.148 c1.424,0.881,4.53,1.77,8.438,1.188c0.266-0.04,0.584,0.037,0.731,0.259c1.175,1.766,1.784,2.947,3.2,4.72 c0.392,0.491,0.856,0.917,1.198,1.318c0.079-0.013,0.155-0.027,0.239-0.039C34.547,25.949,33.932,25.282,33.525,24.67z"/><path fill="#603813" d="M33.456,24.882c-0.845-1.258-1.89-2.777-3.091-4.774c-0.137-0.228-0.444-0.292-0.711-0.252 c-3.814,0.567-6.999-0.258-8.478-1.14c-0.405-0.339-1.062-0.953-0.86-3.346c0.053-0.584-0.321-0.303-0.404-0.042 c0,0-0.378,1.494,0.057,2.943c0.087,0.278,0.002,0.38-0.033,0.429c-2.629,3.764-4.95,5.693-5.888,6.466 c-0.596,0.489-0.95,1.014-1.136,1.53c0.084,0.012,0.162,0.025,0.241,0.037c0.286-0.367,0.639-0.649,0.914-0.871 c3.804-2.948,3.862-3.848,5.989-6.45c0.243-0.298,0.679-0.352,1.008-0.149c1.424,0.881,4.547,1.802,8.455,1.221 c0.266-0.04,0.569,0.028,0.711,0.252c1.128,1.778,1.75,2.849,3.226,4.76c0.362,0.469,0.794,0.872,1.129,1.252 c0.082-0.014,0.164-0.028,0.252-0.041C34.476,26,33.847,25.464,33.456,24.882z"/></g></g><g><path fill="#805b2a" d="M16.038,28.026c-0.019,0.299,0.045,0.273,0.16,0.422c0,0,1.297,1.794,5.211,0.566 c0.283-0.101,0.487-0.293,0.457-0.524C21.365,24.516,16.345,25.1,16.038,28.026z"/><path fill="#fff" d="M16.096,27.847c-0.098,0.21-0.067,0.378,0,0.547c0.279,0.737,2.519,3.363,5.542,0.606 c0.225-0.195,0.261-0.366,0.205-0.609c-0.056-0.243-0.839-2.23-2.891-2.23C16.919,26.162,16.265,27.561,16.096,27.847z"/><linearGradient id="T3K5VKprKE9XR7ZWYOGHgM" x1="17.323" x2="20.729" y1="1179.846" y2="1179.846" gradientTransform="translate(0 -1152)" gradientUnits="userSpaceOnUse"><stop offset="0" stop-color="#c69c6d"/><stop offset="1" stop-color="#754c24"/></linearGradient><circle cx="19.026" cy="27.846" r="1.703" fill="url(#T3K5VKprKE9XR7ZWYOGHgM)"/><radialGradient id="T3K5VKprKE9XR7ZWYOGHgN" cx="19.026" cy="1179.846" r=".857" gradientTransform="translate(0 -1152)" gradientUnits="userSpaceOnUse"><stop offset="0" stop-color="#1c1911"/><stop offset=".999" stop-color="#171714"/></radialGradient><circle cx="19.026" cy="27.846" r=".857" fill="url(#T3K5VKprKE9XR7ZWYOGHgN)"/><circle cx="18.612" cy="27.404" r=".402" fill="#fff"/></g><g><path fill="#805b2a" d="M31.709,28.026c0.019,0.299-0.045,0.273-0.16,0.422c0,0-1.297,1.794-5.211,0.566 c-0.283-0.101-0.487-0.293-0.457-0.524C26.382,24.516,31.402,25.1,31.709,28.026z"/><path fill="#fff" d="M31.651,27.847c0.098,0.21,0.067,0.378,0,0.547c-0.279,0.737-2.519,3.363-5.542,0.606 c-0.225-0.195-0.261-0.366-0.205-0.609c0.056-0.243,0.839-2.23,2.891-2.23C30.826,26.162,31.482,27.561,31.651,27.847z"/><linearGradient id="T3K5VKprKE9XR7ZWYOGHgO" x1="72.639" x2="76.045" y1="224.291" y2="224.291" gradientTransform="matrix(1 0 0 -1 -45.622 252.137)" gradientUnits="userSpaceOnUse"><stop offset="0" stop-color="#c69c6d"/><stop offset="1" stop-color="#754c24"/></linearGradient><circle cx="28.72" cy="27.846" r="1.703" fill="url(#T3K5VKprKE9XR7ZWYOGHgO)"/><radialGradient id="T3K5VKprKE9XR7ZWYOGHgP" cx="-2957.294" cy="1179.846" r=".857" gradientTransform="matrix(-1 0 0 1 -2928.574 -1152)" gradientUnits="userSpaceOnUse"><stop offset="0" stop-color="#1c1911"/><stop offset=".999" stop-color="#171714"/></radialGradient><circle cx="28.72" cy="27.846" r=".857" fill="url(#T3K5VKprKE9XR7ZWYOGHgP)"/><circle cx="28.329" cy="27.404" r=".402" fill="#fff"/></g><g><path fill="#805b2a" d="M30.563,24.893c-1.112-0.284-2.289-0.2-3.305,0.19c-0.316,0.121-0.671-0.036-0.793-0.352 c-0.121-0.316,0.036-0.671,0.352-0.793c0.033-0.012,0.066-0.022,0.099-0.029l0.014-0.002c1.314-0.257,2.666-0.103,3.835,0.421 c0.152,0.068,0.22,0.246,0.152,0.398c-0.061,0.136-0.21,0.204-0.349,0.168L30.563,24.893z"/><path fill="#805b2a" d="M17.268,24.328c1.17-0.523,2.522-0.678,3.835-0.421l0.011,0.002 c0.332,0.065,0.549,0.387,0.484,0.72c-0.065,0.332-0.387,0.549-0.72,0.484c-0.034-0.007-0.071-0.017-0.103-0.029 c-1.016-0.391-2.192-0.475-3.305-0.19l-0.006,0.002c-0.161,0.042-0.326-0.056-0.366-0.217 C17.063,24.533,17.137,24.386,17.268,24.328z"/></g><g><path fill="#8e2809" d="M20.809,35.067c-0.178-0.019-0.19,0.132-0.074,0.282c0.834,1.092,2.066,1.394,3.178,1.394 c1.022,0,2.595-0.427,3.199-1.373c0.102-0.16,0.072-0.338-0.095-0.304c-1.576,0.445-2.305-0.799-3.135,0.03 C23.076,34.292,22.274,35.36,20.809,35.067z"/><path fill="#601808" d="M23.846,36.227c0.042-0.018,1.175-0.489,2.145-0.602c-1.241-0.096-2.089,0.112-2.149,0.128 c-0.06-0.015-0.908-0.224-2.149-0.128c0.97,0.113,2.103,0.584,2.145,0.602v0.003c0,0,0.003-0.002,0.004-0.002l0.004,0.002V36.227 z"/></g><g><radialGradient id="T3K5VKprKE9XR7ZWYOGHgQ" cx="-307.949" cy="693.976" r="1.391" gradientTransform="matrix(1.37 0 0 -1.3195 445.853 947.239)" gradientUnits="userSpaceOnUse"><stop offset=".245" stop-color="#cc9000"/><stop offset=".415" stop-color="#d09504" stop-opacity=".822"/><stop offset=".627" stop-color="#dca50f" stop-opacity=".599"/><stop offset=".851" stop-color="#eebd20" stop-opacity=".363"/><stop offset="1" stop-color="#fed12e" stop-opacity="0"/></radialGradient><path fill="url(#T3K5VKprKE9XR7ZWYOGHgQ)" d="M23.948,32.091c-0.641,0-1.163-0.163-1.486-0.339c-0.237-0.13-0.477-0.07-0.32,0.338 c0.212,0.553,0.698,1.205,1.805,1.205c1.088,0,1.576-0.629,1.794-1.176c0.168-0.42-0.074-0.462-0.28-0.365 C25.065,31.937,24.573,32.091,23.948,32.091z"/><radialGradient id="T3K5VKprKE9XR7ZWYOGHgR" cx="-409.01" cy="604.179" r="1.432" gradientTransform="matrix(1.4827 .036 .0172 -.7101 620.045 475.142)" gradientUnits="userSpaceOnUse"><stop offset=".479" stop-color="#fed53f"/><stop offset=".926" stop-color="#fed53f" stop-opacity=".141"/><stop offset="1" stop-color="#fed53f" stop-opacity="0"/></radialGradient><path fill="url(#T3K5VKprKE9XR7ZWYOGHgR)" d="M26.255,31.445c-0.015,0.616-1.047,1.09-2.304,1.06c-1.258-0.031-2.265-0.554-2.25-1.171 c0.015-0.616,1.047-1.09,2.304-1.06C25.263,30.305,26.27,30.83,26.255,31.445z"/><radialGradient id="T3K5VKprKE9XR7ZWYOGHgS" cx="24.011" cy="314.964" r="1.149" gradientTransform="matrix(1 0 0 -.6596 0 239.1)" gradientUnits="userSpaceOnUse"><stop offset=".004" stop-color="#fff4c9"/><stop offset="1" stop-color="#fff4c9" stop-opacity="0"/></radialGradient><ellipse cx="24.011" cy="31.351" fill="url(#T3K5VKprKE9XR7ZWYOGHgS)" rx="1.149" ry=".758"/></g></g><g><g opacity=".7"><path fill="#1f212b" d="M35.206,25.343l-0.154-2.009c-3.107-0.417-6.791-0.64-11.052-0.64 c-4.275,0-7.965,0.228-11.084,0.651l-0.159,2.074c0,0,0.009,0.421-0.035,1.133c3.066-0.447,6.944-0.719,11.279-0.719 c4.317,0,8.192,0.268,11.246,0.709C35.197,25.789,35.206,25.343,35.206,25.343z" opacity=".111"/><path fill="#1f212b" d="M35.206,25.343l-0.139-1.812c-3.069-0.414-6.748-0.643-11.067-0.643 c-4.335,0-8.019,0.234-11.099,0.654l-0.144,1.876c0,0,0.006,0.359-0.026,0.963c3.028-0.439,6.888-0.716,11.269-0.716 c4.361,0,8.22,0.273,11.236,0.706C35.199,25.727,35.206,25.343,35.206,25.343z" opacity=".222"/><path fill="#1f212b" d="M35.206,25.343l-0.124-1.614c-3.032-0.411-6.704-0.646-11.082-0.646 c-4.396,0-8.073,0.24-11.114,0.657l-0.129,1.678c0,0,0.006,0.289-0.017,0.794C15.73,25.781,19.573,25.5,24,25.5 c4.405,0,8.248,0.277,11.227,0.703C35.2,25.66,35.206,25.343,35.206,25.343z" opacity=".333"/><path fill="#1f212b" d="M35.206,25.343l-0.109-1.416c-2.994-0.408-6.66-0.649-11.098-0.649 c-4.458,0-8.128,0.247-11.13,0.661l-0.114,1.481c0,0,0.004,0.231-0.01,0.624c2.953-0.425,6.78-0.71,11.254-0.71 c4.449,0,8.276,0.281,11.219,0.7C35.202,25.597,35.206,25.343,35.206,25.343z" opacity=".444"/><path fill="#1f212b" d="M35.206,25.343l-0.094-1.218C32.158,23.72,28.497,23.472,24,23.472 c-4.519,0-8.182,0.253-11.145,0.664l-0.099,1.283c0,0,0.004,0.162-0.004,0.455c2.917-0.418,6.728-0.707,11.248-0.707 c4.493,0,8.306,0.285,11.213,0.697C35.203,25.534,35.206,25.343,35.206,25.343z" opacity=".556"/><path fill="#1f212b" d="M35.206,25.343l-0.078-1.021c-2.917-0.402-6.571-0.656-11.128-0.656 c-4.582,0-8.237,0.26-11.16,0.667l-0.083,1.085c0,0,0.002,0.107-0.001,0.286C15.637,25.294,19.433,25,24,25 c4.537,0,8.336,0.29,11.209,0.695C35.204,25.474,35.206,25.343,35.206,25.343z" opacity=".667"/><path fill="#1f212b" d="M35.206,25.343l-0.063-0.823c-2.878-0.399-6.526-0.66-11.143-0.66 c-4.645,0-8.293,0.266-11.175,0.671l-0.068,0.887c0,0,0.001,0.048,0.001,0.117c2.847-0.405,6.63-0.703,11.243-0.703 c4.582,0,8.368,0.294,11.206,0.692C35.205,25.41,35.206,25.343,35.206,25.343z" opacity=".778"/><path fill="#1f212b" d="M35.206,25.343l-0.048-0.625c-2.839-0.396-6.481-0.663-11.158-0.663 c-4.708,0-8.348,0.273-11.19,0.674l-0.049,0.638c2.812-0.398,6.581-0.701,11.239-0.701c4.627,0,8.402,0.298,11.206,0.691 C35.206,25.355,35.206,25.343,35.206,25.343z" opacity=".889"/><path fill="#1f212b" d="M35.174,24.916c-2.8-0.392-6.435-0.666-11.174-0.666c-4.772,0-8.404,0.28-11.206,0.677 l-0.02,0.262C15.559,24.787,19.197,24.5,24,24.5c4.771,0,8.411,0.282,11.194,0.679L35.174,24.916z"/></g><path fill="#fff" d="M14,16l3.998-10l-2.54,1.579C15.458,7.579,18,0,23.5,0c3.5,0,5,3.5,5,3.5L34,16H14z"/><linearGradient id="T3K5VKprKE9XR7ZWYOGHgT" x1="-931.131" x2="-912.362" y1="12.894" y2="7.156" gradientTransform="matrix(-1 0 0 1 -896 0)" gradientUnits="userSpaceOnUse"><stop offset="0" stop-color="#f282ff" stop-opacity="0"/><stop offset=".407" stop-color="#dc65e7" stop-opacity=".481"/><stop offset=".846" stop-color="#c142c9"/></linearGradient><path fill="url(#T3K5VKprKE9XR7ZWYOGHgT)" d="M34,16L28.5,3.5c0,0-1.5-3.5-5-3.5c-5.5,0-8.042,7.579-8.042,7.579L17.998,6L14,16H34z"/><linearGradient id="T3K5VKprKE9XR7ZWYOGHgU" x1="12.829" x2="30.607" y1="12.734" y2="7.299" gradientUnits="userSpaceOnUse"><stop offset="0" stop-color="#f282ff" stop-opacity="0"/><stop offset=".407" stop-color="#dc65e7" stop-opacity=".481"/><stop offset=".846" stop-color="#c142c9"/></linearGradient><path fill="url(#T3K5VKprKE9XR7ZWYOGHgU)" d="M34,16H14c0,0,0,0,0.01-0.01L17.998,6l-2.54,1.579C15.458,7.579,18,0,23.5,0 c3.5,0,5,3.5,5,3.5l5.49,12.49C34,16,34,16,34,16z"/><path fill="#f3b7fd" d="M15.076,13.321L14,16c0,0,3.001-2.001,10-2.001s9.999,2,10,2.001h0c0,0,0,0-0.01-0.01 l-1.193-2.715c-1.792-0.62-4.663-1.276-8.797-1.276C19.763,11.999,16.857,12.688,15.076,13.321z"/><path fill="#fff" d="M4,27.5C4,25.5,14,16,14,16s3-2.001,10-2.001S34,16,34,16s10,9.5,10,11.5c0,0-3-3.5-20-3.5 S4,27.5,4,27.5z"/><linearGradient id="T3K5VKprKE9XR7ZWYOGHgV" x1="4" x2="44" y1="20.75" y2="20.75" gradientUnits="userSpaceOnUse"><stop offset="0" stop-color="#f282ff" stop-opacity="0"/><stop offset=".444" stop-color="#de65ed" stop-opacity=".525"/><stop offset=".846" stop-color="#c948db"/></linearGradient><path fill="url(#T3K5VKprKE9XR7ZWYOGHgV)" d="M4,27.5C4,25.5,14,16,14,16s3-2.001,10-2.001S34,16,34,16s10,9.5,10,11.5 c0,0-3-3.5-20-3.5S4,27.5,4,27.5z"/><linearGradient id="T3K5VKprKE9XR7ZWYOGHgW" x1="4" x2="44" y1="20.75" y2="20.75" gradientUnits="userSpaceOnUse"><stop offset=".154" stop-color="#c948db"/><stop offset=".556" stop-color="#de65ed" stop-opacity=".525"/><stop offset="1" stop-color="#f282ff" stop-opacity="0"/></linearGradient><path fill="url(#T3K5VKprKE9XR7ZWYOGHgW)" d="M4,27.5C4,25.5,14,16,14,16s3-2.001,10-2.001S34,16,34,16s10,9.5,10,11.5 c0,0-3-3.5-20-3.5S4,27.5,4,27.5z"/><radialGradient id="T3K5VKprKE9XR7ZWYOGHgX" cx="24" cy="30.538" r="29.36" gradientTransform="matrix(.9995 -.0326 .0202 .6184 -.604 12.437)" gradientUnits="userSpaceOnUse"><stop offset=".123" stop-color="#a342c9"/><stop offset=".438" stop-color="#cb4add" stop-opacity=".829"/><stop offset=".696" stop-color="#de65ee" stop-opacity=".449"/><stop offset="1" stop-color="#f282ff" stop-opacity="0"/></radialGradient><path fill="url(#T3K5VKprKE9XR7ZWYOGHgX)" d="M44,27.5c0,0-3-3.5-20-3.5S4,27.5,4,27.5C4,25.5,14,16,14,16s0,0,0.01-0.01 C14.19,15.88,17.22,14,24,14c6.12,0,9.19,1.53,9.86,1.91c0.02,0.02,0.04,0.03,0.06,0.04c0.03,0.02,0.06,0.03,0.07,0.04 S34,16,34,16S44,25.5,44,27.5z"/><path fill="#a600ab" d="M4,27.5c0,0,3-3.5,20-3.5l0,0c17,0,20,3.5,20,3.5l-0.535,0.192C42.662,27.072,38.459,24.5,24,24.5 c-14.433,0-18.647,2.563-19.464,3.193L4,27.5z"/><g opacity=".2"><path d="M15.071,13.321c0,0,1.71-2.435,4.679-2.856c2.666-0.379,5.162-2.113,2.644-2.472 c-2.784-0.396-5.557,0.909-5.874,1.707L15.071,13.321z" opacity=".006"/><path d="M15.071,13.321c0,0,1.741-2.534,4.71-2.953c2.364-0.336,4.688-1.87,2.421-2.239 c-2.483-0.404-5.397,0.858-5.715,1.651L15.071,13.321z" opacity=".011"/><path d="M15.071,13.321c0,0,1.772-2.633,4.741-3.05c2.061-0.293,4.216-1.626,2.199-2.005 c-2.181-0.41-5.238,0.807-5.556,1.594L15.071,13.321z" opacity=".017"/><path d="M15.071,13.321c0,0,1.803-2.732,4.773-3.147c1.759-0.249,3.743-1.382,1.977-1.772 c-1.88-0.415-5.079,0.756-5.396,1.538L15.071,13.321z" opacity=".022"/><path d="M15.071,13.321c0,0,1.834-2.83,4.804-3.245c1.457-0.206,3.271-1.136,1.754-1.539 c-1.578-0.419-4.919,0.705-5.237,1.481L15.071,13.321z" opacity=".028"/><path d="M15.071,13.321c0,0,1.865-2.929,4.835-3.342c1.154-0.163,2.799-0.888,1.532-1.305 c-1.276-0.42-4.76,0.654-5.078,1.424L15.071,13.321z" opacity=".033"/><path d="M15.071,13.321c0,0,1.896-3.028,4.866-3.439c0.852-0.12,2.327-0.636,1.309-1.072 c-0.974-0.417-4.601,0.603-4.919,1.368L15.071,13.321z" opacity=".039"/><path d="M15.071,13.321c0,0,1.927-3.126,4.898-3.536c0.549-0.077,1.853-0.377,1.087-0.839 c-0.675-0.407-4.441,0.552-4.759,1.311L15.071,13.321z" opacity=".044"/><path d="M15.071,13.321c0,0,1.958-3.225,4.929-3.634c0.247-0.034,1.365-0.105,0.865-0.605 c-0.387-0.387-4.282,0.501-4.6,1.255L15.071,13.321z" opacity=".05"/></g><g opacity=".2"><path d="M30.636,8.353c0,0-1.38-1.861-4.349-2.281c-2.666-0.379-4.446,0.333-1.929-1.533 c2.557-1.893,5.01,0.897,5.329,1.651L30.636,8.353z" opacity=".006"/><path d="M30.594,8.258c0,0-1.338-1.839-4.307-2.258c-2.364-0.336-4.07,0.286-1.805-1.409 c2.286-1.705,4.921,0.925,5.239,1.679L30.594,8.258z" opacity=".011"/><path d="M30.552,8.162c0,0-1.296-1.818-4.265-2.236c-2.061-0.293-3.694,0.239-1.681-1.286 c2.015-1.516,4.832,0.954,5.15,1.708L30.552,8.162z" opacity=".017"/><path d="M30.51,8.066c0,0-1.254-1.797-4.223-2.213c-1.759-0.249-3.321,0.188-1.557-1.162 c1.74-1.332,4.743,0.982,5.061,1.736L30.51,8.066z" opacity=".022"/><path d="M30.468,7.971c0,0-1.212-1.776-4.181-2.19c-1.457-0.206-2.945,0.141-1.433-1.038 c1.468-1.144,4.654,1.011,4.972,1.765L30.468,7.971z" opacity=".028"/><path d="M30.426,7.875c0,0-1.17-1.755-4.14-2.168c-1.154-0.163-2.57,0.094-1.309-0.914 c1.197-0.956,4.565,1.039,4.883,1.793L30.426,7.875z" opacity=".033"/><path d="M30.384,7.779c0,0-1.128-1.733-4.098-2.145c-0.852-0.12-2.194,0.047-1.185-0.79 c0.926-0.768,4.475,1.068,4.794,1.822L30.384,7.779z" opacity=".039"/><path d="M30.343,7.684c0,0-1.085-1.712-4.056-2.122c-0.549-0.077-1.817,0.001-1.061-0.666 c0.655-0.578,4.386,1.096,4.705,1.85L30.343,7.684z" opacity=".044"/><path d="M30.301,7.588c0,0-1.043-1.691-4.014-2.099c-0.247-0.034-1.438-0.042-0.938-0.542 c0.387-0.387,4.297,1.125,4.615,1.878L30.301,7.588z" opacity=".05"/></g><g opacity=".2"><path d="M37.3,19.25c-0.009-0.004-2.661-1.338-5.049-2.105s-4.511-0.968-3.462,1.293 c0.746,1.609,3.291,2.426,5.977,3.109s5.514,1.23,6.827,2.299C40.305,22.347,38.703,20.67,37.3,19.25z" opacity=".011"/><path d="M28.999,18.411c0.729,1.487,3.083,2.273,5.599,2.939c0.083,0.022,0.167,0.044,0.25,0.066 c2.595,0.676,5.324,1.237,6.632,2.302c-1.072-1.241-2.355-2.602-3.552-3.829c-0.002-0.002-0.005-0.005-0.008-0.007 c-0.183-0.187-0.385-0.378-0.598-0.57c-0.092-0.033-2.612-1.273-4.888-2.001C30.091,16.563,27.984,16.342,28.999,18.411z" opacity=".018"/><path d="M29.208,18.385c0.737,1.417,3.035,2.172,5.478,2.834c0.081,0.022,0.163,0.044,0.245,0.066 c2.504,0.669,5.135,1.245,6.438,2.306c-1.04-1.199-2.273-2.506-3.427-3.689c-0.002-0.002-0.005-0.005-0.007-0.007 c-0.16-0.164-0.361-0.34-0.59-0.521c-0.175-0.061-2.562-1.207-4.728-1.897C30.318,16.748,28.23,16.507,29.208,18.385z" opacity=".024"/><path d="M29.418,18.359c0.747,1.346,2.987,2.071,5.357,2.73c0.079,0.022,0.159,0.044,0.239,0.066 c2.413,0.662,4.945,1.252,6.243,2.309c-1.009-1.158-2.192-2.411-3.301-3.548c-0.002-0.002-0.006-0.005-0.007-0.007 c-0.137-0.14-0.338-0.301-0.581-0.473c-0.259-0.089-2.513-1.142-4.567-1.792C30.545,16.934,28.48,16.67,29.418,18.359z" opacity=".031"/><path d="M29.627,18.333c0.759,1.275,2.94,1.97,5.236,2.626c0.078,0.022,0.155,0.044,0.233,0.067 c2.322,0.655,4.756,1.26,6.048,2.312c-0.977-1.116-2.11-2.315-3.176-3.407c-0.001-0.001-0.006-0.005-0.007-0.006 c-0.114-0.117-0.315-0.262-0.572-0.424c-0.342-0.118-2.464-1.076-4.407-1.688C30.771,17.12,28.734,16.833,29.627,18.333z" opacity=".037"/><path d="M29.836,18.307c0.773,1.203,2.892,1.869,5.115,2.522c0.076,0.022,0.151,0.045,0.227,0.067 c2.231,0.648,4.567,1.267,5.854,2.315c-0.946-1.074-2.029-2.219-3.05-3.267c-0.001-0.001-0.006-0.004-0.007-0.006 c-0.091-0.094-0.291-0.224-0.563-0.376c-0.425-0.146-2.415-1.011-4.246-1.583C30.998,17.306,28.992,16.993,29.836,18.307z" opacity=".044"/><path d="M30.046,18.281c0.791,1.129,2.844,1.768,4.994,2.417c0.074,0.022,0.148,0.045,0.221,0.067 c2.141,0.641,4.377,1.275,5.659,2.319c-0.915-1.032-1.947-2.123-2.925-3.126c-0.001-0.001-0.006-0.004-0.007-0.005 c-0.068-0.07-0.268-0.185-0.555-0.327c-0.509-0.174-2.366-0.945-4.086-1.479C31.225,17.491,29.254,17.151,30.046,18.281z" opacity=".05"/><path d="M30.255,18.255c0.813,1.052,2.797,1.667,4.873,2.313c0.072,0.022,0.144,0.045,0.216,0.067 c2.05,0.634,4.188,1.282,5.465,2.322c-0.883-0.99-1.866-2.027-2.799-2.986c-0.001-0.001-0.006-0.004-0.007-0.005 c-0.046-0.047-0.244-0.146-0.546-0.279c-0.592-0.202-2.317-0.88-3.925-1.375C31.452,17.677,29.521,17.306,30.255,18.255z" opacity=".057"/><path d="M30.464,18.229c0.842,0.968,2.749,1.566,4.752,2.209c0.07,0.022,0.14,0.045,0.21,0.067 c1.959,0.627,3.998,1.29,5.27,2.325c-0.852-0.948-1.784-1.932-2.674-2.845c0,0-0.006-0.004-0.006-0.004 c-0.023-0.023-0.221-0.108-0.537-0.231c-0.675-0.231-2.268-0.815-3.765-1.27C31.679,17.863,29.792,17.456,30.464,18.229z" opacity=".064"/><path d="M38.036,19.999l-0.006-0.004c0,0-2.142-0.749-4.133-1.348s-3.829-1.047-3.223-0.444 c0.88,0.874,2.701,1.465,4.631,2.104s3.967,1.327,5.279,2.396C39.763,21.797,38.881,20.867,38.036,19.999z" opacity=".07"/></g><g opacity=".2"><path d="M12.604,17.357l-0.012,0.007c-1.474,1.445-3.827,3.805-5.701,5.926 c2.628-2.138,13.038-2.077,14.53-5.295C23.522,13.469,12.604,17.357,12.604,17.357z" opacity=".011"/><path d="M12.502,17.457l-0.01,0.006c-1.434,1.408-3.678,3.661-5.485,5.7 c2.628-2.138,12.635-2.099,14.136-5.164C23.172,13.856,12.502,17.457,12.502,17.457z" opacity=".018"/><path d="M12.4,17.557l-0.009,0.005c-1.394,1.371-3.529,3.517-5.27,5.473 c2.627-2.138,12.229-2.121,13.742-5.033C22.817,14.241,12.4,17.557,12.4,17.557z" opacity=".024"/><path d="M12.299,17.657l-0.008,0.005c-1.355,1.334-3.38,3.373-5.055,5.247 c2.627-2.138,11.82-2.143,13.347-4.902C22.455,14.624,12.299,17.657,12.299,17.657z" opacity=".031"/><path d="M12.197,17.757l-0.006,0.004c-1.315,1.297-3.232,3.229-4.839,5.021 c2.627-2.138,11.407-2.165,12.953-4.771C22.087,15.005,12.197,17.757,12.197,17.757z" opacity=".037"/><path d="M12.095,17.857L12.09,17.86c-1.276,1.26-3.083,3.085-4.624,4.794 c2.627-2.138,10.989-2.19,12.558-4.639C21.711,15.383,12.095,17.857,12.095,17.857z" opacity=".044"/><path d="M11.993,17.957l-0.004,0.002c-1.236,1.223-2.934,2.941-4.409,4.568 c2.627-2.138,10.565-2.218,12.164-4.508C21.326,15.756,11.993,17.957,11.993,17.957z" opacity=".05"/><path d="M11.892,18.057l-0.003,0.002c-1.197,1.186-2.786,2.796-4.193,4.342 c2.627-2.137,10.131-2.253,11.77-4.377C20.932,16.122,11.892,18.057,11.892,18.057z" opacity=".057"/><path d="M11.79,18.157l-0.001,0.001c-1.157,1.149-2.637,2.652-3.978,4.115 c2.627-2.137,9.684-2.299,11.375-4.246C20.53,16.48,11.79,18.157,11.79,18.157z" opacity=".064"/><path d="M11.688,18.257L11.688,18.257c-1.117,1.112-2.488,2.508-3.763,3.889 c2.627-2.137,9.221-2.366,10.981-4.115C20.12,16.826,11.688,18.257,11.688,18.257z" opacity=".07"/></g><g opacity=".2"><path d="M17.998,6l0.559-1.405c-2.35,1.045-3.099,2.984-3.099,2.984L17.998,6z" opacity=".033"/><path d="M17.998,6l0.505-1.27c-2.27,0.995-3.046,2.85-3.046,2.85L17.998,6z" opacity=".067"/><path d="M17.998,6l0.452-1.136c-2.191,0.945-2.992,2.716-2.992,2.716L17.998,6z" opacity=".1"/><path d="M17.998,6l0.399-1.002c-2.111,0.895-2.939,2.582-2.939,2.582L17.998,6z" opacity=".133"/><path d="M17.998,6l0.345-0.868c-2.032,0.844-2.885,2.447-2.885,2.447L17.998,6z" opacity=".167"/><path d="M17.998,6l0.292-0.734c-1.952,0.794-2.832,2.313-2.832,2.313L17.998,6z" opacity=".2"/><path d="M17.998,6l0.239-0.6c-1.873,0.744-2.779,2.179-2.779,2.179L17.998,6z" opacity=".233"/><path d="M17.998,6l0.185-0.465c-1.793,0.694-2.725,2.045-2.725,2.045L17.998,6z" opacity=".267"/><path d="M17.998,6l0.132-0.331c-1.714,0.644-2.672,1.911-2.672,1.911L17.998,6z" opacity=".3"/></g></g><g><linearGradient id="T3K5VKprKE9XR7ZWYOGHgY" x1="4.129" x2="8.335" y1="36.655" y2="36.045" gradientUnits="userSpaceOnUse"><stop offset="0" stop-color="#42210b"/><stop offset=".503" stop-color="#8c6239"/><stop offset=".537" stop-color="#855c35"/><stop offset=".736" stop-color="#613c1e"/><stop offset=".896" stop-color="#4a2810"/><stop offset=".999" stop-color="#42210b"/></linearGradient><polygon fill="url(#T3K5VKprKE9XR7ZWYOGHgY)" points="9.171,46 6.34,26.262 3.371,26.688 6.14,46"/><radialGradient id="T3K5VKprKE9XR7ZWYOGHgZ" cx="6.225" cy="29.759" r="5.427" gradientUnits="userSpaceOnUse"><stop offset="0" stop-color="#603813"/><stop offset=".987" stop-color="#8c6239" stop-opacity="0"/></radialGradient><polygon fill="url(#T3K5VKprKE9XR7ZWYOGHgZ)" points="9.171,46 6.34,26.262 3.371,26.688 6.14,46"/><circle cx="4.501" cy="24.001" r="4.5" fill="#fff"/><radialGradient id="T3K5VKprKE9XR7ZWYOGHgaa" cx="46.406" cy="93.769" r="4.5" gradientTransform="matrix(.8003 .5996 -.5416 .7229 18.143 -71.61)" gradientUnits="userSpaceOnUse"><stop offset=".66" stop-color="#e1bee7" stop-opacity=".1"/><stop offset=".744" stop-color="#e1bae8" stop-opacity=".323"/><stop offset=".822" stop-color="#e3afeb" stop-opacity=".529"/><stop offset=".897" stop-color="#e59df1" stop-opacity=".728"/><stop offset=".97" stop-color="#e782f8" stop-opacity=".921"/><stop offset="1" stop-color="#e975fc"/></radialGradient><circle cx="4.501" cy="24.001" r="4.5" fill="url(#T3K5VKprKE9XR7ZWYOGHgaa)"/><radialGradient id="T3K5VKprKE9XR7ZWYOGHgab" cx="45.028" cy="91.205" r="7.395" gradientTransform="rotate(-8.163 -463.393 352.476)" gradientUnits="userSpaceOnUse"><stop offset="0" stop-color="#ea80fc"/><stop offset=".457" stop-color="#e69ef2" stop-opacity=".588"/><stop offset="1" stop-color="#e1bee7" stop-opacity=".1"/></radialGradient><circle cx="4.501" cy="24.001" r="4.5" fill="url(#T3K5VKprKE9XR7ZWYOGHgab)"/><radialGradient id="T3K5VKprKE9XR7ZWYOGHgac" cx="-227.474" cy="-421.619" r="4.5" fx="-230.933" fy="-421.638" gradientTransform="rotate(55 -539.467 24)" gradientUnits="userSpaceOnUse"><stop offset="0" stop-color="#edf3f7"/><stop offset=".089" stop-color="#f6f9fb" stop-opacity=".856"/><stop offset=".243" stop-color="#fdfefe" stop-opacity=".605"/><stop offset=".616" stop-color="#fff" stop-opacity="0"/></radialGradient><circle cx="4.5" cy="24" r="4.5" fill="url(#T3K5VKprKE9XR7ZWYOGHgac)"/><g><polygon fill="#fff" points="6.908,30.222 3.939,30.648 2.22,28.649 7.995,27.82"/><linearGradient id="T3K5VKprKE9XR7ZWYOGHgad" x1="-21.595" x2="-12.296" y1="12.286" y2="15.968" gradientTransform="matrix(1.1298 -.162 .1065 .7424 23.362 15.973)" gradientUnits="userSpaceOnUse"><stop offset="0" stop-color="#6b3894"/><stop offset=".534" stop-color="#db8cd0" stop-opacity=".5"/><stop offset=".59" stop-color="#ce7fc8" stop-opacity=".44"/><stop offset=".765" stop-color="#aa5cb4" stop-opacity=".251"/><stop offset=".908" stop-color="#9347a7" stop-opacity=".098"/><stop offset=".999" stop-color="#8b3fa2" stop-opacity="0"/></linearGradient><polygon fill="url(#T3K5VKprKE9XR7ZWYOGHgad)" points="6.908,30.222 3.939,30.648 2.22,28.649 7.995,27.82"/><linearGradient id="T3K5VKprKE9XR7ZWYOGHgae" x1="-923.881" x2="-914.582" y1="12.286" y2="15.968" gradientTransform="matrix(-1.1298 .162 .1065 .7424 -1035.238 167.797)" gradientUnits="userSpaceOnUse"><stop offset="0" stop-color="#6b3894"/><stop offset=".534" stop-color="#db8cd0" stop-opacity=".5"/><stop offset=".59" stop-color="#ce7fc8" stop-opacity=".44"/><stop offset=".765" stop-color="#aa5cb4" stop-opacity=".251"/><stop offset=".908" stop-color="#9347a7" stop-opacity=".098"/><stop offset=".999" stop-color="#8b3fa2" stop-opacity="0"/></linearGradient><polyline fill="url(#T3K5VKprKE9XR7ZWYOGHgae)" points="2.22,28.649 3.939,30.648 6.908,30.222 7.995,27.82 2.22,28.649"/><linearGradient id="T3K5VKprKE9XR7ZWYOGHgaf" x1="-919.643" x2="-919.643" y1="12.563" y2="15.527" gradientTransform="matrix(-1.1298 .162 .1065 .7424 -1035.238 167.797)" gradientUnits="userSpaceOnUse"><stop offset="0" stop-color="#9c43aa"/><stop offset=".408" stop-color="#9341a6" stop-opacity=".592"/><stop offset=".999" stop-color="#8b3fa2" stop-opacity="0"/></linearGradient><polygon fill="url(#T3K5VKprKE9XR7ZWYOGHgaf)" points="3.939,30.648 6.908,30.222 7.995,27.82 2.22,28.649"/><radialGradient id="T3K5VKprKE9XR7ZWYOGHgag" cx="43.406" cy="97.769" r=".5" gradientTransform="rotate(-8.163 -463.393 352.476)" gradientUnits="userSpaceOnUse"><stop offset="0" stop-color="#efb7e0"/><stop offset="1" stop-color="#db8cd0"/></radialGradient><circle cx="2.099" cy="28.386" r=".5" fill="url(#T3K5VKprKE9XR7ZWYOGHgag)"/><radialGradient id="T3K5VKprKE9XR7ZWYOGHgah" cx="49.406" cy="97.769" r=".5" gradientTransform="rotate(-8.163 -463.393 352.476)" gradientUnits="userSpaceOnUse"><stop offset="0" stop-color="#efb7e0"/><stop offset="1" stop-color="#db8cd0"/></radialGradient><circle cx="8.038" cy="27.534" r=".5" fill="url(#T3K5VKprKE9XR7ZWYOGHgah)"/><linearGradient id="T3K5VKprKE9XR7ZWYOGHgai" x1="46.406" x2="46.406" y1="97.269" y2="98.269" gradientTransform="rotate(-8.163 -463.393 352.476)" gradientUnits="userSpaceOnUse"><stop offset="0" stop-color="#db8cd0"/><stop offset=".521" stop-color="#efb7e0"/><stop offset="1" stop-color="#db8cd0"/></linearGradient><path fill="url(#T3K5VKprKE9XR7ZWYOGHgai)" d="M7.967,27.039c0,0-5.715,0.82-5.939,0.852l0.071,0.495l0.071,0.495 c0.225-0.032,5.939-0.852,5.939-0.852L7.967,27.039z"/></g></g></svg>