<svg xmlns="http://www.w3.org/2000/svg" xmlns:xlink="http://www.w3.org/1999/xlink" viewBox="0 0 48 48" width="100px" height="100px">
  <defs>
    <style>
      .cls-1 {
        fill: url(#Новый_образец_градиента_1);
      }

      .cls-2 {
        fill: url(#Новый_образец_градиента_1-2);
      }

      .cls-3 {
        fill: url(#Безымянный_градиент_33);
      }

      .cls-4 {
        fill: url(#Новый_образец_градиента_1-3);
      }

      .cls-5 {
        fill: url(#Безымянный_градиент_32);
      }

      .cls-6 {
        fill: url(#Безымянный_градиент_50);
      }

      .cls-7 {
        fill: url(#radial-gradient);
      }

      .cls-8 {
        fill: url(#radial-gradient-2);
      }

      .cls-9 {
        fill: url(#Новый_образец_градиента_1-4);
      }

      .cls-10 {
        fill: url(#radial-gradient-3);
      }

      .cls-11 {
        fill: url(#radial-gradient-4);
      }

      .cls-12 {
        fill: url(#Новый_образец_градиента_1-5);
      }

      .cls-13 {
        fill: url(#Новый_образец_градиента_1-6);
      }

      .cls-14 {
        fill: url(#Новый_образец_градиента_1-7);
      }

      .cls-15 {
        fill: url(#Безымянный_градиент_42);
      }

      .cls-16 {
        fill: url(#New_Gradient_Swatch_2);
      }

      .cls-17 {
        fill: url(#Новый_образец_градиента_1-8);
      }

      .cls-18 {
        fill: url(#Новый_образец_градиента_1-9);
      }

      .cls-19 {
        fill: url(#Новый_образец_градиента_1-10);
      }

      .cls-20 {
        fill: url(#Безымянный_градиент_41);
      }

      .cls-21 {
        fill: url(#Новый_образец_градиента_1-11);
      }

      .cls-22 {
        fill: url(#Новый_образец_градиента_1-12);
      }

      .cls-23 {
        fill: url(#Новый_образец_градиента_1-13);
      }

      .cls-24 {
        fill: url(#Новый_образец_градиента_1-15);
      }

      .cls-25 {
        fill: url(#radial-gradient-5);
      }

      .cls-26 {
        fill: url(#New_Gradient_Swatch_1);
      }

      .cls-27 {
        fill: url(#Новый_образец_градиента_1-17);
      }

      .cls-28 {
        fill: #805b2a;
      }

      .cls-29 {
        fill: #f0af13;
      }

      .cls-30 {
        fill: url(#linear-gradient);
      }

      .cls-31 {
        fill: #fff;
      }

      .cls-32 {
        fill: url(#linear-gradient-2);
      }

      .cls-33 {
        fill: url(#radial-gradient-6);
      }

      .cls-34 {
        fill: url(#radial-gradient-7);
      }

      .cls-35 {
        fill: url(#radial-gradient-8);
      }

      .cls-36 {
        fill: url(#radial-gradient-9);
      }

      .cls-37 {
        fill: url(#linear-gradient-3);
      }

      .cls-38 {
        fill: url(#radial-gradient-10);
      }

      .cls-39 {
        fill: url(#Безымянный_градиент_55);
      }

      .cls-40 {
        fill: url(#Безымянный_градиент_50-2);
      }

      .cls-41 {
        fill: url(#radial-gradient-11);
      }

      .cls-42 {
        fill: url(#Безымянный_градиент_16);
      }

      .cls-43, .cls-44, .cls-45, .cls-46, .cls-47, .cls-48, .cls-49, .cls-50, .cls-51, .cls-52, .cls-53, .cls-54, .cls-55, .cls-56, .cls-57, .cls-58, .cls-59, .cls-60 {
        fill: #3f1980;
      }

      .cls-43 {
        opacity: 0;
      }

      .cls-44 {
        opacity: 0.00176;
      }

      .cls-45 {
        opacity: 0.00353;
      }

      .cls-46 {
        opacity: 0.00529;
      }

      .cls-47 {
        opacity: 0.00706;
      }

      .cls-48 {
        opacity: 0.00882;
      }

      .cls-49 {
        opacity: 0.01059;
      }

      .cls-50 {
        opacity: 0.01235;
      }

      .cls-51 {
        opacity: 0.01412;
      }

      .cls-52 {
        opacity: 0.01588;
      }

      .cls-53 {
        opacity: 0.01765;
      }

      .cls-54 {
        opacity: 0.01941;
      }

      .cls-55 {
        opacity: 0.02118;
      }

      .cls-56 {
        opacity: 0.02294;
      }

      .cls-57 {
        opacity: 0.02471;
      }

      .cls-58 {
        opacity: 0.02647;
      }

      .cls-59 {
        opacity: 0.02824;
      }

      .cls-60 {
        opacity: 0.03;
      }

      .cls-61 {
        fill: url(#Безымянный_градиент_54);
      }

      .cls-62 {
        fill: url(#radial-gradient-12);
      }
    </style>
    <radialGradient id="Новый_образец_градиента_1" data-name="Новый образец градиента 1" cx="33.01609" cy="39.07429" r="5.55531" gradientTransform="translate(36.13829 78.76952) rotate(-128.48286) scale(1 0.56962)" gradientUnits="userSpaceOnUse">
      <stop offset="0" stop-color="#ffe16e"/>
      <stop offset="0.39337" stop-color="#ffd226"/>
      <stop offset="0.59035" stop-color="#fdcd23"/>
      <stop offset="0.83582" stop-color="#f6bd1b"/>
      <stop offset="0.99916" stop-color="#f0af13"/>
    </radialGradient>
    <radialGradient id="Новый_образец_градиента_1-2" cx="26.87639" cy="31.39967" r="4.77426" gradientTransform="matrix(-0.56169, -0.82735, 0.46101, -0.31298, 27.4972, 63.46326)" xlink:href="#Новый_образец_градиента_1"/>
    <linearGradient id="Безымянный_градиент_33" data-name="Безымянный градиент 33" x1="30.40135" y1="32.71788" x2="27.34546" y2="27.0875" gradientUnits="userSpaceOnUse">
      <stop offset="0" stop-color="#2d447e"/>
      <stop offset="1" stop-color="#172a4f"/>
    </linearGradient>
    <radialGradient id="Новый_образец_градиента_1-3" cx="17.33196" cy="25.76232" r="5.73379" gradientTransform="translate(-2.23607 15.83665) rotate(-10.92615) scale(1 0.52226)" xlink:href="#Новый_образец_градиента_1"/>
    <radialGradient id="Безымянный_градиент_32" data-name="Безымянный градиент 32" cx="20.83438" cy="24.89718" r="8.01214" gradientTransform="matrix(0.84909, -0.52824, 0.23434, 0.37667, -2.69023, 26.52486)" gradientUnits="userSpaceOnUse">
      <stop offset="0" stop-color="#4c5185"/>
      <stop offset="0.52614" stop-color="#2d447e"/>
      <stop offset="0.82822" stop-color="#263b72"/>
      <stop offset="1" stop-color="#203469"/>
    </radialGradient>
    <linearGradient id="Безымянный_градиент_50" data-name="Безымянный градиент 50" x1="29.08273" y1="22.43102" x2="18.88945" y2="30.88706" gradientUnits="userSpaceOnUse">
      <stop offset="0" stop-color="#172a4f"/>
      <stop offset="1" stop-color="#172a4f" stop-opacity="0"/>
    </linearGradient>
    <radialGradient id="radial-gradient" cx="35.82563" cy="44.79346" r="2.87904" gradientUnits="userSpaceOnUse">
      <stop offset="0.00214" stop-color="#3a434a"/>
      <stop offset="1" stop-color="#1c2024"/>
    </radialGradient>
    <radialGradient id="radial-gradient-2" cx="36.71824" cy="45.51893" r="2.29197" gradientUnits="userSpaceOnUse">
      <stop offset="0.5165" stop-color="#ccc"/>
      <stop offset="0.78856" stop-color="#b9bec1"/>
      <stop offset="0.99231" stop-color="#a7b2b8"/>
    </radialGradient>
    <radialGradient id="Новый_образец_градиента_1-4" cx="16.92032" cy="34.88813" r="6.44905" gradientTransform="translate(7.423 61.67262) rotate(-123.93527) scale(1 0.65444)" xlink:href="#Новый_образец_градиента_1"/>
    <radialGradient id="radial-gradient-3" cx="20.25042" cy="40.46266" r="2.87252" xlink:href="#radial-gradient"/>
    <radialGradient id="radial-gradient-4" cx="20.90193" cy="41.36757" r="2.37838" xlink:href="#radial-gradient-2"/>
    <radialGradient id="Новый_образец_градиента_1-5" cx="14.45191" cy="15.85508" r="4.94134" gradientTransform="matrix(0.87619, 0.48197, -0.29262, 0.53197, 6.42887, 0.45531)" xlink:href="#Новый_образец_градиента_1"/>
    <radialGradient id="Новый_образец_градиента_1-6" cx="17.68801" cy="16.13573" r="4.50699" gradientTransform="translate(-1.12842 21.07492) rotate(-39.30914) scale(1 0.50191)" xlink:href="#Новый_образец_градиента_1"/>
    <radialGradient id="Новый_образец_градиента_1-7" cx="30.48489" cy="12.1294" r="5.42051" gradientTransform="matrix(0.98316, 0.18277, -0.0836, 0.4497, 1.52746, 1.10324)" xlink:href="#Новый_образец_градиента_1"/>
    <linearGradient id="Безымянный_градиент_42" data-name="Безымянный градиент 42" x1="32.80051" y1="25.10577" x2="33.87721" y2="24.02906" gradientTransform="matrix(1, 0, 0, 1, 0, 0)" xlink:href="#Новый_образец_градиента_1"/>
    <linearGradient id="New_Gradient_Swatch_2" data-name="New Gradient Swatch 2" x1="35.1308" y1="22.77547" x2="33.41879" y2="24.48748" gradientUnits="userSpaceOnUse">
      <stop offset="0" stop-color="#8c6239" stop-opacity="0.9"/>
      <stop offset="1" stop-color="#8c6239" stop-opacity="0"/>
    </linearGradient>
    <radialGradient id="Новый_образец_градиента_1-8" cx="36.8618" cy="21.70175" r="3.61211" gradientTransform="translate(10.12995 -7.57268) rotate(26.00905) scale(1 0.67218)" xlink:href="#Новый_образец_градиента_1"/>
    <radialGradient id="Новый_образец_градиента_1-9" cx="35.01989" cy="18.38073" r="5.86641" gradientTransform="translate(34.38571 54.5524) rotate(-103.52721) scale(1 0.49385)" xlink:href="#Новый_образец_градиента_1"/>
    <radialGradient id="Новый_образец_градиента_1-10" cx="7.69127" cy="16.42021" r="1.65359" gradientTransform="matrix(1, 0, 0, 1, 0, 0)" xlink:href="#Новый_образец_градиента_1"/>
    <radialGradient id="Безымянный_градиент_41" data-name="Безымянный градиент 41" cx="9.1355" cy="14.35504" r="1.33964" gradientUnits="userSpaceOnUse">
      <stop offset="0" stop-color="#8c6239" stop-opacity="0.9"/>
      <stop offset="0.12225" stop-color="#8c6239" stop-opacity="0.68612"/>
      <stop offset="0.291" stop-color="#8c6239" stop-opacity="0.44"/>
      <stop offset="0.46292" stop-color="#8c6239" stop-opacity="0.24688"/>
      <stop offset="0.63689" stop-color="#8c6239" stop-opacity="0.10933"/>
      <stop offset="0.81421" stop-color="#8c6239" stop-opacity="0.02711"/>
      <stop offset="1" stop-color="#8c6239" stop-opacity="0"/>
    </radialGradient>
    <radialGradient id="Новый_образец_градиента_1-11" cx="9.10061" cy="13.35037" r="2.35256" gradientTransform="matrix(1, 0, 0, 1, 0, 0)" xlink:href="#Новый_образец_градиента_1"/>
    <radialGradient id="Новый_образец_градиента_1-12" cx="8.8006" cy="13.20385" r="2.64279" gradientTransform="translate(-2.18833 9.93402) rotate(-23.29042) scale(1 0.55653)" xlink:href="#Новый_образец_градиента_1"/>
    <radialGradient id="Новый_образец_градиента_1-13" cx="7.97733" cy="13.4899" r="1.39219" gradientTransform="matrix(1, 0, 0, 1, 0, 0)" xlink:href="#Новый_образец_градиента_1"/>
    <radialGradient id="Новый_образец_градиента_1-15" cx="8.94712" cy="13.65386" r="1.14498" gradientTransform="matrix(1, 0, 0, 1, 0, 0)" xlink:href="#Новый_образец_градиента_1"/>
    <radialGradient id="radial-gradient-5" cx="20.65571" cy="13.13958" r="2.43457" gradientUnits="userSpaceOnUse">
      <stop offset="0" stop-color="#ffd226"/>
      <stop offset="0.32489" stop-color="#fdcd23"/>
      <stop offset="0.72975" stop-color="#f6bd1b"/>
      <stop offset="0.99916" stop-color="#f0af13"/>
    </radialGradient>
    <radialGradient id="New_Gradient_Swatch_1" data-name="New Gradient Swatch 1" cx="20.33549" cy="8.84326" r="3.39352" gradientTransform="matrix(0.75386, -0.65703, 0.48374, 0.55503, 0.72754, 17.29614)" xlink:href="#New_Gradient_Swatch_2"/>
    <radialGradient id="Новый_образец_градиента_1-17" cx="17.30755" cy="7.40004" r="3.98843" gradientTransform="matrix(-0.00024, -1, 0.9442, -0.00023, 10.32465, 24.7093)" xlink:href="#Новый_образец_градиента_1"/>
    <linearGradient id="linear-gradient" x1="21.21347" y1="8.95888" x2="22.08109" y2="7.91523" xlink:href="#New_Gradient_Swatch_2"/>
    <linearGradient id="linear-gradient-2" x1="17.43701" y1="7.43471" x2="18.02361" y2="7.43471" gradientUnits="userSpaceOnUse">
      <stop offset="0" stop-color="#c69c6d"/>
      <stop offset="1" stop-color="#754c24"/>
    </linearGradient>
    <radialGradient id="radial-gradient-6" cx="17.59764" cy="7.43585" r="0.22185" gradientUnits="userSpaceOnUse">
      <stop offset="0" stop-color="#1c1911"/>
      <stop offset="0.99892" stop-color="#171714"/>
    </radialGradient>
    <radialGradient id="radial-gradient-7" cx="-744.50652" cy="-1073.06233" r="3.3109" gradientTransform="matrix(0.2301, 0.97314, -0.50368, 0.11706, -342.89746, 856.19114)" gradientUnits="userSpaceOnUse">
      <stop offset="0" stop-color="#8c6239"/>
      <stop offset="0.31411" stop-color="#754c25"/>
      <stop offset="0.55385" stop-color="#603813"/>
      <stop offset="1" stop-color="#573210"/>
    </radialGradient>
    <radialGradient id="radial-gradient-8" cx="-744.45392" cy="-1075.70827" r="3.80331" gradientTransform="matrix(-0.54174, 0.76404, -1.09338, -0.961, -1553.7871, -461.46838)" gradientUnits="userSpaceOnUse">
      <stop offset="0" stop-color="#603813"/>
      <stop offset="0.28921" stop-color="#653c17"/>
      <stop offset="0.61488" stop-color="#724923"/>
      <stop offset="0.95715" stop-color="#895f36"/>
      <stop offset="1" stop-color="#8c6239"/>
    </radialGradient>
    <radialGradient id="radial-gradient-9" cx="-240.87662" cy="-1075.56404" r="1.23954" gradientTransform="matrix(0.85272, -0.52237, 0.27906, 0.45554, 529.05658, 368.32071)" gradientUnits="userSpaceOnUse">
      <stop offset="0.00214" stop-color="#f5432c"/>
      <stop offset="1" stop-color="#cf3925"/>
    </radialGradient>
    <linearGradient id="linear-gradient-3" x1="-240.34581" y1="-1074.78496" x2="-240.66144" y2="-1075.45566" gradientTransform="translate(521.04124 987.71274) rotate(-14.21002)" gradientUnits="userSpaceOnUse">
      <stop offset="0" stop-color="#851e1e" stop-opacity="0.3"/>
      <stop offset="0.07319" stop-color="#5f1e1d" stop-opacity="0.19151"/>
      <stop offset="0.18364" stop-color="#3a1d1c" stop-opacity="0.08313"/>
      <stop offset="0.31691" stop-color="#241d1b" stop-opacity="0.01932"/>
      <stop offset="0.53333" stop-color="#1d1d1b" stop-opacity="0"/>
    </linearGradient>
    <radialGradient id="radial-gradient-10" cx="19.31685" cy="2.22289" r="5.07268" gradientTransform="matrix(1, 0, 0, 1, 0, 0)" xlink:href="#radial-gradient-7"/>
    <linearGradient id="Безымянный_градиент_55" data-name="Безымянный градиент 55" x1="16.30457" y1="13.70907" x2="20.05816" y2="15.80215" gradientUnits="userSpaceOnUse">
      <stop offset="0.00214" stop-color="#aa6ce6"/>
      <stop offset="0.62051" stop-color="#8f5ac0"/>
      <stop offset="0.97692" stop-color="#844bb8"/>
    </linearGradient>
    <linearGradient id="Безымянный_градиент_50-2" x1="21.49987" y1="23.44198" x2="29.07271" y2="23.44198" xlink:href="#Безымянный_градиент_50"/>
    <radialGradient id="radial-gradient-11" cx="19.59709" cy="16.66514" r="9.31844" gradientTransform="matrix(-0.22414, -0.97456, 0.72829, -0.1675, 11.85253, 38.55505)" xlink:href="#Безымянный_градиент_55"/>
    <linearGradient id="Безымянный_градиент_16" data-name="Безымянный градиент 16" x1="29.02061" y1="24.09285" x2="20.25062" y2="15.21821" gradientUnits="userSpaceOnUse">
      <stop offset="0" stop-color="#251047" stop-opacity="0.3"/>
      <stop offset="0.39151" stop-color="#211632" stop-opacity="0.15949"/>
      <stop offset="1" stop-color="#1d1d1b" stop-opacity="0"/>
    </linearGradient>
    <linearGradient id="Безымянный_градиент_54" data-name="Безымянный градиент 54" x1="26.66464" y1="23.47994" x2="23.9855" y2="13.91457" gradientUnits="userSpaceOnUse">
      <stop offset="0" stop-color="#ccc"/>
      <stop offset="0.18328" stop-color="#dfdfdf"/>
      <stop offset="0.32804" stop-color="#f2f2f2"/>
      <stop offset="0.70624" stop-color="#ccc"/>
      <stop offset="0.86981" stop-color="#b9bec1"/>
      <stop offset="0.99231" stop-color="#a7b2b8"/>
    </linearGradient>
    <radialGradient id="radial-gradient-12" cx="26.24762" cy="10.99914" r="6.33183" gradientTransform="matrix(0.96982, 0.24381, -0.18023, 0.71691, 2.7745, -3.28579)" xlink:href="#Безымянный_градиент_55"/>
  </defs>
  <g>
    <g>
      <path class="cls-1" d="M32.13021,32.55379a3.947,3.947,0,0,1,.684.26785,5.60844,5.60844,0,0,1,.59867.34233,6.901,6.901,0,0,1,1.03369.8273,7.77562,7.77562,0,0,1,.861.97793,5.80164,5.80164,0,0,1,.64281,1.16824c.17464.42393.32716.86721.49647,1.29583a8.15631,8.15631,0,0,0,.59259,1.212c.22429.38067.45643.7545.71094,1.10882a8.16308,8.16308,0,0,0,.82295,1.01112,1.12779,1.12779,0,1,1-1.6075,1.58227q-.02278-.0232-.044-.04726l-.04691-.05386-6.851-7.85574A1.27426,1.27426,0,0,1,31.32386,32.325Z"/>
      <path class="cls-2" d="M28.86411,24.08862,32.273,32.227a1.56542,1.56542,0,0,1-2.35562,1.87716l-.28663-.20646a9.86992,9.86992,0,0,1-.874-.73406l-.40284-.38866-.38462-.40019a20.33717,20.33717,0,0,1-1.40913-1.68245c-.22041-.28952-.4355-.58244-.63927-.8825l-.30906-.448c-.10078-.15075-.19569-.30515-.29384-.45758A14.51426,14.51426,0,0,1,24.27246,26.992l-.34556-.79076a2.68518,2.68518,0,0,1,4.921-2.1504Z"/>
      <path class="cls-3" d="M28.35387,32.775a6.84834,6.84834,0,0,0,3.2218-2.21277c.06743-.08861.17169-.20469.12676-.30656l-2.83832-6.16707-.01618-.03781a2.6852,2.6852,0,0,0-3.62472-1.3445,2.72738,2.72738,0,0,0-1.27048,3.554l.31973.73166c.65472,2.03534,2.94242,4.8666,3.64141,5.70175A.41571.41571,0,0,0,28.35387,32.775Z"/>
      <path class="cls-4" d="M27.39487,27.46113,17.88505,31.5118a1.56464,1.56464,0,0,1-1.81582-2.44015l.19465-.23281a13.1157,13.1157,0,0,1,.91389-.95946l.47792-.44518.4891-.42671c.16191-.14409.3327-.27353.49861-.41108.16766-.13459.3324-.274.50391-.40227q.25429-.19728.51326-.38686c.17105-.129.34641-.25094.52154-.37326.35106-.24324.69619-.49632,1.05638-.72456l.53546-.35026c.17987-.1145.36332-.223.5448-.33486a20.033,20.033,0,0,1,2.25887-1.2082l.67367-.29745a2.69368,2.69368,0,0,1,2.176,4.92836Z"/>
      <path class="cls-5" d="M28.83171,23.78962A2.77778,2.77778,0,0,0,25.19,22.54576l-.61236.27038a23.84749,23.84749,0,0,0-5.92,3.70647.07423.07423,0,0,0,.02376.12857c1.20854.34093,2.413,1.83227,3.17813,3.37348a.50334.50334,0,0,0,.73407.19241L24.591,28.85981l.00788-.00467c.11687-.05988,2.92616-1.44318,2.93233-1.4459A2.688,2.688,0,0,0,28.83171,23.78962Z"/>
      <path class="cls-6" d="M27.33666,24.52807c-.36176,1.56681-2.14087,2.65565-3.43962,3.4515l-.20164.12336c-.11742.07233-.23484.14351-.35226.21584-.48985.30011-.99748.60966-1.4731.9418q-.15837.11023-.30246.217c-.09845-.17194-.20162-.34273-.31075-.50877.08777-.06405.1791-.12811.274-.19453.49105-.3428,1.00579-.6571,1.50276-.9619.11742-.07117.23367-.14235.35109-.21468l.20282-.12458c1.20979-.74008,2.86555-1.75421,3.17157-3.07783a2.0899,2.0899,0,0,0-.21825-1.38652c.24908.00232.47561.013.65353.02965A2.49992,2.49992,0,0,1,27.33666,24.52807Z"/>
      <path class="cls-7" d="M40.45405,42.57191c-.50765.64638-1.36755,1.6747-1.36755,1.6747A13.61163,13.61163,0,0,1,37.598,45.70789c-.465.37361-1.17185.30243-2.22035.30243a.50192.50192,0,0,1-.48392-.58829.60389.60389,0,0,1,.48392-.5207,1.50822,1.50822,0,0,0,.88126-1.97359c-.29888-.57411.04151-.96074.60727-.91452A1.149,1.149,0,0,0,38.00243,41.61c.26687-.33683.01778-1.03069.46969-1.256.45308-.22655.66657.41276,1.35211.60966a1.53553,1.53553,0,0,1,.35582.15064A.92781.92781,0,0,1,40.45405,42.57191Z"/>
      <path class="cls-8" d="M40.45405,42.57191c-.50765.64638-1.36755,1.6747-1.36755,1.6747A13.61163,13.61163,0,0,1,37.598,45.70789c-.465.37361-1.17185.30243-2.22035.30243a.50192.50192,0,0,1-.48392-.58829.28855.28855,0,0,0,.06524.03915,5.66478,5.66478,0,0,0,1.03411.13117,2.5439,2.5439,0,0,0,1.85383-.9376,13.974,13.974,0,0,0,1.62389-1.854,2.6792,2.6792,0,0,0,.71521-1.47547,2.07716,2.07716,0,0,0-.00594-.2111A.92781.92781,0,0,1,40.45405,42.57191Z"/>
      <path class="cls-9" d="M18.07214,29.43892a3.88676,3.88676,0,0,1,.64166.3432,5.515,5.515,0,0,1,.54781.40667,6.74969,6.74969,0,0,1,.91573.93491,7.58727,7.58727,0,0,1,.72585,1.06318,5.67277,5.67277,0,0,1,.486,1.22529c.11845.43788.21256.89222.32513,1.334a7.98374,7.98374,0,0,0,.43079,1.26259c.173.401.35467.79614.5609,1.17466a7.96606,7.96606,0,0,0,.684,1.09145,1.12783,1.12783,0,0,1-1.7884,1.37465q-.02005-.02616-.03839-.053l-.0404-.05982-5.76633-8.533a1.27177,1.27177,0,0,1,1.53394-1.88962Z"/>
      <path class="cls-10" d="M24.62047,40.134a20.69533,20.69533,0,0,1-1.82536,1.2679,9.50887,9.50887,0,0,1-3.29967,1.54428.57868.57868,0,0,1-.5373-.47443.88209.88209,0,0,1,.30245-.784c.5278-.50646,1.35568-1.45057,1.18252-2.07326-.17435-.62391.26212-.99392.78281-.76979a1.30951,1.30951,0,0,0,1.19437-.15892c.36057-.22893.23011-1.00458.72-1.13268.48985-.127.56695.542,1.19676.87647a1.44456,1.44456,0,0,1,.40563.312A.9166.9166,0,0,1,24.62047,40.134Z"/>
      <path class="cls-11" d="M24.62047,40.134a20.69533,20.69533,0,0,1-1.82536,1.2679,9.50887,9.50887,0,0,1-3.29967,1.54428.57868.57868,0,0,1-.5373-.47443.75716.75716,0,0,0,.43055.05814,1.88271,1.88271,0,0,0,.61914-.25621q1.71149-.96071,3.423-1.92147a2.30871,2.30871,0,0,0,1.15761-1.06862c.06168-.16488.08423-.34158.14116-.50883.00354-.01066.00829-.02253.013-.03319A.9166.9166,0,0,1,24.62047,40.134Z"/>
    </g>
    <g>
      <path class="cls-12" d="M15.07335,20.19872a2.74,2.74,0,0,1-1.5239-.53281,14.993,14.993,0,0,1-1.31385-.89969c-.4236-.325-.84308-.65715-1.26235-.98969l-.31184-.254c-.10109-.08965-.20517-.174-.30366-.26825a6.33668,6.33668,0,0,1-.57526-.59246l-.28208-.33017A.79741.79741,0,0,1,10.61826,15.202c.10306.08623.21333.15984.31975.24017l.33148.21967c.22139.14571.451.27706.68135.40719l.69938.37569c.23312.12527.47187.24063.70752.3615.47373.23739.94948.47124,1.41834.71715.4711.242.93564.49545,1.38424.77679a1.02745,1.02745,0,0,1-.53739,1.89784Z"/>
      <path class="cls-13" d="M20.75726,16.11729a4.96691,4.96691,0,0,1-.72785,1.23392,7.961,7.961,0,0,1-.95134,1.0216,9.21529,9.21529,0,0,1-1.1116.8694,6.02451,6.02451,0,0,1-1.31976.67169l-.41537.14362a.89534.89534,0,0,1-.95662-1.44668L15.743,18.093l.45962-.52609c.3061-.351.60324-.71049.90532-1.06533.29633-.36028.59352-.71975.88584-1.0838l.43526-.5492.42574-.55823a1.23845,1.23845,0,0,1,2.13946,1.19853Z"/>
      <path class="cls-14" d="M25.59531,12.243a7.40552,7.40552,0,0,1,1.75184.10734,12.15007,12.15007,0,0,1,1.67687.4063,13.91134,13.91134,0,0,1,1.62311.62069,8.75255,8.75255,0,0,1,1.55328.89914l.29193.22a.911.911,0,0,1-.75217,1.61545l-.84093-.19326-.84382-.18168c-.56264-.12069-1.1283-.22939-1.6923-.3447-.56593-.10766-1.13156-.21642-1.69885-.3187l-.852-.14907-.85519-.13639a1.26212,1.26212,0,0,1,.10251-2.50478Z"/>
      <path class="cls-15" d="M33.37407,22.62945s.12622,2.00319.66635,2.028,1.11112,0,1.11112,0Z"/>
      <path class="cls-16" d="M33.37407,22.62945s.12622,2.00319.66635,2.028,1.11112,0,1.11112,0Z"/>
      <path class="cls-17" d="M33.436,22.70334a3.50768,3.50768,0,0,0,1.10015,1.75245c1.09471.86421,2.00091,1.17952,1.86731.38308,0,0,.80247,0,.61729-.63,0,0,.84877-.12346.24067-.74267,0,0,.63822-.31139-.07092-.86229,0,0-1.92377-1.46128-2.82949-.83147C33.61182,22.29343,33.50254,22.37884,33.436,22.70334Z"/>
      <path class="cls-18" d="M33.35151,15.27754a2.1082,2.1082,0,0,1,.53162.7406,4.18763,4.18763,0,0,1,.25372.82777l.20363.84351.1839.84966c.06375.28245.1148.56883.16894.85435l.07982.42862.07051.43151c.09393.57544.17452,1.155.22134,1.74524l.01618.20374a.89447.89447,0,0,1-1.74518.33833L31.264,15.932a1.00615,1.00615,0,0,1,1.61815-1.062Z"/>
      <path class="cls-19" d="M10.68061,15.23965c.05829-.48141-.63338-3.2892-1.29391-2.273,0,0-.71667-.45813-.81945.30607,0,0-.75425-.22432-.71686.5364,0,0-.75641-.00071-.48749.62412,0,0,.99434,2.1045,2.13511,1.78564C10.319,15.98943,10.64763,15.51206,10.68061,15.23965Z"/>
      <path class="cls-20" d="M10.68061,15.23965c.05829-.48141-.63338-3.2892-1.29391-2.273,0,0-.71667-.45813-.81945.30607,0,0-.75425-.22432-.71686.5364,0,0-.75641-.00071-.48749.62412,0,0,.99434,2.1045,2.13511,1.78564C10.319,15.98943,10.64763,15.51206,10.68061,15.23965Z"/>
      <path class="cls-21" d="M9.99176,14.34037c-.36866.06192-.945.5271-.71551,1.09325s.995.40962.995.40962.93357-.78011.72782-1.23052C10.92791,14.457,10.16061,14.312,9.99176,14.34037Z"/>
      <path class="cls-22" d="M8.30885,14.48675c.28278.421.35691.86655.16557.99506s-.479-.12469-.76176-.54574c-.09848-.14664-.24851-.28842-.31385-.41835-.17607-.35012-.07606-.51091.04864-.59466.13529-.09086.37.03506.59411.24554A1.86408,1.86408,0,0,1,8.30885,14.48675Z"/>
      <path class="cls-23" d="M9.52647,13.40792c.28279.421.365,1.14094.17362,1.26945s-.50227-.36627-.785-.78732c-.136-.20246-.38135-.44158-.34779-.61731.06913-.36186.1595-.36477.24211-.41231C9.00913,12.74547,9.24369,12.98687,9.52647,13.40792Z"/>
      <path class="cls-23" d="M8.88831,13.87719c.28278.421.54616,1.0162.35482,1.1447s-.76494-.25829-1.04773-.67934c-.10494-.15625-.28213-.29434-.32571-.44446a.54768.54768,0,0,1,.16581-.5771C8.22684,13.19249,8.60552,13.45613,8.88831,13.87719Z"/>
      <path class="cls-24" d="M10.25016,13.33c.28278.421.31048.873.11914,1.0015s-.44127-.21139-.72405-.63245-.3788-.90755-.16557-.99506C9.8345,12.55833,9.96738,12.9089,10.25016,13.33Z"/>
      <path class="cls-21" d="M10.53567,13.68742s-1.62809-.21925-1.67985.40328c-.05753.69185,1.29009.31892,1.29009.31892s.11411,1.096.72287.7245A.99951.99951,0,0,0,10.53567,13.68742Z"/>
    </g>
    <g>
      <path class="cls-25" d="M22.80507,12.2093l.00143-.00022-.709-4.44764-2.67884.42461.709,4.44764.00143-.00023a1.355,1.355,0,0,0,2.676-.42416Z"/>
      <path class="cls-26" d="M22.80507,12.2093l.00143-.00022-.709-4.44764-2.67884.42461.709,4.44764.00143-.00023a1.355,1.355,0,0,0,2.676-.42416Z"/>
      <path class="cls-27" d="M20.59705,3.00958a3.33666,3.33666,0,0,0-3.63049,2.74219c-.16939.78482.11763.93536.11763,1.40643,0,.6321-.18518.74206-.674,1.15252a.34195.34195,0,0,0,.12091.61816.40365.40365,0,0,1,.336.51342c-.09541.803.34472.30226.23387,1.37822-.04374.42452.57815.54312.83562.52771A3.68094,3.68094,0,0,0,21.054,9.95387c.487-.57142.80139-1.025.80139-1.025,1.57737,0,1.9027-1.83078,1.9027-2.40227C23.75812,4.38106,22.62941,3.00958,20.59705,3.00958Z"/>
      <path class="cls-28" d="M18.39175,6.59479c-.08585-.02194-.18394-.04089-.2776-.05626-.09489-.01551-.19054-.02789-.28629-.0384q-.28763-.03042-.5767-.0365a.22472.22472,0,0,1,.01014-.44932.25147.25147,0,0,1,.04373.0053q.29869.06495.591.15389c.09725.03016.19383.0622.28954.09752.09669.03606.18829.07212.28727.11918a.11019.11019,0,0,1-.07455.20628Z"/>
      <path class="cls-29" d="M18.16209,9.60118c.03642-.039.00569-.12153-.04021-.1086a2.42518,2.42518,0,0,1-1.12465.01439c-.11557-.02282-.20389.127-.19283.27679h0a.23979.23979,0,0,0,.25355.24131A1.51564,1.51564,0,0,0,18.16209,9.60118Z"/>
      <path class="cls-30" d="M22.39776,7.96541a.55012.55012,0,0,0-.48193-.43447.39607.39607,0,0,0-.30865.17711c-.1267.1685-.23626.45193-.019.6014.06733.04632.15932.07147.18934.15243.03236.08726-.04528.23107-.0863.30916a.88928.88928,0,0,0,.28281-.07957A.648.648,0,0,0,22.39776,7.96541Z"/>
      <g>
        <path class="cls-31" d="M18.78916,7.61262a3.74277,3.74277,0,0,1-1.17153.39684c-.04942.00836-.035-.00988-.05473-.0441a.31954.31954,0,0,1-.03194-.05245,1.88045,1.88045,0,0,1-.06005-.20831,1.18636,1.18636,0,0,1-.00608-.53673,1.818,1.818,0,0,1,.07906-.26381c.00912-.02432.019-.0494.02964-.0745a1.39652,1.39652,0,0,1,1.24149.69259A.06443.06443,0,0,1,18.78916,7.61262Z"/>
        <g>
          <path class="cls-32" d="M18.02361,7.43623a.53333.53333,0,0,1-.46071.52913.13756.13756,0,0,1-.03194-.05245,1.88045,1.88045,0,0,1-.06005-.20831,1.18636,1.18636,0,0,1-.00608-.53673,1.818,1.818,0,0,1,.07906-.26381A.53462.53462,0,0,1,18.02361,7.43623Z"/>
          <path class="cls-33" d="M17.75827,7.43623a.26929.26929,0,0,1-.26987.26913l-.01749-.00076a1.18636,1.18636,0,0,1-.00608-.53673.11819.11819,0,0,1,.02357-.00153A.26994.26994,0,0,1,17.75827,7.43623Z"/>
        </g>
        <circle class="cls-31" cx="17.75827" cy="7.25043" r="0.1164"/>
        <path class="cls-28" d="M18.85058,7.58145a1.34554,1.34554,0,0,0-1.277-.75154C16.68191,6.84872,18.26357,6.93487,18.85058,7.58145Z"/>
      </g>
      <g>
        <g>
          <path class="cls-34" d="M28.25812,8.21038A3.27727,3.27727,0,0,0,28.302,7.14113l-.01909.13615a6.16927,6.16927,0,0,1-1.6922,2.65985c.80683-2.24464.90956-6.41208-2.14944-5.32273a.44054.44054,0,0,1-.10516.03856l-.00249.00172-.00025-.001a.4984.4984,0,0,1-.3916-.07339.60383.60383,0,0,1-.19939-.22192.63175.63175,0,0,1-.01053-.58013c.37937-.68646,3.03058-2.72851,4.60878-.85775C29.67947,4.5078,29.41513,6.52932,28.25812,8.21038Z"/>
          <path class="cls-35" d="M28.25812,8.21038A3.27727,3.27727,0,0,0,28.302,7.14113c-.01827-.703-.25292-5.69118-4.55962-2.78278a.63175.63175,0,0,1-.01053-.58013c.37937-.68646,3.03058-2.72851,4.60878-.85775C29.67947,4.5078,29.41513,6.52932,28.25812,8.21038Z"/>
          <path class="cls-36" d="M24.16337,3.57529a.64325.64325,0,0,0-.3977.05036l-.0001-.00017-.00208.00121a.65039.65039,0,0,0-.10192.06039l-.31135.1844a.65021.65021,0,0,0-.13527.08012l-.001.00061.00006.00012a.64624.64624,0,0,0,.61754,1.11916l.0022.004.02366-.01358a.64958.64958,0,0,0,.13545-.07777l.35717-.205.00079-.00044.00349-.002,0-.00009a.64692.64692,0,0,0-.19088-1.20123Z"/>
          <path class="cls-37" d="M24.16337,3.57529a.64325.64325,0,0,0-.3977.05036l-.0001-.00017-.00208.00121a.65039.65039,0,0,0-.10192.06039l-.31135.1844a.65021.65021,0,0,0-.13527.08012l-.001.00061.00006.00012a.64624.64624,0,0,0,.61754,1.11916l.0022.004.02366-.01358a.64958.64958,0,0,0,.13545-.07777l.35717-.205.00079-.00044.00349-.002,0-.00009a.64692.64692,0,0,0-.19088-1.20123Z"/>
        </g>
        <path class="cls-38" d="M16.69743,5.22137c1.51468.51623,2.31353-.57265,3.43761.73935.86548,1.01015.18582,1.45987.73332,2.29024.04106.06227.13548.09911.14577.02523.35132-2.52214,2.65666-.24512.841.65269,0,0-.0537.25216-.12292.49467-.112.39245.56574.92825.745,1.06313.13826.104.13252-.32475.20964-.70437.15431-.75956,1.333-.16245,1.87189-3.36054A3.46823,3.46823,0,0,0,20.07,2.68775c-1.84033-1.06022-4.02684.5635-4.02684,1.84869C16.04318,4.79083,16.34911,5.10266,16.69743,5.22137Z"/>
      </g>
    </g>
    <path class="cls-39" d="M18.91221,18.91434c.1166.1227.35269.03848.45234-.15958a16.28127,16.28127,0,0,1,2.20578-3.25305,1.8218,1.8218,0,0,0,.13743-2.51754h0a1.8218,1.8218,0,0,0-2.45236.58555,18.80833,18.80833,0,0,1-2.40252,2.87873.43268.43268,0,0,0-.03264.59792A14.04439,14.04439,0,0,1,18.91221,18.91434Z"/>
    <path class="cls-40" d="M28.72657,23.59583c-1.17778.28824-3.34-.23246-4.17025.21353a4.83407,4.83407,0,0,1-2.41129.77686l.53966-.89077a10.94673,10.94673,0,0,1,1.88824-.87885l.61321-.27046A2.79921,2.79921,0,0,1,28.72657,23.59583Z"/>
    <path class="cls-41" d="M28.03055,22.28785a10.32544,10.32544,0,0,1-1.40734-3.68622,43.311,43.311,0,0,0-.775-4.70916,3.72392,3.72392,0,0,0-3.54094-2.6378,3.29057,3.29057,0,0,0-2.77733,2.06243l0-.00012-.00077.00162c-.04275.08253-.08414.16859-.12471.25665a21.02837,21.02837,0,0,1-1.27083,2.24321,1.25267,1.25267,0,0,0,.63519,1.9572,1.53766,1.53766,0,0,0,.67128.12613,26.1637,26.1637,0,0,0,1.91213,3.50611c.33228.54909.29534,2.702.41509,2.9279.46014.86778,1.97648-.763,2.6872-1.08137a7.65351,7.65351,0,0,1,3.09021-.15891C27.981,23.25443,28.43606,22.81423,28.03055,22.28785Z"/>
    <path class="cls-42" d="M28.03055,22.28785a10.32544,10.32544,0,0,1-1.40734-3.68622,43.311,43.311,0,0,0-.775-4.70916,3.72392,3.72392,0,0,0-3.54094-2.6378,3.29057,3.29057,0,0,0-2.77733,2.06243l0-.00012-.00077.00162c-.04275.08253-.08414.16859-.12471.25665a21.02837,21.02837,0,0,1-1.27083,2.24321,1.25267,1.25267,0,0,0,.63519,1.9572,1.53766,1.53766,0,0,0,.67128.12613,26.1637,26.1637,0,0,0,1.91213,3.50611c.33228.54909.29534,2.702.41509,2.9279.46014.86778,1.97648-.763,2.6872-1.08137a7.65351,7.65351,0,0,1,3.09021-.15891C27.981,23.25443,28.43606,22.81423,28.03055,22.28785Z"/>
    <g>
      <path class="cls-43" d="M26.36044,16.64188c-2.44331-.76505-3.11938-2.01871-3.32813-2.792l-.00119-.00354a3.30214,3.30214,0,0,1-.08539-.446l3.00314.92633c.1032.4614.19689.969.2823,1.4826C26.27742,16.08677,26.32013,16.36673,26.36044,16.64188Z"/>
      <path class="cls-44" d="M26.35283,16.5929c-2.43095-.75248-3.111-1.98061-3.32052-2.74305l-.00119-.00354a3.01413,3.01413,0,0,1-.08539-.446l3.003.92557c.0972.43446.18545.9125.26584,1.39615C26.26416,16.01038,26.30987,16.30372,26.35283,16.5929Z"/>
      <path class="cls-45" d="M26.34523,16.54392c-2.41861-.73992-3.10263-1.94252-3.31292-2.69407l-.00119-.00354a2.77456,2.77456,0,0,1-.08539-.446l3.00286.9248c.0912.40753.174.856.24937,1.30971C26.25091,15.934,26.29961,16.24072,26.34523,16.54392Z"/>
      <path class="cls-46" d="M26.33762,16.49494c-2.40625-.72736-3.09426-1.90442-3.30531-2.64509l-.00119-.00354a2.56856,2.56856,0,0,1-.08539-.446l3.00272.924c.0852.3806.16257.79948.2329,1.22326C26.23765,15.85759,26.28936,16.17772,26.33762,16.49494Z"/>
      <path class="cls-47" d="M26.33,16.446c-2.39391-.7148-3.08589-1.86633-3.29771-2.59611l-.00119-.00354a2.39121,2.39121,0,0,1-.08539-.446l3.00258.92327c.0792.35366.15113.743.21644,1.13681C26.22439,15.78119,26.2791,16.11471,26.33,16.446Z"/>
      <path class="cls-48" d="M26.32242,16.397c-2.38157-.70224-3.07752-1.82824-3.29011-2.54714l-.00119-.00354a2.2385,2.2385,0,0,1-.08539-.446l3.00244.9225c.0732.32673.13968.68645.2,1.05037C26.21114,15.7048,26.26884,16.05171,26.32242,16.397Z"/>
      <path class="cls-49" d="M26.31481,16.348c-2.36921-.68968-3.06914-1.79015-3.2825-2.49816l-.00119-.00354a2.1029,2.1029,0,0,1-.08539-.446l3.0023.92173c.0672.2998.12824.62994.18351.96393C26.19788,15.6284,26.25859,15.98871,26.31481,16.348Z"/>
      <path class="cls-50" d="M26.30721,16.299c-2.35687-.67712-3.06078-1.752-3.2749-2.44918l-.00119-.00354a1.98349,1.98349,0,0,1-.08539-.446l3.00216.921c.0612.27286.1168.57342.167.87748C26.18463,15.552,26.24833,15.9257,26.30721,16.299Z"/>
      <path class="cls-51" d="M26.29961,16.25005c-2.34453-.66456-3.05241-1.714-3.2673-2.4002l-.00119-.00354a1.87654,1.87654,0,0,1-.08539-.446l3.002.9202c.0552.24593.10536.51691.15057.791C26.17137,15.47561,26.23807,15.8627,26.29961,16.25005Z"/>
      <path class="cls-52" d="M26.292,16.20107c-2.33217-.652-3.044-1.67586-3.25969-2.35122l-.00119-.00354a1.7812,1.7812,0,0,1-.08539-.446l3.00188.91943c.0492.219.09392.4604.13411.70459C26.15812,15.39921,26.22782,15.7997,26.292,16.20107Z"/>
      <path class="cls-53" d="M26.2844,16.1521c-2.31983-.63944-3.03567-1.63777-3.25209-2.30225l-.00119-.00354a1.69513,1.69513,0,0,1-.08539-.446l3.00174.91867c.0432.19206.08247.40388.11764.61814C26.14486,15.32282,26.21756,15.73669,26.2844,16.1521Z"/>
      <path class="cls-54" d="M26.27679,16.10312c-2.30747-.62688-3.02729-1.59968-3.24448-2.25327l-.00119-.00354a1.61673,1.61673,0,0,1-.08539-.446l3.0016.9179c.0372.16513.071.34736.10118.5317C26.13161,15.24642,26.2073,15.67369,26.27679,16.10312Z"/>
      <path class="cls-55" d="M26.26919,16.05414c-2.29513-.61432-3.01892-1.56158-3.23688-2.20429l-.00119-.00354a1.546,1.546,0,0,1-.08539-.446l3.00146.91713c.0312.1382.05959.29085.08471.44526C26.11835,15.17,26.19705,15.61069,26.26919,16.05414Z"/>
      <path class="cls-56" d="M26.26159,16.00516c-2.28279-.60176-3.01055-1.52349-3.22928-2.15531l-.00119-.00354a1.48082,1.48082,0,0,1-.08539-.446l3.00132.91637c.0252.11126.04815.23433.06824.35881C26.10509,15.09363,26.18679,15.54768,26.26159,16.00516Z"/>
      <path class="cls-57" d="M26.254,15.95618c-2.27043-.58919-3.00218-1.48539-3.22167-2.10633l-.00119-.00354a1.42121,1.42121,0,0,1-.08539-.446l3.00118.9156c.01919.08433.03671.17782.05178.27237C26.09184,15.01724,26.17653,15.48468,26.254,15.95618Z"/>
      <path class="cls-58" d="M26.24638,15.9072c-2.25809-.57663-2.99381-1.44729-3.21407-2.05735l-.00119-.00354a1.366,1.366,0,0,1-.08539-.446l3.001.91483c.01318.0574.02525.12131.0353.18593C26.07858,14.94084,26.16628,15.42168,26.24638,15.9072Z"/>
      <path class="cls-59" d="M26.23878,15.85823c-2.24574-.56408-2.98544-1.40921-3.20647-2.00838l-.00119-.00354a1.31538,1.31538,0,0,1-.08539-.446l3.00091.91407c.00718.03046.01381.06479.01884.09947C26.06533,14.86445,26.156,15.35867,26.23878,15.85823Z"/>
      <path class="cls-60" d="M26.23117,15.80925c-2.23339-.55152-2.97706-1.37111-3.19886-1.9594l-.00119-.00354a1.26842,1.26842,0,0,1-.08539-.446l3.00077.9133.00237.013C26.05207,14.78805,26.14576,15.29567,26.23117,15.80925Z"/>
    </g>
    <path class="cls-61" d="M27.18306,23.03841c-.17791-.01662-.40444-.02733-.65353-.02965a6.93835,6.93835,0,0,0-.3914-.701c-.06049-.09729-.12217-.19569-.185-.29414a7.43431,7.43431,0,0,1-.70454-1.29641,10.71474,10.71474,0,0,1-.50289-3.0209,8.00424,8.00424,0,0,0-.70929-3.359l.51952-.28586a8.57556,8.57556,0,0,1,.78162,3.6045,10.18474,10.18474,0,0,0,.46732,2.85371,6.75427,6.75427,0,0,0,.65,1.18729c.13046.20635.26568.421.39021.64163A5.06642,5.06642,0,0,1,27.18306,23.03841Z"/>
    <path class="cls-62" d="M27.31451,15.43a.23647.23647,0,0,1-.34654.186,9.19738,9.19738,0,0,0-2.80024-.90737,1.50762,1.50762,0,0,1-1.213-1.75335h0A1.50761,1.50761,0,0,1,24.708,11.74216a10.48783,10.48783,0,0,0,2.75188.50124.35805.35805,0,0,1,.2881.41641A18.79244,18.79244,0,0,0,27.31451,15.43Z"/>
  </g>
</svg>