<svg xmlns="http://www.w3.org/2000/svg"  viewBox="0 0 24 24" width="100px" height="100px"><rect width="11.5" height="17" x="12" y="3.5" fill="#FFF"/><path fill="#015CAB" d="M23.5,21h-10c-0.2763672,0-0.5-0.2236328-0.5-0.5s0.2236328-0.5,0.5-0.5H23V4h-9.5 C13.2236328,4,13,3.7763672,13,3.5S13.2236328,3,13.5,3h10C23.7763672,3,24,3.2236328,24,3.5v17 C24,20.7763672,23.7763672,21,23.5,21z"/><polygon fill="#015CAB" points="14,0 0,2.6086957 0,21.391304 14,24"/><polygon fill="#FFF" points="0,2.6087036 0,2.8587036 14,0.25 14,0" opacity=".2"/><polygon points="0,21.3912964 14,24 14,23.75 0,21.1412964" opacity=".1"/><rect width="8" height="1" x="13.5" y="5.5" fill="#015CAB"/><rect width="8" height="1" x="13.5" y="8.5" fill="#015CAB"/><rect width="8" height="1" x="13.5" y="11.5" fill="#015CAB"/><rect width="8" height="1" x="13.5" y="14.5" fill="#015CAB"/><rect width="8" height="1" x="13.5" y="17.5" fill="#015CAB"/><linearGradient id="aWJZzSRwFMh6eoDcUV4NHa" x1="9.5" x2="23.354" y1="7.5" y2="21.354" gradientUnits="userSpaceOnUse"><stop offset="0" stop-opacity=".1"/><stop offset="1" stop-opacity="0"/></linearGradient><path fill="url(#aWJZzSRwFMh6eoDcUV4NHa)" d="M23.5,21c0.2763672,0,0.5-0.2236328,0.5-0.5V13L14,3v18H23.5z"/><path fill="#FFF" d="M7.9374924,16.53125l1.0628738,0.0759277l2.2133179-8.3724365L9.6310425,8.3477783l-1.1564331,4.3353271 c0,0-0.5881348-2.1396484-1.1465454-4.1708374l-1.68927,0.1206665l-1.1134033,4.0501709L3.4860229,8.7866821L1.9610596,8.8956299 l1.9423218,7.3474731l1.2166138,0.0869141L6.5,11.5C6.5,11.5,7.2924805,14.2738037,7.9374924,16.53125z"/><linearGradient id="aWJZzSRwFMh6eoDcUV4NHb" x1="-337.186" x2="-336.956" y1="438.871" y2="438.871" gradientTransform="matrix(60.9756 0 0 60.9756 20560.121 -26748.414)" gradientUnits="userSpaceOnUse"><stop offset="0" stop-color="#fff"/><stop offset="1"/></linearGradient><path fill="url(#aWJZzSRwFMh6eoDcUV4NHb)" d="M14,0L0,2.6086957v18.782608L14,24V0z" opacity=".05"/><linearGradient id="aWJZzSRwFMh6eoDcUV4NHc" x1="-1.563" x2="25.045" y1="5.962" y2="18.369" gradientUnits="userSpaceOnUse"><stop offset="0" stop-color="#fff" stop-opacity=".2"/><stop offset="1" stop-color="#fff" stop-opacity="0"/></linearGradient><path fill="url(#aWJZzSRwFMh6eoDcUV4NHc)" d="M23.5,3H14V0L0,2.6087036v18.7825928L14,24v-3h9.5c0.2763672,0,0.5-0.2236328,0.5-0.5v-17 C24,3.2236328,23.7763672,3,23.5,3z"/></svg>