<svg xmlns="http://www.w3.org/2000/svg"  viewBox="0 0 80 80" width="100px" height="100px" baseProfile="basic"><rect width="5" height="11" x="56.5" y="25.5" fill="#bae0bd"/><path fill="#5e9c76" d="M62,37h-6V25h6V37z M57,36h4V26h-4V36z"/><rect width="5" height="19" x="61.5" y="17.5" fill="#8bb7f0"/><path fill="#4e7ab5" d="M67,37h-6V17h6V37z M62,36h4V18h-4V36z"/><rect width="5" height="16" x="66.5" y="20.5" fill="#f78f8f"/><path fill="#c74343" d="M72,37h-6V20h6V37z M67,36h4V21h-4V36z"/><rect width="7" height="8" x="23.5" y="27.5" fill="#b0c1d4"/><path fill="#66798f" d="M31,36h-8v-9h8V36z M24,35h6v-7h-6V35z"/><rect width="15" height="2" x="19.5" y="34.5" fill="#b0c1d4"/><path fill="#66798f" d="M35,37H19v-3h16V37z M20,36h14v-1H20V36z"/><rect width="41" height="25" x="6.5" y="4.5" fill="#c2e8ff"/><path fill="#66798f" d="M48,30H6V4h42V30z M7,29h40V5H7V29z"/><rect width="37" height="9" x="10.5" y="41.5" fill="#dbb065"/><path fill="#967a44" d="M48,51H10V41h38V51z M11,50h36v-8H11V50z"/><rect width="26" height="36" x="47.5" y="41.5" fill="#f5ce85"/><path fill="#967a44" d="M74,78H47V41h27V78z M48,77h25V42H48V77z"/><rect width="75" height="5" x="2.5" y="36.5" fill="#f5ce85"/><path fill="#967a44" d="M78,42H2v-6h76V42z M3,41h74v-4H3V41z"/><path fill="#66798f" d="M6.5,25v4.5h41V25H6.5z M43.5,28.5c-0.6,0-1-0.4-1-1c0-0.6,0.4-1,1-1s1,0.4,1,1	C44.5,28.1,44.1,28.5,43.5,28.5z"/><rect width="4" height="36" x="6.5" y="41.5" fill="#f5ce85"/><path fill="#967a44" d="M11,78H6V41h5V78z M7,77h3V42H7V77z"/><rect width="7" height="1" x="57" y="50" fill="#967a44"/><rect width="7" height="1" x="57" y="68" fill="#967a44"/><rect width="26" height="1" x="47.5" y="59" fill="#967a44"/></svg>