<svg xmlns="http://www.w3.org/2000/svg"  viewBox="0 0 24 24" width="100px" height="100px"><path d="M11.979 3.408c.034.005.503-.203 1.046-.47 3.092-1.505 4.549-1.248 5.197-1.219-3.092-1.901-7.39-2.419-11.319-.566C5.771 1.691 5.742 1.73 6.448 1.696 8.756 1.575 11.756 3.365 11.979 3.408zM23.816 9.644c-.818-3.87-3.266-6.304-3.61-6.304-.353 0-1.171.315-1.743.673-1.127.702-1.984 1.519-3.112 2.555 2.051 2.578 4.946 6.744 5.947 9.787.329 1.001.47 1.989.358 2.531-.083.411-.083.411.068.223.295-.372.963-1.514 1.23-2.104.358-.783.726-1.944.9-2.841.209-1.089.189-3.425-.039-4.518V9.644zM12.076 9.712c-.237-.053-2.391 1.872-3.939 3.512-2.725 2.893-4.316 5.428-4.316 6.875 0 .72.305 1.084 1.655 1.964 1.606 1.044 3.479 1.708 5.328 1.887 1.549.15 3.425-.043 4.858-.493 1.737-.546 4.099-1.973 4.481-2.704.499-.963-.488-3.116-2.633-5.743C16.156 13.345 12.531 9.813 12.076 9.712zM8.736 6.573h.001C7.3 5.271 5.926 3.965 4.557 3.505 3.82 3.259 3.768 3.273 3.168 3.898 1.755 5.368.579 7.753.25 9.82c-.261 1.654-.295 2.119-.203 2.927.272 2.443.837 4.131 1.959 5.849.459.706.585.837.45.479-.203-.533-.014-1.815.459-3.096C3.607 14.092 5.524 10.516 8.736 6.573z"/></svg>